M48
;DRILL file {KiCad 4.0.0-2.201511301920+6191~38~ubuntu14.04.1-stable} date Sun 17 Jan 2016 11:49:24 AM ICT
;FORMAT={-:-/ absolute / metric / decimal}
FMAT,2
METRIC,TZ
T1C0.300
T2C1.016
%
G90
G05
M71
T1
X84.775Y-143.602
X85.Y-144.7
X85.257Y-151.292
X85.275Y-148.179
X85.275Y-149.882
X85.574Y-146.485
X85.8Y-141.
X86.052Y-147.308
X86.207Y-151.315
X86.425Y-143.31
X86.524Y-146.419
X86.59Y-152.575
X86.59Y-140.8
X86.8Y-148.3
X87.157Y-151.12
X87.232Y-152.8
X87.305Y-147.437
X87.675Y-143.19
X87.71Y-139.72
X87.776Y-151.97
X87.791Y-147.95
X87.87Y-152.925
X88.331Y-147.071
X88.37Y-142.06
X88.506Y-146.447
X88.62Y-138.73
X88.955Y-146.903
X89.134Y-152.465
X89.16Y-138.16
X89.281Y-151.397
X89.47Y-148.41
X89.472Y-146.526
X89.72Y-137.61
X90.107Y-146.608
X90.499Y-152.472
X90.696Y-151.404
X91.63Y-151.29
X91.72Y-137.19
X91.722Y-152.22
X92.449Y-136.839
X92.487Y-146.66
X92.5Y-148.21
X92.679Y-151.398
X92.71Y-155.91
X92.85Y-136.34
X93.16Y-148.206
X93.2Y-127.44
X93.387Y-135.059
X93.47Y-143.63
X93.491Y-136.26
X93.529Y-152.14
X93.565Y-147.71
X93.67Y-153.92
X94.14Y-146.49
X94.19Y-135.231
X94.41Y-129.39
X94.549Y-147.942
X94.808Y-146.472
X95.07Y-143.6
X95.431Y-135.31
X95.55Y-155.87
X95.691Y-136.53
X95.758Y-146.503
X95.84Y-143.59
X95.846Y-134.823
X96.445Y-135.049
X96.621Y-143.621
X96.64Y-148.023
X96.69Y-155.87
X96.9Y-137.088
X96.976Y-151.309
X97.012Y-146.657
X97.05Y-127.43
X97.41Y-143.65
X97.42Y-137.65
X97.57Y-147.9
X97.72Y-146.68
X97.84Y-155.84
X97.983Y-148.389
X98.49Y-149.5
X98.495Y-144.845
X98.5Y-150.16
X98.604Y-145.775
X98.91Y-147.99
X98.979Y-150.584
X99.133Y-144.8
X99.199Y-145.541
X99.702Y-139.765
X99.718Y-150.44
X99.88Y-131.46
X100.75Y-141.08
X101.15Y-150.4
X101.393Y-142.099
X101.514Y-146.575
X101.62Y-131.48
X101.687Y-137.332
X101.77Y-155.87
X101.842Y-147.138
X101.878Y-147.832
X102.03Y-144.015
X102.085Y-140.835
X102.24Y-148.36
X102.51Y-137.34
X102.618Y-150.587
X102.834Y-148.102
X102.962Y-146.26
X102.973Y-149.09
X102.993Y-135.443
X103.Y-140.75
X103.206Y-147.19
X103.398Y-151.163
X103.872Y-150.099
X104.52Y-151.23
X104.822Y-150.25
X104.98Y-153.98
X105.383Y-151.743
X105.751Y-150.606
X106.031Y-154.402
X106.556Y-152.289
X106.76Y-129.24
X106.84Y-151.38
X107.486Y-152.406
X107.558Y-150.61
X107.646Y-145.648
X107.88Y-137.
X107.993Y-143.795
X108.02Y-144.72
X108.141Y-137.987
X108.208Y-139.52
X108.287Y-142.87
X108.31Y-130.97
X108.337Y-141.01
X108.407Y-141.94
X108.414Y-135.461
X108.476Y-144.22
X108.488Y-150.579
X108.77Y-138.75
X108.78Y-137.77
X108.9Y-143.38
X108.93Y-142.4
X108.949Y-141.199
X108.96Y-130.955
X109.04Y-139.38
X109.082Y-140.425
X109.26Y-135.44
X109.287Y-144.739
X109.418Y-150.551
X109.61Y-151.49
X109.73Y-144.233
X110.342Y-150.182
X110.56Y-136.05
X110.86Y-151.8
X110.895Y-145.222
X111.107Y-144.618
X111.178Y-136.369
X111.61Y-145.2
X111.772Y-130.951
X112.09Y-150.05
X112.2Y-151.
X112.23Y-145.38
X112.34Y-144.35
X112.344Y-129.256
X113.02Y-144.44
X113.03Y-145.43
X113.26Y-140.84
X113.789Y-144.506
X113.967Y-136.511
X114.Y-130.3
X114.69Y-135.55
X114.734Y-136.466
X114.8Y-130.8
X116.2Y-145.4
X116.735Y-140.852
X116.788Y-138.874
X116.79Y-143.49
X116.85Y-142.33
X116.883Y-137.954
X116.915Y-139.502
X117.02Y-141.425
X117.16Y-144.03
X117.204Y-140.417
X117.3Y-145.3
X117.61Y-139.535
X117.671Y-141.818
X117.692Y-138.532
X117.728Y-144.788
X117.73Y-141.13
X117.76Y-137.28
X117.772Y-143.844
X117.84Y-140.492
X119.59Y-150.18
X119.79Y-130.68
X123.34Y-145.98
X123.45Y-134.38
T2
X86.08Y-129.96
X88.62Y-129.96
X91.16Y-129.96
X93.863Y-122.495
X93.863Y-125.035
X93.863Y-157.555
X93.863Y-160.095
X96.403Y-122.495
X96.403Y-125.035
X96.403Y-157.555
X96.403Y-160.095
X98.943Y-122.495
X98.943Y-125.035
X98.943Y-157.555
X98.943Y-160.095
X101.483Y-122.495
X101.483Y-125.035
X101.483Y-157.555
X101.483Y-160.095
X104.023Y-122.495
X104.023Y-125.035
X104.023Y-157.555
X104.023Y-160.095
X106.563Y-122.495
X106.563Y-125.035
X106.563Y-157.555
X106.563Y-160.095
X109.103Y-122.495
X109.103Y-125.035
X109.103Y-157.555
X109.103Y-160.095
X111.643Y-122.495
X111.643Y-125.035
X111.643Y-157.555
X111.643Y-160.095
X114.183Y-122.495
X114.183Y-125.035
X114.183Y-157.555
X114.183Y-160.095
X116.723Y-122.495
X116.723Y-125.035
X116.723Y-157.555
X116.723Y-160.095
T0
M30
