M48
;DRILL file {KiCad 4.0.0-2.201511301920+6191~38~ubuntu14.04.1-stable} date Mon 07 Dec 2015 12:26:01 PM ICT
;FORMAT={-:-/ absolute / metric / decimal}
FMAT,2
METRIC,TZ
T1C0.300
T2C1.016
%
G90
G05
M71
T1
X85.205Y-141.756
X85.245Y-143.609
X85.253Y-148.702
X85.435Y-144.706
X85.67Y-141.301
X85.71Y-145.911
X85.714Y-147.128
X85.769Y-145.264
X85.96Y-150.91
X85.96Y-152.675
X86.065Y-138.605
X86.098Y-144.695
X86.2Y-140.46
X86.205Y-148.721
X86.308Y-146.164
X86.71Y-135.39
X86.78Y-136.94
X86.832Y-139.213
X86.85Y-145.782
X86.947Y-141.088
X87.1Y-148.7
X87.177Y-143.975
X87.451Y-147.849
X87.83Y-148.7
X88.04Y-146.036
X88.193Y-139.11
X88.2Y-140.6
X88.248Y-144.476
X88.31Y-149.4
X88.82Y-138.68
X88.952Y-148.531
X89.13Y-144.95
X89.215Y-143.35
X89.778Y-134.558
X89.85Y-140.68
X89.851Y-143.053
X90.6Y-148.7
X90.64Y-150.95
X90.65Y-152.635
X91.22Y-149.32
X91.57Y-133.916
X91.808Y-148.718
X92.Y-141.19
X92.05Y-146.07
X92.208Y-149.244
X92.603Y-143.997
X92.758Y-148.87
X92.916Y-144.591
X93.21Y-146.142
X93.24Y-127.47
X93.252Y-143.952
X93.85Y-141.053
X93.86Y-146.13
X94.39Y-129.35
X94.49Y-133.916
X94.495Y-141.137
X94.52Y-146.08
X94.54Y-148.879
X94.56Y-151.14
X94.561Y-143.786
X95.115Y-144.126
X95.178Y-146.088
X95.19Y-148.86
X95.37Y-152.575
X95.44Y-133.916
X95.445Y-141.211
X95.603Y-150.619
X95.63Y-143.71
X95.828Y-146.112
X95.829Y-149.257
X96.095Y-141.228
X96.3Y-128.4
X96.44Y-146.37
X96.712Y-141.434
X96.817Y-150.085
X97.062Y-147.016
X97.161Y-143.92
X97.622Y-142.37
X97.991Y-150.825
X98.368Y-145.652
X98.37Y-134.
X98.42Y-152.05
X98.545Y-148.317
X98.93Y-146.32
X99.34Y-133.99
X99.421Y-149.141
X99.72Y-151.97
X99.869Y-146.993
X99.88Y-149.601
X100.36Y-153.98
X100.72Y-131.295
X101.6Y-147.4
X101.611Y-151.636
X102.033Y-136.895
X102.275Y-138.821
X102.44Y-131.245
X102.911Y-138.952
X102.965Y-137.341
X102.997Y-141.694
X103.258Y-139.502
X103.264Y-151.585
X103.384Y-142.642
X103.496Y-144.431
X103.5Y-154.
X103.512Y-143.781
X103.532Y-137.673
X103.93Y-149.61
X103.933Y-153.077
X105.246Y-147.27
X105.258Y-148.057
X105.344Y-146.32
X105.491Y-150.29
X105.998Y-145.599
X106.035Y-142.435
X106.036Y-139.264
X106.038Y-140.063
X106.038Y-146.462
X106.046Y-140.869
X106.057Y-141.657
X106.062Y-143.229
X106.082Y-143.982
X106.1Y-147.2
X106.117Y-152.137
X106.7Y-145.54
X106.737Y-144.781
X106.74Y-150.668
X106.85Y-148.02
X106.96Y-151.618
X107.18Y-129.195
X107.19Y-130.91
X107.544Y-151.903
X107.573Y-136.987
X107.646Y-148.07
X107.671Y-152.853
X107.8Y-138.486
X107.8Y-140.022
X107.8Y-141.652
X107.8Y-143.255
X107.89Y-135.89
X108.28Y-146.45
X108.319Y-144.917
X108.35Y-137.68
X108.56Y-151.82
X108.605Y-150.671
X108.67Y-130.73
X108.9Y-129.145
X109.295Y-147.329
X109.3Y-146.5
X109.3Y-152.34
X109.9Y-149.96
X110.04Y-137.64
X110.39Y-151.68
X110.74Y-142.49
X111.26Y-145.6
X111.669Y-148.848
X111.815Y-150.164
X112.5Y-140.84
X113.23Y-137.65
X113.51Y-153.6
X113.548Y-145.348
X113.63Y-144.2
X113.74Y-129.17
X114.57Y-152.49
X115.054Y-136.603
X115.704Y-136.61
X116.439Y-141.72
X117.09Y-141.22
X117.678Y-143.835
X117.741Y-145.551
X117.809Y-142.856
X117.822Y-140.578
X117.9Y-138.4
X117.9Y-139.6
X117.93Y-129.145
X117.954Y-144.782
X117.956Y-141.638
X117.98Y-130.82
X117.99Y-137.61
X118.18Y-148.764
X118.857Y-140.056
X118.859Y-139.257
X118.884Y-140.776
X119.59Y-129.145
X119.6Y-130.88
X119.656Y-142.455
X119.7Y-141.6
X119.7Y-143.2
X119.9Y-150.29
X119.91Y-151.84
X121.82Y-150.36
X121.86Y-151.845
X123.31Y-145.995
X123.33Y-147.545
X123.41Y-144.495
X123.45Y-134.25
X123.47Y-132.745
X123.48Y-135.89
T2
X93.863Y-122.495
X93.863Y-125.035
X93.863Y-157.555
X93.863Y-160.095
X96.403Y-122.495
X96.403Y-125.035
X96.403Y-157.555
X96.403Y-160.095
X98.943Y-122.495
X98.943Y-125.035
X98.943Y-157.555
X98.943Y-160.095
X101.483Y-122.495
X101.483Y-125.035
X101.483Y-157.555
X101.483Y-160.095
X104.023Y-122.495
X104.023Y-125.035
X104.023Y-157.555
X104.023Y-160.095
X106.563Y-122.495
X106.563Y-125.035
X106.563Y-157.555
X106.563Y-160.095
X109.103Y-122.495
X109.103Y-125.035
X109.103Y-157.555
X109.103Y-160.095
X111.643Y-122.495
X111.643Y-125.035
X111.643Y-157.555
X111.643Y-160.095
X114.183Y-122.495
X114.183Y-125.035
X114.183Y-157.555
X114.183Y-160.095
X116.723Y-122.495
X116.723Y-125.035
X116.723Y-157.555
X116.723Y-160.095
T0
M30
