G04 #@! TF.FileFunction,Copper,L2,Inr,Signal*
%FSLAX46Y46*%
G04 Gerber Fmt 4.6, Leading zero omitted, Abs format (unit mm)*
G04 Created by KiCad (PCBNEW 4.0.0-rc1-stable) date Sun 22 Nov 2015 09:54:25 PM ICT*
%MOMM*%
G01*
G04 APERTURE LIST*
%ADD10C,0.100000*%
%ADD11R,1.727200X1.727200*%
%ADD12O,1.727200X1.727200*%
%ADD13C,0.600000*%
%ADD14C,0.254000*%
G04 APERTURE END LIST*
D10*
D11*
X95821500Y-157670000D03*
D12*
X95821500Y-160210000D03*
X98361500Y-157670000D03*
X98361500Y-160210000D03*
X100901500Y-157670000D03*
X100901500Y-160210000D03*
X103441500Y-157670000D03*
X103441500Y-160210000D03*
X105981500Y-157670000D03*
X105981500Y-160210000D03*
X108521500Y-157670000D03*
X108521500Y-160210000D03*
X111061500Y-157670000D03*
X111061500Y-160210000D03*
X113601500Y-157670000D03*
X113601500Y-160210000D03*
D11*
X95758000Y-122618000D03*
D12*
X95758000Y-125158000D03*
X98298000Y-122618000D03*
X98298000Y-125158000D03*
X100838000Y-122618000D03*
X100838000Y-125158000D03*
X103378000Y-122618000D03*
X103378000Y-125158000D03*
X105918000Y-122618000D03*
X105918000Y-125158000D03*
X108458000Y-122618000D03*
X108458000Y-125158000D03*
X110998000Y-122618000D03*
X110998000Y-125158000D03*
X113538000Y-122618000D03*
X113538000Y-125158000D03*
D13*
X106066000Y-151089000D03*
X96258100Y-145738000D03*
X108392000Y-148783000D03*
X100999000Y-150260000D03*
X111875175Y-145968013D03*
X104070000Y-145087000D03*
X101854000Y-152394000D03*
X95423400Y-149509000D03*
X102608000Y-145087000D03*
X107239000Y-150725000D03*
X110048526Y-150687849D03*
X94000500Y-145378000D03*
X94767400Y-147637500D03*
X102677000Y-151989000D03*
X87541100Y-146850100D03*
X101602000Y-145687000D03*
X89077800Y-144411700D03*
X109696000Y-141708000D03*
X106946700Y-147853400D03*
X103454000Y-147489000D03*
X106944000Y-148638000D03*
X100249000Y-150014000D03*
X90129360Y-146921220D03*
X90678500Y-139615000D03*
X89154000Y-143637000D03*
X108797000Y-139580000D03*
X107721400Y-142227300D03*
X88589569Y-144956574D03*
X108954000Y-141591000D03*
X107746800Y-143052800D03*
X91361700Y-146059000D03*
X90632280Y-146029680D03*
X106949000Y-143050000D03*
X108686167Y-143663185D03*
X90170000Y-144704000D03*
X86850400Y-146519000D03*
X106959000Y-145454000D03*
X96172020Y-142062200D03*
X97706180Y-142067280D03*
X112857280Y-146159220D03*
X114942620Y-143047720D03*
X110147100Y-147129500D03*
X118935500Y-147840700D03*
X117868700Y-141008100D03*
X108369100Y-145465800D03*
X114134980Y-140640000D03*
X93791480Y-141408000D03*
X87947696Y-141858000D03*
X89455898Y-149617794D03*
X108630394Y-137385753D03*
X104648000Y-156159200D03*
X103124000Y-156057600D03*
X85859020Y-142418000D03*
X86601320Y-137439000D03*
X86868000Y-153529980D03*
X92798900Y-154191020D03*
X116631486Y-145044030D03*
X109601000Y-156159200D03*
X111846980Y-129585000D03*
X118318000Y-152649000D03*
X99300900Y-148729000D03*
X108991000Y-127140000D03*
X104966000Y-127178000D03*
X112897000Y-129317000D03*
X109313000Y-129577000D03*
X123584000Y-129565000D03*
X124270000Y-145720000D03*
X124396000Y-148895000D03*
X122149000Y-152883000D03*
X100368000Y-155080000D03*
X96443800Y-155156000D03*
X91681300Y-150978000D03*
X100825000Y-135382000D03*
X97548700Y-135484000D03*
X94361000Y-135420000D03*
X91440000Y-135674000D03*
X108632000Y-138849000D03*
X109220000Y-142672000D03*
X92134900Y-140951000D03*
X89342300Y-140853000D03*
X96520000Y-149454000D03*
X97637900Y-144754000D03*
X94684700Y-149639000D03*
X93634700Y-149833000D03*
X97616800Y-149312000D03*
X91554000Y-149454000D03*
X86334600Y-149403000D03*
X91107260Y-141302740D03*
X109928000Y-144922000D03*
X95580200Y-146799300D03*
X108615000Y-150346000D03*
X89204800Y-142887700D03*
X101002000Y-139704000D03*
X87559547Y-144895117D03*
X101732000Y-139530000D03*
X107746800Y-139052300D03*
X88365100Y-148436000D03*
X91564460Y-147642580D03*
X104058000Y-143137000D03*
X106946700Y-144653000D03*
X92103300Y-144758000D03*
X109347000Y-149440900D03*
X95329200Y-145151000D03*
X103454000Y-151689000D03*
X94741700Y-146159000D03*
X106146600Y-149453600D03*
X100972000Y-145280000D03*
X103475000Y-149439000D03*
X100266000Y-146059000D03*
X98036380Y-146733260D03*
X106146600Y-148640800D03*
X99519300Y-145703000D03*
X101194000Y-147049000D03*
X97955100Y-147637500D03*
X101014000Y-148909000D03*
X97132140Y-146679920D03*
X102437000Y-149216000D03*
X92054300Y-146886000D03*
X99906700Y-143455000D03*
X91325700Y-146784060D03*
X101690000Y-143201000D03*
X121733980Y-130118000D03*
X121348500Y-133451600D03*
X123113800Y-135610600D03*
X123557000Y-136188000D03*
X118485000Y-129559000D03*
X120535700Y-132651500D03*
X121361200Y-137464800D03*
X122947000Y-137447000D03*
X123413000Y-138105000D03*
X123705980Y-139127000D03*
X122174000Y-140627100D03*
X121373900Y-141414500D03*
X123352020Y-140864000D03*
X123366000Y-142567020D03*
X123662000Y-149045000D03*
X111744760Y-147845780D03*
X107784900Y-147091400D03*
X106934000Y-138239500D03*
X89166700Y-148437600D03*
X92379800Y-137935000D03*
X92875000Y-140815000D03*
X90629740Y-141848840D03*
X109402880Y-139992100D03*
X109280960Y-137883900D03*
X108948220Y-136745980D03*
X96918780Y-142085060D03*
X93154500Y-143637000D03*
X110977010Y-144957800D03*
X109838077Y-145750045D03*
X94841520Y-141619020D03*
X86917674Y-141713726D03*
X87087161Y-149471627D03*
X108915200Y-145008602D03*
X88991180Y-141634000D03*
X101867000Y-153149000D03*
X97320100Y-152819000D03*
X92748100Y-152641000D03*
X86893400Y-150254000D03*
X101790000Y-137782000D03*
X98336100Y-137846000D03*
X95186500Y-137808000D03*
X90106500Y-135636000D03*
X86639400Y-140526000D03*
X88696800Y-149377000D03*
X93072700Y-146455000D03*
X90728800Y-149352000D03*
X95305300Y-150405000D03*
X97024700Y-150310000D03*
X92612000Y-149414000D03*
X98892100Y-147653000D03*
X109425778Y-143687482D03*
X102920800Y-153847800D03*
X123431020Y-143421000D03*
X118847000Y-152118000D03*
X109728000Y-131204000D03*
X103391000Y-136042000D03*
X117335000Y-139040000D03*
X111747000Y-139827000D03*
X113433860Y-144716500D03*
X114939600Y-145124300D03*
X118948200Y-148653500D03*
X114478957Y-145728307D03*
X106400600Y-153771600D03*
X111780081Y-131318000D03*
X117094000Y-146050000D03*
X119078446Y-137995554D03*
X118332020Y-142690042D03*
X116713000Y-153772000D03*
X119232000Y-152801000D03*
X123596000Y-153518000D03*
X117960000Y-130108000D03*
X102819000Y-131331000D03*
X123482000Y-146596000D03*
X122415000Y-152121000D03*
X103378000Y-133083000D03*
X116548000Y-139890000D03*
X110947000Y-138240000D03*
X119748300Y-140639800D03*
X113886278Y-145285194D03*
X118805864Y-139923986D03*
X114940080Y-148645880D03*
X118191830Y-139493312D03*
X110273000Y-136654300D03*
X118370000Y-143878000D03*
X118783100Y-145910300D03*
X118491809Y-145194000D03*
X123044000Y-139774000D03*
X110337600Y-151409400D03*
X112090196Y-144907000D03*
D14*
G36*
X115268000Y-127508000D02*
X115290988Y-127623570D01*
X115356454Y-127721546D01*
X115454430Y-127787012D01*
X115570000Y-127810000D01*
X124920000Y-127810000D01*
X124920000Y-154384000D01*
X116078000Y-154384000D01*
X115962430Y-154406988D01*
X115864454Y-154472454D01*
X115798988Y-154570430D01*
X115776000Y-154686000D01*
X115776000Y-161750000D01*
X94028000Y-161750000D01*
X94028000Y-160569026D01*
X94366542Y-160569026D01*
X94538812Y-160984947D01*
X94933010Y-161416821D01*
X95462473Y-161664968D01*
X95694500Y-161544469D01*
X95694500Y-160337000D01*
X94487683Y-160337000D01*
X94366542Y-160569026D01*
X94028000Y-160569026D01*
X94028000Y-159850974D01*
X94366542Y-159850974D01*
X94487683Y-160083000D01*
X95694500Y-160083000D01*
X95694500Y-160063000D01*
X95948500Y-160063000D01*
X95948500Y-160083000D01*
X95968500Y-160083000D01*
X95968500Y-160337000D01*
X95948500Y-160337000D01*
X95948500Y-161544469D01*
X96180527Y-161664968D01*
X96709990Y-161416821D01*
X97104188Y-160984947D01*
X97276458Y-160569026D01*
X97155318Y-160337002D01*
X97264600Y-160337002D01*
X97323116Y-160631181D01*
X97561696Y-160988242D01*
X97918757Y-161226822D01*
X98339938Y-161310600D01*
X98383062Y-161310600D01*
X98804243Y-161226822D01*
X99161304Y-160988242D01*
X99399884Y-160631181D01*
X99483662Y-160210000D01*
X99779338Y-160210000D01*
X99863116Y-160631181D01*
X100101696Y-160988242D01*
X100458757Y-161226822D01*
X100879938Y-161310600D01*
X100923062Y-161310600D01*
X101344243Y-161226822D01*
X101701304Y-160988242D01*
X101939884Y-160631181D01*
X102023662Y-160210000D01*
X102319338Y-160210000D01*
X102403116Y-160631181D01*
X102641696Y-160988242D01*
X102998757Y-161226822D01*
X103419938Y-161310600D01*
X103463062Y-161310600D01*
X103884243Y-161226822D01*
X104241304Y-160988242D01*
X104479884Y-160631181D01*
X104563662Y-160210000D01*
X104859338Y-160210000D01*
X104943116Y-160631181D01*
X105181696Y-160988242D01*
X105538757Y-161226822D01*
X105959938Y-161310600D01*
X106003062Y-161310600D01*
X106424243Y-161226822D01*
X106781304Y-160988242D01*
X107019884Y-160631181D01*
X107103662Y-160210000D01*
X107399338Y-160210000D01*
X107483116Y-160631181D01*
X107721696Y-160988242D01*
X108078757Y-161226822D01*
X108499938Y-161310600D01*
X108543062Y-161310600D01*
X108964243Y-161226822D01*
X109321304Y-160988242D01*
X109559884Y-160631181D01*
X109643662Y-160210000D01*
X109939338Y-160210000D01*
X110023116Y-160631181D01*
X110261696Y-160988242D01*
X110618757Y-161226822D01*
X111039938Y-161310600D01*
X111083062Y-161310600D01*
X111504243Y-161226822D01*
X111861304Y-160988242D01*
X112099884Y-160631181D01*
X112183662Y-160210000D01*
X112479338Y-160210000D01*
X112563116Y-160631181D01*
X112801696Y-160988242D01*
X113158757Y-161226822D01*
X113579938Y-161310600D01*
X113623062Y-161310600D01*
X114044243Y-161226822D01*
X114401304Y-160988242D01*
X114639884Y-160631181D01*
X114723662Y-160210000D01*
X114639884Y-159788819D01*
X114401304Y-159431758D01*
X114044243Y-159193178D01*
X113623062Y-159109400D01*
X113579938Y-159109400D01*
X113158757Y-159193178D01*
X112801696Y-159431758D01*
X112563116Y-159788819D01*
X112479338Y-160210000D01*
X112183662Y-160210000D01*
X112099884Y-159788819D01*
X111861304Y-159431758D01*
X111504243Y-159193178D01*
X111083062Y-159109400D01*
X111039938Y-159109400D01*
X110618757Y-159193178D01*
X110261696Y-159431758D01*
X110023116Y-159788819D01*
X109939338Y-160210000D01*
X109643662Y-160210000D01*
X109559884Y-159788819D01*
X109321304Y-159431758D01*
X108964243Y-159193178D01*
X108543062Y-159109400D01*
X108499938Y-159109400D01*
X108078757Y-159193178D01*
X107721696Y-159431758D01*
X107483116Y-159788819D01*
X107399338Y-160210000D01*
X107103662Y-160210000D01*
X107019884Y-159788819D01*
X106781304Y-159431758D01*
X106424243Y-159193178D01*
X106003062Y-159109400D01*
X105959938Y-159109400D01*
X105538757Y-159193178D01*
X105181696Y-159431758D01*
X104943116Y-159788819D01*
X104859338Y-160210000D01*
X104563662Y-160210000D01*
X104479884Y-159788819D01*
X104241304Y-159431758D01*
X103884243Y-159193178D01*
X103463062Y-159109400D01*
X103419938Y-159109400D01*
X102998757Y-159193178D01*
X102641696Y-159431758D01*
X102403116Y-159788819D01*
X102319338Y-160210000D01*
X102023662Y-160210000D01*
X101939884Y-159788819D01*
X101701304Y-159431758D01*
X101344243Y-159193178D01*
X100923062Y-159109400D01*
X100879938Y-159109400D01*
X100458757Y-159193178D01*
X100101696Y-159431758D01*
X99863116Y-159788819D01*
X99779338Y-160210000D01*
X99483662Y-160210000D01*
X99399884Y-159788819D01*
X99161304Y-159431758D01*
X98804243Y-159193178D01*
X98383062Y-159109400D01*
X98339938Y-159109400D01*
X97918757Y-159193178D01*
X97561696Y-159431758D01*
X97323116Y-159788819D01*
X97264600Y-160082998D01*
X97155318Y-160082998D01*
X97276458Y-159850974D01*
X97104188Y-159435053D01*
X96709990Y-159003179D01*
X96223651Y-158775243D01*
X96685100Y-158775243D01*
X96772927Y-158758717D01*
X96853591Y-158706812D01*
X96907705Y-158627613D01*
X96926743Y-158533600D01*
X96926743Y-157670000D01*
X97239338Y-157670000D01*
X97323116Y-158091181D01*
X97561696Y-158448242D01*
X97918757Y-158686822D01*
X98339938Y-158770600D01*
X98383062Y-158770600D01*
X98804243Y-158686822D01*
X99161304Y-158448242D01*
X99399884Y-158091181D01*
X99483662Y-157670000D01*
X99779338Y-157670000D01*
X99863116Y-158091181D01*
X100101696Y-158448242D01*
X100458757Y-158686822D01*
X100879938Y-158770600D01*
X100923062Y-158770600D01*
X101344243Y-158686822D01*
X101701304Y-158448242D01*
X101939884Y-158091181D01*
X102023662Y-157670000D01*
X102319338Y-157670000D01*
X102403116Y-158091181D01*
X102641696Y-158448242D01*
X102998757Y-158686822D01*
X103419938Y-158770600D01*
X103463062Y-158770600D01*
X103884243Y-158686822D01*
X104241304Y-158448242D01*
X104479884Y-158091181D01*
X104563662Y-157670000D01*
X104859338Y-157670000D01*
X104943116Y-158091181D01*
X105181696Y-158448242D01*
X105538757Y-158686822D01*
X105959938Y-158770600D01*
X106003062Y-158770600D01*
X106424243Y-158686822D01*
X106781304Y-158448242D01*
X107019884Y-158091181D01*
X107103662Y-157670000D01*
X107399338Y-157670000D01*
X107483116Y-158091181D01*
X107721696Y-158448242D01*
X108078757Y-158686822D01*
X108499938Y-158770600D01*
X108543062Y-158770600D01*
X108964243Y-158686822D01*
X109321304Y-158448242D01*
X109559884Y-158091181D01*
X109643662Y-157670000D01*
X109939338Y-157670000D01*
X110023116Y-158091181D01*
X110261696Y-158448242D01*
X110618757Y-158686822D01*
X111039938Y-158770600D01*
X111083062Y-158770600D01*
X111504243Y-158686822D01*
X111861304Y-158448242D01*
X112099884Y-158091181D01*
X112183662Y-157670000D01*
X112479338Y-157670000D01*
X112563116Y-158091181D01*
X112801696Y-158448242D01*
X113158757Y-158686822D01*
X113579938Y-158770600D01*
X113623062Y-158770600D01*
X114044243Y-158686822D01*
X114401304Y-158448242D01*
X114639884Y-158091181D01*
X114723662Y-157670000D01*
X114639884Y-157248819D01*
X114401304Y-156891758D01*
X114044243Y-156653178D01*
X113623062Y-156569400D01*
X113579938Y-156569400D01*
X113158757Y-156653178D01*
X112801696Y-156891758D01*
X112563116Y-157248819D01*
X112479338Y-157670000D01*
X112183662Y-157670000D01*
X112099884Y-157248819D01*
X111861304Y-156891758D01*
X111504243Y-156653178D01*
X111083062Y-156569400D01*
X111039938Y-156569400D01*
X110618757Y-156653178D01*
X110261696Y-156891758D01*
X110023116Y-157248819D01*
X109939338Y-157670000D01*
X109643662Y-157670000D01*
X109559884Y-157248819D01*
X109321304Y-156891758D01*
X108964243Y-156653178D01*
X108543062Y-156569400D01*
X108499938Y-156569400D01*
X108078757Y-156653178D01*
X107721696Y-156891758D01*
X107483116Y-157248819D01*
X107399338Y-157670000D01*
X107103662Y-157670000D01*
X107019884Y-157248819D01*
X106781304Y-156891758D01*
X106424243Y-156653178D01*
X106003062Y-156569400D01*
X105959938Y-156569400D01*
X105538757Y-156653178D01*
X105181696Y-156891758D01*
X104943116Y-157248819D01*
X104859338Y-157670000D01*
X104563662Y-157670000D01*
X104479884Y-157248819D01*
X104241304Y-156891758D01*
X103884243Y-156653178D01*
X103463062Y-156569400D01*
X103419938Y-156569400D01*
X102998757Y-156653178D01*
X102641696Y-156891758D01*
X102403116Y-157248819D01*
X102319338Y-157670000D01*
X102023662Y-157670000D01*
X101939884Y-157248819D01*
X101701304Y-156891758D01*
X101344243Y-156653178D01*
X100923062Y-156569400D01*
X100879938Y-156569400D01*
X100458757Y-156653178D01*
X100101696Y-156891758D01*
X99863116Y-157248819D01*
X99779338Y-157670000D01*
X99483662Y-157670000D01*
X99399884Y-157248819D01*
X99161304Y-156891758D01*
X98804243Y-156653178D01*
X98383062Y-156569400D01*
X98339938Y-156569400D01*
X97918757Y-156653178D01*
X97561696Y-156891758D01*
X97323116Y-157248819D01*
X97239338Y-157670000D01*
X96926743Y-157670000D01*
X96926743Y-156806400D01*
X96910217Y-156718573D01*
X96858312Y-156637909D01*
X96779113Y-156583795D01*
X96685100Y-156564757D01*
X94957900Y-156564757D01*
X94870073Y-156581283D01*
X94789409Y-156633188D01*
X94735295Y-156712387D01*
X94716257Y-156806400D01*
X94716257Y-158533600D01*
X94732783Y-158621427D01*
X94784688Y-158702091D01*
X94863887Y-158756205D01*
X94957900Y-158775243D01*
X95419349Y-158775243D01*
X94933010Y-159003179D01*
X94538812Y-159435053D01*
X94366542Y-159850974D01*
X94028000Y-159850974D01*
X94028000Y-154940000D01*
X94005012Y-154824430D01*
X93939546Y-154726454D01*
X93841570Y-154660988D01*
X93726000Y-154638000D01*
X85138000Y-154638000D01*
X85138000Y-153954147D01*
X102383707Y-153954147D01*
X102465288Y-154151588D01*
X102616217Y-154302781D01*
X102813516Y-154384706D01*
X103027147Y-154384893D01*
X103224588Y-154303312D01*
X103375781Y-154152383D01*
X103457706Y-153955084D01*
X103457773Y-153877947D01*
X105863507Y-153877947D01*
X105945088Y-154075388D01*
X106096017Y-154226581D01*
X106293316Y-154308506D01*
X106506947Y-154308693D01*
X106704388Y-154227112D01*
X106855581Y-154076183D01*
X106937506Y-153878884D01*
X106937506Y-153878347D01*
X116175907Y-153878347D01*
X116257488Y-154075788D01*
X116408417Y-154226981D01*
X116605716Y-154308906D01*
X116819347Y-154309093D01*
X117016788Y-154227512D01*
X117167981Y-154076583D01*
X117249906Y-153879284D01*
X117250093Y-153665653D01*
X117233026Y-153624347D01*
X123058907Y-153624347D01*
X123140488Y-153821788D01*
X123291417Y-153972981D01*
X123488716Y-154054906D01*
X123702347Y-154055093D01*
X123899788Y-153973512D01*
X124050981Y-153822583D01*
X124132906Y-153625284D01*
X124133093Y-153411653D01*
X124051512Y-153214212D01*
X123900583Y-153063019D01*
X123703284Y-152981094D01*
X123489653Y-152980907D01*
X123292212Y-153062488D01*
X123141019Y-153213417D01*
X123059094Y-153410716D01*
X123058907Y-153624347D01*
X117233026Y-153624347D01*
X117168512Y-153468212D01*
X117017583Y-153317019D01*
X116820284Y-153235094D01*
X116606653Y-153234907D01*
X116409212Y-153316488D01*
X116258019Y-153467417D01*
X116176094Y-153664716D01*
X116175907Y-153878347D01*
X106937506Y-153878347D01*
X106937693Y-153665253D01*
X106856112Y-153467812D01*
X106705183Y-153316619D01*
X106507884Y-153234694D01*
X106294253Y-153234507D01*
X106096812Y-153316088D01*
X105945619Y-153467017D01*
X105863694Y-153664316D01*
X105863507Y-153877947D01*
X103457773Y-153877947D01*
X103457893Y-153741453D01*
X103376312Y-153544012D01*
X103225383Y-153392819D01*
X103028084Y-153310894D01*
X102814453Y-153310707D01*
X102617012Y-153392288D01*
X102465819Y-153543217D01*
X102383894Y-153740516D01*
X102383707Y-153954147D01*
X85138000Y-153954147D01*
X85138000Y-152747347D01*
X92211007Y-152747347D01*
X92292588Y-152944788D01*
X92443517Y-153095981D01*
X92640816Y-153177906D01*
X92854447Y-153178093D01*
X93051888Y-153096512D01*
X93203081Y-152945583D01*
X93211483Y-152925347D01*
X96783007Y-152925347D01*
X96864588Y-153122788D01*
X97015517Y-153273981D01*
X97212816Y-153355906D01*
X97426447Y-153356093D01*
X97623888Y-153274512D01*
X97775081Y-153123583D01*
X97857006Y-152926284D01*
X97857193Y-152712653D01*
X97775612Y-152515212D01*
X97760773Y-152500347D01*
X101316907Y-152500347D01*
X101398488Y-152697788D01*
X101478556Y-152777996D01*
X101412019Y-152844417D01*
X101330094Y-153041716D01*
X101329907Y-153255347D01*
X101411488Y-153452788D01*
X101562417Y-153603981D01*
X101759716Y-153685906D01*
X101973347Y-153686093D01*
X102170788Y-153604512D01*
X102321981Y-153453583D01*
X102403906Y-153256284D01*
X102404093Y-153042653D01*
X102322512Y-152845212D01*
X102242444Y-152765004D01*
X102308981Y-152698583D01*
X102390906Y-152501284D01*
X102390949Y-152451676D01*
X102569716Y-152525906D01*
X102783347Y-152526093D01*
X102980788Y-152444512D01*
X103131981Y-152293583D01*
X103187529Y-152159807D01*
X103346716Y-152225906D01*
X103560347Y-152226093D01*
X103564572Y-152224347D01*
X118309907Y-152224347D01*
X118391488Y-152421788D01*
X118542417Y-152572981D01*
X118715401Y-152644810D01*
X118695094Y-152693716D01*
X118694907Y-152907347D01*
X118776488Y-153104788D01*
X118927417Y-153255981D01*
X119124716Y-153337906D01*
X119338347Y-153338093D01*
X119535788Y-153256512D01*
X119686981Y-153105583D01*
X119768906Y-152908284D01*
X119769093Y-152694653D01*
X119687512Y-152497212D01*
X119536583Y-152346019D01*
X119363599Y-152274190D01*
X119383049Y-152227347D01*
X121877907Y-152227347D01*
X121959488Y-152424788D01*
X122110417Y-152575981D01*
X122307716Y-152657906D01*
X122521347Y-152658093D01*
X122718788Y-152576512D01*
X122869981Y-152425583D01*
X122951906Y-152228284D01*
X122952093Y-152014653D01*
X122870512Y-151817212D01*
X122719583Y-151666019D01*
X122522284Y-151584094D01*
X122308653Y-151583907D01*
X122111212Y-151665488D01*
X121960019Y-151816417D01*
X121878094Y-152013716D01*
X121877907Y-152227347D01*
X119383049Y-152227347D01*
X119383906Y-152225284D01*
X119384093Y-152011653D01*
X119302512Y-151814212D01*
X119151583Y-151663019D01*
X118954284Y-151581094D01*
X118740653Y-151580907D01*
X118543212Y-151662488D01*
X118392019Y-151813417D01*
X118310094Y-152010716D01*
X118309907Y-152224347D01*
X103564572Y-152224347D01*
X103757788Y-152144512D01*
X103908981Y-151993583D01*
X103990906Y-151796284D01*
X103991093Y-151582653D01*
X103909512Y-151385212D01*
X103758583Y-151234019D01*
X103665450Y-151195347D01*
X105528907Y-151195347D01*
X105610488Y-151392788D01*
X105761417Y-151543981D01*
X105958716Y-151625906D01*
X106172347Y-151626093D01*
X106369788Y-151544512D01*
X106520981Y-151393583D01*
X106602906Y-151196284D01*
X106603093Y-150982653D01*
X106540575Y-150831347D01*
X106701907Y-150831347D01*
X106783488Y-151028788D01*
X106934417Y-151179981D01*
X107131716Y-151261906D01*
X107345347Y-151262093D01*
X107542788Y-151180512D01*
X107693981Y-151029583D01*
X107775906Y-150832284D01*
X107776093Y-150618653D01*
X107707377Y-150452347D01*
X108077907Y-150452347D01*
X108159488Y-150649788D01*
X108310417Y-150800981D01*
X108507716Y-150882906D01*
X108721347Y-150883093D01*
X108918788Y-150801512D01*
X108926116Y-150794196D01*
X109511433Y-150794196D01*
X109593014Y-150991637D01*
X109743943Y-151142830D01*
X109848762Y-151186354D01*
X109800694Y-151302116D01*
X109800507Y-151515747D01*
X109882088Y-151713188D01*
X110033017Y-151864381D01*
X110230316Y-151946306D01*
X110443947Y-151946493D01*
X110641388Y-151864912D01*
X110792581Y-151713983D01*
X110874506Y-151516684D01*
X110874693Y-151303053D01*
X110793112Y-151105612D01*
X110642183Y-150954419D01*
X110537364Y-150910895D01*
X110585432Y-150795133D01*
X110585619Y-150581502D01*
X110504038Y-150384061D01*
X110353109Y-150232868D01*
X110155810Y-150150943D01*
X109942179Y-150150756D01*
X109744738Y-150232337D01*
X109593545Y-150383266D01*
X109511620Y-150580565D01*
X109511433Y-150794196D01*
X108926116Y-150794196D01*
X109069981Y-150650583D01*
X109151906Y-150453284D01*
X109152093Y-150239653D01*
X109070512Y-150042212D01*
X108919583Y-149891019D01*
X108722284Y-149809094D01*
X108508653Y-149808907D01*
X108311212Y-149890488D01*
X108160019Y-150041417D01*
X108078094Y-150238716D01*
X108077907Y-150452347D01*
X107707377Y-150452347D01*
X107694512Y-150421212D01*
X107543583Y-150270019D01*
X107346284Y-150188094D01*
X107132653Y-150187907D01*
X106935212Y-150269488D01*
X106784019Y-150420417D01*
X106702094Y-150617716D01*
X106701907Y-150831347D01*
X106540575Y-150831347D01*
X106521512Y-150785212D01*
X106370583Y-150634019D01*
X106173284Y-150552094D01*
X105959653Y-150551907D01*
X105762212Y-150633488D01*
X105611019Y-150784417D01*
X105529094Y-150981716D01*
X105528907Y-151195347D01*
X103665450Y-151195347D01*
X103561284Y-151152094D01*
X103347653Y-151151907D01*
X103150212Y-151233488D01*
X102999019Y-151384417D01*
X102943471Y-151518193D01*
X102784284Y-151452094D01*
X102570653Y-151451907D01*
X102373212Y-151533488D01*
X102222019Y-151684417D01*
X102140094Y-151881716D01*
X102140051Y-151931324D01*
X101961284Y-151857094D01*
X101747653Y-151856907D01*
X101550212Y-151938488D01*
X101399019Y-152089417D01*
X101317094Y-152286716D01*
X101316907Y-152500347D01*
X97760773Y-152500347D01*
X97624683Y-152364019D01*
X97427384Y-152282094D01*
X97213753Y-152281907D01*
X97016312Y-152363488D01*
X96865119Y-152514417D01*
X96783194Y-152711716D01*
X96783007Y-152925347D01*
X93211483Y-152925347D01*
X93285006Y-152748284D01*
X93285193Y-152534653D01*
X93203612Y-152337212D01*
X93052683Y-152186019D01*
X92855384Y-152104094D01*
X92641753Y-152103907D01*
X92444312Y-152185488D01*
X92293119Y-152336417D01*
X92211194Y-152533716D01*
X92211007Y-152747347D01*
X85138000Y-152747347D01*
X85138000Y-150360347D01*
X86356307Y-150360347D01*
X86437888Y-150557788D01*
X86588817Y-150708981D01*
X86786116Y-150790906D01*
X86999747Y-150791093D01*
X87197188Y-150709512D01*
X87348381Y-150558583D01*
X87367994Y-150511347D01*
X94768207Y-150511347D01*
X94849788Y-150708788D01*
X95000717Y-150859981D01*
X95198016Y-150941906D01*
X95411647Y-150942093D01*
X95609088Y-150860512D01*
X95760281Y-150709583D01*
X95842206Y-150512284D01*
X95842289Y-150416347D01*
X96487607Y-150416347D01*
X96569188Y-150613788D01*
X96720117Y-150764981D01*
X96917416Y-150846906D01*
X97131047Y-150847093D01*
X97328488Y-150765512D01*
X97479681Y-150614583D01*
X97561606Y-150417284D01*
X97561793Y-150203653D01*
X97527372Y-150120347D01*
X99711907Y-150120347D01*
X99793488Y-150317788D01*
X99944417Y-150468981D01*
X100141716Y-150550906D01*
X100355347Y-150551093D01*
X100511571Y-150486543D01*
X100543488Y-150563788D01*
X100694417Y-150714981D01*
X100891716Y-150796906D01*
X101105347Y-150797093D01*
X101302788Y-150715512D01*
X101453981Y-150564583D01*
X101535906Y-150367284D01*
X101536093Y-150153653D01*
X101454512Y-149956212D01*
X101303583Y-149805019D01*
X101106284Y-149723094D01*
X100892653Y-149722907D01*
X100736429Y-149787457D01*
X100704512Y-149710212D01*
X100553583Y-149559019D01*
X100356284Y-149477094D01*
X100142653Y-149476907D01*
X99945212Y-149558488D01*
X99794019Y-149709417D01*
X99712094Y-149906716D01*
X99711907Y-150120347D01*
X97527372Y-150120347D01*
X97480212Y-150006212D01*
X97329283Y-149855019D01*
X97131984Y-149773094D01*
X96918353Y-149772907D01*
X96720912Y-149854488D01*
X96569719Y-150005417D01*
X96487794Y-150202716D01*
X96487607Y-150416347D01*
X95842289Y-150416347D01*
X95842393Y-150298653D01*
X95760812Y-150101212D01*
X95654381Y-149994595D01*
X95727188Y-149964512D01*
X95878381Y-149813583D01*
X95960306Y-149616284D01*
X95960493Y-149402653D01*
X95878912Y-149205212D01*
X95727983Y-149054019D01*
X95634850Y-149015347D01*
X100476907Y-149015347D01*
X100558488Y-149212788D01*
X100709417Y-149363981D01*
X100906716Y-149445906D01*
X101120347Y-149446093D01*
X101317788Y-149364512D01*
X101360026Y-149322347D01*
X101899907Y-149322347D01*
X101981488Y-149519788D01*
X102132417Y-149670981D01*
X102329716Y-149752906D01*
X102543347Y-149753093D01*
X102740788Y-149671512D01*
X102891981Y-149520583D01*
X102938026Y-149409694D01*
X102937907Y-149545347D01*
X103019488Y-149742788D01*
X103170417Y-149893981D01*
X103367716Y-149975906D01*
X103581347Y-149976093D01*
X103778788Y-149894512D01*
X103929981Y-149743583D01*
X104011906Y-149546284D01*
X104012093Y-149332653D01*
X103930512Y-149135212D01*
X103779583Y-148984019D01*
X103582284Y-148902094D01*
X103368653Y-148901907D01*
X103171212Y-148983488D01*
X103020019Y-149134417D01*
X102973974Y-149245306D01*
X102974093Y-149109653D01*
X102892512Y-148912212D01*
X102741583Y-148761019D01*
X102708176Y-148747147D01*
X105609507Y-148747147D01*
X105691088Y-148944588D01*
X105793567Y-149047247D01*
X105691619Y-149149017D01*
X105609694Y-149346316D01*
X105609507Y-149559947D01*
X105691088Y-149757388D01*
X105842017Y-149908581D01*
X106039316Y-149990506D01*
X106252947Y-149990693D01*
X106450388Y-149909112D01*
X106601581Y-149758183D01*
X106683506Y-149560884D01*
X106683517Y-149547247D01*
X108809907Y-149547247D01*
X108891488Y-149744688D01*
X109042417Y-149895881D01*
X109239716Y-149977806D01*
X109453347Y-149977993D01*
X109650788Y-149896412D01*
X109801981Y-149745483D01*
X109883906Y-149548184D01*
X109884093Y-149334553D01*
X109802512Y-149137112D01*
X109651583Y-148985919D01*
X109454284Y-148903994D01*
X109240653Y-148903807D01*
X109043212Y-148985388D01*
X108892019Y-149136317D01*
X108810094Y-149333616D01*
X108809907Y-149547247D01*
X106683517Y-149547247D01*
X106683693Y-149347253D01*
X106602112Y-149149812D01*
X106499633Y-149047153D01*
X106546733Y-149000135D01*
X106639417Y-149092981D01*
X106836716Y-149174906D01*
X107050347Y-149175093D01*
X107247788Y-149093512D01*
X107398981Y-148942583D01*
X107421086Y-148889347D01*
X107854907Y-148889347D01*
X107936488Y-149086788D01*
X108087417Y-149237981D01*
X108284716Y-149319906D01*
X108498347Y-149320093D01*
X108695788Y-149238512D01*
X108846981Y-149087583D01*
X108928906Y-148890284D01*
X108929026Y-148752227D01*
X114402987Y-148752227D01*
X114484568Y-148949668D01*
X114635497Y-149100861D01*
X114832796Y-149182786D01*
X115046427Y-149182973D01*
X115243868Y-149101392D01*
X115395061Y-148950463D01*
X115474210Y-148759847D01*
X118411107Y-148759847D01*
X118492688Y-148957288D01*
X118643617Y-149108481D01*
X118840916Y-149190406D01*
X119054547Y-149190593D01*
X119149529Y-149151347D01*
X123124907Y-149151347D01*
X123206488Y-149348788D01*
X123357417Y-149499981D01*
X123554716Y-149581906D01*
X123768347Y-149582093D01*
X123965788Y-149500512D01*
X124116981Y-149349583D01*
X124198906Y-149152284D01*
X124199093Y-148938653D01*
X124117512Y-148741212D01*
X123966583Y-148590019D01*
X123769284Y-148508094D01*
X123555653Y-148507907D01*
X123358212Y-148589488D01*
X123207019Y-148740417D01*
X123125094Y-148937716D01*
X123124907Y-149151347D01*
X119149529Y-149151347D01*
X119251988Y-149109012D01*
X119403181Y-148958083D01*
X119485106Y-148760784D01*
X119485293Y-148547153D01*
X119403712Y-148349712D01*
X119252783Y-148198519D01*
X119055484Y-148116594D01*
X118841853Y-148116407D01*
X118644412Y-148197988D01*
X118493219Y-148348917D01*
X118411294Y-148546216D01*
X118411107Y-148759847D01*
X115474210Y-148759847D01*
X115476986Y-148753164D01*
X115477173Y-148539533D01*
X115395592Y-148342092D01*
X115244663Y-148190899D01*
X115047364Y-148108974D01*
X114833733Y-148108787D01*
X114636292Y-148190368D01*
X114485099Y-148341297D01*
X114403174Y-148538596D01*
X114402987Y-148752227D01*
X108929026Y-148752227D01*
X108929093Y-148676653D01*
X108847512Y-148479212D01*
X108696583Y-148328019D01*
X108499284Y-148246094D01*
X108285653Y-148245907D01*
X108088212Y-148327488D01*
X107937019Y-148478417D01*
X107855094Y-148675716D01*
X107854907Y-148889347D01*
X107421086Y-148889347D01*
X107480906Y-148745284D01*
X107481093Y-148531653D01*
X107399512Y-148334212D01*
X107312480Y-148247028D01*
X107401681Y-148157983D01*
X107483606Y-147960684D01*
X107483613Y-147952127D01*
X111207667Y-147952127D01*
X111289248Y-148149568D01*
X111440177Y-148300761D01*
X111637476Y-148382686D01*
X111851107Y-148382873D01*
X112048548Y-148301292D01*
X112199741Y-148150363D01*
X112281666Y-147953064D01*
X112281853Y-147739433D01*
X112200272Y-147541992D01*
X112049343Y-147390799D01*
X111852044Y-147308874D01*
X111638413Y-147308687D01*
X111440972Y-147390268D01*
X111289779Y-147541197D01*
X111207854Y-147738496D01*
X111207667Y-147952127D01*
X107483613Y-147952127D01*
X107483793Y-147747053D01*
X107402212Y-147549612D01*
X107251283Y-147398419D01*
X107053984Y-147316494D01*
X106840353Y-147316307D01*
X106642912Y-147397888D01*
X106491719Y-147548817D01*
X106409794Y-147746116D01*
X106409607Y-147959747D01*
X106491188Y-148157188D01*
X106578220Y-148244372D01*
X106543867Y-148278665D01*
X106451183Y-148185819D01*
X106253884Y-148103894D01*
X106040253Y-148103707D01*
X105842812Y-148185288D01*
X105691619Y-148336217D01*
X105609694Y-148533516D01*
X105609507Y-148747147D01*
X102708176Y-148747147D01*
X102544284Y-148679094D01*
X102330653Y-148678907D01*
X102133212Y-148760488D01*
X101982019Y-148911417D01*
X101900094Y-149108716D01*
X101899907Y-149322347D01*
X101360026Y-149322347D01*
X101468981Y-149213583D01*
X101550906Y-149016284D01*
X101551093Y-148802653D01*
X101469512Y-148605212D01*
X101318583Y-148454019D01*
X101121284Y-148372094D01*
X100907653Y-148371907D01*
X100710212Y-148453488D01*
X100559019Y-148604417D01*
X100477094Y-148801716D01*
X100476907Y-149015347D01*
X95634850Y-149015347D01*
X95530684Y-148972094D01*
X95317053Y-148971907D01*
X95119612Y-149053488D01*
X94968419Y-149204417D01*
X94886494Y-149401716D01*
X94886307Y-149615347D01*
X94967888Y-149812788D01*
X95074319Y-149919405D01*
X95001512Y-149949488D01*
X94850319Y-150100417D01*
X94768394Y-150297716D01*
X94768207Y-150511347D01*
X87367994Y-150511347D01*
X87430306Y-150361284D01*
X87430493Y-150147653D01*
X87348912Y-149950212D01*
X87344881Y-149946174D01*
X87390949Y-149927139D01*
X87542142Y-149776210D01*
X87624067Y-149578911D01*
X87624254Y-149365280D01*
X87542673Y-149167839D01*
X87391744Y-149016646D01*
X87194445Y-148934721D01*
X86980814Y-148934534D01*
X86783373Y-149016115D01*
X86632180Y-149167044D01*
X86550255Y-149364343D01*
X86550068Y-149577974D01*
X86631649Y-149775415D01*
X86635680Y-149779453D01*
X86589612Y-149798488D01*
X86438419Y-149949417D01*
X86356494Y-150146716D01*
X86356307Y-150360347D01*
X85138000Y-150360347D01*
X85138000Y-148542347D01*
X87828007Y-148542347D01*
X87909588Y-148739788D01*
X88060517Y-148890981D01*
X88257816Y-148972906D01*
X88341431Y-148972979D01*
X88241819Y-149072417D01*
X88159894Y-149269716D01*
X88159707Y-149483347D01*
X88241288Y-149680788D01*
X88392217Y-149831981D01*
X88589516Y-149913906D01*
X88803147Y-149914093D01*
X89000588Y-149832512D01*
X89151781Y-149681583D01*
X89233706Y-149484284D01*
X89233728Y-149458347D01*
X90191707Y-149458347D01*
X90273288Y-149655788D01*
X90424217Y-149806981D01*
X90621516Y-149888906D01*
X90835147Y-149889093D01*
X91032588Y-149807512D01*
X91183781Y-149656583D01*
X91240350Y-149520347D01*
X92074907Y-149520347D01*
X92156488Y-149717788D01*
X92307417Y-149868981D01*
X92504716Y-149950906D01*
X92718347Y-149951093D01*
X92915788Y-149869512D01*
X93066981Y-149718583D01*
X93148906Y-149521284D01*
X93149093Y-149307653D01*
X93067512Y-149110212D01*
X92916583Y-148959019D01*
X92719284Y-148877094D01*
X92505653Y-148876907D01*
X92308212Y-148958488D01*
X92157019Y-149109417D01*
X92075094Y-149306716D01*
X92074907Y-149520347D01*
X91240350Y-149520347D01*
X91265706Y-149459284D01*
X91265893Y-149245653D01*
X91184312Y-149048212D01*
X91033383Y-148897019D01*
X90836084Y-148815094D01*
X90622453Y-148814907D01*
X90425012Y-148896488D01*
X90273819Y-149047417D01*
X90191894Y-149244716D01*
X90191707Y-149458347D01*
X89233728Y-149458347D01*
X89233893Y-149270653D01*
X89152312Y-149073212D01*
X89049787Y-148970508D01*
X89059416Y-148974506D01*
X89273047Y-148974693D01*
X89470488Y-148893112D01*
X89621681Y-148742183D01*
X89703606Y-148544884D01*
X89703793Y-148331253D01*
X89622212Y-148133812D01*
X89471283Y-147982619D01*
X89273984Y-147900694D01*
X89060353Y-147900507D01*
X88862912Y-147982088D01*
X88766663Y-148078169D01*
X88669683Y-147981019D01*
X88472384Y-147899094D01*
X88258753Y-147898907D01*
X88061312Y-147980488D01*
X87910119Y-148131417D01*
X87828194Y-148328716D01*
X87828007Y-148542347D01*
X85138000Y-148542347D01*
X85138000Y-146625347D01*
X86313307Y-146625347D01*
X86394888Y-146822788D01*
X86545817Y-146973981D01*
X86743116Y-147055906D01*
X86956747Y-147056093D01*
X87032284Y-147024882D01*
X87085588Y-147153888D01*
X87236517Y-147305081D01*
X87433816Y-147387006D01*
X87647447Y-147387193D01*
X87844888Y-147305612D01*
X87996081Y-147154683D01*
X88048863Y-147027567D01*
X89592267Y-147027567D01*
X89673848Y-147225008D01*
X89824777Y-147376201D01*
X90022076Y-147458126D01*
X90235707Y-147458313D01*
X90433148Y-147376732D01*
X90584341Y-147225803D01*
X90666266Y-147028504D01*
X90666453Y-146814873D01*
X90584872Y-146617432D01*
X90534123Y-146566594D01*
X90738627Y-146566773D01*
X90854320Y-146518969D01*
X90788794Y-146676776D01*
X90788607Y-146890407D01*
X90870188Y-147087848D01*
X91021117Y-147239041D01*
X91153530Y-147294023D01*
X91109479Y-147337997D01*
X91027554Y-147535296D01*
X91027367Y-147748927D01*
X91108948Y-147946368D01*
X91259877Y-148097561D01*
X91457176Y-148179486D01*
X91670807Y-148179673D01*
X91868248Y-148098092D01*
X92019441Y-147947163D01*
X92101366Y-147749864D01*
X92101371Y-147743847D01*
X94230307Y-147743847D01*
X94311888Y-147941288D01*
X94462817Y-148092481D01*
X94660116Y-148174406D01*
X94873747Y-148174593D01*
X95071188Y-148093012D01*
X95222381Y-147942083D01*
X95304306Y-147744784D01*
X95304493Y-147531153D01*
X95222912Y-147333712D01*
X95071983Y-147182519D01*
X94874684Y-147100594D01*
X94661053Y-147100407D01*
X94463612Y-147181988D01*
X94312419Y-147332917D01*
X94230494Y-147530216D01*
X94230307Y-147743847D01*
X92101371Y-147743847D01*
X92101553Y-147536233D01*
X92054766Y-147423000D01*
X92160647Y-147423093D01*
X92358088Y-147341512D01*
X92509281Y-147190583D01*
X92591206Y-146993284D01*
X92591393Y-146779653D01*
X92509812Y-146582212D01*
X92488984Y-146561347D01*
X92535607Y-146561347D01*
X92617188Y-146758788D01*
X92768117Y-146909981D01*
X92965416Y-146991906D01*
X93179047Y-146992093D01*
X93376488Y-146910512D01*
X93527681Y-146759583D01*
X93609606Y-146562284D01*
X93609793Y-146348653D01*
X93575372Y-146265347D01*
X94204607Y-146265347D01*
X94286188Y-146462788D01*
X94437117Y-146613981D01*
X94634416Y-146695906D01*
X94848047Y-146696093D01*
X95045488Y-146614512D01*
X95096707Y-146563383D01*
X95043294Y-146692016D01*
X95043107Y-146905647D01*
X95124688Y-147103088D01*
X95275617Y-147254281D01*
X95472916Y-147336206D01*
X95686547Y-147336393D01*
X95883988Y-147254812D01*
X96035181Y-147103883D01*
X96117106Y-146906584D01*
X96117211Y-146786267D01*
X96595047Y-146786267D01*
X96676628Y-146983708D01*
X96827557Y-147134901D01*
X97024856Y-147216826D01*
X97238487Y-147217013D01*
X97435928Y-147135432D01*
X97567323Y-147004266D01*
X97580868Y-147037048D01*
X97703874Y-147160270D01*
X97651312Y-147181988D01*
X97500119Y-147332917D01*
X97418194Y-147530216D01*
X97418007Y-147743847D01*
X97499588Y-147941288D01*
X97650517Y-148092481D01*
X97847816Y-148174406D01*
X98061447Y-148174593D01*
X98258888Y-148093012D01*
X98410081Y-147942083D01*
X98420322Y-147917421D01*
X98436588Y-147956788D01*
X98587517Y-148107981D01*
X98784816Y-148189906D01*
X98998447Y-148190093D01*
X99195888Y-148108512D01*
X99347081Y-147957583D01*
X99429006Y-147760284D01*
X99429150Y-147595347D01*
X102916907Y-147595347D01*
X102998488Y-147792788D01*
X103149417Y-147943981D01*
X103346716Y-148025906D01*
X103560347Y-148026093D01*
X103757788Y-147944512D01*
X103908981Y-147793583D01*
X103990906Y-147596284D01*
X103991093Y-147382653D01*
X103914692Y-147197747D01*
X107247807Y-147197747D01*
X107329388Y-147395188D01*
X107480317Y-147546381D01*
X107677616Y-147628306D01*
X107891247Y-147628493D01*
X108088688Y-147546912D01*
X108239881Y-147395983D01*
X108321806Y-147198684D01*
X108321993Y-146985053D01*
X108240412Y-146787612D01*
X108155296Y-146702347D01*
X122944907Y-146702347D01*
X123026488Y-146899788D01*
X123177417Y-147050981D01*
X123374716Y-147132906D01*
X123588347Y-147133093D01*
X123785788Y-147051512D01*
X123936981Y-146900583D01*
X124018906Y-146703284D01*
X124019093Y-146489653D01*
X123937512Y-146292212D01*
X123786583Y-146141019D01*
X123589284Y-146059094D01*
X123375653Y-146058907D01*
X123178212Y-146140488D01*
X123027019Y-146291417D01*
X122945094Y-146488716D01*
X122944907Y-146702347D01*
X108155296Y-146702347D01*
X108089483Y-146636419D01*
X107892184Y-146554494D01*
X107678553Y-146554307D01*
X107481112Y-146635888D01*
X107329919Y-146786817D01*
X107247994Y-146984116D01*
X107247807Y-147197747D01*
X103914692Y-147197747D01*
X103909512Y-147185212D01*
X103758583Y-147034019D01*
X103561284Y-146952094D01*
X103347653Y-146951907D01*
X103150212Y-147033488D01*
X102999019Y-147184417D01*
X102917094Y-147381716D01*
X102916907Y-147595347D01*
X99429150Y-147595347D01*
X99429193Y-147546653D01*
X99347612Y-147349212D01*
X99196683Y-147198019D01*
X99093917Y-147155347D01*
X100656907Y-147155347D01*
X100738488Y-147352788D01*
X100889417Y-147503981D01*
X101086716Y-147585906D01*
X101300347Y-147586093D01*
X101497788Y-147504512D01*
X101648981Y-147353583D01*
X101730906Y-147156284D01*
X101731093Y-146942653D01*
X101649512Y-146745212D01*
X101498583Y-146594019D01*
X101301284Y-146512094D01*
X101087653Y-146511907D01*
X100890212Y-146593488D01*
X100739019Y-146744417D01*
X100657094Y-146941716D01*
X100656907Y-147155347D01*
X99093917Y-147155347D01*
X98999384Y-147116094D01*
X98785753Y-147115907D01*
X98588312Y-147197488D01*
X98437119Y-147348417D01*
X98426878Y-147373079D01*
X98410612Y-147333712D01*
X98287606Y-147210490D01*
X98340168Y-147188772D01*
X98491361Y-147037843D01*
X98573286Y-146840544D01*
X98573473Y-146626913D01*
X98491892Y-146429472D01*
X98340963Y-146278279D01*
X98143664Y-146196354D01*
X97930033Y-146196167D01*
X97732592Y-146277748D01*
X97601197Y-146408914D01*
X97587652Y-146376132D01*
X97436723Y-146224939D01*
X97239424Y-146143014D01*
X97025793Y-146142827D01*
X96828352Y-146224408D01*
X96677159Y-146375337D01*
X96595234Y-146572636D01*
X96595047Y-146786267D01*
X96117211Y-146786267D01*
X96117293Y-146692953D01*
X96035712Y-146495512D01*
X95884783Y-146344319D01*
X95687484Y-146262394D01*
X95473853Y-146262207D01*
X95276412Y-146343788D01*
X95225193Y-146394917D01*
X95278606Y-146266284D01*
X95278793Y-146052653D01*
X95197212Y-145855212D01*
X95186366Y-145844347D01*
X95721007Y-145844347D01*
X95802588Y-146041788D01*
X95953517Y-146192981D01*
X96150816Y-146274906D01*
X96364447Y-146275093D01*
X96561888Y-146193512D01*
X96713081Y-146042583D01*
X96795006Y-145845284D01*
X96795037Y-145809347D01*
X98982207Y-145809347D01*
X99063788Y-146006788D01*
X99214717Y-146157981D01*
X99412016Y-146239906D01*
X99625647Y-146240093D01*
X99740229Y-146192749D01*
X99810488Y-146362788D01*
X99961417Y-146513981D01*
X100158716Y-146595906D01*
X100372347Y-146596093D01*
X100569788Y-146514512D01*
X100720981Y-146363583D01*
X100802906Y-146166284D01*
X100803093Y-145952653D01*
X100722625Y-145757905D01*
X100864716Y-145816906D01*
X101074717Y-145817090D01*
X101146488Y-145990788D01*
X101297417Y-146141981D01*
X101494716Y-146223906D01*
X101708347Y-146224093D01*
X101905788Y-146142512D01*
X102056981Y-145991583D01*
X102138906Y-145794284D01*
X102139093Y-145580653D01*
X102057512Y-145383212D01*
X101906583Y-145232019D01*
X101813450Y-145193347D01*
X102070907Y-145193347D01*
X102152488Y-145390788D01*
X102303417Y-145541981D01*
X102500716Y-145623906D01*
X102714347Y-145624093D01*
X102911788Y-145542512D01*
X103062981Y-145391583D01*
X103144906Y-145194284D01*
X103144906Y-145193347D01*
X103532907Y-145193347D01*
X103614488Y-145390788D01*
X103765417Y-145541981D01*
X103962716Y-145623906D01*
X104176347Y-145624093D01*
X104373788Y-145542512D01*
X104524981Y-145391583D01*
X104606906Y-145194284D01*
X104607093Y-144980653D01*
X104525512Y-144783212D01*
X104501689Y-144759347D01*
X106409607Y-144759347D01*
X106491188Y-144956788D01*
X106593907Y-145059686D01*
X106504019Y-145149417D01*
X106422094Y-145346716D01*
X106421907Y-145560347D01*
X106503488Y-145757788D01*
X106654417Y-145908981D01*
X106851716Y-145990906D01*
X107065347Y-145991093D01*
X107262788Y-145909512D01*
X107413981Y-145758583D01*
X107495906Y-145561284D01*
X107496093Y-145347653D01*
X107414512Y-145150212D01*
X107379311Y-145114949D01*
X108378107Y-145114949D01*
X108459688Y-145312390D01*
X108610617Y-145463583D01*
X108807916Y-145545508D01*
X109021547Y-145545695D01*
X109218988Y-145464114D01*
X109370181Y-145313185D01*
X109439561Y-145146098D01*
X109472488Y-145225788D01*
X109539120Y-145292537D01*
X109534289Y-145294533D01*
X109383096Y-145445462D01*
X109301171Y-145642761D01*
X109300984Y-145856392D01*
X109382565Y-146053833D01*
X109533494Y-146205026D01*
X109730793Y-146286951D01*
X109944424Y-146287138D01*
X110141865Y-146205557D01*
X110273291Y-146074360D01*
X111338082Y-146074360D01*
X111419663Y-146271801D01*
X111570592Y-146422994D01*
X111767891Y-146504919D01*
X111981522Y-146505106D01*
X112178963Y-146423525D01*
X112330156Y-146272596D01*
X112412081Y-146075297D01*
X112412268Y-145861666D01*
X112330687Y-145664225D01*
X112179758Y-145513032D01*
X112013347Y-145443933D01*
X112196543Y-145444093D01*
X112393984Y-145362512D01*
X112545177Y-145211583D01*
X112627102Y-145014284D01*
X112627269Y-144822847D01*
X112896767Y-144822847D01*
X112978348Y-145020288D01*
X113129277Y-145171481D01*
X113326576Y-145253406D01*
X113349306Y-145253426D01*
X113349185Y-145391541D01*
X113430766Y-145588982D01*
X113581695Y-145740175D01*
X113778994Y-145822100D01*
X113941875Y-145822243D01*
X113941864Y-145834654D01*
X114023445Y-146032095D01*
X114174374Y-146183288D01*
X114371673Y-146265213D01*
X114585304Y-146265400D01*
X114782745Y-146183819D01*
X114810265Y-146156347D01*
X116556907Y-146156347D01*
X116638488Y-146353788D01*
X116789417Y-146504981D01*
X116986716Y-146586906D01*
X117200347Y-146587093D01*
X117397788Y-146505512D01*
X117548981Y-146354583D01*
X117630906Y-146157284D01*
X117631093Y-145943653D01*
X117549512Y-145746212D01*
X117398583Y-145595019D01*
X117201284Y-145513094D01*
X116987653Y-145512907D01*
X116790212Y-145594488D01*
X116639019Y-145745417D01*
X116557094Y-145942716D01*
X116556907Y-146156347D01*
X114810265Y-146156347D01*
X114933938Y-146032890D01*
X115015863Y-145835591D01*
X115016016Y-145661367D01*
X115045947Y-145661393D01*
X115243388Y-145579812D01*
X115394581Y-145428883D01*
X115447953Y-145300347D01*
X117954716Y-145300347D01*
X118036297Y-145497788D01*
X118187226Y-145648981D01*
X118292076Y-145692518D01*
X118246194Y-145803016D01*
X118246007Y-146016647D01*
X118327588Y-146214088D01*
X118478517Y-146365281D01*
X118675816Y-146447206D01*
X118889447Y-146447393D01*
X119086888Y-146365812D01*
X119238081Y-146214883D01*
X119320006Y-146017584D01*
X119320193Y-145803953D01*
X119238612Y-145606512D01*
X119087683Y-145455319D01*
X118982833Y-145411782D01*
X119028715Y-145301284D01*
X119028902Y-145087653D01*
X118947321Y-144890212D01*
X118796392Y-144739019D01*
X118599093Y-144657094D01*
X118385462Y-144656907D01*
X118188021Y-144738488D01*
X118036828Y-144889417D01*
X117954903Y-145086716D01*
X117954716Y-145300347D01*
X115447953Y-145300347D01*
X115476506Y-145231584D01*
X115476693Y-145017953D01*
X115395112Y-144820512D01*
X115244183Y-144669319D01*
X115046884Y-144587394D01*
X114833253Y-144587207D01*
X114635812Y-144668788D01*
X114484619Y-144819717D01*
X114402694Y-145017016D01*
X114402596Y-145128569D01*
X114341790Y-144981406D01*
X114190861Y-144830213D01*
X113993562Y-144748288D01*
X113970832Y-144748268D01*
X113970953Y-144610153D01*
X113889372Y-144412712D01*
X113738443Y-144261519D01*
X113541144Y-144179594D01*
X113327513Y-144179407D01*
X113130072Y-144260988D01*
X112978879Y-144411917D01*
X112896954Y-144609216D01*
X112896767Y-144822847D01*
X112627269Y-144822847D01*
X112627289Y-144800653D01*
X112545708Y-144603212D01*
X112394779Y-144452019D01*
X112197480Y-144370094D01*
X111983849Y-144369907D01*
X111786408Y-144451488D01*
X111635215Y-144602417D01*
X111553290Y-144799716D01*
X111553103Y-145013347D01*
X111634684Y-145210788D01*
X111785613Y-145361981D01*
X111952024Y-145431080D01*
X111768828Y-145430920D01*
X111571387Y-145512501D01*
X111420194Y-145663430D01*
X111338269Y-145860729D01*
X111338082Y-146074360D01*
X110273291Y-146074360D01*
X110293058Y-146054628D01*
X110374983Y-145857329D01*
X110375170Y-145643698D01*
X110293589Y-145446257D01*
X110226957Y-145379508D01*
X110231788Y-145377512D01*
X110382981Y-145226583D01*
X110445160Y-145076837D01*
X110521498Y-145261588D01*
X110672427Y-145412781D01*
X110869726Y-145494706D01*
X111083357Y-145494893D01*
X111280798Y-145413312D01*
X111431991Y-145262383D01*
X111513916Y-145065084D01*
X111514103Y-144851453D01*
X111432522Y-144654012D01*
X111281593Y-144502819D01*
X111084294Y-144420894D01*
X110870663Y-144420707D01*
X110673222Y-144502288D01*
X110522029Y-144653217D01*
X110459850Y-144802963D01*
X110383512Y-144618212D01*
X110232583Y-144467019D01*
X110035284Y-144385094D01*
X109821653Y-144384907D01*
X109624212Y-144466488D01*
X109473019Y-144617417D01*
X109403639Y-144784504D01*
X109370712Y-144704814D01*
X109219783Y-144553621D01*
X109022484Y-144471696D01*
X108808853Y-144471509D01*
X108611412Y-144553090D01*
X108460219Y-144704019D01*
X108378294Y-144901318D01*
X108378107Y-145114949D01*
X107379311Y-145114949D01*
X107311793Y-145047314D01*
X107401681Y-144957583D01*
X107483606Y-144760284D01*
X107483793Y-144546653D01*
X107402212Y-144349212D01*
X107251283Y-144198019D01*
X107053984Y-144116094D01*
X106840353Y-144115907D01*
X106642912Y-144197488D01*
X106491719Y-144348417D01*
X106409794Y-144545716D01*
X106409607Y-144759347D01*
X104501689Y-144759347D01*
X104374583Y-144632019D01*
X104177284Y-144550094D01*
X103963653Y-144549907D01*
X103766212Y-144631488D01*
X103615019Y-144782417D01*
X103533094Y-144979716D01*
X103532907Y-145193347D01*
X103144906Y-145193347D01*
X103145093Y-144980653D01*
X103063512Y-144783212D01*
X102912583Y-144632019D01*
X102715284Y-144550094D01*
X102501653Y-144549907D01*
X102304212Y-144631488D01*
X102153019Y-144782417D01*
X102071094Y-144979716D01*
X102070907Y-145193347D01*
X101813450Y-145193347D01*
X101709284Y-145150094D01*
X101499283Y-145149910D01*
X101427512Y-144976212D01*
X101276583Y-144825019D01*
X101079284Y-144743094D01*
X100865653Y-144742907D01*
X100668212Y-144824488D01*
X100517019Y-144975417D01*
X100435094Y-145172716D01*
X100434907Y-145386347D01*
X100515375Y-145581095D01*
X100373284Y-145522094D01*
X100159653Y-145521907D01*
X100045071Y-145569251D01*
X99974812Y-145399212D01*
X99823883Y-145248019D01*
X99626584Y-145166094D01*
X99412953Y-145165907D01*
X99215512Y-145247488D01*
X99064319Y-145398417D01*
X98982394Y-145595716D01*
X98982207Y-145809347D01*
X96795037Y-145809347D01*
X96795193Y-145631653D01*
X96713612Y-145434212D01*
X96562683Y-145283019D01*
X96365384Y-145201094D01*
X96151753Y-145200907D01*
X95954312Y-145282488D01*
X95803119Y-145433417D01*
X95721194Y-145630716D01*
X95721007Y-145844347D01*
X95186366Y-145844347D01*
X95046283Y-145704019D01*
X94848984Y-145622094D01*
X94635353Y-145621907D01*
X94437912Y-145703488D01*
X94286719Y-145854417D01*
X94204794Y-146051716D01*
X94204607Y-146265347D01*
X93575372Y-146265347D01*
X93528212Y-146151212D01*
X93377283Y-146000019D01*
X93179984Y-145918094D01*
X92966353Y-145917907D01*
X92768912Y-145999488D01*
X92617719Y-146150417D01*
X92535794Y-146347716D01*
X92535607Y-146561347D01*
X92488984Y-146561347D01*
X92358883Y-146431019D01*
X92161584Y-146349094D01*
X91947953Y-146348907D01*
X91750512Y-146430488D01*
X91740997Y-146439987D01*
X91740571Y-146439560D01*
X91816681Y-146363583D01*
X91898606Y-146166284D01*
X91898793Y-145952653D01*
X91817212Y-145755212D01*
X91666283Y-145604019D01*
X91468984Y-145522094D01*
X91255353Y-145521907D01*
X91057912Y-145603488D01*
X91011676Y-145649643D01*
X90936863Y-145574699D01*
X90739564Y-145492774D01*
X90525933Y-145492587D01*
X90328492Y-145574168D01*
X90177299Y-145725097D01*
X90095374Y-145922396D01*
X90095187Y-146136027D01*
X90176768Y-146333468D01*
X90227517Y-146384306D01*
X90023013Y-146384127D01*
X89825572Y-146465708D01*
X89674379Y-146616637D01*
X89592454Y-146813936D01*
X89592267Y-147027567D01*
X88048863Y-147027567D01*
X88078006Y-146957384D01*
X88078193Y-146743753D01*
X87996612Y-146546312D01*
X87845683Y-146395119D01*
X87648384Y-146313194D01*
X87434753Y-146313007D01*
X87359216Y-146344218D01*
X87305912Y-146215212D01*
X87154983Y-146064019D01*
X86957684Y-145982094D01*
X86744053Y-145981907D01*
X86546612Y-146063488D01*
X86395419Y-146214417D01*
X86313494Y-146411716D01*
X86313307Y-146625347D01*
X85138000Y-146625347D01*
X85138000Y-145001464D01*
X87022454Y-145001464D01*
X87104035Y-145198905D01*
X87254964Y-145350098D01*
X87452263Y-145432023D01*
X87665894Y-145432210D01*
X87863335Y-145350629D01*
X88014528Y-145199700D01*
X88061876Y-145085672D01*
X88134057Y-145260362D01*
X88284986Y-145411555D01*
X88482285Y-145493480D01*
X88695916Y-145493667D01*
X88718472Y-145484347D01*
X93463407Y-145484347D01*
X93544988Y-145681788D01*
X93695917Y-145832981D01*
X93893216Y-145914906D01*
X94106847Y-145915093D01*
X94304288Y-145833512D01*
X94455481Y-145682583D01*
X94537406Y-145485284D01*
X94537593Y-145271653D01*
X94531682Y-145257347D01*
X94792107Y-145257347D01*
X94873688Y-145454788D01*
X95024617Y-145605981D01*
X95221916Y-145687906D01*
X95435547Y-145688093D01*
X95632988Y-145606512D01*
X95784181Y-145455583D01*
X95866106Y-145258284D01*
X95866293Y-145044653D01*
X95784712Y-144847212D01*
X95633783Y-144696019D01*
X95436484Y-144614094D01*
X95222853Y-144613907D01*
X95025412Y-144695488D01*
X94874219Y-144846417D01*
X94792294Y-145043716D01*
X94792107Y-145257347D01*
X94531682Y-145257347D01*
X94456012Y-145074212D01*
X94305083Y-144923019D01*
X94107784Y-144841094D01*
X93894153Y-144840907D01*
X93696712Y-144922488D01*
X93545519Y-145073417D01*
X93463594Y-145270716D01*
X93463407Y-145484347D01*
X88718472Y-145484347D01*
X88893357Y-145412086D01*
X89044550Y-145261157D01*
X89126475Y-145063858D01*
X89126576Y-144948743D01*
X89184147Y-144948793D01*
X89381588Y-144867212D01*
X89438552Y-144810347D01*
X89632907Y-144810347D01*
X89714488Y-145007788D01*
X89865417Y-145158981D01*
X90062716Y-145240906D01*
X90276347Y-145241093D01*
X90473788Y-145159512D01*
X90624981Y-145008583D01*
X90684872Y-144864347D01*
X91566207Y-144864347D01*
X91647788Y-145061788D01*
X91798717Y-145212981D01*
X91996016Y-145294906D01*
X92209647Y-145295093D01*
X92407088Y-145213512D01*
X92558281Y-145062583D01*
X92640206Y-144865284D01*
X92640393Y-144651653D01*
X92558812Y-144454212D01*
X92407883Y-144303019D01*
X92210584Y-144221094D01*
X91996953Y-144220907D01*
X91799512Y-144302488D01*
X91648319Y-144453417D01*
X91566394Y-144650716D01*
X91566207Y-144864347D01*
X90684872Y-144864347D01*
X90706906Y-144811284D01*
X90707093Y-144597653D01*
X90625512Y-144400212D01*
X90474583Y-144249019D01*
X90277284Y-144167094D01*
X90063653Y-144166907D01*
X89866212Y-144248488D01*
X89715019Y-144399417D01*
X89633094Y-144596716D01*
X89632907Y-144810347D01*
X89438552Y-144810347D01*
X89532781Y-144716283D01*
X89614706Y-144518984D01*
X89614893Y-144305353D01*
X89533312Y-144107912D01*
X89487916Y-144062437D01*
X89608981Y-143941583D01*
X89690906Y-143744284D01*
X89690906Y-143743347D01*
X92617407Y-143743347D01*
X92698988Y-143940788D01*
X92849917Y-144091981D01*
X93047216Y-144173906D01*
X93260847Y-144174093D01*
X93458288Y-144092512D01*
X93609481Y-143941583D01*
X93691406Y-143744284D01*
X93691566Y-143561347D01*
X99369607Y-143561347D01*
X99451188Y-143758788D01*
X99602117Y-143909981D01*
X99799416Y-143991906D01*
X100013047Y-143992093D01*
X100210488Y-143910512D01*
X100351714Y-143769532D01*
X108149074Y-143769532D01*
X108230655Y-143966973D01*
X108381584Y-144118166D01*
X108578883Y-144200091D01*
X108792514Y-144200278D01*
X108989955Y-144118697D01*
X109043807Y-144064939D01*
X109121195Y-144142463D01*
X109318494Y-144224388D01*
X109532125Y-144224575D01*
X109729566Y-144142994D01*
X109880759Y-143992065D01*
X109883963Y-143984347D01*
X117832907Y-143984347D01*
X117914488Y-144181788D01*
X118065417Y-144332981D01*
X118262716Y-144414906D01*
X118476347Y-144415093D01*
X118673788Y-144333512D01*
X118824981Y-144182583D01*
X118906906Y-143985284D01*
X118907093Y-143771653D01*
X118825512Y-143574212D01*
X118674583Y-143423019D01*
X118477284Y-143341094D01*
X118263653Y-143340907D01*
X118066212Y-143422488D01*
X117915019Y-143573417D01*
X117833094Y-143770716D01*
X117832907Y-143984347D01*
X109883963Y-143984347D01*
X109962684Y-143794766D01*
X109962871Y-143581135D01*
X109881290Y-143383694D01*
X109730361Y-143232501D01*
X109533062Y-143150576D01*
X109319431Y-143150389D01*
X109121990Y-143231970D01*
X109068138Y-143285728D01*
X108990750Y-143208204D01*
X108793451Y-143126279D01*
X108579820Y-143126092D01*
X108382379Y-143207673D01*
X108231186Y-143358602D01*
X108149261Y-143555901D01*
X108149074Y-143769532D01*
X100351714Y-143769532D01*
X100361681Y-143759583D01*
X100443606Y-143562284D01*
X100443793Y-143348653D01*
X100426726Y-143307347D01*
X101152907Y-143307347D01*
X101234488Y-143504788D01*
X101385417Y-143655981D01*
X101582716Y-143737906D01*
X101796347Y-143738093D01*
X101993788Y-143656512D01*
X102144981Y-143505583D01*
X102226906Y-143308284D01*
X102226962Y-143243347D01*
X103520907Y-143243347D01*
X103602488Y-143440788D01*
X103753417Y-143591981D01*
X103950716Y-143673906D01*
X104164347Y-143674093D01*
X104361788Y-143592512D01*
X104512981Y-143441583D01*
X104594906Y-143244284D01*
X104594982Y-143156347D01*
X106411907Y-143156347D01*
X106493488Y-143353788D01*
X106644417Y-143504981D01*
X106841716Y-143586906D01*
X107055347Y-143587093D01*
X107252788Y-143505512D01*
X107346534Y-143411930D01*
X107442217Y-143507781D01*
X107639516Y-143589706D01*
X107853147Y-143589893D01*
X108050588Y-143508312D01*
X108201781Y-143357383D01*
X108283706Y-143160084D01*
X108283893Y-142946453D01*
X108221888Y-142796389D01*
X117794927Y-142796389D01*
X117876508Y-142993830D01*
X118027437Y-143145023D01*
X118224736Y-143226948D01*
X118438367Y-143227135D01*
X118635808Y-143145554D01*
X118787001Y-142994625D01*
X118868926Y-142797326D01*
X118869034Y-142673367D01*
X122828907Y-142673367D01*
X122910488Y-142870808D01*
X123061417Y-143022001D01*
X123067917Y-143024700D01*
X122976039Y-143116417D01*
X122894114Y-143313716D01*
X122893927Y-143527347D01*
X122975508Y-143724788D01*
X123126437Y-143875981D01*
X123323736Y-143957906D01*
X123537367Y-143958093D01*
X123734808Y-143876512D01*
X123886001Y-143725583D01*
X123967926Y-143528284D01*
X123968113Y-143314653D01*
X123886532Y-143117212D01*
X123735603Y-142966019D01*
X123729103Y-142963320D01*
X123820981Y-142871603D01*
X123902906Y-142674304D01*
X123903093Y-142460673D01*
X123821512Y-142263232D01*
X123670583Y-142112039D01*
X123473284Y-142030114D01*
X123259653Y-142029927D01*
X123062212Y-142111508D01*
X122911019Y-142262437D01*
X122829094Y-142459736D01*
X122828907Y-142673367D01*
X118869034Y-142673367D01*
X118869113Y-142583695D01*
X118787532Y-142386254D01*
X118636603Y-142235061D01*
X118439304Y-142153136D01*
X118225673Y-142152949D01*
X118028232Y-142234530D01*
X117877039Y-142385459D01*
X117795114Y-142582758D01*
X117794927Y-142796389D01*
X108221888Y-142796389D01*
X108202312Y-142749012D01*
X108080805Y-142627292D01*
X108176381Y-142531883D01*
X108258306Y-142334584D01*
X108258493Y-142120953D01*
X108176912Y-141923512D01*
X108025983Y-141772319D01*
X107845429Y-141697347D01*
X108416907Y-141697347D01*
X108498488Y-141894788D01*
X108649417Y-142045981D01*
X108846716Y-142127906D01*
X109060347Y-142128093D01*
X109257788Y-142046512D01*
X109266485Y-142037830D01*
X109391417Y-142162981D01*
X109588716Y-142244906D01*
X109802347Y-142245093D01*
X109999788Y-142163512D01*
X110150981Y-142012583D01*
X110232906Y-141815284D01*
X110233093Y-141601653D01*
X110199705Y-141520847D01*
X120836807Y-141520847D01*
X120918388Y-141718288D01*
X121069317Y-141869481D01*
X121266616Y-141951406D01*
X121480247Y-141951593D01*
X121677688Y-141870012D01*
X121828881Y-141719083D01*
X121910806Y-141521784D01*
X121910993Y-141308153D01*
X121829412Y-141110712D01*
X121678483Y-140959519D01*
X121481184Y-140877594D01*
X121267553Y-140877407D01*
X121070112Y-140958988D01*
X120918919Y-141109917D01*
X120836994Y-141307216D01*
X120836807Y-141520847D01*
X110199705Y-141520847D01*
X110151512Y-141404212D01*
X110000583Y-141253019D01*
X109803284Y-141171094D01*
X109589653Y-141170907D01*
X109392212Y-141252488D01*
X109383515Y-141261170D01*
X109258583Y-141136019D01*
X109061284Y-141054094D01*
X108847653Y-141053907D01*
X108650212Y-141135488D01*
X108499019Y-141286417D01*
X108417094Y-141483716D01*
X108416907Y-141697347D01*
X107845429Y-141697347D01*
X107828684Y-141690394D01*
X107615053Y-141690207D01*
X107417612Y-141771788D01*
X107266419Y-141922717D01*
X107184494Y-142120016D01*
X107184307Y-142333647D01*
X107265888Y-142531088D01*
X107387395Y-142652808D01*
X107349266Y-142690870D01*
X107253583Y-142595019D01*
X107056284Y-142513094D01*
X106842653Y-142512907D01*
X106645212Y-142594488D01*
X106494019Y-142745417D01*
X106412094Y-142942716D01*
X106411907Y-143156347D01*
X104594982Y-143156347D01*
X104595093Y-143030653D01*
X104513512Y-142833212D01*
X104362583Y-142682019D01*
X104165284Y-142600094D01*
X103951653Y-142599907D01*
X103754212Y-142681488D01*
X103603019Y-142832417D01*
X103521094Y-143029716D01*
X103520907Y-143243347D01*
X102226962Y-143243347D01*
X102227093Y-143094653D01*
X102145512Y-142897212D01*
X101994583Y-142746019D01*
X101797284Y-142664094D01*
X101583653Y-142663907D01*
X101386212Y-142745488D01*
X101235019Y-142896417D01*
X101153094Y-143093716D01*
X101152907Y-143307347D01*
X100426726Y-143307347D01*
X100362212Y-143151212D01*
X100211283Y-143000019D01*
X100013984Y-142918094D01*
X99800353Y-142917907D01*
X99602912Y-142999488D01*
X99451719Y-143150417D01*
X99369794Y-143347716D01*
X99369607Y-143561347D01*
X93691566Y-143561347D01*
X93691593Y-143530653D01*
X93610012Y-143333212D01*
X93459083Y-143182019D01*
X93261784Y-143100094D01*
X93048153Y-143099907D01*
X92850712Y-143181488D01*
X92699519Y-143332417D01*
X92617594Y-143529716D01*
X92617407Y-143743347D01*
X89690906Y-143743347D01*
X89691093Y-143530653D01*
X89609512Y-143333212D01*
X89564138Y-143287759D01*
X89659781Y-143192283D01*
X89741706Y-142994984D01*
X89741893Y-142781353D01*
X89660312Y-142583912D01*
X89509383Y-142432719D01*
X89312084Y-142350794D01*
X89098453Y-142350607D01*
X88901012Y-142432188D01*
X88749819Y-142583117D01*
X88667894Y-142780416D01*
X88667707Y-142994047D01*
X88749288Y-143191488D01*
X88794662Y-143236941D01*
X88699019Y-143332417D01*
X88617094Y-143529716D01*
X88616907Y-143743347D01*
X88698488Y-143940788D01*
X88743884Y-143986263D01*
X88622819Y-144107117D01*
X88540894Y-144304416D01*
X88540793Y-144419531D01*
X88483222Y-144419481D01*
X88285781Y-144501062D01*
X88134588Y-144651991D01*
X88087240Y-144766019D01*
X88015059Y-144591329D01*
X87864130Y-144440136D01*
X87666831Y-144358211D01*
X87453200Y-144358024D01*
X87255759Y-144439605D01*
X87104566Y-144590534D01*
X87022641Y-144787833D01*
X87022454Y-145001464D01*
X85138000Y-145001464D01*
X85138000Y-141820073D01*
X86380581Y-141820073D01*
X86462162Y-142017514D01*
X86613091Y-142168707D01*
X86810390Y-142250632D01*
X87024021Y-142250819D01*
X87221462Y-142169238D01*
X87372655Y-142018309D01*
X87454580Y-141821010D01*
X87454650Y-141740347D01*
X88454087Y-141740347D01*
X88535668Y-141937788D01*
X88686597Y-142088981D01*
X88883896Y-142170906D01*
X89097527Y-142171093D01*
X89294968Y-142089512D01*
X89429527Y-141955187D01*
X90092647Y-141955187D01*
X90174228Y-142152628D01*
X90325157Y-142303821D01*
X90522456Y-142385746D01*
X90736087Y-142385933D01*
X90933528Y-142304352D01*
X91046670Y-142191407D01*
X96381687Y-142191407D01*
X96463268Y-142388848D01*
X96614197Y-142540041D01*
X96811496Y-142621966D01*
X97025127Y-142622153D01*
X97222568Y-142540572D01*
X97373761Y-142389643D01*
X97455686Y-142192344D01*
X97455873Y-141978713D01*
X97374292Y-141781272D01*
X97223363Y-141630079D01*
X97026064Y-141548154D01*
X96812433Y-141547967D01*
X96614992Y-141629548D01*
X96463799Y-141780477D01*
X96381874Y-141977776D01*
X96381687Y-142191407D01*
X91046670Y-142191407D01*
X91084721Y-142153423D01*
X91166646Y-141956124D01*
X91166748Y-141839792D01*
X91213607Y-141839833D01*
X91411048Y-141758252D01*
X91443990Y-141725367D01*
X94304427Y-141725367D01*
X94386008Y-141922808D01*
X94536937Y-142074001D01*
X94734236Y-142155926D01*
X94947867Y-142156113D01*
X95145308Y-142074532D01*
X95296501Y-141923603D01*
X95378426Y-141726304D01*
X95378613Y-141512673D01*
X95297032Y-141315232D01*
X95146103Y-141164039D01*
X94948804Y-141082114D01*
X94735173Y-141081927D01*
X94537732Y-141163508D01*
X94386539Y-141314437D01*
X94304614Y-141511736D01*
X94304427Y-141725367D01*
X91443990Y-141725367D01*
X91562241Y-141607323D01*
X91644166Y-141410024D01*
X91644353Y-141196393D01*
X91562772Y-140998952D01*
X91485303Y-140921347D01*
X92337907Y-140921347D01*
X92419488Y-141118788D01*
X92570417Y-141269981D01*
X92767716Y-141351906D01*
X92981347Y-141352093D01*
X93178788Y-141270512D01*
X93329981Y-141119583D01*
X93411906Y-140922284D01*
X93412060Y-140746147D01*
X119211207Y-140746147D01*
X119292788Y-140943588D01*
X119443717Y-141094781D01*
X119641016Y-141176706D01*
X119854647Y-141176893D01*
X120052088Y-141095312D01*
X120203281Y-140944383D01*
X120285206Y-140747084D01*
X120285217Y-140733447D01*
X121636907Y-140733447D01*
X121718488Y-140930888D01*
X121869417Y-141082081D01*
X122066716Y-141164006D01*
X122280347Y-141164193D01*
X122477788Y-141082612D01*
X122590249Y-140970347D01*
X122814927Y-140970347D01*
X122896508Y-141167788D01*
X123047437Y-141318981D01*
X123244736Y-141400906D01*
X123458367Y-141401093D01*
X123655808Y-141319512D01*
X123807001Y-141168583D01*
X123888926Y-140971284D01*
X123889113Y-140757653D01*
X123807532Y-140560212D01*
X123656603Y-140409019D01*
X123459304Y-140327094D01*
X123245673Y-140326907D01*
X123048232Y-140408488D01*
X122897039Y-140559417D01*
X122815114Y-140756716D01*
X122814927Y-140970347D01*
X122590249Y-140970347D01*
X122628981Y-140931683D01*
X122710906Y-140734384D01*
X122711093Y-140520753D01*
X122629512Y-140323312D01*
X122478583Y-140172119D01*
X122281284Y-140090194D01*
X122067653Y-140090007D01*
X121870212Y-140171588D01*
X121719019Y-140322517D01*
X121637094Y-140519816D01*
X121636907Y-140733447D01*
X120285217Y-140733447D01*
X120285393Y-140533453D01*
X120203812Y-140336012D01*
X120052883Y-140184819D01*
X119855584Y-140102894D01*
X119641953Y-140102707D01*
X119444512Y-140184288D01*
X119293319Y-140335217D01*
X119211394Y-140532516D01*
X119211207Y-140746147D01*
X93412060Y-140746147D01*
X93412093Y-140708653D01*
X93330512Y-140511212D01*
X93179583Y-140360019D01*
X92982284Y-140278094D01*
X92768653Y-140277907D01*
X92571212Y-140359488D01*
X92420019Y-140510417D01*
X92338094Y-140707716D01*
X92337907Y-140921347D01*
X91485303Y-140921347D01*
X91411843Y-140847759D01*
X91214544Y-140765834D01*
X91000913Y-140765647D01*
X90803472Y-140847228D01*
X90652279Y-140998157D01*
X90570354Y-141195456D01*
X90570252Y-141311788D01*
X90523393Y-141311747D01*
X90325952Y-141393328D01*
X90174759Y-141544257D01*
X90092834Y-141741556D01*
X90092647Y-141955187D01*
X89429527Y-141955187D01*
X89446161Y-141938583D01*
X89528086Y-141741284D01*
X89528273Y-141527653D01*
X89446692Y-141330212D01*
X89295763Y-141179019D01*
X89098464Y-141097094D01*
X88884833Y-141096907D01*
X88687392Y-141178488D01*
X88536199Y-141329417D01*
X88454274Y-141526716D01*
X88454087Y-141740347D01*
X87454650Y-141740347D01*
X87454767Y-141607379D01*
X87373186Y-141409938D01*
X87222257Y-141258745D01*
X87024958Y-141176820D01*
X86811327Y-141176633D01*
X86613886Y-141258214D01*
X86462693Y-141409143D01*
X86380768Y-141606442D01*
X86380581Y-141820073D01*
X85138000Y-141820073D01*
X85138000Y-140632347D01*
X86102307Y-140632347D01*
X86183888Y-140829788D01*
X86334817Y-140980981D01*
X86532116Y-141062906D01*
X86745747Y-141063093D01*
X86943188Y-140981512D01*
X87094381Y-140830583D01*
X87176306Y-140633284D01*
X87176493Y-140419653D01*
X87094912Y-140222212D01*
X86943983Y-140071019D01*
X86746684Y-139989094D01*
X86533053Y-139988907D01*
X86335612Y-140070488D01*
X86184419Y-140221417D01*
X86102494Y-140418716D01*
X86102307Y-140632347D01*
X85138000Y-140632347D01*
X85138000Y-139721347D01*
X90141407Y-139721347D01*
X90222988Y-139918788D01*
X90373917Y-140069981D01*
X90571216Y-140151906D01*
X90784847Y-140152093D01*
X90982288Y-140070512D01*
X91133481Y-139919583D01*
X91178839Y-139810347D01*
X100464907Y-139810347D01*
X100546488Y-140007788D01*
X100697417Y-140158981D01*
X100894716Y-140240906D01*
X101108347Y-140241093D01*
X101305788Y-140159512D01*
X101456981Y-140008583D01*
X101460992Y-139998923D01*
X101624716Y-140066906D01*
X101838347Y-140067093D01*
X102035788Y-139985512D01*
X102186981Y-139834583D01*
X102248533Y-139686347D01*
X108259907Y-139686347D01*
X108341488Y-139883788D01*
X108492417Y-140034981D01*
X108689716Y-140116906D01*
X108873481Y-140117067D01*
X108947368Y-140295888D01*
X109098297Y-140447081D01*
X109295596Y-140529006D01*
X109509227Y-140529193D01*
X109706668Y-140447612D01*
X109857861Y-140296683D01*
X109939786Y-140099384D01*
X109939931Y-139933347D01*
X111209907Y-139933347D01*
X111291488Y-140130788D01*
X111442417Y-140281981D01*
X111639716Y-140363906D01*
X111853347Y-140364093D01*
X112050788Y-140282512D01*
X112201981Y-140131583D01*
X112258135Y-139996347D01*
X116010907Y-139996347D01*
X116092488Y-140193788D01*
X116243417Y-140344981D01*
X116440716Y-140426906D01*
X116654347Y-140427093D01*
X116851788Y-140345512D01*
X117002981Y-140194583D01*
X117084906Y-139997284D01*
X117085093Y-139783653D01*
X117003512Y-139586212D01*
X116852583Y-139435019D01*
X116655284Y-139353094D01*
X116441653Y-139352907D01*
X116244212Y-139434488D01*
X116093019Y-139585417D01*
X116011094Y-139782716D01*
X116010907Y-139996347D01*
X112258135Y-139996347D01*
X112283906Y-139934284D01*
X112284093Y-139720653D01*
X112202512Y-139523212D01*
X112051583Y-139372019D01*
X111854284Y-139290094D01*
X111640653Y-139289907D01*
X111443212Y-139371488D01*
X111292019Y-139522417D01*
X111210094Y-139719716D01*
X111209907Y-139933347D01*
X109939931Y-139933347D01*
X109939973Y-139885753D01*
X109858392Y-139688312D01*
X109707463Y-139537119D01*
X109510164Y-139455194D01*
X109326399Y-139455033D01*
X109252512Y-139276212D01*
X109122874Y-139146347D01*
X116797907Y-139146347D01*
X116879488Y-139343788D01*
X117030417Y-139494981D01*
X117227716Y-139576906D01*
X117441347Y-139577093D01*
X117638788Y-139495512D01*
X117654842Y-139479486D01*
X117654737Y-139599659D01*
X117736318Y-139797100D01*
X117887247Y-139948293D01*
X118084546Y-140030218D01*
X118268790Y-140030379D01*
X118350352Y-140227774D01*
X118501281Y-140378967D01*
X118698580Y-140460892D01*
X118912211Y-140461079D01*
X119109652Y-140379498D01*
X119260845Y-140228569D01*
X119342770Y-140031270D01*
X119342957Y-139817639D01*
X119261376Y-139620198D01*
X119110447Y-139469005D01*
X118913148Y-139387080D01*
X118728904Y-139386919D01*
X118647342Y-139189524D01*
X118496413Y-139038331D01*
X118299114Y-138956406D01*
X118085483Y-138956219D01*
X117888042Y-139037800D01*
X117871988Y-139053826D01*
X117872093Y-138933653D01*
X117790512Y-138736212D01*
X117639583Y-138585019D01*
X117442284Y-138503094D01*
X117228653Y-138502907D01*
X117031212Y-138584488D01*
X116880019Y-138735417D01*
X116798094Y-138932716D01*
X116797907Y-139146347D01*
X109122874Y-139146347D01*
X109101583Y-139125019D01*
X108904284Y-139043094D01*
X108690653Y-139042907D01*
X108493212Y-139124488D01*
X108342019Y-139275417D01*
X108260094Y-139472716D01*
X108259907Y-139686347D01*
X102248533Y-139686347D01*
X102268906Y-139637284D01*
X102269093Y-139423653D01*
X102187512Y-139226212D01*
X102120065Y-139158647D01*
X107209707Y-139158647D01*
X107291288Y-139356088D01*
X107442217Y-139507281D01*
X107639516Y-139589206D01*
X107853147Y-139589393D01*
X108050588Y-139507812D01*
X108201781Y-139356883D01*
X108283706Y-139159584D01*
X108283893Y-138945953D01*
X108202312Y-138748512D01*
X108051383Y-138597319D01*
X107854084Y-138515394D01*
X107640453Y-138515207D01*
X107443012Y-138596788D01*
X107291819Y-138747717D01*
X107209894Y-138945016D01*
X107209707Y-139158647D01*
X102120065Y-139158647D01*
X102036583Y-139075019D01*
X101839284Y-138993094D01*
X101625653Y-138992907D01*
X101428212Y-139074488D01*
X101277019Y-139225417D01*
X101273008Y-139235077D01*
X101109284Y-139167094D01*
X100895653Y-139166907D01*
X100698212Y-139248488D01*
X100547019Y-139399417D01*
X100465094Y-139596716D01*
X100464907Y-139810347D01*
X91178839Y-139810347D01*
X91215406Y-139722284D01*
X91215593Y-139508653D01*
X91134012Y-139311212D01*
X90983083Y-139160019D01*
X90785784Y-139078094D01*
X90572153Y-139077907D01*
X90374712Y-139159488D01*
X90223519Y-139310417D01*
X90141594Y-139507716D01*
X90141407Y-139721347D01*
X85138000Y-139721347D01*
X85138000Y-138041347D01*
X91842707Y-138041347D01*
X91924288Y-138238788D01*
X92075217Y-138389981D01*
X92272516Y-138471906D01*
X92486147Y-138472093D01*
X92683588Y-138390512D01*
X92834781Y-138239583D01*
X92916706Y-138042284D01*
X92916817Y-137914347D01*
X94649407Y-137914347D01*
X94730988Y-138111788D01*
X94881917Y-138262981D01*
X95079216Y-138344906D01*
X95292847Y-138345093D01*
X95490288Y-138263512D01*
X95641481Y-138112583D01*
X95708016Y-137952347D01*
X97799007Y-137952347D01*
X97880588Y-138149788D01*
X98031517Y-138300981D01*
X98228816Y-138382906D01*
X98442447Y-138383093D01*
X98532589Y-138345847D01*
X106396907Y-138345847D01*
X106478488Y-138543288D01*
X106629417Y-138694481D01*
X106826716Y-138776406D01*
X107040347Y-138776593D01*
X107237788Y-138695012D01*
X107388981Y-138544083D01*
X107470906Y-138346784D01*
X107471093Y-138133153D01*
X107412046Y-137990247D01*
X108743867Y-137990247D01*
X108825448Y-138187688D01*
X108976377Y-138338881D01*
X109173676Y-138420806D01*
X109387307Y-138420993D01*
X109567964Y-138346347D01*
X110409907Y-138346347D01*
X110491488Y-138543788D01*
X110642417Y-138694981D01*
X110839716Y-138776906D01*
X111053347Y-138777093D01*
X111250788Y-138695512D01*
X111401981Y-138544583D01*
X111483906Y-138347284D01*
X111484093Y-138133653D01*
X111470974Y-138101901D01*
X118541353Y-138101901D01*
X118622934Y-138299342D01*
X118773863Y-138450535D01*
X118971162Y-138532460D01*
X119184793Y-138532647D01*
X119382234Y-138451066D01*
X119533427Y-138300137D01*
X119615352Y-138102838D01*
X119615539Y-137889207D01*
X119533958Y-137691766D01*
X119413550Y-137571147D01*
X120824107Y-137571147D01*
X120905688Y-137768588D01*
X121056617Y-137919781D01*
X121253916Y-138001706D01*
X121467547Y-138001893D01*
X121664988Y-137920312D01*
X121816181Y-137769383D01*
X121898106Y-137572084D01*
X121898122Y-137553347D01*
X122409907Y-137553347D01*
X122491488Y-137750788D01*
X122642417Y-137901981D01*
X122839716Y-137983906D01*
X122881813Y-137983943D01*
X122876094Y-137997716D01*
X122875907Y-138211347D01*
X122957488Y-138408788D01*
X123108417Y-138559981D01*
X123305716Y-138641906D01*
X123473431Y-138642053D01*
X123402192Y-138671488D01*
X123250999Y-138822417D01*
X123169074Y-139019716D01*
X123168887Y-139233347D01*
X123174402Y-139246693D01*
X123151284Y-139237094D01*
X122937653Y-139236907D01*
X122740212Y-139318488D01*
X122589019Y-139469417D01*
X122507094Y-139666716D01*
X122506907Y-139880347D01*
X122588488Y-140077788D01*
X122739417Y-140228981D01*
X122936716Y-140310906D01*
X123150347Y-140311093D01*
X123347788Y-140229512D01*
X123498981Y-140078583D01*
X123580906Y-139881284D01*
X123581093Y-139667653D01*
X123575578Y-139654307D01*
X123598696Y-139663906D01*
X123812327Y-139664093D01*
X124009768Y-139582512D01*
X124160961Y-139431583D01*
X124242886Y-139234284D01*
X124243073Y-139020653D01*
X124161492Y-138823212D01*
X124010563Y-138672019D01*
X123813264Y-138590094D01*
X123645549Y-138589947D01*
X123716788Y-138560512D01*
X123867981Y-138409583D01*
X123949906Y-138212284D01*
X123950093Y-137998653D01*
X123868512Y-137801212D01*
X123717583Y-137650019D01*
X123520284Y-137568094D01*
X123478187Y-137568057D01*
X123483906Y-137554284D01*
X123484093Y-137340653D01*
X123402512Y-137143212D01*
X123251583Y-136992019D01*
X123054284Y-136910094D01*
X122840653Y-136909907D01*
X122643212Y-136991488D01*
X122492019Y-137142417D01*
X122410094Y-137339716D01*
X122409907Y-137553347D01*
X121898122Y-137553347D01*
X121898293Y-137358453D01*
X121816712Y-137161012D01*
X121665783Y-137009819D01*
X121468484Y-136927894D01*
X121254853Y-136927707D01*
X121057412Y-137009288D01*
X120906219Y-137160217D01*
X120824294Y-137357516D01*
X120824107Y-137571147D01*
X119413550Y-137571147D01*
X119383029Y-137540573D01*
X119185730Y-137458648D01*
X118972099Y-137458461D01*
X118774658Y-137540042D01*
X118623465Y-137690971D01*
X118541540Y-137888270D01*
X118541353Y-138101901D01*
X111470974Y-138101901D01*
X111402512Y-137936212D01*
X111251583Y-137785019D01*
X111054284Y-137703094D01*
X110840653Y-137702907D01*
X110643212Y-137784488D01*
X110492019Y-137935417D01*
X110410094Y-138132716D01*
X110409907Y-138346347D01*
X109567964Y-138346347D01*
X109584748Y-138339412D01*
X109735941Y-138188483D01*
X109817866Y-137991184D01*
X109818053Y-137777553D01*
X109736472Y-137580112D01*
X109585543Y-137428919D01*
X109388244Y-137346994D01*
X109174613Y-137346807D01*
X108977172Y-137428388D01*
X108825979Y-137579317D01*
X108744054Y-137776616D01*
X108743867Y-137990247D01*
X107412046Y-137990247D01*
X107389512Y-137935712D01*
X107238583Y-137784519D01*
X107041284Y-137702594D01*
X106827653Y-137702407D01*
X106630212Y-137783988D01*
X106479019Y-137934917D01*
X106397094Y-138132216D01*
X106396907Y-138345847D01*
X98532589Y-138345847D01*
X98639888Y-138301512D01*
X98791081Y-138150583D01*
X98873006Y-137953284D01*
X98873062Y-137888347D01*
X101252907Y-137888347D01*
X101334488Y-138085788D01*
X101485417Y-138236981D01*
X101682716Y-138318906D01*
X101896347Y-138319093D01*
X102093788Y-138237512D01*
X102244981Y-138086583D01*
X102326906Y-137889284D01*
X102327093Y-137675653D01*
X102245512Y-137478212D01*
X102094583Y-137327019D01*
X101897284Y-137245094D01*
X101683653Y-137244907D01*
X101486212Y-137326488D01*
X101335019Y-137477417D01*
X101253094Y-137674716D01*
X101252907Y-137888347D01*
X98873062Y-137888347D01*
X98873193Y-137739653D01*
X98791612Y-137542212D01*
X98640683Y-137391019D01*
X98443384Y-137309094D01*
X98229753Y-137308907D01*
X98032312Y-137390488D01*
X97881119Y-137541417D01*
X97799194Y-137738716D01*
X97799007Y-137952347D01*
X95708016Y-137952347D01*
X95723406Y-137915284D01*
X95723593Y-137701653D01*
X95642012Y-137504212D01*
X95491083Y-137353019D01*
X95293784Y-137271094D01*
X95080153Y-137270907D01*
X94882712Y-137352488D01*
X94731519Y-137503417D01*
X94649594Y-137700716D01*
X94649407Y-137914347D01*
X92916817Y-137914347D01*
X92916893Y-137828653D01*
X92835312Y-137631212D01*
X92684383Y-137480019D01*
X92487084Y-137398094D01*
X92273453Y-137397907D01*
X92076012Y-137479488D01*
X91924819Y-137630417D01*
X91842894Y-137827716D01*
X91842707Y-138041347D01*
X85138000Y-138041347D01*
X85138000Y-136852327D01*
X108411127Y-136852327D01*
X108492708Y-137049768D01*
X108643637Y-137200961D01*
X108840936Y-137282886D01*
X109054567Y-137283073D01*
X109252008Y-137201492D01*
X109403201Y-137050563D01*
X109485126Y-136853264D01*
X109485207Y-136760647D01*
X109735907Y-136760647D01*
X109817488Y-136958088D01*
X109968417Y-137109281D01*
X110165716Y-137191206D01*
X110379347Y-137191393D01*
X110576788Y-137109812D01*
X110727981Y-136958883D01*
X110809906Y-136761584D01*
X110810093Y-136547953D01*
X110728512Y-136350512D01*
X110577583Y-136199319D01*
X110380284Y-136117394D01*
X110166653Y-136117207D01*
X109969212Y-136198788D01*
X109818019Y-136349717D01*
X109736094Y-136547016D01*
X109735907Y-136760647D01*
X109485207Y-136760647D01*
X109485313Y-136639633D01*
X109403732Y-136442192D01*
X109252803Y-136290999D01*
X109055504Y-136209074D01*
X108841873Y-136208887D01*
X108644432Y-136290468D01*
X108493239Y-136441397D01*
X108411314Y-136638696D01*
X108411127Y-136852327D01*
X85138000Y-136852327D01*
X85138000Y-135742347D01*
X89569407Y-135742347D01*
X89650988Y-135939788D01*
X89801917Y-136090981D01*
X89999216Y-136172906D01*
X90212847Y-136173093D01*
X90272736Y-136148347D01*
X102853907Y-136148347D01*
X102935488Y-136345788D01*
X103086417Y-136496981D01*
X103283716Y-136578906D01*
X103497347Y-136579093D01*
X103694788Y-136497512D01*
X103845981Y-136346583D01*
X103927906Y-136149284D01*
X103928093Y-135935653D01*
X103846512Y-135738212D01*
X103825285Y-135716947D01*
X122576707Y-135716947D01*
X122658288Y-135914388D01*
X122809217Y-136065581D01*
X123006516Y-136147506D01*
X123020036Y-136147518D01*
X123019907Y-136294347D01*
X123101488Y-136491788D01*
X123252417Y-136642981D01*
X123449716Y-136724906D01*
X123663347Y-136725093D01*
X123860788Y-136643512D01*
X124011981Y-136492583D01*
X124093906Y-136295284D01*
X124094093Y-136081653D01*
X124012512Y-135884212D01*
X123861583Y-135733019D01*
X123664284Y-135651094D01*
X123650764Y-135651082D01*
X123650893Y-135504253D01*
X123569312Y-135306812D01*
X123418383Y-135155619D01*
X123221084Y-135073694D01*
X123007453Y-135073507D01*
X122810012Y-135155088D01*
X122658819Y-135306017D01*
X122576894Y-135503316D01*
X122576707Y-135716947D01*
X103825285Y-135716947D01*
X103695583Y-135587019D01*
X103498284Y-135505094D01*
X103284653Y-135504907D01*
X103087212Y-135586488D01*
X102936019Y-135737417D01*
X102854094Y-135934716D01*
X102853907Y-136148347D01*
X90272736Y-136148347D01*
X90410288Y-136091512D01*
X90561481Y-135940583D01*
X90643406Y-135743284D01*
X90643593Y-135529653D01*
X90562012Y-135332212D01*
X90411083Y-135181019D01*
X90213784Y-135099094D01*
X90000153Y-135098907D01*
X89802712Y-135180488D01*
X89651519Y-135331417D01*
X89569594Y-135528716D01*
X89569407Y-135742347D01*
X85138000Y-135742347D01*
X85138000Y-133189347D01*
X102840907Y-133189347D01*
X102922488Y-133386788D01*
X103073417Y-133537981D01*
X103270716Y-133619906D01*
X103484347Y-133620093D01*
X103634751Y-133557947D01*
X120811407Y-133557947D01*
X120892988Y-133755388D01*
X121043917Y-133906581D01*
X121241216Y-133988506D01*
X121454847Y-133988693D01*
X121652288Y-133907112D01*
X121803481Y-133756183D01*
X121885406Y-133558884D01*
X121885593Y-133345253D01*
X121804012Y-133147812D01*
X121653083Y-132996619D01*
X121455784Y-132914694D01*
X121242153Y-132914507D01*
X121044712Y-132996088D01*
X120893519Y-133147017D01*
X120811594Y-133344316D01*
X120811407Y-133557947D01*
X103634751Y-133557947D01*
X103681788Y-133538512D01*
X103832981Y-133387583D01*
X103914906Y-133190284D01*
X103915093Y-132976653D01*
X103833512Y-132779212D01*
X103812185Y-132757847D01*
X119998607Y-132757847D01*
X120080188Y-132955288D01*
X120231117Y-133106481D01*
X120428416Y-133188406D01*
X120642047Y-133188593D01*
X120839488Y-133107012D01*
X120990681Y-132956083D01*
X121072606Y-132758784D01*
X121072793Y-132545153D01*
X120991212Y-132347712D01*
X120840283Y-132196519D01*
X120642984Y-132114594D01*
X120429353Y-132114407D01*
X120231912Y-132195988D01*
X120080719Y-132346917D01*
X119998794Y-132544216D01*
X119998607Y-132757847D01*
X103812185Y-132757847D01*
X103682583Y-132628019D01*
X103485284Y-132546094D01*
X103271653Y-132545907D01*
X103074212Y-132627488D01*
X102923019Y-132778417D01*
X102841094Y-132975716D01*
X102840907Y-133189347D01*
X85138000Y-133189347D01*
X85138000Y-131437347D01*
X102281907Y-131437347D01*
X102363488Y-131634788D01*
X102514417Y-131785981D01*
X102711716Y-131867906D01*
X102925347Y-131868093D01*
X103122788Y-131786512D01*
X103273981Y-131635583D01*
X103355906Y-131438284D01*
X103356017Y-131310347D01*
X109190907Y-131310347D01*
X109272488Y-131507788D01*
X109423417Y-131658981D01*
X109620716Y-131740906D01*
X109834347Y-131741093D01*
X110031788Y-131659512D01*
X110182981Y-131508583D01*
X110217958Y-131424347D01*
X111242988Y-131424347D01*
X111324569Y-131621788D01*
X111475498Y-131772981D01*
X111672797Y-131854906D01*
X111886428Y-131855093D01*
X112083869Y-131773512D01*
X112235062Y-131622583D01*
X112316987Y-131425284D01*
X112317174Y-131211653D01*
X112235593Y-131014212D01*
X112084664Y-130863019D01*
X111887365Y-130781094D01*
X111673734Y-130780907D01*
X111476293Y-130862488D01*
X111325100Y-131013417D01*
X111243175Y-131210716D01*
X111242988Y-131424347D01*
X110217958Y-131424347D01*
X110264906Y-131311284D01*
X110265093Y-131097653D01*
X110183512Y-130900212D01*
X110032583Y-130749019D01*
X109835284Y-130667094D01*
X109621653Y-130666907D01*
X109424212Y-130748488D01*
X109273019Y-130899417D01*
X109191094Y-131096716D01*
X109190907Y-131310347D01*
X103356017Y-131310347D01*
X103356093Y-131224653D01*
X103274512Y-131027212D01*
X103123583Y-130876019D01*
X102926284Y-130794094D01*
X102712653Y-130793907D01*
X102515212Y-130875488D01*
X102364019Y-131026417D01*
X102282094Y-131223716D01*
X102281907Y-131437347D01*
X85138000Y-131437347D01*
X85138000Y-130214347D01*
X117422907Y-130214347D01*
X117504488Y-130411788D01*
X117655417Y-130562981D01*
X117852716Y-130644906D01*
X118066347Y-130645093D01*
X118263788Y-130563512D01*
X118414981Y-130412583D01*
X118493142Y-130224347D01*
X121196887Y-130224347D01*
X121278468Y-130421788D01*
X121429397Y-130572981D01*
X121626696Y-130654906D01*
X121840327Y-130655093D01*
X122037768Y-130573512D01*
X122188961Y-130422583D01*
X122270886Y-130225284D01*
X122271073Y-130011653D01*
X122189492Y-129814212D01*
X122038563Y-129663019D01*
X121841264Y-129581094D01*
X121627633Y-129580907D01*
X121430192Y-129662488D01*
X121278999Y-129813417D01*
X121197074Y-130010716D01*
X121196887Y-130224347D01*
X118493142Y-130224347D01*
X118496906Y-130215284D01*
X118497010Y-130096010D01*
X118591347Y-130096093D01*
X118788788Y-130014512D01*
X118939981Y-129863583D01*
X119021906Y-129666284D01*
X119022093Y-129452653D01*
X118940512Y-129255212D01*
X118789583Y-129104019D01*
X118592284Y-129022094D01*
X118378653Y-129021907D01*
X118181212Y-129103488D01*
X118030019Y-129254417D01*
X117948094Y-129451716D01*
X117947990Y-129570990D01*
X117853653Y-129570907D01*
X117656212Y-129652488D01*
X117505019Y-129803417D01*
X117423094Y-130000716D01*
X117422907Y-130214347D01*
X85138000Y-130214347D01*
X85138000Y-128064000D01*
X92964000Y-128064000D01*
X93079570Y-128041012D01*
X93177546Y-127975546D01*
X93243012Y-127877570D01*
X93266000Y-127762000D01*
X93266000Y-125158000D01*
X94635838Y-125158000D01*
X94719616Y-125579181D01*
X94958196Y-125936242D01*
X95315257Y-126174822D01*
X95736438Y-126258600D01*
X95779562Y-126258600D01*
X96200743Y-126174822D01*
X96557804Y-125936242D01*
X96796384Y-125579181D01*
X96880162Y-125158000D01*
X97175838Y-125158000D01*
X97259616Y-125579181D01*
X97498196Y-125936242D01*
X97855257Y-126174822D01*
X98276438Y-126258600D01*
X98319562Y-126258600D01*
X98740743Y-126174822D01*
X99097804Y-125936242D01*
X99336384Y-125579181D01*
X99420162Y-125158000D01*
X99715838Y-125158000D01*
X99799616Y-125579181D01*
X100038196Y-125936242D01*
X100395257Y-126174822D01*
X100816438Y-126258600D01*
X100859562Y-126258600D01*
X101280743Y-126174822D01*
X101637804Y-125936242D01*
X101876384Y-125579181D01*
X101960162Y-125158000D01*
X102255838Y-125158000D01*
X102339616Y-125579181D01*
X102578196Y-125936242D01*
X102935257Y-126174822D01*
X103356438Y-126258600D01*
X103399562Y-126258600D01*
X103820743Y-126174822D01*
X104177804Y-125936242D01*
X104416384Y-125579181D01*
X104500162Y-125158000D01*
X104795838Y-125158000D01*
X104879616Y-125579181D01*
X105118196Y-125936242D01*
X105475257Y-126174822D01*
X105896438Y-126258600D01*
X105939562Y-126258600D01*
X106360743Y-126174822D01*
X106717804Y-125936242D01*
X106956384Y-125579181D01*
X107040162Y-125158000D01*
X107335838Y-125158000D01*
X107419616Y-125579181D01*
X107658196Y-125936242D01*
X108015257Y-126174822D01*
X108436438Y-126258600D01*
X108479562Y-126258600D01*
X108900743Y-126174822D01*
X109257804Y-125936242D01*
X109496384Y-125579181D01*
X109580162Y-125158000D01*
X109875838Y-125158000D01*
X109959616Y-125579181D01*
X110198196Y-125936242D01*
X110555257Y-126174822D01*
X110976438Y-126258600D01*
X111019562Y-126258600D01*
X111440743Y-126174822D01*
X111797804Y-125936242D01*
X112036384Y-125579181D01*
X112120162Y-125158000D01*
X112036384Y-124736819D01*
X111797804Y-124379758D01*
X111440743Y-124141178D01*
X111019562Y-124057400D01*
X110976438Y-124057400D01*
X110555257Y-124141178D01*
X110198196Y-124379758D01*
X109959616Y-124736819D01*
X109875838Y-125158000D01*
X109580162Y-125158000D01*
X109496384Y-124736819D01*
X109257804Y-124379758D01*
X108900743Y-124141178D01*
X108479562Y-124057400D01*
X108436438Y-124057400D01*
X108015257Y-124141178D01*
X107658196Y-124379758D01*
X107419616Y-124736819D01*
X107335838Y-125158000D01*
X107040162Y-125158000D01*
X106956384Y-124736819D01*
X106717804Y-124379758D01*
X106360743Y-124141178D01*
X105939562Y-124057400D01*
X105896438Y-124057400D01*
X105475257Y-124141178D01*
X105118196Y-124379758D01*
X104879616Y-124736819D01*
X104795838Y-125158000D01*
X104500162Y-125158000D01*
X104416384Y-124736819D01*
X104177804Y-124379758D01*
X103820743Y-124141178D01*
X103399562Y-124057400D01*
X103356438Y-124057400D01*
X102935257Y-124141178D01*
X102578196Y-124379758D01*
X102339616Y-124736819D01*
X102255838Y-125158000D01*
X101960162Y-125158000D01*
X101876384Y-124736819D01*
X101637804Y-124379758D01*
X101280743Y-124141178D01*
X100859562Y-124057400D01*
X100816438Y-124057400D01*
X100395257Y-124141178D01*
X100038196Y-124379758D01*
X99799616Y-124736819D01*
X99715838Y-125158000D01*
X99420162Y-125158000D01*
X99336384Y-124736819D01*
X99097804Y-124379758D01*
X98740743Y-124141178D01*
X98319562Y-124057400D01*
X98276438Y-124057400D01*
X97855257Y-124141178D01*
X97498196Y-124379758D01*
X97259616Y-124736819D01*
X97175838Y-125158000D01*
X96880162Y-125158000D01*
X96796384Y-124736819D01*
X96557804Y-124379758D01*
X96200743Y-124141178D01*
X95779562Y-124057400D01*
X95736438Y-124057400D01*
X95315257Y-124141178D01*
X94958196Y-124379758D01*
X94719616Y-124736819D01*
X94635838Y-125158000D01*
X93266000Y-125158000D01*
X93266000Y-121754400D01*
X94652757Y-121754400D01*
X94652757Y-123481600D01*
X94669283Y-123569427D01*
X94721188Y-123650091D01*
X94800387Y-123704205D01*
X94894400Y-123723243D01*
X96621600Y-123723243D01*
X96709427Y-123706717D01*
X96790091Y-123654812D01*
X96844205Y-123575613D01*
X96863243Y-123481600D01*
X96863243Y-122618000D01*
X97175838Y-122618000D01*
X97259616Y-123039181D01*
X97498196Y-123396242D01*
X97855257Y-123634822D01*
X98276438Y-123718600D01*
X98319562Y-123718600D01*
X98740743Y-123634822D01*
X99097804Y-123396242D01*
X99336384Y-123039181D01*
X99420162Y-122618000D01*
X99715838Y-122618000D01*
X99799616Y-123039181D01*
X100038196Y-123396242D01*
X100395257Y-123634822D01*
X100816438Y-123718600D01*
X100859562Y-123718600D01*
X101280743Y-123634822D01*
X101637804Y-123396242D01*
X101876384Y-123039181D01*
X101960162Y-122618000D01*
X102255838Y-122618000D01*
X102339616Y-123039181D01*
X102578196Y-123396242D01*
X102935257Y-123634822D01*
X103356438Y-123718600D01*
X103399562Y-123718600D01*
X103820743Y-123634822D01*
X104177804Y-123396242D01*
X104416384Y-123039181D01*
X104500162Y-122618000D01*
X104795838Y-122618000D01*
X104879616Y-123039181D01*
X105118196Y-123396242D01*
X105475257Y-123634822D01*
X105896438Y-123718600D01*
X105939562Y-123718600D01*
X106360743Y-123634822D01*
X106717804Y-123396242D01*
X106956384Y-123039181D01*
X107040162Y-122618000D01*
X107335838Y-122618000D01*
X107419616Y-123039181D01*
X107658196Y-123396242D01*
X108015257Y-123634822D01*
X108436438Y-123718600D01*
X108479562Y-123718600D01*
X108900743Y-123634822D01*
X109257804Y-123396242D01*
X109496384Y-123039181D01*
X109580162Y-122618000D01*
X109875838Y-122618000D01*
X109959616Y-123039181D01*
X110198196Y-123396242D01*
X110555257Y-123634822D01*
X110976438Y-123718600D01*
X111019562Y-123718600D01*
X111440743Y-123634822D01*
X111797804Y-123396242D01*
X112036384Y-123039181D01*
X112094900Y-122745002D01*
X112204182Y-122745002D01*
X112083042Y-122977026D01*
X112255312Y-123392947D01*
X112649510Y-123824821D01*
X113178973Y-124072968D01*
X113410998Y-123952470D01*
X113410998Y-124078373D01*
X113095257Y-124141178D01*
X112738196Y-124379758D01*
X112499616Y-124736819D01*
X112415838Y-125158000D01*
X112499616Y-125579181D01*
X112738196Y-125936242D01*
X113095257Y-126174822D01*
X113516438Y-126258600D01*
X113559562Y-126258600D01*
X113980743Y-126174822D01*
X114337804Y-125936242D01*
X114576384Y-125579181D01*
X114660162Y-125158000D01*
X114576384Y-124736819D01*
X114337804Y-124379758D01*
X113980743Y-124141178D01*
X113665002Y-124078373D01*
X113665002Y-123952470D01*
X113897027Y-124072968D01*
X114426490Y-123824821D01*
X114820688Y-123392947D01*
X114992958Y-122977026D01*
X114871817Y-122745000D01*
X113665000Y-122745000D01*
X113665000Y-122765000D01*
X113411000Y-122765000D01*
X113411000Y-122745000D01*
X113391000Y-122745000D01*
X113391000Y-122491000D01*
X113411000Y-122491000D01*
X113411000Y-121283531D01*
X113665000Y-121283531D01*
X113665000Y-122491000D01*
X114871817Y-122491000D01*
X114992958Y-122258974D01*
X114820688Y-121843053D01*
X114426490Y-121411179D01*
X113897027Y-121163032D01*
X113665000Y-121283531D01*
X113411000Y-121283531D01*
X113178973Y-121163032D01*
X112649510Y-121411179D01*
X112255312Y-121843053D01*
X112083042Y-122258974D01*
X112204182Y-122490998D01*
X112094900Y-122490998D01*
X112036384Y-122196819D01*
X111797804Y-121839758D01*
X111440743Y-121601178D01*
X111019562Y-121517400D01*
X110976438Y-121517400D01*
X110555257Y-121601178D01*
X110198196Y-121839758D01*
X109959616Y-122196819D01*
X109875838Y-122618000D01*
X109580162Y-122618000D01*
X109496384Y-122196819D01*
X109257804Y-121839758D01*
X108900743Y-121601178D01*
X108479562Y-121517400D01*
X108436438Y-121517400D01*
X108015257Y-121601178D01*
X107658196Y-121839758D01*
X107419616Y-122196819D01*
X107335838Y-122618000D01*
X107040162Y-122618000D01*
X106956384Y-122196819D01*
X106717804Y-121839758D01*
X106360743Y-121601178D01*
X105939562Y-121517400D01*
X105896438Y-121517400D01*
X105475257Y-121601178D01*
X105118196Y-121839758D01*
X104879616Y-122196819D01*
X104795838Y-122618000D01*
X104500162Y-122618000D01*
X104416384Y-122196819D01*
X104177804Y-121839758D01*
X103820743Y-121601178D01*
X103399562Y-121517400D01*
X103356438Y-121517400D01*
X102935257Y-121601178D01*
X102578196Y-121839758D01*
X102339616Y-122196819D01*
X102255838Y-122618000D01*
X101960162Y-122618000D01*
X101876384Y-122196819D01*
X101637804Y-121839758D01*
X101280743Y-121601178D01*
X100859562Y-121517400D01*
X100816438Y-121517400D01*
X100395257Y-121601178D01*
X100038196Y-121839758D01*
X99799616Y-122196819D01*
X99715838Y-122618000D01*
X99420162Y-122618000D01*
X99336384Y-122196819D01*
X99097804Y-121839758D01*
X98740743Y-121601178D01*
X98319562Y-121517400D01*
X98276438Y-121517400D01*
X97855257Y-121601178D01*
X97498196Y-121839758D01*
X97259616Y-122196819D01*
X97175838Y-122618000D01*
X96863243Y-122618000D01*
X96863243Y-121754400D01*
X96846717Y-121666573D01*
X96794812Y-121585909D01*
X96715613Y-121531795D01*
X96621600Y-121512757D01*
X94894400Y-121512757D01*
X94806573Y-121529283D01*
X94725909Y-121581188D01*
X94671795Y-121660387D01*
X94652757Y-121754400D01*
X93266000Y-121754400D01*
X93266000Y-120444000D01*
X115268000Y-120444000D01*
X115268000Y-127508000D01*
X115268000Y-127508000D01*
G37*
X115268000Y-127508000D02*
X115290988Y-127623570D01*
X115356454Y-127721546D01*
X115454430Y-127787012D01*
X115570000Y-127810000D01*
X124920000Y-127810000D01*
X124920000Y-154384000D01*
X116078000Y-154384000D01*
X115962430Y-154406988D01*
X115864454Y-154472454D01*
X115798988Y-154570430D01*
X115776000Y-154686000D01*
X115776000Y-161750000D01*
X94028000Y-161750000D01*
X94028000Y-160569026D01*
X94366542Y-160569026D01*
X94538812Y-160984947D01*
X94933010Y-161416821D01*
X95462473Y-161664968D01*
X95694500Y-161544469D01*
X95694500Y-160337000D01*
X94487683Y-160337000D01*
X94366542Y-160569026D01*
X94028000Y-160569026D01*
X94028000Y-159850974D01*
X94366542Y-159850974D01*
X94487683Y-160083000D01*
X95694500Y-160083000D01*
X95694500Y-160063000D01*
X95948500Y-160063000D01*
X95948500Y-160083000D01*
X95968500Y-160083000D01*
X95968500Y-160337000D01*
X95948500Y-160337000D01*
X95948500Y-161544469D01*
X96180527Y-161664968D01*
X96709990Y-161416821D01*
X97104188Y-160984947D01*
X97276458Y-160569026D01*
X97155318Y-160337002D01*
X97264600Y-160337002D01*
X97323116Y-160631181D01*
X97561696Y-160988242D01*
X97918757Y-161226822D01*
X98339938Y-161310600D01*
X98383062Y-161310600D01*
X98804243Y-161226822D01*
X99161304Y-160988242D01*
X99399884Y-160631181D01*
X99483662Y-160210000D01*
X99779338Y-160210000D01*
X99863116Y-160631181D01*
X100101696Y-160988242D01*
X100458757Y-161226822D01*
X100879938Y-161310600D01*
X100923062Y-161310600D01*
X101344243Y-161226822D01*
X101701304Y-160988242D01*
X101939884Y-160631181D01*
X102023662Y-160210000D01*
X102319338Y-160210000D01*
X102403116Y-160631181D01*
X102641696Y-160988242D01*
X102998757Y-161226822D01*
X103419938Y-161310600D01*
X103463062Y-161310600D01*
X103884243Y-161226822D01*
X104241304Y-160988242D01*
X104479884Y-160631181D01*
X104563662Y-160210000D01*
X104859338Y-160210000D01*
X104943116Y-160631181D01*
X105181696Y-160988242D01*
X105538757Y-161226822D01*
X105959938Y-161310600D01*
X106003062Y-161310600D01*
X106424243Y-161226822D01*
X106781304Y-160988242D01*
X107019884Y-160631181D01*
X107103662Y-160210000D01*
X107399338Y-160210000D01*
X107483116Y-160631181D01*
X107721696Y-160988242D01*
X108078757Y-161226822D01*
X108499938Y-161310600D01*
X108543062Y-161310600D01*
X108964243Y-161226822D01*
X109321304Y-160988242D01*
X109559884Y-160631181D01*
X109643662Y-160210000D01*
X109939338Y-160210000D01*
X110023116Y-160631181D01*
X110261696Y-160988242D01*
X110618757Y-161226822D01*
X111039938Y-161310600D01*
X111083062Y-161310600D01*
X111504243Y-161226822D01*
X111861304Y-160988242D01*
X112099884Y-160631181D01*
X112183662Y-160210000D01*
X112479338Y-160210000D01*
X112563116Y-160631181D01*
X112801696Y-160988242D01*
X113158757Y-161226822D01*
X113579938Y-161310600D01*
X113623062Y-161310600D01*
X114044243Y-161226822D01*
X114401304Y-160988242D01*
X114639884Y-160631181D01*
X114723662Y-160210000D01*
X114639884Y-159788819D01*
X114401304Y-159431758D01*
X114044243Y-159193178D01*
X113623062Y-159109400D01*
X113579938Y-159109400D01*
X113158757Y-159193178D01*
X112801696Y-159431758D01*
X112563116Y-159788819D01*
X112479338Y-160210000D01*
X112183662Y-160210000D01*
X112099884Y-159788819D01*
X111861304Y-159431758D01*
X111504243Y-159193178D01*
X111083062Y-159109400D01*
X111039938Y-159109400D01*
X110618757Y-159193178D01*
X110261696Y-159431758D01*
X110023116Y-159788819D01*
X109939338Y-160210000D01*
X109643662Y-160210000D01*
X109559884Y-159788819D01*
X109321304Y-159431758D01*
X108964243Y-159193178D01*
X108543062Y-159109400D01*
X108499938Y-159109400D01*
X108078757Y-159193178D01*
X107721696Y-159431758D01*
X107483116Y-159788819D01*
X107399338Y-160210000D01*
X107103662Y-160210000D01*
X107019884Y-159788819D01*
X106781304Y-159431758D01*
X106424243Y-159193178D01*
X106003062Y-159109400D01*
X105959938Y-159109400D01*
X105538757Y-159193178D01*
X105181696Y-159431758D01*
X104943116Y-159788819D01*
X104859338Y-160210000D01*
X104563662Y-160210000D01*
X104479884Y-159788819D01*
X104241304Y-159431758D01*
X103884243Y-159193178D01*
X103463062Y-159109400D01*
X103419938Y-159109400D01*
X102998757Y-159193178D01*
X102641696Y-159431758D01*
X102403116Y-159788819D01*
X102319338Y-160210000D01*
X102023662Y-160210000D01*
X101939884Y-159788819D01*
X101701304Y-159431758D01*
X101344243Y-159193178D01*
X100923062Y-159109400D01*
X100879938Y-159109400D01*
X100458757Y-159193178D01*
X100101696Y-159431758D01*
X99863116Y-159788819D01*
X99779338Y-160210000D01*
X99483662Y-160210000D01*
X99399884Y-159788819D01*
X99161304Y-159431758D01*
X98804243Y-159193178D01*
X98383062Y-159109400D01*
X98339938Y-159109400D01*
X97918757Y-159193178D01*
X97561696Y-159431758D01*
X97323116Y-159788819D01*
X97264600Y-160082998D01*
X97155318Y-160082998D01*
X97276458Y-159850974D01*
X97104188Y-159435053D01*
X96709990Y-159003179D01*
X96223651Y-158775243D01*
X96685100Y-158775243D01*
X96772927Y-158758717D01*
X96853591Y-158706812D01*
X96907705Y-158627613D01*
X96926743Y-158533600D01*
X96926743Y-157670000D01*
X97239338Y-157670000D01*
X97323116Y-158091181D01*
X97561696Y-158448242D01*
X97918757Y-158686822D01*
X98339938Y-158770600D01*
X98383062Y-158770600D01*
X98804243Y-158686822D01*
X99161304Y-158448242D01*
X99399884Y-158091181D01*
X99483662Y-157670000D01*
X99779338Y-157670000D01*
X99863116Y-158091181D01*
X100101696Y-158448242D01*
X100458757Y-158686822D01*
X100879938Y-158770600D01*
X100923062Y-158770600D01*
X101344243Y-158686822D01*
X101701304Y-158448242D01*
X101939884Y-158091181D01*
X102023662Y-157670000D01*
X102319338Y-157670000D01*
X102403116Y-158091181D01*
X102641696Y-158448242D01*
X102998757Y-158686822D01*
X103419938Y-158770600D01*
X103463062Y-158770600D01*
X103884243Y-158686822D01*
X104241304Y-158448242D01*
X104479884Y-158091181D01*
X104563662Y-157670000D01*
X104859338Y-157670000D01*
X104943116Y-158091181D01*
X105181696Y-158448242D01*
X105538757Y-158686822D01*
X105959938Y-158770600D01*
X106003062Y-158770600D01*
X106424243Y-158686822D01*
X106781304Y-158448242D01*
X107019884Y-158091181D01*
X107103662Y-157670000D01*
X107399338Y-157670000D01*
X107483116Y-158091181D01*
X107721696Y-158448242D01*
X108078757Y-158686822D01*
X108499938Y-158770600D01*
X108543062Y-158770600D01*
X108964243Y-158686822D01*
X109321304Y-158448242D01*
X109559884Y-158091181D01*
X109643662Y-157670000D01*
X109939338Y-157670000D01*
X110023116Y-158091181D01*
X110261696Y-158448242D01*
X110618757Y-158686822D01*
X111039938Y-158770600D01*
X111083062Y-158770600D01*
X111504243Y-158686822D01*
X111861304Y-158448242D01*
X112099884Y-158091181D01*
X112183662Y-157670000D01*
X112479338Y-157670000D01*
X112563116Y-158091181D01*
X112801696Y-158448242D01*
X113158757Y-158686822D01*
X113579938Y-158770600D01*
X113623062Y-158770600D01*
X114044243Y-158686822D01*
X114401304Y-158448242D01*
X114639884Y-158091181D01*
X114723662Y-157670000D01*
X114639884Y-157248819D01*
X114401304Y-156891758D01*
X114044243Y-156653178D01*
X113623062Y-156569400D01*
X113579938Y-156569400D01*
X113158757Y-156653178D01*
X112801696Y-156891758D01*
X112563116Y-157248819D01*
X112479338Y-157670000D01*
X112183662Y-157670000D01*
X112099884Y-157248819D01*
X111861304Y-156891758D01*
X111504243Y-156653178D01*
X111083062Y-156569400D01*
X111039938Y-156569400D01*
X110618757Y-156653178D01*
X110261696Y-156891758D01*
X110023116Y-157248819D01*
X109939338Y-157670000D01*
X109643662Y-157670000D01*
X109559884Y-157248819D01*
X109321304Y-156891758D01*
X108964243Y-156653178D01*
X108543062Y-156569400D01*
X108499938Y-156569400D01*
X108078757Y-156653178D01*
X107721696Y-156891758D01*
X107483116Y-157248819D01*
X107399338Y-157670000D01*
X107103662Y-157670000D01*
X107019884Y-157248819D01*
X106781304Y-156891758D01*
X106424243Y-156653178D01*
X106003062Y-156569400D01*
X105959938Y-156569400D01*
X105538757Y-156653178D01*
X105181696Y-156891758D01*
X104943116Y-157248819D01*
X104859338Y-157670000D01*
X104563662Y-157670000D01*
X104479884Y-157248819D01*
X104241304Y-156891758D01*
X103884243Y-156653178D01*
X103463062Y-156569400D01*
X103419938Y-156569400D01*
X102998757Y-156653178D01*
X102641696Y-156891758D01*
X102403116Y-157248819D01*
X102319338Y-157670000D01*
X102023662Y-157670000D01*
X101939884Y-157248819D01*
X101701304Y-156891758D01*
X101344243Y-156653178D01*
X100923062Y-156569400D01*
X100879938Y-156569400D01*
X100458757Y-156653178D01*
X100101696Y-156891758D01*
X99863116Y-157248819D01*
X99779338Y-157670000D01*
X99483662Y-157670000D01*
X99399884Y-157248819D01*
X99161304Y-156891758D01*
X98804243Y-156653178D01*
X98383062Y-156569400D01*
X98339938Y-156569400D01*
X97918757Y-156653178D01*
X97561696Y-156891758D01*
X97323116Y-157248819D01*
X97239338Y-157670000D01*
X96926743Y-157670000D01*
X96926743Y-156806400D01*
X96910217Y-156718573D01*
X96858312Y-156637909D01*
X96779113Y-156583795D01*
X96685100Y-156564757D01*
X94957900Y-156564757D01*
X94870073Y-156581283D01*
X94789409Y-156633188D01*
X94735295Y-156712387D01*
X94716257Y-156806400D01*
X94716257Y-158533600D01*
X94732783Y-158621427D01*
X94784688Y-158702091D01*
X94863887Y-158756205D01*
X94957900Y-158775243D01*
X95419349Y-158775243D01*
X94933010Y-159003179D01*
X94538812Y-159435053D01*
X94366542Y-159850974D01*
X94028000Y-159850974D01*
X94028000Y-154940000D01*
X94005012Y-154824430D01*
X93939546Y-154726454D01*
X93841570Y-154660988D01*
X93726000Y-154638000D01*
X85138000Y-154638000D01*
X85138000Y-153954147D01*
X102383707Y-153954147D01*
X102465288Y-154151588D01*
X102616217Y-154302781D01*
X102813516Y-154384706D01*
X103027147Y-154384893D01*
X103224588Y-154303312D01*
X103375781Y-154152383D01*
X103457706Y-153955084D01*
X103457773Y-153877947D01*
X105863507Y-153877947D01*
X105945088Y-154075388D01*
X106096017Y-154226581D01*
X106293316Y-154308506D01*
X106506947Y-154308693D01*
X106704388Y-154227112D01*
X106855581Y-154076183D01*
X106937506Y-153878884D01*
X106937506Y-153878347D01*
X116175907Y-153878347D01*
X116257488Y-154075788D01*
X116408417Y-154226981D01*
X116605716Y-154308906D01*
X116819347Y-154309093D01*
X117016788Y-154227512D01*
X117167981Y-154076583D01*
X117249906Y-153879284D01*
X117250093Y-153665653D01*
X117233026Y-153624347D01*
X123058907Y-153624347D01*
X123140488Y-153821788D01*
X123291417Y-153972981D01*
X123488716Y-154054906D01*
X123702347Y-154055093D01*
X123899788Y-153973512D01*
X124050981Y-153822583D01*
X124132906Y-153625284D01*
X124133093Y-153411653D01*
X124051512Y-153214212D01*
X123900583Y-153063019D01*
X123703284Y-152981094D01*
X123489653Y-152980907D01*
X123292212Y-153062488D01*
X123141019Y-153213417D01*
X123059094Y-153410716D01*
X123058907Y-153624347D01*
X117233026Y-153624347D01*
X117168512Y-153468212D01*
X117017583Y-153317019D01*
X116820284Y-153235094D01*
X116606653Y-153234907D01*
X116409212Y-153316488D01*
X116258019Y-153467417D01*
X116176094Y-153664716D01*
X116175907Y-153878347D01*
X106937506Y-153878347D01*
X106937693Y-153665253D01*
X106856112Y-153467812D01*
X106705183Y-153316619D01*
X106507884Y-153234694D01*
X106294253Y-153234507D01*
X106096812Y-153316088D01*
X105945619Y-153467017D01*
X105863694Y-153664316D01*
X105863507Y-153877947D01*
X103457773Y-153877947D01*
X103457893Y-153741453D01*
X103376312Y-153544012D01*
X103225383Y-153392819D01*
X103028084Y-153310894D01*
X102814453Y-153310707D01*
X102617012Y-153392288D01*
X102465819Y-153543217D01*
X102383894Y-153740516D01*
X102383707Y-153954147D01*
X85138000Y-153954147D01*
X85138000Y-152747347D01*
X92211007Y-152747347D01*
X92292588Y-152944788D01*
X92443517Y-153095981D01*
X92640816Y-153177906D01*
X92854447Y-153178093D01*
X93051888Y-153096512D01*
X93203081Y-152945583D01*
X93211483Y-152925347D01*
X96783007Y-152925347D01*
X96864588Y-153122788D01*
X97015517Y-153273981D01*
X97212816Y-153355906D01*
X97426447Y-153356093D01*
X97623888Y-153274512D01*
X97775081Y-153123583D01*
X97857006Y-152926284D01*
X97857193Y-152712653D01*
X97775612Y-152515212D01*
X97760773Y-152500347D01*
X101316907Y-152500347D01*
X101398488Y-152697788D01*
X101478556Y-152777996D01*
X101412019Y-152844417D01*
X101330094Y-153041716D01*
X101329907Y-153255347D01*
X101411488Y-153452788D01*
X101562417Y-153603981D01*
X101759716Y-153685906D01*
X101973347Y-153686093D01*
X102170788Y-153604512D01*
X102321981Y-153453583D01*
X102403906Y-153256284D01*
X102404093Y-153042653D01*
X102322512Y-152845212D01*
X102242444Y-152765004D01*
X102308981Y-152698583D01*
X102390906Y-152501284D01*
X102390949Y-152451676D01*
X102569716Y-152525906D01*
X102783347Y-152526093D01*
X102980788Y-152444512D01*
X103131981Y-152293583D01*
X103187529Y-152159807D01*
X103346716Y-152225906D01*
X103560347Y-152226093D01*
X103564572Y-152224347D01*
X118309907Y-152224347D01*
X118391488Y-152421788D01*
X118542417Y-152572981D01*
X118715401Y-152644810D01*
X118695094Y-152693716D01*
X118694907Y-152907347D01*
X118776488Y-153104788D01*
X118927417Y-153255981D01*
X119124716Y-153337906D01*
X119338347Y-153338093D01*
X119535788Y-153256512D01*
X119686981Y-153105583D01*
X119768906Y-152908284D01*
X119769093Y-152694653D01*
X119687512Y-152497212D01*
X119536583Y-152346019D01*
X119363599Y-152274190D01*
X119383049Y-152227347D01*
X121877907Y-152227347D01*
X121959488Y-152424788D01*
X122110417Y-152575981D01*
X122307716Y-152657906D01*
X122521347Y-152658093D01*
X122718788Y-152576512D01*
X122869981Y-152425583D01*
X122951906Y-152228284D01*
X122952093Y-152014653D01*
X122870512Y-151817212D01*
X122719583Y-151666019D01*
X122522284Y-151584094D01*
X122308653Y-151583907D01*
X122111212Y-151665488D01*
X121960019Y-151816417D01*
X121878094Y-152013716D01*
X121877907Y-152227347D01*
X119383049Y-152227347D01*
X119383906Y-152225284D01*
X119384093Y-152011653D01*
X119302512Y-151814212D01*
X119151583Y-151663019D01*
X118954284Y-151581094D01*
X118740653Y-151580907D01*
X118543212Y-151662488D01*
X118392019Y-151813417D01*
X118310094Y-152010716D01*
X118309907Y-152224347D01*
X103564572Y-152224347D01*
X103757788Y-152144512D01*
X103908981Y-151993583D01*
X103990906Y-151796284D01*
X103991093Y-151582653D01*
X103909512Y-151385212D01*
X103758583Y-151234019D01*
X103665450Y-151195347D01*
X105528907Y-151195347D01*
X105610488Y-151392788D01*
X105761417Y-151543981D01*
X105958716Y-151625906D01*
X106172347Y-151626093D01*
X106369788Y-151544512D01*
X106520981Y-151393583D01*
X106602906Y-151196284D01*
X106603093Y-150982653D01*
X106540575Y-150831347D01*
X106701907Y-150831347D01*
X106783488Y-151028788D01*
X106934417Y-151179981D01*
X107131716Y-151261906D01*
X107345347Y-151262093D01*
X107542788Y-151180512D01*
X107693981Y-151029583D01*
X107775906Y-150832284D01*
X107776093Y-150618653D01*
X107707377Y-150452347D01*
X108077907Y-150452347D01*
X108159488Y-150649788D01*
X108310417Y-150800981D01*
X108507716Y-150882906D01*
X108721347Y-150883093D01*
X108918788Y-150801512D01*
X108926116Y-150794196D01*
X109511433Y-150794196D01*
X109593014Y-150991637D01*
X109743943Y-151142830D01*
X109848762Y-151186354D01*
X109800694Y-151302116D01*
X109800507Y-151515747D01*
X109882088Y-151713188D01*
X110033017Y-151864381D01*
X110230316Y-151946306D01*
X110443947Y-151946493D01*
X110641388Y-151864912D01*
X110792581Y-151713983D01*
X110874506Y-151516684D01*
X110874693Y-151303053D01*
X110793112Y-151105612D01*
X110642183Y-150954419D01*
X110537364Y-150910895D01*
X110585432Y-150795133D01*
X110585619Y-150581502D01*
X110504038Y-150384061D01*
X110353109Y-150232868D01*
X110155810Y-150150943D01*
X109942179Y-150150756D01*
X109744738Y-150232337D01*
X109593545Y-150383266D01*
X109511620Y-150580565D01*
X109511433Y-150794196D01*
X108926116Y-150794196D01*
X109069981Y-150650583D01*
X109151906Y-150453284D01*
X109152093Y-150239653D01*
X109070512Y-150042212D01*
X108919583Y-149891019D01*
X108722284Y-149809094D01*
X108508653Y-149808907D01*
X108311212Y-149890488D01*
X108160019Y-150041417D01*
X108078094Y-150238716D01*
X108077907Y-150452347D01*
X107707377Y-150452347D01*
X107694512Y-150421212D01*
X107543583Y-150270019D01*
X107346284Y-150188094D01*
X107132653Y-150187907D01*
X106935212Y-150269488D01*
X106784019Y-150420417D01*
X106702094Y-150617716D01*
X106701907Y-150831347D01*
X106540575Y-150831347D01*
X106521512Y-150785212D01*
X106370583Y-150634019D01*
X106173284Y-150552094D01*
X105959653Y-150551907D01*
X105762212Y-150633488D01*
X105611019Y-150784417D01*
X105529094Y-150981716D01*
X105528907Y-151195347D01*
X103665450Y-151195347D01*
X103561284Y-151152094D01*
X103347653Y-151151907D01*
X103150212Y-151233488D01*
X102999019Y-151384417D01*
X102943471Y-151518193D01*
X102784284Y-151452094D01*
X102570653Y-151451907D01*
X102373212Y-151533488D01*
X102222019Y-151684417D01*
X102140094Y-151881716D01*
X102140051Y-151931324D01*
X101961284Y-151857094D01*
X101747653Y-151856907D01*
X101550212Y-151938488D01*
X101399019Y-152089417D01*
X101317094Y-152286716D01*
X101316907Y-152500347D01*
X97760773Y-152500347D01*
X97624683Y-152364019D01*
X97427384Y-152282094D01*
X97213753Y-152281907D01*
X97016312Y-152363488D01*
X96865119Y-152514417D01*
X96783194Y-152711716D01*
X96783007Y-152925347D01*
X93211483Y-152925347D01*
X93285006Y-152748284D01*
X93285193Y-152534653D01*
X93203612Y-152337212D01*
X93052683Y-152186019D01*
X92855384Y-152104094D01*
X92641753Y-152103907D01*
X92444312Y-152185488D01*
X92293119Y-152336417D01*
X92211194Y-152533716D01*
X92211007Y-152747347D01*
X85138000Y-152747347D01*
X85138000Y-150360347D01*
X86356307Y-150360347D01*
X86437888Y-150557788D01*
X86588817Y-150708981D01*
X86786116Y-150790906D01*
X86999747Y-150791093D01*
X87197188Y-150709512D01*
X87348381Y-150558583D01*
X87367994Y-150511347D01*
X94768207Y-150511347D01*
X94849788Y-150708788D01*
X95000717Y-150859981D01*
X95198016Y-150941906D01*
X95411647Y-150942093D01*
X95609088Y-150860512D01*
X95760281Y-150709583D01*
X95842206Y-150512284D01*
X95842289Y-150416347D01*
X96487607Y-150416347D01*
X96569188Y-150613788D01*
X96720117Y-150764981D01*
X96917416Y-150846906D01*
X97131047Y-150847093D01*
X97328488Y-150765512D01*
X97479681Y-150614583D01*
X97561606Y-150417284D01*
X97561793Y-150203653D01*
X97527372Y-150120347D01*
X99711907Y-150120347D01*
X99793488Y-150317788D01*
X99944417Y-150468981D01*
X100141716Y-150550906D01*
X100355347Y-150551093D01*
X100511571Y-150486543D01*
X100543488Y-150563788D01*
X100694417Y-150714981D01*
X100891716Y-150796906D01*
X101105347Y-150797093D01*
X101302788Y-150715512D01*
X101453981Y-150564583D01*
X101535906Y-150367284D01*
X101536093Y-150153653D01*
X101454512Y-149956212D01*
X101303583Y-149805019D01*
X101106284Y-149723094D01*
X100892653Y-149722907D01*
X100736429Y-149787457D01*
X100704512Y-149710212D01*
X100553583Y-149559019D01*
X100356284Y-149477094D01*
X100142653Y-149476907D01*
X99945212Y-149558488D01*
X99794019Y-149709417D01*
X99712094Y-149906716D01*
X99711907Y-150120347D01*
X97527372Y-150120347D01*
X97480212Y-150006212D01*
X97329283Y-149855019D01*
X97131984Y-149773094D01*
X96918353Y-149772907D01*
X96720912Y-149854488D01*
X96569719Y-150005417D01*
X96487794Y-150202716D01*
X96487607Y-150416347D01*
X95842289Y-150416347D01*
X95842393Y-150298653D01*
X95760812Y-150101212D01*
X95654381Y-149994595D01*
X95727188Y-149964512D01*
X95878381Y-149813583D01*
X95960306Y-149616284D01*
X95960493Y-149402653D01*
X95878912Y-149205212D01*
X95727983Y-149054019D01*
X95634850Y-149015347D01*
X100476907Y-149015347D01*
X100558488Y-149212788D01*
X100709417Y-149363981D01*
X100906716Y-149445906D01*
X101120347Y-149446093D01*
X101317788Y-149364512D01*
X101360026Y-149322347D01*
X101899907Y-149322347D01*
X101981488Y-149519788D01*
X102132417Y-149670981D01*
X102329716Y-149752906D01*
X102543347Y-149753093D01*
X102740788Y-149671512D01*
X102891981Y-149520583D01*
X102938026Y-149409694D01*
X102937907Y-149545347D01*
X103019488Y-149742788D01*
X103170417Y-149893981D01*
X103367716Y-149975906D01*
X103581347Y-149976093D01*
X103778788Y-149894512D01*
X103929981Y-149743583D01*
X104011906Y-149546284D01*
X104012093Y-149332653D01*
X103930512Y-149135212D01*
X103779583Y-148984019D01*
X103582284Y-148902094D01*
X103368653Y-148901907D01*
X103171212Y-148983488D01*
X103020019Y-149134417D01*
X102973974Y-149245306D01*
X102974093Y-149109653D01*
X102892512Y-148912212D01*
X102741583Y-148761019D01*
X102708176Y-148747147D01*
X105609507Y-148747147D01*
X105691088Y-148944588D01*
X105793567Y-149047247D01*
X105691619Y-149149017D01*
X105609694Y-149346316D01*
X105609507Y-149559947D01*
X105691088Y-149757388D01*
X105842017Y-149908581D01*
X106039316Y-149990506D01*
X106252947Y-149990693D01*
X106450388Y-149909112D01*
X106601581Y-149758183D01*
X106683506Y-149560884D01*
X106683517Y-149547247D01*
X108809907Y-149547247D01*
X108891488Y-149744688D01*
X109042417Y-149895881D01*
X109239716Y-149977806D01*
X109453347Y-149977993D01*
X109650788Y-149896412D01*
X109801981Y-149745483D01*
X109883906Y-149548184D01*
X109884093Y-149334553D01*
X109802512Y-149137112D01*
X109651583Y-148985919D01*
X109454284Y-148903994D01*
X109240653Y-148903807D01*
X109043212Y-148985388D01*
X108892019Y-149136317D01*
X108810094Y-149333616D01*
X108809907Y-149547247D01*
X106683517Y-149547247D01*
X106683693Y-149347253D01*
X106602112Y-149149812D01*
X106499633Y-149047153D01*
X106546733Y-149000135D01*
X106639417Y-149092981D01*
X106836716Y-149174906D01*
X107050347Y-149175093D01*
X107247788Y-149093512D01*
X107398981Y-148942583D01*
X107421086Y-148889347D01*
X107854907Y-148889347D01*
X107936488Y-149086788D01*
X108087417Y-149237981D01*
X108284716Y-149319906D01*
X108498347Y-149320093D01*
X108695788Y-149238512D01*
X108846981Y-149087583D01*
X108928906Y-148890284D01*
X108929026Y-148752227D01*
X114402987Y-148752227D01*
X114484568Y-148949668D01*
X114635497Y-149100861D01*
X114832796Y-149182786D01*
X115046427Y-149182973D01*
X115243868Y-149101392D01*
X115395061Y-148950463D01*
X115474210Y-148759847D01*
X118411107Y-148759847D01*
X118492688Y-148957288D01*
X118643617Y-149108481D01*
X118840916Y-149190406D01*
X119054547Y-149190593D01*
X119149529Y-149151347D01*
X123124907Y-149151347D01*
X123206488Y-149348788D01*
X123357417Y-149499981D01*
X123554716Y-149581906D01*
X123768347Y-149582093D01*
X123965788Y-149500512D01*
X124116981Y-149349583D01*
X124198906Y-149152284D01*
X124199093Y-148938653D01*
X124117512Y-148741212D01*
X123966583Y-148590019D01*
X123769284Y-148508094D01*
X123555653Y-148507907D01*
X123358212Y-148589488D01*
X123207019Y-148740417D01*
X123125094Y-148937716D01*
X123124907Y-149151347D01*
X119149529Y-149151347D01*
X119251988Y-149109012D01*
X119403181Y-148958083D01*
X119485106Y-148760784D01*
X119485293Y-148547153D01*
X119403712Y-148349712D01*
X119252783Y-148198519D01*
X119055484Y-148116594D01*
X118841853Y-148116407D01*
X118644412Y-148197988D01*
X118493219Y-148348917D01*
X118411294Y-148546216D01*
X118411107Y-148759847D01*
X115474210Y-148759847D01*
X115476986Y-148753164D01*
X115477173Y-148539533D01*
X115395592Y-148342092D01*
X115244663Y-148190899D01*
X115047364Y-148108974D01*
X114833733Y-148108787D01*
X114636292Y-148190368D01*
X114485099Y-148341297D01*
X114403174Y-148538596D01*
X114402987Y-148752227D01*
X108929026Y-148752227D01*
X108929093Y-148676653D01*
X108847512Y-148479212D01*
X108696583Y-148328019D01*
X108499284Y-148246094D01*
X108285653Y-148245907D01*
X108088212Y-148327488D01*
X107937019Y-148478417D01*
X107855094Y-148675716D01*
X107854907Y-148889347D01*
X107421086Y-148889347D01*
X107480906Y-148745284D01*
X107481093Y-148531653D01*
X107399512Y-148334212D01*
X107312480Y-148247028D01*
X107401681Y-148157983D01*
X107483606Y-147960684D01*
X107483613Y-147952127D01*
X111207667Y-147952127D01*
X111289248Y-148149568D01*
X111440177Y-148300761D01*
X111637476Y-148382686D01*
X111851107Y-148382873D01*
X112048548Y-148301292D01*
X112199741Y-148150363D01*
X112281666Y-147953064D01*
X112281853Y-147739433D01*
X112200272Y-147541992D01*
X112049343Y-147390799D01*
X111852044Y-147308874D01*
X111638413Y-147308687D01*
X111440972Y-147390268D01*
X111289779Y-147541197D01*
X111207854Y-147738496D01*
X111207667Y-147952127D01*
X107483613Y-147952127D01*
X107483793Y-147747053D01*
X107402212Y-147549612D01*
X107251283Y-147398419D01*
X107053984Y-147316494D01*
X106840353Y-147316307D01*
X106642912Y-147397888D01*
X106491719Y-147548817D01*
X106409794Y-147746116D01*
X106409607Y-147959747D01*
X106491188Y-148157188D01*
X106578220Y-148244372D01*
X106543867Y-148278665D01*
X106451183Y-148185819D01*
X106253884Y-148103894D01*
X106040253Y-148103707D01*
X105842812Y-148185288D01*
X105691619Y-148336217D01*
X105609694Y-148533516D01*
X105609507Y-148747147D01*
X102708176Y-148747147D01*
X102544284Y-148679094D01*
X102330653Y-148678907D01*
X102133212Y-148760488D01*
X101982019Y-148911417D01*
X101900094Y-149108716D01*
X101899907Y-149322347D01*
X101360026Y-149322347D01*
X101468981Y-149213583D01*
X101550906Y-149016284D01*
X101551093Y-148802653D01*
X101469512Y-148605212D01*
X101318583Y-148454019D01*
X101121284Y-148372094D01*
X100907653Y-148371907D01*
X100710212Y-148453488D01*
X100559019Y-148604417D01*
X100477094Y-148801716D01*
X100476907Y-149015347D01*
X95634850Y-149015347D01*
X95530684Y-148972094D01*
X95317053Y-148971907D01*
X95119612Y-149053488D01*
X94968419Y-149204417D01*
X94886494Y-149401716D01*
X94886307Y-149615347D01*
X94967888Y-149812788D01*
X95074319Y-149919405D01*
X95001512Y-149949488D01*
X94850319Y-150100417D01*
X94768394Y-150297716D01*
X94768207Y-150511347D01*
X87367994Y-150511347D01*
X87430306Y-150361284D01*
X87430493Y-150147653D01*
X87348912Y-149950212D01*
X87344881Y-149946174D01*
X87390949Y-149927139D01*
X87542142Y-149776210D01*
X87624067Y-149578911D01*
X87624254Y-149365280D01*
X87542673Y-149167839D01*
X87391744Y-149016646D01*
X87194445Y-148934721D01*
X86980814Y-148934534D01*
X86783373Y-149016115D01*
X86632180Y-149167044D01*
X86550255Y-149364343D01*
X86550068Y-149577974D01*
X86631649Y-149775415D01*
X86635680Y-149779453D01*
X86589612Y-149798488D01*
X86438419Y-149949417D01*
X86356494Y-150146716D01*
X86356307Y-150360347D01*
X85138000Y-150360347D01*
X85138000Y-148542347D01*
X87828007Y-148542347D01*
X87909588Y-148739788D01*
X88060517Y-148890981D01*
X88257816Y-148972906D01*
X88341431Y-148972979D01*
X88241819Y-149072417D01*
X88159894Y-149269716D01*
X88159707Y-149483347D01*
X88241288Y-149680788D01*
X88392217Y-149831981D01*
X88589516Y-149913906D01*
X88803147Y-149914093D01*
X89000588Y-149832512D01*
X89151781Y-149681583D01*
X89233706Y-149484284D01*
X89233728Y-149458347D01*
X90191707Y-149458347D01*
X90273288Y-149655788D01*
X90424217Y-149806981D01*
X90621516Y-149888906D01*
X90835147Y-149889093D01*
X91032588Y-149807512D01*
X91183781Y-149656583D01*
X91240350Y-149520347D01*
X92074907Y-149520347D01*
X92156488Y-149717788D01*
X92307417Y-149868981D01*
X92504716Y-149950906D01*
X92718347Y-149951093D01*
X92915788Y-149869512D01*
X93066981Y-149718583D01*
X93148906Y-149521284D01*
X93149093Y-149307653D01*
X93067512Y-149110212D01*
X92916583Y-148959019D01*
X92719284Y-148877094D01*
X92505653Y-148876907D01*
X92308212Y-148958488D01*
X92157019Y-149109417D01*
X92075094Y-149306716D01*
X92074907Y-149520347D01*
X91240350Y-149520347D01*
X91265706Y-149459284D01*
X91265893Y-149245653D01*
X91184312Y-149048212D01*
X91033383Y-148897019D01*
X90836084Y-148815094D01*
X90622453Y-148814907D01*
X90425012Y-148896488D01*
X90273819Y-149047417D01*
X90191894Y-149244716D01*
X90191707Y-149458347D01*
X89233728Y-149458347D01*
X89233893Y-149270653D01*
X89152312Y-149073212D01*
X89049787Y-148970508D01*
X89059416Y-148974506D01*
X89273047Y-148974693D01*
X89470488Y-148893112D01*
X89621681Y-148742183D01*
X89703606Y-148544884D01*
X89703793Y-148331253D01*
X89622212Y-148133812D01*
X89471283Y-147982619D01*
X89273984Y-147900694D01*
X89060353Y-147900507D01*
X88862912Y-147982088D01*
X88766663Y-148078169D01*
X88669683Y-147981019D01*
X88472384Y-147899094D01*
X88258753Y-147898907D01*
X88061312Y-147980488D01*
X87910119Y-148131417D01*
X87828194Y-148328716D01*
X87828007Y-148542347D01*
X85138000Y-148542347D01*
X85138000Y-146625347D01*
X86313307Y-146625347D01*
X86394888Y-146822788D01*
X86545817Y-146973981D01*
X86743116Y-147055906D01*
X86956747Y-147056093D01*
X87032284Y-147024882D01*
X87085588Y-147153888D01*
X87236517Y-147305081D01*
X87433816Y-147387006D01*
X87647447Y-147387193D01*
X87844888Y-147305612D01*
X87996081Y-147154683D01*
X88048863Y-147027567D01*
X89592267Y-147027567D01*
X89673848Y-147225008D01*
X89824777Y-147376201D01*
X90022076Y-147458126D01*
X90235707Y-147458313D01*
X90433148Y-147376732D01*
X90584341Y-147225803D01*
X90666266Y-147028504D01*
X90666453Y-146814873D01*
X90584872Y-146617432D01*
X90534123Y-146566594D01*
X90738627Y-146566773D01*
X90854320Y-146518969D01*
X90788794Y-146676776D01*
X90788607Y-146890407D01*
X90870188Y-147087848D01*
X91021117Y-147239041D01*
X91153530Y-147294023D01*
X91109479Y-147337997D01*
X91027554Y-147535296D01*
X91027367Y-147748927D01*
X91108948Y-147946368D01*
X91259877Y-148097561D01*
X91457176Y-148179486D01*
X91670807Y-148179673D01*
X91868248Y-148098092D01*
X92019441Y-147947163D01*
X92101366Y-147749864D01*
X92101371Y-147743847D01*
X94230307Y-147743847D01*
X94311888Y-147941288D01*
X94462817Y-148092481D01*
X94660116Y-148174406D01*
X94873747Y-148174593D01*
X95071188Y-148093012D01*
X95222381Y-147942083D01*
X95304306Y-147744784D01*
X95304493Y-147531153D01*
X95222912Y-147333712D01*
X95071983Y-147182519D01*
X94874684Y-147100594D01*
X94661053Y-147100407D01*
X94463612Y-147181988D01*
X94312419Y-147332917D01*
X94230494Y-147530216D01*
X94230307Y-147743847D01*
X92101371Y-147743847D01*
X92101553Y-147536233D01*
X92054766Y-147423000D01*
X92160647Y-147423093D01*
X92358088Y-147341512D01*
X92509281Y-147190583D01*
X92591206Y-146993284D01*
X92591393Y-146779653D01*
X92509812Y-146582212D01*
X92488984Y-146561347D01*
X92535607Y-146561347D01*
X92617188Y-146758788D01*
X92768117Y-146909981D01*
X92965416Y-146991906D01*
X93179047Y-146992093D01*
X93376488Y-146910512D01*
X93527681Y-146759583D01*
X93609606Y-146562284D01*
X93609793Y-146348653D01*
X93575372Y-146265347D01*
X94204607Y-146265347D01*
X94286188Y-146462788D01*
X94437117Y-146613981D01*
X94634416Y-146695906D01*
X94848047Y-146696093D01*
X95045488Y-146614512D01*
X95096707Y-146563383D01*
X95043294Y-146692016D01*
X95043107Y-146905647D01*
X95124688Y-147103088D01*
X95275617Y-147254281D01*
X95472916Y-147336206D01*
X95686547Y-147336393D01*
X95883988Y-147254812D01*
X96035181Y-147103883D01*
X96117106Y-146906584D01*
X96117211Y-146786267D01*
X96595047Y-146786267D01*
X96676628Y-146983708D01*
X96827557Y-147134901D01*
X97024856Y-147216826D01*
X97238487Y-147217013D01*
X97435928Y-147135432D01*
X97567323Y-147004266D01*
X97580868Y-147037048D01*
X97703874Y-147160270D01*
X97651312Y-147181988D01*
X97500119Y-147332917D01*
X97418194Y-147530216D01*
X97418007Y-147743847D01*
X97499588Y-147941288D01*
X97650517Y-148092481D01*
X97847816Y-148174406D01*
X98061447Y-148174593D01*
X98258888Y-148093012D01*
X98410081Y-147942083D01*
X98420322Y-147917421D01*
X98436588Y-147956788D01*
X98587517Y-148107981D01*
X98784816Y-148189906D01*
X98998447Y-148190093D01*
X99195888Y-148108512D01*
X99347081Y-147957583D01*
X99429006Y-147760284D01*
X99429150Y-147595347D01*
X102916907Y-147595347D01*
X102998488Y-147792788D01*
X103149417Y-147943981D01*
X103346716Y-148025906D01*
X103560347Y-148026093D01*
X103757788Y-147944512D01*
X103908981Y-147793583D01*
X103990906Y-147596284D01*
X103991093Y-147382653D01*
X103914692Y-147197747D01*
X107247807Y-147197747D01*
X107329388Y-147395188D01*
X107480317Y-147546381D01*
X107677616Y-147628306D01*
X107891247Y-147628493D01*
X108088688Y-147546912D01*
X108239881Y-147395983D01*
X108321806Y-147198684D01*
X108321993Y-146985053D01*
X108240412Y-146787612D01*
X108155296Y-146702347D01*
X122944907Y-146702347D01*
X123026488Y-146899788D01*
X123177417Y-147050981D01*
X123374716Y-147132906D01*
X123588347Y-147133093D01*
X123785788Y-147051512D01*
X123936981Y-146900583D01*
X124018906Y-146703284D01*
X124019093Y-146489653D01*
X123937512Y-146292212D01*
X123786583Y-146141019D01*
X123589284Y-146059094D01*
X123375653Y-146058907D01*
X123178212Y-146140488D01*
X123027019Y-146291417D01*
X122945094Y-146488716D01*
X122944907Y-146702347D01*
X108155296Y-146702347D01*
X108089483Y-146636419D01*
X107892184Y-146554494D01*
X107678553Y-146554307D01*
X107481112Y-146635888D01*
X107329919Y-146786817D01*
X107247994Y-146984116D01*
X107247807Y-147197747D01*
X103914692Y-147197747D01*
X103909512Y-147185212D01*
X103758583Y-147034019D01*
X103561284Y-146952094D01*
X103347653Y-146951907D01*
X103150212Y-147033488D01*
X102999019Y-147184417D01*
X102917094Y-147381716D01*
X102916907Y-147595347D01*
X99429150Y-147595347D01*
X99429193Y-147546653D01*
X99347612Y-147349212D01*
X99196683Y-147198019D01*
X99093917Y-147155347D01*
X100656907Y-147155347D01*
X100738488Y-147352788D01*
X100889417Y-147503981D01*
X101086716Y-147585906D01*
X101300347Y-147586093D01*
X101497788Y-147504512D01*
X101648981Y-147353583D01*
X101730906Y-147156284D01*
X101731093Y-146942653D01*
X101649512Y-146745212D01*
X101498583Y-146594019D01*
X101301284Y-146512094D01*
X101087653Y-146511907D01*
X100890212Y-146593488D01*
X100739019Y-146744417D01*
X100657094Y-146941716D01*
X100656907Y-147155347D01*
X99093917Y-147155347D01*
X98999384Y-147116094D01*
X98785753Y-147115907D01*
X98588312Y-147197488D01*
X98437119Y-147348417D01*
X98426878Y-147373079D01*
X98410612Y-147333712D01*
X98287606Y-147210490D01*
X98340168Y-147188772D01*
X98491361Y-147037843D01*
X98573286Y-146840544D01*
X98573473Y-146626913D01*
X98491892Y-146429472D01*
X98340963Y-146278279D01*
X98143664Y-146196354D01*
X97930033Y-146196167D01*
X97732592Y-146277748D01*
X97601197Y-146408914D01*
X97587652Y-146376132D01*
X97436723Y-146224939D01*
X97239424Y-146143014D01*
X97025793Y-146142827D01*
X96828352Y-146224408D01*
X96677159Y-146375337D01*
X96595234Y-146572636D01*
X96595047Y-146786267D01*
X96117211Y-146786267D01*
X96117293Y-146692953D01*
X96035712Y-146495512D01*
X95884783Y-146344319D01*
X95687484Y-146262394D01*
X95473853Y-146262207D01*
X95276412Y-146343788D01*
X95225193Y-146394917D01*
X95278606Y-146266284D01*
X95278793Y-146052653D01*
X95197212Y-145855212D01*
X95186366Y-145844347D01*
X95721007Y-145844347D01*
X95802588Y-146041788D01*
X95953517Y-146192981D01*
X96150816Y-146274906D01*
X96364447Y-146275093D01*
X96561888Y-146193512D01*
X96713081Y-146042583D01*
X96795006Y-145845284D01*
X96795037Y-145809347D01*
X98982207Y-145809347D01*
X99063788Y-146006788D01*
X99214717Y-146157981D01*
X99412016Y-146239906D01*
X99625647Y-146240093D01*
X99740229Y-146192749D01*
X99810488Y-146362788D01*
X99961417Y-146513981D01*
X100158716Y-146595906D01*
X100372347Y-146596093D01*
X100569788Y-146514512D01*
X100720981Y-146363583D01*
X100802906Y-146166284D01*
X100803093Y-145952653D01*
X100722625Y-145757905D01*
X100864716Y-145816906D01*
X101074717Y-145817090D01*
X101146488Y-145990788D01*
X101297417Y-146141981D01*
X101494716Y-146223906D01*
X101708347Y-146224093D01*
X101905788Y-146142512D01*
X102056981Y-145991583D01*
X102138906Y-145794284D01*
X102139093Y-145580653D01*
X102057512Y-145383212D01*
X101906583Y-145232019D01*
X101813450Y-145193347D01*
X102070907Y-145193347D01*
X102152488Y-145390788D01*
X102303417Y-145541981D01*
X102500716Y-145623906D01*
X102714347Y-145624093D01*
X102911788Y-145542512D01*
X103062981Y-145391583D01*
X103144906Y-145194284D01*
X103144906Y-145193347D01*
X103532907Y-145193347D01*
X103614488Y-145390788D01*
X103765417Y-145541981D01*
X103962716Y-145623906D01*
X104176347Y-145624093D01*
X104373788Y-145542512D01*
X104524981Y-145391583D01*
X104606906Y-145194284D01*
X104607093Y-144980653D01*
X104525512Y-144783212D01*
X104501689Y-144759347D01*
X106409607Y-144759347D01*
X106491188Y-144956788D01*
X106593907Y-145059686D01*
X106504019Y-145149417D01*
X106422094Y-145346716D01*
X106421907Y-145560347D01*
X106503488Y-145757788D01*
X106654417Y-145908981D01*
X106851716Y-145990906D01*
X107065347Y-145991093D01*
X107262788Y-145909512D01*
X107413981Y-145758583D01*
X107495906Y-145561284D01*
X107496093Y-145347653D01*
X107414512Y-145150212D01*
X107379311Y-145114949D01*
X108378107Y-145114949D01*
X108459688Y-145312390D01*
X108610617Y-145463583D01*
X108807916Y-145545508D01*
X109021547Y-145545695D01*
X109218988Y-145464114D01*
X109370181Y-145313185D01*
X109439561Y-145146098D01*
X109472488Y-145225788D01*
X109539120Y-145292537D01*
X109534289Y-145294533D01*
X109383096Y-145445462D01*
X109301171Y-145642761D01*
X109300984Y-145856392D01*
X109382565Y-146053833D01*
X109533494Y-146205026D01*
X109730793Y-146286951D01*
X109944424Y-146287138D01*
X110141865Y-146205557D01*
X110273291Y-146074360D01*
X111338082Y-146074360D01*
X111419663Y-146271801D01*
X111570592Y-146422994D01*
X111767891Y-146504919D01*
X111981522Y-146505106D01*
X112178963Y-146423525D01*
X112330156Y-146272596D01*
X112412081Y-146075297D01*
X112412268Y-145861666D01*
X112330687Y-145664225D01*
X112179758Y-145513032D01*
X112013347Y-145443933D01*
X112196543Y-145444093D01*
X112393984Y-145362512D01*
X112545177Y-145211583D01*
X112627102Y-145014284D01*
X112627269Y-144822847D01*
X112896767Y-144822847D01*
X112978348Y-145020288D01*
X113129277Y-145171481D01*
X113326576Y-145253406D01*
X113349306Y-145253426D01*
X113349185Y-145391541D01*
X113430766Y-145588982D01*
X113581695Y-145740175D01*
X113778994Y-145822100D01*
X113941875Y-145822243D01*
X113941864Y-145834654D01*
X114023445Y-146032095D01*
X114174374Y-146183288D01*
X114371673Y-146265213D01*
X114585304Y-146265400D01*
X114782745Y-146183819D01*
X114810265Y-146156347D01*
X116556907Y-146156347D01*
X116638488Y-146353788D01*
X116789417Y-146504981D01*
X116986716Y-146586906D01*
X117200347Y-146587093D01*
X117397788Y-146505512D01*
X117548981Y-146354583D01*
X117630906Y-146157284D01*
X117631093Y-145943653D01*
X117549512Y-145746212D01*
X117398583Y-145595019D01*
X117201284Y-145513094D01*
X116987653Y-145512907D01*
X116790212Y-145594488D01*
X116639019Y-145745417D01*
X116557094Y-145942716D01*
X116556907Y-146156347D01*
X114810265Y-146156347D01*
X114933938Y-146032890D01*
X115015863Y-145835591D01*
X115016016Y-145661367D01*
X115045947Y-145661393D01*
X115243388Y-145579812D01*
X115394581Y-145428883D01*
X115447953Y-145300347D01*
X117954716Y-145300347D01*
X118036297Y-145497788D01*
X118187226Y-145648981D01*
X118292076Y-145692518D01*
X118246194Y-145803016D01*
X118246007Y-146016647D01*
X118327588Y-146214088D01*
X118478517Y-146365281D01*
X118675816Y-146447206D01*
X118889447Y-146447393D01*
X119086888Y-146365812D01*
X119238081Y-146214883D01*
X119320006Y-146017584D01*
X119320193Y-145803953D01*
X119238612Y-145606512D01*
X119087683Y-145455319D01*
X118982833Y-145411782D01*
X119028715Y-145301284D01*
X119028902Y-145087653D01*
X118947321Y-144890212D01*
X118796392Y-144739019D01*
X118599093Y-144657094D01*
X118385462Y-144656907D01*
X118188021Y-144738488D01*
X118036828Y-144889417D01*
X117954903Y-145086716D01*
X117954716Y-145300347D01*
X115447953Y-145300347D01*
X115476506Y-145231584D01*
X115476693Y-145017953D01*
X115395112Y-144820512D01*
X115244183Y-144669319D01*
X115046884Y-144587394D01*
X114833253Y-144587207D01*
X114635812Y-144668788D01*
X114484619Y-144819717D01*
X114402694Y-145017016D01*
X114402596Y-145128569D01*
X114341790Y-144981406D01*
X114190861Y-144830213D01*
X113993562Y-144748288D01*
X113970832Y-144748268D01*
X113970953Y-144610153D01*
X113889372Y-144412712D01*
X113738443Y-144261519D01*
X113541144Y-144179594D01*
X113327513Y-144179407D01*
X113130072Y-144260988D01*
X112978879Y-144411917D01*
X112896954Y-144609216D01*
X112896767Y-144822847D01*
X112627269Y-144822847D01*
X112627289Y-144800653D01*
X112545708Y-144603212D01*
X112394779Y-144452019D01*
X112197480Y-144370094D01*
X111983849Y-144369907D01*
X111786408Y-144451488D01*
X111635215Y-144602417D01*
X111553290Y-144799716D01*
X111553103Y-145013347D01*
X111634684Y-145210788D01*
X111785613Y-145361981D01*
X111952024Y-145431080D01*
X111768828Y-145430920D01*
X111571387Y-145512501D01*
X111420194Y-145663430D01*
X111338269Y-145860729D01*
X111338082Y-146074360D01*
X110273291Y-146074360D01*
X110293058Y-146054628D01*
X110374983Y-145857329D01*
X110375170Y-145643698D01*
X110293589Y-145446257D01*
X110226957Y-145379508D01*
X110231788Y-145377512D01*
X110382981Y-145226583D01*
X110445160Y-145076837D01*
X110521498Y-145261588D01*
X110672427Y-145412781D01*
X110869726Y-145494706D01*
X111083357Y-145494893D01*
X111280798Y-145413312D01*
X111431991Y-145262383D01*
X111513916Y-145065084D01*
X111514103Y-144851453D01*
X111432522Y-144654012D01*
X111281593Y-144502819D01*
X111084294Y-144420894D01*
X110870663Y-144420707D01*
X110673222Y-144502288D01*
X110522029Y-144653217D01*
X110459850Y-144802963D01*
X110383512Y-144618212D01*
X110232583Y-144467019D01*
X110035284Y-144385094D01*
X109821653Y-144384907D01*
X109624212Y-144466488D01*
X109473019Y-144617417D01*
X109403639Y-144784504D01*
X109370712Y-144704814D01*
X109219783Y-144553621D01*
X109022484Y-144471696D01*
X108808853Y-144471509D01*
X108611412Y-144553090D01*
X108460219Y-144704019D01*
X108378294Y-144901318D01*
X108378107Y-145114949D01*
X107379311Y-145114949D01*
X107311793Y-145047314D01*
X107401681Y-144957583D01*
X107483606Y-144760284D01*
X107483793Y-144546653D01*
X107402212Y-144349212D01*
X107251283Y-144198019D01*
X107053984Y-144116094D01*
X106840353Y-144115907D01*
X106642912Y-144197488D01*
X106491719Y-144348417D01*
X106409794Y-144545716D01*
X106409607Y-144759347D01*
X104501689Y-144759347D01*
X104374583Y-144632019D01*
X104177284Y-144550094D01*
X103963653Y-144549907D01*
X103766212Y-144631488D01*
X103615019Y-144782417D01*
X103533094Y-144979716D01*
X103532907Y-145193347D01*
X103144906Y-145193347D01*
X103145093Y-144980653D01*
X103063512Y-144783212D01*
X102912583Y-144632019D01*
X102715284Y-144550094D01*
X102501653Y-144549907D01*
X102304212Y-144631488D01*
X102153019Y-144782417D01*
X102071094Y-144979716D01*
X102070907Y-145193347D01*
X101813450Y-145193347D01*
X101709284Y-145150094D01*
X101499283Y-145149910D01*
X101427512Y-144976212D01*
X101276583Y-144825019D01*
X101079284Y-144743094D01*
X100865653Y-144742907D01*
X100668212Y-144824488D01*
X100517019Y-144975417D01*
X100435094Y-145172716D01*
X100434907Y-145386347D01*
X100515375Y-145581095D01*
X100373284Y-145522094D01*
X100159653Y-145521907D01*
X100045071Y-145569251D01*
X99974812Y-145399212D01*
X99823883Y-145248019D01*
X99626584Y-145166094D01*
X99412953Y-145165907D01*
X99215512Y-145247488D01*
X99064319Y-145398417D01*
X98982394Y-145595716D01*
X98982207Y-145809347D01*
X96795037Y-145809347D01*
X96795193Y-145631653D01*
X96713612Y-145434212D01*
X96562683Y-145283019D01*
X96365384Y-145201094D01*
X96151753Y-145200907D01*
X95954312Y-145282488D01*
X95803119Y-145433417D01*
X95721194Y-145630716D01*
X95721007Y-145844347D01*
X95186366Y-145844347D01*
X95046283Y-145704019D01*
X94848984Y-145622094D01*
X94635353Y-145621907D01*
X94437912Y-145703488D01*
X94286719Y-145854417D01*
X94204794Y-146051716D01*
X94204607Y-146265347D01*
X93575372Y-146265347D01*
X93528212Y-146151212D01*
X93377283Y-146000019D01*
X93179984Y-145918094D01*
X92966353Y-145917907D01*
X92768912Y-145999488D01*
X92617719Y-146150417D01*
X92535794Y-146347716D01*
X92535607Y-146561347D01*
X92488984Y-146561347D01*
X92358883Y-146431019D01*
X92161584Y-146349094D01*
X91947953Y-146348907D01*
X91750512Y-146430488D01*
X91740997Y-146439987D01*
X91740571Y-146439560D01*
X91816681Y-146363583D01*
X91898606Y-146166284D01*
X91898793Y-145952653D01*
X91817212Y-145755212D01*
X91666283Y-145604019D01*
X91468984Y-145522094D01*
X91255353Y-145521907D01*
X91057912Y-145603488D01*
X91011676Y-145649643D01*
X90936863Y-145574699D01*
X90739564Y-145492774D01*
X90525933Y-145492587D01*
X90328492Y-145574168D01*
X90177299Y-145725097D01*
X90095374Y-145922396D01*
X90095187Y-146136027D01*
X90176768Y-146333468D01*
X90227517Y-146384306D01*
X90023013Y-146384127D01*
X89825572Y-146465708D01*
X89674379Y-146616637D01*
X89592454Y-146813936D01*
X89592267Y-147027567D01*
X88048863Y-147027567D01*
X88078006Y-146957384D01*
X88078193Y-146743753D01*
X87996612Y-146546312D01*
X87845683Y-146395119D01*
X87648384Y-146313194D01*
X87434753Y-146313007D01*
X87359216Y-146344218D01*
X87305912Y-146215212D01*
X87154983Y-146064019D01*
X86957684Y-145982094D01*
X86744053Y-145981907D01*
X86546612Y-146063488D01*
X86395419Y-146214417D01*
X86313494Y-146411716D01*
X86313307Y-146625347D01*
X85138000Y-146625347D01*
X85138000Y-145001464D01*
X87022454Y-145001464D01*
X87104035Y-145198905D01*
X87254964Y-145350098D01*
X87452263Y-145432023D01*
X87665894Y-145432210D01*
X87863335Y-145350629D01*
X88014528Y-145199700D01*
X88061876Y-145085672D01*
X88134057Y-145260362D01*
X88284986Y-145411555D01*
X88482285Y-145493480D01*
X88695916Y-145493667D01*
X88718472Y-145484347D01*
X93463407Y-145484347D01*
X93544988Y-145681788D01*
X93695917Y-145832981D01*
X93893216Y-145914906D01*
X94106847Y-145915093D01*
X94304288Y-145833512D01*
X94455481Y-145682583D01*
X94537406Y-145485284D01*
X94537593Y-145271653D01*
X94531682Y-145257347D01*
X94792107Y-145257347D01*
X94873688Y-145454788D01*
X95024617Y-145605981D01*
X95221916Y-145687906D01*
X95435547Y-145688093D01*
X95632988Y-145606512D01*
X95784181Y-145455583D01*
X95866106Y-145258284D01*
X95866293Y-145044653D01*
X95784712Y-144847212D01*
X95633783Y-144696019D01*
X95436484Y-144614094D01*
X95222853Y-144613907D01*
X95025412Y-144695488D01*
X94874219Y-144846417D01*
X94792294Y-145043716D01*
X94792107Y-145257347D01*
X94531682Y-145257347D01*
X94456012Y-145074212D01*
X94305083Y-144923019D01*
X94107784Y-144841094D01*
X93894153Y-144840907D01*
X93696712Y-144922488D01*
X93545519Y-145073417D01*
X93463594Y-145270716D01*
X93463407Y-145484347D01*
X88718472Y-145484347D01*
X88893357Y-145412086D01*
X89044550Y-145261157D01*
X89126475Y-145063858D01*
X89126576Y-144948743D01*
X89184147Y-144948793D01*
X89381588Y-144867212D01*
X89438552Y-144810347D01*
X89632907Y-144810347D01*
X89714488Y-145007788D01*
X89865417Y-145158981D01*
X90062716Y-145240906D01*
X90276347Y-145241093D01*
X90473788Y-145159512D01*
X90624981Y-145008583D01*
X90684872Y-144864347D01*
X91566207Y-144864347D01*
X91647788Y-145061788D01*
X91798717Y-145212981D01*
X91996016Y-145294906D01*
X92209647Y-145295093D01*
X92407088Y-145213512D01*
X92558281Y-145062583D01*
X92640206Y-144865284D01*
X92640393Y-144651653D01*
X92558812Y-144454212D01*
X92407883Y-144303019D01*
X92210584Y-144221094D01*
X91996953Y-144220907D01*
X91799512Y-144302488D01*
X91648319Y-144453417D01*
X91566394Y-144650716D01*
X91566207Y-144864347D01*
X90684872Y-144864347D01*
X90706906Y-144811284D01*
X90707093Y-144597653D01*
X90625512Y-144400212D01*
X90474583Y-144249019D01*
X90277284Y-144167094D01*
X90063653Y-144166907D01*
X89866212Y-144248488D01*
X89715019Y-144399417D01*
X89633094Y-144596716D01*
X89632907Y-144810347D01*
X89438552Y-144810347D01*
X89532781Y-144716283D01*
X89614706Y-144518984D01*
X89614893Y-144305353D01*
X89533312Y-144107912D01*
X89487916Y-144062437D01*
X89608981Y-143941583D01*
X89690906Y-143744284D01*
X89690906Y-143743347D01*
X92617407Y-143743347D01*
X92698988Y-143940788D01*
X92849917Y-144091981D01*
X93047216Y-144173906D01*
X93260847Y-144174093D01*
X93458288Y-144092512D01*
X93609481Y-143941583D01*
X93691406Y-143744284D01*
X93691566Y-143561347D01*
X99369607Y-143561347D01*
X99451188Y-143758788D01*
X99602117Y-143909981D01*
X99799416Y-143991906D01*
X100013047Y-143992093D01*
X100210488Y-143910512D01*
X100351714Y-143769532D01*
X108149074Y-143769532D01*
X108230655Y-143966973D01*
X108381584Y-144118166D01*
X108578883Y-144200091D01*
X108792514Y-144200278D01*
X108989955Y-144118697D01*
X109043807Y-144064939D01*
X109121195Y-144142463D01*
X109318494Y-144224388D01*
X109532125Y-144224575D01*
X109729566Y-144142994D01*
X109880759Y-143992065D01*
X109883963Y-143984347D01*
X117832907Y-143984347D01*
X117914488Y-144181788D01*
X118065417Y-144332981D01*
X118262716Y-144414906D01*
X118476347Y-144415093D01*
X118673788Y-144333512D01*
X118824981Y-144182583D01*
X118906906Y-143985284D01*
X118907093Y-143771653D01*
X118825512Y-143574212D01*
X118674583Y-143423019D01*
X118477284Y-143341094D01*
X118263653Y-143340907D01*
X118066212Y-143422488D01*
X117915019Y-143573417D01*
X117833094Y-143770716D01*
X117832907Y-143984347D01*
X109883963Y-143984347D01*
X109962684Y-143794766D01*
X109962871Y-143581135D01*
X109881290Y-143383694D01*
X109730361Y-143232501D01*
X109533062Y-143150576D01*
X109319431Y-143150389D01*
X109121990Y-143231970D01*
X109068138Y-143285728D01*
X108990750Y-143208204D01*
X108793451Y-143126279D01*
X108579820Y-143126092D01*
X108382379Y-143207673D01*
X108231186Y-143358602D01*
X108149261Y-143555901D01*
X108149074Y-143769532D01*
X100351714Y-143769532D01*
X100361681Y-143759583D01*
X100443606Y-143562284D01*
X100443793Y-143348653D01*
X100426726Y-143307347D01*
X101152907Y-143307347D01*
X101234488Y-143504788D01*
X101385417Y-143655981D01*
X101582716Y-143737906D01*
X101796347Y-143738093D01*
X101993788Y-143656512D01*
X102144981Y-143505583D01*
X102226906Y-143308284D01*
X102226962Y-143243347D01*
X103520907Y-143243347D01*
X103602488Y-143440788D01*
X103753417Y-143591981D01*
X103950716Y-143673906D01*
X104164347Y-143674093D01*
X104361788Y-143592512D01*
X104512981Y-143441583D01*
X104594906Y-143244284D01*
X104594982Y-143156347D01*
X106411907Y-143156347D01*
X106493488Y-143353788D01*
X106644417Y-143504981D01*
X106841716Y-143586906D01*
X107055347Y-143587093D01*
X107252788Y-143505512D01*
X107346534Y-143411930D01*
X107442217Y-143507781D01*
X107639516Y-143589706D01*
X107853147Y-143589893D01*
X108050588Y-143508312D01*
X108201781Y-143357383D01*
X108283706Y-143160084D01*
X108283893Y-142946453D01*
X108221888Y-142796389D01*
X117794927Y-142796389D01*
X117876508Y-142993830D01*
X118027437Y-143145023D01*
X118224736Y-143226948D01*
X118438367Y-143227135D01*
X118635808Y-143145554D01*
X118787001Y-142994625D01*
X118868926Y-142797326D01*
X118869034Y-142673367D01*
X122828907Y-142673367D01*
X122910488Y-142870808D01*
X123061417Y-143022001D01*
X123067917Y-143024700D01*
X122976039Y-143116417D01*
X122894114Y-143313716D01*
X122893927Y-143527347D01*
X122975508Y-143724788D01*
X123126437Y-143875981D01*
X123323736Y-143957906D01*
X123537367Y-143958093D01*
X123734808Y-143876512D01*
X123886001Y-143725583D01*
X123967926Y-143528284D01*
X123968113Y-143314653D01*
X123886532Y-143117212D01*
X123735603Y-142966019D01*
X123729103Y-142963320D01*
X123820981Y-142871603D01*
X123902906Y-142674304D01*
X123903093Y-142460673D01*
X123821512Y-142263232D01*
X123670583Y-142112039D01*
X123473284Y-142030114D01*
X123259653Y-142029927D01*
X123062212Y-142111508D01*
X122911019Y-142262437D01*
X122829094Y-142459736D01*
X122828907Y-142673367D01*
X118869034Y-142673367D01*
X118869113Y-142583695D01*
X118787532Y-142386254D01*
X118636603Y-142235061D01*
X118439304Y-142153136D01*
X118225673Y-142152949D01*
X118028232Y-142234530D01*
X117877039Y-142385459D01*
X117795114Y-142582758D01*
X117794927Y-142796389D01*
X108221888Y-142796389D01*
X108202312Y-142749012D01*
X108080805Y-142627292D01*
X108176381Y-142531883D01*
X108258306Y-142334584D01*
X108258493Y-142120953D01*
X108176912Y-141923512D01*
X108025983Y-141772319D01*
X107845429Y-141697347D01*
X108416907Y-141697347D01*
X108498488Y-141894788D01*
X108649417Y-142045981D01*
X108846716Y-142127906D01*
X109060347Y-142128093D01*
X109257788Y-142046512D01*
X109266485Y-142037830D01*
X109391417Y-142162981D01*
X109588716Y-142244906D01*
X109802347Y-142245093D01*
X109999788Y-142163512D01*
X110150981Y-142012583D01*
X110232906Y-141815284D01*
X110233093Y-141601653D01*
X110199705Y-141520847D01*
X120836807Y-141520847D01*
X120918388Y-141718288D01*
X121069317Y-141869481D01*
X121266616Y-141951406D01*
X121480247Y-141951593D01*
X121677688Y-141870012D01*
X121828881Y-141719083D01*
X121910806Y-141521784D01*
X121910993Y-141308153D01*
X121829412Y-141110712D01*
X121678483Y-140959519D01*
X121481184Y-140877594D01*
X121267553Y-140877407D01*
X121070112Y-140958988D01*
X120918919Y-141109917D01*
X120836994Y-141307216D01*
X120836807Y-141520847D01*
X110199705Y-141520847D01*
X110151512Y-141404212D01*
X110000583Y-141253019D01*
X109803284Y-141171094D01*
X109589653Y-141170907D01*
X109392212Y-141252488D01*
X109383515Y-141261170D01*
X109258583Y-141136019D01*
X109061284Y-141054094D01*
X108847653Y-141053907D01*
X108650212Y-141135488D01*
X108499019Y-141286417D01*
X108417094Y-141483716D01*
X108416907Y-141697347D01*
X107845429Y-141697347D01*
X107828684Y-141690394D01*
X107615053Y-141690207D01*
X107417612Y-141771788D01*
X107266419Y-141922717D01*
X107184494Y-142120016D01*
X107184307Y-142333647D01*
X107265888Y-142531088D01*
X107387395Y-142652808D01*
X107349266Y-142690870D01*
X107253583Y-142595019D01*
X107056284Y-142513094D01*
X106842653Y-142512907D01*
X106645212Y-142594488D01*
X106494019Y-142745417D01*
X106412094Y-142942716D01*
X106411907Y-143156347D01*
X104594982Y-143156347D01*
X104595093Y-143030653D01*
X104513512Y-142833212D01*
X104362583Y-142682019D01*
X104165284Y-142600094D01*
X103951653Y-142599907D01*
X103754212Y-142681488D01*
X103603019Y-142832417D01*
X103521094Y-143029716D01*
X103520907Y-143243347D01*
X102226962Y-143243347D01*
X102227093Y-143094653D01*
X102145512Y-142897212D01*
X101994583Y-142746019D01*
X101797284Y-142664094D01*
X101583653Y-142663907D01*
X101386212Y-142745488D01*
X101235019Y-142896417D01*
X101153094Y-143093716D01*
X101152907Y-143307347D01*
X100426726Y-143307347D01*
X100362212Y-143151212D01*
X100211283Y-143000019D01*
X100013984Y-142918094D01*
X99800353Y-142917907D01*
X99602912Y-142999488D01*
X99451719Y-143150417D01*
X99369794Y-143347716D01*
X99369607Y-143561347D01*
X93691566Y-143561347D01*
X93691593Y-143530653D01*
X93610012Y-143333212D01*
X93459083Y-143182019D01*
X93261784Y-143100094D01*
X93048153Y-143099907D01*
X92850712Y-143181488D01*
X92699519Y-143332417D01*
X92617594Y-143529716D01*
X92617407Y-143743347D01*
X89690906Y-143743347D01*
X89691093Y-143530653D01*
X89609512Y-143333212D01*
X89564138Y-143287759D01*
X89659781Y-143192283D01*
X89741706Y-142994984D01*
X89741893Y-142781353D01*
X89660312Y-142583912D01*
X89509383Y-142432719D01*
X89312084Y-142350794D01*
X89098453Y-142350607D01*
X88901012Y-142432188D01*
X88749819Y-142583117D01*
X88667894Y-142780416D01*
X88667707Y-142994047D01*
X88749288Y-143191488D01*
X88794662Y-143236941D01*
X88699019Y-143332417D01*
X88617094Y-143529716D01*
X88616907Y-143743347D01*
X88698488Y-143940788D01*
X88743884Y-143986263D01*
X88622819Y-144107117D01*
X88540894Y-144304416D01*
X88540793Y-144419531D01*
X88483222Y-144419481D01*
X88285781Y-144501062D01*
X88134588Y-144651991D01*
X88087240Y-144766019D01*
X88015059Y-144591329D01*
X87864130Y-144440136D01*
X87666831Y-144358211D01*
X87453200Y-144358024D01*
X87255759Y-144439605D01*
X87104566Y-144590534D01*
X87022641Y-144787833D01*
X87022454Y-145001464D01*
X85138000Y-145001464D01*
X85138000Y-141820073D01*
X86380581Y-141820073D01*
X86462162Y-142017514D01*
X86613091Y-142168707D01*
X86810390Y-142250632D01*
X87024021Y-142250819D01*
X87221462Y-142169238D01*
X87372655Y-142018309D01*
X87454580Y-141821010D01*
X87454650Y-141740347D01*
X88454087Y-141740347D01*
X88535668Y-141937788D01*
X88686597Y-142088981D01*
X88883896Y-142170906D01*
X89097527Y-142171093D01*
X89294968Y-142089512D01*
X89429527Y-141955187D01*
X90092647Y-141955187D01*
X90174228Y-142152628D01*
X90325157Y-142303821D01*
X90522456Y-142385746D01*
X90736087Y-142385933D01*
X90933528Y-142304352D01*
X91046670Y-142191407D01*
X96381687Y-142191407D01*
X96463268Y-142388848D01*
X96614197Y-142540041D01*
X96811496Y-142621966D01*
X97025127Y-142622153D01*
X97222568Y-142540572D01*
X97373761Y-142389643D01*
X97455686Y-142192344D01*
X97455873Y-141978713D01*
X97374292Y-141781272D01*
X97223363Y-141630079D01*
X97026064Y-141548154D01*
X96812433Y-141547967D01*
X96614992Y-141629548D01*
X96463799Y-141780477D01*
X96381874Y-141977776D01*
X96381687Y-142191407D01*
X91046670Y-142191407D01*
X91084721Y-142153423D01*
X91166646Y-141956124D01*
X91166748Y-141839792D01*
X91213607Y-141839833D01*
X91411048Y-141758252D01*
X91443990Y-141725367D01*
X94304427Y-141725367D01*
X94386008Y-141922808D01*
X94536937Y-142074001D01*
X94734236Y-142155926D01*
X94947867Y-142156113D01*
X95145308Y-142074532D01*
X95296501Y-141923603D01*
X95378426Y-141726304D01*
X95378613Y-141512673D01*
X95297032Y-141315232D01*
X95146103Y-141164039D01*
X94948804Y-141082114D01*
X94735173Y-141081927D01*
X94537732Y-141163508D01*
X94386539Y-141314437D01*
X94304614Y-141511736D01*
X94304427Y-141725367D01*
X91443990Y-141725367D01*
X91562241Y-141607323D01*
X91644166Y-141410024D01*
X91644353Y-141196393D01*
X91562772Y-140998952D01*
X91485303Y-140921347D01*
X92337907Y-140921347D01*
X92419488Y-141118788D01*
X92570417Y-141269981D01*
X92767716Y-141351906D01*
X92981347Y-141352093D01*
X93178788Y-141270512D01*
X93329981Y-141119583D01*
X93411906Y-140922284D01*
X93412060Y-140746147D01*
X119211207Y-140746147D01*
X119292788Y-140943588D01*
X119443717Y-141094781D01*
X119641016Y-141176706D01*
X119854647Y-141176893D01*
X120052088Y-141095312D01*
X120203281Y-140944383D01*
X120285206Y-140747084D01*
X120285217Y-140733447D01*
X121636907Y-140733447D01*
X121718488Y-140930888D01*
X121869417Y-141082081D01*
X122066716Y-141164006D01*
X122280347Y-141164193D01*
X122477788Y-141082612D01*
X122590249Y-140970347D01*
X122814927Y-140970347D01*
X122896508Y-141167788D01*
X123047437Y-141318981D01*
X123244736Y-141400906D01*
X123458367Y-141401093D01*
X123655808Y-141319512D01*
X123807001Y-141168583D01*
X123888926Y-140971284D01*
X123889113Y-140757653D01*
X123807532Y-140560212D01*
X123656603Y-140409019D01*
X123459304Y-140327094D01*
X123245673Y-140326907D01*
X123048232Y-140408488D01*
X122897039Y-140559417D01*
X122815114Y-140756716D01*
X122814927Y-140970347D01*
X122590249Y-140970347D01*
X122628981Y-140931683D01*
X122710906Y-140734384D01*
X122711093Y-140520753D01*
X122629512Y-140323312D01*
X122478583Y-140172119D01*
X122281284Y-140090194D01*
X122067653Y-140090007D01*
X121870212Y-140171588D01*
X121719019Y-140322517D01*
X121637094Y-140519816D01*
X121636907Y-140733447D01*
X120285217Y-140733447D01*
X120285393Y-140533453D01*
X120203812Y-140336012D01*
X120052883Y-140184819D01*
X119855584Y-140102894D01*
X119641953Y-140102707D01*
X119444512Y-140184288D01*
X119293319Y-140335217D01*
X119211394Y-140532516D01*
X119211207Y-140746147D01*
X93412060Y-140746147D01*
X93412093Y-140708653D01*
X93330512Y-140511212D01*
X93179583Y-140360019D01*
X92982284Y-140278094D01*
X92768653Y-140277907D01*
X92571212Y-140359488D01*
X92420019Y-140510417D01*
X92338094Y-140707716D01*
X92337907Y-140921347D01*
X91485303Y-140921347D01*
X91411843Y-140847759D01*
X91214544Y-140765834D01*
X91000913Y-140765647D01*
X90803472Y-140847228D01*
X90652279Y-140998157D01*
X90570354Y-141195456D01*
X90570252Y-141311788D01*
X90523393Y-141311747D01*
X90325952Y-141393328D01*
X90174759Y-141544257D01*
X90092834Y-141741556D01*
X90092647Y-141955187D01*
X89429527Y-141955187D01*
X89446161Y-141938583D01*
X89528086Y-141741284D01*
X89528273Y-141527653D01*
X89446692Y-141330212D01*
X89295763Y-141179019D01*
X89098464Y-141097094D01*
X88884833Y-141096907D01*
X88687392Y-141178488D01*
X88536199Y-141329417D01*
X88454274Y-141526716D01*
X88454087Y-141740347D01*
X87454650Y-141740347D01*
X87454767Y-141607379D01*
X87373186Y-141409938D01*
X87222257Y-141258745D01*
X87024958Y-141176820D01*
X86811327Y-141176633D01*
X86613886Y-141258214D01*
X86462693Y-141409143D01*
X86380768Y-141606442D01*
X86380581Y-141820073D01*
X85138000Y-141820073D01*
X85138000Y-140632347D01*
X86102307Y-140632347D01*
X86183888Y-140829788D01*
X86334817Y-140980981D01*
X86532116Y-141062906D01*
X86745747Y-141063093D01*
X86943188Y-140981512D01*
X87094381Y-140830583D01*
X87176306Y-140633284D01*
X87176493Y-140419653D01*
X87094912Y-140222212D01*
X86943983Y-140071019D01*
X86746684Y-139989094D01*
X86533053Y-139988907D01*
X86335612Y-140070488D01*
X86184419Y-140221417D01*
X86102494Y-140418716D01*
X86102307Y-140632347D01*
X85138000Y-140632347D01*
X85138000Y-139721347D01*
X90141407Y-139721347D01*
X90222988Y-139918788D01*
X90373917Y-140069981D01*
X90571216Y-140151906D01*
X90784847Y-140152093D01*
X90982288Y-140070512D01*
X91133481Y-139919583D01*
X91178839Y-139810347D01*
X100464907Y-139810347D01*
X100546488Y-140007788D01*
X100697417Y-140158981D01*
X100894716Y-140240906D01*
X101108347Y-140241093D01*
X101305788Y-140159512D01*
X101456981Y-140008583D01*
X101460992Y-139998923D01*
X101624716Y-140066906D01*
X101838347Y-140067093D01*
X102035788Y-139985512D01*
X102186981Y-139834583D01*
X102248533Y-139686347D01*
X108259907Y-139686347D01*
X108341488Y-139883788D01*
X108492417Y-140034981D01*
X108689716Y-140116906D01*
X108873481Y-140117067D01*
X108947368Y-140295888D01*
X109098297Y-140447081D01*
X109295596Y-140529006D01*
X109509227Y-140529193D01*
X109706668Y-140447612D01*
X109857861Y-140296683D01*
X109939786Y-140099384D01*
X109939931Y-139933347D01*
X111209907Y-139933347D01*
X111291488Y-140130788D01*
X111442417Y-140281981D01*
X111639716Y-140363906D01*
X111853347Y-140364093D01*
X112050788Y-140282512D01*
X112201981Y-140131583D01*
X112258135Y-139996347D01*
X116010907Y-139996347D01*
X116092488Y-140193788D01*
X116243417Y-140344981D01*
X116440716Y-140426906D01*
X116654347Y-140427093D01*
X116851788Y-140345512D01*
X117002981Y-140194583D01*
X117084906Y-139997284D01*
X117085093Y-139783653D01*
X117003512Y-139586212D01*
X116852583Y-139435019D01*
X116655284Y-139353094D01*
X116441653Y-139352907D01*
X116244212Y-139434488D01*
X116093019Y-139585417D01*
X116011094Y-139782716D01*
X116010907Y-139996347D01*
X112258135Y-139996347D01*
X112283906Y-139934284D01*
X112284093Y-139720653D01*
X112202512Y-139523212D01*
X112051583Y-139372019D01*
X111854284Y-139290094D01*
X111640653Y-139289907D01*
X111443212Y-139371488D01*
X111292019Y-139522417D01*
X111210094Y-139719716D01*
X111209907Y-139933347D01*
X109939931Y-139933347D01*
X109939973Y-139885753D01*
X109858392Y-139688312D01*
X109707463Y-139537119D01*
X109510164Y-139455194D01*
X109326399Y-139455033D01*
X109252512Y-139276212D01*
X109122874Y-139146347D01*
X116797907Y-139146347D01*
X116879488Y-139343788D01*
X117030417Y-139494981D01*
X117227716Y-139576906D01*
X117441347Y-139577093D01*
X117638788Y-139495512D01*
X117654842Y-139479486D01*
X117654737Y-139599659D01*
X117736318Y-139797100D01*
X117887247Y-139948293D01*
X118084546Y-140030218D01*
X118268790Y-140030379D01*
X118350352Y-140227774D01*
X118501281Y-140378967D01*
X118698580Y-140460892D01*
X118912211Y-140461079D01*
X119109652Y-140379498D01*
X119260845Y-140228569D01*
X119342770Y-140031270D01*
X119342957Y-139817639D01*
X119261376Y-139620198D01*
X119110447Y-139469005D01*
X118913148Y-139387080D01*
X118728904Y-139386919D01*
X118647342Y-139189524D01*
X118496413Y-139038331D01*
X118299114Y-138956406D01*
X118085483Y-138956219D01*
X117888042Y-139037800D01*
X117871988Y-139053826D01*
X117872093Y-138933653D01*
X117790512Y-138736212D01*
X117639583Y-138585019D01*
X117442284Y-138503094D01*
X117228653Y-138502907D01*
X117031212Y-138584488D01*
X116880019Y-138735417D01*
X116798094Y-138932716D01*
X116797907Y-139146347D01*
X109122874Y-139146347D01*
X109101583Y-139125019D01*
X108904284Y-139043094D01*
X108690653Y-139042907D01*
X108493212Y-139124488D01*
X108342019Y-139275417D01*
X108260094Y-139472716D01*
X108259907Y-139686347D01*
X102248533Y-139686347D01*
X102268906Y-139637284D01*
X102269093Y-139423653D01*
X102187512Y-139226212D01*
X102120065Y-139158647D01*
X107209707Y-139158647D01*
X107291288Y-139356088D01*
X107442217Y-139507281D01*
X107639516Y-139589206D01*
X107853147Y-139589393D01*
X108050588Y-139507812D01*
X108201781Y-139356883D01*
X108283706Y-139159584D01*
X108283893Y-138945953D01*
X108202312Y-138748512D01*
X108051383Y-138597319D01*
X107854084Y-138515394D01*
X107640453Y-138515207D01*
X107443012Y-138596788D01*
X107291819Y-138747717D01*
X107209894Y-138945016D01*
X107209707Y-139158647D01*
X102120065Y-139158647D01*
X102036583Y-139075019D01*
X101839284Y-138993094D01*
X101625653Y-138992907D01*
X101428212Y-139074488D01*
X101277019Y-139225417D01*
X101273008Y-139235077D01*
X101109284Y-139167094D01*
X100895653Y-139166907D01*
X100698212Y-139248488D01*
X100547019Y-139399417D01*
X100465094Y-139596716D01*
X100464907Y-139810347D01*
X91178839Y-139810347D01*
X91215406Y-139722284D01*
X91215593Y-139508653D01*
X91134012Y-139311212D01*
X90983083Y-139160019D01*
X90785784Y-139078094D01*
X90572153Y-139077907D01*
X90374712Y-139159488D01*
X90223519Y-139310417D01*
X90141594Y-139507716D01*
X90141407Y-139721347D01*
X85138000Y-139721347D01*
X85138000Y-138041347D01*
X91842707Y-138041347D01*
X91924288Y-138238788D01*
X92075217Y-138389981D01*
X92272516Y-138471906D01*
X92486147Y-138472093D01*
X92683588Y-138390512D01*
X92834781Y-138239583D01*
X92916706Y-138042284D01*
X92916817Y-137914347D01*
X94649407Y-137914347D01*
X94730988Y-138111788D01*
X94881917Y-138262981D01*
X95079216Y-138344906D01*
X95292847Y-138345093D01*
X95490288Y-138263512D01*
X95641481Y-138112583D01*
X95708016Y-137952347D01*
X97799007Y-137952347D01*
X97880588Y-138149788D01*
X98031517Y-138300981D01*
X98228816Y-138382906D01*
X98442447Y-138383093D01*
X98532589Y-138345847D01*
X106396907Y-138345847D01*
X106478488Y-138543288D01*
X106629417Y-138694481D01*
X106826716Y-138776406D01*
X107040347Y-138776593D01*
X107237788Y-138695012D01*
X107388981Y-138544083D01*
X107470906Y-138346784D01*
X107471093Y-138133153D01*
X107412046Y-137990247D01*
X108743867Y-137990247D01*
X108825448Y-138187688D01*
X108976377Y-138338881D01*
X109173676Y-138420806D01*
X109387307Y-138420993D01*
X109567964Y-138346347D01*
X110409907Y-138346347D01*
X110491488Y-138543788D01*
X110642417Y-138694981D01*
X110839716Y-138776906D01*
X111053347Y-138777093D01*
X111250788Y-138695512D01*
X111401981Y-138544583D01*
X111483906Y-138347284D01*
X111484093Y-138133653D01*
X111470974Y-138101901D01*
X118541353Y-138101901D01*
X118622934Y-138299342D01*
X118773863Y-138450535D01*
X118971162Y-138532460D01*
X119184793Y-138532647D01*
X119382234Y-138451066D01*
X119533427Y-138300137D01*
X119615352Y-138102838D01*
X119615539Y-137889207D01*
X119533958Y-137691766D01*
X119413550Y-137571147D01*
X120824107Y-137571147D01*
X120905688Y-137768588D01*
X121056617Y-137919781D01*
X121253916Y-138001706D01*
X121467547Y-138001893D01*
X121664988Y-137920312D01*
X121816181Y-137769383D01*
X121898106Y-137572084D01*
X121898122Y-137553347D01*
X122409907Y-137553347D01*
X122491488Y-137750788D01*
X122642417Y-137901981D01*
X122839716Y-137983906D01*
X122881813Y-137983943D01*
X122876094Y-137997716D01*
X122875907Y-138211347D01*
X122957488Y-138408788D01*
X123108417Y-138559981D01*
X123305716Y-138641906D01*
X123473431Y-138642053D01*
X123402192Y-138671488D01*
X123250999Y-138822417D01*
X123169074Y-139019716D01*
X123168887Y-139233347D01*
X123174402Y-139246693D01*
X123151284Y-139237094D01*
X122937653Y-139236907D01*
X122740212Y-139318488D01*
X122589019Y-139469417D01*
X122507094Y-139666716D01*
X122506907Y-139880347D01*
X122588488Y-140077788D01*
X122739417Y-140228981D01*
X122936716Y-140310906D01*
X123150347Y-140311093D01*
X123347788Y-140229512D01*
X123498981Y-140078583D01*
X123580906Y-139881284D01*
X123581093Y-139667653D01*
X123575578Y-139654307D01*
X123598696Y-139663906D01*
X123812327Y-139664093D01*
X124009768Y-139582512D01*
X124160961Y-139431583D01*
X124242886Y-139234284D01*
X124243073Y-139020653D01*
X124161492Y-138823212D01*
X124010563Y-138672019D01*
X123813264Y-138590094D01*
X123645549Y-138589947D01*
X123716788Y-138560512D01*
X123867981Y-138409583D01*
X123949906Y-138212284D01*
X123950093Y-137998653D01*
X123868512Y-137801212D01*
X123717583Y-137650019D01*
X123520284Y-137568094D01*
X123478187Y-137568057D01*
X123483906Y-137554284D01*
X123484093Y-137340653D01*
X123402512Y-137143212D01*
X123251583Y-136992019D01*
X123054284Y-136910094D01*
X122840653Y-136909907D01*
X122643212Y-136991488D01*
X122492019Y-137142417D01*
X122410094Y-137339716D01*
X122409907Y-137553347D01*
X121898122Y-137553347D01*
X121898293Y-137358453D01*
X121816712Y-137161012D01*
X121665783Y-137009819D01*
X121468484Y-136927894D01*
X121254853Y-136927707D01*
X121057412Y-137009288D01*
X120906219Y-137160217D01*
X120824294Y-137357516D01*
X120824107Y-137571147D01*
X119413550Y-137571147D01*
X119383029Y-137540573D01*
X119185730Y-137458648D01*
X118972099Y-137458461D01*
X118774658Y-137540042D01*
X118623465Y-137690971D01*
X118541540Y-137888270D01*
X118541353Y-138101901D01*
X111470974Y-138101901D01*
X111402512Y-137936212D01*
X111251583Y-137785019D01*
X111054284Y-137703094D01*
X110840653Y-137702907D01*
X110643212Y-137784488D01*
X110492019Y-137935417D01*
X110410094Y-138132716D01*
X110409907Y-138346347D01*
X109567964Y-138346347D01*
X109584748Y-138339412D01*
X109735941Y-138188483D01*
X109817866Y-137991184D01*
X109818053Y-137777553D01*
X109736472Y-137580112D01*
X109585543Y-137428919D01*
X109388244Y-137346994D01*
X109174613Y-137346807D01*
X108977172Y-137428388D01*
X108825979Y-137579317D01*
X108744054Y-137776616D01*
X108743867Y-137990247D01*
X107412046Y-137990247D01*
X107389512Y-137935712D01*
X107238583Y-137784519D01*
X107041284Y-137702594D01*
X106827653Y-137702407D01*
X106630212Y-137783988D01*
X106479019Y-137934917D01*
X106397094Y-138132216D01*
X106396907Y-138345847D01*
X98532589Y-138345847D01*
X98639888Y-138301512D01*
X98791081Y-138150583D01*
X98873006Y-137953284D01*
X98873062Y-137888347D01*
X101252907Y-137888347D01*
X101334488Y-138085788D01*
X101485417Y-138236981D01*
X101682716Y-138318906D01*
X101896347Y-138319093D01*
X102093788Y-138237512D01*
X102244981Y-138086583D01*
X102326906Y-137889284D01*
X102327093Y-137675653D01*
X102245512Y-137478212D01*
X102094583Y-137327019D01*
X101897284Y-137245094D01*
X101683653Y-137244907D01*
X101486212Y-137326488D01*
X101335019Y-137477417D01*
X101253094Y-137674716D01*
X101252907Y-137888347D01*
X98873062Y-137888347D01*
X98873193Y-137739653D01*
X98791612Y-137542212D01*
X98640683Y-137391019D01*
X98443384Y-137309094D01*
X98229753Y-137308907D01*
X98032312Y-137390488D01*
X97881119Y-137541417D01*
X97799194Y-137738716D01*
X97799007Y-137952347D01*
X95708016Y-137952347D01*
X95723406Y-137915284D01*
X95723593Y-137701653D01*
X95642012Y-137504212D01*
X95491083Y-137353019D01*
X95293784Y-137271094D01*
X95080153Y-137270907D01*
X94882712Y-137352488D01*
X94731519Y-137503417D01*
X94649594Y-137700716D01*
X94649407Y-137914347D01*
X92916817Y-137914347D01*
X92916893Y-137828653D01*
X92835312Y-137631212D01*
X92684383Y-137480019D01*
X92487084Y-137398094D01*
X92273453Y-137397907D01*
X92076012Y-137479488D01*
X91924819Y-137630417D01*
X91842894Y-137827716D01*
X91842707Y-138041347D01*
X85138000Y-138041347D01*
X85138000Y-136852327D01*
X108411127Y-136852327D01*
X108492708Y-137049768D01*
X108643637Y-137200961D01*
X108840936Y-137282886D01*
X109054567Y-137283073D01*
X109252008Y-137201492D01*
X109403201Y-137050563D01*
X109485126Y-136853264D01*
X109485207Y-136760647D01*
X109735907Y-136760647D01*
X109817488Y-136958088D01*
X109968417Y-137109281D01*
X110165716Y-137191206D01*
X110379347Y-137191393D01*
X110576788Y-137109812D01*
X110727981Y-136958883D01*
X110809906Y-136761584D01*
X110810093Y-136547953D01*
X110728512Y-136350512D01*
X110577583Y-136199319D01*
X110380284Y-136117394D01*
X110166653Y-136117207D01*
X109969212Y-136198788D01*
X109818019Y-136349717D01*
X109736094Y-136547016D01*
X109735907Y-136760647D01*
X109485207Y-136760647D01*
X109485313Y-136639633D01*
X109403732Y-136442192D01*
X109252803Y-136290999D01*
X109055504Y-136209074D01*
X108841873Y-136208887D01*
X108644432Y-136290468D01*
X108493239Y-136441397D01*
X108411314Y-136638696D01*
X108411127Y-136852327D01*
X85138000Y-136852327D01*
X85138000Y-135742347D01*
X89569407Y-135742347D01*
X89650988Y-135939788D01*
X89801917Y-136090981D01*
X89999216Y-136172906D01*
X90212847Y-136173093D01*
X90272736Y-136148347D01*
X102853907Y-136148347D01*
X102935488Y-136345788D01*
X103086417Y-136496981D01*
X103283716Y-136578906D01*
X103497347Y-136579093D01*
X103694788Y-136497512D01*
X103845981Y-136346583D01*
X103927906Y-136149284D01*
X103928093Y-135935653D01*
X103846512Y-135738212D01*
X103825285Y-135716947D01*
X122576707Y-135716947D01*
X122658288Y-135914388D01*
X122809217Y-136065581D01*
X123006516Y-136147506D01*
X123020036Y-136147518D01*
X123019907Y-136294347D01*
X123101488Y-136491788D01*
X123252417Y-136642981D01*
X123449716Y-136724906D01*
X123663347Y-136725093D01*
X123860788Y-136643512D01*
X124011981Y-136492583D01*
X124093906Y-136295284D01*
X124094093Y-136081653D01*
X124012512Y-135884212D01*
X123861583Y-135733019D01*
X123664284Y-135651094D01*
X123650764Y-135651082D01*
X123650893Y-135504253D01*
X123569312Y-135306812D01*
X123418383Y-135155619D01*
X123221084Y-135073694D01*
X123007453Y-135073507D01*
X122810012Y-135155088D01*
X122658819Y-135306017D01*
X122576894Y-135503316D01*
X122576707Y-135716947D01*
X103825285Y-135716947D01*
X103695583Y-135587019D01*
X103498284Y-135505094D01*
X103284653Y-135504907D01*
X103087212Y-135586488D01*
X102936019Y-135737417D01*
X102854094Y-135934716D01*
X102853907Y-136148347D01*
X90272736Y-136148347D01*
X90410288Y-136091512D01*
X90561481Y-135940583D01*
X90643406Y-135743284D01*
X90643593Y-135529653D01*
X90562012Y-135332212D01*
X90411083Y-135181019D01*
X90213784Y-135099094D01*
X90000153Y-135098907D01*
X89802712Y-135180488D01*
X89651519Y-135331417D01*
X89569594Y-135528716D01*
X89569407Y-135742347D01*
X85138000Y-135742347D01*
X85138000Y-133189347D01*
X102840907Y-133189347D01*
X102922488Y-133386788D01*
X103073417Y-133537981D01*
X103270716Y-133619906D01*
X103484347Y-133620093D01*
X103634751Y-133557947D01*
X120811407Y-133557947D01*
X120892988Y-133755388D01*
X121043917Y-133906581D01*
X121241216Y-133988506D01*
X121454847Y-133988693D01*
X121652288Y-133907112D01*
X121803481Y-133756183D01*
X121885406Y-133558884D01*
X121885593Y-133345253D01*
X121804012Y-133147812D01*
X121653083Y-132996619D01*
X121455784Y-132914694D01*
X121242153Y-132914507D01*
X121044712Y-132996088D01*
X120893519Y-133147017D01*
X120811594Y-133344316D01*
X120811407Y-133557947D01*
X103634751Y-133557947D01*
X103681788Y-133538512D01*
X103832981Y-133387583D01*
X103914906Y-133190284D01*
X103915093Y-132976653D01*
X103833512Y-132779212D01*
X103812185Y-132757847D01*
X119998607Y-132757847D01*
X120080188Y-132955288D01*
X120231117Y-133106481D01*
X120428416Y-133188406D01*
X120642047Y-133188593D01*
X120839488Y-133107012D01*
X120990681Y-132956083D01*
X121072606Y-132758784D01*
X121072793Y-132545153D01*
X120991212Y-132347712D01*
X120840283Y-132196519D01*
X120642984Y-132114594D01*
X120429353Y-132114407D01*
X120231912Y-132195988D01*
X120080719Y-132346917D01*
X119998794Y-132544216D01*
X119998607Y-132757847D01*
X103812185Y-132757847D01*
X103682583Y-132628019D01*
X103485284Y-132546094D01*
X103271653Y-132545907D01*
X103074212Y-132627488D01*
X102923019Y-132778417D01*
X102841094Y-132975716D01*
X102840907Y-133189347D01*
X85138000Y-133189347D01*
X85138000Y-131437347D01*
X102281907Y-131437347D01*
X102363488Y-131634788D01*
X102514417Y-131785981D01*
X102711716Y-131867906D01*
X102925347Y-131868093D01*
X103122788Y-131786512D01*
X103273981Y-131635583D01*
X103355906Y-131438284D01*
X103356017Y-131310347D01*
X109190907Y-131310347D01*
X109272488Y-131507788D01*
X109423417Y-131658981D01*
X109620716Y-131740906D01*
X109834347Y-131741093D01*
X110031788Y-131659512D01*
X110182981Y-131508583D01*
X110217958Y-131424347D01*
X111242988Y-131424347D01*
X111324569Y-131621788D01*
X111475498Y-131772981D01*
X111672797Y-131854906D01*
X111886428Y-131855093D01*
X112083869Y-131773512D01*
X112235062Y-131622583D01*
X112316987Y-131425284D01*
X112317174Y-131211653D01*
X112235593Y-131014212D01*
X112084664Y-130863019D01*
X111887365Y-130781094D01*
X111673734Y-130780907D01*
X111476293Y-130862488D01*
X111325100Y-131013417D01*
X111243175Y-131210716D01*
X111242988Y-131424347D01*
X110217958Y-131424347D01*
X110264906Y-131311284D01*
X110265093Y-131097653D01*
X110183512Y-130900212D01*
X110032583Y-130749019D01*
X109835284Y-130667094D01*
X109621653Y-130666907D01*
X109424212Y-130748488D01*
X109273019Y-130899417D01*
X109191094Y-131096716D01*
X109190907Y-131310347D01*
X103356017Y-131310347D01*
X103356093Y-131224653D01*
X103274512Y-131027212D01*
X103123583Y-130876019D01*
X102926284Y-130794094D01*
X102712653Y-130793907D01*
X102515212Y-130875488D01*
X102364019Y-131026417D01*
X102282094Y-131223716D01*
X102281907Y-131437347D01*
X85138000Y-131437347D01*
X85138000Y-130214347D01*
X117422907Y-130214347D01*
X117504488Y-130411788D01*
X117655417Y-130562981D01*
X117852716Y-130644906D01*
X118066347Y-130645093D01*
X118263788Y-130563512D01*
X118414981Y-130412583D01*
X118493142Y-130224347D01*
X121196887Y-130224347D01*
X121278468Y-130421788D01*
X121429397Y-130572981D01*
X121626696Y-130654906D01*
X121840327Y-130655093D01*
X122037768Y-130573512D01*
X122188961Y-130422583D01*
X122270886Y-130225284D01*
X122271073Y-130011653D01*
X122189492Y-129814212D01*
X122038563Y-129663019D01*
X121841264Y-129581094D01*
X121627633Y-129580907D01*
X121430192Y-129662488D01*
X121278999Y-129813417D01*
X121197074Y-130010716D01*
X121196887Y-130224347D01*
X118493142Y-130224347D01*
X118496906Y-130215284D01*
X118497010Y-130096010D01*
X118591347Y-130096093D01*
X118788788Y-130014512D01*
X118939981Y-129863583D01*
X119021906Y-129666284D01*
X119022093Y-129452653D01*
X118940512Y-129255212D01*
X118789583Y-129104019D01*
X118592284Y-129022094D01*
X118378653Y-129021907D01*
X118181212Y-129103488D01*
X118030019Y-129254417D01*
X117948094Y-129451716D01*
X117947990Y-129570990D01*
X117853653Y-129570907D01*
X117656212Y-129652488D01*
X117505019Y-129803417D01*
X117423094Y-130000716D01*
X117422907Y-130214347D01*
X85138000Y-130214347D01*
X85138000Y-128064000D01*
X92964000Y-128064000D01*
X93079570Y-128041012D01*
X93177546Y-127975546D01*
X93243012Y-127877570D01*
X93266000Y-127762000D01*
X93266000Y-125158000D01*
X94635838Y-125158000D01*
X94719616Y-125579181D01*
X94958196Y-125936242D01*
X95315257Y-126174822D01*
X95736438Y-126258600D01*
X95779562Y-126258600D01*
X96200743Y-126174822D01*
X96557804Y-125936242D01*
X96796384Y-125579181D01*
X96880162Y-125158000D01*
X97175838Y-125158000D01*
X97259616Y-125579181D01*
X97498196Y-125936242D01*
X97855257Y-126174822D01*
X98276438Y-126258600D01*
X98319562Y-126258600D01*
X98740743Y-126174822D01*
X99097804Y-125936242D01*
X99336384Y-125579181D01*
X99420162Y-125158000D01*
X99715838Y-125158000D01*
X99799616Y-125579181D01*
X100038196Y-125936242D01*
X100395257Y-126174822D01*
X100816438Y-126258600D01*
X100859562Y-126258600D01*
X101280743Y-126174822D01*
X101637804Y-125936242D01*
X101876384Y-125579181D01*
X101960162Y-125158000D01*
X102255838Y-125158000D01*
X102339616Y-125579181D01*
X102578196Y-125936242D01*
X102935257Y-126174822D01*
X103356438Y-126258600D01*
X103399562Y-126258600D01*
X103820743Y-126174822D01*
X104177804Y-125936242D01*
X104416384Y-125579181D01*
X104500162Y-125158000D01*
X104795838Y-125158000D01*
X104879616Y-125579181D01*
X105118196Y-125936242D01*
X105475257Y-126174822D01*
X105896438Y-126258600D01*
X105939562Y-126258600D01*
X106360743Y-126174822D01*
X106717804Y-125936242D01*
X106956384Y-125579181D01*
X107040162Y-125158000D01*
X107335838Y-125158000D01*
X107419616Y-125579181D01*
X107658196Y-125936242D01*
X108015257Y-126174822D01*
X108436438Y-126258600D01*
X108479562Y-126258600D01*
X108900743Y-126174822D01*
X109257804Y-125936242D01*
X109496384Y-125579181D01*
X109580162Y-125158000D01*
X109875838Y-125158000D01*
X109959616Y-125579181D01*
X110198196Y-125936242D01*
X110555257Y-126174822D01*
X110976438Y-126258600D01*
X111019562Y-126258600D01*
X111440743Y-126174822D01*
X111797804Y-125936242D01*
X112036384Y-125579181D01*
X112120162Y-125158000D01*
X112036384Y-124736819D01*
X111797804Y-124379758D01*
X111440743Y-124141178D01*
X111019562Y-124057400D01*
X110976438Y-124057400D01*
X110555257Y-124141178D01*
X110198196Y-124379758D01*
X109959616Y-124736819D01*
X109875838Y-125158000D01*
X109580162Y-125158000D01*
X109496384Y-124736819D01*
X109257804Y-124379758D01*
X108900743Y-124141178D01*
X108479562Y-124057400D01*
X108436438Y-124057400D01*
X108015257Y-124141178D01*
X107658196Y-124379758D01*
X107419616Y-124736819D01*
X107335838Y-125158000D01*
X107040162Y-125158000D01*
X106956384Y-124736819D01*
X106717804Y-124379758D01*
X106360743Y-124141178D01*
X105939562Y-124057400D01*
X105896438Y-124057400D01*
X105475257Y-124141178D01*
X105118196Y-124379758D01*
X104879616Y-124736819D01*
X104795838Y-125158000D01*
X104500162Y-125158000D01*
X104416384Y-124736819D01*
X104177804Y-124379758D01*
X103820743Y-124141178D01*
X103399562Y-124057400D01*
X103356438Y-124057400D01*
X102935257Y-124141178D01*
X102578196Y-124379758D01*
X102339616Y-124736819D01*
X102255838Y-125158000D01*
X101960162Y-125158000D01*
X101876384Y-124736819D01*
X101637804Y-124379758D01*
X101280743Y-124141178D01*
X100859562Y-124057400D01*
X100816438Y-124057400D01*
X100395257Y-124141178D01*
X100038196Y-124379758D01*
X99799616Y-124736819D01*
X99715838Y-125158000D01*
X99420162Y-125158000D01*
X99336384Y-124736819D01*
X99097804Y-124379758D01*
X98740743Y-124141178D01*
X98319562Y-124057400D01*
X98276438Y-124057400D01*
X97855257Y-124141178D01*
X97498196Y-124379758D01*
X97259616Y-124736819D01*
X97175838Y-125158000D01*
X96880162Y-125158000D01*
X96796384Y-124736819D01*
X96557804Y-124379758D01*
X96200743Y-124141178D01*
X95779562Y-124057400D01*
X95736438Y-124057400D01*
X95315257Y-124141178D01*
X94958196Y-124379758D01*
X94719616Y-124736819D01*
X94635838Y-125158000D01*
X93266000Y-125158000D01*
X93266000Y-121754400D01*
X94652757Y-121754400D01*
X94652757Y-123481600D01*
X94669283Y-123569427D01*
X94721188Y-123650091D01*
X94800387Y-123704205D01*
X94894400Y-123723243D01*
X96621600Y-123723243D01*
X96709427Y-123706717D01*
X96790091Y-123654812D01*
X96844205Y-123575613D01*
X96863243Y-123481600D01*
X96863243Y-122618000D01*
X97175838Y-122618000D01*
X97259616Y-123039181D01*
X97498196Y-123396242D01*
X97855257Y-123634822D01*
X98276438Y-123718600D01*
X98319562Y-123718600D01*
X98740743Y-123634822D01*
X99097804Y-123396242D01*
X99336384Y-123039181D01*
X99420162Y-122618000D01*
X99715838Y-122618000D01*
X99799616Y-123039181D01*
X100038196Y-123396242D01*
X100395257Y-123634822D01*
X100816438Y-123718600D01*
X100859562Y-123718600D01*
X101280743Y-123634822D01*
X101637804Y-123396242D01*
X101876384Y-123039181D01*
X101960162Y-122618000D01*
X102255838Y-122618000D01*
X102339616Y-123039181D01*
X102578196Y-123396242D01*
X102935257Y-123634822D01*
X103356438Y-123718600D01*
X103399562Y-123718600D01*
X103820743Y-123634822D01*
X104177804Y-123396242D01*
X104416384Y-123039181D01*
X104500162Y-122618000D01*
X104795838Y-122618000D01*
X104879616Y-123039181D01*
X105118196Y-123396242D01*
X105475257Y-123634822D01*
X105896438Y-123718600D01*
X105939562Y-123718600D01*
X106360743Y-123634822D01*
X106717804Y-123396242D01*
X106956384Y-123039181D01*
X107040162Y-122618000D01*
X107335838Y-122618000D01*
X107419616Y-123039181D01*
X107658196Y-123396242D01*
X108015257Y-123634822D01*
X108436438Y-123718600D01*
X108479562Y-123718600D01*
X108900743Y-123634822D01*
X109257804Y-123396242D01*
X109496384Y-123039181D01*
X109580162Y-122618000D01*
X109875838Y-122618000D01*
X109959616Y-123039181D01*
X110198196Y-123396242D01*
X110555257Y-123634822D01*
X110976438Y-123718600D01*
X111019562Y-123718600D01*
X111440743Y-123634822D01*
X111797804Y-123396242D01*
X112036384Y-123039181D01*
X112094900Y-122745002D01*
X112204182Y-122745002D01*
X112083042Y-122977026D01*
X112255312Y-123392947D01*
X112649510Y-123824821D01*
X113178973Y-124072968D01*
X113410998Y-123952470D01*
X113410998Y-124078373D01*
X113095257Y-124141178D01*
X112738196Y-124379758D01*
X112499616Y-124736819D01*
X112415838Y-125158000D01*
X112499616Y-125579181D01*
X112738196Y-125936242D01*
X113095257Y-126174822D01*
X113516438Y-126258600D01*
X113559562Y-126258600D01*
X113980743Y-126174822D01*
X114337804Y-125936242D01*
X114576384Y-125579181D01*
X114660162Y-125158000D01*
X114576384Y-124736819D01*
X114337804Y-124379758D01*
X113980743Y-124141178D01*
X113665002Y-124078373D01*
X113665002Y-123952470D01*
X113897027Y-124072968D01*
X114426490Y-123824821D01*
X114820688Y-123392947D01*
X114992958Y-122977026D01*
X114871817Y-122745000D01*
X113665000Y-122745000D01*
X113665000Y-122765000D01*
X113411000Y-122765000D01*
X113411000Y-122745000D01*
X113391000Y-122745000D01*
X113391000Y-122491000D01*
X113411000Y-122491000D01*
X113411000Y-121283531D01*
X113665000Y-121283531D01*
X113665000Y-122491000D01*
X114871817Y-122491000D01*
X114992958Y-122258974D01*
X114820688Y-121843053D01*
X114426490Y-121411179D01*
X113897027Y-121163032D01*
X113665000Y-121283531D01*
X113411000Y-121283531D01*
X113178973Y-121163032D01*
X112649510Y-121411179D01*
X112255312Y-121843053D01*
X112083042Y-122258974D01*
X112204182Y-122490998D01*
X112094900Y-122490998D01*
X112036384Y-122196819D01*
X111797804Y-121839758D01*
X111440743Y-121601178D01*
X111019562Y-121517400D01*
X110976438Y-121517400D01*
X110555257Y-121601178D01*
X110198196Y-121839758D01*
X109959616Y-122196819D01*
X109875838Y-122618000D01*
X109580162Y-122618000D01*
X109496384Y-122196819D01*
X109257804Y-121839758D01*
X108900743Y-121601178D01*
X108479562Y-121517400D01*
X108436438Y-121517400D01*
X108015257Y-121601178D01*
X107658196Y-121839758D01*
X107419616Y-122196819D01*
X107335838Y-122618000D01*
X107040162Y-122618000D01*
X106956384Y-122196819D01*
X106717804Y-121839758D01*
X106360743Y-121601178D01*
X105939562Y-121517400D01*
X105896438Y-121517400D01*
X105475257Y-121601178D01*
X105118196Y-121839758D01*
X104879616Y-122196819D01*
X104795838Y-122618000D01*
X104500162Y-122618000D01*
X104416384Y-122196819D01*
X104177804Y-121839758D01*
X103820743Y-121601178D01*
X103399562Y-121517400D01*
X103356438Y-121517400D01*
X102935257Y-121601178D01*
X102578196Y-121839758D01*
X102339616Y-122196819D01*
X102255838Y-122618000D01*
X101960162Y-122618000D01*
X101876384Y-122196819D01*
X101637804Y-121839758D01*
X101280743Y-121601178D01*
X100859562Y-121517400D01*
X100816438Y-121517400D01*
X100395257Y-121601178D01*
X100038196Y-121839758D01*
X99799616Y-122196819D01*
X99715838Y-122618000D01*
X99420162Y-122618000D01*
X99336384Y-122196819D01*
X99097804Y-121839758D01*
X98740743Y-121601178D01*
X98319562Y-121517400D01*
X98276438Y-121517400D01*
X97855257Y-121601178D01*
X97498196Y-121839758D01*
X97259616Y-122196819D01*
X97175838Y-122618000D01*
X96863243Y-122618000D01*
X96863243Y-121754400D01*
X96846717Y-121666573D01*
X96794812Y-121585909D01*
X96715613Y-121531795D01*
X96621600Y-121512757D01*
X94894400Y-121512757D01*
X94806573Y-121529283D01*
X94725909Y-121581188D01*
X94671795Y-121660387D01*
X94652757Y-121754400D01*
X93266000Y-121754400D01*
X93266000Y-120444000D01*
X115268000Y-120444000D01*
X115268000Y-127508000D01*
M02*
