G04 #@! TF.FileFunction,Copper,L3,Inr,Signal*
%FSLAX46Y46*%
G04 Gerber Fmt 4.6, Leading zero omitted, Abs format (unit mm)*
G04 Created by KiCad (PCBNEW 4.0.0-rc1-stable) date Sun 22 Nov 2015 09:54:25 PM ICT*
%MOMM*%
G01*
G04 APERTURE LIST*
%ADD10C,0.100000*%
%ADD11R,1.727200X1.727200*%
%ADD12O,1.727200X1.727200*%
%ADD13C,0.600000*%
%ADD14C,0.300000*%
%ADD15C,0.150000*%
%ADD16C,0.254000*%
G04 APERTURE END LIST*
D10*
D11*
X95821500Y-157670000D03*
D12*
X95821500Y-160210000D03*
X98361500Y-157670000D03*
X98361500Y-160210000D03*
X100901500Y-157670000D03*
X100901500Y-160210000D03*
X103441500Y-157670000D03*
X103441500Y-160210000D03*
X105981500Y-157670000D03*
X105981500Y-160210000D03*
X108521500Y-157670000D03*
X108521500Y-160210000D03*
X111061500Y-157670000D03*
X111061500Y-160210000D03*
X113601500Y-157670000D03*
X113601500Y-160210000D03*
D11*
X95758000Y-122618000D03*
D12*
X95758000Y-125158000D03*
X98298000Y-122618000D03*
X98298000Y-125158000D03*
X100838000Y-122618000D03*
X100838000Y-125158000D03*
X103378000Y-122618000D03*
X103378000Y-125158000D03*
X105918000Y-122618000D03*
X105918000Y-125158000D03*
X108458000Y-122618000D03*
X108458000Y-125158000D03*
X110998000Y-122618000D03*
X110998000Y-125158000D03*
X113538000Y-122618000D03*
X113538000Y-125158000D03*
D13*
X106066000Y-151089000D03*
X96258100Y-145738000D03*
X108392000Y-148783000D03*
X100999000Y-150260000D03*
X111875175Y-145968013D03*
X104070000Y-145087000D03*
X101854000Y-152394000D03*
X95423400Y-149509000D03*
X102608000Y-145087000D03*
X107239000Y-150725000D03*
X110048526Y-150687849D03*
X94000500Y-145378000D03*
X94767400Y-147637500D03*
X102677000Y-151989000D03*
X87541100Y-146850100D03*
X101602000Y-145687000D03*
X89077800Y-144411700D03*
X109696000Y-141708000D03*
X106946700Y-147853400D03*
X103454000Y-147489000D03*
X106944000Y-148638000D03*
X100249000Y-150014000D03*
X90129360Y-146921220D03*
X90678500Y-139615000D03*
X89154000Y-143637000D03*
X108797000Y-139580000D03*
X107721400Y-142227300D03*
X88589569Y-144956574D03*
X108954000Y-141591000D03*
X107746800Y-143052800D03*
X91361700Y-146059000D03*
X90632280Y-146029680D03*
X106949000Y-143050000D03*
X108686167Y-143663185D03*
X90170000Y-144704000D03*
X86850400Y-146519000D03*
X106959000Y-145454000D03*
X96172020Y-142062200D03*
X97706180Y-142067280D03*
X112857280Y-146159220D03*
X114942620Y-143047720D03*
X110147100Y-147129500D03*
X118935500Y-147840700D03*
X117868700Y-141008100D03*
X108369100Y-145465800D03*
X114134980Y-140640000D03*
X93791480Y-141408000D03*
X87947696Y-141858000D03*
X89455898Y-149617794D03*
X108630394Y-137385753D03*
X104648000Y-156159200D03*
X103124000Y-156057600D03*
X85859020Y-142418000D03*
X86601320Y-137439000D03*
X86868000Y-153529980D03*
X92798900Y-154191020D03*
X116631486Y-145044030D03*
X109601000Y-156159200D03*
X111846980Y-129585000D03*
X118318000Y-152649000D03*
X99300900Y-148729000D03*
X108991000Y-127140000D03*
X104966000Y-127178000D03*
X112897000Y-129317000D03*
X109313000Y-129577000D03*
X123584000Y-129565000D03*
X124270000Y-145720000D03*
X124396000Y-148895000D03*
X122149000Y-152883000D03*
X100368000Y-155080000D03*
X96443800Y-155156000D03*
X91681300Y-150978000D03*
X100825000Y-135382000D03*
X97548700Y-135484000D03*
X94361000Y-135420000D03*
X91440000Y-135674000D03*
X108632000Y-138849000D03*
X109220000Y-142672000D03*
X92134900Y-140951000D03*
X89342300Y-140853000D03*
X96520000Y-149454000D03*
X97637900Y-144754000D03*
X94684700Y-149639000D03*
X93634700Y-149833000D03*
X97616800Y-149312000D03*
X91554000Y-149454000D03*
X86334600Y-149403000D03*
X91107260Y-141302740D03*
X109928000Y-144922000D03*
X95580200Y-146799300D03*
X108615000Y-150346000D03*
X89204800Y-142887700D03*
X101002000Y-139704000D03*
X87559547Y-144895117D03*
X101732000Y-139530000D03*
X107746800Y-139052300D03*
X88365100Y-148436000D03*
X91564460Y-147642580D03*
X104058000Y-143137000D03*
X106946700Y-144653000D03*
X92103300Y-144758000D03*
X109347000Y-149440900D03*
X95329200Y-145151000D03*
X103454000Y-151689000D03*
X94741700Y-146159000D03*
X106146600Y-149453600D03*
X100972000Y-145280000D03*
X103475000Y-149439000D03*
X100266000Y-146059000D03*
X98036380Y-146733260D03*
X106146600Y-148640800D03*
X99519300Y-145703000D03*
X101194000Y-147049000D03*
X97955100Y-147637500D03*
X101014000Y-148909000D03*
X97132140Y-146679920D03*
X102437000Y-149216000D03*
X92054300Y-146886000D03*
X99906700Y-143455000D03*
X91325700Y-146784060D03*
X101690000Y-143201000D03*
X121733980Y-130118000D03*
X121348500Y-133451600D03*
X123113800Y-135610600D03*
X123557000Y-136188000D03*
X118485000Y-129559000D03*
X120535700Y-132651500D03*
X121361200Y-137464800D03*
X122947000Y-137447000D03*
X123413000Y-138105000D03*
X123705980Y-139127000D03*
X122174000Y-140627100D03*
X121373900Y-141414500D03*
X123352020Y-140864000D03*
X123366000Y-142567020D03*
X123662000Y-149045000D03*
X111744760Y-147845780D03*
X107784900Y-147091400D03*
X106934000Y-138239500D03*
X89166700Y-148437600D03*
X92379800Y-137935000D03*
X92875000Y-140815000D03*
X90629740Y-141848840D03*
X109402880Y-139992100D03*
X109280960Y-137883900D03*
X108948220Y-136745980D03*
X96918780Y-142085060D03*
X93154500Y-143637000D03*
X110977010Y-144957800D03*
X109838077Y-145750045D03*
X94841520Y-141619020D03*
X86917674Y-141713726D03*
X87087161Y-149471627D03*
X108915200Y-145008602D03*
X88991180Y-141634000D03*
X101867000Y-153149000D03*
X97320100Y-152819000D03*
X92748100Y-152641000D03*
X86893400Y-150254000D03*
X101790000Y-137782000D03*
X98336100Y-137846000D03*
X95186500Y-137808000D03*
X90106500Y-135636000D03*
X86639400Y-140526000D03*
X88696800Y-149377000D03*
X93072700Y-146455000D03*
X90728800Y-149352000D03*
X95305300Y-150405000D03*
X97024700Y-150310000D03*
X92612000Y-149414000D03*
X98892100Y-147653000D03*
X109425778Y-143687482D03*
X102920800Y-153847800D03*
X123431020Y-143421000D03*
X118847000Y-152118000D03*
X109728000Y-131204000D03*
X103391000Y-136042000D03*
X117335000Y-139040000D03*
X111747000Y-139827000D03*
X113433860Y-144716500D03*
X114939600Y-145124300D03*
X118948200Y-148653500D03*
X114478957Y-145728307D03*
X106400600Y-153771600D03*
X111780081Y-131318000D03*
X117094000Y-146050000D03*
X119078446Y-137995554D03*
X118332020Y-142690042D03*
X116713000Y-153772000D03*
X119232000Y-152801000D03*
X123596000Y-153518000D03*
X117960000Y-130108000D03*
X102819000Y-131331000D03*
X123482000Y-146596000D03*
X122415000Y-152121000D03*
X103378000Y-133083000D03*
X116548000Y-139890000D03*
X110947000Y-138240000D03*
X119748300Y-140639800D03*
X113886278Y-145285194D03*
X118805864Y-139923986D03*
X114940080Y-148645880D03*
X118191830Y-139493312D03*
X110273000Y-136654300D03*
X118370000Y-143878000D03*
X118783100Y-145910300D03*
X118491809Y-145194000D03*
X123044000Y-139774000D03*
X110337600Y-151409400D03*
X112090196Y-144907000D03*
D14*
X111744760Y-147845780D02*
X110949540Y-148641000D01*
X110949540Y-148641000D02*
X109334500Y-148641000D01*
X109334500Y-148641000D02*
X107784900Y-147091400D01*
X107341400Y-147091400D02*
X106346000Y-146096000D01*
X107784900Y-147091400D02*
X107341400Y-147091400D01*
X106346000Y-146096000D02*
X106346000Y-143880000D01*
X106934000Y-138239500D02*
X106346000Y-138827500D01*
X106346000Y-138827500D02*
X106346000Y-143880000D01*
X92655200Y-143066000D02*
X92875000Y-143066000D01*
X89166700Y-146554500D02*
X92655200Y-143066000D01*
X89166700Y-148437600D02*
X89166700Y-146554500D01*
X101481000Y-143880000D02*
X106346000Y-143880000D01*
X100456000Y-142855000D02*
X101481000Y-143880000D01*
X99618700Y-142855000D02*
X100456000Y-142855000D01*
X99407400Y-143066000D02*
X99618700Y-142855000D01*
X92875000Y-143066000D02*
X99407400Y-143066000D01*
X92379800Y-140320000D02*
X92875000Y-140815000D01*
X92379800Y-137935000D02*
X92379800Y-140320000D01*
X92875000Y-140815000D02*
X92875000Y-143066000D01*
D15*
X109425778Y-143586238D02*
X109123480Y-143283940D01*
X109425778Y-143687482D02*
X109425778Y-143586238D01*
X109402880Y-139992100D02*
X109250480Y-139992100D01*
X109280960Y-137883900D02*
X109047280Y-137883900D01*
D14*
X109838077Y-145750045D02*
X110184765Y-145750045D01*
X110184765Y-145750045D02*
X110977010Y-144957800D01*
X109838077Y-145750045D02*
X109096634Y-145008602D01*
X109096634Y-145008602D02*
X108915200Y-145008602D01*
X109215199Y-144708603D02*
X108915200Y-145008602D01*
X109425778Y-144498024D02*
X109215199Y-144708603D01*
X97197900Y-159046000D02*
X97197900Y-154491000D01*
X98361500Y-160210000D02*
X97197900Y-159046000D01*
X109425778Y-143687482D02*
X109425778Y-144498024D01*
X109530198Y-143687482D02*
X109425778Y-143687482D01*
X105943400Y-152908000D02*
X110515400Y-152908000D01*
X105003600Y-153847800D02*
X105943400Y-152908000D01*
X102920800Y-153847800D02*
X105003600Y-153847800D01*
X100914000Y-155448000D02*
X101320600Y-155448000D01*
X101320600Y-155448000D02*
X102620801Y-154147799D01*
X102920800Y-153847800D02*
X102620801Y-154147799D01*
X100038000Y-159346000D02*
X100902000Y-160210000D01*
X99737900Y-159046000D02*
X100038000Y-159346000D01*
X99737900Y-156624000D02*
X99737900Y-159046000D01*
X100914000Y-155448000D02*
X99737900Y-156624000D01*
X109728000Y-131204000D02*
X110300000Y-131204000D01*
X103391000Y-136042000D02*
X110261000Y-136042000D01*
X118948200Y-148653500D02*
X118536236Y-148653500D01*
X118536236Y-148653500D02*
X117094000Y-147211264D01*
X117094000Y-147211264D02*
X117094000Y-146474264D01*
X117094000Y-146474264D02*
X117094000Y-146050000D01*
X118948200Y-148653500D02*
X118948200Y-148654200D01*
X118948200Y-148654200D02*
X122415000Y-152121000D01*
X114778956Y-146028306D02*
X114478957Y-145728307D01*
X117094000Y-146050000D02*
X114800650Y-146050000D01*
X114800650Y-146050000D02*
X114778956Y-146028306D01*
X106400600Y-153771600D02*
X107238800Y-154609800D01*
X107238800Y-154609800D02*
X107238800Y-158829847D01*
X107238800Y-158829847D02*
X107234647Y-158834000D01*
X107234647Y-158834000D02*
X107303047Y-158902400D01*
X107303047Y-158902400D02*
X114091600Y-158902400D01*
X114091600Y-158902400D02*
X115239800Y-157754200D01*
X115239800Y-157754200D02*
X115239800Y-154686000D01*
X115239800Y-154686000D02*
X115858800Y-154067000D01*
X115858800Y-154067000D02*
X116703000Y-154067000D01*
X107234647Y-158834000D02*
X107140847Y-158927800D01*
X107140847Y-158927800D02*
X104723700Y-158927800D01*
X104723700Y-158927800D02*
X103441500Y-160210000D01*
X111780081Y-131318000D02*
X111780081Y-131833035D01*
X111780081Y-131833035D02*
X111734600Y-131878516D01*
X110947000Y-138240000D02*
X111734600Y-137452400D01*
X111734600Y-137452400D02*
X111734600Y-131878516D01*
X102031800Y-161620200D02*
X102031800Y-161619700D01*
X102031800Y-161619700D02*
X103441500Y-160210000D01*
X104724000Y-128702000D02*
X102779608Y-128702000D01*
X102779608Y-128702000D02*
X88392000Y-128702000D01*
X102819000Y-131331000D02*
X102819000Y-128741392D01*
X102819000Y-128741392D02*
X102779608Y-128702000D01*
X88392000Y-128702000D02*
X86001300Y-131093000D01*
X86001300Y-131093000D02*
X86001300Y-141687078D01*
X86449021Y-142134799D02*
X86449021Y-142682979D01*
X86001300Y-141687078D02*
X86449021Y-142134799D01*
X86449021Y-142682979D02*
X85471000Y-143661000D01*
X85471000Y-153390600D02*
X86309200Y-154228800D01*
X85471000Y-143661000D02*
X85471000Y-153390600D01*
X93548200Y-153517600D02*
X94386400Y-154355800D01*
X91668600Y-153517600D02*
X93548200Y-153517600D01*
X90957400Y-154228800D02*
X91668600Y-153517600D01*
X86309200Y-154228800D02*
X90957400Y-154228800D01*
X94386400Y-154355800D02*
X94386400Y-160756600D01*
X95250000Y-161620200D02*
X102031800Y-161620200D01*
X94386400Y-160756600D02*
X95250000Y-161620200D01*
X111780081Y-130893736D02*
X111780081Y-131318000D01*
X111780081Y-130810018D02*
X111780081Y-130893736D01*
X111780099Y-130810000D02*
X111780081Y-130810018D01*
X104724000Y-128702000D02*
X109672099Y-128702000D01*
X109672099Y-128702000D02*
X111780099Y-130810000D01*
X124031021Y-145069979D02*
X123482000Y-145619000D01*
X116548000Y-139890000D02*
X116548000Y-138544000D01*
X124031021Y-142344021D02*
X124031021Y-145069979D01*
X123321000Y-141967000D02*
X122752000Y-141398000D01*
X123654000Y-141967000D02*
X123321000Y-141967000D01*
X122752000Y-141398000D02*
X122752000Y-140331000D01*
X122752000Y-140331000D02*
X120416554Y-137995554D01*
X120416554Y-137995554D02*
X119502710Y-137995554D01*
X119502710Y-137995554D02*
X119078446Y-137995554D01*
X116548000Y-138544000D02*
X117096446Y-137995554D01*
X117096446Y-137995554D02*
X118654182Y-137995554D01*
X123482000Y-146171736D02*
X123482000Y-146596000D01*
X123482000Y-145619000D02*
X123482000Y-146171736D01*
X124031000Y-142344000D02*
X124031021Y-142344021D01*
X116548000Y-140906022D02*
X118032021Y-142390043D01*
X116548000Y-139890000D02*
X116548000Y-140906022D01*
X124031000Y-142344000D02*
X123654000Y-141967000D01*
X118654182Y-137995554D02*
X119078446Y-137995554D01*
X118032021Y-142390043D02*
X118332020Y-142690042D01*
X116713000Y-154057000D02*
X116703000Y-154067000D01*
X116713000Y-153772000D02*
X116713000Y-154057000D01*
X123182000Y-146896000D02*
X123482000Y-146596000D01*
X123062000Y-147017000D02*
X123182000Y-146896000D01*
X123062000Y-151474000D02*
X123062000Y-147017000D01*
X122415000Y-152121000D02*
X123062000Y-151474000D01*
X124306000Y-142069000D02*
X124031000Y-142344000D01*
X124306000Y-129400000D02*
X124306000Y-142069000D01*
X123866000Y-128959000D02*
X124306000Y-129400000D01*
X118197000Y-128959000D02*
X123866000Y-128959000D01*
X117660000Y-129496000D02*
X118197000Y-128959000D01*
X117660000Y-129808000D02*
X117660000Y-129496000D01*
X117960000Y-130108000D02*
X117660000Y-129808000D01*
X103365000Y-131331000D02*
X102819000Y-131331000D01*
X103378000Y-131343000D02*
X103365000Y-131331000D01*
X103378000Y-133083000D02*
X103378000Y-131343000D01*
X123596000Y-153302000D02*
X123596000Y-153518000D01*
X122415000Y-152121000D02*
X123596000Y-153302000D01*
X119232000Y-153225000D02*
X118390000Y-154067000D01*
X119232000Y-152801000D02*
X119232000Y-153225000D01*
X118390000Y-154067000D02*
X118187000Y-154067000D01*
X119324000Y-154067000D02*
X118390000Y-154067000D01*
X121270000Y-152121000D02*
X119324000Y-154067000D01*
X122415000Y-152121000D02*
X121270000Y-152121000D01*
X118390000Y-154067000D02*
X118187000Y-154067000D01*
X118187000Y-154067000D02*
X116703000Y-154067000D01*
X110998000Y-122618000D02*
X112268000Y-123888000D01*
X112268000Y-123888000D02*
X112268000Y-125857000D01*
X112268000Y-125857000D02*
X114735000Y-128324000D01*
X114735000Y-128324000D02*
X114735000Y-141437000D01*
X114735000Y-141437000D02*
X118492000Y-145194000D01*
X118492000Y-145194000D02*
X118491809Y-145194000D01*
D16*
G36*
X102432000Y-130958555D02*
X102364019Y-131026417D01*
X102282094Y-131223716D01*
X102281907Y-131437347D01*
X102363488Y-131634788D01*
X102514417Y-131785981D01*
X102711716Y-131867906D01*
X102925347Y-131868093D01*
X102991000Y-131840966D01*
X102991000Y-132710555D01*
X102923019Y-132778417D01*
X102841094Y-132975716D01*
X102840907Y-133189347D01*
X102922488Y-133386788D01*
X103073417Y-133537981D01*
X103270716Y-133619906D01*
X103484347Y-133620093D01*
X103681788Y-133538512D01*
X103832981Y-133387583D01*
X103914906Y-133190284D01*
X103915093Y-132976653D01*
X103833512Y-132779212D01*
X103765000Y-132710580D01*
X103765000Y-131343000D01*
X103763467Y-131335292D01*
X103764690Y-131327533D01*
X103748792Y-131261520D01*
X103735541Y-131194902D01*
X103731176Y-131188369D01*
X103729336Y-131180730D01*
X103689374Y-131125808D01*
X103651650Y-131069350D01*
X103645119Y-131064986D01*
X103640495Y-131058631D01*
X103627494Y-131046631D01*
X103569562Y-131011187D01*
X103513098Y-130973459D01*
X103505391Y-130971926D01*
X103498690Y-130967826D01*
X103431622Y-130957252D01*
X103365000Y-130944000D01*
X103206000Y-130944000D01*
X103206000Y-129089000D01*
X109087839Y-129089000D01*
X109009212Y-129121488D01*
X108858019Y-129272417D01*
X108776094Y-129469716D01*
X108775907Y-129683347D01*
X108857488Y-129880788D01*
X109008417Y-130031981D01*
X109205716Y-130113906D01*
X109397800Y-130114074D01*
X109397800Y-130774854D01*
X109273019Y-130899417D01*
X109191094Y-131096716D01*
X109190907Y-131310347D01*
X109272488Y-131507788D01*
X109397800Y-131633319D01*
X109397800Y-135655000D01*
X103763445Y-135655000D01*
X103695583Y-135587019D01*
X103498284Y-135505094D01*
X103284653Y-135504907D01*
X103087212Y-135586488D01*
X102936019Y-135737417D01*
X102854094Y-135934716D01*
X102853907Y-136148347D01*
X102935488Y-136345788D01*
X103086417Y-136496981D01*
X103283716Y-136578906D01*
X103497347Y-136579093D01*
X103694788Y-136497512D01*
X103763420Y-136429000D01*
X109397800Y-136429000D01*
X109397800Y-141250179D01*
X109392212Y-141252488D01*
X109383515Y-141261170D01*
X109258583Y-141136019D01*
X109061284Y-141054094D01*
X108847653Y-141053907D01*
X108650212Y-141135488D01*
X108499019Y-141286417D01*
X108417094Y-141483716D01*
X108416907Y-141697347D01*
X108498488Y-141894788D01*
X108649417Y-142045981D01*
X108846716Y-142127906D01*
X109060347Y-142128093D01*
X109257788Y-142046512D01*
X109266485Y-142037830D01*
X109389274Y-142160834D01*
X109327284Y-142135094D01*
X109113653Y-142134907D01*
X108916212Y-142216488D01*
X108765019Y-142367417D01*
X108683094Y-142564716D01*
X108682907Y-142778347D01*
X108764488Y-142975788D01*
X108915417Y-143126981D01*
X109112716Y-143208906D01*
X109326347Y-143209093D01*
X109397800Y-143179569D01*
X109397800Y-144798566D01*
X109391094Y-144814716D01*
X109390907Y-145028347D01*
X109397800Y-145045029D01*
X109397800Y-148156999D01*
X108321909Y-147081109D01*
X108321993Y-146985053D01*
X108240412Y-146787612D01*
X108089483Y-146636419D01*
X107892184Y-146554494D01*
X107678553Y-146554307D01*
X107481112Y-146635888D01*
X107457129Y-146659829D01*
X106743109Y-145945809D01*
X106851716Y-145990906D01*
X107065347Y-145991093D01*
X107262788Y-145909512D01*
X107413981Y-145758583D01*
X107491395Y-145572147D01*
X107832007Y-145572147D01*
X107913588Y-145769588D01*
X108064517Y-145920781D01*
X108261816Y-146002706D01*
X108475447Y-146002893D01*
X108672888Y-145921312D01*
X108824081Y-145770383D01*
X108906006Y-145573084D01*
X108906193Y-145359453D01*
X108824612Y-145162012D01*
X108673683Y-145010819D01*
X108476384Y-144928894D01*
X108262753Y-144928707D01*
X108065312Y-145010288D01*
X107914119Y-145161217D01*
X107832194Y-145358516D01*
X107832007Y-145572147D01*
X107491395Y-145572147D01*
X107495906Y-145561284D01*
X107496093Y-145347653D01*
X107414512Y-145150212D01*
X107311793Y-145047314D01*
X107401681Y-144957583D01*
X107483606Y-144760284D01*
X107483793Y-144546653D01*
X107402212Y-144349212D01*
X107251283Y-144198019D01*
X107053984Y-144116094D01*
X106840353Y-144115907D01*
X106733000Y-144160264D01*
X106733000Y-143769532D01*
X108149074Y-143769532D01*
X108230655Y-143966973D01*
X108381584Y-144118166D01*
X108578883Y-144200091D01*
X108792514Y-144200278D01*
X108989955Y-144118697D01*
X109141148Y-143967768D01*
X109223073Y-143770469D01*
X109223260Y-143556838D01*
X109141679Y-143359397D01*
X108990750Y-143208204D01*
X108793451Y-143126279D01*
X108579820Y-143126092D01*
X108382379Y-143207673D01*
X108231186Y-143358602D01*
X108149261Y-143555901D01*
X108149074Y-143769532D01*
X106733000Y-143769532D01*
X106733000Y-143541764D01*
X106841716Y-143586906D01*
X107055347Y-143587093D01*
X107252788Y-143505512D01*
X107346534Y-143411930D01*
X107442217Y-143507781D01*
X107639516Y-143589706D01*
X107853147Y-143589893D01*
X108050588Y-143508312D01*
X108201781Y-143357383D01*
X108283706Y-143160084D01*
X108283893Y-142946453D01*
X108202312Y-142749012D01*
X108080805Y-142627292D01*
X108176381Y-142531883D01*
X108258306Y-142334584D01*
X108258493Y-142120953D01*
X108176912Y-141923512D01*
X108025983Y-141772319D01*
X107828684Y-141690394D01*
X107615053Y-141690207D01*
X107417612Y-141771788D01*
X107266419Y-141922717D01*
X107184494Y-142120016D01*
X107184307Y-142333647D01*
X107265888Y-142531088D01*
X107387395Y-142652808D01*
X107349266Y-142690870D01*
X107253583Y-142595019D01*
X107056284Y-142513094D01*
X106842653Y-142512907D01*
X106733000Y-142558215D01*
X106733000Y-139158647D01*
X107209707Y-139158647D01*
X107291288Y-139356088D01*
X107442217Y-139507281D01*
X107639516Y-139589206D01*
X107853147Y-139589393D01*
X108050588Y-139507812D01*
X108201781Y-139356883D01*
X108254202Y-139230638D01*
X108327417Y-139303981D01*
X108329755Y-139304952D01*
X108260094Y-139472716D01*
X108259907Y-139686347D01*
X108341488Y-139883788D01*
X108492417Y-140034981D01*
X108689716Y-140116906D01*
X108903347Y-140117093D01*
X109100788Y-140035512D01*
X109251981Y-139884583D01*
X109333906Y-139687284D01*
X109334093Y-139473653D01*
X109252512Y-139276212D01*
X109101583Y-139125019D01*
X109099245Y-139124048D01*
X109168906Y-138956284D01*
X109169093Y-138742653D01*
X109087512Y-138545212D01*
X108936583Y-138394019D01*
X108739284Y-138312094D01*
X108525653Y-138311907D01*
X108328212Y-138393488D01*
X108177019Y-138544417D01*
X108124598Y-138670662D01*
X108051383Y-138597319D01*
X107854084Y-138515394D01*
X107640453Y-138515207D01*
X107443012Y-138596788D01*
X107291819Y-138747717D01*
X107209894Y-138945016D01*
X107209707Y-139158647D01*
X106733000Y-139158647D01*
X106733000Y-138987800D01*
X106944292Y-138776509D01*
X107040347Y-138776593D01*
X107237788Y-138695012D01*
X107388981Y-138544083D01*
X107470906Y-138346784D01*
X107471093Y-138133153D01*
X107389512Y-137935712D01*
X107238583Y-137784519D01*
X107041284Y-137702594D01*
X106827653Y-137702407D01*
X106630212Y-137783988D01*
X106479019Y-137934917D01*
X106397094Y-138132216D01*
X106397009Y-138229190D01*
X106072350Y-138553850D01*
X105988459Y-138679401D01*
X105985354Y-138695012D01*
X105959000Y-138827500D01*
X105959000Y-143493000D01*
X104461474Y-143493000D01*
X104512981Y-143441583D01*
X104594906Y-143244284D01*
X104595093Y-143030653D01*
X104513512Y-142833212D01*
X104362583Y-142682019D01*
X104165284Y-142600094D01*
X103951653Y-142599907D01*
X103754212Y-142681488D01*
X103603019Y-142832417D01*
X103521094Y-143029716D01*
X103520907Y-143243347D01*
X103602488Y-143440788D01*
X103654609Y-143493000D01*
X102150206Y-143493000D01*
X102226906Y-143308284D01*
X102227093Y-143094653D01*
X102145512Y-142897212D01*
X101994583Y-142746019D01*
X101797284Y-142664094D01*
X101583653Y-142663907D01*
X101386212Y-142745488D01*
X101235019Y-142896417D01*
X101179184Y-143030884D01*
X100729650Y-142581350D01*
X100604099Y-142497459D01*
X100456000Y-142468000D01*
X99618700Y-142468000D01*
X99544226Y-142482814D01*
X99470855Y-142497354D01*
X99470738Y-142497432D01*
X99470602Y-142497459D01*
X99408208Y-142539149D01*
X99345244Y-142581156D01*
X99247260Y-142679000D01*
X93262000Y-142679000D01*
X93262000Y-142168547D01*
X95634927Y-142168547D01*
X95716508Y-142365988D01*
X95867437Y-142517181D01*
X96064736Y-142599106D01*
X96278367Y-142599293D01*
X96475808Y-142517712D01*
X96627001Y-142366783D01*
X96707205Y-142173627D01*
X97169087Y-142173627D01*
X97250668Y-142371068D01*
X97401597Y-142522261D01*
X97598896Y-142604186D01*
X97812527Y-142604373D01*
X98009968Y-142522792D01*
X98161161Y-142371863D01*
X98243086Y-142174564D01*
X98243273Y-141960933D01*
X98161692Y-141763492D01*
X98010763Y-141612299D01*
X97813464Y-141530374D01*
X97599833Y-141530187D01*
X97402392Y-141611768D01*
X97251199Y-141762697D01*
X97169274Y-141959996D01*
X97169087Y-142173627D01*
X96707205Y-142173627D01*
X96708926Y-142169484D01*
X96709113Y-141955853D01*
X96627532Y-141758412D01*
X96476603Y-141607219D01*
X96279304Y-141525294D01*
X96065673Y-141525107D01*
X95868232Y-141606688D01*
X95717039Y-141757617D01*
X95635114Y-141954916D01*
X95634927Y-142168547D01*
X93262000Y-142168547D01*
X93262000Y-141532772D01*
X93335968Y-141711788D01*
X93486897Y-141862981D01*
X93684196Y-141944906D01*
X93897827Y-141945093D01*
X94095268Y-141863512D01*
X94246461Y-141712583D01*
X94328386Y-141515284D01*
X94328573Y-141301653D01*
X94246992Y-141104212D01*
X94096063Y-140953019D01*
X93898764Y-140871094D01*
X93685133Y-140870907D01*
X93487692Y-140952488D01*
X93336831Y-141103085D01*
X93411906Y-140922284D01*
X93412093Y-140708653D01*
X93330512Y-140511212D01*
X93179583Y-140360019D01*
X92982284Y-140278094D01*
X92885204Y-140278009D01*
X92766800Y-140159653D01*
X92766800Y-139810347D01*
X100464907Y-139810347D01*
X100546488Y-140007788D01*
X100697417Y-140158981D01*
X100894716Y-140240906D01*
X101108347Y-140241093D01*
X101305788Y-140159512D01*
X101456981Y-140008583D01*
X101460992Y-139998923D01*
X101624716Y-140066906D01*
X101838347Y-140067093D01*
X102035788Y-139985512D01*
X102186981Y-139834583D01*
X102268906Y-139637284D01*
X102269093Y-139423653D01*
X102187512Y-139226212D01*
X102036583Y-139075019D01*
X101839284Y-138993094D01*
X101625653Y-138992907D01*
X101428212Y-139074488D01*
X101277019Y-139225417D01*
X101273008Y-139235077D01*
X101109284Y-139167094D01*
X100895653Y-139166907D01*
X100698212Y-139248488D01*
X100547019Y-139399417D01*
X100465094Y-139596716D01*
X100464907Y-139810347D01*
X92766800Y-139810347D01*
X92766800Y-138307445D01*
X92834781Y-138239583D01*
X92916706Y-138042284D01*
X92916893Y-137828653D01*
X92835312Y-137631212D01*
X92696443Y-137492100D01*
X108093301Y-137492100D01*
X108174882Y-137689541D01*
X108325811Y-137840734D01*
X108523110Y-137922659D01*
X108736741Y-137922846D01*
X108934182Y-137841265D01*
X109085375Y-137690336D01*
X109167300Y-137493037D01*
X109167487Y-137279406D01*
X109085906Y-137081965D01*
X108934977Y-136930772D01*
X108737678Y-136848847D01*
X108524047Y-136848660D01*
X108326606Y-136930241D01*
X108175413Y-137081170D01*
X108093488Y-137278469D01*
X108093301Y-137492100D01*
X92696443Y-137492100D01*
X92684383Y-137480019D01*
X92487084Y-137398094D01*
X92273453Y-137397907D01*
X92076012Y-137479488D01*
X91924819Y-137630417D01*
X91842894Y-137827716D01*
X91842707Y-138041347D01*
X91924288Y-138238788D01*
X91992800Y-138307420D01*
X91992800Y-140320000D01*
X91992808Y-140320039D01*
X91992800Y-140320078D01*
X92007562Y-140394211D01*
X92012776Y-140420426D01*
X91831112Y-140495488D01*
X91679919Y-140646417D01*
X91597994Y-140843716D01*
X91597807Y-141057347D01*
X91679388Y-141254788D01*
X91830317Y-141405981D01*
X92027616Y-141487906D01*
X92241247Y-141488093D01*
X92438688Y-141406512D01*
X92488000Y-141357286D01*
X92488000Y-142721222D01*
X92381550Y-142792350D01*
X90668836Y-144505064D01*
X90625512Y-144400212D01*
X90474583Y-144249019D01*
X90277284Y-144167094D01*
X90063653Y-144166907D01*
X89866212Y-144248488D01*
X89715019Y-144399417D01*
X89633094Y-144596716D01*
X89632907Y-144810347D01*
X89714488Y-145007788D01*
X89865417Y-145158981D01*
X89971055Y-145202845D01*
X88893050Y-146280850D01*
X88809159Y-146406401D01*
X88804728Y-146428677D01*
X88779700Y-146554500D01*
X88779700Y-148065155D01*
X88766663Y-148078169D01*
X88669683Y-147981019D01*
X88472384Y-147899094D01*
X88258753Y-147898907D01*
X88061312Y-147980488D01*
X87910119Y-148131417D01*
X87828194Y-148328716D01*
X87828007Y-148542347D01*
X87909588Y-148739788D01*
X88060517Y-148890981D01*
X88257816Y-148972906D01*
X88471447Y-148973093D01*
X88668888Y-148891512D01*
X88765137Y-148795431D01*
X88862117Y-148892581D01*
X89059416Y-148974506D01*
X89273047Y-148974693D01*
X89470488Y-148893112D01*
X89621681Y-148742183D01*
X89703606Y-148544884D01*
X89703793Y-148331253D01*
X89622212Y-148133812D01*
X89553700Y-148065180D01*
X89553700Y-146714800D01*
X90106089Y-146162411D01*
X90176768Y-146333468D01*
X90227517Y-146384306D01*
X90023013Y-146384127D01*
X89825572Y-146465708D01*
X89674379Y-146616637D01*
X89592454Y-146813936D01*
X89592267Y-147027567D01*
X89673848Y-147225008D01*
X89824777Y-147376201D01*
X90022076Y-147458126D01*
X90235707Y-147458313D01*
X90433148Y-147376732D01*
X90584341Y-147225803D01*
X90666266Y-147028504D01*
X90666453Y-146814873D01*
X90584872Y-146617432D01*
X90534123Y-146566594D01*
X90738627Y-146566773D01*
X90854320Y-146518969D01*
X90788794Y-146676776D01*
X90788607Y-146890407D01*
X90870188Y-147087848D01*
X91021117Y-147239041D01*
X91153530Y-147294023D01*
X91109479Y-147337997D01*
X91027554Y-147535296D01*
X91027367Y-147748927D01*
X91108948Y-147946368D01*
X91259877Y-148097561D01*
X91457176Y-148179486D01*
X91670807Y-148179673D01*
X91868248Y-148098092D01*
X92019441Y-147947163D01*
X92101366Y-147749864D01*
X92101371Y-147743847D01*
X94230307Y-147743847D01*
X94311888Y-147941288D01*
X94462817Y-148092481D01*
X94660116Y-148174406D01*
X94873747Y-148174593D01*
X95071188Y-148093012D01*
X95222381Y-147942083D01*
X95304306Y-147744784D01*
X95304493Y-147531153D01*
X95222912Y-147333712D01*
X95071983Y-147182519D01*
X94874684Y-147100594D01*
X94661053Y-147100407D01*
X94463612Y-147181988D01*
X94312419Y-147332917D01*
X94230494Y-147530216D01*
X94230307Y-147743847D01*
X92101371Y-147743847D01*
X92101553Y-147536233D01*
X92054766Y-147423000D01*
X92160647Y-147423093D01*
X92358088Y-147341512D01*
X92509281Y-147190583D01*
X92591206Y-146993284D01*
X92591393Y-146779653D01*
X92509812Y-146582212D01*
X92358883Y-146431019D01*
X92161584Y-146349094D01*
X91947953Y-146348907D01*
X91750512Y-146430488D01*
X91740997Y-146439987D01*
X91740571Y-146439560D01*
X91816681Y-146363583D01*
X91857471Y-146265347D01*
X94204607Y-146265347D01*
X94286188Y-146462788D01*
X94437117Y-146613981D01*
X94634416Y-146695906D01*
X94848047Y-146696093D01*
X95045488Y-146614512D01*
X95096707Y-146563383D01*
X95043294Y-146692016D01*
X95043107Y-146905647D01*
X95124688Y-147103088D01*
X95275617Y-147254281D01*
X95472916Y-147336206D01*
X95686547Y-147336393D01*
X95883988Y-147254812D01*
X96035181Y-147103883D01*
X96117106Y-146906584D01*
X96117211Y-146786267D01*
X96595047Y-146786267D01*
X96676628Y-146983708D01*
X96827557Y-147134901D01*
X97024856Y-147216826D01*
X97238487Y-147217013D01*
X97435928Y-147135432D01*
X97567323Y-147004266D01*
X97580868Y-147037048D01*
X97703874Y-147160270D01*
X97651312Y-147181988D01*
X97500119Y-147332917D01*
X97418194Y-147530216D01*
X97418007Y-147743847D01*
X97499588Y-147941288D01*
X97650517Y-148092481D01*
X97847816Y-148174406D01*
X98061447Y-148174593D01*
X98258888Y-148093012D01*
X98410081Y-147942083D01*
X98492006Y-147744784D01*
X98492136Y-147595347D01*
X102916907Y-147595347D01*
X102998488Y-147792788D01*
X103149417Y-147943981D01*
X103346716Y-148025906D01*
X103560347Y-148026093D01*
X103757788Y-147944512D01*
X103908981Y-147793583D01*
X103990906Y-147596284D01*
X103991093Y-147382653D01*
X103909512Y-147185212D01*
X103758583Y-147034019D01*
X103561284Y-146952094D01*
X103347653Y-146951907D01*
X103150212Y-147033488D01*
X102999019Y-147184417D01*
X102917094Y-147381716D01*
X102916907Y-147595347D01*
X98492136Y-147595347D01*
X98492193Y-147531153D01*
X98410612Y-147333712D01*
X98287606Y-147210490D01*
X98340168Y-147188772D01*
X98373651Y-147155347D01*
X100656907Y-147155347D01*
X100738488Y-147352788D01*
X100889417Y-147503981D01*
X101086716Y-147585906D01*
X101300347Y-147586093D01*
X101497788Y-147504512D01*
X101648981Y-147353583D01*
X101730906Y-147156284D01*
X101731093Y-146942653D01*
X101649512Y-146745212D01*
X101498583Y-146594019D01*
X101301284Y-146512094D01*
X101087653Y-146511907D01*
X100890212Y-146593488D01*
X100739019Y-146744417D01*
X100657094Y-146941716D01*
X100656907Y-147155347D01*
X98373651Y-147155347D01*
X98491361Y-147037843D01*
X98573286Y-146840544D01*
X98573473Y-146626913D01*
X98491892Y-146429472D01*
X98340963Y-146278279D01*
X98143664Y-146196354D01*
X97930033Y-146196167D01*
X97732592Y-146277748D01*
X97601197Y-146408914D01*
X97587652Y-146376132D01*
X97436723Y-146224939D01*
X97239424Y-146143014D01*
X97025793Y-146142827D01*
X96828352Y-146224408D01*
X96677159Y-146375337D01*
X96595234Y-146572636D01*
X96595047Y-146786267D01*
X96117211Y-146786267D01*
X96117293Y-146692953D01*
X96035712Y-146495512D01*
X95884783Y-146344319D01*
X95687484Y-146262394D01*
X95473853Y-146262207D01*
X95276412Y-146343788D01*
X95225193Y-146394917D01*
X95278606Y-146266284D01*
X95278793Y-146052653D01*
X95197212Y-145855212D01*
X95186366Y-145844347D01*
X95721007Y-145844347D01*
X95802588Y-146041788D01*
X95953517Y-146192981D01*
X96150816Y-146274906D01*
X96364447Y-146275093D01*
X96561888Y-146193512D01*
X96713081Y-146042583D01*
X96795006Y-145845284D01*
X96795037Y-145809347D01*
X98982207Y-145809347D01*
X99063788Y-146006788D01*
X99214717Y-146157981D01*
X99412016Y-146239906D01*
X99625647Y-146240093D01*
X99740229Y-146192749D01*
X99810488Y-146362788D01*
X99961417Y-146513981D01*
X100158716Y-146595906D01*
X100372347Y-146596093D01*
X100569788Y-146514512D01*
X100720981Y-146363583D01*
X100802906Y-146166284D01*
X100803093Y-145952653D01*
X100722625Y-145757905D01*
X100864716Y-145816906D01*
X101074717Y-145817090D01*
X101146488Y-145990788D01*
X101297417Y-146141981D01*
X101494716Y-146223906D01*
X101708347Y-146224093D01*
X101905788Y-146142512D01*
X102056981Y-145991583D01*
X102138906Y-145794284D01*
X102139093Y-145580653D01*
X102057512Y-145383212D01*
X101906583Y-145232019D01*
X101813450Y-145193347D01*
X102070907Y-145193347D01*
X102152488Y-145390788D01*
X102303417Y-145541981D01*
X102500716Y-145623906D01*
X102714347Y-145624093D01*
X102911788Y-145542512D01*
X103062981Y-145391583D01*
X103144906Y-145194284D01*
X103144906Y-145193347D01*
X103532907Y-145193347D01*
X103614488Y-145390788D01*
X103765417Y-145541981D01*
X103962716Y-145623906D01*
X104176347Y-145624093D01*
X104373788Y-145542512D01*
X104524981Y-145391583D01*
X104606906Y-145194284D01*
X104607093Y-144980653D01*
X104525512Y-144783212D01*
X104374583Y-144632019D01*
X104177284Y-144550094D01*
X103963653Y-144549907D01*
X103766212Y-144631488D01*
X103615019Y-144782417D01*
X103533094Y-144979716D01*
X103532907Y-145193347D01*
X103144906Y-145193347D01*
X103145093Y-144980653D01*
X103063512Y-144783212D01*
X102912583Y-144632019D01*
X102715284Y-144550094D01*
X102501653Y-144549907D01*
X102304212Y-144631488D01*
X102153019Y-144782417D01*
X102071094Y-144979716D01*
X102070907Y-145193347D01*
X101813450Y-145193347D01*
X101709284Y-145150094D01*
X101499283Y-145149910D01*
X101427512Y-144976212D01*
X101276583Y-144825019D01*
X101079284Y-144743094D01*
X100865653Y-144742907D01*
X100668212Y-144824488D01*
X100517019Y-144975417D01*
X100435094Y-145172716D01*
X100434907Y-145386347D01*
X100515375Y-145581095D01*
X100373284Y-145522094D01*
X100159653Y-145521907D01*
X100045071Y-145569251D01*
X99974812Y-145399212D01*
X99823883Y-145248019D01*
X99626584Y-145166094D01*
X99412953Y-145165907D01*
X99215512Y-145247488D01*
X99064319Y-145398417D01*
X98982394Y-145595716D01*
X98982207Y-145809347D01*
X96795037Y-145809347D01*
X96795193Y-145631653D01*
X96713612Y-145434212D01*
X96562683Y-145283019D01*
X96365384Y-145201094D01*
X96151753Y-145200907D01*
X95954312Y-145282488D01*
X95803119Y-145433417D01*
X95721194Y-145630716D01*
X95721007Y-145844347D01*
X95186366Y-145844347D01*
X95046283Y-145704019D01*
X94848984Y-145622094D01*
X94635353Y-145621907D01*
X94437912Y-145703488D01*
X94286719Y-145854417D01*
X94204794Y-146051716D01*
X94204607Y-146265347D01*
X91857471Y-146265347D01*
X91898606Y-146166284D01*
X91898793Y-145952653D01*
X91817212Y-145755212D01*
X91666283Y-145604019D01*
X91468984Y-145522094D01*
X91255353Y-145521907D01*
X91057912Y-145603488D01*
X91011676Y-145649643D01*
X90936863Y-145574699D01*
X90765116Y-145503384D01*
X90784153Y-145484347D01*
X93463407Y-145484347D01*
X93544988Y-145681788D01*
X93695917Y-145832981D01*
X93893216Y-145914906D01*
X94106847Y-145915093D01*
X94304288Y-145833512D01*
X94455481Y-145682583D01*
X94537406Y-145485284D01*
X94537593Y-145271653D01*
X94531682Y-145257347D01*
X94792107Y-145257347D01*
X94873688Y-145454788D01*
X95024617Y-145605981D01*
X95221916Y-145687906D01*
X95435547Y-145688093D01*
X95632988Y-145606512D01*
X95784181Y-145455583D01*
X95866106Y-145258284D01*
X95866293Y-145044653D01*
X95790140Y-144860347D01*
X97100807Y-144860347D01*
X97182388Y-145057788D01*
X97333317Y-145208981D01*
X97530616Y-145290906D01*
X97744247Y-145291093D01*
X97941688Y-145209512D01*
X98092881Y-145058583D01*
X98174806Y-144861284D01*
X98174993Y-144647653D01*
X98093412Y-144450212D01*
X97942483Y-144299019D01*
X97745184Y-144217094D01*
X97531553Y-144216907D01*
X97334112Y-144298488D01*
X97182919Y-144449417D01*
X97100994Y-144646716D01*
X97100807Y-144860347D01*
X95790140Y-144860347D01*
X95784712Y-144847212D01*
X95633783Y-144696019D01*
X95436484Y-144614094D01*
X95222853Y-144613907D01*
X95025412Y-144695488D01*
X94874219Y-144846417D01*
X94792294Y-145043716D01*
X94792107Y-145257347D01*
X94531682Y-145257347D01*
X94456012Y-145074212D01*
X94305083Y-144923019D01*
X94107784Y-144841094D01*
X93894153Y-144840907D01*
X93696712Y-144922488D01*
X93545519Y-145073417D01*
X93463594Y-145270716D01*
X93463407Y-145484347D01*
X90784153Y-145484347D01*
X91566349Y-144702151D01*
X91566207Y-144864347D01*
X91647788Y-145061788D01*
X91798717Y-145212981D01*
X91996016Y-145294906D01*
X92209647Y-145295093D01*
X92407088Y-145213512D01*
X92558281Y-145062583D01*
X92640206Y-144865284D01*
X92640393Y-144651653D01*
X92558812Y-144454212D01*
X92407883Y-144303019D01*
X92210584Y-144221094D01*
X92047549Y-144220951D01*
X92815500Y-143453000D01*
X99369702Y-143453000D01*
X99369607Y-143561347D01*
X99451188Y-143758788D01*
X99602117Y-143909981D01*
X99799416Y-143991906D01*
X100013047Y-143992093D01*
X100210488Y-143910512D01*
X100361681Y-143759583D01*
X100443606Y-143562284D01*
X100443757Y-143390057D01*
X101207350Y-144153650D01*
X101332902Y-144237541D01*
X101481000Y-144267000D01*
X105959000Y-144267000D01*
X105959000Y-146096000D01*
X105988459Y-146244099D01*
X106072350Y-146369650D01*
X107019164Y-147316464D01*
X106840353Y-147316307D01*
X106642912Y-147397888D01*
X106491719Y-147548817D01*
X106409794Y-147746116D01*
X106409607Y-147959747D01*
X106491188Y-148157188D01*
X106578220Y-148244372D01*
X106543867Y-148278665D01*
X106451183Y-148185819D01*
X106253884Y-148103894D01*
X106040253Y-148103707D01*
X105842812Y-148185288D01*
X105691619Y-148336217D01*
X105609694Y-148533516D01*
X105609507Y-148747147D01*
X105691088Y-148944588D01*
X105793567Y-149047247D01*
X105691619Y-149149017D01*
X105609694Y-149346316D01*
X105609507Y-149559947D01*
X105691088Y-149757388D01*
X105842017Y-149908581D01*
X106039316Y-149990506D01*
X106252947Y-149990693D01*
X106450388Y-149909112D01*
X106601581Y-149758183D01*
X106683506Y-149560884D01*
X106683693Y-149347253D01*
X106602112Y-149149812D01*
X106499633Y-149047153D01*
X106546733Y-149000135D01*
X106639417Y-149092981D01*
X106836716Y-149174906D01*
X107050347Y-149175093D01*
X107247788Y-149093512D01*
X107398981Y-148942583D01*
X107480906Y-148745284D01*
X107481093Y-148531653D01*
X107399512Y-148334212D01*
X107312480Y-148247028D01*
X107401681Y-148157983D01*
X107483606Y-147960684D01*
X107483793Y-147747053D01*
X107402212Y-147549612D01*
X107328578Y-147475850D01*
X107341400Y-147478400D01*
X107412455Y-147478400D01*
X107480317Y-147546381D01*
X107677616Y-147628306D01*
X107774591Y-147628391D01*
X108392200Y-148246000D01*
X108285653Y-148245907D01*
X108088212Y-148327488D01*
X107937019Y-148478417D01*
X107855094Y-148675716D01*
X107854907Y-148889347D01*
X107936488Y-149086788D01*
X108087417Y-149237981D01*
X108284716Y-149319906D01*
X108498347Y-149320093D01*
X108695788Y-149238512D01*
X108846981Y-149087583D01*
X108928906Y-148890284D01*
X108929000Y-148782801D01*
X109060849Y-148914650D01*
X109119525Y-148953856D01*
X109043212Y-148985388D01*
X108892019Y-149136317D01*
X108810094Y-149333616D01*
X108809907Y-149547247D01*
X108891488Y-149744688D01*
X109042417Y-149895881D01*
X109239716Y-149977806D01*
X109397800Y-149977944D01*
X109397800Y-152521000D01*
X105943400Y-152521000D01*
X105795302Y-152550459D01*
X105669750Y-152634350D01*
X104843300Y-153460800D01*
X103293245Y-153460800D01*
X103225383Y-153392819D01*
X103028084Y-153310894D01*
X102814453Y-153310707D01*
X102617012Y-153392288D01*
X102465819Y-153543217D01*
X102383894Y-153740516D01*
X102383809Y-153837491D01*
X101493883Y-154727417D01*
X100778485Y-154731106D01*
X100672583Y-154625019D01*
X100475284Y-154543094D01*
X100261653Y-154542907D01*
X100064212Y-154624488D01*
X99953143Y-154735363D01*
X96798906Y-154751630D01*
X96748383Y-154701019D01*
X96551084Y-154619094D01*
X96337453Y-154618907D01*
X96140012Y-154700488D01*
X96085093Y-154755312D01*
X94773400Y-154762076D01*
X94773400Y-154355800D01*
X94743941Y-154207702D01*
X94660050Y-154082150D01*
X93821850Y-153243950D01*
X93696299Y-153160059D01*
X93548200Y-153130600D01*
X91668600Y-153130600D01*
X91520502Y-153160059D01*
X91394950Y-153243949D01*
X90797100Y-153841800D01*
X87315731Y-153841800D01*
X87322981Y-153834563D01*
X87404906Y-153637264D01*
X87405093Y-153423633D01*
X87323512Y-153226192D01*
X87172583Y-153074999D01*
X86975284Y-152993074D01*
X86761653Y-152992887D01*
X86564212Y-153074468D01*
X86413019Y-153225397D01*
X86331094Y-153422696D01*
X86330907Y-153636327D01*
X86378000Y-153750300D01*
X85858000Y-153230300D01*
X85858000Y-152500347D01*
X101316907Y-152500347D01*
X101398488Y-152697788D01*
X101549417Y-152848981D01*
X101746716Y-152930906D01*
X101960347Y-152931093D01*
X102157788Y-152849512D01*
X102308981Y-152698583D01*
X102390906Y-152501284D01*
X102390949Y-152451676D01*
X102569716Y-152525906D01*
X102783347Y-152526093D01*
X102980788Y-152444512D01*
X103131981Y-152293583D01*
X103187529Y-152159807D01*
X103346716Y-152225906D01*
X103560347Y-152226093D01*
X103757788Y-152144512D01*
X103908981Y-151993583D01*
X103990906Y-151796284D01*
X103991093Y-151582653D01*
X103909512Y-151385212D01*
X103758583Y-151234019D01*
X103665450Y-151195347D01*
X105528907Y-151195347D01*
X105610488Y-151392788D01*
X105761417Y-151543981D01*
X105958716Y-151625906D01*
X106172347Y-151626093D01*
X106369788Y-151544512D01*
X106520981Y-151393583D01*
X106602906Y-151196284D01*
X106603093Y-150982653D01*
X106540575Y-150831347D01*
X106701907Y-150831347D01*
X106783488Y-151028788D01*
X106934417Y-151179981D01*
X107131716Y-151261906D01*
X107345347Y-151262093D01*
X107542788Y-151180512D01*
X107693981Y-151029583D01*
X107775906Y-150832284D01*
X107776093Y-150618653D01*
X107707377Y-150452347D01*
X108077907Y-150452347D01*
X108159488Y-150649788D01*
X108310417Y-150800981D01*
X108507716Y-150882906D01*
X108721347Y-150883093D01*
X108918788Y-150801512D01*
X109069981Y-150650583D01*
X109151906Y-150453284D01*
X109152093Y-150239653D01*
X109070512Y-150042212D01*
X108919583Y-149891019D01*
X108722284Y-149809094D01*
X108508653Y-149808907D01*
X108311212Y-149890488D01*
X108160019Y-150041417D01*
X108078094Y-150238716D01*
X108077907Y-150452347D01*
X107707377Y-150452347D01*
X107694512Y-150421212D01*
X107543583Y-150270019D01*
X107346284Y-150188094D01*
X107132653Y-150187907D01*
X106935212Y-150269488D01*
X106784019Y-150420417D01*
X106702094Y-150617716D01*
X106701907Y-150831347D01*
X106540575Y-150831347D01*
X106521512Y-150785212D01*
X106370583Y-150634019D01*
X106173284Y-150552094D01*
X105959653Y-150551907D01*
X105762212Y-150633488D01*
X105611019Y-150784417D01*
X105529094Y-150981716D01*
X105528907Y-151195347D01*
X103665450Y-151195347D01*
X103561284Y-151152094D01*
X103347653Y-151151907D01*
X103150212Y-151233488D01*
X102999019Y-151384417D01*
X102943471Y-151518193D01*
X102784284Y-151452094D01*
X102570653Y-151451907D01*
X102373212Y-151533488D01*
X102222019Y-151684417D01*
X102140094Y-151881716D01*
X102140051Y-151931324D01*
X101961284Y-151857094D01*
X101747653Y-151856907D01*
X101550212Y-151938488D01*
X101399019Y-152089417D01*
X101317094Y-152286716D01*
X101316907Y-152500347D01*
X85858000Y-152500347D01*
X85858000Y-151084347D01*
X91144207Y-151084347D01*
X91225788Y-151281788D01*
X91376717Y-151432981D01*
X91574016Y-151514906D01*
X91787647Y-151515093D01*
X91985088Y-151433512D01*
X92136281Y-151282583D01*
X92218206Y-151085284D01*
X92218393Y-150871653D01*
X92136812Y-150674212D01*
X91985883Y-150523019D01*
X91788584Y-150441094D01*
X91574953Y-150440907D01*
X91377512Y-150522488D01*
X91226319Y-150673417D01*
X91144394Y-150870716D01*
X91144207Y-151084347D01*
X85858000Y-151084347D01*
X85858000Y-149655751D01*
X85879088Y-149706788D01*
X86030017Y-149857981D01*
X86227316Y-149939906D01*
X86440947Y-149940093D01*
X86638388Y-149858512D01*
X86772994Y-149724141D01*
X88918805Y-149724141D01*
X89000386Y-149921582D01*
X89151315Y-150072775D01*
X89348614Y-150154700D01*
X89562245Y-150154887D01*
X89759686Y-150073306D01*
X89910879Y-149922377D01*
X89992804Y-149725078D01*
X89992948Y-149560347D01*
X91016907Y-149560347D01*
X91098488Y-149757788D01*
X91249417Y-149908981D01*
X91446716Y-149990906D01*
X91660347Y-149991093D01*
X91785581Y-149939347D01*
X93097607Y-149939347D01*
X93179188Y-150136788D01*
X93330117Y-150287981D01*
X93527416Y-150369906D01*
X93741047Y-150370093D01*
X93938488Y-150288512D01*
X94089681Y-150137583D01*
X94171606Y-149940284D01*
X94171726Y-149803718D01*
X94229188Y-149942788D01*
X94380117Y-150093981D01*
X94577416Y-150175906D01*
X94791047Y-150176093D01*
X94925962Y-150120347D01*
X99711907Y-150120347D01*
X99793488Y-150317788D01*
X99944417Y-150468981D01*
X100141716Y-150550906D01*
X100355347Y-150551093D01*
X100511571Y-150486543D01*
X100543488Y-150563788D01*
X100694417Y-150714981D01*
X100891716Y-150796906D01*
X101105347Y-150797093D01*
X101302788Y-150715512D01*
X101453981Y-150564583D01*
X101535906Y-150367284D01*
X101536093Y-150153653D01*
X101454512Y-149956212D01*
X101303583Y-149805019D01*
X101106284Y-149723094D01*
X100892653Y-149722907D01*
X100736429Y-149787457D01*
X100704512Y-149710212D01*
X100553583Y-149559019D01*
X100356284Y-149477094D01*
X100142653Y-149476907D01*
X99945212Y-149558488D01*
X99794019Y-149709417D01*
X99712094Y-149906716D01*
X99711907Y-150120347D01*
X94925962Y-150120347D01*
X94988488Y-150094512D01*
X95119121Y-149964107D01*
X95316116Y-150045906D01*
X95529747Y-150046093D01*
X95727188Y-149964512D01*
X95878381Y-149813583D01*
X95960306Y-149616284D01*
X95960354Y-149560347D01*
X95982907Y-149560347D01*
X96064488Y-149757788D01*
X96215417Y-149908981D01*
X96412716Y-149990906D01*
X96626347Y-149991093D01*
X96823788Y-149909512D01*
X96974981Y-149758583D01*
X97056906Y-149561284D01*
X97057031Y-149418347D01*
X97079707Y-149418347D01*
X97161288Y-149615788D01*
X97312217Y-149766981D01*
X97509516Y-149848906D01*
X97723147Y-149849093D01*
X97920588Y-149767512D01*
X98071781Y-149616583D01*
X98153706Y-149419284D01*
X98153893Y-149205653D01*
X98072312Y-149008212D01*
X97921383Y-148857019D01*
X97869191Y-148835347D01*
X98763807Y-148835347D01*
X98845388Y-149032788D01*
X98996317Y-149183981D01*
X99193616Y-149265906D01*
X99407247Y-149266093D01*
X99604688Y-149184512D01*
X99755881Y-149033583D01*
X99763453Y-149015347D01*
X100476907Y-149015347D01*
X100558488Y-149212788D01*
X100709417Y-149363981D01*
X100906716Y-149445906D01*
X101120347Y-149446093D01*
X101317788Y-149364512D01*
X101360026Y-149322347D01*
X101899907Y-149322347D01*
X101981488Y-149519788D01*
X102132417Y-149670981D01*
X102329716Y-149752906D01*
X102543347Y-149753093D01*
X102740788Y-149671512D01*
X102891981Y-149520583D01*
X102938026Y-149409694D01*
X102937907Y-149545347D01*
X103019488Y-149742788D01*
X103170417Y-149893981D01*
X103367716Y-149975906D01*
X103581347Y-149976093D01*
X103778788Y-149894512D01*
X103929981Y-149743583D01*
X104011906Y-149546284D01*
X104012093Y-149332653D01*
X103930512Y-149135212D01*
X103779583Y-148984019D01*
X103582284Y-148902094D01*
X103368653Y-148901907D01*
X103171212Y-148983488D01*
X103020019Y-149134417D01*
X102973974Y-149245306D01*
X102974093Y-149109653D01*
X102892512Y-148912212D01*
X102741583Y-148761019D01*
X102544284Y-148679094D01*
X102330653Y-148678907D01*
X102133212Y-148760488D01*
X101982019Y-148911417D01*
X101900094Y-149108716D01*
X101899907Y-149322347D01*
X101360026Y-149322347D01*
X101468981Y-149213583D01*
X101550906Y-149016284D01*
X101551093Y-148802653D01*
X101469512Y-148605212D01*
X101318583Y-148454019D01*
X101121284Y-148372094D01*
X100907653Y-148371907D01*
X100710212Y-148453488D01*
X100559019Y-148604417D01*
X100477094Y-148801716D01*
X100476907Y-149015347D01*
X99763453Y-149015347D01*
X99837806Y-148836284D01*
X99837993Y-148622653D01*
X99756412Y-148425212D01*
X99605483Y-148274019D01*
X99408184Y-148192094D01*
X99194553Y-148191907D01*
X98997112Y-148273488D01*
X98845919Y-148424417D01*
X98763994Y-148621716D01*
X98763807Y-148835347D01*
X97869191Y-148835347D01*
X97724084Y-148775094D01*
X97510453Y-148774907D01*
X97313012Y-148856488D01*
X97161819Y-149007417D01*
X97079894Y-149204716D01*
X97079707Y-149418347D01*
X97057031Y-149418347D01*
X97057093Y-149347653D01*
X96975512Y-149150212D01*
X96824583Y-148999019D01*
X96627284Y-148917094D01*
X96413653Y-148916907D01*
X96216212Y-148998488D01*
X96065019Y-149149417D01*
X95983094Y-149346716D01*
X95982907Y-149560347D01*
X95960354Y-149560347D01*
X95960493Y-149402653D01*
X95878912Y-149205212D01*
X95727983Y-149054019D01*
X95530684Y-148972094D01*
X95317053Y-148971907D01*
X95119612Y-149053488D01*
X94988979Y-149183893D01*
X94791984Y-149102094D01*
X94578353Y-149101907D01*
X94380912Y-149183488D01*
X94229719Y-149334417D01*
X94147794Y-149531716D01*
X94147674Y-149668282D01*
X94090212Y-149529212D01*
X93939283Y-149378019D01*
X93741984Y-149296094D01*
X93528353Y-149295907D01*
X93330912Y-149377488D01*
X93179719Y-149528417D01*
X93097794Y-149725716D01*
X93097607Y-149939347D01*
X91785581Y-149939347D01*
X91857788Y-149909512D01*
X92008981Y-149758583D01*
X92090906Y-149561284D01*
X92091093Y-149347653D01*
X92009512Y-149150212D01*
X91858583Y-148999019D01*
X91661284Y-148917094D01*
X91447653Y-148916907D01*
X91250212Y-148998488D01*
X91099019Y-149149417D01*
X91017094Y-149346716D01*
X91016907Y-149560347D01*
X89992948Y-149560347D01*
X89992991Y-149511447D01*
X89911410Y-149314006D01*
X89760481Y-149162813D01*
X89563182Y-149080888D01*
X89349551Y-149080701D01*
X89152110Y-149162282D01*
X89000917Y-149313211D01*
X88918992Y-149510510D01*
X88918805Y-149724141D01*
X86772994Y-149724141D01*
X86789581Y-149707583D01*
X86871506Y-149510284D01*
X86871693Y-149296653D01*
X86790112Y-149099212D01*
X86639183Y-148948019D01*
X86441884Y-148866094D01*
X86228253Y-148865907D01*
X86030812Y-148947488D01*
X85879619Y-149098417D01*
X85858000Y-149150482D01*
X85858000Y-146625347D01*
X86313307Y-146625347D01*
X86394888Y-146822788D01*
X86545817Y-146973981D01*
X86743116Y-147055906D01*
X86956747Y-147056093D01*
X87032284Y-147024882D01*
X87085588Y-147153888D01*
X87236517Y-147305081D01*
X87433816Y-147387006D01*
X87647447Y-147387193D01*
X87844888Y-147305612D01*
X87996081Y-147154683D01*
X88078006Y-146957384D01*
X88078193Y-146743753D01*
X87996612Y-146546312D01*
X87845683Y-146395119D01*
X87648384Y-146313194D01*
X87434753Y-146313007D01*
X87359216Y-146344218D01*
X87305912Y-146215212D01*
X87154983Y-146064019D01*
X86957684Y-145982094D01*
X86744053Y-145981907D01*
X86546612Y-146063488D01*
X86395419Y-146214417D01*
X86313494Y-146411716D01*
X86313307Y-146625347D01*
X85858000Y-146625347D01*
X85858000Y-145001464D01*
X87022454Y-145001464D01*
X87104035Y-145198905D01*
X87254964Y-145350098D01*
X87452263Y-145432023D01*
X87665894Y-145432210D01*
X87863335Y-145350629D01*
X88014528Y-145199700D01*
X88061876Y-145085672D01*
X88134057Y-145260362D01*
X88284986Y-145411555D01*
X88482285Y-145493480D01*
X88695916Y-145493667D01*
X88893357Y-145412086D01*
X89044550Y-145261157D01*
X89126475Y-145063858D01*
X89126576Y-144948743D01*
X89184147Y-144948793D01*
X89381588Y-144867212D01*
X89532781Y-144716283D01*
X89614706Y-144518984D01*
X89614893Y-144305353D01*
X89533312Y-144107912D01*
X89487916Y-144062437D01*
X89608981Y-143941583D01*
X89690906Y-143744284D01*
X89691093Y-143530653D01*
X89609512Y-143333212D01*
X89564138Y-143287759D01*
X89659781Y-143192283D01*
X89741706Y-142994984D01*
X89741893Y-142781353D01*
X89660312Y-142583912D01*
X89509383Y-142432719D01*
X89312084Y-142350794D01*
X89098453Y-142350607D01*
X88901012Y-142432188D01*
X88749819Y-142583117D01*
X88667894Y-142780416D01*
X88667707Y-142994047D01*
X88749288Y-143191488D01*
X88794662Y-143236941D01*
X88699019Y-143332417D01*
X88617094Y-143529716D01*
X88616907Y-143743347D01*
X88698488Y-143940788D01*
X88743884Y-143986263D01*
X88622819Y-144107117D01*
X88540894Y-144304416D01*
X88540793Y-144419531D01*
X88483222Y-144419481D01*
X88285781Y-144501062D01*
X88134588Y-144651991D01*
X88087240Y-144766019D01*
X88015059Y-144591329D01*
X87864130Y-144440136D01*
X87666831Y-144358211D01*
X87453200Y-144358024D01*
X87255759Y-144439605D01*
X87104566Y-144590534D01*
X87022641Y-144787833D01*
X87022454Y-145001464D01*
X85858000Y-145001464D01*
X85858000Y-143821300D01*
X86722672Y-142956629D01*
X86806562Y-142831077D01*
X86836021Y-142682979D01*
X86836021Y-142134799D01*
X86806562Y-141986701D01*
X86806562Y-141986700D01*
X86791627Y-141964347D01*
X87410603Y-141964347D01*
X87492184Y-142161788D01*
X87643113Y-142312981D01*
X87840412Y-142394906D01*
X88054043Y-142395093D01*
X88251484Y-142313512D01*
X88402677Y-142162583D01*
X88484602Y-141965284D01*
X88484789Y-141751653D01*
X88403208Y-141554212D01*
X88258337Y-141409087D01*
X90570167Y-141409087D01*
X90651748Y-141606528D01*
X90802677Y-141757721D01*
X90999976Y-141839646D01*
X91213607Y-141839833D01*
X91411048Y-141758252D01*
X91562241Y-141607323D01*
X91644166Y-141410024D01*
X91644353Y-141196393D01*
X91562772Y-140998952D01*
X91411843Y-140847759D01*
X91214544Y-140765834D01*
X91000913Y-140765647D01*
X90803472Y-140847228D01*
X90652279Y-140998157D01*
X90570354Y-141195456D01*
X90570167Y-141409087D01*
X88258337Y-141409087D01*
X88252279Y-141403019D01*
X88054980Y-141321094D01*
X87841349Y-141320907D01*
X87643908Y-141402488D01*
X87492715Y-141553417D01*
X87410790Y-141750716D01*
X87410603Y-141964347D01*
X86791627Y-141964347D01*
X86722671Y-141861149D01*
X86388300Y-141526778D01*
X86388300Y-140959347D01*
X88805207Y-140959347D01*
X88886788Y-141156788D01*
X89037717Y-141307981D01*
X89235016Y-141389906D01*
X89448647Y-141390093D01*
X89646088Y-141308512D01*
X89797281Y-141157583D01*
X89879206Y-140960284D01*
X89879393Y-140746653D01*
X89797812Y-140549212D01*
X89646883Y-140398019D01*
X89449584Y-140316094D01*
X89235953Y-140315907D01*
X89038512Y-140397488D01*
X88887319Y-140548417D01*
X88805394Y-140745716D01*
X88805207Y-140959347D01*
X86388300Y-140959347D01*
X86388300Y-139721347D01*
X90141407Y-139721347D01*
X90222988Y-139918788D01*
X90373917Y-140069981D01*
X90571216Y-140151906D01*
X90784847Y-140152093D01*
X90982288Y-140070512D01*
X91133481Y-139919583D01*
X91215406Y-139722284D01*
X91215593Y-139508653D01*
X91134012Y-139311212D01*
X90983083Y-139160019D01*
X90785784Y-139078094D01*
X90572153Y-139077907D01*
X90374712Y-139159488D01*
X90223519Y-139310417D01*
X90141594Y-139507716D01*
X90141407Y-139721347D01*
X86388300Y-139721347D01*
X86388300Y-137932001D01*
X86494036Y-137975906D01*
X86707667Y-137976093D01*
X86905108Y-137894512D01*
X87056301Y-137743583D01*
X87138226Y-137546284D01*
X87138413Y-137332653D01*
X87056832Y-137135212D01*
X86905903Y-136984019D01*
X86708604Y-136902094D01*
X86494973Y-136901907D01*
X86388300Y-136945983D01*
X86388300Y-135780347D01*
X90902907Y-135780347D01*
X90984488Y-135977788D01*
X91135417Y-136128981D01*
X91332716Y-136210906D01*
X91546347Y-136211093D01*
X91743788Y-136129512D01*
X91894981Y-135978583D01*
X91976906Y-135781284D01*
X91977093Y-135567653D01*
X91960026Y-135526347D01*
X93823907Y-135526347D01*
X93905488Y-135723788D01*
X94056417Y-135874981D01*
X94253716Y-135956906D01*
X94467347Y-135957093D01*
X94664788Y-135875512D01*
X94815981Y-135724583D01*
X94871720Y-135590347D01*
X97011607Y-135590347D01*
X97093188Y-135787788D01*
X97244117Y-135938981D01*
X97441416Y-136020906D01*
X97655047Y-136021093D01*
X97852488Y-135939512D01*
X98003681Y-135788583D01*
X98085606Y-135591284D01*
X98085696Y-135488347D01*
X100287907Y-135488347D01*
X100369488Y-135685788D01*
X100520417Y-135836981D01*
X100717716Y-135918906D01*
X100931347Y-135919093D01*
X101128788Y-135837512D01*
X101279981Y-135686583D01*
X101361906Y-135489284D01*
X101362093Y-135275653D01*
X101280512Y-135078212D01*
X101129583Y-134927019D01*
X100932284Y-134845094D01*
X100718653Y-134844907D01*
X100521212Y-134926488D01*
X100370019Y-135077417D01*
X100288094Y-135274716D01*
X100287907Y-135488347D01*
X98085696Y-135488347D01*
X98085793Y-135377653D01*
X98004212Y-135180212D01*
X97853283Y-135029019D01*
X97655984Y-134947094D01*
X97442353Y-134946907D01*
X97244912Y-135028488D01*
X97093719Y-135179417D01*
X97011794Y-135376716D01*
X97011607Y-135590347D01*
X94871720Y-135590347D01*
X94897906Y-135527284D01*
X94898093Y-135313653D01*
X94816512Y-135116212D01*
X94665583Y-134965019D01*
X94468284Y-134883094D01*
X94254653Y-134882907D01*
X94057212Y-134964488D01*
X93906019Y-135115417D01*
X93824094Y-135312716D01*
X93823907Y-135526347D01*
X91960026Y-135526347D01*
X91895512Y-135370212D01*
X91744583Y-135219019D01*
X91547284Y-135137094D01*
X91333653Y-135136907D01*
X91136212Y-135218488D01*
X90985019Y-135369417D01*
X90903094Y-135566716D01*
X90902907Y-135780347D01*
X86388300Y-135780347D01*
X86388300Y-131253286D01*
X88552315Y-129089000D01*
X102432000Y-129089000D01*
X102432000Y-130958555D01*
X102432000Y-130958555D01*
G37*
X102432000Y-130958555D02*
X102364019Y-131026417D01*
X102282094Y-131223716D01*
X102281907Y-131437347D01*
X102363488Y-131634788D01*
X102514417Y-131785981D01*
X102711716Y-131867906D01*
X102925347Y-131868093D01*
X102991000Y-131840966D01*
X102991000Y-132710555D01*
X102923019Y-132778417D01*
X102841094Y-132975716D01*
X102840907Y-133189347D01*
X102922488Y-133386788D01*
X103073417Y-133537981D01*
X103270716Y-133619906D01*
X103484347Y-133620093D01*
X103681788Y-133538512D01*
X103832981Y-133387583D01*
X103914906Y-133190284D01*
X103915093Y-132976653D01*
X103833512Y-132779212D01*
X103765000Y-132710580D01*
X103765000Y-131343000D01*
X103763467Y-131335292D01*
X103764690Y-131327533D01*
X103748792Y-131261520D01*
X103735541Y-131194902D01*
X103731176Y-131188369D01*
X103729336Y-131180730D01*
X103689374Y-131125808D01*
X103651650Y-131069350D01*
X103645119Y-131064986D01*
X103640495Y-131058631D01*
X103627494Y-131046631D01*
X103569562Y-131011187D01*
X103513098Y-130973459D01*
X103505391Y-130971926D01*
X103498690Y-130967826D01*
X103431622Y-130957252D01*
X103365000Y-130944000D01*
X103206000Y-130944000D01*
X103206000Y-129089000D01*
X109087839Y-129089000D01*
X109009212Y-129121488D01*
X108858019Y-129272417D01*
X108776094Y-129469716D01*
X108775907Y-129683347D01*
X108857488Y-129880788D01*
X109008417Y-130031981D01*
X109205716Y-130113906D01*
X109397800Y-130114074D01*
X109397800Y-130774854D01*
X109273019Y-130899417D01*
X109191094Y-131096716D01*
X109190907Y-131310347D01*
X109272488Y-131507788D01*
X109397800Y-131633319D01*
X109397800Y-135655000D01*
X103763445Y-135655000D01*
X103695583Y-135587019D01*
X103498284Y-135505094D01*
X103284653Y-135504907D01*
X103087212Y-135586488D01*
X102936019Y-135737417D01*
X102854094Y-135934716D01*
X102853907Y-136148347D01*
X102935488Y-136345788D01*
X103086417Y-136496981D01*
X103283716Y-136578906D01*
X103497347Y-136579093D01*
X103694788Y-136497512D01*
X103763420Y-136429000D01*
X109397800Y-136429000D01*
X109397800Y-141250179D01*
X109392212Y-141252488D01*
X109383515Y-141261170D01*
X109258583Y-141136019D01*
X109061284Y-141054094D01*
X108847653Y-141053907D01*
X108650212Y-141135488D01*
X108499019Y-141286417D01*
X108417094Y-141483716D01*
X108416907Y-141697347D01*
X108498488Y-141894788D01*
X108649417Y-142045981D01*
X108846716Y-142127906D01*
X109060347Y-142128093D01*
X109257788Y-142046512D01*
X109266485Y-142037830D01*
X109389274Y-142160834D01*
X109327284Y-142135094D01*
X109113653Y-142134907D01*
X108916212Y-142216488D01*
X108765019Y-142367417D01*
X108683094Y-142564716D01*
X108682907Y-142778347D01*
X108764488Y-142975788D01*
X108915417Y-143126981D01*
X109112716Y-143208906D01*
X109326347Y-143209093D01*
X109397800Y-143179569D01*
X109397800Y-144798566D01*
X109391094Y-144814716D01*
X109390907Y-145028347D01*
X109397800Y-145045029D01*
X109397800Y-148156999D01*
X108321909Y-147081109D01*
X108321993Y-146985053D01*
X108240412Y-146787612D01*
X108089483Y-146636419D01*
X107892184Y-146554494D01*
X107678553Y-146554307D01*
X107481112Y-146635888D01*
X107457129Y-146659829D01*
X106743109Y-145945809D01*
X106851716Y-145990906D01*
X107065347Y-145991093D01*
X107262788Y-145909512D01*
X107413981Y-145758583D01*
X107491395Y-145572147D01*
X107832007Y-145572147D01*
X107913588Y-145769588D01*
X108064517Y-145920781D01*
X108261816Y-146002706D01*
X108475447Y-146002893D01*
X108672888Y-145921312D01*
X108824081Y-145770383D01*
X108906006Y-145573084D01*
X108906193Y-145359453D01*
X108824612Y-145162012D01*
X108673683Y-145010819D01*
X108476384Y-144928894D01*
X108262753Y-144928707D01*
X108065312Y-145010288D01*
X107914119Y-145161217D01*
X107832194Y-145358516D01*
X107832007Y-145572147D01*
X107491395Y-145572147D01*
X107495906Y-145561284D01*
X107496093Y-145347653D01*
X107414512Y-145150212D01*
X107311793Y-145047314D01*
X107401681Y-144957583D01*
X107483606Y-144760284D01*
X107483793Y-144546653D01*
X107402212Y-144349212D01*
X107251283Y-144198019D01*
X107053984Y-144116094D01*
X106840353Y-144115907D01*
X106733000Y-144160264D01*
X106733000Y-143769532D01*
X108149074Y-143769532D01*
X108230655Y-143966973D01*
X108381584Y-144118166D01*
X108578883Y-144200091D01*
X108792514Y-144200278D01*
X108989955Y-144118697D01*
X109141148Y-143967768D01*
X109223073Y-143770469D01*
X109223260Y-143556838D01*
X109141679Y-143359397D01*
X108990750Y-143208204D01*
X108793451Y-143126279D01*
X108579820Y-143126092D01*
X108382379Y-143207673D01*
X108231186Y-143358602D01*
X108149261Y-143555901D01*
X108149074Y-143769532D01*
X106733000Y-143769532D01*
X106733000Y-143541764D01*
X106841716Y-143586906D01*
X107055347Y-143587093D01*
X107252788Y-143505512D01*
X107346534Y-143411930D01*
X107442217Y-143507781D01*
X107639516Y-143589706D01*
X107853147Y-143589893D01*
X108050588Y-143508312D01*
X108201781Y-143357383D01*
X108283706Y-143160084D01*
X108283893Y-142946453D01*
X108202312Y-142749012D01*
X108080805Y-142627292D01*
X108176381Y-142531883D01*
X108258306Y-142334584D01*
X108258493Y-142120953D01*
X108176912Y-141923512D01*
X108025983Y-141772319D01*
X107828684Y-141690394D01*
X107615053Y-141690207D01*
X107417612Y-141771788D01*
X107266419Y-141922717D01*
X107184494Y-142120016D01*
X107184307Y-142333647D01*
X107265888Y-142531088D01*
X107387395Y-142652808D01*
X107349266Y-142690870D01*
X107253583Y-142595019D01*
X107056284Y-142513094D01*
X106842653Y-142512907D01*
X106733000Y-142558215D01*
X106733000Y-139158647D01*
X107209707Y-139158647D01*
X107291288Y-139356088D01*
X107442217Y-139507281D01*
X107639516Y-139589206D01*
X107853147Y-139589393D01*
X108050588Y-139507812D01*
X108201781Y-139356883D01*
X108254202Y-139230638D01*
X108327417Y-139303981D01*
X108329755Y-139304952D01*
X108260094Y-139472716D01*
X108259907Y-139686347D01*
X108341488Y-139883788D01*
X108492417Y-140034981D01*
X108689716Y-140116906D01*
X108903347Y-140117093D01*
X109100788Y-140035512D01*
X109251981Y-139884583D01*
X109333906Y-139687284D01*
X109334093Y-139473653D01*
X109252512Y-139276212D01*
X109101583Y-139125019D01*
X109099245Y-139124048D01*
X109168906Y-138956284D01*
X109169093Y-138742653D01*
X109087512Y-138545212D01*
X108936583Y-138394019D01*
X108739284Y-138312094D01*
X108525653Y-138311907D01*
X108328212Y-138393488D01*
X108177019Y-138544417D01*
X108124598Y-138670662D01*
X108051383Y-138597319D01*
X107854084Y-138515394D01*
X107640453Y-138515207D01*
X107443012Y-138596788D01*
X107291819Y-138747717D01*
X107209894Y-138945016D01*
X107209707Y-139158647D01*
X106733000Y-139158647D01*
X106733000Y-138987800D01*
X106944292Y-138776509D01*
X107040347Y-138776593D01*
X107237788Y-138695012D01*
X107388981Y-138544083D01*
X107470906Y-138346784D01*
X107471093Y-138133153D01*
X107389512Y-137935712D01*
X107238583Y-137784519D01*
X107041284Y-137702594D01*
X106827653Y-137702407D01*
X106630212Y-137783988D01*
X106479019Y-137934917D01*
X106397094Y-138132216D01*
X106397009Y-138229190D01*
X106072350Y-138553850D01*
X105988459Y-138679401D01*
X105985354Y-138695012D01*
X105959000Y-138827500D01*
X105959000Y-143493000D01*
X104461474Y-143493000D01*
X104512981Y-143441583D01*
X104594906Y-143244284D01*
X104595093Y-143030653D01*
X104513512Y-142833212D01*
X104362583Y-142682019D01*
X104165284Y-142600094D01*
X103951653Y-142599907D01*
X103754212Y-142681488D01*
X103603019Y-142832417D01*
X103521094Y-143029716D01*
X103520907Y-143243347D01*
X103602488Y-143440788D01*
X103654609Y-143493000D01*
X102150206Y-143493000D01*
X102226906Y-143308284D01*
X102227093Y-143094653D01*
X102145512Y-142897212D01*
X101994583Y-142746019D01*
X101797284Y-142664094D01*
X101583653Y-142663907D01*
X101386212Y-142745488D01*
X101235019Y-142896417D01*
X101179184Y-143030884D01*
X100729650Y-142581350D01*
X100604099Y-142497459D01*
X100456000Y-142468000D01*
X99618700Y-142468000D01*
X99544226Y-142482814D01*
X99470855Y-142497354D01*
X99470738Y-142497432D01*
X99470602Y-142497459D01*
X99408208Y-142539149D01*
X99345244Y-142581156D01*
X99247260Y-142679000D01*
X93262000Y-142679000D01*
X93262000Y-142168547D01*
X95634927Y-142168547D01*
X95716508Y-142365988D01*
X95867437Y-142517181D01*
X96064736Y-142599106D01*
X96278367Y-142599293D01*
X96475808Y-142517712D01*
X96627001Y-142366783D01*
X96707205Y-142173627D01*
X97169087Y-142173627D01*
X97250668Y-142371068D01*
X97401597Y-142522261D01*
X97598896Y-142604186D01*
X97812527Y-142604373D01*
X98009968Y-142522792D01*
X98161161Y-142371863D01*
X98243086Y-142174564D01*
X98243273Y-141960933D01*
X98161692Y-141763492D01*
X98010763Y-141612299D01*
X97813464Y-141530374D01*
X97599833Y-141530187D01*
X97402392Y-141611768D01*
X97251199Y-141762697D01*
X97169274Y-141959996D01*
X97169087Y-142173627D01*
X96707205Y-142173627D01*
X96708926Y-142169484D01*
X96709113Y-141955853D01*
X96627532Y-141758412D01*
X96476603Y-141607219D01*
X96279304Y-141525294D01*
X96065673Y-141525107D01*
X95868232Y-141606688D01*
X95717039Y-141757617D01*
X95635114Y-141954916D01*
X95634927Y-142168547D01*
X93262000Y-142168547D01*
X93262000Y-141532772D01*
X93335968Y-141711788D01*
X93486897Y-141862981D01*
X93684196Y-141944906D01*
X93897827Y-141945093D01*
X94095268Y-141863512D01*
X94246461Y-141712583D01*
X94328386Y-141515284D01*
X94328573Y-141301653D01*
X94246992Y-141104212D01*
X94096063Y-140953019D01*
X93898764Y-140871094D01*
X93685133Y-140870907D01*
X93487692Y-140952488D01*
X93336831Y-141103085D01*
X93411906Y-140922284D01*
X93412093Y-140708653D01*
X93330512Y-140511212D01*
X93179583Y-140360019D01*
X92982284Y-140278094D01*
X92885204Y-140278009D01*
X92766800Y-140159653D01*
X92766800Y-139810347D01*
X100464907Y-139810347D01*
X100546488Y-140007788D01*
X100697417Y-140158981D01*
X100894716Y-140240906D01*
X101108347Y-140241093D01*
X101305788Y-140159512D01*
X101456981Y-140008583D01*
X101460992Y-139998923D01*
X101624716Y-140066906D01*
X101838347Y-140067093D01*
X102035788Y-139985512D01*
X102186981Y-139834583D01*
X102268906Y-139637284D01*
X102269093Y-139423653D01*
X102187512Y-139226212D01*
X102036583Y-139075019D01*
X101839284Y-138993094D01*
X101625653Y-138992907D01*
X101428212Y-139074488D01*
X101277019Y-139225417D01*
X101273008Y-139235077D01*
X101109284Y-139167094D01*
X100895653Y-139166907D01*
X100698212Y-139248488D01*
X100547019Y-139399417D01*
X100465094Y-139596716D01*
X100464907Y-139810347D01*
X92766800Y-139810347D01*
X92766800Y-138307445D01*
X92834781Y-138239583D01*
X92916706Y-138042284D01*
X92916893Y-137828653D01*
X92835312Y-137631212D01*
X92696443Y-137492100D01*
X108093301Y-137492100D01*
X108174882Y-137689541D01*
X108325811Y-137840734D01*
X108523110Y-137922659D01*
X108736741Y-137922846D01*
X108934182Y-137841265D01*
X109085375Y-137690336D01*
X109167300Y-137493037D01*
X109167487Y-137279406D01*
X109085906Y-137081965D01*
X108934977Y-136930772D01*
X108737678Y-136848847D01*
X108524047Y-136848660D01*
X108326606Y-136930241D01*
X108175413Y-137081170D01*
X108093488Y-137278469D01*
X108093301Y-137492100D01*
X92696443Y-137492100D01*
X92684383Y-137480019D01*
X92487084Y-137398094D01*
X92273453Y-137397907D01*
X92076012Y-137479488D01*
X91924819Y-137630417D01*
X91842894Y-137827716D01*
X91842707Y-138041347D01*
X91924288Y-138238788D01*
X91992800Y-138307420D01*
X91992800Y-140320000D01*
X91992808Y-140320039D01*
X91992800Y-140320078D01*
X92007562Y-140394211D01*
X92012776Y-140420426D01*
X91831112Y-140495488D01*
X91679919Y-140646417D01*
X91597994Y-140843716D01*
X91597807Y-141057347D01*
X91679388Y-141254788D01*
X91830317Y-141405981D01*
X92027616Y-141487906D01*
X92241247Y-141488093D01*
X92438688Y-141406512D01*
X92488000Y-141357286D01*
X92488000Y-142721222D01*
X92381550Y-142792350D01*
X90668836Y-144505064D01*
X90625512Y-144400212D01*
X90474583Y-144249019D01*
X90277284Y-144167094D01*
X90063653Y-144166907D01*
X89866212Y-144248488D01*
X89715019Y-144399417D01*
X89633094Y-144596716D01*
X89632907Y-144810347D01*
X89714488Y-145007788D01*
X89865417Y-145158981D01*
X89971055Y-145202845D01*
X88893050Y-146280850D01*
X88809159Y-146406401D01*
X88804728Y-146428677D01*
X88779700Y-146554500D01*
X88779700Y-148065155D01*
X88766663Y-148078169D01*
X88669683Y-147981019D01*
X88472384Y-147899094D01*
X88258753Y-147898907D01*
X88061312Y-147980488D01*
X87910119Y-148131417D01*
X87828194Y-148328716D01*
X87828007Y-148542347D01*
X87909588Y-148739788D01*
X88060517Y-148890981D01*
X88257816Y-148972906D01*
X88471447Y-148973093D01*
X88668888Y-148891512D01*
X88765137Y-148795431D01*
X88862117Y-148892581D01*
X89059416Y-148974506D01*
X89273047Y-148974693D01*
X89470488Y-148893112D01*
X89621681Y-148742183D01*
X89703606Y-148544884D01*
X89703793Y-148331253D01*
X89622212Y-148133812D01*
X89553700Y-148065180D01*
X89553700Y-146714800D01*
X90106089Y-146162411D01*
X90176768Y-146333468D01*
X90227517Y-146384306D01*
X90023013Y-146384127D01*
X89825572Y-146465708D01*
X89674379Y-146616637D01*
X89592454Y-146813936D01*
X89592267Y-147027567D01*
X89673848Y-147225008D01*
X89824777Y-147376201D01*
X90022076Y-147458126D01*
X90235707Y-147458313D01*
X90433148Y-147376732D01*
X90584341Y-147225803D01*
X90666266Y-147028504D01*
X90666453Y-146814873D01*
X90584872Y-146617432D01*
X90534123Y-146566594D01*
X90738627Y-146566773D01*
X90854320Y-146518969D01*
X90788794Y-146676776D01*
X90788607Y-146890407D01*
X90870188Y-147087848D01*
X91021117Y-147239041D01*
X91153530Y-147294023D01*
X91109479Y-147337997D01*
X91027554Y-147535296D01*
X91027367Y-147748927D01*
X91108948Y-147946368D01*
X91259877Y-148097561D01*
X91457176Y-148179486D01*
X91670807Y-148179673D01*
X91868248Y-148098092D01*
X92019441Y-147947163D01*
X92101366Y-147749864D01*
X92101371Y-147743847D01*
X94230307Y-147743847D01*
X94311888Y-147941288D01*
X94462817Y-148092481D01*
X94660116Y-148174406D01*
X94873747Y-148174593D01*
X95071188Y-148093012D01*
X95222381Y-147942083D01*
X95304306Y-147744784D01*
X95304493Y-147531153D01*
X95222912Y-147333712D01*
X95071983Y-147182519D01*
X94874684Y-147100594D01*
X94661053Y-147100407D01*
X94463612Y-147181988D01*
X94312419Y-147332917D01*
X94230494Y-147530216D01*
X94230307Y-147743847D01*
X92101371Y-147743847D01*
X92101553Y-147536233D01*
X92054766Y-147423000D01*
X92160647Y-147423093D01*
X92358088Y-147341512D01*
X92509281Y-147190583D01*
X92591206Y-146993284D01*
X92591393Y-146779653D01*
X92509812Y-146582212D01*
X92358883Y-146431019D01*
X92161584Y-146349094D01*
X91947953Y-146348907D01*
X91750512Y-146430488D01*
X91740997Y-146439987D01*
X91740571Y-146439560D01*
X91816681Y-146363583D01*
X91857471Y-146265347D01*
X94204607Y-146265347D01*
X94286188Y-146462788D01*
X94437117Y-146613981D01*
X94634416Y-146695906D01*
X94848047Y-146696093D01*
X95045488Y-146614512D01*
X95096707Y-146563383D01*
X95043294Y-146692016D01*
X95043107Y-146905647D01*
X95124688Y-147103088D01*
X95275617Y-147254281D01*
X95472916Y-147336206D01*
X95686547Y-147336393D01*
X95883988Y-147254812D01*
X96035181Y-147103883D01*
X96117106Y-146906584D01*
X96117211Y-146786267D01*
X96595047Y-146786267D01*
X96676628Y-146983708D01*
X96827557Y-147134901D01*
X97024856Y-147216826D01*
X97238487Y-147217013D01*
X97435928Y-147135432D01*
X97567323Y-147004266D01*
X97580868Y-147037048D01*
X97703874Y-147160270D01*
X97651312Y-147181988D01*
X97500119Y-147332917D01*
X97418194Y-147530216D01*
X97418007Y-147743847D01*
X97499588Y-147941288D01*
X97650517Y-148092481D01*
X97847816Y-148174406D01*
X98061447Y-148174593D01*
X98258888Y-148093012D01*
X98410081Y-147942083D01*
X98492006Y-147744784D01*
X98492136Y-147595347D01*
X102916907Y-147595347D01*
X102998488Y-147792788D01*
X103149417Y-147943981D01*
X103346716Y-148025906D01*
X103560347Y-148026093D01*
X103757788Y-147944512D01*
X103908981Y-147793583D01*
X103990906Y-147596284D01*
X103991093Y-147382653D01*
X103909512Y-147185212D01*
X103758583Y-147034019D01*
X103561284Y-146952094D01*
X103347653Y-146951907D01*
X103150212Y-147033488D01*
X102999019Y-147184417D01*
X102917094Y-147381716D01*
X102916907Y-147595347D01*
X98492136Y-147595347D01*
X98492193Y-147531153D01*
X98410612Y-147333712D01*
X98287606Y-147210490D01*
X98340168Y-147188772D01*
X98373651Y-147155347D01*
X100656907Y-147155347D01*
X100738488Y-147352788D01*
X100889417Y-147503981D01*
X101086716Y-147585906D01*
X101300347Y-147586093D01*
X101497788Y-147504512D01*
X101648981Y-147353583D01*
X101730906Y-147156284D01*
X101731093Y-146942653D01*
X101649512Y-146745212D01*
X101498583Y-146594019D01*
X101301284Y-146512094D01*
X101087653Y-146511907D01*
X100890212Y-146593488D01*
X100739019Y-146744417D01*
X100657094Y-146941716D01*
X100656907Y-147155347D01*
X98373651Y-147155347D01*
X98491361Y-147037843D01*
X98573286Y-146840544D01*
X98573473Y-146626913D01*
X98491892Y-146429472D01*
X98340963Y-146278279D01*
X98143664Y-146196354D01*
X97930033Y-146196167D01*
X97732592Y-146277748D01*
X97601197Y-146408914D01*
X97587652Y-146376132D01*
X97436723Y-146224939D01*
X97239424Y-146143014D01*
X97025793Y-146142827D01*
X96828352Y-146224408D01*
X96677159Y-146375337D01*
X96595234Y-146572636D01*
X96595047Y-146786267D01*
X96117211Y-146786267D01*
X96117293Y-146692953D01*
X96035712Y-146495512D01*
X95884783Y-146344319D01*
X95687484Y-146262394D01*
X95473853Y-146262207D01*
X95276412Y-146343788D01*
X95225193Y-146394917D01*
X95278606Y-146266284D01*
X95278793Y-146052653D01*
X95197212Y-145855212D01*
X95186366Y-145844347D01*
X95721007Y-145844347D01*
X95802588Y-146041788D01*
X95953517Y-146192981D01*
X96150816Y-146274906D01*
X96364447Y-146275093D01*
X96561888Y-146193512D01*
X96713081Y-146042583D01*
X96795006Y-145845284D01*
X96795037Y-145809347D01*
X98982207Y-145809347D01*
X99063788Y-146006788D01*
X99214717Y-146157981D01*
X99412016Y-146239906D01*
X99625647Y-146240093D01*
X99740229Y-146192749D01*
X99810488Y-146362788D01*
X99961417Y-146513981D01*
X100158716Y-146595906D01*
X100372347Y-146596093D01*
X100569788Y-146514512D01*
X100720981Y-146363583D01*
X100802906Y-146166284D01*
X100803093Y-145952653D01*
X100722625Y-145757905D01*
X100864716Y-145816906D01*
X101074717Y-145817090D01*
X101146488Y-145990788D01*
X101297417Y-146141981D01*
X101494716Y-146223906D01*
X101708347Y-146224093D01*
X101905788Y-146142512D01*
X102056981Y-145991583D01*
X102138906Y-145794284D01*
X102139093Y-145580653D01*
X102057512Y-145383212D01*
X101906583Y-145232019D01*
X101813450Y-145193347D01*
X102070907Y-145193347D01*
X102152488Y-145390788D01*
X102303417Y-145541981D01*
X102500716Y-145623906D01*
X102714347Y-145624093D01*
X102911788Y-145542512D01*
X103062981Y-145391583D01*
X103144906Y-145194284D01*
X103144906Y-145193347D01*
X103532907Y-145193347D01*
X103614488Y-145390788D01*
X103765417Y-145541981D01*
X103962716Y-145623906D01*
X104176347Y-145624093D01*
X104373788Y-145542512D01*
X104524981Y-145391583D01*
X104606906Y-145194284D01*
X104607093Y-144980653D01*
X104525512Y-144783212D01*
X104374583Y-144632019D01*
X104177284Y-144550094D01*
X103963653Y-144549907D01*
X103766212Y-144631488D01*
X103615019Y-144782417D01*
X103533094Y-144979716D01*
X103532907Y-145193347D01*
X103144906Y-145193347D01*
X103145093Y-144980653D01*
X103063512Y-144783212D01*
X102912583Y-144632019D01*
X102715284Y-144550094D01*
X102501653Y-144549907D01*
X102304212Y-144631488D01*
X102153019Y-144782417D01*
X102071094Y-144979716D01*
X102070907Y-145193347D01*
X101813450Y-145193347D01*
X101709284Y-145150094D01*
X101499283Y-145149910D01*
X101427512Y-144976212D01*
X101276583Y-144825019D01*
X101079284Y-144743094D01*
X100865653Y-144742907D01*
X100668212Y-144824488D01*
X100517019Y-144975417D01*
X100435094Y-145172716D01*
X100434907Y-145386347D01*
X100515375Y-145581095D01*
X100373284Y-145522094D01*
X100159653Y-145521907D01*
X100045071Y-145569251D01*
X99974812Y-145399212D01*
X99823883Y-145248019D01*
X99626584Y-145166094D01*
X99412953Y-145165907D01*
X99215512Y-145247488D01*
X99064319Y-145398417D01*
X98982394Y-145595716D01*
X98982207Y-145809347D01*
X96795037Y-145809347D01*
X96795193Y-145631653D01*
X96713612Y-145434212D01*
X96562683Y-145283019D01*
X96365384Y-145201094D01*
X96151753Y-145200907D01*
X95954312Y-145282488D01*
X95803119Y-145433417D01*
X95721194Y-145630716D01*
X95721007Y-145844347D01*
X95186366Y-145844347D01*
X95046283Y-145704019D01*
X94848984Y-145622094D01*
X94635353Y-145621907D01*
X94437912Y-145703488D01*
X94286719Y-145854417D01*
X94204794Y-146051716D01*
X94204607Y-146265347D01*
X91857471Y-146265347D01*
X91898606Y-146166284D01*
X91898793Y-145952653D01*
X91817212Y-145755212D01*
X91666283Y-145604019D01*
X91468984Y-145522094D01*
X91255353Y-145521907D01*
X91057912Y-145603488D01*
X91011676Y-145649643D01*
X90936863Y-145574699D01*
X90765116Y-145503384D01*
X90784153Y-145484347D01*
X93463407Y-145484347D01*
X93544988Y-145681788D01*
X93695917Y-145832981D01*
X93893216Y-145914906D01*
X94106847Y-145915093D01*
X94304288Y-145833512D01*
X94455481Y-145682583D01*
X94537406Y-145485284D01*
X94537593Y-145271653D01*
X94531682Y-145257347D01*
X94792107Y-145257347D01*
X94873688Y-145454788D01*
X95024617Y-145605981D01*
X95221916Y-145687906D01*
X95435547Y-145688093D01*
X95632988Y-145606512D01*
X95784181Y-145455583D01*
X95866106Y-145258284D01*
X95866293Y-145044653D01*
X95790140Y-144860347D01*
X97100807Y-144860347D01*
X97182388Y-145057788D01*
X97333317Y-145208981D01*
X97530616Y-145290906D01*
X97744247Y-145291093D01*
X97941688Y-145209512D01*
X98092881Y-145058583D01*
X98174806Y-144861284D01*
X98174993Y-144647653D01*
X98093412Y-144450212D01*
X97942483Y-144299019D01*
X97745184Y-144217094D01*
X97531553Y-144216907D01*
X97334112Y-144298488D01*
X97182919Y-144449417D01*
X97100994Y-144646716D01*
X97100807Y-144860347D01*
X95790140Y-144860347D01*
X95784712Y-144847212D01*
X95633783Y-144696019D01*
X95436484Y-144614094D01*
X95222853Y-144613907D01*
X95025412Y-144695488D01*
X94874219Y-144846417D01*
X94792294Y-145043716D01*
X94792107Y-145257347D01*
X94531682Y-145257347D01*
X94456012Y-145074212D01*
X94305083Y-144923019D01*
X94107784Y-144841094D01*
X93894153Y-144840907D01*
X93696712Y-144922488D01*
X93545519Y-145073417D01*
X93463594Y-145270716D01*
X93463407Y-145484347D01*
X90784153Y-145484347D01*
X91566349Y-144702151D01*
X91566207Y-144864347D01*
X91647788Y-145061788D01*
X91798717Y-145212981D01*
X91996016Y-145294906D01*
X92209647Y-145295093D01*
X92407088Y-145213512D01*
X92558281Y-145062583D01*
X92640206Y-144865284D01*
X92640393Y-144651653D01*
X92558812Y-144454212D01*
X92407883Y-144303019D01*
X92210584Y-144221094D01*
X92047549Y-144220951D01*
X92815500Y-143453000D01*
X99369702Y-143453000D01*
X99369607Y-143561347D01*
X99451188Y-143758788D01*
X99602117Y-143909981D01*
X99799416Y-143991906D01*
X100013047Y-143992093D01*
X100210488Y-143910512D01*
X100361681Y-143759583D01*
X100443606Y-143562284D01*
X100443757Y-143390057D01*
X101207350Y-144153650D01*
X101332902Y-144237541D01*
X101481000Y-144267000D01*
X105959000Y-144267000D01*
X105959000Y-146096000D01*
X105988459Y-146244099D01*
X106072350Y-146369650D01*
X107019164Y-147316464D01*
X106840353Y-147316307D01*
X106642912Y-147397888D01*
X106491719Y-147548817D01*
X106409794Y-147746116D01*
X106409607Y-147959747D01*
X106491188Y-148157188D01*
X106578220Y-148244372D01*
X106543867Y-148278665D01*
X106451183Y-148185819D01*
X106253884Y-148103894D01*
X106040253Y-148103707D01*
X105842812Y-148185288D01*
X105691619Y-148336217D01*
X105609694Y-148533516D01*
X105609507Y-148747147D01*
X105691088Y-148944588D01*
X105793567Y-149047247D01*
X105691619Y-149149017D01*
X105609694Y-149346316D01*
X105609507Y-149559947D01*
X105691088Y-149757388D01*
X105842017Y-149908581D01*
X106039316Y-149990506D01*
X106252947Y-149990693D01*
X106450388Y-149909112D01*
X106601581Y-149758183D01*
X106683506Y-149560884D01*
X106683693Y-149347253D01*
X106602112Y-149149812D01*
X106499633Y-149047153D01*
X106546733Y-149000135D01*
X106639417Y-149092981D01*
X106836716Y-149174906D01*
X107050347Y-149175093D01*
X107247788Y-149093512D01*
X107398981Y-148942583D01*
X107480906Y-148745284D01*
X107481093Y-148531653D01*
X107399512Y-148334212D01*
X107312480Y-148247028D01*
X107401681Y-148157983D01*
X107483606Y-147960684D01*
X107483793Y-147747053D01*
X107402212Y-147549612D01*
X107328578Y-147475850D01*
X107341400Y-147478400D01*
X107412455Y-147478400D01*
X107480317Y-147546381D01*
X107677616Y-147628306D01*
X107774591Y-147628391D01*
X108392200Y-148246000D01*
X108285653Y-148245907D01*
X108088212Y-148327488D01*
X107937019Y-148478417D01*
X107855094Y-148675716D01*
X107854907Y-148889347D01*
X107936488Y-149086788D01*
X108087417Y-149237981D01*
X108284716Y-149319906D01*
X108498347Y-149320093D01*
X108695788Y-149238512D01*
X108846981Y-149087583D01*
X108928906Y-148890284D01*
X108929000Y-148782801D01*
X109060849Y-148914650D01*
X109119525Y-148953856D01*
X109043212Y-148985388D01*
X108892019Y-149136317D01*
X108810094Y-149333616D01*
X108809907Y-149547247D01*
X108891488Y-149744688D01*
X109042417Y-149895881D01*
X109239716Y-149977806D01*
X109397800Y-149977944D01*
X109397800Y-152521000D01*
X105943400Y-152521000D01*
X105795302Y-152550459D01*
X105669750Y-152634350D01*
X104843300Y-153460800D01*
X103293245Y-153460800D01*
X103225383Y-153392819D01*
X103028084Y-153310894D01*
X102814453Y-153310707D01*
X102617012Y-153392288D01*
X102465819Y-153543217D01*
X102383894Y-153740516D01*
X102383809Y-153837491D01*
X101493883Y-154727417D01*
X100778485Y-154731106D01*
X100672583Y-154625019D01*
X100475284Y-154543094D01*
X100261653Y-154542907D01*
X100064212Y-154624488D01*
X99953143Y-154735363D01*
X96798906Y-154751630D01*
X96748383Y-154701019D01*
X96551084Y-154619094D01*
X96337453Y-154618907D01*
X96140012Y-154700488D01*
X96085093Y-154755312D01*
X94773400Y-154762076D01*
X94773400Y-154355800D01*
X94743941Y-154207702D01*
X94660050Y-154082150D01*
X93821850Y-153243950D01*
X93696299Y-153160059D01*
X93548200Y-153130600D01*
X91668600Y-153130600D01*
X91520502Y-153160059D01*
X91394950Y-153243949D01*
X90797100Y-153841800D01*
X87315731Y-153841800D01*
X87322981Y-153834563D01*
X87404906Y-153637264D01*
X87405093Y-153423633D01*
X87323512Y-153226192D01*
X87172583Y-153074999D01*
X86975284Y-152993074D01*
X86761653Y-152992887D01*
X86564212Y-153074468D01*
X86413019Y-153225397D01*
X86331094Y-153422696D01*
X86330907Y-153636327D01*
X86378000Y-153750300D01*
X85858000Y-153230300D01*
X85858000Y-152500347D01*
X101316907Y-152500347D01*
X101398488Y-152697788D01*
X101549417Y-152848981D01*
X101746716Y-152930906D01*
X101960347Y-152931093D01*
X102157788Y-152849512D01*
X102308981Y-152698583D01*
X102390906Y-152501284D01*
X102390949Y-152451676D01*
X102569716Y-152525906D01*
X102783347Y-152526093D01*
X102980788Y-152444512D01*
X103131981Y-152293583D01*
X103187529Y-152159807D01*
X103346716Y-152225906D01*
X103560347Y-152226093D01*
X103757788Y-152144512D01*
X103908981Y-151993583D01*
X103990906Y-151796284D01*
X103991093Y-151582653D01*
X103909512Y-151385212D01*
X103758583Y-151234019D01*
X103665450Y-151195347D01*
X105528907Y-151195347D01*
X105610488Y-151392788D01*
X105761417Y-151543981D01*
X105958716Y-151625906D01*
X106172347Y-151626093D01*
X106369788Y-151544512D01*
X106520981Y-151393583D01*
X106602906Y-151196284D01*
X106603093Y-150982653D01*
X106540575Y-150831347D01*
X106701907Y-150831347D01*
X106783488Y-151028788D01*
X106934417Y-151179981D01*
X107131716Y-151261906D01*
X107345347Y-151262093D01*
X107542788Y-151180512D01*
X107693981Y-151029583D01*
X107775906Y-150832284D01*
X107776093Y-150618653D01*
X107707377Y-150452347D01*
X108077907Y-150452347D01*
X108159488Y-150649788D01*
X108310417Y-150800981D01*
X108507716Y-150882906D01*
X108721347Y-150883093D01*
X108918788Y-150801512D01*
X109069981Y-150650583D01*
X109151906Y-150453284D01*
X109152093Y-150239653D01*
X109070512Y-150042212D01*
X108919583Y-149891019D01*
X108722284Y-149809094D01*
X108508653Y-149808907D01*
X108311212Y-149890488D01*
X108160019Y-150041417D01*
X108078094Y-150238716D01*
X108077907Y-150452347D01*
X107707377Y-150452347D01*
X107694512Y-150421212D01*
X107543583Y-150270019D01*
X107346284Y-150188094D01*
X107132653Y-150187907D01*
X106935212Y-150269488D01*
X106784019Y-150420417D01*
X106702094Y-150617716D01*
X106701907Y-150831347D01*
X106540575Y-150831347D01*
X106521512Y-150785212D01*
X106370583Y-150634019D01*
X106173284Y-150552094D01*
X105959653Y-150551907D01*
X105762212Y-150633488D01*
X105611019Y-150784417D01*
X105529094Y-150981716D01*
X105528907Y-151195347D01*
X103665450Y-151195347D01*
X103561284Y-151152094D01*
X103347653Y-151151907D01*
X103150212Y-151233488D01*
X102999019Y-151384417D01*
X102943471Y-151518193D01*
X102784284Y-151452094D01*
X102570653Y-151451907D01*
X102373212Y-151533488D01*
X102222019Y-151684417D01*
X102140094Y-151881716D01*
X102140051Y-151931324D01*
X101961284Y-151857094D01*
X101747653Y-151856907D01*
X101550212Y-151938488D01*
X101399019Y-152089417D01*
X101317094Y-152286716D01*
X101316907Y-152500347D01*
X85858000Y-152500347D01*
X85858000Y-151084347D01*
X91144207Y-151084347D01*
X91225788Y-151281788D01*
X91376717Y-151432981D01*
X91574016Y-151514906D01*
X91787647Y-151515093D01*
X91985088Y-151433512D01*
X92136281Y-151282583D01*
X92218206Y-151085284D01*
X92218393Y-150871653D01*
X92136812Y-150674212D01*
X91985883Y-150523019D01*
X91788584Y-150441094D01*
X91574953Y-150440907D01*
X91377512Y-150522488D01*
X91226319Y-150673417D01*
X91144394Y-150870716D01*
X91144207Y-151084347D01*
X85858000Y-151084347D01*
X85858000Y-149655751D01*
X85879088Y-149706788D01*
X86030017Y-149857981D01*
X86227316Y-149939906D01*
X86440947Y-149940093D01*
X86638388Y-149858512D01*
X86772994Y-149724141D01*
X88918805Y-149724141D01*
X89000386Y-149921582D01*
X89151315Y-150072775D01*
X89348614Y-150154700D01*
X89562245Y-150154887D01*
X89759686Y-150073306D01*
X89910879Y-149922377D01*
X89992804Y-149725078D01*
X89992948Y-149560347D01*
X91016907Y-149560347D01*
X91098488Y-149757788D01*
X91249417Y-149908981D01*
X91446716Y-149990906D01*
X91660347Y-149991093D01*
X91785581Y-149939347D01*
X93097607Y-149939347D01*
X93179188Y-150136788D01*
X93330117Y-150287981D01*
X93527416Y-150369906D01*
X93741047Y-150370093D01*
X93938488Y-150288512D01*
X94089681Y-150137583D01*
X94171606Y-149940284D01*
X94171726Y-149803718D01*
X94229188Y-149942788D01*
X94380117Y-150093981D01*
X94577416Y-150175906D01*
X94791047Y-150176093D01*
X94925962Y-150120347D01*
X99711907Y-150120347D01*
X99793488Y-150317788D01*
X99944417Y-150468981D01*
X100141716Y-150550906D01*
X100355347Y-150551093D01*
X100511571Y-150486543D01*
X100543488Y-150563788D01*
X100694417Y-150714981D01*
X100891716Y-150796906D01*
X101105347Y-150797093D01*
X101302788Y-150715512D01*
X101453981Y-150564583D01*
X101535906Y-150367284D01*
X101536093Y-150153653D01*
X101454512Y-149956212D01*
X101303583Y-149805019D01*
X101106284Y-149723094D01*
X100892653Y-149722907D01*
X100736429Y-149787457D01*
X100704512Y-149710212D01*
X100553583Y-149559019D01*
X100356284Y-149477094D01*
X100142653Y-149476907D01*
X99945212Y-149558488D01*
X99794019Y-149709417D01*
X99712094Y-149906716D01*
X99711907Y-150120347D01*
X94925962Y-150120347D01*
X94988488Y-150094512D01*
X95119121Y-149964107D01*
X95316116Y-150045906D01*
X95529747Y-150046093D01*
X95727188Y-149964512D01*
X95878381Y-149813583D01*
X95960306Y-149616284D01*
X95960354Y-149560347D01*
X95982907Y-149560347D01*
X96064488Y-149757788D01*
X96215417Y-149908981D01*
X96412716Y-149990906D01*
X96626347Y-149991093D01*
X96823788Y-149909512D01*
X96974981Y-149758583D01*
X97056906Y-149561284D01*
X97057031Y-149418347D01*
X97079707Y-149418347D01*
X97161288Y-149615788D01*
X97312217Y-149766981D01*
X97509516Y-149848906D01*
X97723147Y-149849093D01*
X97920588Y-149767512D01*
X98071781Y-149616583D01*
X98153706Y-149419284D01*
X98153893Y-149205653D01*
X98072312Y-149008212D01*
X97921383Y-148857019D01*
X97869191Y-148835347D01*
X98763807Y-148835347D01*
X98845388Y-149032788D01*
X98996317Y-149183981D01*
X99193616Y-149265906D01*
X99407247Y-149266093D01*
X99604688Y-149184512D01*
X99755881Y-149033583D01*
X99763453Y-149015347D01*
X100476907Y-149015347D01*
X100558488Y-149212788D01*
X100709417Y-149363981D01*
X100906716Y-149445906D01*
X101120347Y-149446093D01*
X101317788Y-149364512D01*
X101360026Y-149322347D01*
X101899907Y-149322347D01*
X101981488Y-149519788D01*
X102132417Y-149670981D01*
X102329716Y-149752906D01*
X102543347Y-149753093D01*
X102740788Y-149671512D01*
X102891981Y-149520583D01*
X102938026Y-149409694D01*
X102937907Y-149545347D01*
X103019488Y-149742788D01*
X103170417Y-149893981D01*
X103367716Y-149975906D01*
X103581347Y-149976093D01*
X103778788Y-149894512D01*
X103929981Y-149743583D01*
X104011906Y-149546284D01*
X104012093Y-149332653D01*
X103930512Y-149135212D01*
X103779583Y-148984019D01*
X103582284Y-148902094D01*
X103368653Y-148901907D01*
X103171212Y-148983488D01*
X103020019Y-149134417D01*
X102973974Y-149245306D01*
X102974093Y-149109653D01*
X102892512Y-148912212D01*
X102741583Y-148761019D01*
X102544284Y-148679094D01*
X102330653Y-148678907D01*
X102133212Y-148760488D01*
X101982019Y-148911417D01*
X101900094Y-149108716D01*
X101899907Y-149322347D01*
X101360026Y-149322347D01*
X101468981Y-149213583D01*
X101550906Y-149016284D01*
X101551093Y-148802653D01*
X101469512Y-148605212D01*
X101318583Y-148454019D01*
X101121284Y-148372094D01*
X100907653Y-148371907D01*
X100710212Y-148453488D01*
X100559019Y-148604417D01*
X100477094Y-148801716D01*
X100476907Y-149015347D01*
X99763453Y-149015347D01*
X99837806Y-148836284D01*
X99837993Y-148622653D01*
X99756412Y-148425212D01*
X99605483Y-148274019D01*
X99408184Y-148192094D01*
X99194553Y-148191907D01*
X98997112Y-148273488D01*
X98845919Y-148424417D01*
X98763994Y-148621716D01*
X98763807Y-148835347D01*
X97869191Y-148835347D01*
X97724084Y-148775094D01*
X97510453Y-148774907D01*
X97313012Y-148856488D01*
X97161819Y-149007417D01*
X97079894Y-149204716D01*
X97079707Y-149418347D01*
X97057031Y-149418347D01*
X97057093Y-149347653D01*
X96975512Y-149150212D01*
X96824583Y-148999019D01*
X96627284Y-148917094D01*
X96413653Y-148916907D01*
X96216212Y-148998488D01*
X96065019Y-149149417D01*
X95983094Y-149346716D01*
X95982907Y-149560347D01*
X95960354Y-149560347D01*
X95960493Y-149402653D01*
X95878912Y-149205212D01*
X95727983Y-149054019D01*
X95530684Y-148972094D01*
X95317053Y-148971907D01*
X95119612Y-149053488D01*
X94988979Y-149183893D01*
X94791984Y-149102094D01*
X94578353Y-149101907D01*
X94380912Y-149183488D01*
X94229719Y-149334417D01*
X94147794Y-149531716D01*
X94147674Y-149668282D01*
X94090212Y-149529212D01*
X93939283Y-149378019D01*
X93741984Y-149296094D01*
X93528353Y-149295907D01*
X93330912Y-149377488D01*
X93179719Y-149528417D01*
X93097794Y-149725716D01*
X93097607Y-149939347D01*
X91785581Y-149939347D01*
X91857788Y-149909512D01*
X92008981Y-149758583D01*
X92090906Y-149561284D01*
X92091093Y-149347653D01*
X92009512Y-149150212D01*
X91858583Y-148999019D01*
X91661284Y-148917094D01*
X91447653Y-148916907D01*
X91250212Y-148998488D01*
X91099019Y-149149417D01*
X91017094Y-149346716D01*
X91016907Y-149560347D01*
X89992948Y-149560347D01*
X89992991Y-149511447D01*
X89911410Y-149314006D01*
X89760481Y-149162813D01*
X89563182Y-149080888D01*
X89349551Y-149080701D01*
X89152110Y-149162282D01*
X89000917Y-149313211D01*
X88918992Y-149510510D01*
X88918805Y-149724141D01*
X86772994Y-149724141D01*
X86789581Y-149707583D01*
X86871506Y-149510284D01*
X86871693Y-149296653D01*
X86790112Y-149099212D01*
X86639183Y-148948019D01*
X86441884Y-148866094D01*
X86228253Y-148865907D01*
X86030812Y-148947488D01*
X85879619Y-149098417D01*
X85858000Y-149150482D01*
X85858000Y-146625347D01*
X86313307Y-146625347D01*
X86394888Y-146822788D01*
X86545817Y-146973981D01*
X86743116Y-147055906D01*
X86956747Y-147056093D01*
X87032284Y-147024882D01*
X87085588Y-147153888D01*
X87236517Y-147305081D01*
X87433816Y-147387006D01*
X87647447Y-147387193D01*
X87844888Y-147305612D01*
X87996081Y-147154683D01*
X88078006Y-146957384D01*
X88078193Y-146743753D01*
X87996612Y-146546312D01*
X87845683Y-146395119D01*
X87648384Y-146313194D01*
X87434753Y-146313007D01*
X87359216Y-146344218D01*
X87305912Y-146215212D01*
X87154983Y-146064019D01*
X86957684Y-145982094D01*
X86744053Y-145981907D01*
X86546612Y-146063488D01*
X86395419Y-146214417D01*
X86313494Y-146411716D01*
X86313307Y-146625347D01*
X85858000Y-146625347D01*
X85858000Y-145001464D01*
X87022454Y-145001464D01*
X87104035Y-145198905D01*
X87254964Y-145350098D01*
X87452263Y-145432023D01*
X87665894Y-145432210D01*
X87863335Y-145350629D01*
X88014528Y-145199700D01*
X88061876Y-145085672D01*
X88134057Y-145260362D01*
X88284986Y-145411555D01*
X88482285Y-145493480D01*
X88695916Y-145493667D01*
X88893357Y-145412086D01*
X89044550Y-145261157D01*
X89126475Y-145063858D01*
X89126576Y-144948743D01*
X89184147Y-144948793D01*
X89381588Y-144867212D01*
X89532781Y-144716283D01*
X89614706Y-144518984D01*
X89614893Y-144305353D01*
X89533312Y-144107912D01*
X89487916Y-144062437D01*
X89608981Y-143941583D01*
X89690906Y-143744284D01*
X89691093Y-143530653D01*
X89609512Y-143333212D01*
X89564138Y-143287759D01*
X89659781Y-143192283D01*
X89741706Y-142994984D01*
X89741893Y-142781353D01*
X89660312Y-142583912D01*
X89509383Y-142432719D01*
X89312084Y-142350794D01*
X89098453Y-142350607D01*
X88901012Y-142432188D01*
X88749819Y-142583117D01*
X88667894Y-142780416D01*
X88667707Y-142994047D01*
X88749288Y-143191488D01*
X88794662Y-143236941D01*
X88699019Y-143332417D01*
X88617094Y-143529716D01*
X88616907Y-143743347D01*
X88698488Y-143940788D01*
X88743884Y-143986263D01*
X88622819Y-144107117D01*
X88540894Y-144304416D01*
X88540793Y-144419531D01*
X88483222Y-144419481D01*
X88285781Y-144501062D01*
X88134588Y-144651991D01*
X88087240Y-144766019D01*
X88015059Y-144591329D01*
X87864130Y-144440136D01*
X87666831Y-144358211D01*
X87453200Y-144358024D01*
X87255759Y-144439605D01*
X87104566Y-144590534D01*
X87022641Y-144787833D01*
X87022454Y-145001464D01*
X85858000Y-145001464D01*
X85858000Y-143821300D01*
X86722672Y-142956629D01*
X86806562Y-142831077D01*
X86836021Y-142682979D01*
X86836021Y-142134799D01*
X86806562Y-141986701D01*
X86806562Y-141986700D01*
X86791627Y-141964347D01*
X87410603Y-141964347D01*
X87492184Y-142161788D01*
X87643113Y-142312981D01*
X87840412Y-142394906D01*
X88054043Y-142395093D01*
X88251484Y-142313512D01*
X88402677Y-142162583D01*
X88484602Y-141965284D01*
X88484789Y-141751653D01*
X88403208Y-141554212D01*
X88258337Y-141409087D01*
X90570167Y-141409087D01*
X90651748Y-141606528D01*
X90802677Y-141757721D01*
X90999976Y-141839646D01*
X91213607Y-141839833D01*
X91411048Y-141758252D01*
X91562241Y-141607323D01*
X91644166Y-141410024D01*
X91644353Y-141196393D01*
X91562772Y-140998952D01*
X91411843Y-140847759D01*
X91214544Y-140765834D01*
X91000913Y-140765647D01*
X90803472Y-140847228D01*
X90652279Y-140998157D01*
X90570354Y-141195456D01*
X90570167Y-141409087D01*
X88258337Y-141409087D01*
X88252279Y-141403019D01*
X88054980Y-141321094D01*
X87841349Y-141320907D01*
X87643908Y-141402488D01*
X87492715Y-141553417D01*
X87410790Y-141750716D01*
X87410603Y-141964347D01*
X86791627Y-141964347D01*
X86722671Y-141861149D01*
X86388300Y-141526778D01*
X86388300Y-140959347D01*
X88805207Y-140959347D01*
X88886788Y-141156788D01*
X89037717Y-141307981D01*
X89235016Y-141389906D01*
X89448647Y-141390093D01*
X89646088Y-141308512D01*
X89797281Y-141157583D01*
X89879206Y-140960284D01*
X89879393Y-140746653D01*
X89797812Y-140549212D01*
X89646883Y-140398019D01*
X89449584Y-140316094D01*
X89235953Y-140315907D01*
X89038512Y-140397488D01*
X88887319Y-140548417D01*
X88805394Y-140745716D01*
X88805207Y-140959347D01*
X86388300Y-140959347D01*
X86388300Y-139721347D01*
X90141407Y-139721347D01*
X90222988Y-139918788D01*
X90373917Y-140069981D01*
X90571216Y-140151906D01*
X90784847Y-140152093D01*
X90982288Y-140070512D01*
X91133481Y-139919583D01*
X91215406Y-139722284D01*
X91215593Y-139508653D01*
X91134012Y-139311212D01*
X90983083Y-139160019D01*
X90785784Y-139078094D01*
X90572153Y-139077907D01*
X90374712Y-139159488D01*
X90223519Y-139310417D01*
X90141594Y-139507716D01*
X90141407Y-139721347D01*
X86388300Y-139721347D01*
X86388300Y-137932001D01*
X86494036Y-137975906D01*
X86707667Y-137976093D01*
X86905108Y-137894512D01*
X87056301Y-137743583D01*
X87138226Y-137546284D01*
X87138413Y-137332653D01*
X87056832Y-137135212D01*
X86905903Y-136984019D01*
X86708604Y-136902094D01*
X86494973Y-136901907D01*
X86388300Y-136945983D01*
X86388300Y-135780347D01*
X90902907Y-135780347D01*
X90984488Y-135977788D01*
X91135417Y-136128981D01*
X91332716Y-136210906D01*
X91546347Y-136211093D01*
X91743788Y-136129512D01*
X91894981Y-135978583D01*
X91976906Y-135781284D01*
X91977093Y-135567653D01*
X91960026Y-135526347D01*
X93823907Y-135526347D01*
X93905488Y-135723788D01*
X94056417Y-135874981D01*
X94253716Y-135956906D01*
X94467347Y-135957093D01*
X94664788Y-135875512D01*
X94815981Y-135724583D01*
X94871720Y-135590347D01*
X97011607Y-135590347D01*
X97093188Y-135787788D01*
X97244117Y-135938981D01*
X97441416Y-136020906D01*
X97655047Y-136021093D01*
X97852488Y-135939512D01*
X98003681Y-135788583D01*
X98085606Y-135591284D01*
X98085696Y-135488347D01*
X100287907Y-135488347D01*
X100369488Y-135685788D01*
X100520417Y-135836981D01*
X100717716Y-135918906D01*
X100931347Y-135919093D01*
X101128788Y-135837512D01*
X101279981Y-135686583D01*
X101361906Y-135489284D01*
X101362093Y-135275653D01*
X101280512Y-135078212D01*
X101129583Y-134927019D01*
X100932284Y-134845094D01*
X100718653Y-134844907D01*
X100521212Y-134926488D01*
X100370019Y-135077417D01*
X100288094Y-135274716D01*
X100287907Y-135488347D01*
X98085696Y-135488347D01*
X98085793Y-135377653D01*
X98004212Y-135180212D01*
X97853283Y-135029019D01*
X97655984Y-134947094D01*
X97442353Y-134946907D01*
X97244912Y-135028488D01*
X97093719Y-135179417D01*
X97011794Y-135376716D01*
X97011607Y-135590347D01*
X94871720Y-135590347D01*
X94897906Y-135527284D01*
X94898093Y-135313653D01*
X94816512Y-135116212D01*
X94665583Y-134965019D01*
X94468284Y-134883094D01*
X94254653Y-134882907D01*
X94057212Y-134964488D01*
X93906019Y-135115417D01*
X93824094Y-135312716D01*
X93823907Y-135526347D01*
X91960026Y-135526347D01*
X91895512Y-135370212D01*
X91744583Y-135219019D01*
X91547284Y-135137094D01*
X91333653Y-135136907D01*
X91136212Y-135218488D01*
X90985019Y-135369417D01*
X90903094Y-135566716D01*
X90902907Y-135780347D01*
X86388300Y-135780347D01*
X86388300Y-131253286D01*
X88552315Y-129089000D01*
X102432000Y-129089000D01*
X102432000Y-130958555D01*
G36*
X114348000Y-128484300D02*
X114348000Y-140146999D01*
X114242264Y-140103094D01*
X114028633Y-140102907D01*
X113831192Y-140184488D01*
X113679999Y-140335417D01*
X113598074Y-140532716D01*
X113597887Y-140746347D01*
X113679468Y-140943788D01*
X113830397Y-141094981D01*
X114027696Y-141176906D01*
X114241327Y-141177093D01*
X114348000Y-141133017D01*
X114348000Y-141437000D01*
X114377459Y-141585099D01*
X114461350Y-141710650D01*
X117954800Y-145204101D01*
X117954716Y-145300347D01*
X118036297Y-145497788D01*
X118187226Y-145648981D01*
X118292076Y-145692518D01*
X118246194Y-145803016D01*
X118246007Y-146016647D01*
X118327588Y-146214088D01*
X118478517Y-146365281D01*
X118675816Y-146447206D01*
X118889447Y-146447393D01*
X119086888Y-146365812D01*
X119238081Y-146214883D01*
X119320006Y-146017584D01*
X119320193Y-145803953D01*
X119238612Y-145606512D01*
X119087683Y-145455319D01*
X118982833Y-145411782D01*
X119028715Y-145301284D01*
X119028902Y-145087653D01*
X118947321Y-144890212D01*
X118796392Y-144739019D01*
X118599093Y-144657094D01*
X118502310Y-144657009D01*
X118258425Y-144413124D01*
X118262716Y-144414906D01*
X118476347Y-144415093D01*
X118673788Y-144333512D01*
X118824981Y-144182583D01*
X118906906Y-143985284D01*
X118907093Y-143771653D01*
X118825512Y-143574212D01*
X118674583Y-143423019D01*
X118477284Y-143341094D01*
X118263653Y-143340907D01*
X118066212Y-143422488D01*
X117915019Y-143573417D01*
X117833094Y-143770716D01*
X117832907Y-143984347D01*
X117835202Y-143989901D01*
X115122000Y-141276700D01*
X115122000Y-133557947D01*
X120811407Y-133557947D01*
X120892988Y-133755388D01*
X121043917Y-133906581D01*
X121241216Y-133988506D01*
X121454847Y-133988693D01*
X121652288Y-133907112D01*
X121803481Y-133756183D01*
X121885406Y-133558884D01*
X121885593Y-133345253D01*
X121804012Y-133147812D01*
X121653083Y-132996619D01*
X121455784Y-132914694D01*
X121242153Y-132914507D01*
X121044712Y-132996088D01*
X120893519Y-133147017D01*
X120811594Y-133344316D01*
X120811407Y-133557947D01*
X115122000Y-133557947D01*
X115122000Y-132757847D01*
X119998607Y-132757847D01*
X120080188Y-132955288D01*
X120231117Y-133106481D01*
X120428416Y-133188406D01*
X120642047Y-133188593D01*
X120839488Y-133107012D01*
X120990681Y-132956083D01*
X121072606Y-132758784D01*
X121072793Y-132545153D01*
X120991212Y-132347712D01*
X120840283Y-132196519D01*
X120642984Y-132114594D01*
X120429353Y-132114407D01*
X120231912Y-132195988D01*
X120080719Y-132346917D01*
X119998794Y-132544216D01*
X119998607Y-132757847D01*
X115122000Y-132757847D01*
X115122000Y-128324000D01*
X115092541Y-128175902D01*
X115008650Y-128050350D01*
X114720300Y-127762000D01*
X115416997Y-127762000D01*
X115454430Y-127787012D01*
X115570000Y-127810000D01*
X124920000Y-127810000D01*
X124920000Y-148756966D01*
X124851512Y-148591212D01*
X124700583Y-148440019D01*
X124503284Y-148358094D01*
X124289653Y-148357907D01*
X124092212Y-148439488D01*
X123948810Y-148582639D01*
X123769284Y-148508094D01*
X123555653Y-148507907D01*
X123449000Y-148551975D01*
X123449000Y-147176361D01*
X123456303Y-147168997D01*
X123492291Y-147133009D01*
X123588347Y-147133093D01*
X123785788Y-147051512D01*
X123936981Y-146900583D01*
X124018906Y-146703284D01*
X124019093Y-146489653D01*
X123937512Y-146292212D01*
X123869000Y-146223580D01*
X123869000Y-146078395D01*
X123965417Y-146174981D01*
X124162716Y-146256906D01*
X124376347Y-146257093D01*
X124573788Y-146175512D01*
X124724981Y-146024583D01*
X124806906Y-145827284D01*
X124807093Y-145613653D01*
X124725512Y-145416212D01*
X124574583Y-145265019D01*
X124394129Y-145190089D01*
X124418021Y-145069979D01*
X124418021Y-142504279D01*
X124579651Y-142342650D01*
X124663541Y-142217098D01*
X124693000Y-142069000D01*
X124693000Y-129400000D01*
X124678196Y-129325574D01*
X124663708Y-129252307D01*
X124663585Y-129252122D01*
X124663541Y-129251902D01*
X124621683Y-129189256D01*
X124579960Y-129126660D01*
X124139961Y-128685660D01*
X124139773Y-128685534D01*
X124139650Y-128685350D01*
X124077258Y-128643661D01*
X124014504Y-128601628D01*
X124014285Y-128601584D01*
X124014098Y-128601459D01*
X123939659Y-128586652D01*
X123866439Y-128572001D01*
X123866221Y-128572044D01*
X123866000Y-128572000D01*
X118197000Y-128572000D01*
X118048902Y-128601459D01*
X117923350Y-128685349D01*
X117386350Y-129222350D01*
X117302459Y-129347901D01*
X117287919Y-129421000D01*
X117273000Y-129496000D01*
X117273000Y-129808000D01*
X117302459Y-129956099D01*
X117386350Y-130081650D01*
X117422991Y-130118291D01*
X117422907Y-130214347D01*
X117504488Y-130411788D01*
X117655417Y-130562981D01*
X117852716Y-130644906D01*
X118066347Y-130645093D01*
X118263788Y-130563512D01*
X118414981Y-130412583D01*
X118493142Y-130224347D01*
X121196887Y-130224347D01*
X121278468Y-130421788D01*
X121429397Y-130572981D01*
X121626696Y-130654906D01*
X121840327Y-130655093D01*
X122037768Y-130573512D01*
X122188961Y-130422583D01*
X122270886Y-130225284D01*
X122271073Y-130011653D01*
X122189492Y-129814212D01*
X122038563Y-129663019D01*
X121841264Y-129581094D01*
X121627633Y-129580907D01*
X121430192Y-129662488D01*
X121278999Y-129813417D01*
X121197074Y-130010716D01*
X121196887Y-130224347D01*
X118493142Y-130224347D01*
X118496906Y-130215284D01*
X118497010Y-130096010D01*
X118591347Y-130096093D01*
X118788788Y-130014512D01*
X118939981Y-129863583D01*
X119021906Y-129666284D01*
X119022093Y-129452653D01*
X118978025Y-129346000D01*
X123093482Y-129346000D01*
X123047094Y-129457716D01*
X123046907Y-129671347D01*
X123128488Y-129868788D01*
X123279417Y-130019981D01*
X123476716Y-130101906D01*
X123690347Y-130102093D01*
X123887788Y-130020512D01*
X123919000Y-129989354D01*
X123919000Y-135790536D01*
X123861583Y-135733019D01*
X123664284Y-135651094D01*
X123650764Y-135651082D01*
X123650893Y-135504253D01*
X123569312Y-135306812D01*
X123418383Y-135155619D01*
X123221084Y-135073694D01*
X123007453Y-135073507D01*
X122810012Y-135155088D01*
X122658819Y-135306017D01*
X122576894Y-135503316D01*
X122576707Y-135716947D01*
X122658288Y-135914388D01*
X122809217Y-136065581D01*
X123006516Y-136147506D01*
X123020036Y-136147518D01*
X123019907Y-136294347D01*
X123101488Y-136491788D01*
X123252417Y-136642981D01*
X123449716Y-136724906D01*
X123663347Y-136725093D01*
X123860788Y-136643512D01*
X123919000Y-136585402D01*
X123919000Y-137923402D01*
X123868512Y-137801212D01*
X123717583Y-137650019D01*
X123520284Y-137568094D01*
X123478187Y-137568057D01*
X123483906Y-137554284D01*
X123484093Y-137340653D01*
X123402512Y-137143212D01*
X123251583Y-136992019D01*
X123054284Y-136910094D01*
X122840653Y-136909907D01*
X122643212Y-136991488D01*
X122492019Y-137142417D01*
X122410094Y-137339716D01*
X122409907Y-137553347D01*
X122491488Y-137750788D01*
X122642417Y-137901981D01*
X122839716Y-137983906D01*
X122881813Y-137983943D01*
X122876094Y-137997716D01*
X122875907Y-138211347D01*
X122957488Y-138408788D01*
X123108417Y-138559981D01*
X123305716Y-138641906D01*
X123473431Y-138642053D01*
X123402192Y-138671488D01*
X123250999Y-138822417D01*
X123169074Y-139019716D01*
X123168887Y-139233347D01*
X123174402Y-139246693D01*
X123151284Y-139237094D01*
X122937653Y-139236907D01*
X122740212Y-139318488D01*
X122589019Y-139469417D01*
X122544627Y-139576326D01*
X120690204Y-137721904D01*
X120564653Y-137638013D01*
X120416554Y-137608554D01*
X119450891Y-137608554D01*
X119413550Y-137571147D01*
X120824107Y-137571147D01*
X120905688Y-137768588D01*
X121056617Y-137919781D01*
X121253916Y-138001706D01*
X121467547Y-138001893D01*
X121664988Y-137920312D01*
X121816181Y-137769383D01*
X121898106Y-137572084D01*
X121898293Y-137358453D01*
X121816712Y-137161012D01*
X121665783Y-137009819D01*
X121468484Y-136927894D01*
X121254853Y-136927707D01*
X121057412Y-137009288D01*
X120906219Y-137160217D01*
X120824294Y-137357516D01*
X120824107Y-137571147D01*
X119413550Y-137571147D01*
X119383029Y-137540573D01*
X119185730Y-137458648D01*
X118972099Y-137458461D01*
X118774658Y-137540042D01*
X118706026Y-137608554D01*
X117096446Y-137608554D01*
X116948348Y-137638013D01*
X116822796Y-137721904D01*
X116274350Y-138270350D01*
X116190459Y-138395901D01*
X116185505Y-138420806D01*
X116161000Y-138544000D01*
X116161000Y-139517555D01*
X116093019Y-139585417D01*
X116011094Y-139782716D01*
X116010907Y-139996347D01*
X116092488Y-140193788D01*
X116161000Y-140262420D01*
X116161000Y-140906022D01*
X116190459Y-141054121D01*
X116274350Y-141179672D01*
X117758371Y-142663694D01*
X117758374Y-142663696D01*
X117795011Y-142700333D01*
X117794927Y-142796389D01*
X117876508Y-142993830D01*
X118027437Y-143145023D01*
X118224736Y-143226948D01*
X118438367Y-143227135D01*
X118635808Y-143145554D01*
X118787001Y-142994625D01*
X118868926Y-142797326D01*
X118869113Y-142583695D01*
X118787532Y-142386254D01*
X118636603Y-142235061D01*
X118439304Y-142153136D01*
X118342329Y-142153051D01*
X118305674Y-142116396D01*
X118305672Y-142116393D01*
X117715019Y-141525740D01*
X117761416Y-141545006D01*
X117975047Y-141545193D01*
X118033968Y-141520847D01*
X120836807Y-141520847D01*
X120918388Y-141718288D01*
X121069317Y-141869481D01*
X121266616Y-141951406D01*
X121480247Y-141951593D01*
X121677688Y-141870012D01*
X121828881Y-141719083D01*
X121910806Y-141521784D01*
X121910993Y-141308153D01*
X121829412Y-141110712D01*
X121678483Y-140959519D01*
X121481184Y-140877594D01*
X121267553Y-140877407D01*
X121070112Y-140958988D01*
X120918919Y-141109917D01*
X120836994Y-141307216D01*
X120836807Y-141520847D01*
X118033968Y-141520847D01*
X118172488Y-141463612D01*
X118323681Y-141312683D01*
X118405606Y-141115384D01*
X118405793Y-140901753D01*
X118341498Y-140746147D01*
X119211207Y-140746147D01*
X119292788Y-140943588D01*
X119443717Y-141094781D01*
X119641016Y-141176706D01*
X119854647Y-141176893D01*
X120052088Y-141095312D01*
X120203281Y-140944383D01*
X120285206Y-140747084D01*
X120285393Y-140533453D01*
X120203812Y-140336012D01*
X120052883Y-140184819D01*
X119855584Y-140102894D01*
X119641953Y-140102707D01*
X119444512Y-140184288D01*
X119293319Y-140335217D01*
X119211394Y-140532516D01*
X119211207Y-140746147D01*
X118341498Y-140746147D01*
X118324212Y-140704312D01*
X118173283Y-140553119D01*
X117975984Y-140471194D01*
X117762353Y-140471007D01*
X117564912Y-140552588D01*
X117413719Y-140703517D01*
X117331794Y-140900816D01*
X117331607Y-141114447D01*
X117351239Y-141161961D01*
X116935000Y-140745722D01*
X116935000Y-140262445D01*
X117002981Y-140194583D01*
X117084906Y-139997284D01*
X117085093Y-139783653D01*
X117009069Y-139599659D01*
X117654737Y-139599659D01*
X117736318Y-139797100D01*
X117887247Y-139948293D01*
X118084546Y-140030218D01*
X118268790Y-140030379D01*
X118350352Y-140227774D01*
X118501281Y-140378967D01*
X118698580Y-140460892D01*
X118912211Y-140461079D01*
X119109652Y-140379498D01*
X119260845Y-140228569D01*
X119342770Y-140031270D01*
X119342957Y-139817639D01*
X119261376Y-139620198D01*
X119110447Y-139469005D01*
X118913148Y-139387080D01*
X118728904Y-139386919D01*
X118647342Y-139189524D01*
X118496413Y-139038331D01*
X118299114Y-138956406D01*
X118085483Y-138956219D01*
X117888042Y-139037800D01*
X117736849Y-139188729D01*
X117654924Y-139386028D01*
X117654737Y-139599659D01*
X117009069Y-139599659D01*
X117003512Y-139586212D01*
X116935000Y-139517580D01*
X116935000Y-138704300D01*
X117256746Y-138382554D01*
X118706001Y-138382554D01*
X118773863Y-138450535D01*
X118971162Y-138532460D01*
X119184793Y-138532647D01*
X119382234Y-138451066D01*
X119450866Y-138382554D01*
X120256254Y-138382554D01*
X121994098Y-140120399D01*
X121870212Y-140171588D01*
X121719019Y-140322517D01*
X121637094Y-140519816D01*
X121636907Y-140733447D01*
X121718488Y-140930888D01*
X121869417Y-141082081D01*
X122066716Y-141164006D01*
X122280347Y-141164193D01*
X122365000Y-141129215D01*
X122365000Y-141398000D01*
X122394459Y-141546099D01*
X122478350Y-141671650D01*
X122990147Y-142183448D01*
X122911019Y-142262437D01*
X122829094Y-142459736D01*
X122828907Y-142673367D01*
X122910488Y-142870808D01*
X123061417Y-143022001D01*
X123258716Y-143103926D01*
X123472347Y-143104113D01*
X123644021Y-143033179D01*
X123644021Y-144909679D01*
X123208350Y-145345350D01*
X123124459Y-145470901D01*
X123102559Y-145580999D01*
X123095000Y-145619000D01*
X123095000Y-146223555D01*
X123027019Y-146291417D01*
X122945094Y-146488716D01*
X122945009Y-146585691D01*
X122908350Y-146622350D01*
X122907896Y-146623030D01*
X122907216Y-146623488D01*
X122787217Y-146744488D01*
X122745973Y-146806772D01*
X122704459Y-146868902D01*
X122704299Y-146869704D01*
X122703848Y-146870386D01*
X122689599Y-146943609D01*
X122675000Y-147017000D01*
X122675000Y-151313700D01*
X122415000Y-151573700D01*
X119485208Y-148643908D01*
X119485293Y-148547153D01*
X119403712Y-148349712D01*
X119294894Y-148240703D01*
X119390481Y-148145283D01*
X119472406Y-147947984D01*
X119472593Y-147734353D01*
X119391012Y-147536912D01*
X119240083Y-147385719D01*
X119042784Y-147303794D01*
X118829153Y-147303607D01*
X118631712Y-147385188D01*
X118480519Y-147536117D01*
X118398594Y-147733416D01*
X118398407Y-147947047D01*
X118413421Y-147983385D01*
X117481000Y-147050964D01*
X117481000Y-146422445D01*
X117548981Y-146354583D01*
X117630906Y-146157284D01*
X117631093Y-145943653D01*
X117549512Y-145746212D01*
X117398583Y-145595019D01*
X117201284Y-145513094D01*
X116987653Y-145512907D01*
X116790212Y-145594488D01*
X116721580Y-145663000D01*
X115016014Y-145663000D01*
X115016016Y-145661367D01*
X115045947Y-145661393D01*
X115243388Y-145579812D01*
X115394581Y-145428883D01*
X115476506Y-145231584D01*
X115476577Y-145150377D01*
X116094393Y-145150377D01*
X116175974Y-145347818D01*
X116326903Y-145499011D01*
X116524202Y-145580936D01*
X116737833Y-145581123D01*
X116935274Y-145499542D01*
X117086467Y-145348613D01*
X117168392Y-145151314D01*
X117168579Y-144937683D01*
X117086998Y-144740242D01*
X116936069Y-144589049D01*
X116738770Y-144507124D01*
X116525139Y-144506937D01*
X116327698Y-144588518D01*
X116176505Y-144739447D01*
X116094580Y-144936746D01*
X116094393Y-145150377D01*
X115476577Y-145150377D01*
X115476693Y-145017953D01*
X115395112Y-144820512D01*
X115244183Y-144669319D01*
X115046884Y-144587394D01*
X114833253Y-144587207D01*
X114635812Y-144668788D01*
X114484619Y-144819717D01*
X114402694Y-145017016D01*
X114402596Y-145128569D01*
X114341790Y-144981406D01*
X114190861Y-144830213D01*
X113993562Y-144748288D01*
X113970832Y-144748268D01*
X113970953Y-144610153D01*
X113889372Y-144412712D01*
X113738443Y-144261519D01*
X113541144Y-144179594D01*
X113327513Y-144179407D01*
X113130072Y-144260988D01*
X112978879Y-144411917D01*
X112896954Y-144609216D01*
X112896767Y-144822847D01*
X112978348Y-145020288D01*
X113129277Y-145171481D01*
X113326576Y-145253406D01*
X113349306Y-145253426D01*
X113349185Y-145391541D01*
X113430766Y-145588982D01*
X113581695Y-145740175D01*
X113778994Y-145822100D01*
X113941875Y-145822243D01*
X113941864Y-145834654D01*
X114023445Y-146032095D01*
X114174374Y-146183288D01*
X114371673Y-146265213D01*
X114468647Y-146265298D01*
X114505306Y-146301957D01*
X114505309Y-146301959D01*
X114527000Y-146323650D01*
X114652551Y-146407541D01*
X114800650Y-146437000D01*
X116707000Y-146437000D01*
X116707000Y-147211264D01*
X116736459Y-147359363D01*
X116820350Y-147484914D01*
X118262586Y-148927151D01*
X118388138Y-149011041D01*
X118536236Y-149040500D01*
X118575755Y-149040500D01*
X118643617Y-149108481D01*
X118840916Y-149190406D01*
X118937190Y-149190490D01*
X121480699Y-151734000D01*
X121270000Y-151734000D01*
X121121902Y-151763459D01*
X120996350Y-151847349D01*
X119619000Y-153224700D01*
X119619000Y-153173445D01*
X119686981Y-153105583D01*
X119768906Y-152908284D01*
X119769093Y-152694653D01*
X119687512Y-152497212D01*
X119536583Y-152346019D01*
X119339284Y-152264094D01*
X119125653Y-152263907D01*
X118928212Y-152345488D01*
X118818768Y-152454741D01*
X118773512Y-152345212D01*
X118622583Y-152194019D01*
X118425284Y-152112094D01*
X118211653Y-152111907D01*
X118014212Y-152193488D01*
X117863019Y-152344417D01*
X117781094Y-152541716D01*
X117780907Y-152755347D01*
X117862488Y-152952788D01*
X118013417Y-153103981D01*
X118210716Y-153185906D01*
X118424347Y-153186093D01*
X118621788Y-153104512D01*
X118731232Y-152995259D01*
X118776488Y-153104788D01*
X118790688Y-153119012D01*
X118229700Y-153680000D01*
X117250080Y-153680000D01*
X117250093Y-153665653D01*
X117168512Y-153468212D01*
X117017583Y-153317019D01*
X116820284Y-153235094D01*
X116606653Y-153234907D01*
X116409212Y-153316488D01*
X116258019Y-153467417D01*
X116176094Y-153664716D01*
X116176081Y-153680000D01*
X115858800Y-153680000D01*
X115735273Y-153704572D01*
X115710701Y-153709459D01*
X115585150Y-153793350D01*
X114966150Y-154412350D01*
X114882259Y-154537901D01*
X114882259Y-154537902D01*
X114860797Y-154645796D01*
X110159800Y-154684938D01*
X110159800Y-151917025D01*
X110230316Y-151946306D01*
X110443947Y-151946493D01*
X110641388Y-151864912D01*
X110792581Y-151713983D01*
X110874506Y-151516684D01*
X110874693Y-151303053D01*
X110793112Y-151105612D01*
X110642183Y-150954419D01*
X110537364Y-150910895D01*
X110585432Y-150795133D01*
X110585619Y-150581502D01*
X110504038Y-150384061D01*
X110353109Y-150232868D01*
X110159800Y-150152600D01*
X110159800Y-149028000D01*
X110949540Y-149028000D01*
X111097639Y-148998541D01*
X111223190Y-148914650D01*
X111385613Y-148752227D01*
X114402987Y-148752227D01*
X114484568Y-148949668D01*
X114635497Y-149100861D01*
X114832796Y-149182786D01*
X115046427Y-149182973D01*
X115243868Y-149101392D01*
X115395061Y-148950463D01*
X115476986Y-148753164D01*
X115477173Y-148539533D01*
X115395592Y-148342092D01*
X115244663Y-148190899D01*
X115047364Y-148108974D01*
X114833733Y-148108787D01*
X114636292Y-148190368D01*
X114485099Y-148341297D01*
X114403174Y-148538596D01*
X114402987Y-148752227D01*
X111385613Y-148752227D01*
X111755051Y-148382789D01*
X111851107Y-148382873D01*
X112048548Y-148301292D01*
X112199741Y-148150363D01*
X112281666Y-147953064D01*
X112281853Y-147739433D01*
X112200272Y-147541992D01*
X112049343Y-147390799D01*
X111852044Y-147308874D01*
X111638413Y-147308687D01*
X111440972Y-147390268D01*
X111289779Y-147541197D01*
X111207854Y-147738496D01*
X111207769Y-147835471D01*
X110789240Y-148254000D01*
X110159800Y-148254000D01*
X110159800Y-147666511D01*
X110253447Y-147666593D01*
X110450888Y-147585012D01*
X110602081Y-147434083D01*
X110684006Y-147236784D01*
X110684193Y-147023153D01*
X110602612Y-146825712D01*
X110451683Y-146674519D01*
X110254384Y-146592594D01*
X110159800Y-146592511D01*
X110159800Y-146187653D01*
X110216900Y-146130653D01*
X110332864Y-146107586D01*
X110382589Y-146074360D01*
X111338082Y-146074360D01*
X111419663Y-146271801D01*
X111570592Y-146422994D01*
X111767891Y-146504919D01*
X111981522Y-146505106D01*
X112178963Y-146423525D01*
X112325154Y-146277589D01*
X112401768Y-146463008D01*
X112552697Y-146614201D01*
X112749996Y-146696126D01*
X112963627Y-146696313D01*
X113161068Y-146614732D01*
X113312261Y-146463803D01*
X113394186Y-146266504D01*
X113394373Y-146052873D01*
X113312792Y-145855432D01*
X113161863Y-145704239D01*
X112964564Y-145622314D01*
X112750933Y-145622127D01*
X112553492Y-145703708D01*
X112407301Y-145849644D01*
X112330687Y-145664225D01*
X112179758Y-145513032D01*
X112013347Y-145443933D01*
X112196543Y-145444093D01*
X112393984Y-145362512D01*
X112545177Y-145211583D01*
X112627102Y-145014284D01*
X112627289Y-144800653D01*
X112545708Y-144603212D01*
X112394779Y-144452019D01*
X112197480Y-144370094D01*
X111983849Y-144369907D01*
X111786408Y-144451488D01*
X111635215Y-144602417D01*
X111553290Y-144799716D01*
X111553103Y-145013347D01*
X111634684Y-145210788D01*
X111785613Y-145361981D01*
X111952024Y-145431080D01*
X111768828Y-145430920D01*
X111571387Y-145512501D01*
X111420194Y-145663430D01*
X111338269Y-145860729D01*
X111338082Y-146074360D01*
X110382589Y-146074360D01*
X110458415Y-146023695D01*
X110987302Y-145494809D01*
X111083357Y-145494893D01*
X111280798Y-145413312D01*
X111431991Y-145262383D01*
X111513916Y-145065084D01*
X111514103Y-144851453D01*
X111432522Y-144654012D01*
X111281593Y-144502819D01*
X111084294Y-144420894D01*
X110870663Y-144420707D01*
X110673222Y-144502288D01*
X110522029Y-144653217D01*
X110459850Y-144802963D01*
X110383512Y-144618212D01*
X110232583Y-144467019D01*
X110159800Y-144436797D01*
X110159800Y-143154067D01*
X114405527Y-143154067D01*
X114487108Y-143351508D01*
X114638037Y-143502701D01*
X114835336Y-143584626D01*
X115048967Y-143584813D01*
X115246408Y-143503232D01*
X115397601Y-143352303D01*
X115479526Y-143155004D01*
X115479713Y-142941373D01*
X115398132Y-142743932D01*
X115247203Y-142592739D01*
X115049904Y-142510814D01*
X114836273Y-142510627D01*
X114638832Y-142592208D01*
X114487639Y-142743137D01*
X114405714Y-142940436D01*
X114405527Y-143154067D01*
X110159800Y-143154067D01*
X110159800Y-141991344D01*
X110232906Y-141815284D01*
X110233093Y-141601653D01*
X110159800Y-141424270D01*
X110159800Y-137188749D01*
X110165716Y-137191206D01*
X110379347Y-137191393D01*
X110576788Y-137109812D01*
X110727981Y-136958883D01*
X110809906Y-136761584D01*
X110810093Y-136547953D01*
X110728512Y-136350512D01*
X110577583Y-136199319D01*
X110380284Y-136117394D01*
X110166653Y-136117207D01*
X110159800Y-136120039D01*
X110159800Y-129737001D01*
X111380707Y-130957908D01*
X111325100Y-131013417D01*
X111243175Y-131210716D01*
X111242988Y-131424347D01*
X111324569Y-131621788D01*
X111393081Y-131690420D01*
X111393081Y-131706439D01*
X111377059Y-131730417D01*
X111368487Y-131773512D01*
X111347600Y-131878516D01*
X111347600Y-137292099D01*
X110936709Y-137702991D01*
X110840653Y-137702907D01*
X110643212Y-137784488D01*
X110492019Y-137935417D01*
X110410094Y-138132716D01*
X110409907Y-138346347D01*
X110491488Y-138543788D01*
X110642417Y-138694981D01*
X110839716Y-138776906D01*
X111053347Y-138777093D01*
X111250788Y-138695512D01*
X111401981Y-138544583D01*
X111483906Y-138347284D01*
X111483991Y-138250309D01*
X112008251Y-137726050D01*
X112092141Y-137600498D01*
X112121600Y-137452400D01*
X112121600Y-132005112D01*
X112137622Y-131981133D01*
X112167081Y-131833035D01*
X112167081Y-131690445D01*
X112235062Y-131622583D01*
X112316987Y-131425284D01*
X112317174Y-131211653D01*
X112235593Y-131014212D01*
X112167081Y-130945580D01*
X112167081Y-130810085D01*
X112167098Y-130810000D01*
X112137640Y-130661901D01*
X112053749Y-130536350D01*
X111568019Y-130050620D01*
X111739696Y-130121906D01*
X111953327Y-130122093D01*
X112150768Y-130040512D01*
X112301961Y-129889583D01*
X112383886Y-129692284D01*
X112384070Y-129481826D01*
X112441488Y-129620788D01*
X112592417Y-129771981D01*
X112789716Y-129853906D01*
X113003347Y-129854093D01*
X113200788Y-129772512D01*
X113351981Y-129621583D01*
X113433906Y-129424284D01*
X113434093Y-129210653D01*
X113352512Y-129013212D01*
X113201583Y-128862019D01*
X113004284Y-128780094D01*
X112790653Y-128779907D01*
X112593212Y-128861488D01*
X112442019Y-129012417D01*
X112360094Y-129209716D01*
X112359910Y-129420174D01*
X112302492Y-129281212D01*
X112151563Y-129130019D01*
X111954264Y-129048094D01*
X111740633Y-129047907D01*
X111543192Y-129129488D01*
X111391999Y-129280417D01*
X111310074Y-129477716D01*
X111309887Y-129691347D01*
X111381104Y-129863705D01*
X110159800Y-128642401D01*
X110159800Y-127762000D01*
X113625700Y-127762000D01*
X114348000Y-128484300D01*
X114348000Y-128484300D01*
G37*
X114348000Y-128484300D02*
X114348000Y-140146999D01*
X114242264Y-140103094D01*
X114028633Y-140102907D01*
X113831192Y-140184488D01*
X113679999Y-140335417D01*
X113598074Y-140532716D01*
X113597887Y-140746347D01*
X113679468Y-140943788D01*
X113830397Y-141094981D01*
X114027696Y-141176906D01*
X114241327Y-141177093D01*
X114348000Y-141133017D01*
X114348000Y-141437000D01*
X114377459Y-141585099D01*
X114461350Y-141710650D01*
X117954800Y-145204101D01*
X117954716Y-145300347D01*
X118036297Y-145497788D01*
X118187226Y-145648981D01*
X118292076Y-145692518D01*
X118246194Y-145803016D01*
X118246007Y-146016647D01*
X118327588Y-146214088D01*
X118478517Y-146365281D01*
X118675816Y-146447206D01*
X118889447Y-146447393D01*
X119086888Y-146365812D01*
X119238081Y-146214883D01*
X119320006Y-146017584D01*
X119320193Y-145803953D01*
X119238612Y-145606512D01*
X119087683Y-145455319D01*
X118982833Y-145411782D01*
X119028715Y-145301284D01*
X119028902Y-145087653D01*
X118947321Y-144890212D01*
X118796392Y-144739019D01*
X118599093Y-144657094D01*
X118502310Y-144657009D01*
X118258425Y-144413124D01*
X118262716Y-144414906D01*
X118476347Y-144415093D01*
X118673788Y-144333512D01*
X118824981Y-144182583D01*
X118906906Y-143985284D01*
X118907093Y-143771653D01*
X118825512Y-143574212D01*
X118674583Y-143423019D01*
X118477284Y-143341094D01*
X118263653Y-143340907D01*
X118066212Y-143422488D01*
X117915019Y-143573417D01*
X117833094Y-143770716D01*
X117832907Y-143984347D01*
X117835202Y-143989901D01*
X115122000Y-141276700D01*
X115122000Y-133557947D01*
X120811407Y-133557947D01*
X120892988Y-133755388D01*
X121043917Y-133906581D01*
X121241216Y-133988506D01*
X121454847Y-133988693D01*
X121652288Y-133907112D01*
X121803481Y-133756183D01*
X121885406Y-133558884D01*
X121885593Y-133345253D01*
X121804012Y-133147812D01*
X121653083Y-132996619D01*
X121455784Y-132914694D01*
X121242153Y-132914507D01*
X121044712Y-132996088D01*
X120893519Y-133147017D01*
X120811594Y-133344316D01*
X120811407Y-133557947D01*
X115122000Y-133557947D01*
X115122000Y-132757847D01*
X119998607Y-132757847D01*
X120080188Y-132955288D01*
X120231117Y-133106481D01*
X120428416Y-133188406D01*
X120642047Y-133188593D01*
X120839488Y-133107012D01*
X120990681Y-132956083D01*
X121072606Y-132758784D01*
X121072793Y-132545153D01*
X120991212Y-132347712D01*
X120840283Y-132196519D01*
X120642984Y-132114594D01*
X120429353Y-132114407D01*
X120231912Y-132195988D01*
X120080719Y-132346917D01*
X119998794Y-132544216D01*
X119998607Y-132757847D01*
X115122000Y-132757847D01*
X115122000Y-128324000D01*
X115092541Y-128175902D01*
X115008650Y-128050350D01*
X114720300Y-127762000D01*
X115416997Y-127762000D01*
X115454430Y-127787012D01*
X115570000Y-127810000D01*
X124920000Y-127810000D01*
X124920000Y-148756966D01*
X124851512Y-148591212D01*
X124700583Y-148440019D01*
X124503284Y-148358094D01*
X124289653Y-148357907D01*
X124092212Y-148439488D01*
X123948810Y-148582639D01*
X123769284Y-148508094D01*
X123555653Y-148507907D01*
X123449000Y-148551975D01*
X123449000Y-147176361D01*
X123456303Y-147168997D01*
X123492291Y-147133009D01*
X123588347Y-147133093D01*
X123785788Y-147051512D01*
X123936981Y-146900583D01*
X124018906Y-146703284D01*
X124019093Y-146489653D01*
X123937512Y-146292212D01*
X123869000Y-146223580D01*
X123869000Y-146078395D01*
X123965417Y-146174981D01*
X124162716Y-146256906D01*
X124376347Y-146257093D01*
X124573788Y-146175512D01*
X124724981Y-146024583D01*
X124806906Y-145827284D01*
X124807093Y-145613653D01*
X124725512Y-145416212D01*
X124574583Y-145265019D01*
X124394129Y-145190089D01*
X124418021Y-145069979D01*
X124418021Y-142504279D01*
X124579651Y-142342650D01*
X124663541Y-142217098D01*
X124693000Y-142069000D01*
X124693000Y-129400000D01*
X124678196Y-129325574D01*
X124663708Y-129252307D01*
X124663585Y-129252122D01*
X124663541Y-129251902D01*
X124621683Y-129189256D01*
X124579960Y-129126660D01*
X124139961Y-128685660D01*
X124139773Y-128685534D01*
X124139650Y-128685350D01*
X124077258Y-128643661D01*
X124014504Y-128601628D01*
X124014285Y-128601584D01*
X124014098Y-128601459D01*
X123939659Y-128586652D01*
X123866439Y-128572001D01*
X123866221Y-128572044D01*
X123866000Y-128572000D01*
X118197000Y-128572000D01*
X118048902Y-128601459D01*
X117923350Y-128685349D01*
X117386350Y-129222350D01*
X117302459Y-129347901D01*
X117287919Y-129421000D01*
X117273000Y-129496000D01*
X117273000Y-129808000D01*
X117302459Y-129956099D01*
X117386350Y-130081650D01*
X117422991Y-130118291D01*
X117422907Y-130214347D01*
X117504488Y-130411788D01*
X117655417Y-130562981D01*
X117852716Y-130644906D01*
X118066347Y-130645093D01*
X118263788Y-130563512D01*
X118414981Y-130412583D01*
X118493142Y-130224347D01*
X121196887Y-130224347D01*
X121278468Y-130421788D01*
X121429397Y-130572981D01*
X121626696Y-130654906D01*
X121840327Y-130655093D01*
X122037768Y-130573512D01*
X122188961Y-130422583D01*
X122270886Y-130225284D01*
X122271073Y-130011653D01*
X122189492Y-129814212D01*
X122038563Y-129663019D01*
X121841264Y-129581094D01*
X121627633Y-129580907D01*
X121430192Y-129662488D01*
X121278999Y-129813417D01*
X121197074Y-130010716D01*
X121196887Y-130224347D01*
X118493142Y-130224347D01*
X118496906Y-130215284D01*
X118497010Y-130096010D01*
X118591347Y-130096093D01*
X118788788Y-130014512D01*
X118939981Y-129863583D01*
X119021906Y-129666284D01*
X119022093Y-129452653D01*
X118978025Y-129346000D01*
X123093482Y-129346000D01*
X123047094Y-129457716D01*
X123046907Y-129671347D01*
X123128488Y-129868788D01*
X123279417Y-130019981D01*
X123476716Y-130101906D01*
X123690347Y-130102093D01*
X123887788Y-130020512D01*
X123919000Y-129989354D01*
X123919000Y-135790536D01*
X123861583Y-135733019D01*
X123664284Y-135651094D01*
X123650764Y-135651082D01*
X123650893Y-135504253D01*
X123569312Y-135306812D01*
X123418383Y-135155619D01*
X123221084Y-135073694D01*
X123007453Y-135073507D01*
X122810012Y-135155088D01*
X122658819Y-135306017D01*
X122576894Y-135503316D01*
X122576707Y-135716947D01*
X122658288Y-135914388D01*
X122809217Y-136065581D01*
X123006516Y-136147506D01*
X123020036Y-136147518D01*
X123019907Y-136294347D01*
X123101488Y-136491788D01*
X123252417Y-136642981D01*
X123449716Y-136724906D01*
X123663347Y-136725093D01*
X123860788Y-136643512D01*
X123919000Y-136585402D01*
X123919000Y-137923402D01*
X123868512Y-137801212D01*
X123717583Y-137650019D01*
X123520284Y-137568094D01*
X123478187Y-137568057D01*
X123483906Y-137554284D01*
X123484093Y-137340653D01*
X123402512Y-137143212D01*
X123251583Y-136992019D01*
X123054284Y-136910094D01*
X122840653Y-136909907D01*
X122643212Y-136991488D01*
X122492019Y-137142417D01*
X122410094Y-137339716D01*
X122409907Y-137553347D01*
X122491488Y-137750788D01*
X122642417Y-137901981D01*
X122839716Y-137983906D01*
X122881813Y-137983943D01*
X122876094Y-137997716D01*
X122875907Y-138211347D01*
X122957488Y-138408788D01*
X123108417Y-138559981D01*
X123305716Y-138641906D01*
X123473431Y-138642053D01*
X123402192Y-138671488D01*
X123250999Y-138822417D01*
X123169074Y-139019716D01*
X123168887Y-139233347D01*
X123174402Y-139246693D01*
X123151284Y-139237094D01*
X122937653Y-139236907D01*
X122740212Y-139318488D01*
X122589019Y-139469417D01*
X122544627Y-139576326D01*
X120690204Y-137721904D01*
X120564653Y-137638013D01*
X120416554Y-137608554D01*
X119450891Y-137608554D01*
X119413550Y-137571147D01*
X120824107Y-137571147D01*
X120905688Y-137768588D01*
X121056617Y-137919781D01*
X121253916Y-138001706D01*
X121467547Y-138001893D01*
X121664988Y-137920312D01*
X121816181Y-137769383D01*
X121898106Y-137572084D01*
X121898293Y-137358453D01*
X121816712Y-137161012D01*
X121665783Y-137009819D01*
X121468484Y-136927894D01*
X121254853Y-136927707D01*
X121057412Y-137009288D01*
X120906219Y-137160217D01*
X120824294Y-137357516D01*
X120824107Y-137571147D01*
X119413550Y-137571147D01*
X119383029Y-137540573D01*
X119185730Y-137458648D01*
X118972099Y-137458461D01*
X118774658Y-137540042D01*
X118706026Y-137608554D01*
X117096446Y-137608554D01*
X116948348Y-137638013D01*
X116822796Y-137721904D01*
X116274350Y-138270350D01*
X116190459Y-138395901D01*
X116185505Y-138420806D01*
X116161000Y-138544000D01*
X116161000Y-139517555D01*
X116093019Y-139585417D01*
X116011094Y-139782716D01*
X116010907Y-139996347D01*
X116092488Y-140193788D01*
X116161000Y-140262420D01*
X116161000Y-140906022D01*
X116190459Y-141054121D01*
X116274350Y-141179672D01*
X117758371Y-142663694D01*
X117758374Y-142663696D01*
X117795011Y-142700333D01*
X117794927Y-142796389D01*
X117876508Y-142993830D01*
X118027437Y-143145023D01*
X118224736Y-143226948D01*
X118438367Y-143227135D01*
X118635808Y-143145554D01*
X118787001Y-142994625D01*
X118868926Y-142797326D01*
X118869113Y-142583695D01*
X118787532Y-142386254D01*
X118636603Y-142235061D01*
X118439304Y-142153136D01*
X118342329Y-142153051D01*
X118305674Y-142116396D01*
X118305672Y-142116393D01*
X117715019Y-141525740D01*
X117761416Y-141545006D01*
X117975047Y-141545193D01*
X118033968Y-141520847D01*
X120836807Y-141520847D01*
X120918388Y-141718288D01*
X121069317Y-141869481D01*
X121266616Y-141951406D01*
X121480247Y-141951593D01*
X121677688Y-141870012D01*
X121828881Y-141719083D01*
X121910806Y-141521784D01*
X121910993Y-141308153D01*
X121829412Y-141110712D01*
X121678483Y-140959519D01*
X121481184Y-140877594D01*
X121267553Y-140877407D01*
X121070112Y-140958988D01*
X120918919Y-141109917D01*
X120836994Y-141307216D01*
X120836807Y-141520847D01*
X118033968Y-141520847D01*
X118172488Y-141463612D01*
X118323681Y-141312683D01*
X118405606Y-141115384D01*
X118405793Y-140901753D01*
X118341498Y-140746147D01*
X119211207Y-140746147D01*
X119292788Y-140943588D01*
X119443717Y-141094781D01*
X119641016Y-141176706D01*
X119854647Y-141176893D01*
X120052088Y-141095312D01*
X120203281Y-140944383D01*
X120285206Y-140747084D01*
X120285393Y-140533453D01*
X120203812Y-140336012D01*
X120052883Y-140184819D01*
X119855584Y-140102894D01*
X119641953Y-140102707D01*
X119444512Y-140184288D01*
X119293319Y-140335217D01*
X119211394Y-140532516D01*
X119211207Y-140746147D01*
X118341498Y-140746147D01*
X118324212Y-140704312D01*
X118173283Y-140553119D01*
X117975984Y-140471194D01*
X117762353Y-140471007D01*
X117564912Y-140552588D01*
X117413719Y-140703517D01*
X117331794Y-140900816D01*
X117331607Y-141114447D01*
X117351239Y-141161961D01*
X116935000Y-140745722D01*
X116935000Y-140262445D01*
X117002981Y-140194583D01*
X117084906Y-139997284D01*
X117085093Y-139783653D01*
X117009069Y-139599659D01*
X117654737Y-139599659D01*
X117736318Y-139797100D01*
X117887247Y-139948293D01*
X118084546Y-140030218D01*
X118268790Y-140030379D01*
X118350352Y-140227774D01*
X118501281Y-140378967D01*
X118698580Y-140460892D01*
X118912211Y-140461079D01*
X119109652Y-140379498D01*
X119260845Y-140228569D01*
X119342770Y-140031270D01*
X119342957Y-139817639D01*
X119261376Y-139620198D01*
X119110447Y-139469005D01*
X118913148Y-139387080D01*
X118728904Y-139386919D01*
X118647342Y-139189524D01*
X118496413Y-139038331D01*
X118299114Y-138956406D01*
X118085483Y-138956219D01*
X117888042Y-139037800D01*
X117736849Y-139188729D01*
X117654924Y-139386028D01*
X117654737Y-139599659D01*
X117009069Y-139599659D01*
X117003512Y-139586212D01*
X116935000Y-139517580D01*
X116935000Y-138704300D01*
X117256746Y-138382554D01*
X118706001Y-138382554D01*
X118773863Y-138450535D01*
X118971162Y-138532460D01*
X119184793Y-138532647D01*
X119382234Y-138451066D01*
X119450866Y-138382554D01*
X120256254Y-138382554D01*
X121994098Y-140120399D01*
X121870212Y-140171588D01*
X121719019Y-140322517D01*
X121637094Y-140519816D01*
X121636907Y-140733447D01*
X121718488Y-140930888D01*
X121869417Y-141082081D01*
X122066716Y-141164006D01*
X122280347Y-141164193D01*
X122365000Y-141129215D01*
X122365000Y-141398000D01*
X122394459Y-141546099D01*
X122478350Y-141671650D01*
X122990147Y-142183448D01*
X122911019Y-142262437D01*
X122829094Y-142459736D01*
X122828907Y-142673367D01*
X122910488Y-142870808D01*
X123061417Y-143022001D01*
X123258716Y-143103926D01*
X123472347Y-143104113D01*
X123644021Y-143033179D01*
X123644021Y-144909679D01*
X123208350Y-145345350D01*
X123124459Y-145470901D01*
X123102559Y-145580999D01*
X123095000Y-145619000D01*
X123095000Y-146223555D01*
X123027019Y-146291417D01*
X122945094Y-146488716D01*
X122945009Y-146585691D01*
X122908350Y-146622350D01*
X122907896Y-146623030D01*
X122907216Y-146623488D01*
X122787217Y-146744488D01*
X122745973Y-146806772D01*
X122704459Y-146868902D01*
X122704299Y-146869704D01*
X122703848Y-146870386D01*
X122689599Y-146943609D01*
X122675000Y-147017000D01*
X122675000Y-151313700D01*
X122415000Y-151573700D01*
X119485208Y-148643908D01*
X119485293Y-148547153D01*
X119403712Y-148349712D01*
X119294894Y-148240703D01*
X119390481Y-148145283D01*
X119472406Y-147947984D01*
X119472593Y-147734353D01*
X119391012Y-147536912D01*
X119240083Y-147385719D01*
X119042784Y-147303794D01*
X118829153Y-147303607D01*
X118631712Y-147385188D01*
X118480519Y-147536117D01*
X118398594Y-147733416D01*
X118398407Y-147947047D01*
X118413421Y-147983385D01*
X117481000Y-147050964D01*
X117481000Y-146422445D01*
X117548981Y-146354583D01*
X117630906Y-146157284D01*
X117631093Y-145943653D01*
X117549512Y-145746212D01*
X117398583Y-145595019D01*
X117201284Y-145513094D01*
X116987653Y-145512907D01*
X116790212Y-145594488D01*
X116721580Y-145663000D01*
X115016014Y-145663000D01*
X115016016Y-145661367D01*
X115045947Y-145661393D01*
X115243388Y-145579812D01*
X115394581Y-145428883D01*
X115476506Y-145231584D01*
X115476577Y-145150377D01*
X116094393Y-145150377D01*
X116175974Y-145347818D01*
X116326903Y-145499011D01*
X116524202Y-145580936D01*
X116737833Y-145581123D01*
X116935274Y-145499542D01*
X117086467Y-145348613D01*
X117168392Y-145151314D01*
X117168579Y-144937683D01*
X117086998Y-144740242D01*
X116936069Y-144589049D01*
X116738770Y-144507124D01*
X116525139Y-144506937D01*
X116327698Y-144588518D01*
X116176505Y-144739447D01*
X116094580Y-144936746D01*
X116094393Y-145150377D01*
X115476577Y-145150377D01*
X115476693Y-145017953D01*
X115395112Y-144820512D01*
X115244183Y-144669319D01*
X115046884Y-144587394D01*
X114833253Y-144587207D01*
X114635812Y-144668788D01*
X114484619Y-144819717D01*
X114402694Y-145017016D01*
X114402596Y-145128569D01*
X114341790Y-144981406D01*
X114190861Y-144830213D01*
X113993562Y-144748288D01*
X113970832Y-144748268D01*
X113970953Y-144610153D01*
X113889372Y-144412712D01*
X113738443Y-144261519D01*
X113541144Y-144179594D01*
X113327513Y-144179407D01*
X113130072Y-144260988D01*
X112978879Y-144411917D01*
X112896954Y-144609216D01*
X112896767Y-144822847D01*
X112978348Y-145020288D01*
X113129277Y-145171481D01*
X113326576Y-145253406D01*
X113349306Y-145253426D01*
X113349185Y-145391541D01*
X113430766Y-145588982D01*
X113581695Y-145740175D01*
X113778994Y-145822100D01*
X113941875Y-145822243D01*
X113941864Y-145834654D01*
X114023445Y-146032095D01*
X114174374Y-146183288D01*
X114371673Y-146265213D01*
X114468647Y-146265298D01*
X114505306Y-146301957D01*
X114505309Y-146301959D01*
X114527000Y-146323650D01*
X114652551Y-146407541D01*
X114800650Y-146437000D01*
X116707000Y-146437000D01*
X116707000Y-147211264D01*
X116736459Y-147359363D01*
X116820350Y-147484914D01*
X118262586Y-148927151D01*
X118388138Y-149011041D01*
X118536236Y-149040500D01*
X118575755Y-149040500D01*
X118643617Y-149108481D01*
X118840916Y-149190406D01*
X118937190Y-149190490D01*
X121480699Y-151734000D01*
X121270000Y-151734000D01*
X121121902Y-151763459D01*
X120996350Y-151847349D01*
X119619000Y-153224700D01*
X119619000Y-153173445D01*
X119686981Y-153105583D01*
X119768906Y-152908284D01*
X119769093Y-152694653D01*
X119687512Y-152497212D01*
X119536583Y-152346019D01*
X119339284Y-152264094D01*
X119125653Y-152263907D01*
X118928212Y-152345488D01*
X118818768Y-152454741D01*
X118773512Y-152345212D01*
X118622583Y-152194019D01*
X118425284Y-152112094D01*
X118211653Y-152111907D01*
X118014212Y-152193488D01*
X117863019Y-152344417D01*
X117781094Y-152541716D01*
X117780907Y-152755347D01*
X117862488Y-152952788D01*
X118013417Y-153103981D01*
X118210716Y-153185906D01*
X118424347Y-153186093D01*
X118621788Y-153104512D01*
X118731232Y-152995259D01*
X118776488Y-153104788D01*
X118790688Y-153119012D01*
X118229700Y-153680000D01*
X117250080Y-153680000D01*
X117250093Y-153665653D01*
X117168512Y-153468212D01*
X117017583Y-153317019D01*
X116820284Y-153235094D01*
X116606653Y-153234907D01*
X116409212Y-153316488D01*
X116258019Y-153467417D01*
X116176094Y-153664716D01*
X116176081Y-153680000D01*
X115858800Y-153680000D01*
X115735273Y-153704572D01*
X115710701Y-153709459D01*
X115585150Y-153793350D01*
X114966150Y-154412350D01*
X114882259Y-154537901D01*
X114882259Y-154537902D01*
X114860797Y-154645796D01*
X110159800Y-154684938D01*
X110159800Y-151917025D01*
X110230316Y-151946306D01*
X110443947Y-151946493D01*
X110641388Y-151864912D01*
X110792581Y-151713983D01*
X110874506Y-151516684D01*
X110874693Y-151303053D01*
X110793112Y-151105612D01*
X110642183Y-150954419D01*
X110537364Y-150910895D01*
X110585432Y-150795133D01*
X110585619Y-150581502D01*
X110504038Y-150384061D01*
X110353109Y-150232868D01*
X110159800Y-150152600D01*
X110159800Y-149028000D01*
X110949540Y-149028000D01*
X111097639Y-148998541D01*
X111223190Y-148914650D01*
X111385613Y-148752227D01*
X114402987Y-148752227D01*
X114484568Y-148949668D01*
X114635497Y-149100861D01*
X114832796Y-149182786D01*
X115046427Y-149182973D01*
X115243868Y-149101392D01*
X115395061Y-148950463D01*
X115476986Y-148753164D01*
X115477173Y-148539533D01*
X115395592Y-148342092D01*
X115244663Y-148190899D01*
X115047364Y-148108974D01*
X114833733Y-148108787D01*
X114636292Y-148190368D01*
X114485099Y-148341297D01*
X114403174Y-148538596D01*
X114402987Y-148752227D01*
X111385613Y-148752227D01*
X111755051Y-148382789D01*
X111851107Y-148382873D01*
X112048548Y-148301292D01*
X112199741Y-148150363D01*
X112281666Y-147953064D01*
X112281853Y-147739433D01*
X112200272Y-147541992D01*
X112049343Y-147390799D01*
X111852044Y-147308874D01*
X111638413Y-147308687D01*
X111440972Y-147390268D01*
X111289779Y-147541197D01*
X111207854Y-147738496D01*
X111207769Y-147835471D01*
X110789240Y-148254000D01*
X110159800Y-148254000D01*
X110159800Y-147666511D01*
X110253447Y-147666593D01*
X110450888Y-147585012D01*
X110602081Y-147434083D01*
X110684006Y-147236784D01*
X110684193Y-147023153D01*
X110602612Y-146825712D01*
X110451683Y-146674519D01*
X110254384Y-146592594D01*
X110159800Y-146592511D01*
X110159800Y-146187653D01*
X110216900Y-146130653D01*
X110332864Y-146107586D01*
X110382589Y-146074360D01*
X111338082Y-146074360D01*
X111419663Y-146271801D01*
X111570592Y-146422994D01*
X111767891Y-146504919D01*
X111981522Y-146505106D01*
X112178963Y-146423525D01*
X112325154Y-146277589D01*
X112401768Y-146463008D01*
X112552697Y-146614201D01*
X112749996Y-146696126D01*
X112963627Y-146696313D01*
X113161068Y-146614732D01*
X113312261Y-146463803D01*
X113394186Y-146266504D01*
X113394373Y-146052873D01*
X113312792Y-145855432D01*
X113161863Y-145704239D01*
X112964564Y-145622314D01*
X112750933Y-145622127D01*
X112553492Y-145703708D01*
X112407301Y-145849644D01*
X112330687Y-145664225D01*
X112179758Y-145513032D01*
X112013347Y-145443933D01*
X112196543Y-145444093D01*
X112393984Y-145362512D01*
X112545177Y-145211583D01*
X112627102Y-145014284D01*
X112627289Y-144800653D01*
X112545708Y-144603212D01*
X112394779Y-144452019D01*
X112197480Y-144370094D01*
X111983849Y-144369907D01*
X111786408Y-144451488D01*
X111635215Y-144602417D01*
X111553290Y-144799716D01*
X111553103Y-145013347D01*
X111634684Y-145210788D01*
X111785613Y-145361981D01*
X111952024Y-145431080D01*
X111768828Y-145430920D01*
X111571387Y-145512501D01*
X111420194Y-145663430D01*
X111338269Y-145860729D01*
X111338082Y-146074360D01*
X110382589Y-146074360D01*
X110458415Y-146023695D01*
X110987302Y-145494809D01*
X111083357Y-145494893D01*
X111280798Y-145413312D01*
X111431991Y-145262383D01*
X111513916Y-145065084D01*
X111514103Y-144851453D01*
X111432522Y-144654012D01*
X111281593Y-144502819D01*
X111084294Y-144420894D01*
X110870663Y-144420707D01*
X110673222Y-144502288D01*
X110522029Y-144653217D01*
X110459850Y-144802963D01*
X110383512Y-144618212D01*
X110232583Y-144467019D01*
X110159800Y-144436797D01*
X110159800Y-143154067D01*
X114405527Y-143154067D01*
X114487108Y-143351508D01*
X114638037Y-143502701D01*
X114835336Y-143584626D01*
X115048967Y-143584813D01*
X115246408Y-143503232D01*
X115397601Y-143352303D01*
X115479526Y-143155004D01*
X115479713Y-142941373D01*
X115398132Y-142743932D01*
X115247203Y-142592739D01*
X115049904Y-142510814D01*
X114836273Y-142510627D01*
X114638832Y-142592208D01*
X114487639Y-142743137D01*
X114405714Y-142940436D01*
X114405527Y-143154067D01*
X110159800Y-143154067D01*
X110159800Y-141991344D01*
X110232906Y-141815284D01*
X110233093Y-141601653D01*
X110159800Y-141424270D01*
X110159800Y-137188749D01*
X110165716Y-137191206D01*
X110379347Y-137191393D01*
X110576788Y-137109812D01*
X110727981Y-136958883D01*
X110809906Y-136761584D01*
X110810093Y-136547953D01*
X110728512Y-136350512D01*
X110577583Y-136199319D01*
X110380284Y-136117394D01*
X110166653Y-136117207D01*
X110159800Y-136120039D01*
X110159800Y-129737001D01*
X111380707Y-130957908D01*
X111325100Y-131013417D01*
X111243175Y-131210716D01*
X111242988Y-131424347D01*
X111324569Y-131621788D01*
X111393081Y-131690420D01*
X111393081Y-131706439D01*
X111377059Y-131730417D01*
X111368487Y-131773512D01*
X111347600Y-131878516D01*
X111347600Y-137292099D01*
X110936709Y-137702991D01*
X110840653Y-137702907D01*
X110643212Y-137784488D01*
X110492019Y-137935417D01*
X110410094Y-138132716D01*
X110409907Y-138346347D01*
X110491488Y-138543788D01*
X110642417Y-138694981D01*
X110839716Y-138776906D01*
X111053347Y-138777093D01*
X111250788Y-138695512D01*
X111401981Y-138544583D01*
X111483906Y-138347284D01*
X111483991Y-138250309D01*
X112008251Y-137726050D01*
X112092141Y-137600498D01*
X112121600Y-137452400D01*
X112121600Y-132005112D01*
X112137622Y-131981133D01*
X112167081Y-131833035D01*
X112167081Y-131690445D01*
X112235062Y-131622583D01*
X112316987Y-131425284D01*
X112317174Y-131211653D01*
X112235593Y-131014212D01*
X112167081Y-130945580D01*
X112167081Y-130810085D01*
X112167098Y-130810000D01*
X112137640Y-130661901D01*
X112053749Y-130536350D01*
X111568019Y-130050620D01*
X111739696Y-130121906D01*
X111953327Y-130122093D01*
X112150768Y-130040512D01*
X112301961Y-129889583D01*
X112383886Y-129692284D01*
X112384070Y-129481826D01*
X112441488Y-129620788D01*
X112592417Y-129771981D01*
X112789716Y-129853906D01*
X113003347Y-129854093D01*
X113200788Y-129772512D01*
X113351981Y-129621583D01*
X113433906Y-129424284D01*
X113434093Y-129210653D01*
X113352512Y-129013212D01*
X113201583Y-128862019D01*
X113004284Y-128780094D01*
X112790653Y-128779907D01*
X112593212Y-128861488D01*
X112442019Y-129012417D01*
X112360094Y-129209716D01*
X112359910Y-129420174D01*
X112302492Y-129281212D01*
X112151563Y-129130019D01*
X111954264Y-129048094D01*
X111740633Y-129047907D01*
X111543192Y-129129488D01*
X111391999Y-129280417D01*
X111310074Y-129477716D01*
X111309887Y-129691347D01*
X111381104Y-129863705D01*
X110159800Y-128642401D01*
X110159800Y-127762000D01*
X113625700Y-127762000D01*
X114348000Y-128484300D01*
M02*
