G04 #@! TF.FileFunction,Copper,L1,Top,Signal*
%FSLAX46Y46*%
G04 Gerber Fmt 4.6, Leading zero omitted, Abs format (unit mm)*
G04 Created by KiCad (PCBNEW 4.0.0-rc1-stable) date Sun 22 Nov 2015 09:54:25 PM ICT*
%MOMM*%
G01*
G04 APERTURE LIST*
%ADD10C,0.100000*%
%ADD11R,1.727200X1.727200*%
%ADD12O,1.727200X1.727200*%
%ADD13R,0.750000X0.800000*%
%ADD14R,0.900000X0.500000*%
%ADD15R,0.500000X0.900000*%
%ADD16R,2.100580X2.100580*%
%ADD17R,1.000000X1.500000*%
%ADD18R,0.800000X0.750000*%
%ADD19C,1.000000*%
%ADD20C,0.300000*%
%ADD21C,0.599440*%
%ADD22O,0.300000X0.300000*%
%ADD23C,0.600000*%
%ADD24C,0.150000*%
%ADD25C,0.300000*%
%ADD26C,0.200400*%
%ADD27C,0.199800*%
G04 APERTURE END LIST*
D10*
D11*
X95821500Y-157670000D03*
D12*
X95821500Y-160210000D03*
X98361500Y-157670000D03*
X98361500Y-160210000D03*
X100901500Y-157670000D03*
X100901500Y-160210000D03*
X103441500Y-157670000D03*
X103441500Y-160210000D03*
X105981500Y-157670000D03*
X105981500Y-160210000D03*
X108521500Y-157670000D03*
X108521500Y-160210000D03*
X111061500Y-157670000D03*
X111061500Y-160210000D03*
X113601500Y-157670000D03*
X113601500Y-160210000D03*
D13*
X96418400Y-152717000D03*
X96418400Y-154217000D03*
D14*
X90119200Y-136385000D03*
X90119200Y-137885000D03*
X91440000Y-137885000D03*
X91440000Y-136385000D03*
D15*
X90817000Y-151003000D03*
X92317000Y-151003000D03*
D11*
X95758000Y-122618000D03*
D12*
X95758000Y-125158000D03*
X98298000Y-122618000D03*
X98298000Y-125158000D03*
X100838000Y-122618000D03*
X100838000Y-125158000D03*
X103378000Y-122618000D03*
X103378000Y-125158000D03*
X105918000Y-122618000D03*
X105918000Y-125158000D03*
X108458000Y-122618000D03*
X108458000Y-125158000D03*
X110998000Y-122618000D03*
X110998000Y-125158000D03*
X113538000Y-122618000D03*
X113538000Y-125158000D03*
D16*
X116269000Y-129286000D03*
X120079000Y-129286000D03*
D17*
X108228000Y-130302000D03*
X105728000Y-130302000D03*
D13*
X105728000Y-128702000D03*
X105728000Y-127202000D03*
X108204000Y-128702000D03*
X108204000Y-127202000D03*
D14*
X109639000Y-153961000D03*
X109639000Y-155461000D03*
D15*
X112724000Y-130302000D03*
X114224000Y-130302000D03*
X102767000Y-130429000D03*
X104267000Y-130429000D03*
D13*
X100889000Y-137808000D03*
X100889000Y-136308000D03*
X94373700Y-137758000D03*
X94373700Y-136258000D03*
X86614000Y-139790000D03*
X86614000Y-138290000D03*
X86868000Y-151091000D03*
X86868000Y-152591000D03*
X100482000Y-152717000D03*
X100482000Y-154217000D03*
X91998800Y-152704000D03*
X91998800Y-154204000D03*
X124282000Y-143382000D03*
X124282000Y-144882000D03*
X120129000Y-151866000D03*
X120129000Y-153366000D03*
X121450000Y-151840000D03*
X121450000Y-153340000D03*
X124308000Y-146570000D03*
X124308000Y-148070000D03*
D18*
X122097000Y-128651000D03*
X123597000Y-128651000D03*
X114021000Y-128600000D03*
X112521000Y-128600000D03*
D13*
X111214000Y-130354000D03*
X111214000Y-128854000D03*
X109969000Y-130328000D03*
X109969000Y-128828000D03*
D18*
X103341000Y-133998000D03*
X101841000Y-133998000D03*
X103341000Y-135141000D03*
X101841000Y-135141000D03*
D13*
X97548700Y-137846000D03*
X97548700Y-136346000D03*
X105308400Y-153656600D03*
X105308400Y-155156600D03*
X103886000Y-153656600D03*
X103886000Y-155156600D03*
D19*
X109829600Y-152298400D03*
D20*
X98361500Y-142443480D03*
X98361500Y-143243580D03*
X98361500Y-144043680D03*
X98361500Y-147239000D03*
X98361500Y-148039100D03*
X98361500Y-148839200D03*
X97561400Y-142443480D03*
X97561400Y-143243580D03*
X97561400Y-144043680D03*
X97561400Y-147239000D03*
X97561400Y-148039100D03*
X97561400Y-148839200D03*
X96761300Y-142443480D03*
X96761300Y-143243580D03*
X96761300Y-144043680D03*
X96761300Y-147239000D03*
X96761300Y-148039100D03*
X96761300Y-148839200D03*
X95961200Y-142443480D03*
X95961200Y-143243580D03*
X95961200Y-144043680D03*
X95961200Y-147239000D03*
X95961200Y-148039100D03*
X95961200Y-148839200D03*
X95161100Y-142443480D03*
X95161100Y-143243580D03*
X95161100Y-144043680D03*
X95161100Y-147239000D03*
X95161100Y-148039100D03*
X95161100Y-148839200D03*
X94361000Y-142443480D03*
X94361000Y-143243580D03*
X94361000Y-144043680D03*
X94361000Y-147239000D03*
X94361000Y-148039100D03*
X94361000Y-148839200D03*
D21*
X85862160Y-141143000D03*
X98861880Y-150139680D03*
D20*
X93560900Y-142443480D03*
X93560900Y-143243580D03*
X93560900Y-144043680D03*
X93560900Y-147239000D03*
X93560900Y-148039100D03*
X93560900Y-148839200D03*
X92760800Y-142443480D03*
X92760800Y-143243580D03*
X92760800Y-144043680D03*
X92760800Y-147239000D03*
X92760800Y-148039100D03*
X92760800Y-148839200D03*
X91963240Y-142443480D03*
X91963240Y-143243580D03*
X91963240Y-144043680D03*
X91963240Y-147239000D03*
X91963240Y-148039100D03*
X91963240Y-148839200D03*
X91163140Y-142443480D03*
X91163140Y-143243580D03*
X91163140Y-144043680D03*
X91163140Y-147239000D03*
X91163140Y-148039100D03*
X91163140Y-148839200D03*
X90363040Y-142443480D03*
X90363040Y-143243580D03*
X90363040Y-144043680D03*
X90363040Y-147239000D03*
X90363040Y-148039100D03*
X90363040Y-148839200D03*
X89562940Y-142443480D03*
X89562940Y-143243580D03*
X89562940Y-144043680D03*
X89562940Y-147239000D03*
X89562940Y-148039100D03*
X89562940Y-148839200D03*
X88762840Y-142443480D03*
X88762840Y-143243580D03*
X88762840Y-144043680D03*
X88762840Y-147239000D03*
X88762840Y-148039100D03*
X88762840Y-148839200D03*
X87962740Y-142443480D03*
X87962740Y-143243580D03*
X87962740Y-144043680D03*
X87962740Y-147239000D03*
X87962740Y-148039100D03*
X87962740Y-148839200D03*
X87162640Y-142443480D03*
X87162640Y-143243580D03*
X87162640Y-144043680D03*
X87162640Y-147239000D03*
X87162640Y-148039100D03*
X87162640Y-148839200D03*
X86362540Y-142443480D03*
X86362540Y-143243580D03*
X86362540Y-144043680D03*
X86362540Y-147239000D03*
X86362540Y-148039100D03*
X86362540Y-148839200D03*
D22*
X104945440Y-132250440D03*
X105745540Y-132250440D03*
X106545640Y-132250440D03*
X107345740Y-132250440D03*
X108145840Y-132250440D03*
X108945940Y-132250440D03*
X109746040Y-132250440D03*
X110546140Y-132250440D03*
X111346240Y-132250440D03*
X112146340Y-132250440D03*
X112946440Y-132250440D03*
X113744000Y-132250440D03*
X114541560Y-132250440D03*
X115341660Y-132250440D03*
X116141760Y-132250440D03*
X116941860Y-132250440D03*
X117741960Y-132250440D03*
X118542060Y-132250440D03*
X119342160Y-132250440D03*
X120142260Y-132250440D03*
X120942360Y-132250440D03*
X121742460Y-132250440D03*
X122542560Y-132250440D03*
X104945440Y-133050540D03*
X105745540Y-133050540D03*
X106545640Y-133050540D03*
X107345740Y-133050540D03*
X108145840Y-133050540D03*
X108945940Y-133050540D03*
X109746040Y-133050540D03*
X110546140Y-133050540D03*
X111346240Y-133050540D03*
X112146340Y-133050540D03*
X112946440Y-133050540D03*
X113744000Y-133050540D03*
X114541560Y-133050540D03*
X115341660Y-133050540D03*
X116141760Y-133050540D03*
X116941860Y-133050540D03*
X117741960Y-133050540D03*
X118542060Y-133050540D03*
X119342160Y-133050540D03*
X120142260Y-133050540D03*
X120942360Y-133050540D03*
X121742460Y-133050540D03*
X122542560Y-133050540D03*
X104945440Y-133850640D03*
X105745540Y-133850640D03*
X106545640Y-133850640D03*
X107345740Y-133850640D03*
X108145840Y-133850640D03*
X108945940Y-133850640D03*
X109746040Y-133850640D03*
X110546140Y-133850640D03*
X111346240Y-133850640D03*
X112146340Y-133850640D03*
X112946440Y-133850640D03*
X113744000Y-133850640D03*
X114541560Y-133850640D03*
X115341660Y-133850640D03*
X116141760Y-133850640D03*
X116941860Y-133850640D03*
X117741960Y-133850640D03*
X118542060Y-133850640D03*
X119342160Y-133850640D03*
X120142260Y-133850640D03*
X120942360Y-133850640D03*
X121742460Y-133850640D03*
X122542560Y-133850640D03*
X104945440Y-134650740D03*
X105745540Y-134650740D03*
X106545640Y-134650740D03*
X107345740Y-134650740D03*
X108145840Y-134650740D03*
X108945940Y-134650740D03*
X109746040Y-134650740D03*
X110546140Y-134650740D03*
X111346240Y-134650740D03*
X112146340Y-134650740D03*
X112946440Y-134650740D03*
X113744000Y-134650740D03*
X114541560Y-134650740D03*
X115341660Y-134650740D03*
X116141760Y-134650740D03*
X116941860Y-134650740D03*
X117741960Y-134650740D03*
X118542060Y-134650740D03*
X119342160Y-134650740D03*
X120142260Y-134650740D03*
X120942360Y-134650740D03*
X121742460Y-134650740D03*
X122542560Y-134650740D03*
X104945440Y-135450840D03*
X105745540Y-135450840D03*
X106545640Y-135450840D03*
X107345740Y-135450840D03*
X108145840Y-135450840D03*
X108945940Y-135450840D03*
X109746040Y-135450840D03*
X110546140Y-135450840D03*
X111346240Y-135450840D03*
X112146340Y-135450840D03*
X112946440Y-135450840D03*
X113744000Y-135450840D03*
X114541560Y-135450840D03*
X115341660Y-135450840D03*
X116141760Y-135450840D03*
X116941860Y-135450840D03*
X117741960Y-135450840D03*
X118542060Y-135450840D03*
X119342160Y-135450840D03*
X120142260Y-135450840D03*
X120942360Y-135450840D03*
X121742460Y-135450840D03*
X122542560Y-135450840D03*
X104945440Y-146647160D03*
X105745540Y-146647160D03*
X106545640Y-146647160D03*
X107345740Y-146647160D03*
X108145840Y-146647160D03*
X108945940Y-146647160D03*
X109746040Y-146647160D03*
X110546140Y-146647160D03*
X111346240Y-146647160D03*
X112146340Y-146647160D03*
X112946440Y-146647160D03*
X113744000Y-146647160D03*
X114541560Y-146647160D03*
X115341660Y-146647160D03*
X116141760Y-146647160D03*
X116941860Y-146647160D03*
X117741960Y-146647160D03*
X118542060Y-146647160D03*
X119342160Y-146647160D03*
X120142260Y-146647160D03*
X120942360Y-146647160D03*
X121742460Y-146647160D03*
X122542560Y-146647160D03*
X104945440Y-147447260D03*
X105745540Y-147447260D03*
X106545640Y-147447260D03*
X107345740Y-147447260D03*
X108145840Y-147447260D03*
X108945940Y-147447260D03*
X109746040Y-147447260D03*
X110546140Y-147447260D03*
X111346240Y-147447260D03*
X112146340Y-147447260D03*
X112946440Y-147447260D03*
X113744000Y-147447260D03*
X114541560Y-147447260D03*
X115341660Y-147447260D03*
X116141760Y-147447260D03*
X116941860Y-147447260D03*
X117741960Y-147447260D03*
X118542060Y-147447260D03*
X119342160Y-147447260D03*
X120142260Y-147447260D03*
X120942360Y-147447260D03*
X121742460Y-147447260D03*
X122542560Y-147447260D03*
X104945440Y-148247360D03*
X105745540Y-148247360D03*
X106545640Y-148247360D03*
X107345740Y-148247360D03*
X108145840Y-148247360D03*
X108945940Y-148247360D03*
X109746040Y-148247360D03*
X110546140Y-148247360D03*
X111346240Y-148247360D03*
X112146340Y-148247360D03*
X112946440Y-148247360D03*
X113744000Y-148247360D03*
X114541560Y-148247360D03*
X115341660Y-148247360D03*
X116141760Y-148247360D03*
X116941860Y-148247360D03*
X117741960Y-148247360D03*
X118542060Y-148247360D03*
X119342160Y-148247360D03*
X120142260Y-148247360D03*
X120942360Y-148247360D03*
X121742460Y-148247360D03*
X122542560Y-148247360D03*
X104945440Y-149047460D03*
X105745540Y-149047460D03*
X106545640Y-149047460D03*
X107345740Y-149047460D03*
X108145840Y-149047460D03*
X108945940Y-149047460D03*
X109746040Y-149047460D03*
X110546140Y-149047460D03*
X111346240Y-149047460D03*
X112146340Y-149047460D03*
X112946440Y-149047460D03*
X113744000Y-149047460D03*
X114541560Y-149047460D03*
X115341660Y-149047460D03*
X116141760Y-149047460D03*
X116941860Y-149047460D03*
X117741960Y-149047460D03*
X118542060Y-149047460D03*
X119342160Y-149047460D03*
X120142260Y-149047460D03*
X120942360Y-149047460D03*
X121742460Y-149047460D03*
X122542560Y-149047460D03*
X104945440Y-149847560D03*
X105745540Y-149847560D03*
X106545640Y-149847560D03*
X107345740Y-149847560D03*
X108145840Y-149847560D03*
X108945940Y-149847560D03*
X109746040Y-149847560D03*
X110546140Y-149847560D03*
X111346240Y-149847560D03*
X112146340Y-149847560D03*
X112946440Y-149847560D03*
X113744000Y-149847560D03*
X114541560Y-149847560D03*
X115341660Y-149847560D03*
X116141760Y-149847560D03*
X116941860Y-149847560D03*
X117741960Y-149847560D03*
X118542060Y-149847560D03*
X119342160Y-149847560D03*
X120142260Y-149847560D03*
X120942360Y-149847560D03*
X121742460Y-149847560D03*
X122542560Y-149847560D03*
X104945440Y-136250940D03*
X105745540Y-136250940D03*
X106545640Y-136250940D03*
X107345740Y-136250940D03*
X108145840Y-136250940D03*
X119342160Y-136250940D03*
X120142260Y-136250940D03*
X120942360Y-136250940D03*
X121742460Y-136250940D03*
X122542560Y-136250940D03*
X104945440Y-137051040D03*
X105745540Y-137051040D03*
X106545640Y-137051040D03*
X107345740Y-137051040D03*
X108145840Y-137051040D03*
X119342160Y-137051040D03*
X120142260Y-137051040D03*
X120942360Y-137051040D03*
X121742460Y-137051040D03*
X122542560Y-137051040D03*
X104945440Y-137851140D03*
X105745540Y-137851140D03*
X106545640Y-137851140D03*
X107345740Y-137851140D03*
X108145840Y-137851140D03*
X119342160Y-137851140D03*
X120142260Y-137851140D03*
X120942360Y-137851140D03*
X121742460Y-137851140D03*
X122542560Y-137851140D03*
X104945440Y-138651240D03*
X105745540Y-138651240D03*
X106545640Y-138651240D03*
X107345740Y-138651240D03*
X108145840Y-138651240D03*
X119342160Y-138651240D03*
X120142260Y-138651240D03*
X120942360Y-138651240D03*
X121742460Y-138651240D03*
X122542560Y-138651240D03*
X104945440Y-139451340D03*
X105745540Y-139451340D03*
X106545640Y-139451340D03*
X107345740Y-139451340D03*
X108145840Y-139451340D03*
X119342160Y-139451340D03*
X120142260Y-139451340D03*
X120942360Y-139451340D03*
X121742460Y-139451340D03*
X122542560Y-139451340D03*
X104945440Y-140251440D03*
X105745540Y-140251440D03*
X106545640Y-140251440D03*
X107345740Y-140251440D03*
X108145840Y-140251440D03*
X119342160Y-140251440D03*
X120142260Y-140251440D03*
X120942360Y-140251440D03*
X121742460Y-140251440D03*
X122542560Y-140251440D03*
X104945440Y-141049000D03*
X105745540Y-141049000D03*
X106545640Y-141049000D03*
X107345740Y-141049000D03*
X108145840Y-141049000D03*
X119342160Y-141049000D03*
X120142260Y-141049000D03*
X120942360Y-141049000D03*
X121742460Y-141049000D03*
X122542560Y-141049000D03*
X104945440Y-141846560D03*
X105745540Y-141846560D03*
X106545640Y-141846560D03*
X107345740Y-141846560D03*
X108145840Y-141846560D03*
X119342160Y-141846560D03*
X120142260Y-141846560D03*
X120942360Y-141846560D03*
X121742460Y-141846560D03*
X122542560Y-141846560D03*
X104945440Y-142646660D03*
X105745540Y-142646660D03*
X106545640Y-142646660D03*
X107345740Y-142646660D03*
X108145840Y-142646660D03*
X119342160Y-142646660D03*
X120142260Y-142646660D03*
X120942360Y-142646660D03*
X121742460Y-142646660D03*
X122542560Y-142646660D03*
X104945440Y-143446760D03*
X105745540Y-143446760D03*
X106545640Y-143446760D03*
X107345740Y-143446760D03*
X108145840Y-143446760D03*
X119342160Y-143446760D03*
X120142260Y-143446760D03*
X120942360Y-143446760D03*
X121742460Y-143446760D03*
X122542560Y-143446760D03*
X104945440Y-144246860D03*
X105745540Y-144246860D03*
X106545640Y-144246860D03*
X107345740Y-144246860D03*
X108145840Y-144246860D03*
X119342160Y-144246860D03*
X120142260Y-144246860D03*
X120942360Y-144246860D03*
X121742460Y-144246860D03*
X122542560Y-144246860D03*
X104945440Y-145046960D03*
X105745540Y-145046960D03*
X106545640Y-145046960D03*
X107345740Y-145046960D03*
X108145840Y-145046960D03*
X119342160Y-145046960D03*
X120142260Y-145046960D03*
X120942360Y-145046960D03*
X121742460Y-145046960D03*
X122542560Y-145046960D03*
X104945440Y-145847060D03*
X105745540Y-145847060D03*
X106545640Y-145847060D03*
X107345740Y-145847060D03*
X108145840Y-145847060D03*
X119342160Y-145847060D03*
X120142260Y-145847060D03*
X120942360Y-145847060D03*
X121742460Y-145847060D03*
X122542560Y-145847060D03*
X110546140Y-137851140D03*
X111346240Y-137851140D03*
X112146340Y-137851140D03*
X112946440Y-137851140D03*
X113744000Y-137851140D03*
X114541560Y-137851140D03*
X115341660Y-137851140D03*
X116141760Y-137851140D03*
X116941860Y-137851140D03*
X110546140Y-138651240D03*
X111346240Y-138651240D03*
X112146340Y-138651240D03*
X112946440Y-138651240D03*
X113744000Y-138651240D03*
X114541560Y-138651240D03*
X115341660Y-138651240D03*
X116141760Y-138651240D03*
X116941860Y-138651240D03*
X110546140Y-139451340D03*
X111346240Y-139451340D03*
X112146340Y-139451340D03*
X112946440Y-139451340D03*
X113744000Y-139451340D03*
X114541560Y-139451340D03*
X115341660Y-139451340D03*
X116141760Y-139451340D03*
X116941860Y-139451340D03*
X110546140Y-140251440D03*
X111346240Y-140251440D03*
X112146340Y-140251440D03*
X112946440Y-140251440D03*
X113744000Y-140251440D03*
X114541560Y-140251440D03*
X115341660Y-140251440D03*
X116141760Y-140251440D03*
X116941860Y-140251440D03*
X110546140Y-141049000D03*
X111346240Y-141049000D03*
X112146340Y-141049000D03*
X112946440Y-141049000D03*
X113744000Y-141049000D03*
X114541560Y-141049000D03*
X115341660Y-141049000D03*
X116141760Y-141049000D03*
X116941860Y-141049000D03*
X110546140Y-141846560D03*
X111346240Y-141846560D03*
X112146340Y-141846560D03*
X112946440Y-141846560D03*
X113744000Y-141846560D03*
X114541560Y-141846560D03*
X115341660Y-141846560D03*
X116141760Y-141846560D03*
X116941860Y-141846560D03*
X110546140Y-142646660D03*
X111346240Y-142646660D03*
X112146340Y-142646660D03*
X112946440Y-142646660D03*
X113744000Y-142646660D03*
X114541560Y-142646660D03*
X115341660Y-142646660D03*
X116141760Y-142646660D03*
X116941860Y-142646660D03*
X110546140Y-143446760D03*
X111346240Y-143446760D03*
X112146340Y-143446760D03*
X112946440Y-143446760D03*
X113744000Y-143446760D03*
X114541560Y-143446760D03*
X115341660Y-143446760D03*
X116141760Y-143446760D03*
X116941860Y-143446760D03*
X110546140Y-144246860D03*
X111346240Y-144246860D03*
X112146340Y-144246860D03*
X112946440Y-144246860D03*
X113744000Y-144246860D03*
X114541560Y-144246860D03*
X115341660Y-144246860D03*
X116141760Y-144246860D03*
X116941860Y-144246860D03*
D23*
X106066000Y-151089000D03*
X96258100Y-145738000D03*
X108392000Y-148783000D03*
X100999000Y-150260000D03*
X111875175Y-145968013D03*
X104070000Y-145087000D03*
X101854000Y-152394000D03*
X95423400Y-149509000D03*
X102608000Y-145087000D03*
X107239000Y-150725000D03*
X110048526Y-150687849D03*
X94000500Y-145378000D03*
X94767400Y-147637500D03*
X102677000Y-151989000D03*
X87541100Y-146850100D03*
X101602000Y-145687000D03*
X89077800Y-144411700D03*
X109696000Y-141708000D03*
X106946700Y-147853400D03*
X103454000Y-147489000D03*
X106944000Y-148638000D03*
X100249000Y-150014000D03*
X90129360Y-146921220D03*
X90678500Y-139615000D03*
X89154000Y-143637000D03*
X108797000Y-139580000D03*
X107721400Y-142227300D03*
X88589569Y-144956574D03*
X108954000Y-141591000D03*
X107746800Y-143052800D03*
X91361700Y-146059000D03*
X90632280Y-146029680D03*
X106949000Y-143050000D03*
X108686167Y-143663185D03*
X90170000Y-144704000D03*
X86850400Y-146519000D03*
X106959000Y-145454000D03*
X96172020Y-142062200D03*
X97706180Y-142067280D03*
X112857280Y-146159220D03*
X114942620Y-143047720D03*
X110147100Y-147129500D03*
X118935500Y-147840700D03*
X117868700Y-141008100D03*
X108369100Y-145465800D03*
X114134980Y-140640000D03*
X93791480Y-141408000D03*
X87947696Y-141858000D03*
X89455898Y-149617794D03*
X108630394Y-137385753D03*
X104648000Y-156159200D03*
X103124000Y-156057600D03*
X85859020Y-142418000D03*
X86601320Y-137439000D03*
X86868000Y-153529980D03*
X92798900Y-154191020D03*
X116631486Y-145044030D03*
X109601000Y-156159200D03*
X111846980Y-129585000D03*
X118318000Y-152649000D03*
X99300900Y-148729000D03*
X108991000Y-127140000D03*
X104966000Y-127178000D03*
X112897000Y-129317000D03*
X109313000Y-129577000D03*
X123584000Y-129565000D03*
X124270000Y-145720000D03*
X124396000Y-148895000D03*
X122149000Y-152883000D03*
X100368000Y-155080000D03*
X96443800Y-155156000D03*
X91681300Y-150978000D03*
X100825000Y-135382000D03*
X97548700Y-135484000D03*
X94361000Y-135420000D03*
X91440000Y-135674000D03*
X108632000Y-138849000D03*
X109220000Y-142672000D03*
X92134900Y-140951000D03*
X89342300Y-140853000D03*
X96520000Y-149454000D03*
X97637900Y-144754000D03*
X94684700Y-149639000D03*
X93634700Y-149833000D03*
X97616800Y-149312000D03*
X91554000Y-149454000D03*
X86334600Y-149403000D03*
X91107260Y-141302740D03*
X109928000Y-144922000D03*
X95580200Y-146799300D03*
X108615000Y-150346000D03*
X89204800Y-142887700D03*
X101002000Y-139704000D03*
X87559547Y-144895117D03*
X101732000Y-139530000D03*
X107746800Y-139052300D03*
X88365100Y-148436000D03*
X91564460Y-147642580D03*
X104058000Y-143137000D03*
X106946700Y-144653000D03*
X92103300Y-144758000D03*
X109347000Y-149440900D03*
X95329200Y-145151000D03*
X103454000Y-151689000D03*
X94741700Y-146159000D03*
X106146600Y-149453600D03*
X100972000Y-145280000D03*
X103475000Y-149439000D03*
X100266000Y-146059000D03*
X98036380Y-146733260D03*
X106146600Y-148640800D03*
X99519300Y-145703000D03*
X101194000Y-147049000D03*
X97955100Y-147637500D03*
X101014000Y-148909000D03*
X97132140Y-146679920D03*
X102437000Y-149216000D03*
X92054300Y-146886000D03*
X99906700Y-143455000D03*
X91325700Y-146784060D03*
X101690000Y-143201000D03*
X121733980Y-130118000D03*
X121348500Y-133451600D03*
X123113800Y-135610600D03*
X123557000Y-136188000D03*
X118485000Y-129559000D03*
X120535700Y-132651500D03*
X121361200Y-137464800D03*
X122947000Y-137447000D03*
X123413000Y-138105000D03*
X123705980Y-139127000D03*
X122174000Y-140627100D03*
X121373900Y-141414500D03*
X123352020Y-140864000D03*
X123366000Y-142567020D03*
X123662000Y-149045000D03*
X111744760Y-147845780D03*
X107784900Y-147091400D03*
X106934000Y-138239500D03*
X89166700Y-148437600D03*
X92379800Y-137935000D03*
X92875000Y-140815000D03*
X90629740Y-141848840D03*
X109402880Y-139992100D03*
X109280960Y-137883900D03*
X108948220Y-136745980D03*
X96918780Y-142085060D03*
X93154500Y-143637000D03*
X110977010Y-144957800D03*
X109838077Y-145750045D03*
X94841520Y-141619020D03*
X86917674Y-141713726D03*
X87087161Y-149471627D03*
X108915200Y-145008602D03*
X88991180Y-141634000D03*
X101867000Y-153149000D03*
X97320100Y-152819000D03*
X92748100Y-152641000D03*
X86893400Y-150254000D03*
X101790000Y-137782000D03*
X98336100Y-137846000D03*
X95186500Y-137808000D03*
X90106500Y-135636000D03*
X86639400Y-140526000D03*
X88696800Y-149377000D03*
X93072700Y-146455000D03*
X90728800Y-149352000D03*
X95305300Y-150405000D03*
X97024700Y-150310000D03*
X92612000Y-149414000D03*
X98892100Y-147653000D03*
X109425778Y-143687482D03*
X102920800Y-153847800D03*
X123431020Y-143421000D03*
X118847000Y-152118000D03*
X109728000Y-131204000D03*
X103391000Y-136042000D03*
X117335000Y-139040000D03*
X111747000Y-139827000D03*
X113433860Y-144716500D03*
X114939600Y-145124300D03*
X118948200Y-148653500D03*
X114478957Y-145728307D03*
X106400600Y-153771600D03*
X111780081Y-131318000D03*
X117094000Y-146050000D03*
X119078446Y-137995554D03*
X118332020Y-142690042D03*
X116713000Y-153772000D03*
X119232000Y-152801000D03*
X123596000Y-153518000D03*
X117960000Y-130108000D03*
X102819000Y-131331000D03*
X123482000Y-146596000D03*
X122415000Y-152121000D03*
X103378000Y-133083000D03*
X116548000Y-139890000D03*
X110947000Y-138240000D03*
X119748300Y-140639800D03*
X113886278Y-145285194D03*
X118805864Y-139923986D03*
X114940080Y-148645880D03*
X118191830Y-139493312D03*
X110273000Y-136654300D03*
X118370000Y-143878000D03*
X118783100Y-145910300D03*
X118491809Y-145194000D03*
X123044000Y-139774000D03*
X110337600Y-151409400D03*
X112090196Y-144907000D03*
D24*
X95161100Y-144043000D02*
X95161100Y-144246600D01*
X95161100Y-144246600D02*
X95931800Y-145017300D01*
X95931800Y-145017300D02*
X95931800Y-145412000D01*
X95931800Y-145412000D02*
X95958100Y-145438000D01*
X95958100Y-145438000D02*
X96258100Y-145738000D01*
X107346000Y-149048000D02*
X107150000Y-149243500D01*
X106954000Y-150201000D02*
X106066000Y-151089000D01*
X106954000Y-149439000D02*
X106954000Y-150201000D01*
X107150000Y-149243500D02*
X106954000Y-149439000D01*
X107345700Y-149047800D02*
X107345700Y-149047500D01*
X107150000Y-149243500D02*
X107345700Y-149047800D01*
X93137000Y-148415000D02*
X92948900Y-148227000D01*
X93137000Y-149666000D02*
X93137000Y-148415000D01*
X93095900Y-149707000D02*
X93137000Y-149666000D01*
X93095900Y-150073000D02*
X93095900Y-149707000D01*
X94343300Y-151320000D02*
X93095900Y-150073000D01*
X97188100Y-151320000D02*
X94343300Y-151320000D01*
X97595200Y-150913000D02*
X97188100Y-151320000D01*
X100347000Y-150913000D02*
X97595200Y-150913000D01*
X100999000Y-150260000D02*
X100347000Y-150913000D01*
X92948900Y-148227000D02*
X92760800Y-148039000D01*
X92760800Y-148038900D02*
X92760800Y-148038800D01*
X92948900Y-148227000D02*
X92760800Y-148038900D01*
X108145800Y-149047500D02*
X108145700Y-149047600D01*
X108146000Y-149048000D02*
X108145700Y-149047600D01*
X108142000Y-149033000D02*
X108392000Y-148783000D01*
X108142000Y-149044000D02*
X108142000Y-149033000D01*
X108145700Y-149047600D02*
X108142000Y-149044000D01*
X93560900Y-143243200D02*
X93977460Y-142826640D01*
X93977460Y-142826640D02*
X93977460Y-141999040D01*
X99820753Y-142129475D02*
X102180278Y-144489000D01*
X93977460Y-141999040D02*
X94316500Y-141660000D01*
X94316500Y-141660000D02*
X94316500Y-141367000D01*
X103645736Y-145087000D02*
X104070000Y-145087000D01*
X94316500Y-141367000D02*
X94589500Y-141094000D01*
X94589500Y-141094000D02*
X98785400Y-141094000D01*
X98785400Y-141094000D02*
X99820753Y-142129475D01*
X102180278Y-144489000D02*
X102782000Y-144489000D01*
X102782000Y-144489000D02*
X103380000Y-145087000D01*
X103380000Y-145087000D02*
X103645736Y-145087000D01*
X109745800Y-149047700D02*
X109372400Y-148674300D01*
X111785400Y-146761200D02*
X111785400Y-146482052D01*
X109372400Y-148674300D02*
X109372400Y-148056600D01*
X110957360Y-147517640D02*
X110957360Y-147205211D01*
X111134671Y-147027900D02*
X111518700Y-147027900D01*
X109372400Y-148056600D02*
X109557000Y-147872000D01*
X109557000Y-147872000D02*
X110603000Y-147872000D01*
X110603000Y-147872000D02*
X110957360Y-147517640D01*
X110957360Y-147205211D02*
X111134671Y-147027900D01*
X111518700Y-147027900D02*
X111785400Y-146761200D01*
X111785400Y-146482052D02*
X111875175Y-146392277D01*
X111875175Y-146392277D02*
X111875175Y-145968013D01*
X109746000Y-149047500D02*
X109745800Y-149047700D01*
X109746000Y-149048000D02*
X109745800Y-149047700D01*
X94523700Y-148201500D02*
X94767400Y-148445200D01*
X94767400Y-148445200D02*
X94767400Y-148976080D01*
X94767400Y-148976080D02*
X95023940Y-149232620D01*
X95023940Y-149232620D02*
X95147020Y-149232620D01*
X95147020Y-149232620D02*
X95423400Y-149509000D01*
X110546100Y-149047500D02*
X110159800Y-149433800D01*
X110159800Y-149433800D02*
X110159800Y-149936200D01*
X110159800Y-149936200D02*
X109880400Y-150215600D01*
X109880400Y-150215600D02*
X109829600Y-150215600D01*
X109829600Y-150215600D02*
X109536010Y-150509190D01*
X109536010Y-150509190D02*
X109536010Y-150637126D01*
X109536010Y-150637126D02*
X107479137Y-152693999D01*
X102153999Y-152693999D02*
X101854000Y-152394000D01*
X107479137Y-152693999D02*
X102153999Y-152693999D01*
X94523700Y-148201500D02*
X94361000Y-148038800D01*
X94361000Y-148039000D02*
X94523700Y-148201500D01*
X102608000Y-145087000D02*
X102354000Y-145087000D01*
X98830000Y-141563000D02*
X95647600Y-141563000D01*
X102354000Y-145087000D02*
X98830000Y-141563000D01*
X95647600Y-141563000D02*
X95148400Y-142062200D01*
X95148400Y-142062200D02*
X95046800Y-142062200D01*
X95046800Y-142062200D02*
X94767400Y-142341600D01*
X94767400Y-142341600D02*
X94767400Y-142836600D01*
X94767400Y-142836600D02*
X94361000Y-143243000D01*
X94361000Y-143243000D02*
X94361000Y-143243200D01*
X107346000Y-150618000D02*
X107346000Y-149848000D01*
X107239000Y-150725000D02*
X107346000Y-150618000D01*
X107346000Y-149847900D02*
X107346000Y-149848000D01*
X107345700Y-149847600D02*
X107346000Y-149847900D01*
X92603300Y-147396300D02*
X92354400Y-147645200D01*
X92354400Y-147645200D02*
X92354400Y-148928500D01*
X92354400Y-148928500D02*
X92086900Y-149196000D01*
X102190000Y-150864000D02*
X105529000Y-150864000D01*
X92086900Y-149196000D02*
X92086900Y-149664000D01*
X92086900Y-149664000D02*
X94043400Y-151620000D01*
X94043400Y-151620000D02*
X101434000Y-151620000D01*
X101434000Y-151620000D02*
X102190000Y-150864000D01*
X105529000Y-150864000D02*
X106546000Y-149848000D01*
X106546000Y-149848000D02*
X106545600Y-149847600D01*
X92760800Y-147239000D02*
X92603300Y-147396300D01*
X92760800Y-147238800D02*
X92760800Y-147238700D01*
X92603300Y-147396300D02*
X92760800Y-147238800D01*
X110546000Y-150083000D02*
X110546000Y-150190375D01*
X110348525Y-150387850D02*
X110048526Y-150687849D01*
X110546000Y-150190375D02*
X110348525Y-150387850D01*
X93700500Y-145078000D02*
X94000500Y-145378000D01*
X92760800Y-144138000D02*
X93700500Y-145078000D01*
X92760800Y-144043300D02*
X92760800Y-144138000D01*
X92760800Y-144043000D02*
X92760800Y-144043300D01*
X110546000Y-150083000D02*
X110546000Y-149848000D01*
X110546100Y-150082900D02*
X110546100Y-149847600D01*
X110546000Y-150083000D02*
X110546100Y-150082900D01*
X94686400Y-147564000D02*
X94523700Y-147401500D01*
X94693900Y-147564000D02*
X94686400Y-147564000D01*
X94767400Y-147637500D02*
X94693900Y-147564000D01*
X109746000Y-149848000D02*
X109546000Y-150047600D01*
X102902000Y-152214000D02*
X102677000Y-151989000D01*
X107549000Y-152214000D02*
X102902000Y-152214000D01*
X109246000Y-150517000D02*
X107549000Y-152214000D01*
X109246000Y-150347000D02*
X109246000Y-150517000D01*
X109546000Y-150047600D02*
X109246000Y-150347000D01*
X109546000Y-150047600D02*
X109746000Y-149847600D01*
X94361000Y-147239000D02*
X94523700Y-147401500D01*
X94361000Y-147238800D02*
X94361000Y-147238700D01*
X94523700Y-147401500D02*
X94361000Y-147238800D01*
X87541100Y-146850100D02*
X87541100Y-146883700D01*
X87541100Y-146883700D02*
X87185800Y-147239000D01*
X87185800Y-147239000D02*
X87162900Y-147239000D01*
X87162600Y-147239000D02*
X87162900Y-147239000D01*
X87162900Y-147239000D02*
X87162600Y-147238700D01*
X106545600Y-146647200D02*
X106545900Y-146646900D01*
X106546000Y-146647000D02*
X106545900Y-146646900D01*
X101827000Y-145912000D02*
X101602000Y-145687000D01*
X104359000Y-145912000D02*
X101827000Y-145912000D01*
X104638000Y-146191000D02*
X104359000Y-145912000D01*
X106090000Y-146191000D02*
X104638000Y-146191000D01*
X106545900Y-146646900D02*
X106090000Y-146191000D01*
X89077800Y-144411700D02*
X89071100Y-144405000D01*
X89077800Y-144411700D02*
X89052400Y-144386300D01*
X89071100Y-144405000D02*
X89071100Y-144353000D01*
X89071100Y-144353000D02*
X89071100Y-144367025D01*
X89069585Y-144354515D02*
X89069585Y-144368540D01*
X89071100Y-144367025D02*
X89069585Y-144368540D01*
X89071100Y-144353000D02*
X89069585Y-144354515D01*
X109696000Y-142132264D02*
X109696000Y-141708000D01*
X108015000Y-144696000D02*
X108440196Y-144696000D01*
X107790201Y-146202799D02*
X107790201Y-144920799D01*
X109940798Y-142377062D02*
X109696000Y-142132264D01*
X108667998Y-144468198D02*
X109436024Y-144468198D01*
X109940798Y-143963424D02*
X109940798Y-142377062D01*
X107570000Y-146423000D02*
X107790201Y-146202799D01*
X107790201Y-144920799D02*
X108015000Y-144696000D01*
X108440196Y-144696000D02*
X108667998Y-144468198D01*
X109436024Y-144468198D02*
X109940798Y-143963424D01*
X107346000Y-146647000D02*
X107570000Y-146423000D01*
X107569900Y-146423000D02*
X107345700Y-146647200D01*
X107570000Y-146423000D02*
X107569900Y-146423000D01*
X89037500Y-144412000D02*
X89037500Y-144399500D01*
X88762800Y-144124800D02*
X88762800Y-144043300D01*
X89037500Y-144399500D02*
X88762800Y-144124800D01*
X106946700Y-147853400D02*
X106946700Y-147825700D01*
X106946700Y-147825700D02*
X106568000Y-147447000D01*
X106568000Y-147447000D02*
X106545900Y-147447000D01*
X106545900Y-147447000D02*
X106545600Y-147447300D01*
X86362500Y-144043000D02*
X86362500Y-144043300D01*
X103030000Y-147489000D02*
X103454000Y-147489000D01*
X102945000Y-147574000D02*
X103030000Y-147489000D01*
X100014000Y-147574000D02*
X102945000Y-147574000D01*
X99268400Y-146828000D02*
X100014000Y-147574000D01*
X98847700Y-146828000D02*
X99268400Y-146828000D01*
X98199000Y-146180000D02*
X98847700Y-146828000D01*
X96587300Y-146180000D02*
X98199000Y-146180000D01*
X96488400Y-146279000D02*
X96587300Y-146180000D01*
X95398800Y-146279000D02*
X96488400Y-146279000D01*
X94993700Y-146684000D02*
X95398800Y-146279000D01*
X94468800Y-146684000D02*
X94993700Y-146684000D01*
X93067600Y-145283000D02*
X94468800Y-146684000D01*
X91851300Y-145283000D02*
X93067600Y-145283000D01*
X91802900Y-145234000D02*
X91851300Y-145283000D01*
X90132700Y-145234000D02*
X91802900Y-145234000D01*
X89275600Y-146091000D02*
X90132700Y-145234000D01*
X87993100Y-146091000D02*
X89275600Y-146091000D01*
X87942300Y-146040000D02*
X87993100Y-146091000D01*
X87656500Y-146040000D02*
X87942300Y-146040000D01*
X87311400Y-145695000D02*
X87656500Y-146040000D01*
X87084300Y-145695000D02*
X87311400Y-145695000D01*
X86362500Y-144974000D02*
X87084300Y-145695000D01*
X86362500Y-144043300D02*
X86362500Y-144974000D01*
X102314000Y-151164000D02*
X103681000Y-151164000D01*
X87579200Y-149319500D02*
X87762700Y-149503000D01*
X87762700Y-149503000D02*
X87762700Y-149695000D01*
X87962700Y-148038800D02*
X87962700Y-148039000D01*
X104131000Y-151614000D02*
X107127000Y-151614000D01*
X87762700Y-149695000D02*
X89987400Y-151920000D01*
X107781000Y-147883000D02*
X107446000Y-147548000D01*
X87962700Y-148039000D02*
X87579200Y-148422500D01*
X87579200Y-148422500D02*
X87579200Y-149319500D01*
X107127000Y-151614000D02*
X107781000Y-150960000D01*
X89987400Y-151920000D02*
X101558000Y-151920000D01*
X101558000Y-151920000D02*
X102314000Y-151164000D01*
X103681000Y-151164000D02*
X104131000Y-151614000D01*
X107781000Y-150960000D02*
X107781000Y-147883000D01*
X107446000Y-147548000D02*
X107346000Y-147447000D01*
X107346000Y-147447000D02*
X107345700Y-147447300D01*
X87868800Y-146391000D02*
X87818000Y-146340000D01*
X89365787Y-146391000D02*
X87868800Y-146391000D01*
X91602725Y-145523625D02*
X90233162Y-145523625D01*
X94159700Y-149390000D02*
X93960900Y-149191000D01*
X93960900Y-149191000D02*
X93960900Y-146600000D01*
X86553500Y-145994000D02*
X85979000Y-146568500D01*
X93960900Y-146600000D02*
X92943400Y-145583000D01*
X85979000Y-147655500D02*
X86362400Y-148038900D01*
X85979000Y-146568500D02*
X85979000Y-147655500D01*
X97063800Y-151020000D02*
X95099600Y-151020000D01*
X90233162Y-145523625D02*
X89365787Y-146391000D01*
X87186200Y-145994000D02*
X86553500Y-145994000D01*
X87532200Y-146340000D02*
X87186200Y-145994000D01*
X99850000Y-149615000D02*
X98469200Y-149615000D01*
X100249000Y-150014000D02*
X99850000Y-149615000D01*
X91662100Y-145583000D02*
X91602725Y-145523625D01*
X95099600Y-151020000D02*
X94159700Y-150080000D01*
X87818000Y-146340000D02*
X87532200Y-146340000D01*
X98469200Y-149615000D02*
X97063800Y-151020000D01*
X92943400Y-145583000D02*
X91662100Y-145583000D01*
X94159700Y-150080000D02*
X94159700Y-149390000D01*
X106871000Y-148565000D02*
X106944000Y-148638000D01*
X106871000Y-148565000D02*
X106944000Y-148638000D01*
X106647600Y-148349400D02*
X106655400Y-148349400D01*
X106545600Y-148247400D02*
X106647600Y-148349400D01*
X106655400Y-148349400D02*
X106871000Y-148565000D01*
X106553000Y-148247000D02*
X106655400Y-148349400D01*
X106546000Y-148247000D02*
X106553000Y-148247000D01*
X86362500Y-148038800D02*
X86362400Y-148038900D01*
X86362400Y-148038900D02*
X86362500Y-148039000D01*
X90129360Y-146921220D02*
X90129360Y-147014698D01*
X90129360Y-147014698D02*
X90353362Y-147238700D01*
X90353362Y-147238700D02*
X90363000Y-147238700D01*
X106545200Y-140251000D02*
X106316600Y-140251000D01*
X104235000Y-140229000D02*
X100749000Y-140229000D01*
X90751800Y-139542000D02*
X90678500Y-139615000D01*
X106316600Y-140251000D02*
X105930700Y-139865100D01*
X105930700Y-139865100D02*
X104598900Y-139865100D01*
X104598900Y-139865100D02*
X104235000Y-140229000D01*
X100749000Y-140229000D02*
X99457100Y-138938000D01*
X91263900Y-138938000D02*
X90751800Y-139450000D01*
X99457100Y-138938000D02*
X91263900Y-138938000D01*
X90751800Y-139450000D02*
X90751800Y-139542000D01*
X106546000Y-140251000D02*
X106545200Y-140251000D01*
X106545200Y-140251000D02*
X106545600Y-140251400D01*
X87162600Y-143243200D02*
X87162600Y-143102000D01*
X87162600Y-143102000D02*
X87579200Y-142685400D01*
X87579200Y-142685400D02*
X87579200Y-142265400D01*
X87579200Y-142265400D02*
X87432676Y-142118876D01*
X99332800Y-139238000D02*
X100626000Y-140531000D01*
X87432676Y-142118876D02*
X87432676Y-141523727D01*
X87432676Y-141523727D02*
X88968800Y-139988000D01*
X100626000Y-140531000D02*
X101713000Y-140531000D01*
X101713000Y-140531000D02*
X101847200Y-140665200D01*
X88968800Y-139988000D02*
X90274100Y-139988000D01*
X90274100Y-139988000D02*
X90426500Y-140140000D01*
X90426500Y-140140000D02*
X90930500Y-140140000D01*
X101847200Y-140665200D02*
X106162200Y-140665200D01*
X90930500Y-140140000D02*
X91832900Y-139238000D01*
X91832900Y-139238000D02*
X99332800Y-139238000D01*
X106162200Y-140665200D02*
X106545800Y-141048800D01*
X106545600Y-141049000D02*
X106545800Y-141048800D01*
X106545800Y-141048800D02*
X106546000Y-141049000D01*
X107345700Y-141049000D02*
X107346000Y-141049000D01*
X107346000Y-141049000D02*
X107759500Y-140635500D01*
X107759500Y-140635500D02*
X107759500Y-140088620D01*
X107759500Y-140088620D02*
X107993180Y-139854940D01*
X107993180Y-139854940D02*
X108522060Y-139854940D01*
X108522060Y-139854940D02*
X108797000Y-139580000D01*
X89146401Y-143637000D02*
X88763000Y-143253599D01*
X88763000Y-143253599D02*
X88763000Y-143243000D01*
X89154000Y-143637000D02*
X89146401Y-143637000D01*
X88762800Y-143243000D02*
X88763000Y-143243000D01*
X88763000Y-143243000D02*
X88762800Y-143243200D01*
X107654000Y-142155000D02*
X107654000Y-142159900D01*
X107654000Y-142159900D02*
X107721400Y-142227300D01*
X107654000Y-142155000D02*
X107654000Y-141766000D01*
X107654000Y-141766000D02*
X107980100Y-141439900D01*
X107980100Y-141439900D02*
X108378900Y-141439900D01*
X108378900Y-141439900D02*
X108530000Y-141591000D01*
X108530000Y-141591000D02*
X108954000Y-141591000D01*
X88125200Y-143405500D02*
X88353900Y-143634200D01*
X88353900Y-143634200D02*
X88353900Y-144720905D01*
X88353900Y-144720905D02*
X88589569Y-144956574D01*
X107346000Y-141847000D02*
X107654000Y-142155000D01*
X107654000Y-142191000D02*
X107654000Y-142155000D01*
X87962700Y-143243000D02*
X88125200Y-143405500D01*
X88125000Y-143405500D02*
X87962700Y-143243200D01*
X88125200Y-143405500D02*
X88125000Y-143405500D01*
X107346000Y-141846900D02*
X107346000Y-141847000D01*
X107345700Y-141846600D02*
X107346000Y-141846900D01*
X107746800Y-143052800D02*
X107746800Y-143574200D01*
X107746800Y-143574200D02*
X107470640Y-143850360D01*
X107470640Y-143850360D02*
X106357420Y-143850360D01*
X106357420Y-143850360D02*
X106154220Y-143647160D01*
X106154220Y-143647160D02*
X106154220Y-143038780D01*
X106154220Y-143038780D02*
X106545900Y-142647100D01*
X88763100Y-147239000D02*
X89022200Y-147239000D01*
X89022200Y-147239000D02*
X89436200Y-147653000D01*
X89436200Y-147653000D02*
X90497400Y-147653000D01*
X90497400Y-147653000D02*
X90754200Y-147396200D01*
X90754200Y-147396200D02*
X90754200Y-146618900D01*
X90754200Y-146618900D02*
X91014100Y-146359000D01*
X91014100Y-146359000D02*
X91061700Y-146359000D01*
X91061700Y-146359000D02*
X91361700Y-146059000D01*
X88762800Y-147239000D02*
X88763100Y-147239000D01*
X88763100Y-147239000D02*
X88762800Y-147238700D01*
X106545900Y-142647000D02*
X106545900Y-142647100D01*
X106545600Y-142646700D02*
X106545900Y-142647000D01*
X106546000Y-142647000D02*
X106545900Y-142647100D01*
X87399900Y-143806000D02*
X87553800Y-143652100D01*
X87553800Y-143129000D02*
X87858600Y-142824200D01*
X91957200Y-139538000D02*
X99208600Y-139538000D01*
X90302200Y-140440000D02*
X91054800Y-140440000D01*
X87553800Y-143652100D02*
X87553800Y-143129000D01*
X106946000Y-141718600D02*
X106946000Y-142247000D01*
X107345700Y-142646700D02*
X107346000Y-142647000D01*
X87858600Y-142824200D02*
X88163400Y-142824200D01*
X88163400Y-142824200D02*
X88366600Y-142621000D01*
X91054800Y-140440000D02*
X91957200Y-139538000D01*
X88470400Y-142110000D02*
X88470400Y-140983000D01*
X88366600Y-142213800D02*
X88470400Y-142110000D01*
X88366600Y-142621000D02*
X88366600Y-142213800D01*
X89124800Y-140328000D02*
X90190300Y-140328000D01*
X88470400Y-140983000D02*
X89124800Y-140328000D01*
X90190300Y-140328000D02*
X90302200Y-140440000D01*
X99208600Y-139538000D02*
X100502000Y-140831000D01*
X100502000Y-140831000D02*
X101503000Y-140831000D01*
X101503000Y-140831000D02*
X102119000Y-141447000D01*
X102119000Y-141447000D02*
X106674400Y-141447000D01*
X106674400Y-141447000D02*
X106946000Y-141718600D01*
X106946000Y-142247000D02*
X107345700Y-142646700D01*
X87399900Y-143806000D02*
X87162600Y-144043300D01*
X87399900Y-143806000D02*
X87162600Y-144043000D01*
X90632280Y-146029680D02*
X90611227Y-146008627D01*
X90611227Y-146008627D02*
X90115871Y-146008627D01*
X90115871Y-146008627D02*
X89342099Y-146782399D01*
X89342099Y-146782399D02*
X88419001Y-146782399D01*
X88419001Y-146782399D02*
X88118400Y-147083000D01*
X107346000Y-143447000D02*
X107345500Y-143447000D01*
X107020000Y-143121000D02*
X106949000Y-143050000D01*
X107020000Y-143447000D02*
X107020000Y-143121000D01*
X107345500Y-143447000D02*
X107020000Y-143447000D01*
X107345500Y-143447000D02*
X107345700Y-143446800D01*
X87962700Y-147239000D02*
X88118400Y-147083000D01*
X88118400Y-147083000D02*
X87962700Y-147238700D01*
X107345700Y-145047000D02*
X107446000Y-144946700D01*
X107446000Y-144841000D02*
X107734100Y-144552900D01*
X107446000Y-144946700D02*
X107446000Y-144841000D01*
X108003340Y-143827500D02*
X108521852Y-143827500D01*
X107734100Y-144552900D02*
X107734100Y-144096740D01*
X107734100Y-144096740D02*
X108003340Y-143827500D01*
X108521852Y-143827500D02*
X108686167Y-143663185D01*
X87350600Y-144424400D02*
X87129200Y-144424400D01*
X87962400Y-144043000D02*
X87732000Y-144043000D01*
X87129200Y-144424400D02*
X86935600Y-144618000D01*
X86935600Y-144618000D02*
X86935600Y-145122000D01*
X87208600Y-145395000D02*
X87435600Y-145395000D01*
X89151300Y-145791000D02*
X89936800Y-145006000D01*
X86935600Y-145122000D02*
X87208600Y-145395000D01*
X89936800Y-144937000D02*
X90170000Y-144704000D01*
X87732000Y-144043000D02*
X87350600Y-144424400D01*
X87435600Y-145395000D02*
X87780800Y-145740000D01*
X87780800Y-145740000D02*
X88066600Y-145740000D01*
X88066600Y-145740000D02*
X88117400Y-145791000D01*
X88117400Y-145791000D02*
X89151300Y-145791000D01*
X89936800Y-145006000D02*
X89936800Y-144937000D01*
X87962700Y-144043000D02*
X87962400Y-144043000D01*
X87962400Y-144043000D02*
X87962700Y-144043300D01*
X86926400Y-147802500D02*
X86766400Y-147642500D01*
X86766400Y-147642500D02*
X86766400Y-147027000D01*
X86766400Y-147027000D02*
X86850400Y-146943000D01*
X86850400Y-146943000D02*
X86850400Y-146519000D01*
X107346000Y-145840000D02*
X106959000Y-145454000D01*
X107346000Y-145847000D02*
X107346000Y-145840000D01*
X107027000Y-145522000D02*
X106959000Y-145454000D01*
X87162600Y-148039000D02*
X86926400Y-147802500D01*
X87162600Y-148038700D02*
X87162600Y-148038800D01*
X86926400Y-147802500D02*
X87162600Y-148038700D01*
X107345900Y-145847100D02*
X107346000Y-145847000D01*
X107345700Y-145847100D02*
X107345900Y-145847100D01*
X91963200Y-148038800D02*
X91963200Y-148310640D01*
X91963200Y-148310640D02*
X91554000Y-148719840D01*
X91554000Y-148719840D02*
X91554000Y-149454000D01*
X118542060Y-148247360D02*
X118542060Y-148234140D01*
X118542060Y-148234140D02*
X118935500Y-147840700D01*
X96172020Y-142062200D02*
X96172020Y-142232180D01*
X96172020Y-142232180D02*
X95961200Y-142443000D01*
X95961200Y-142443000D02*
X95961100Y-142443000D01*
X97706180Y-142067280D02*
X97561400Y-142212060D01*
X97561400Y-142212060D02*
X97561400Y-142443000D01*
X97561400Y-142443000D02*
X97561400Y-142443100D01*
X112857280Y-146159220D02*
X112857280Y-146558000D01*
X112857280Y-146558000D02*
X112946440Y-146647160D01*
X111346240Y-145734744D02*
X111346240Y-146647160D01*
X112857280Y-146159220D02*
X112857280Y-146124707D01*
X112857280Y-146124707D02*
X112185584Y-145453011D01*
X112185584Y-145453011D02*
X111627973Y-145453011D01*
X111627973Y-145453011D02*
X111346240Y-145734744D01*
X114942620Y-143047720D02*
X115422280Y-143047720D01*
X115422280Y-143047720D02*
X115823000Y-142647000D01*
X115823000Y-142647000D02*
X116141500Y-142647000D01*
X110147100Y-147129500D02*
X110153000Y-147135400D01*
X110153000Y-147135400D02*
X110153000Y-147548000D01*
X118935500Y-147840700D02*
X118957700Y-147840700D01*
X118957700Y-147840700D02*
X118964000Y-147847000D01*
X117868700Y-141008100D02*
X117868700Y-141062300D01*
X117868700Y-141062300D02*
X117084000Y-141847000D01*
X117084000Y-141847000D02*
X116942300Y-141847000D01*
X108369100Y-145465800D02*
X108369100Y-145270100D01*
X108369100Y-145270100D02*
X108232500Y-145133500D01*
X116941900Y-137850900D02*
X116555800Y-137464800D01*
X114909600Y-138455400D02*
X114909600Y-139083400D01*
X114909600Y-139083400D02*
X114542000Y-139451000D01*
X116555800Y-137464800D02*
X115900200Y-137464800D01*
X115900200Y-137464800D02*
X115773200Y-137591800D01*
X115773200Y-137900800D02*
X115421800Y-138252200D01*
X115773200Y-137591800D02*
X115773200Y-137900800D01*
X115421800Y-138252200D02*
X115112800Y-138252200D01*
X115112800Y-138252200D02*
X114909600Y-138455400D01*
X113834981Y-140340001D02*
X114134980Y-140640000D01*
X113745980Y-140251000D02*
X113834981Y-140340001D01*
X113744000Y-140251000D02*
X113745980Y-140251000D01*
X107345740Y-137051040D02*
X107487628Y-137051040D01*
X107487628Y-137051040D02*
X107487668Y-137051000D01*
X107487668Y-137051000D02*
X107587000Y-137051000D01*
X107587000Y-137051000D02*
X107950000Y-137414000D01*
X107950000Y-137414000D02*
X108602147Y-137414000D01*
X108602147Y-137414000D02*
X108630394Y-137385753D01*
X93491481Y-142373481D02*
X93491481Y-141707999D01*
X93561000Y-142443000D02*
X93491481Y-142373481D01*
X93491481Y-141707999D02*
X93791480Y-141408000D01*
X91963200Y-143243200D02*
X91963200Y-143037600D01*
X91963200Y-143037600D02*
X92379800Y-142621000D01*
X92379800Y-142621000D02*
X92379800Y-141195900D01*
X92379800Y-141195900D02*
X92134900Y-140951000D01*
X87947696Y-142282264D02*
X87947696Y-141858000D01*
X87962700Y-142443100D02*
X87947696Y-142428096D01*
X87947696Y-142428096D02*
X87947696Y-142282264D01*
X96520000Y-149454000D02*
X96367600Y-149301600D01*
X96367600Y-149301600D02*
X96367600Y-148445400D01*
X96367600Y-148445400D02*
X95961200Y-148039000D01*
X89455898Y-149193530D02*
X89455898Y-149617794D01*
X89562900Y-148838900D02*
X89455898Y-148945902D01*
X88409193Y-149917793D02*
X89155899Y-149917793D01*
X89455898Y-148945902D02*
X89455898Y-149193530D01*
X87962700Y-148838900D02*
X88146400Y-149022600D01*
X89155899Y-149917793D02*
X89455898Y-149617794D01*
X88146400Y-149655000D02*
X88409193Y-149917793D01*
X88146400Y-149022600D02*
X88146400Y-149655000D01*
X106545640Y-137051040D02*
X107345740Y-137051040D01*
X105308400Y-155156600D02*
X105308400Y-155498800D01*
X105308400Y-155498800D02*
X104648000Y-156159200D01*
X103886000Y-155156600D02*
X103886000Y-155295600D01*
X103886000Y-155295600D02*
X103124000Y-156057600D01*
X86362400Y-142443000D02*
X86337400Y-142418000D01*
X86283284Y-142418000D02*
X85859020Y-142418000D01*
X86337400Y-142418000D02*
X86283284Y-142418000D01*
X89562900Y-141074000D02*
X89342300Y-140853000D01*
X89562900Y-142443000D02*
X89562900Y-141074000D01*
X89562900Y-142443000D02*
X89562900Y-142443100D01*
X92785920Y-154204000D02*
X92798900Y-154191020D01*
X86868000Y-152591000D02*
X86868000Y-153529980D01*
X91998800Y-154204000D02*
X92785920Y-154204000D01*
X86614000Y-138290000D02*
X86614000Y-137451680D01*
X86614000Y-137451680D02*
X86601320Y-137439000D01*
X116941860Y-144246860D02*
X116941860Y-144733656D01*
X116931485Y-144744031D02*
X116631486Y-145044030D01*
X116941860Y-144733656D02*
X116931485Y-144744031D01*
X109639000Y-156121200D02*
X109601000Y-156159200D01*
X109639000Y-155461000D02*
X109639000Y-156121200D01*
X112146340Y-146647160D02*
X112946440Y-146647160D01*
X111214000Y-128879000D02*
X111846980Y-129511980D01*
X111214000Y-128854000D02*
X111214000Y-128879000D01*
X111846980Y-129511980D02*
X111846980Y-129585000D01*
X112946000Y-140251000D02*
X112146700Y-140251000D01*
X118618000Y-152949000D02*
X118318000Y-152649000D01*
X119034000Y-153366000D02*
X118618000Y-152949000D01*
X120129000Y-153366000D02*
X119034000Y-153366000D01*
X108929000Y-127202000D02*
X108991000Y-127140000D01*
X108204000Y-127202000D02*
X108929000Y-127202000D01*
X104990000Y-127202000D02*
X104966000Y-127178000D01*
X105728000Y-127202000D02*
X104990000Y-127202000D01*
X112713000Y-129317000D02*
X112897000Y-129317000D01*
X112521000Y-129125000D02*
X112713000Y-129317000D01*
X112521000Y-128600000D02*
X112521000Y-129125000D01*
X109969000Y-128921000D02*
X109313000Y-129577000D01*
X109969000Y-128828000D02*
X109969000Y-128921000D01*
X123597000Y-129552000D02*
X123584000Y-129565000D01*
X123597000Y-128651000D02*
X123597000Y-129552000D01*
X124282000Y-145707000D02*
X124270000Y-145720000D01*
X124282000Y-144882000D02*
X124282000Y-145707000D01*
X124308000Y-148806000D02*
X124396000Y-148895000D01*
X124308000Y-148070000D02*
X124308000Y-148806000D01*
X121691000Y-153340000D02*
X122149000Y-152883000D01*
X121450000Y-153340000D02*
X121691000Y-153340000D01*
X96418400Y-155130000D02*
X96443800Y-155156000D01*
X96418400Y-154217000D02*
X96418400Y-155130000D01*
X91706700Y-151003000D02*
X91681300Y-150978000D01*
X92317000Y-151003000D02*
X91706700Y-151003000D01*
X100889000Y-135446000D02*
X100825000Y-135382000D01*
X100889000Y-136308000D02*
X100889000Y-135446000D01*
X97548700Y-136346000D02*
X97548700Y-135484000D01*
X94373700Y-135433000D02*
X94361000Y-135420000D01*
X94373700Y-136258000D02*
X94373700Y-135433000D01*
X91440000Y-136385000D02*
X91440000Y-135674000D01*
X112146000Y-141049000D02*
X112146000Y-141847000D01*
X115342000Y-141049000D02*
X115342000Y-140251000D01*
X114542000Y-140251000D02*
X114542000Y-141049000D01*
X112946000Y-139451000D02*
X112946000Y-140251000D01*
X114542000Y-139451000D02*
X114542000Y-140251000D01*
X108793000Y-142245000D02*
X109220000Y-142672000D01*
X108246000Y-142245000D02*
X108793000Y-142245000D01*
X93560900Y-149759000D02*
X93634700Y-149833000D01*
X93560900Y-148838900D02*
X93560900Y-149759000D01*
X97561400Y-144043000D02*
X97561400Y-144043300D01*
X97561400Y-144678000D02*
X97637900Y-144754000D01*
X97561400Y-144043300D02*
X97561400Y-144678000D01*
X113744000Y-140251000D02*
X113744000Y-139451300D01*
X113744000Y-139451300D02*
X113744000Y-139451000D01*
X113744000Y-140251000D02*
X113744000Y-140251400D01*
X113744000Y-140251400D02*
X113744000Y-141049000D01*
X113744000Y-141049000D02*
X114541600Y-141049000D01*
X114541600Y-141049000D02*
X114542000Y-141049000D01*
X114542000Y-141049000D02*
X115341700Y-141049000D01*
X115341700Y-141049000D02*
X115342000Y-141049000D01*
X112946000Y-141049000D02*
X112946000Y-140251000D01*
X112946000Y-141049000D02*
X112946400Y-141049000D01*
X112946400Y-141049000D02*
X113744000Y-141049000D01*
X112946000Y-141049000D02*
X112146300Y-141049000D01*
X112146300Y-141049000D02*
X112146000Y-141049000D01*
X112146000Y-141049000D02*
X111346200Y-141049000D01*
X111346200Y-141049000D02*
X111346000Y-141049000D01*
X101841000Y-133998000D02*
X101841000Y-135141000D01*
X101067000Y-135141000D02*
X100825000Y-135382000D01*
X101841000Y-135141000D02*
X101067000Y-135141000D01*
X112946000Y-143847000D02*
X112946000Y-143447000D01*
X112946400Y-143847400D02*
X112946400Y-144246900D01*
X112946000Y-143847000D02*
X112946400Y-143847400D01*
X112146200Y-144247000D02*
X112146300Y-144246900D01*
X111346000Y-144247000D02*
X111346300Y-144247000D01*
X111346300Y-144247000D02*
X112146200Y-144247000D01*
X111346300Y-144247000D02*
X111346200Y-144246900D01*
X112946600Y-143447000D02*
X112946000Y-143447000D01*
X113744000Y-143447000D02*
X112946600Y-143447000D01*
X113744000Y-143446800D02*
X113744000Y-143447000D01*
X112946600Y-143447000D02*
X112946400Y-143446800D01*
X116142000Y-142647000D02*
X116141500Y-142647000D01*
X116141500Y-142647000D02*
X116141800Y-142646700D01*
X113744000Y-142647000D02*
X113744000Y-143446800D01*
X113743700Y-142647000D02*
X113744000Y-142647000D01*
X113743700Y-142647000D02*
X113744000Y-142646700D01*
X112946000Y-142647000D02*
X112946700Y-142647000D01*
X112946000Y-141847000D02*
X112946000Y-142647000D01*
X112946700Y-142647000D02*
X113743700Y-142647000D01*
X112946700Y-142647000D02*
X112946400Y-142646700D01*
X112146000Y-142647000D02*
X112146600Y-142647000D01*
X112146000Y-141847000D02*
X112146000Y-142647000D01*
X112946000Y-142647000D02*
X112946000Y-143447000D01*
X112146600Y-142647000D02*
X112946000Y-142647000D01*
X112146600Y-142647000D02*
X112146300Y-142646700D01*
X116942000Y-141847000D02*
X116942300Y-141847000D01*
X116942300Y-141847000D02*
X116941900Y-141846600D01*
X115342000Y-141847000D02*
X115341300Y-141847000D01*
X115342000Y-141049000D02*
X115342000Y-141847000D01*
X115341300Y-141847000D02*
X115341700Y-141846600D01*
X114542000Y-141847000D02*
X114542000Y-141448000D01*
X115341300Y-141847000D02*
X114542000Y-141847000D01*
X114542000Y-141448000D02*
X114542000Y-141049000D01*
X114541600Y-141448400D02*
X114541600Y-141846600D01*
X114542000Y-141448000D02*
X114541600Y-141448400D01*
X112946000Y-141847000D02*
X112946000Y-141448000D01*
X112946000Y-141448000D02*
X112946000Y-141049000D01*
X112946400Y-141448400D02*
X112946400Y-141846600D01*
X112946000Y-141448000D02*
X112946400Y-141448400D01*
X112146000Y-141847000D02*
X112146700Y-141847000D01*
X112146700Y-141847000D02*
X112946000Y-141847000D01*
X112146700Y-141847000D02*
X112146300Y-141846600D01*
X114542000Y-140251000D02*
X115341300Y-140251000D01*
X115341300Y-140251000D02*
X115342000Y-140251000D01*
X115341300Y-140251000D02*
X115341700Y-140251400D01*
X114542000Y-140251000D02*
X114541200Y-140251000D01*
X114541200Y-140251000D02*
X113744000Y-140251000D01*
X114541200Y-140251000D02*
X114541600Y-140251400D01*
X112946000Y-140251000D02*
X112946800Y-140251000D01*
X112946800Y-140251000D02*
X113744000Y-140251000D01*
X112946800Y-140251000D02*
X112946400Y-140251400D01*
X112146000Y-140251000D02*
X112146000Y-141049000D01*
X112146700Y-140251000D02*
X112146000Y-140251000D01*
X112146700Y-140251000D02*
X112146300Y-140251400D01*
X115342000Y-139451000D02*
X115341400Y-139451000D01*
X115342000Y-140251000D02*
X115342000Y-139451000D01*
X115341400Y-139451000D02*
X114542000Y-139451000D01*
X115341400Y-139451000D02*
X115341700Y-139451300D01*
X114542000Y-139451000D02*
X114541300Y-139451000D01*
X114541300Y-139451000D02*
X113744000Y-139451000D01*
X114541300Y-139451000D02*
X114541600Y-139451300D01*
X112946700Y-139451000D02*
X112946000Y-139451000D01*
X113744000Y-139451000D02*
X112946700Y-139451000D01*
X112946700Y-139451000D02*
X112946400Y-139451300D01*
X112946000Y-139451000D02*
X112946000Y-139051000D01*
X112946000Y-139051000D02*
X112946000Y-138651000D01*
X112946400Y-139050600D02*
X112946400Y-138651200D01*
X112946000Y-139051000D02*
X112946400Y-139050600D01*
X116942000Y-137851000D02*
X116941900Y-137850900D01*
X116941900Y-137850900D02*
X116941900Y-137851100D01*
X119342200Y-145574700D02*
X119342200Y-145847100D01*
X119342000Y-145574500D02*
X119342200Y-145574700D01*
X108146000Y-145447000D02*
X108146000Y-145847000D01*
X108145800Y-145447200D02*
X108145800Y-145847100D01*
X108146000Y-145447000D02*
X108145800Y-145447200D01*
X119342000Y-145574500D02*
X119342000Y-145310700D01*
X119342000Y-145310700D02*
X119342000Y-145047000D01*
X119342200Y-145310500D02*
X119342200Y-145047000D01*
X119342000Y-145310700D02*
X119342200Y-145310500D01*
X108146000Y-145047000D02*
X108146000Y-145447000D01*
X108232500Y-145133500D02*
X108146000Y-145047000D01*
X108232300Y-145133500D02*
X108145800Y-145047000D01*
X108232500Y-145133500D02*
X108232300Y-145133500D01*
X108196000Y-142596500D02*
X108145800Y-142646700D01*
X108146000Y-142647000D02*
X108196000Y-142596500D01*
X108246000Y-142546000D02*
X108246000Y-142245000D01*
X108196000Y-142596500D02*
X108246000Y-142546000D01*
X108246000Y-141947000D02*
X108146000Y-141847000D01*
X108246000Y-142245000D02*
X108246000Y-141947000D01*
X108145800Y-141846800D02*
X108145800Y-141846600D01*
X108146000Y-141847000D02*
X108145800Y-141846800D01*
X108145800Y-139451200D02*
X108145800Y-139451300D01*
X108146000Y-139451000D02*
X108145800Y-139451200D01*
X108254000Y-138760000D02*
X108146000Y-138651000D01*
X108254000Y-139309000D02*
X108254000Y-138760000D01*
X108246000Y-139317000D02*
X108254000Y-139309000D01*
X108246000Y-139351000D02*
X108246000Y-139317000D01*
X108146000Y-139451000D02*
X108246000Y-139351000D01*
X108434000Y-138651000D02*
X108632000Y-138849000D01*
X108146000Y-138651000D02*
X108434000Y-138651000D01*
X108146000Y-138651000D02*
X108145800Y-138651200D01*
X118542500Y-148247000D02*
X118542100Y-148247400D01*
X118542000Y-148247000D02*
X118542000Y-147447000D01*
X118542500Y-148247000D02*
X118542000Y-148247000D01*
X118542100Y-147447100D02*
X118542100Y-147447300D01*
X118542000Y-147447000D02*
X118542100Y-147447100D01*
X110446000Y-147548000D02*
X110496000Y-147497500D01*
X110153000Y-147548000D02*
X110446000Y-147548000D01*
X110496000Y-147497500D02*
X110546000Y-147447000D01*
X110546100Y-147447400D02*
X110546100Y-147447300D01*
X110496000Y-147497500D02*
X110546100Y-147447400D01*
X109746000Y-147447000D02*
X109796000Y-147497500D01*
X109846000Y-147548000D02*
X110153000Y-147548000D01*
X109796000Y-147497500D02*
X109846000Y-147548000D01*
X109746000Y-147447500D02*
X109746000Y-147447300D01*
X109796000Y-147497500D02*
X109746000Y-147447500D01*
X118542000Y-147447000D02*
X118542000Y-147047000D01*
X119342000Y-146102000D02*
X119342000Y-145574500D01*
X118797000Y-146647000D02*
X119342000Y-146102000D01*
X118542000Y-146647000D02*
X118797000Y-146647000D01*
X118542000Y-147047000D02*
X118542000Y-146647000D01*
X118542100Y-147046900D02*
X118542100Y-146647200D01*
X118542000Y-147047000D02*
X118542100Y-147046900D01*
X112146100Y-146647000D02*
X112146300Y-146647200D01*
X112146000Y-146647000D02*
X112146100Y-146647000D01*
X111346000Y-146647000D02*
X111346400Y-146647000D01*
X111346400Y-146647000D02*
X111346200Y-146647200D01*
X86362500Y-149375000D02*
X86334600Y-149403000D01*
X86362500Y-148839000D02*
X86362500Y-149375000D01*
X86362500Y-148839000D02*
X86362500Y-148838900D01*
X86362500Y-142443000D02*
X86362400Y-142443000D01*
X86362400Y-142443000D02*
X86362500Y-142443100D01*
X93560900Y-148039000D02*
X93560900Y-148838900D01*
X93560900Y-148039000D02*
X93560900Y-148038800D01*
X93560900Y-142443000D02*
X93561000Y-142443000D01*
X93561000Y-142443000D02*
X93560900Y-142443100D01*
X94684700Y-149357000D02*
X94684700Y-149639000D01*
X94361000Y-149033000D02*
X94684700Y-149357000D01*
X94361000Y-148839000D02*
X94361000Y-149033000D01*
X94361000Y-148839000D02*
X94361000Y-148838900D01*
X95161300Y-148039000D02*
X95161100Y-148039000D01*
X95161300Y-148039000D02*
X95161100Y-148038800D01*
X95161100Y-143243000D02*
X95161100Y-142443100D01*
X95161100Y-143243000D02*
X95161100Y-143243200D01*
X95961200Y-148039000D02*
X95161300Y-148039000D01*
X95961200Y-148039000D02*
X95961200Y-148038800D01*
X95161100Y-142443000D02*
X95961100Y-142443000D01*
X95161100Y-142443100D02*
X95161100Y-142443000D01*
X95961100Y-142443000D02*
X95961200Y-142443100D01*
X97561400Y-149256000D02*
X97616800Y-149312000D01*
X97561400Y-148839000D02*
X97561400Y-149256000D01*
X97561400Y-148839000D02*
X97561400Y-148838900D01*
X98361500Y-148839000D02*
X98361600Y-148839000D01*
X99191500Y-148839000D02*
X99300900Y-148729000D01*
X98361600Y-148839000D02*
X99191500Y-148839000D01*
X98361600Y-148839000D02*
X98361500Y-148838900D01*
X100482000Y-154965000D02*
X100368000Y-155080000D01*
X100482000Y-154217000D02*
X100482000Y-154965000D01*
X112946000Y-144247000D02*
X112946000Y-143847000D01*
X112146200Y-144247000D02*
X112946000Y-144247000D01*
X109537400Y-155461000D02*
X109639000Y-155461000D01*
X91107260Y-141302740D02*
X91107260Y-141722160D01*
X91107260Y-141722160D02*
X91163100Y-141778000D01*
X91163100Y-141778000D02*
X91163100Y-142443100D01*
X108145800Y-148247400D02*
X108559600Y-147833600D01*
X109289402Y-145560598D02*
X109628001Y-145221999D01*
X108559600Y-147833600D02*
X108559600Y-146383937D01*
X108559600Y-146383937D02*
X109289402Y-145654135D01*
X109289402Y-145654135D02*
X109289402Y-145560598D01*
X109628001Y-145221999D02*
X109928000Y-144922000D01*
X108945900Y-148247400D02*
X108945900Y-147921100D01*
X108945900Y-147921100D02*
X109347000Y-147520000D01*
X107772200Y-137744200D02*
X107467400Y-137439400D01*
X110208060Y-139538060D02*
X108922200Y-138252200D01*
X109347000Y-147520000D02*
X109347000Y-146532600D01*
X110208060Y-144390060D02*
X110208060Y-139538060D01*
X109347000Y-146532600D02*
X109599823Y-146279777D01*
X109599823Y-146279777D02*
X110036695Y-146279777D01*
X110036695Y-146279777D02*
X110367777Y-145948695D01*
X102910600Y-137439400D02*
X102043000Y-138307000D01*
X110367777Y-145948695D02*
X110367777Y-145791223D01*
X110367777Y-145791223D02*
X110367798Y-145791202D01*
X102043000Y-138307000D02*
X101697000Y-138307000D01*
X101422000Y-138582000D02*
X89359500Y-138582000D01*
X110452000Y-144634000D02*
X110208060Y-144390060D01*
X110367798Y-145791202D02*
X110367798Y-145471202D01*
X107975400Y-138252200D02*
X107772200Y-138049000D01*
X110367798Y-145471202D02*
X110452000Y-145387000D01*
X110452000Y-145387000D02*
X110452000Y-144634000D01*
X108922200Y-138252200D02*
X107975400Y-138252200D01*
X107772200Y-138049000D02*
X107772200Y-137744200D01*
X86360700Y-141494000D02*
X86360700Y-141885100D01*
X107467400Y-137439400D02*
X102910600Y-137439400D01*
X86766400Y-142290800D02*
X86766400Y-142839100D01*
X101697000Y-138307000D02*
X101422000Y-138582000D01*
X89359500Y-138582000D02*
X86891400Y-141051000D01*
X86891400Y-141051000D02*
X86803800Y-141051000D01*
X86803800Y-141051000D02*
X86360700Y-141494000D01*
X86360700Y-141885100D02*
X86766400Y-142290800D01*
X86766400Y-142839100D02*
X86418900Y-143186600D01*
X86418900Y-143186600D02*
X86418900Y-143186800D01*
X86418900Y-143186800D02*
X86362500Y-143243200D01*
X95580200Y-146799300D02*
X95580200Y-146839900D01*
X95580200Y-146839900D02*
X95181100Y-147239000D01*
X95181100Y-147239000D02*
X95161400Y-147239000D01*
X108772000Y-150346000D02*
X108615000Y-150346000D01*
X108946000Y-150172000D02*
X108772000Y-150346000D01*
X108946000Y-149848000D02*
X108946000Y-150172000D01*
X95161100Y-147239000D02*
X95161400Y-147239000D01*
X95161400Y-147239000D02*
X95161100Y-147238700D01*
X108945900Y-149847900D02*
X108946000Y-149848000D01*
X108945900Y-149847600D02*
X108945900Y-149847900D01*
X89204800Y-142887700D02*
X89214200Y-142887700D01*
X89214200Y-142887700D02*
X89562900Y-143236400D01*
X89562900Y-143236400D02*
X89562900Y-143243200D01*
X106545600Y-139451300D02*
X106545700Y-139451300D01*
X106545700Y-139451300D02*
X106546000Y-139451000D01*
X106546000Y-139451000D02*
X106546000Y-139248500D01*
X106546000Y-139248500D02*
X106146600Y-138849100D01*
X106146600Y-138849100D02*
X106146600Y-138531600D01*
X106146600Y-138531600D02*
X105867200Y-138252200D01*
X105867200Y-138252200D02*
X102521800Y-138252200D01*
X102521800Y-138252200D02*
X102167000Y-138607000D01*
X102167000Y-138607000D02*
X101822000Y-138607000D01*
X101822000Y-138607000D02*
X101002000Y-139426000D01*
X101002000Y-139426000D02*
X101002000Y-139704000D01*
X107346000Y-139451000D02*
X106942060Y-139854940D01*
X106942060Y-139854940D02*
X106352340Y-139854940D01*
X106352340Y-139854940D02*
X106170000Y-139672600D01*
X106170000Y-139672600D02*
X106170000Y-139291600D01*
X106170000Y-139291600D02*
X105943400Y-139065000D01*
X105943400Y-139065000D02*
X102197000Y-139065000D01*
X102197000Y-139065000D02*
X101732000Y-139530000D01*
X89026700Y-145491000D02*
X88241600Y-145491000D01*
X87945716Y-145195116D02*
X87859546Y-145195116D01*
X87859546Y-145195116D02*
X87559547Y-144895117D01*
X89579800Y-144060000D02*
X89596700Y-144077000D01*
X88241600Y-145491000D02*
X87945716Y-145195116D01*
X89596700Y-144921000D02*
X89026700Y-145491000D01*
X89596700Y-144077000D02*
X89596700Y-144921000D01*
X89562900Y-144043000D02*
X89579800Y-144060000D01*
X89579600Y-144060000D02*
X89562900Y-144043300D01*
X89579800Y-144060000D02*
X89579600Y-144060000D01*
X107746800Y-139052300D02*
X107746800Y-139646660D01*
X107746800Y-139646660D02*
X107346000Y-140047460D01*
X107346000Y-140047460D02*
X107346000Y-140251100D01*
X107346000Y-140251100D02*
X107345700Y-140251400D01*
X88762800Y-148039000D02*
X88649200Y-148152400D01*
X88649200Y-148152400D02*
X88762800Y-148038800D01*
X88649200Y-148152400D02*
X88365100Y-148436000D01*
X91163100Y-148612900D02*
X91163100Y-148839000D01*
X91564460Y-148211540D02*
X91163100Y-148612900D01*
X91564460Y-147642580D02*
X91564460Y-148211540D01*
X106546000Y-141847000D02*
X106328500Y-142064000D01*
X104058000Y-142713000D02*
X104058000Y-143137000D01*
X104489000Y-142281000D02*
X104058000Y-142713000D01*
X106111000Y-142281000D02*
X104489000Y-142281000D01*
X106328500Y-142064000D02*
X106111000Y-142281000D01*
X106545600Y-141846900D02*
X106545600Y-141846600D01*
X106328500Y-142064000D02*
X106545600Y-141846900D01*
X90199200Y-143879500D02*
X89966800Y-143647100D01*
X99084300Y-139838000D02*
X100378000Y-141131000D01*
X89966800Y-143647100D02*
X89966800Y-141716600D01*
X89966800Y-141716600D02*
X90943400Y-140740000D01*
X103815000Y-143662000D02*
X104451000Y-143662000D01*
X101284000Y-141131000D02*
X103815000Y-143662000D01*
X100378000Y-141131000D02*
X101284000Y-141131000D01*
X91179000Y-140740000D02*
X92081500Y-139838000D01*
X104451000Y-143662000D02*
X104583000Y-143530000D01*
X90943400Y-140740000D02*
X91179000Y-140740000D01*
X92081500Y-139838000D02*
X99084300Y-139838000D01*
X104583000Y-143530000D02*
X104583000Y-143285440D01*
X105156000Y-143075660D02*
X105328720Y-143248380D01*
X104583000Y-143285440D02*
X104792780Y-143075660D01*
X104792780Y-143075660D02*
X105156000Y-143075660D01*
X105328720Y-143248380D02*
X105328720Y-143619220D01*
X105328720Y-143619220D02*
X105537000Y-143827500D01*
X105537000Y-143827500D02*
X105831640Y-143827500D01*
X105831640Y-143827500D02*
X106251140Y-144247000D01*
X106251140Y-144247000D02*
X106545500Y-144247000D01*
X106545500Y-144247000D02*
X106546000Y-144247000D01*
X106545500Y-144247000D02*
X106545600Y-144246900D01*
X90199200Y-143879500D02*
X90363000Y-144043300D01*
X90363000Y-144043000D02*
X90199200Y-143879500D01*
X107020000Y-144579700D02*
X107020000Y-144247000D01*
X107020000Y-144247000D02*
X107345600Y-144247000D01*
X106946700Y-144653000D02*
X107020000Y-144579700D01*
X107346000Y-144247000D02*
X107345600Y-144247000D01*
X107345600Y-144247000D02*
X107345700Y-144246900D01*
X91963300Y-144043200D02*
X91963300Y-144043100D01*
X91963200Y-144043300D02*
X91963300Y-144043200D01*
X91963200Y-144043000D02*
X91963300Y-144043100D01*
X92103300Y-144183000D02*
X92103300Y-144758000D01*
X91963300Y-144043100D02*
X92103300Y-144183000D01*
X91163100Y-144043300D02*
X91163100Y-143766000D01*
X91163100Y-143766000D02*
X91605900Y-143323200D01*
X91605900Y-143323200D02*
X91605900Y-140738000D01*
X91605900Y-140738000D02*
X92205700Y-140138000D01*
X92205700Y-140138000D02*
X98960000Y-140138000D01*
X98960000Y-140138000D02*
X100253000Y-141431000D01*
X100253000Y-141431000D02*
X101160000Y-141431000D01*
X101160000Y-141431000D02*
X103690000Y-143962000D01*
X103690000Y-143962000D02*
X104575000Y-143962000D01*
X104575000Y-143962000D02*
X104696800Y-143840200D01*
X104696800Y-143840200D02*
X105092500Y-143840200D01*
X105092500Y-143840200D02*
X105361000Y-144108700D01*
X105361000Y-144108700D02*
X105361000Y-144413500D01*
X105361000Y-144413500D02*
X105594500Y-144647000D01*
X105594500Y-144647000D02*
X106146000Y-144647000D01*
X106146000Y-144647000D02*
X106545800Y-145046800D01*
X106545600Y-145047000D02*
X106545800Y-145046800D01*
X106545800Y-145046800D02*
X106546000Y-145047000D01*
X90529400Y-143409500D02*
X90754200Y-143634300D01*
X90754200Y-143634300D02*
X90754200Y-144170400D01*
X91567000Y-143916400D02*
X91821000Y-143662400D01*
X91567000Y-144195800D02*
X91567000Y-143916400D01*
X90754200Y-144170400D02*
X91008200Y-144424400D01*
X91338400Y-144424400D02*
X91567000Y-144195800D01*
X93165000Y-141278000D02*
X93682100Y-140761000D01*
X93165000Y-142572400D02*
X93165000Y-141278000D01*
X91008200Y-144424400D02*
X91338400Y-144424400D01*
X92027600Y-143662400D02*
X92362000Y-143328000D01*
X91821000Y-143662400D02*
X92027600Y-143662400D01*
X92362000Y-143328000D02*
X92362000Y-143057900D01*
X92362000Y-143057900D02*
X92583000Y-142836900D01*
X92900500Y-142836900D02*
X93165000Y-142572400D01*
X92583000Y-142836900D02*
X92900500Y-142836900D01*
X93682100Y-140761000D02*
X99158400Y-140761000D01*
X99158400Y-140761000D02*
X100129000Y-141731000D01*
X100129000Y-141731000D02*
X101036000Y-141731000D01*
X101036000Y-141731000D02*
X103566000Y-144262000D01*
X103566000Y-144262000D02*
X104446000Y-144262000D01*
X104446000Y-144262000D02*
X104846000Y-144662000D01*
X104846000Y-144662000D02*
X105088800Y-144662000D01*
X105088800Y-144662000D02*
X105321100Y-144894300D01*
X105321100Y-144894300D02*
X105321100Y-145173700D01*
X105321100Y-145173700D02*
X105603400Y-145456000D01*
X105603400Y-145456000D02*
X106154000Y-145456000D01*
X106154000Y-145456000D02*
X106451200Y-145752400D01*
X90363000Y-143243000D02*
X90529400Y-143409500D01*
X90529300Y-143409500D02*
X90363000Y-143243200D01*
X90529400Y-143409500D02*
X90529300Y-143409500D01*
X106451100Y-145752500D02*
X106451200Y-145752400D01*
X106451100Y-145752600D02*
X106451100Y-145752500D01*
X106545600Y-145847100D02*
X106451100Y-145752600D01*
X106451200Y-145752400D02*
X106546000Y-145847000D01*
X109347000Y-149440900D02*
X109278100Y-149372000D01*
X109278100Y-149372000D02*
X108946000Y-149372000D01*
X108946000Y-149372000D02*
X108946000Y-149210000D01*
X94361000Y-144043000D02*
X94361000Y-144043300D01*
X95029200Y-144851000D02*
X95329200Y-145151000D01*
X94361000Y-144183000D02*
X95029200Y-144851000D01*
X94361000Y-144043300D02*
X94361000Y-144183000D01*
X108946000Y-149048000D02*
X108946000Y-149210000D01*
X108945900Y-149209900D02*
X108945900Y-149047500D01*
X108946000Y-149210000D02*
X108945900Y-149209900D01*
X103679000Y-151914000D02*
X103454000Y-151689000D01*
X107252000Y-151914000D02*
X103679000Y-151914000D01*
X108090000Y-151076000D02*
X107252000Y-151914000D01*
X108090000Y-149903000D02*
X108090000Y-151076000D01*
X108146000Y-149848000D02*
X108090000Y-149903000D01*
X108146000Y-149847800D02*
X108146000Y-149848000D01*
X108145800Y-149847600D02*
X108146000Y-149847800D01*
X93560900Y-144043300D02*
X93561000Y-144043200D01*
X93560900Y-144043000D02*
X93561000Y-144043200D01*
X94741700Y-145224000D02*
X94741700Y-146159000D01*
X93561000Y-144043200D02*
X94741700Y-145224000D01*
X106464400Y-149453600D02*
X106546000Y-149372000D01*
X106146600Y-149453600D02*
X106464400Y-149453600D01*
X106546000Y-149372000D02*
X106546000Y-149173400D01*
X98361500Y-143243000D02*
X98361700Y-143243000D01*
X100672000Y-144980000D02*
X100972000Y-145280000D01*
X98935300Y-143243000D02*
X100672000Y-144980000D01*
X98361700Y-143243000D02*
X98935300Y-143243000D01*
X98361700Y-143243000D02*
X98361500Y-143243200D01*
X106545600Y-149173000D02*
X106546000Y-149173400D01*
X106545600Y-149047500D02*
X106545600Y-149173000D01*
X106546000Y-149048000D02*
X106546000Y-149173400D01*
X103775000Y-149739000D02*
X103475000Y-149439000D01*
X103883000Y-149848000D02*
X103775000Y-149739000D01*
X104945000Y-149848000D02*
X103883000Y-149848000D01*
X98361500Y-144043000D02*
X98361800Y-144043000D01*
X100266000Y-145513000D02*
X100266000Y-146059000D01*
X98795500Y-144043000D02*
X100266000Y-145513000D01*
X98361800Y-144043000D02*
X98795500Y-144043000D01*
X98361800Y-144043000D02*
X98361500Y-144043300D01*
X104945400Y-149847600D02*
X104945000Y-149848000D01*
X98416700Y-147183500D02*
X98361500Y-147238700D01*
X98361500Y-147239000D02*
X98416700Y-147183500D01*
X104712000Y-148014000D02*
X104945000Y-148247000D01*
X100030000Y-148014000D02*
X104712000Y-148014000D01*
X99144100Y-147128000D02*
X100030000Y-148014000D01*
X98471900Y-147128000D02*
X99144100Y-147128000D01*
X98416700Y-147183500D02*
X98471900Y-147128000D01*
X104945400Y-148247400D02*
X104945000Y-148247000D01*
X98036380Y-146733260D02*
X98036380Y-146800720D01*
X98036380Y-146800720D02*
X97598100Y-147239000D01*
X97598100Y-147239000D02*
X97561700Y-147239000D01*
X106146600Y-148640800D02*
X106078800Y-148573000D01*
X106078800Y-148573000D02*
X105746000Y-148573000D01*
X105746000Y-148573000D02*
X105746000Y-148247400D01*
X97561400Y-147239000D02*
X97561700Y-147239000D01*
X97561700Y-147239000D02*
X97561400Y-147238700D01*
X105745500Y-148247400D02*
X105746000Y-148247400D01*
X105746000Y-148247000D02*
X105746000Y-148247400D01*
X97648700Y-148126000D02*
X97803520Y-148126000D01*
X97803520Y-148126000D02*
X98135520Y-148458000D01*
X98135520Y-148458000D02*
X98655700Y-148458000D01*
X106146600Y-147048300D02*
X105745500Y-146647200D01*
X98655700Y-148458000D02*
X98937500Y-148176000D01*
X98937500Y-148176000D02*
X99490200Y-148176000D01*
X99490200Y-148176000D02*
X99628200Y-148314000D01*
X99628200Y-148314000D02*
X104000000Y-148314000D01*
X104000000Y-148314000D02*
X104326000Y-148641000D01*
X104326000Y-148641000D02*
X105131000Y-148641000D01*
X105131000Y-148641000D02*
X105334000Y-148438000D01*
X105334000Y-148438000D02*
X105334000Y-148031000D01*
X105334000Y-148031000D02*
X105518000Y-147847000D01*
X105518000Y-147847000D02*
X105924400Y-147847000D01*
X105924400Y-147847000D02*
X106146600Y-147624800D01*
X106146600Y-147624800D02*
X106146600Y-147048300D01*
X97561400Y-148039000D02*
X97648700Y-148126000D01*
X97648600Y-148126000D02*
X97561400Y-148038800D01*
X97648700Y-148126000D02*
X97648600Y-148126000D01*
X96761200Y-143243100D02*
X96349641Y-143654573D01*
X95580200Y-143738600D02*
X95664227Y-143654573D01*
X95664227Y-143654573D02*
X96349641Y-143654573D01*
X95580200Y-144195800D02*
X95580200Y-143738600D01*
X95636200Y-144251800D02*
X95580200Y-144195800D01*
X95636200Y-144264500D02*
X95636200Y-144251800D01*
X104593000Y-146995000D02*
X105293000Y-146995000D01*
X95636200Y-144264500D02*
X96512600Y-145140900D01*
X100603000Y-146889000D02*
X100979000Y-146512000D01*
X96512600Y-145140900D02*
X96512600Y-145220000D01*
X96512600Y-145220000D02*
X97172200Y-145880000D01*
X97172200Y-145880000D02*
X98323300Y-145880000D01*
X98323300Y-145880000D02*
X98972000Y-146528000D01*
X98972000Y-146528000D02*
X99392700Y-146528000D01*
X99392700Y-146528000D02*
X99753200Y-146889000D01*
X99753200Y-146889000D02*
X100603000Y-146889000D01*
X100979000Y-146512000D02*
X104110000Y-146512000D01*
X104110000Y-146512000D02*
X104593000Y-146995000D01*
X105293000Y-146995000D02*
X105745900Y-147446900D01*
X105745500Y-147447300D02*
X105745900Y-147446900D01*
X105745900Y-147446900D02*
X105746000Y-147447000D01*
X96761300Y-143243200D02*
X96761200Y-143243100D01*
X96761300Y-143243000D02*
X96761200Y-143243100D01*
X101618000Y-147049000D02*
X101194000Y-147049000D01*
X101842000Y-146825000D02*
X101618000Y-147049000D01*
X103999000Y-146825000D02*
X101842000Y-146825000D01*
X104621000Y-147447000D02*
X103999000Y-146825000D01*
X104945000Y-147447000D02*
X104621000Y-147447000D01*
X96761300Y-144043000D02*
X96911900Y-144193900D01*
X96911900Y-144193900D02*
X96761300Y-144043300D01*
X99219300Y-145403000D02*
X99519300Y-145703000D01*
X99095600Y-145280000D02*
X99219300Y-145403000D01*
X97420800Y-145280000D02*
X99095600Y-145280000D01*
X97112600Y-144971000D02*
X97420800Y-145280000D01*
X97112600Y-144395000D02*
X97112600Y-144971000D01*
X96911900Y-144193900D02*
X97112600Y-144395000D01*
X104945300Y-147447300D02*
X104945000Y-147447000D01*
X104945400Y-147447300D02*
X104945300Y-147447300D01*
X97955100Y-147637500D02*
X97159800Y-147637500D01*
X97159800Y-147637500D02*
X96761300Y-147239000D01*
X101439000Y-148909000D02*
X101014000Y-148909000D01*
X101657000Y-148691000D02*
X101439000Y-148909000D01*
X103022000Y-148691000D02*
X101657000Y-148691000D01*
X103099000Y-148614000D02*
X103022000Y-148691000D01*
X103851000Y-148614000D02*
X103099000Y-148614000D01*
X104284000Y-149048000D02*
X103851000Y-148614000D01*
X104945000Y-149048000D02*
X104284000Y-149048000D01*
X104945000Y-149047900D02*
X104945000Y-149048000D01*
X104945400Y-149047500D02*
X104945000Y-149047900D01*
X96761300Y-147238700D02*
X96761300Y-147239000D01*
X105745900Y-149848100D02*
X105388000Y-150205000D01*
X105388000Y-150205000D02*
X101687000Y-150205000D01*
X101217000Y-149735000D02*
X100748000Y-149735000D01*
X100748000Y-149735000D02*
X100327000Y-149315000D01*
X101687000Y-150205000D02*
X101217000Y-149735000D01*
X100327000Y-149315000D02*
X98327040Y-149315000D01*
X98327040Y-149315000D02*
X97967800Y-148955760D01*
X97967800Y-148955760D02*
X97967800Y-148694140D01*
X97967800Y-148694140D02*
X97703640Y-148429980D01*
X97703640Y-148429980D02*
X97152280Y-148429980D01*
X97152280Y-148429980D02*
X96761300Y-148039000D01*
X96761300Y-148039000D02*
X96761300Y-148038800D01*
X105745900Y-149848000D02*
X105745900Y-149848100D01*
X105745500Y-149847600D02*
X105745900Y-149848000D01*
X105746000Y-149848000D02*
X105745900Y-149848100D01*
X95961200Y-144043000D02*
X96273700Y-144355700D01*
X96273600Y-144355700D02*
X95961200Y-144043300D01*
X96273700Y-144355700D02*
X96273600Y-144355700D01*
X104669000Y-146647000D02*
X104945000Y-146647000D01*
X104234000Y-146212000D02*
X104669000Y-146647000D01*
X100855000Y-146212000D02*
X104234000Y-146212000D01*
X100478000Y-146589000D02*
X100855000Y-146212000D01*
X99877400Y-146589000D02*
X100478000Y-146589000D01*
X99516900Y-146228000D02*
X99877400Y-146589000D01*
X99096200Y-146228000D02*
X99516900Y-146228000D01*
X98447600Y-145580000D02*
X99096200Y-146228000D01*
X97296500Y-145580000D02*
X98447600Y-145580000D01*
X96812600Y-145096000D02*
X97296500Y-145580000D01*
X96812600Y-144895000D02*
X96812600Y-145096000D01*
X96273700Y-144355700D02*
X96812600Y-144895000D01*
X104945200Y-146647200D02*
X104945000Y-146647000D01*
X104945400Y-146647200D02*
X104945200Y-146647200D01*
X97132140Y-146679920D02*
X96520280Y-146679920D01*
X96520280Y-146679920D02*
X96228200Y-146972000D01*
X102921000Y-149216000D02*
X102437000Y-149216000D01*
X103223000Y-148914000D02*
X102921000Y-149216000D01*
X103727000Y-148914000D02*
X103223000Y-148914000D01*
X104202000Y-149390000D02*
X103727000Y-148914000D01*
X105403000Y-149390000D02*
X104202000Y-149390000D01*
X105746000Y-149048000D02*
X105403000Y-149390000D01*
X95961200Y-147239000D02*
X96228200Y-146972000D01*
X96227900Y-146972000D02*
X95961200Y-147238700D01*
X96228200Y-146972000D02*
X96227900Y-146972000D01*
X105745500Y-149047500D02*
X105746000Y-149048000D01*
X90817000Y-150403000D02*
X90817000Y-151003000D01*
X89966800Y-149552800D02*
X90817000Y-150403000D01*
X89966800Y-148435200D02*
X89966800Y-149552800D01*
X90363000Y-148038800D02*
X90363000Y-148039000D01*
X90363000Y-148039000D02*
X89966800Y-148435200D01*
X92126200Y-146814000D02*
X92054300Y-146886000D01*
X92180400Y-146814000D02*
X92126200Y-146814000D01*
X100207000Y-143755000D02*
X99906700Y-143455000D01*
X100441000Y-143755000D02*
X100207000Y-143755000D01*
X102298000Y-145612000D02*
X100441000Y-143755000D01*
X104483000Y-145612000D02*
X102298000Y-145612000D01*
X104718000Y-145847000D02*
X104483000Y-145612000D01*
X104945000Y-145847000D02*
X104718000Y-145847000D01*
X104945300Y-145847000D02*
X104945400Y-145847100D01*
X104945000Y-145847000D02*
X104945300Y-145847000D01*
X91963200Y-146977100D02*
X91963200Y-147238700D01*
X92054300Y-146886000D02*
X91963200Y-146977100D01*
X91325700Y-146784060D02*
X91163100Y-146946660D01*
X91163100Y-146946660D02*
X91163100Y-147238700D01*
X91325700Y-146784060D02*
X91402640Y-146861000D01*
X91402640Y-146861000D02*
X91431000Y-146861000D01*
X105745400Y-145847000D02*
X105421000Y-145847000D01*
X105421000Y-145847000D02*
X105031000Y-145457000D01*
X105031000Y-145457000D02*
X104840000Y-145457000D01*
X104840000Y-145457000D02*
X104571800Y-145188800D01*
X104571800Y-145188800D02*
X104571800Y-144811800D01*
X104571800Y-144811800D02*
X104322000Y-144562000D01*
X104322000Y-144562000D02*
X103280000Y-144562000D01*
X102219000Y-143501000D02*
X101990000Y-143501000D01*
X103280000Y-144562000D02*
X102219000Y-143501000D01*
X101990000Y-143501000D02*
X101690000Y-143201000D01*
X105746000Y-145847000D02*
X105745400Y-145847000D01*
X105745400Y-145847000D02*
X105745500Y-145847100D01*
X120142000Y-136888000D02*
X119748300Y-136494300D01*
X119748300Y-136494300D02*
X119748300Y-132103680D01*
X119748300Y-132103680D02*
X121433981Y-130417999D01*
X121433981Y-130417999D02*
X121733980Y-130118000D01*
X120142000Y-137051000D02*
X120142000Y-136888000D01*
X120142300Y-136888300D02*
X120142300Y-137051000D01*
X120142000Y-136888000D02*
X120142300Y-136888300D01*
X121348500Y-133451600D02*
X121343000Y-133457100D01*
X121343000Y-133457100D02*
X121343000Y-136651000D01*
X121343000Y-136651000D02*
X121102400Y-136891000D01*
X120942000Y-137051000D02*
X121102400Y-136891000D01*
X121102400Y-136891000D02*
X120942400Y-137051000D01*
X123113800Y-135610600D02*
X122875040Y-135849360D01*
X122875040Y-135849360D02*
X122334640Y-135849360D01*
X122334640Y-135849360D02*
X122148600Y-136035400D01*
X122148600Y-136035400D02*
X122148600Y-136644900D01*
X122148600Y-136644900D02*
X121904500Y-136889000D01*
X121904500Y-136889000D02*
X121742500Y-137051000D01*
X121742000Y-137051000D02*
X121904500Y-136889000D01*
X122543000Y-137051000D02*
X122824000Y-136769500D01*
X123257000Y-136488000D02*
X123557000Y-136188000D01*
X123105000Y-136488000D02*
X123257000Y-136488000D01*
X122824000Y-136769500D02*
X123105000Y-136488000D01*
X122542600Y-137050900D02*
X122542600Y-137051000D01*
X122824000Y-136769500D02*
X122542600Y-137050900D01*
X120142000Y-137688500D02*
X120142000Y-137526000D01*
X120142000Y-137526000D02*
X119761000Y-137145000D01*
X119761000Y-137145000D02*
X119761000Y-136982200D01*
X119761000Y-136982200D02*
X119454800Y-136676000D01*
X119454800Y-136676000D02*
X119213500Y-136676000D01*
X119213500Y-136676000D02*
X118906000Y-136368500D01*
X118906000Y-136368500D02*
X118906000Y-131304000D01*
X118906000Y-131304000D02*
X118485000Y-130883000D01*
X118485000Y-130883000D02*
X118485000Y-129559000D01*
X120142000Y-137851000D02*
X120142000Y-137688500D01*
X120142300Y-137688800D02*
X120142300Y-137851100D01*
X120142000Y-137688500D02*
X120142300Y-137688800D01*
X120542000Y-132657800D02*
X120542000Y-137451000D01*
X120542000Y-137451000D02*
X120742000Y-137651000D01*
X120535700Y-132651500D02*
X120542000Y-132657800D01*
X120942000Y-137851000D02*
X120742000Y-137651000D01*
X120742300Y-137651000D02*
X120942400Y-137851100D01*
X120742000Y-137651000D02*
X120742300Y-137651000D01*
X121361200Y-137464800D02*
X121364820Y-137464800D01*
X121364820Y-137464800D02*
X121742460Y-137842440D01*
X121742460Y-137842440D02*
X121742460Y-137851140D01*
X122867000Y-137527000D02*
X122947000Y-137447000D01*
X122867000Y-137851000D02*
X122867000Y-137527000D01*
X122543000Y-137851000D02*
X122867000Y-137851000D01*
X122542700Y-137851000D02*
X122542600Y-137851100D01*
X122543000Y-137851000D02*
X122542700Y-137851000D01*
X122867000Y-138651000D02*
X123413000Y-138105000D01*
X122543000Y-138651000D02*
X122867000Y-138651000D01*
X122542800Y-138651000D02*
X122542600Y-138651200D01*
X122543000Y-138651000D02*
X122542800Y-138651000D01*
X121742500Y-139450500D02*
X122140700Y-139052300D01*
X122140700Y-139052300D02*
X123207016Y-139052300D01*
X123207016Y-139052300D02*
X123281716Y-139127000D01*
X123281716Y-139127000D02*
X123705980Y-139127000D01*
X121742000Y-139451000D02*
X121742500Y-139450500D01*
X121742500Y-139450500D02*
X121742500Y-139451300D01*
X122174000Y-140627100D02*
X122174000Y-140596862D01*
X122174000Y-140596862D02*
X122519862Y-140251000D01*
X122519862Y-140251000D02*
X122542200Y-140251000D01*
X122543000Y-140251000D02*
X122542200Y-140251000D01*
X122542200Y-140251000D02*
X122542600Y-140251400D01*
X121742460Y-141049000D02*
X121739400Y-141049000D01*
X121739400Y-141049000D02*
X121373900Y-141414500D01*
X121742000Y-141049000D02*
X121742500Y-141049500D01*
X121742500Y-141049500D02*
X121742500Y-141049000D01*
X122906000Y-143027020D02*
X123066001Y-142867019D01*
X122728000Y-140864000D02*
X122927756Y-140864000D01*
X122635500Y-140956500D02*
X122728000Y-140864000D01*
X123066001Y-142867019D02*
X123366000Y-142567020D01*
X122927756Y-140864000D02*
X123352020Y-140864000D01*
X122906000Y-148289000D02*
X122906000Y-143027020D01*
X123662000Y-149045000D02*
X122906000Y-148289000D01*
X122543000Y-141049000D02*
X122635500Y-140956500D01*
X122635100Y-140956500D02*
X122542600Y-141049000D01*
X122635500Y-140956500D02*
X122635100Y-140956500D01*
X124231000Y-133349600D02*
X124231000Y-140762022D01*
X122097000Y-128810000D02*
X122259000Y-128972000D01*
X124231000Y-140762022D02*
X123604021Y-141389001D01*
X123604021Y-141389001D02*
X122999999Y-141389001D01*
X122259000Y-128972000D02*
X122259000Y-131377600D01*
X122259000Y-131377600D02*
X124231000Y-133349600D01*
X122999999Y-141389001D02*
X122543000Y-141846000D01*
X122122000Y-128810000D02*
X122097000Y-128810000D01*
X122122000Y-128651000D02*
X122122000Y-128810000D01*
X121355000Y-129286000D02*
X120079000Y-129286000D01*
X121672000Y-128969000D02*
X121355000Y-129286000D01*
X122122000Y-128969000D02*
X121672000Y-128969000D01*
X122122000Y-128810000D02*
X122122000Y-128969000D01*
X122097000Y-128651000D02*
X122097000Y-128810000D01*
X122543000Y-141846000D02*
X122543000Y-141847000D01*
X122542600Y-141846400D02*
X122542600Y-141846600D01*
X122543000Y-141846000D02*
X122542600Y-141846400D01*
X121992000Y-141847000D02*
X121742900Y-141847000D01*
X122682000Y-142240000D02*
X122385000Y-142240000D01*
X123435299Y-141982000D02*
X122940000Y-141982000D01*
X122385000Y-142240000D02*
X121992000Y-141847000D01*
X124574000Y-140843299D02*
X123435299Y-141982000D01*
X116269000Y-129286000D02*
X117469290Y-129286000D01*
X122636709Y-128010709D02*
X122722000Y-128096000D01*
X118744581Y-128010709D02*
X122636709Y-128010709D01*
X117469290Y-129286000D02*
X118744581Y-128010709D01*
X122722000Y-128096000D02*
X122722000Y-131430464D01*
X122722000Y-131430464D02*
X124574000Y-133282464D01*
X122940000Y-141982000D02*
X122682000Y-142240000D01*
X124574000Y-133282464D02*
X124574000Y-140843299D01*
X115583000Y-128600000D02*
X116269000Y-129286000D01*
X114021000Y-128600000D02*
X115583000Y-128600000D01*
X121742900Y-141847000D02*
X121742000Y-141847000D01*
X121742900Y-141847000D02*
X121742500Y-141846600D01*
X105728000Y-129715000D02*
X103926000Y-129715000D01*
X105359200Y-136251000D02*
X104945500Y-136251000D01*
X103926000Y-129715000D02*
X103733000Y-129908000D01*
X103733000Y-129908000D02*
X103733000Y-131545000D01*
X103733000Y-131545000D02*
X104839500Y-132651500D01*
X104839500Y-132651500D02*
X105105200Y-132651500D01*
X105105200Y-132651500D02*
X105359200Y-132905500D01*
X105359200Y-132905500D02*
X105359200Y-136251000D01*
X105728000Y-128702000D02*
X105728000Y-129715000D01*
X105728000Y-129715000D02*
X105728000Y-130302000D01*
X104945500Y-136251000D02*
X104945000Y-136251000D01*
X104945500Y-136251000D02*
X104945400Y-136250900D01*
X108228000Y-130302000D02*
X108228000Y-131202000D01*
X108228000Y-131202000D02*
X108559600Y-131533600D01*
X108559600Y-131533600D02*
X108559600Y-136324340D01*
X108559600Y-136324340D02*
X108257340Y-136626600D01*
X108257340Y-136626600D02*
X106121600Y-136626600D01*
X106121600Y-136626600D02*
X105908500Y-136413500D01*
X108228000Y-129351000D02*
X108228000Y-130302000D01*
X108204000Y-129327000D02*
X108228000Y-129351000D01*
X108204000Y-128702000D02*
X108204000Y-129327000D01*
X105908500Y-136413500D02*
X105746000Y-136251000D01*
X105908100Y-136413500D02*
X105745500Y-136250900D01*
X105908500Y-136413500D02*
X105908100Y-136413500D01*
X111266329Y-147845780D02*
X110864749Y-148247360D01*
X111744760Y-147845780D02*
X111266329Y-147845780D01*
X110864749Y-148247360D02*
X110546140Y-148247360D01*
X107784900Y-147091400D02*
X107790400Y-147091400D01*
X107790400Y-147091400D02*
X108146000Y-147447000D01*
X106934000Y-138239500D02*
X106960000Y-138213500D01*
X106960000Y-138213500D02*
X106960000Y-137851000D01*
X89166700Y-148437600D02*
X89562900Y-148041400D01*
X89562900Y-148041400D02*
X89562900Y-148039000D01*
X92329700Y-137885000D02*
X92379800Y-137935000D01*
X91440000Y-137885000D02*
X92329700Y-137885000D01*
X90119200Y-137885000D02*
X91440000Y-137885000D01*
X106960000Y-137851000D02*
X107346000Y-137851000D01*
X92760800Y-140930000D02*
X92875000Y-140815000D01*
X92760800Y-142443000D02*
X92760800Y-140930000D01*
X106546000Y-137851000D02*
X106960000Y-137851000D01*
D25*
X108146000Y-147447100D02*
X108146000Y-147447000D01*
X108145800Y-147447300D02*
X108146000Y-147447100D01*
X89562900Y-148038800D02*
X89562900Y-148039000D01*
D24*
X109746400Y-148247000D02*
X109943800Y-148247000D01*
X109943800Y-148247000D02*
X110337600Y-148640800D01*
X110337600Y-148640800D02*
X110718600Y-148640800D01*
X110718600Y-148640800D02*
X110959900Y-148882100D01*
X110959900Y-148882100D02*
X110959900Y-152311100D01*
X110959900Y-152311100D02*
X109639000Y-153632000D01*
X109639000Y-153632000D02*
X109639000Y-153961000D01*
X109746000Y-148247000D02*
X109746400Y-148247000D01*
X109746400Y-148247000D02*
X109746000Y-148247400D01*
X90629740Y-141848840D02*
X90766900Y-141986000D01*
X90766900Y-141986000D02*
X90766900Y-142846800D01*
X90766900Y-142846800D02*
X91163100Y-143243000D01*
X108146000Y-140251000D02*
X108146000Y-140779900D01*
X109402880Y-139992100D02*
X109143980Y-140251000D01*
X109143980Y-140251000D02*
X108146000Y-140251000D01*
X108146000Y-140779900D02*
X108146000Y-141049000D01*
X108399840Y-137851140D02*
X108432600Y-137883900D01*
X108432600Y-137883900D02*
X109280960Y-137883900D01*
X108145840Y-137851140D02*
X108399840Y-137851140D01*
X108221520Y-137051040D02*
X108526580Y-136745980D01*
X108526580Y-136745980D02*
X108948220Y-136745980D01*
X108145840Y-137051040D02*
X108221520Y-137051040D01*
X96918780Y-142085060D02*
X96918780Y-142285520D01*
X96918780Y-142285520D02*
X96761300Y-142443000D01*
X109746000Y-146647000D02*
X110070800Y-146647000D01*
X110070800Y-146647000D02*
X110657808Y-146059992D01*
X110657808Y-146059992D02*
X110657808Y-145602903D01*
X110977010Y-145283701D02*
X110977010Y-144957800D01*
X110657808Y-145602903D02*
X110977010Y-145283701D01*
X93154500Y-143637000D02*
X93154500Y-143636700D01*
X93154500Y-143636700D02*
X92960800Y-143443000D01*
X92960800Y-143443000D02*
X92760800Y-143243000D01*
X109689707Y-145750045D02*
X109838077Y-145750045D01*
X108945940Y-146493812D02*
X109689707Y-145750045D01*
X108945940Y-146647160D02*
X108945940Y-146493812D01*
X108145840Y-144246860D02*
X108287728Y-144246860D01*
X108287728Y-144246860D02*
X108356401Y-144178187D01*
X108356401Y-144178187D02*
X108935073Y-144178187D01*
X108935073Y-144178187D02*
X109125779Y-143987481D01*
X109125779Y-143987481D02*
X109425778Y-143687482D01*
X94541521Y-141919019D02*
X94841520Y-141619020D01*
X94361000Y-142099540D02*
X94541521Y-141919019D01*
X94361000Y-142443000D02*
X94361000Y-142099540D01*
X87162600Y-142443000D02*
X87062600Y-142343000D01*
X87062600Y-141858652D02*
X86917674Y-141713726D01*
X87062600Y-142343000D02*
X87062600Y-141858652D01*
X91163100Y-148039000D02*
X90946000Y-148256000D01*
X90946000Y-148256000D02*
X90779600Y-148422400D01*
X90779600Y-148422400D02*
X90779600Y-149301200D01*
X90779600Y-149301200D02*
X90728800Y-149352000D01*
X87087161Y-149047363D02*
X87087161Y-149471627D01*
X87087161Y-148914439D02*
X87087161Y-149047363D01*
X87162600Y-148839000D02*
X87087161Y-148914439D01*
X108945940Y-147447260D02*
X108945940Y-146647160D01*
X108915200Y-145618200D02*
X108915200Y-145432866D01*
X108915200Y-145432866D02*
X108915200Y-145008602D01*
X108146000Y-143447000D02*
X108444835Y-143148165D01*
X109125779Y-143339253D02*
X109125779Y-143387483D01*
X108146000Y-146387400D02*
X108915200Y-145618200D01*
X109125779Y-143387483D02*
X109425778Y-143687482D01*
X108444835Y-143148165D02*
X108934691Y-143148165D01*
X108934691Y-143148165D02*
X109125779Y-143339253D01*
X108146000Y-146647000D02*
X108146000Y-146387400D01*
X88991180Y-142214520D02*
X88991180Y-142058264D01*
X88991180Y-142058264D02*
X88991180Y-141634000D01*
X88873200Y-142332500D02*
X88991180Y-142214520D01*
X101434000Y-152717000D02*
X101867000Y-153149000D01*
X100482000Y-152717000D02*
X101434000Y-152717000D01*
X97217800Y-152717000D02*
X97320100Y-152819000D01*
X96418400Y-152717000D02*
X97217800Y-152717000D01*
X92685300Y-152704000D02*
X92748100Y-152641000D01*
X91998800Y-152704000D02*
X92685300Y-152704000D01*
X86868000Y-150279000D02*
X86893400Y-150254000D01*
X86868000Y-151091000D02*
X86868000Y-150279000D01*
X101764000Y-137808000D02*
X101790000Y-137782000D01*
X100889000Y-137808000D02*
X101764000Y-137808000D01*
X97548700Y-137846000D02*
X98336100Y-137846000D01*
X95136400Y-137758000D02*
X95186500Y-137808000D01*
X94373700Y-137758000D02*
X95136400Y-137758000D01*
X90119200Y-135649000D02*
X90106500Y-135636000D01*
X90119200Y-136385000D02*
X90119200Y-135649000D01*
X86614000Y-140500000D02*
X86639400Y-140526000D01*
X86614000Y-139790000D02*
X86614000Y-140500000D01*
X93560900Y-147239000D02*
X93560900Y-147238700D01*
X93372700Y-146755000D02*
X93072700Y-146455000D01*
X93560900Y-146943000D02*
X93372700Y-146755000D01*
X93560900Y-147238700D02*
X93560900Y-146943000D01*
D26*
X108156400Y-140262000D02*
X108145800Y-140251400D01*
D25*
X87162600Y-148839000D02*
X87162600Y-148838900D01*
D27*
X87151700Y-142443100D02*
X87162600Y-142443100D01*
D24*
X88762800Y-149311000D02*
X88696800Y-149377000D01*
X88762800Y-148839000D02*
X88762800Y-149311000D01*
D27*
X88762800Y-148839000D02*
X88762800Y-148838900D01*
D24*
X88762800Y-142443000D02*
X88873200Y-142332500D01*
D27*
X88873200Y-142332700D02*
X88762800Y-142443100D01*
X88873200Y-142332500D02*
X88873200Y-142332700D01*
X91163100Y-143243000D02*
X91163100Y-143243200D01*
D24*
X92760800Y-149265000D02*
X92612000Y-149414000D01*
X92760800Y-148839000D02*
X92760800Y-149265000D01*
D27*
X92791900Y-143274300D02*
X92760800Y-143243200D01*
D24*
X95161100Y-148839000D02*
X95561200Y-148839000D01*
X95961200Y-143243000D02*
X96761300Y-142443000D01*
X98361500Y-148039000D02*
X98554200Y-147846000D01*
X98746900Y-147653000D02*
X98892100Y-147653000D01*
X98554200Y-147846000D02*
X98746900Y-147653000D01*
D27*
X98391600Y-148038800D02*
X98361500Y-148038800D01*
D24*
X97033600Y-142715300D02*
X96761300Y-142443000D01*
X97561400Y-143243000D02*
X97033600Y-142715300D01*
X95605300Y-150105000D02*
X95305300Y-150405000D01*
X95961200Y-149749000D02*
X95605300Y-150105000D01*
X95961200Y-148839000D02*
X95961200Y-149749000D01*
X95561200Y-148839000D02*
X95961200Y-148839000D01*
X97070400Y-150264000D02*
X97024700Y-150310000D01*
X97070400Y-149148000D02*
X97070400Y-150264000D01*
X96761300Y-148839000D02*
X97070400Y-149148000D01*
X98361500Y-142443000D02*
X97561400Y-143243000D01*
X120142260Y-141049000D02*
X120140990Y-141049000D01*
X116841998Y-145524998D02*
X116386996Y-145980000D01*
X117346000Y-145489000D02*
X117309904Y-145524998D01*
X117309904Y-145524998D02*
X116841998Y-145524998D01*
X120140990Y-141049000D02*
X119737390Y-141452600D01*
X116386996Y-145980000D02*
X116220300Y-145980000D01*
X119737390Y-141452600D02*
X118792957Y-141452600D01*
X118792957Y-141452600D02*
X117807000Y-142438557D01*
X117807000Y-142438557D02*
X117807000Y-142764000D01*
X117807000Y-142764000D02*
X117346000Y-143225000D01*
X117346000Y-143225000D02*
X117346000Y-145489000D01*
X116220300Y-145980000D02*
X115741800Y-146458500D01*
X115741800Y-146458500D02*
X115741800Y-146881600D01*
X115741800Y-146881600D02*
X115551300Y-147072100D01*
X114427600Y-147072100D02*
X114147600Y-147352100D01*
X115551300Y-147072100D02*
X114427600Y-147072100D01*
X114147600Y-147352100D02*
X114147600Y-152445500D01*
X114147600Y-152445500D02*
X109791500Y-156801600D01*
X109791500Y-156801600D02*
X109791500Y-157941500D01*
X109791500Y-157941500D02*
X108673600Y-159059400D01*
X108673600Y-159059400D02*
X102290900Y-159059400D01*
X102290900Y-159059400D02*
X100901500Y-157670000D01*
X120142000Y-141049000D02*
X120142000Y-141046000D01*
X111346240Y-142646660D02*
X111346240Y-143446760D01*
X110546140Y-141049000D02*
X110548680Y-141049000D01*
X110548680Y-141049000D02*
X111346240Y-141846560D01*
X110546140Y-140251440D02*
X110546140Y-141049000D01*
X111346000Y-142647000D02*
X111346000Y-142247000D01*
X111346000Y-142247000D02*
X111346000Y-141847000D01*
D26*
X111296600Y-141896200D02*
X111346200Y-141846600D01*
X111296600Y-141896500D02*
X111296600Y-141896200D01*
D24*
X111346500Y-139451000D02*
X112146000Y-139451000D01*
X112146000Y-139451000D02*
X112309000Y-139288500D01*
X112309000Y-139288500D02*
X112537240Y-139060260D01*
X112946000Y-137851000D02*
X112946500Y-137851000D01*
X112537240Y-139060260D02*
X112537240Y-138259760D01*
X112537240Y-138259760D02*
X112946000Y-137851000D01*
X111246000Y-140352000D02*
X111346000Y-140251000D01*
X116142000Y-141049000D02*
X116942000Y-141049000D01*
X116942000Y-141049000D02*
X116942000Y-140753700D01*
X116942000Y-140753700D02*
X117335300Y-140360400D01*
X117335300Y-140360400D02*
X117335300Y-139845300D01*
X117335300Y-139845300D02*
X117042000Y-139552000D01*
X117042000Y-139552000D02*
X116942000Y-139451000D01*
X103886000Y-153656600D02*
X103112000Y-153656600D01*
X103112000Y-153656600D02*
X102920800Y-153847800D01*
X124282000Y-143382000D02*
X123470020Y-143382000D01*
X123470020Y-143382000D02*
X123431020Y-143421000D01*
X119098000Y-151866000D02*
X118847000Y-152118000D01*
X120129000Y-151866000D02*
X119098000Y-151866000D01*
X109969000Y-130962000D02*
X109728000Y-131204000D01*
X109969000Y-130328000D02*
X109969000Y-130962000D01*
X103341000Y-135992000D02*
X103391000Y-136042000D01*
X103341000Y-135141000D02*
X103341000Y-135992000D01*
X116947000Y-138651000D02*
X117335000Y-139040000D01*
X116942000Y-138651000D02*
X116947000Y-138651000D01*
X111346000Y-140251000D02*
X111346000Y-139451000D01*
X111346000Y-143447000D02*
X110546100Y-144246900D01*
X110546100Y-144246900D02*
X110546000Y-144247000D01*
X112146000Y-143447000D02*
X111346000Y-143447000D01*
D25*
X112146100Y-143447000D02*
X112146300Y-143446800D01*
X112146000Y-143447000D02*
X112146100Y-143447000D01*
X116142000Y-141049000D02*
X116141800Y-141049000D01*
D24*
X111346000Y-140251000D02*
X111345800Y-140251000D01*
X116942000Y-139451000D02*
X116892000Y-139401000D01*
D26*
X116941900Y-139434700D02*
X116941900Y-139451300D01*
D24*
X116842000Y-139351000D02*
X116242000Y-139351000D01*
X116892000Y-139401000D02*
X116842000Y-139351000D01*
D26*
X116141800Y-139451200D02*
X116141800Y-139451300D01*
D24*
X111346000Y-139451000D02*
X111346500Y-139451000D01*
X111346000Y-139451000D02*
X111346500Y-139451000D01*
X111372000Y-139451000D02*
X111747000Y-139827000D01*
X111346500Y-139451000D02*
X111372000Y-139451000D01*
X116942000Y-138651000D02*
X116942000Y-139051000D01*
X116942000Y-139051000D02*
X116942000Y-139451000D01*
X116142000Y-139451000D02*
X116142000Y-138921100D01*
X116192000Y-139401000D02*
X116142000Y-139451000D01*
X116142000Y-138651000D02*
X116942000Y-138651000D01*
X116142000Y-138921100D02*
X116142000Y-138651000D01*
X114541500Y-137851000D02*
X114542000Y-137851000D01*
D25*
X114541500Y-137851000D02*
X114541600Y-137851100D01*
D24*
X113743900Y-137851000D02*
X114541500Y-137851000D01*
D25*
X113743900Y-137851000D02*
X113744000Y-137851100D01*
D24*
X112946500Y-137851000D02*
X113743900Y-137851000D01*
D25*
X112946500Y-137851000D02*
X112946400Y-137851100D01*
D24*
X111345800Y-140251000D02*
X110546000Y-140251000D01*
X114542000Y-137851000D02*
X114542000Y-138651000D01*
X114542000Y-137851000D02*
X115342000Y-137851000D01*
X113433860Y-144716500D02*
X113345482Y-144804878D01*
X113345482Y-144804878D02*
X113345482Y-151285818D01*
X113345482Y-151285818D02*
X112503018Y-152128282D01*
X119342200Y-141049000D02*
X118772279Y-141049000D01*
X115774212Y-145124300D02*
X115363864Y-145124300D01*
X118772279Y-141049000D02*
X117309900Y-142511379D01*
X117309900Y-142511379D02*
X117309900Y-142836900D01*
X117309900Y-142836900D02*
X117081300Y-143065500D01*
X117081300Y-143065500D02*
X116841500Y-143065500D01*
X115363864Y-145124300D02*
X114939600Y-145124300D01*
X116841500Y-143065500D02*
X116535200Y-143371800D01*
X116535200Y-143371800D02*
X116535200Y-144363312D01*
X116535200Y-144363312D02*
X115774212Y-145124300D01*
X104530400Y-157394400D02*
X103717100Y-157394400D01*
X103717100Y-157394400D02*
X103441500Y-157670000D01*
X112503018Y-152128282D02*
X110170600Y-154460700D01*
X110170600Y-154460700D02*
X107464100Y-154460700D01*
X107464100Y-154460700D02*
X104530400Y-157394400D01*
X112594500Y-152036800D02*
X112503018Y-152128282D01*
X119342160Y-149047460D02*
X118948200Y-148653500D01*
X118948200Y-148653500D02*
X118948200Y-148641200D01*
X118948200Y-148641200D02*
X118948000Y-148641000D01*
X119342000Y-141847000D02*
X119138000Y-141847000D01*
X119138000Y-141847000D02*
X118632019Y-142352981D01*
X118632019Y-142352981D02*
X118632019Y-142390043D01*
X118632019Y-142390043D02*
X118332020Y-142690042D01*
X114541560Y-145790910D02*
X114478957Y-145728307D01*
X114541560Y-146647160D02*
X114541560Y-145790910D01*
X116142000Y-140251000D02*
X115747800Y-139856800D01*
X115747800Y-139856800D02*
X115747800Y-139057800D01*
X115747800Y-139057800D02*
X115442000Y-138752000D01*
X116142000Y-137993000D02*
X116142000Y-137851000D01*
X115442000Y-138752000D02*
X115342000Y-138651000D01*
X115342000Y-138651000D02*
X115484000Y-138651000D01*
X115484000Y-138651000D02*
X116142000Y-137993000D01*
X119342160Y-137851140D02*
X119222860Y-137851140D01*
X119222860Y-137851140D02*
X119078446Y-137995554D01*
X105308400Y-153656600D02*
X106285600Y-153656600D01*
X106285600Y-153656600D02*
X106400600Y-153771600D01*
X111214000Y-130354000D02*
X111214000Y-130379000D01*
X111214000Y-130379000D02*
X111780081Y-130945081D01*
X111780081Y-130945081D02*
X111780081Y-131318000D01*
X114541560Y-146647160D02*
X115341660Y-146647160D01*
X113744000Y-146647160D02*
X114541560Y-146647160D01*
X116941860Y-146647160D02*
X116941860Y-146202140D01*
X116941860Y-146202140D02*
X117094000Y-146050000D01*
X116141760Y-146647160D02*
X116516657Y-146647160D01*
X116516657Y-146647160D02*
X116941860Y-146647160D01*
X119053045Y-138020955D02*
X119078446Y-137995554D01*
X102767000Y-131278000D02*
X102819000Y-131331000D01*
X102767000Y-130429000D02*
X102767000Y-131278000D01*
X111265000Y-130302000D02*
X111214000Y-130354000D01*
X112724000Y-130302000D02*
X111265000Y-130302000D01*
X123508000Y-146570000D02*
X123482000Y-146596000D01*
X124308000Y-146570000D02*
X123508000Y-146570000D01*
X122135000Y-151840000D02*
X122415000Y-152121000D01*
X121450000Y-151840000D02*
X122135000Y-151840000D01*
X103341000Y-133121000D02*
X103378000Y-133083000D01*
X103341000Y-133998000D02*
X103341000Y-133121000D01*
X116187000Y-140251000D02*
X116548000Y-139890000D01*
X116142000Y-140251000D02*
X116187000Y-140251000D01*
X110559000Y-137851000D02*
X110947000Y-138240000D01*
X110546000Y-137851000D02*
X110559000Y-137851000D01*
X116142000Y-140251000D02*
X116942000Y-140251000D01*
X110546000Y-137851000D02*
X110546000Y-138651000D01*
X111346000Y-137851000D02*
X111346000Y-138651000D01*
X110546000Y-138651000D02*
X111346000Y-138651000D01*
X119342000Y-138651000D02*
X119342000Y-138283000D01*
X110546000Y-137851000D02*
X110858400Y-137851000D01*
X110858400Y-137851000D02*
X111346000Y-137851000D01*
D25*
X116142000Y-140251200D02*
X116142000Y-140251000D01*
X116141800Y-140251400D02*
X116142000Y-140251200D01*
D26*
X112097000Y-138651200D02*
X112146300Y-138651200D01*
X112096800Y-138651000D02*
X112097000Y-138651200D01*
D24*
X112096800Y-138651000D02*
X111346000Y-138651000D01*
X110546000Y-139451000D02*
X110546000Y-138651200D01*
X110546000Y-138651200D02*
X110546000Y-138651000D01*
X112146000Y-137851000D02*
X112146000Y-137851100D01*
X111346000Y-137851000D02*
X112146000Y-137851000D01*
X112146000Y-138651000D02*
X112096800Y-138651000D01*
X112146000Y-137851100D02*
X112146000Y-138651000D01*
D26*
X119342200Y-141846800D02*
X119342200Y-141846600D01*
X119342000Y-141847000D02*
X119342200Y-141846800D01*
D25*
X119342200Y-138651200D02*
X119342000Y-138651000D01*
X119342200Y-137851100D02*
X119342000Y-137851100D01*
D24*
X119342000Y-138283000D02*
X119342000Y-137851100D01*
X119342000Y-137851100D02*
X119342000Y-137851000D01*
D25*
X119342000Y-149047300D02*
X119342000Y-149047000D01*
X119342200Y-149047500D02*
X119342000Y-149047300D01*
D24*
X120142260Y-140251440D02*
X120136660Y-140251440D01*
X120136660Y-140251440D02*
X119748300Y-140639800D01*
X119748300Y-140639800D02*
X119748300Y-140652437D01*
X119748300Y-140652437D02*
X119754680Y-140658817D01*
X105981500Y-160210000D02*
X107137700Y-161366200D01*
X119132400Y-143865600D02*
X120294400Y-143865600D01*
X109143800Y-161366200D02*
X109778800Y-160731200D01*
X107137700Y-161366200D02*
X109143800Y-161366200D01*
X109778800Y-160731200D02*
X109778800Y-159842200D01*
X110515400Y-159105600D02*
X114160678Y-159105600D01*
X109778800Y-159842200D02*
X110515400Y-159105600D01*
X114160678Y-159105600D02*
X115031811Y-158234467D01*
X115031811Y-158234467D02*
X115031811Y-153802189D01*
X115031811Y-153802189D02*
X118166000Y-150668000D01*
X120548400Y-143611600D02*
X120548400Y-143040600D01*
X118166000Y-150668000D02*
X118166000Y-145645195D01*
X118166000Y-145645195D02*
X117966807Y-145446002D01*
X120294400Y-143865600D02*
X120548400Y-143611600D01*
X117966807Y-145446002D02*
X117966807Y-144976193D01*
X117966807Y-144976193D02*
X118540000Y-144403000D01*
X118540000Y-144403000D02*
X118595000Y-144403000D01*
X118595000Y-144403000D02*
X119132400Y-143865600D01*
X120548400Y-143040600D02*
X120724500Y-142864500D01*
X120724500Y-142864500D02*
X120942000Y-142647000D01*
X120724600Y-142864500D02*
X120942400Y-142646700D01*
X120724500Y-142864500D02*
X120724600Y-142864500D01*
X119283000Y-140310000D02*
X119144012Y-140448988D01*
X119144012Y-140448988D02*
X117651290Y-140448988D01*
X117651290Y-140448988D02*
X117335300Y-140764978D01*
X117335300Y-140764978D02*
X117335300Y-141198600D01*
X117335300Y-141198600D02*
X117094000Y-141439900D01*
X117094000Y-141439900D02*
X116801900Y-141439900D01*
X116801900Y-141439900D02*
X116547900Y-141693900D01*
X116547900Y-141693900D02*
X116547900Y-141973300D01*
X116547900Y-141973300D02*
X116255800Y-142265400D01*
X116255800Y-142265400D02*
X114350800Y-142265400D01*
X114350800Y-142265400D02*
X114147600Y-142468600D01*
X114147600Y-142468600D02*
X114147600Y-144946518D01*
X114147600Y-144946518D02*
X114186277Y-144985195D01*
X114186277Y-144985195D02*
X113886278Y-145285194D01*
X119342000Y-140251000D02*
X119283000Y-140310000D01*
X119283600Y-140310000D02*
X119342200Y-140251400D01*
X119283000Y-140310000D02*
X119283600Y-140310000D01*
X108521500Y-160210000D02*
X109925911Y-158805589D01*
X109925911Y-158805589D02*
X114036410Y-158805589D01*
X119202200Y-142265400D02*
X119760900Y-142265400D01*
X114036410Y-158805589D02*
X114731800Y-158110199D01*
X118070000Y-143346000D02*
X118473649Y-143346000D01*
X114731800Y-158110199D02*
X114731800Y-153561200D01*
X119760900Y-142265400D02*
X119979500Y-142484000D01*
X114731800Y-153561200D02*
X117348000Y-150945000D01*
X117348000Y-150945000D02*
X117348000Y-146532600D01*
X117348000Y-146532600D02*
X117666796Y-146213804D01*
X117666796Y-146213804D02*
X117666796Y-143749204D01*
X117666796Y-143749204D02*
X118070000Y-143346000D01*
X118473649Y-143346000D02*
X118948200Y-142871449D01*
X118948200Y-142871449D02*
X118948200Y-142519400D01*
X118948200Y-142519400D02*
X119202200Y-142265400D01*
X119979500Y-142484000D02*
X120142000Y-142647000D01*
X119979600Y-142484000D02*
X120142300Y-142646700D01*
X119979500Y-142484000D02*
X119979600Y-142484000D01*
X119945500Y-139647500D02*
X119727900Y-139865100D01*
X119727900Y-139865100D02*
X118864750Y-139865100D01*
X118864750Y-139865100D02*
X118805864Y-139923986D01*
X120142000Y-139451000D02*
X120120000Y-139451000D01*
X119945500Y-139647500D02*
X120142000Y-139451000D01*
X119946100Y-139647500D02*
X120142300Y-139451300D01*
X119945500Y-139647500D02*
X119946100Y-139647500D01*
X111061500Y-160210000D02*
X112293900Y-161442400D01*
X112293900Y-161442400D02*
X114020600Y-161442400D01*
X114020600Y-161442400D02*
X115631833Y-159831167D01*
X115631833Y-159831167D02*
X115631833Y-154076167D01*
X115631833Y-154076167D02*
X119236000Y-150472000D01*
X119236000Y-150472000D02*
X121653000Y-150472000D01*
X121653000Y-150472000D02*
X122123200Y-150001800D01*
X122123200Y-150001800D02*
X122123200Y-142494000D01*
X122123200Y-142494000D02*
X121869200Y-142240000D01*
X121869200Y-142240000D02*
X121661000Y-142240000D01*
X121661000Y-142240000D02*
X121318000Y-141897000D01*
X121318000Y-141897000D02*
X120992500Y-141897000D01*
X120992500Y-141897000D02*
X120942000Y-141847000D01*
X120942400Y-141846900D02*
X120942400Y-141846600D01*
X120992500Y-141897000D02*
X120942400Y-141846900D01*
X114940080Y-148645880D02*
X114927100Y-148658860D01*
X114927100Y-148658860D02*
X114927100Y-152114100D01*
X114927100Y-152114100D02*
X113601500Y-153439700D01*
X113601500Y-153439700D02*
X113601500Y-157670000D01*
X119084213Y-139193313D02*
X118491829Y-139193313D01*
X119342200Y-139451300D02*
X119084213Y-139193313D01*
X118491829Y-139193313D02*
X118191830Y-139493312D01*
X121361200Y-142506700D02*
X121361200Y-148309800D01*
X120142300Y-141846600D02*
X120548400Y-142252700D01*
X120865900Y-148640800D02*
X120573800Y-148932900D01*
X120548400Y-142252700D02*
X121107200Y-142252700D01*
X120573800Y-148932900D02*
X120573800Y-149110700D01*
X121107200Y-142252700D02*
X121361200Y-142506700D01*
X121030200Y-148640800D02*
X120865900Y-148640800D01*
X121361200Y-148309800D02*
X121030200Y-148640800D01*
X120573800Y-149110700D02*
X120243600Y-149440900D01*
X120243600Y-149440900D02*
X120040400Y-149440900D01*
X120040400Y-149440900D02*
X119748300Y-149733000D01*
X119748300Y-149733000D02*
X119748300Y-150012400D01*
X119748300Y-150012400D02*
X119570500Y-150190200D01*
X119570500Y-150190200D02*
X119093521Y-150190200D01*
X119093521Y-150190200D02*
X115331822Y-153951899D01*
X115331822Y-153951899D02*
X115331822Y-158479678D01*
X115331822Y-158479678D02*
X114465099Y-159346401D01*
X114465099Y-159346401D02*
X113601500Y-160210000D01*
X109390300Y-132606100D02*
X109746000Y-132250400D01*
X109390300Y-135771600D02*
X109390300Y-132606100D01*
X110273000Y-136654300D02*
X109390300Y-135771600D01*
X98361500Y-157670000D02*
X97272600Y-157670000D01*
X93840700Y-153578600D02*
X88204100Y-153578600D01*
X86642600Y-154094200D02*
X85344000Y-152795600D01*
X97272600Y-157670000D02*
X97272600Y-157010500D01*
X97272600Y-157010500D02*
X93840700Y-153578600D01*
X88204100Y-153578600D02*
X87688500Y-154094200D01*
X87688500Y-154094200D02*
X86642600Y-154094200D01*
X85344000Y-152795600D02*
X85344000Y-137941400D01*
X110299000Y-128012500D02*
X110569400Y-128282900D01*
X95272900Y-128012500D02*
X110299000Y-128012500D01*
X85344000Y-137941400D02*
X95272900Y-128012500D01*
X109746000Y-132726100D02*
X109746000Y-133050500D01*
X110179700Y-132292400D02*
X109746000Y-132726100D01*
X110179700Y-131495400D02*
X110179700Y-132292400D01*
X110569400Y-131105700D02*
X110179700Y-131495400D01*
X110569400Y-128282900D02*
X110569400Y-131105700D01*
X119979500Y-143284000D02*
X119773700Y-143078200D01*
X119773700Y-143078200D02*
X119227600Y-143078200D01*
X119227600Y-143078200D02*
X118427800Y-143878000D01*
X118427800Y-143878000D02*
X118370000Y-143878000D01*
X119979500Y-143284000D02*
X120142300Y-143446800D01*
X120142000Y-143447000D02*
X119979500Y-143284000D01*
X118783100Y-145910300D02*
X118986300Y-145707100D01*
X118986300Y-144907000D02*
X119265700Y-144627600D01*
X118986300Y-145707100D02*
X118986300Y-144907000D01*
X119265700Y-144627600D02*
X120332500Y-144627600D01*
X120332500Y-144627600D02*
X120548400Y-144411700D01*
X120548400Y-144411700D02*
X120548400Y-144003100D01*
X120548400Y-144003100D02*
X120942000Y-143609500D01*
X120942000Y-143447000D02*
X120942000Y-143609500D01*
X120942400Y-143609100D02*
X120942400Y-143446800D01*
X120942000Y-143609500D02*
X120942400Y-143609100D01*
X119200000Y-144247000D02*
X118491809Y-144955191D01*
X118491809Y-144955191D02*
X118491809Y-145194000D01*
X119271000Y-144247000D02*
X119200000Y-144247000D01*
X119342000Y-144247000D02*
X119271000Y-144247000D01*
D26*
X119271000Y-144247000D02*
X119276400Y-144252400D01*
D25*
X119336700Y-144252400D02*
X119342200Y-144246900D01*
X119276400Y-144252400D02*
X119336700Y-144252400D01*
D24*
X122721000Y-139451000D02*
X123044000Y-139774000D01*
X122543000Y-139451000D02*
X122721000Y-139451000D01*
X122542900Y-139451000D02*
X122542600Y-139451300D01*
X122543000Y-139451000D02*
X122542900Y-139451000D01*
X110337600Y-151409400D02*
X110337600Y-151790400D01*
X110337600Y-151790400D02*
X109829600Y-152298400D01*
X110957818Y-145713029D02*
X111763847Y-144907000D01*
X110957818Y-146235482D02*
X110957818Y-145713029D01*
X110546140Y-146647160D02*
X110957818Y-146235482D01*
X111763847Y-144907000D02*
X112090196Y-144907000D01*
X115342000Y-133525000D02*
X115342000Y-133688000D01*
X114942000Y-133125000D02*
X115342000Y-133525000D01*
X114942000Y-130544000D02*
X114942000Y-133125000D01*
X114699000Y-130302000D02*
X114942000Y-130544000D01*
X114224000Y-130302000D02*
X114699000Y-130302000D01*
X115342000Y-133688000D02*
X115342000Y-133851000D01*
X115341700Y-133688300D02*
X115341700Y-133850600D01*
X115342000Y-133688000D02*
X115341700Y-133688300D01*
X104267000Y-130429000D02*
X104742000Y-130429000D01*
X106718100Y-133451600D02*
X106934000Y-133667500D01*
X104742000Y-130429000D02*
X104742000Y-130904000D01*
X104742000Y-130904000D02*
X105359200Y-131521200D01*
X105359200Y-131521200D02*
X105359200Y-132448300D01*
X106108500Y-132829300D02*
X106108500Y-133197600D01*
X105930700Y-132651500D02*
X106108500Y-132829300D01*
X105562400Y-132651500D02*
X105930700Y-132651500D01*
X105359200Y-132448300D02*
X105562400Y-132651500D01*
X106108500Y-133197600D02*
X106362500Y-133451600D01*
X106362500Y-133451600D02*
X106718100Y-133451600D01*
X107162600Y-134239000D02*
X107530900Y-134239000D01*
X106934000Y-134010400D02*
X107162600Y-134239000D01*
X106934000Y-133667500D02*
X106934000Y-134010400D01*
X107530900Y-134239000D02*
X107746800Y-134454900D01*
X107746800Y-134454900D02*
X107746800Y-135623300D01*
X107746800Y-135623300D02*
X108146000Y-136022500D01*
X108146000Y-136022500D02*
X108146000Y-136088000D01*
X108146000Y-136088000D02*
X108146000Y-136251000D01*
X108145800Y-136088200D02*
X108145800Y-136250900D01*
X108146000Y-136088000D02*
X108145800Y-136088200D01*
M02*
