G04 #@! TF.FileFunction,Legend,Top*
%FSLAX46Y46*%
G04 Gerber Fmt 4.6, Leading zero omitted, Abs format (unit mm)*
G04 Created by KiCad (PCBNEW 4.0.0-rc1-stable) date Sun 22 Nov 2015 09:54:25 PM ICT*
%MOMM*%
G01*
G04 APERTURE LIST*
%ADD10C,0.100000*%
%ADD11C,0.500000*%
%ADD12C,0.150000*%
%ADD13C,0.203200*%
%ADD14C,0.254000*%
%ADD15C,0.381000*%
%ADD16C,0.152400*%
G04 APERTURE END LIST*
D10*
D11*
X87379918Y-130857762D02*
X88522775Y-130857762D01*
X87951347Y-132857762D02*
X87951347Y-130857762D01*
X89189442Y-132857762D02*
X89189442Y-131524429D01*
X89189442Y-130857762D02*
X89094204Y-130953000D01*
X89189442Y-131048238D01*
X89284681Y-130953000D01*
X89189442Y-130857762D01*
X89189442Y-131048238D01*
X90141823Y-131524429D02*
X90141823Y-132857762D01*
X90141823Y-131714905D02*
X90237062Y-131619667D01*
X90427538Y-131524429D01*
X90713252Y-131524429D01*
X90903728Y-131619667D01*
X90998966Y-131810143D01*
X90998966Y-132857762D01*
X91760871Y-131524429D02*
X92237062Y-132857762D01*
X92713252Y-131524429D02*
X92237062Y-132857762D01*
X92046586Y-133333952D01*
X91951347Y-133429190D01*
X91760871Y-133524429D01*
X94618015Y-132667286D02*
X94522777Y-132762524D01*
X94237062Y-132857762D01*
X94046586Y-132857762D01*
X93760872Y-132762524D01*
X93570396Y-132572048D01*
X93475157Y-132381571D01*
X93379919Y-132000619D01*
X93379919Y-131714905D01*
X93475157Y-131333952D01*
X93570396Y-131143476D01*
X93760872Y-130953000D01*
X94046586Y-130857762D01*
X94237062Y-130857762D01*
X94522777Y-130953000D01*
X94618015Y-131048238D01*
X95760872Y-132857762D02*
X95570396Y-132762524D01*
X95475157Y-132667286D01*
X95379919Y-132476810D01*
X95379919Y-131905381D01*
X95475157Y-131714905D01*
X95570396Y-131619667D01*
X95760872Y-131524429D01*
X96046586Y-131524429D01*
X96237062Y-131619667D01*
X96332300Y-131714905D01*
X96427538Y-131905381D01*
X96427538Y-132476810D01*
X96332300Y-132667286D01*
X96237062Y-132762524D01*
X96046586Y-132857762D01*
X95760872Y-132857762D01*
X97284681Y-132857762D02*
X97284681Y-131524429D01*
X97284681Y-131714905D02*
X97379920Y-131619667D01*
X97570396Y-131524429D01*
X97856110Y-131524429D01*
X98046586Y-131619667D01*
X98141824Y-131810143D01*
X98141824Y-132857762D01*
X98141824Y-131810143D02*
X98237062Y-131619667D01*
X98427539Y-131524429D01*
X98713253Y-131524429D01*
X98903729Y-131619667D01*
X98998967Y-131810143D01*
X98998967Y-132857762D01*
D12*
X114871500Y-161480000D02*
X94551500Y-161480000D01*
X97091500Y-156400000D02*
X114871500Y-156400000D01*
X114871500Y-161480000D02*
X114871500Y-156400000D01*
X94551500Y-161480000D02*
X94551500Y-158940000D01*
X95821500Y-156120000D02*
X94271500Y-156120000D01*
X94551500Y-158940000D02*
X97091500Y-158940000D01*
X97091500Y-158940000D02*
X97091500Y-156400000D01*
X94271500Y-156120000D02*
X94271500Y-157670000D01*
X97018400Y-153117000D02*
X97018400Y-153817000D01*
X95818400Y-153817000D02*
X95818400Y-153117000D01*
X89444200Y-137635000D02*
X89444200Y-136635000D01*
X90794200Y-136635000D02*
X90794200Y-137635000D01*
X92115000Y-136635000D02*
X92115000Y-137635000D01*
X90765000Y-137635000D02*
X90765000Y-136635000D01*
X92067000Y-151678000D02*
X91067000Y-151678000D01*
X91067000Y-150328000D02*
X92067000Y-150328000D01*
X114808000Y-126428000D02*
X94488000Y-126428000D01*
X97028000Y-121348000D02*
X114808000Y-121348000D01*
X114808000Y-126428000D02*
X114808000Y-121348000D01*
X94488000Y-126428000D02*
X94488000Y-123888000D01*
X95758000Y-121068000D02*
X94208000Y-121068000D01*
X94488000Y-123888000D02*
X97028000Y-123888000D01*
X97028000Y-123888000D02*
X97028000Y-121348000D01*
X94208000Y-121068000D02*
X94208000Y-122618000D01*
D13*
X117920000Y-129286000D02*
X116904000Y-129286000D01*
X118428000Y-129286000D02*
X119444000Y-129286000D01*
X117920000Y-128270000D02*
X117920000Y-130302000D01*
X118428000Y-128270000D02*
X118428000Y-130302000D01*
X115634000Y-127635000D02*
X115634000Y-127952500D01*
X120714000Y-127635000D02*
X120714000Y-127952500D01*
X120714000Y-130937000D02*
X120714000Y-130619500D01*
X115634000Y-130937000D02*
X115634000Y-130619500D01*
X115634000Y-130937000D02*
X120714000Y-130937000D01*
X115634000Y-127635000D02*
X120714000Y-127635000D01*
D12*
X105128000Y-128302000D02*
X105128000Y-127602000D01*
X106328000Y-127602000D02*
X106328000Y-128302000D01*
X107604000Y-128302000D02*
X107604000Y-127602000D01*
X108804000Y-127602000D02*
X108804000Y-128302000D01*
X108964000Y-155211000D02*
X108964000Y-154211000D01*
X110314000Y-154211000D02*
X110314000Y-155211000D01*
X113974000Y-130977000D02*
X112974000Y-130977000D01*
X112974000Y-129627000D02*
X113974000Y-129627000D01*
X104017000Y-131104000D02*
X103017000Y-131104000D01*
X103017000Y-129754000D02*
X104017000Y-129754000D01*
X100289000Y-137408000D02*
X100289000Y-136708000D01*
X101489000Y-136708000D02*
X101489000Y-137408000D01*
X93773700Y-137358000D02*
X93773700Y-136658000D01*
X94973700Y-136658000D02*
X94973700Y-137358000D01*
X86014000Y-139390000D02*
X86014000Y-138690000D01*
X87214000Y-138690000D02*
X87214000Y-139390000D01*
X87468000Y-151491000D02*
X87468000Y-152191000D01*
X86268000Y-152191000D02*
X86268000Y-151491000D01*
X101082000Y-153117000D02*
X101082000Y-153817000D01*
X99882000Y-153817000D02*
X99882000Y-153117000D01*
X92598800Y-153104000D02*
X92598800Y-153804000D01*
X91398800Y-153804000D02*
X91398800Y-153104000D01*
X124882000Y-143782000D02*
X124882000Y-144482000D01*
X123682000Y-144482000D02*
X123682000Y-143782000D01*
X120729000Y-152266000D02*
X120729000Y-152966000D01*
X119529000Y-152966000D02*
X119529000Y-152266000D01*
X122050000Y-152240000D02*
X122050000Y-152940000D01*
X120850000Y-152940000D02*
X120850000Y-152240000D01*
X124908000Y-146970000D02*
X124908000Y-147670000D01*
X123708000Y-147670000D02*
X123708000Y-146970000D01*
X122497000Y-128051000D02*
X123197000Y-128051000D01*
X123197000Y-129251000D02*
X122497000Y-129251000D01*
X113621000Y-129200000D02*
X112921000Y-129200000D01*
X112921000Y-128000000D02*
X113621000Y-128000000D01*
X110614000Y-129954000D02*
X110614000Y-129254000D01*
X111814000Y-129254000D02*
X111814000Y-129954000D01*
X109369000Y-129928000D02*
X109369000Y-129228000D01*
X110569000Y-129228000D02*
X110569000Y-129928000D01*
X102941000Y-134598000D02*
X102241000Y-134598000D01*
X102241000Y-133398000D02*
X102941000Y-133398000D01*
X102941000Y-135741000D02*
X102241000Y-135741000D01*
X102241000Y-134541000D02*
X102941000Y-134541000D01*
X96948700Y-137446000D02*
X96948700Y-136746000D01*
X98148700Y-136746000D02*
X98148700Y-137446000D01*
X105908400Y-154056600D02*
X105908400Y-154756600D01*
X104708400Y-154756600D02*
X104708400Y-154056600D01*
X104486000Y-154056600D02*
X104486000Y-154756600D01*
X103286000Y-154756600D02*
X103286000Y-154056600D01*
D14*
X85862160Y-141793240D02*
X85862160Y-150139680D01*
X85862160Y-150139680D02*
X98211640Y-150139680D01*
X98861880Y-149489440D02*
X98861880Y-142143760D01*
X98861880Y-142143760D02*
X97861120Y-141143000D01*
X97861120Y-141143000D02*
X86512400Y-141143000D01*
D15*
X104244400Y-150548600D02*
X104244400Y-131549400D01*
X104244400Y-131549400D02*
X123243600Y-131549400D01*
X123243600Y-131549400D02*
X123243600Y-150548600D01*
X123243600Y-150548600D02*
X104244400Y-150548600D01*
D12*
X95083405Y-153022381D02*
X95083405Y-152022381D01*
X95464358Y-152022381D01*
X95559596Y-152070000D01*
X95607215Y-152117619D01*
X95654834Y-152212857D01*
X95654834Y-152355714D01*
X95607215Y-152450952D01*
X95559596Y-152498571D01*
X95464358Y-152546190D01*
X95083405Y-152546190D01*
X96607215Y-153022381D02*
X96035786Y-153022381D01*
X96321500Y-153022381D02*
X96321500Y-152022381D01*
X96226262Y-152165238D01*
X96131024Y-152260476D01*
X96035786Y-152308095D01*
X98675543Y-154109857D02*
X98723162Y-154157476D01*
X98770781Y-154300333D01*
X98770781Y-154395571D01*
X98723162Y-154538429D01*
X98627924Y-154633667D01*
X98532686Y-154681286D01*
X98342210Y-154728905D01*
X98199352Y-154728905D01*
X98008876Y-154681286D01*
X97913638Y-154633667D01*
X97818400Y-154538429D01*
X97770781Y-154395571D01*
X97770781Y-154300333D01*
X97818400Y-154157476D01*
X97866019Y-154109857D01*
X98770781Y-153157476D02*
X98770781Y-153728905D01*
X98770781Y-153443191D02*
X97770781Y-153443191D01*
X97913638Y-153538429D01*
X98008876Y-153633667D01*
X98056495Y-153728905D01*
X97770781Y-152824143D02*
X97770781Y-152205095D01*
X98151733Y-152538429D01*
X98151733Y-152395571D01*
X98199352Y-152300333D01*
X98246971Y-152252714D01*
X98342210Y-152205095D01*
X98580305Y-152205095D01*
X98675543Y-152252714D01*
X98723162Y-152300333D01*
X98770781Y-152395571D01*
X98770781Y-152681286D01*
X98723162Y-152776524D01*
X98675543Y-152824143D01*
X92471581Y-137301666D02*
X91995390Y-137635000D01*
X92471581Y-137873095D02*
X91471581Y-137873095D01*
X91471581Y-137492142D01*
X91519200Y-137396904D01*
X91566819Y-137349285D01*
X91662057Y-137301666D01*
X91804914Y-137301666D01*
X91900152Y-137349285D01*
X91947771Y-137396904D01*
X91995390Y-137492142D01*
X91995390Y-137873095D01*
X91566819Y-136920714D02*
X91519200Y-136873095D01*
X91471581Y-136777857D01*
X91471581Y-136539761D01*
X91519200Y-136444523D01*
X91566819Y-136396904D01*
X91662057Y-136349285D01*
X91757295Y-136349285D01*
X91900152Y-136396904D01*
X92471581Y-136968333D01*
X92471581Y-136349285D01*
X89992381Y-137301666D02*
X89516190Y-137635000D01*
X89992381Y-137873095D02*
X88992381Y-137873095D01*
X88992381Y-137492142D01*
X89040000Y-137396904D01*
X89087619Y-137349285D01*
X89182857Y-137301666D01*
X89325714Y-137301666D01*
X89420952Y-137349285D01*
X89468571Y-137396904D01*
X89516190Y-137492142D01*
X89516190Y-137873095D01*
X88992381Y-136968333D02*
X88992381Y-136349285D01*
X89373333Y-136682619D01*
X89373333Y-136539761D01*
X89420952Y-136444523D01*
X89468571Y-136396904D01*
X89563810Y-136349285D01*
X89801905Y-136349285D01*
X89897143Y-136396904D01*
X89944762Y-136444523D01*
X89992381Y-136539761D01*
X89992381Y-136825476D01*
X89944762Y-136920714D01*
X89897143Y-136968333D01*
X91400334Y-149555381D02*
X91067000Y-149079190D01*
X90828905Y-149555381D02*
X90828905Y-148555381D01*
X91209858Y-148555381D01*
X91305096Y-148603000D01*
X91352715Y-148650619D01*
X91400334Y-148745857D01*
X91400334Y-148888714D01*
X91352715Y-148983952D01*
X91305096Y-149031571D01*
X91209858Y-149079190D01*
X90828905Y-149079190D01*
X92352715Y-149555381D02*
X91781286Y-149555381D01*
X92067000Y-149555381D02*
X92067000Y-148555381D01*
X91971762Y-148698238D01*
X91876524Y-148793476D01*
X91781286Y-148841095D01*
X95019905Y-117970381D02*
X95019905Y-116970381D01*
X95400858Y-116970381D01*
X95496096Y-117018000D01*
X95543715Y-117065619D01*
X95591334Y-117160857D01*
X95591334Y-117303714D01*
X95543715Y-117398952D01*
X95496096Y-117446571D01*
X95400858Y-117494190D01*
X95019905Y-117494190D01*
X95972286Y-117065619D02*
X96019905Y-117018000D01*
X96115143Y-116970381D01*
X96353239Y-116970381D01*
X96448477Y-117018000D01*
X96496096Y-117065619D01*
X96543715Y-117160857D01*
X96543715Y-117256095D01*
X96496096Y-117398952D01*
X95924667Y-117970381D01*
X96543715Y-117970381D01*
D16*
X117883715Y-131553857D02*
X117883715Y-131916714D01*
X117680515Y-131154714D02*
X117883715Y-131553857D01*
X118086915Y-131154714D01*
X118609429Y-131916714D02*
X118261086Y-131916714D01*
X118435258Y-131916714D02*
X118435258Y-131154714D01*
X118377201Y-131263571D01*
X118319143Y-131336143D01*
X118261086Y-131372429D01*
D12*
X106501809Y-132278190D02*
X106501809Y-132754381D01*
X106168476Y-131754381D02*
X106501809Y-132278190D01*
X106835143Y-131754381D01*
X107120857Y-131849619D02*
X107168476Y-131802000D01*
X107263714Y-131754381D01*
X107501810Y-131754381D01*
X107597048Y-131802000D01*
X107644667Y-131849619D01*
X107692286Y-131944857D01*
X107692286Y-132040095D01*
X107644667Y-132182952D01*
X107073238Y-132754381D01*
X107692286Y-132754381D01*
X104185143Y-128118666D02*
X104232762Y-128166285D01*
X104280381Y-128309142D01*
X104280381Y-128404380D01*
X104232762Y-128547238D01*
X104137524Y-128642476D01*
X104042286Y-128690095D01*
X103851810Y-128737714D01*
X103708952Y-128737714D01*
X103518476Y-128690095D01*
X103423238Y-128642476D01*
X103328000Y-128547238D01*
X103280381Y-128404380D01*
X103280381Y-128309142D01*
X103328000Y-128166285D01*
X103375619Y-128118666D01*
X103280381Y-127785333D02*
X103280381Y-127166285D01*
X103661333Y-127499619D01*
X103661333Y-127356761D01*
X103708952Y-127261523D01*
X103756571Y-127213904D01*
X103851810Y-127166285D01*
X104089905Y-127166285D01*
X104185143Y-127213904D01*
X104232762Y-127261523D01*
X104280381Y-127356761D01*
X104280381Y-127642476D01*
X104232762Y-127737714D01*
X104185143Y-127785333D01*
X106661143Y-128118666D02*
X106708762Y-128166285D01*
X106756381Y-128309142D01*
X106756381Y-128404380D01*
X106708762Y-128547238D01*
X106613524Y-128642476D01*
X106518286Y-128690095D01*
X106327810Y-128737714D01*
X106184952Y-128737714D01*
X105994476Y-128690095D01*
X105899238Y-128642476D01*
X105804000Y-128547238D01*
X105756381Y-128404380D01*
X105756381Y-128309142D01*
X105804000Y-128166285D01*
X105851619Y-128118666D01*
X106089714Y-127261523D02*
X106756381Y-127261523D01*
X105708762Y-127499619D02*
X106423048Y-127737714D01*
X106423048Y-127118666D01*
X111991381Y-154877666D02*
X111515190Y-155211000D01*
X111991381Y-155449095D02*
X110991381Y-155449095D01*
X110991381Y-155068142D01*
X111039000Y-154972904D01*
X111086619Y-154925285D01*
X111181857Y-154877666D01*
X111324714Y-154877666D01*
X111419952Y-154925285D01*
X111467571Y-154972904D01*
X111515190Y-155068142D01*
X111515190Y-155449095D01*
X111324714Y-154020523D02*
X111991381Y-154020523D01*
X110943762Y-154258619D02*
X111658048Y-154496714D01*
X111658048Y-153877666D01*
X113307334Y-128854381D02*
X112974000Y-128378190D01*
X112735905Y-128854381D02*
X112735905Y-127854381D01*
X113116858Y-127854381D01*
X113212096Y-127902000D01*
X113259715Y-127949619D01*
X113307334Y-128044857D01*
X113307334Y-128187714D01*
X113259715Y-128282952D01*
X113212096Y-128330571D01*
X113116858Y-128378190D01*
X112735905Y-128378190D01*
X113878762Y-128282952D02*
X113783524Y-128235333D01*
X113735905Y-128187714D01*
X113688286Y-128092476D01*
X113688286Y-128044857D01*
X113735905Y-127949619D01*
X113783524Y-127902000D01*
X113878762Y-127854381D01*
X114069239Y-127854381D01*
X114164477Y-127902000D01*
X114212096Y-127949619D01*
X114259715Y-128044857D01*
X114259715Y-128092476D01*
X114212096Y-128187714D01*
X114164477Y-128235333D01*
X114069239Y-128282952D01*
X113878762Y-128282952D01*
X113783524Y-128330571D01*
X113735905Y-128378190D01*
X113688286Y-128473429D01*
X113688286Y-128663905D01*
X113735905Y-128759143D01*
X113783524Y-128806762D01*
X113878762Y-128854381D01*
X114069239Y-128854381D01*
X114164477Y-128806762D01*
X114212096Y-128759143D01*
X114259715Y-128663905D01*
X114259715Y-128473429D01*
X114212096Y-128378190D01*
X114164477Y-128330571D01*
X114069239Y-128282952D01*
X103350334Y-128981381D02*
X103017000Y-128505190D01*
X102778905Y-128981381D02*
X102778905Y-127981381D01*
X103159858Y-127981381D01*
X103255096Y-128029000D01*
X103302715Y-128076619D01*
X103350334Y-128171857D01*
X103350334Y-128314714D01*
X103302715Y-128409952D01*
X103255096Y-128457571D01*
X103159858Y-128505190D01*
X102778905Y-128505190D01*
X103826524Y-128981381D02*
X104017000Y-128981381D01*
X104112239Y-128933762D01*
X104159858Y-128886143D01*
X104255096Y-128743286D01*
X104302715Y-128552810D01*
X104302715Y-128171857D01*
X104255096Y-128076619D01*
X104207477Y-128029000D01*
X104112239Y-127981381D01*
X103921762Y-127981381D01*
X103826524Y-128029000D01*
X103778905Y-128076619D01*
X103731286Y-128171857D01*
X103731286Y-128409952D01*
X103778905Y-128505190D01*
X103826524Y-128552810D01*
X103921762Y-128600429D01*
X104112239Y-128600429D01*
X104207477Y-128552810D01*
X104255096Y-128505190D01*
X104302715Y-128409952D01*
X99346143Y-137224666D02*
X99393762Y-137272285D01*
X99441381Y-137415142D01*
X99441381Y-137510380D01*
X99393762Y-137653238D01*
X99298524Y-137748476D01*
X99203286Y-137796095D01*
X99012810Y-137843714D01*
X98869952Y-137843714D01*
X98679476Y-137796095D01*
X98584238Y-137748476D01*
X98489000Y-137653238D01*
X98441381Y-137510380D01*
X98441381Y-137415142D01*
X98489000Y-137272285D01*
X98536619Y-137224666D01*
X98441381Y-136891333D02*
X98441381Y-136224666D01*
X99441381Y-136653238D01*
X92830843Y-137174666D02*
X92878462Y-137222285D01*
X92926081Y-137365142D01*
X92926081Y-137460380D01*
X92878462Y-137603238D01*
X92783224Y-137698476D01*
X92687986Y-137746095D01*
X92497510Y-137793714D01*
X92354652Y-137793714D01*
X92164176Y-137746095D01*
X92068938Y-137698476D01*
X91973700Y-137603238D01*
X91926081Y-137460380D01*
X91926081Y-137365142D01*
X91973700Y-137222285D01*
X92021319Y-137174666D01*
X92354652Y-136603238D02*
X92307033Y-136698476D01*
X92259414Y-136746095D01*
X92164176Y-136793714D01*
X92116557Y-136793714D01*
X92021319Y-136746095D01*
X91973700Y-136698476D01*
X91926081Y-136603238D01*
X91926081Y-136412761D01*
X91973700Y-136317523D01*
X92021319Y-136269904D01*
X92116557Y-136222285D01*
X92164176Y-136222285D01*
X92259414Y-136269904D01*
X92307033Y-136317523D01*
X92354652Y-136412761D01*
X92354652Y-136603238D01*
X92402271Y-136698476D01*
X92449890Y-136746095D01*
X92545129Y-136793714D01*
X92735605Y-136793714D01*
X92830843Y-136746095D01*
X92878462Y-136698476D01*
X92926081Y-136603238D01*
X92926081Y-136412761D01*
X92878462Y-136317523D01*
X92830843Y-136269904D01*
X92735605Y-136222285D01*
X92545129Y-136222285D01*
X92449890Y-136269904D01*
X92402271Y-136317523D01*
X92354652Y-136412761D01*
X85071143Y-139206666D02*
X85118762Y-139254285D01*
X85166381Y-139397142D01*
X85166381Y-139492380D01*
X85118762Y-139635238D01*
X85023524Y-139730476D01*
X84928286Y-139778095D01*
X84737810Y-139825714D01*
X84594952Y-139825714D01*
X84404476Y-139778095D01*
X84309238Y-139730476D01*
X84214000Y-139635238D01*
X84166381Y-139492380D01*
X84166381Y-139397142D01*
X84214000Y-139254285D01*
X84261619Y-139206666D01*
X85166381Y-138730476D02*
X85166381Y-138540000D01*
X85118762Y-138444761D01*
X85071143Y-138397142D01*
X84928286Y-138301904D01*
X84737810Y-138254285D01*
X84356857Y-138254285D01*
X84261619Y-138301904D01*
X84214000Y-138349523D01*
X84166381Y-138444761D01*
X84166381Y-138635238D01*
X84214000Y-138730476D01*
X84261619Y-138778095D01*
X84356857Y-138825714D01*
X84594952Y-138825714D01*
X84690190Y-138778095D01*
X84737810Y-138730476D01*
X84785429Y-138635238D01*
X84785429Y-138444761D01*
X84737810Y-138349523D01*
X84690190Y-138301904D01*
X84594952Y-138254285D01*
X89125143Y-152483857D02*
X89172762Y-152531476D01*
X89220381Y-152674333D01*
X89220381Y-152769571D01*
X89172762Y-152912429D01*
X89077524Y-153007667D01*
X88982286Y-153055286D01*
X88791810Y-153102905D01*
X88648952Y-153102905D01*
X88458476Y-153055286D01*
X88363238Y-153007667D01*
X88268000Y-152912429D01*
X88220381Y-152769571D01*
X88220381Y-152674333D01*
X88268000Y-152531476D01*
X88315619Y-152483857D01*
X89220381Y-151531476D02*
X89220381Y-152102905D01*
X89220381Y-151817191D02*
X88220381Y-151817191D01*
X88363238Y-151912429D01*
X88458476Y-152007667D01*
X88506095Y-152102905D01*
X88220381Y-150912429D02*
X88220381Y-150817190D01*
X88268000Y-150721952D01*
X88315619Y-150674333D01*
X88410857Y-150626714D01*
X88601333Y-150579095D01*
X88839429Y-150579095D01*
X89029905Y-150626714D01*
X89125143Y-150674333D01*
X89172762Y-150721952D01*
X89220381Y-150817190D01*
X89220381Y-150912429D01*
X89172762Y-151007667D01*
X89125143Y-151055286D01*
X89029905Y-151102905D01*
X88839429Y-151150524D01*
X88601333Y-151150524D01*
X88410857Y-151102905D01*
X88315619Y-151055286D01*
X88268000Y-151007667D01*
X88220381Y-150912429D01*
X102739143Y-154109857D02*
X102786762Y-154157476D01*
X102834381Y-154300333D01*
X102834381Y-154395571D01*
X102786762Y-154538429D01*
X102691524Y-154633667D01*
X102596286Y-154681286D01*
X102405810Y-154728905D01*
X102262952Y-154728905D01*
X102072476Y-154681286D01*
X101977238Y-154633667D01*
X101882000Y-154538429D01*
X101834381Y-154395571D01*
X101834381Y-154300333D01*
X101882000Y-154157476D01*
X101929619Y-154109857D01*
X102834381Y-153157476D02*
X102834381Y-153728905D01*
X102834381Y-153443191D02*
X101834381Y-153443191D01*
X101977238Y-153538429D01*
X102072476Y-153633667D01*
X102120095Y-153728905D01*
X102834381Y-152205095D02*
X102834381Y-152776524D01*
X102834381Y-152490810D02*
X101834381Y-152490810D01*
X101977238Y-152586048D01*
X102072476Y-152681286D01*
X102120095Y-152776524D01*
X94255943Y-154096857D02*
X94303562Y-154144476D01*
X94351181Y-154287333D01*
X94351181Y-154382571D01*
X94303562Y-154525429D01*
X94208324Y-154620667D01*
X94113086Y-154668286D01*
X93922610Y-154715905D01*
X93779752Y-154715905D01*
X93589276Y-154668286D01*
X93494038Y-154620667D01*
X93398800Y-154525429D01*
X93351181Y-154382571D01*
X93351181Y-154287333D01*
X93398800Y-154144476D01*
X93446419Y-154096857D01*
X94351181Y-153144476D02*
X94351181Y-153715905D01*
X94351181Y-153430191D02*
X93351181Y-153430191D01*
X93494038Y-153525429D01*
X93589276Y-153620667D01*
X93636895Y-153715905D01*
X93446419Y-152763524D02*
X93398800Y-152715905D01*
X93351181Y-152620667D01*
X93351181Y-152382571D01*
X93398800Y-152287333D01*
X93446419Y-152239714D01*
X93541657Y-152192095D01*
X93636895Y-152192095D01*
X93779752Y-152239714D01*
X94351181Y-152811143D01*
X94351181Y-152192095D01*
X126539143Y-144774857D02*
X126586762Y-144822476D01*
X126634381Y-144965333D01*
X126634381Y-145060571D01*
X126586762Y-145203429D01*
X126491524Y-145298667D01*
X126396286Y-145346286D01*
X126205810Y-145393905D01*
X126062952Y-145393905D01*
X125872476Y-145346286D01*
X125777238Y-145298667D01*
X125682000Y-145203429D01*
X125634381Y-145060571D01*
X125634381Y-144965333D01*
X125682000Y-144822476D01*
X125729619Y-144774857D01*
X126634381Y-143822476D02*
X126634381Y-144393905D01*
X126634381Y-144108191D02*
X125634381Y-144108191D01*
X125777238Y-144203429D01*
X125872476Y-144298667D01*
X125920095Y-144393905D01*
X125967714Y-142965333D02*
X126634381Y-142965333D01*
X125586762Y-143203429D02*
X126301048Y-143441524D01*
X126301048Y-142822476D01*
X122386143Y-153258857D02*
X122433762Y-153306476D01*
X122481381Y-153449333D01*
X122481381Y-153544571D01*
X122433762Y-153687429D01*
X122338524Y-153782667D01*
X122243286Y-153830286D01*
X122052810Y-153877905D01*
X121909952Y-153877905D01*
X121719476Y-153830286D01*
X121624238Y-153782667D01*
X121529000Y-153687429D01*
X121481381Y-153544571D01*
X121481381Y-153449333D01*
X121529000Y-153306476D01*
X121576619Y-153258857D01*
X122481381Y-152306476D02*
X122481381Y-152877905D01*
X122481381Y-152592191D02*
X121481381Y-152592191D01*
X121624238Y-152687429D01*
X121719476Y-152782667D01*
X121767095Y-152877905D01*
X121481381Y-151401714D02*
X121481381Y-151877905D01*
X121957571Y-151925524D01*
X121909952Y-151877905D01*
X121862333Y-151782667D01*
X121862333Y-151544571D01*
X121909952Y-151449333D01*
X121957571Y-151401714D01*
X122052810Y-151354095D01*
X122290905Y-151354095D01*
X122386143Y-151401714D01*
X122433762Y-151449333D01*
X122481381Y-151544571D01*
X122481381Y-151782667D01*
X122433762Y-151877905D01*
X122386143Y-151925524D01*
X123707143Y-153232857D02*
X123754762Y-153280476D01*
X123802381Y-153423333D01*
X123802381Y-153518571D01*
X123754762Y-153661429D01*
X123659524Y-153756667D01*
X123564286Y-153804286D01*
X123373810Y-153851905D01*
X123230952Y-153851905D01*
X123040476Y-153804286D01*
X122945238Y-153756667D01*
X122850000Y-153661429D01*
X122802381Y-153518571D01*
X122802381Y-153423333D01*
X122850000Y-153280476D01*
X122897619Y-153232857D01*
X123802381Y-152280476D02*
X123802381Y-152851905D01*
X123802381Y-152566191D02*
X122802381Y-152566191D01*
X122945238Y-152661429D01*
X123040476Y-152756667D01*
X123088095Y-152851905D01*
X122802381Y-151423333D02*
X122802381Y-151613810D01*
X122850000Y-151709048D01*
X122897619Y-151756667D01*
X123040476Y-151851905D01*
X123230952Y-151899524D01*
X123611905Y-151899524D01*
X123707143Y-151851905D01*
X123754762Y-151804286D01*
X123802381Y-151709048D01*
X123802381Y-151518571D01*
X123754762Y-151423333D01*
X123707143Y-151375714D01*
X123611905Y-151328095D01*
X123373810Y-151328095D01*
X123278571Y-151375714D01*
X123230952Y-151423333D01*
X123183333Y-151518571D01*
X123183333Y-151709048D01*
X123230952Y-151804286D01*
X123278571Y-151851905D01*
X123373810Y-151899524D01*
X126565143Y-147962857D02*
X126612762Y-148010476D01*
X126660381Y-148153333D01*
X126660381Y-148248571D01*
X126612762Y-148391429D01*
X126517524Y-148486667D01*
X126422286Y-148534286D01*
X126231810Y-148581905D01*
X126088952Y-148581905D01*
X125898476Y-148534286D01*
X125803238Y-148486667D01*
X125708000Y-148391429D01*
X125660381Y-148248571D01*
X125660381Y-148153333D01*
X125708000Y-148010476D01*
X125755619Y-147962857D01*
X126660381Y-147010476D02*
X126660381Y-147581905D01*
X126660381Y-147296191D02*
X125660381Y-147296191D01*
X125803238Y-147391429D01*
X125898476Y-147486667D01*
X125946095Y-147581905D01*
X125660381Y-146677143D02*
X125660381Y-146010476D01*
X126660381Y-146439048D01*
X122680334Y-127108143D02*
X122632715Y-127155762D01*
X122489858Y-127203381D01*
X122394620Y-127203381D01*
X122251762Y-127155762D01*
X122156524Y-127060524D01*
X122108905Y-126965286D01*
X122061286Y-126774810D01*
X122061286Y-126631952D01*
X122108905Y-126441476D01*
X122156524Y-126346238D01*
X122251762Y-126251000D01*
X122394620Y-126203381D01*
X122489858Y-126203381D01*
X122632715Y-126251000D01*
X122680334Y-126298619D01*
X123632715Y-127203381D02*
X123061286Y-127203381D01*
X123347000Y-127203381D02*
X123347000Y-126203381D01*
X123251762Y-126346238D01*
X123156524Y-126441476D01*
X123061286Y-126489095D01*
X113104334Y-130857143D02*
X113056715Y-130904762D01*
X112913858Y-130952381D01*
X112818620Y-130952381D01*
X112675762Y-130904762D01*
X112580524Y-130809524D01*
X112532905Y-130714286D01*
X112485286Y-130523810D01*
X112485286Y-130380952D01*
X112532905Y-130190476D01*
X112580524Y-130095238D01*
X112675762Y-130000000D01*
X112818620Y-129952381D01*
X112913858Y-129952381D01*
X113056715Y-130000000D01*
X113104334Y-130047619D01*
X113485286Y-130047619D02*
X113532905Y-130000000D01*
X113628143Y-129952381D01*
X113866239Y-129952381D01*
X113961477Y-130000000D01*
X114009096Y-130047619D01*
X114056715Y-130142857D01*
X114056715Y-130238095D01*
X114009096Y-130380952D01*
X113437667Y-130952381D01*
X114056715Y-130952381D01*
X109671143Y-130246857D02*
X109718762Y-130294476D01*
X109766381Y-130437333D01*
X109766381Y-130532571D01*
X109718762Y-130675429D01*
X109623524Y-130770667D01*
X109528286Y-130818286D01*
X109337810Y-130865905D01*
X109194952Y-130865905D01*
X109004476Y-130818286D01*
X108909238Y-130770667D01*
X108814000Y-130675429D01*
X108766381Y-130532571D01*
X108766381Y-130437333D01*
X108814000Y-130294476D01*
X108861619Y-130246857D01*
X109766381Y-129294476D02*
X109766381Y-129865905D01*
X109766381Y-129580191D02*
X108766381Y-129580191D01*
X108909238Y-129675429D01*
X109004476Y-129770667D01*
X109052095Y-129865905D01*
X109766381Y-128818286D02*
X109766381Y-128627810D01*
X109718762Y-128532571D01*
X109671143Y-128484952D01*
X109528286Y-128389714D01*
X109337810Y-128342095D01*
X108956857Y-128342095D01*
X108861619Y-128389714D01*
X108814000Y-128437333D01*
X108766381Y-128532571D01*
X108766381Y-128723048D01*
X108814000Y-128818286D01*
X108861619Y-128865905D01*
X108956857Y-128913524D01*
X109194952Y-128913524D01*
X109290190Y-128865905D01*
X109337810Y-128818286D01*
X109385429Y-128723048D01*
X109385429Y-128532571D01*
X109337810Y-128437333D01*
X109290190Y-128389714D01*
X109194952Y-128342095D01*
X108426143Y-130220857D02*
X108473762Y-130268476D01*
X108521381Y-130411333D01*
X108521381Y-130506571D01*
X108473762Y-130649429D01*
X108378524Y-130744667D01*
X108283286Y-130792286D01*
X108092810Y-130839905D01*
X107949952Y-130839905D01*
X107759476Y-130792286D01*
X107664238Y-130744667D01*
X107569000Y-130649429D01*
X107521381Y-130506571D01*
X107521381Y-130411333D01*
X107569000Y-130268476D01*
X107616619Y-130220857D01*
X107616619Y-129839905D02*
X107569000Y-129792286D01*
X107521381Y-129697048D01*
X107521381Y-129458952D01*
X107569000Y-129363714D01*
X107616619Y-129316095D01*
X107711857Y-129268476D01*
X107807095Y-129268476D01*
X107949952Y-129316095D01*
X108521381Y-129887524D01*
X108521381Y-129268476D01*
X107521381Y-128649429D02*
X107521381Y-128554190D01*
X107569000Y-128458952D01*
X107616619Y-128411333D01*
X107711857Y-128363714D01*
X107902333Y-128316095D01*
X108140429Y-128316095D01*
X108330905Y-128363714D01*
X108426143Y-128411333D01*
X108473762Y-128458952D01*
X108521381Y-128554190D01*
X108521381Y-128649429D01*
X108473762Y-128744667D01*
X108426143Y-128792286D01*
X108330905Y-128839905D01*
X108140429Y-128887524D01*
X107902333Y-128887524D01*
X107711857Y-128839905D01*
X107616619Y-128792286D01*
X107569000Y-128744667D01*
X107521381Y-128649429D01*
X102424334Y-136255143D02*
X102376715Y-136302762D01*
X102233858Y-136350381D01*
X102138620Y-136350381D01*
X101995762Y-136302762D01*
X101900524Y-136207524D01*
X101852905Y-136112286D01*
X101805286Y-135921810D01*
X101805286Y-135778952D01*
X101852905Y-135588476D01*
X101900524Y-135493238D01*
X101995762Y-135398000D01*
X102138620Y-135350381D01*
X102233858Y-135350381D01*
X102376715Y-135398000D01*
X102424334Y-135445619D01*
X103329096Y-135350381D02*
X102852905Y-135350381D01*
X102805286Y-135826571D01*
X102852905Y-135778952D01*
X102948143Y-135731333D01*
X103186239Y-135731333D01*
X103281477Y-135778952D01*
X103329096Y-135826571D01*
X103376715Y-135921810D01*
X103376715Y-136159905D01*
X103329096Y-136255143D01*
X103281477Y-136302762D01*
X103186239Y-136350381D01*
X102948143Y-136350381D01*
X102852905Y-136302762D01*
X102805286Y-136255143D01*
X102424334Y-137398143D02*
X102376715Y-137445762D01*
X102233858Y-137493381D01*
X102138620Y-137493381D01*
X101995762Y-137445762D01*
X101900524Y-137350524D01*
X101852905Y-137255286D01*
X101805286Y-137064810D01*
X101805286Y-136921952D01*
X101852905Y-136731476D01*
X101900524Y-136636238D01*
X101995762Y-136541000D01*
X102138620Y-136493381D01*
X102233858Y-136493381D01*
X102376715Y-136541000D01*
X102424334Y-136588619D01*
X103281477Y-136493381D02*
X103091000Y-136493381D01*
X102995762Y-136541000D01*
X102948143Y-136588619D01*
X102852905Y-136731476D01*
X102805286Y-136921952D01*
X102805286Y-137302905D01*
X102852905Y-137398143D01*
X102900524Y-137445762D01*
X102995762Y-137493381D01*
X103186239Y-137493381D01*
X103281477Y-137445762D01*
X103329096Y-137398143D01*
X103376715Y-137302905D01*
X103376715Y-137064810D01*
X103329096Y-136969571D01*
X103281477Y-136921952D01*
X103186239Y-136874333D01*
X102995762Y-136874333D01*
X102900524Y-136921952D01*
X102852905Y-136969571D01*
X102805286Y-137064810D01*
X96005843Y-137738857D02*
X96053462Y-137786476D01*
X96101081Y-137929333D01*
X96101081Y-138024571D01*
X96053462Y-138167429D01*
X95958224Y-138262667D01*
X95862986Y-138310286D01*
X95672510Y-138357905D01*
X95529652Y-138357905D01*
X95339176Y-138310286D01*
X95243938Y-138262667D01*
X95148700Y-138167429D01*
X95101081Y-138024571D01*
X95101081Y-137929333D01*
X95148700Y-137786476D01*
X95196319Y-137738857D01*
X96101081Y-136786476D02*
X96101081Y-137357905D01*
X96101081Y-137072191D02*
X95101081Y-137072191D01*
X95243938Y-137167429D01*
X95339176Y-137262667D01*
X95386795Y-137357905D01*
X95529652Y-136215048D02*
X95482033Y-136310286D01*
X95434414Y-136357905D01*
X95339176Y-136405524D01*
X95291557Y-136405524D01*
X95196319Y-136357905D01*
X95148700Y-136310286D01*
X95101081Y-136215048D01*
X95101081Y-136024571D01*
X95148700Y-135929333D01*
X95196319Y-135881714D01*
X95291557Y-135834095D01*
X95339176Y-135834095D01*
X95434414Y-135881714D01*
X95482033Y-135929333D01*
X95529652Y-136024571D01*
X95529652Y-136215048D01*
X95577271Y-136310286D01*
X95624890Y-136357905D01*
X95720129Y-136405524D01*
X95910605Y-136405524D01*
X96005843Y-136357905D01*
X96053462Y-136310286D01*
X96101081Y-136215048D01*
X96101081Y-136024571D01*
X96053462Y-135929333D01*
X96005843Y-135881714D01*
X95910605Y-135834095D01*
X95720129Y-135834095D01*
X95624890Y-135881714D01*
X95577271Y-135929333D01*
X95529652Y-136024571D01*
X107565543Y-155049457D02*
X107613162Y-155097076D01*
X107660781Y-155239933D01*
X107660781Y-155335171D01*
X107613162Y-155478029D01*
X107517924Y-155573267D01*
X107422686Y-155620886D01*
X107232210Y-155668505D01*
X107089352Y-155668505D01*
X106898876Y-155620886D01*
X106803638Y-155573267D01*
X106708400Y-155478029D01*
X106660781Y-155335171D01*
X106660781Y-155239933D01*
X106708400Y-155097076D01*
X106756019Y-155049457D01*
X106756019Y-154668505D02*
X106708400Y-154620886D01*
X106660781Y-154525648D01*
X106660781Y-154287552D01*
X106708400Y-154192314D01*
X106756019Y-154144695D01*
X106851257Y-154097076D01*
X106946495Y-154097076D01*
X107089352Y-154144695D01*
X107660781Y-154716124D01*
X107660781Y-154097076D01*
X107660781Y-153144695D02*
X107660781Y-153716124D01*
X107660781Y-153430410D02*
X106660781Y-153430410D01*
X106803638Y-153525648D01*
X106898876Y-153620886D01*
X106946495Y-153716124D01*
X106143143Y-155049457D02*
X106190762Y-155097076D01*
X106238381Y-155239933D01*
X106238381Y-155335171D01*
X106190762Y-155478029D01*
X106095524Y-155573267D01*
X106000286Y-155620886D01*
X105809810Y-155668505D01*
X105666952Y-155668505D01*
X105476476Y-155620886D01*
X105381238Y-155573267D01*
X105286000Y-155478029D01*
X105238381Y-155335171D01*
X105238381Y-155239933D01*
X105286000Y-155097076D01*
X105333619Y-155049457D01*
X105333619Y-154668505D02*
X105286000Y-154620886D01*
X105238381Y-154525648D01*
X105238381Y-154287552D01*
X105286000Y-154192314D01*
X105333619Y-154144695D01*
X105428857Y-154097076D01*
X105524095Y-154097076D01*
X105666952Y-154144695D01*
X106238381Y-154716124D01*
X106238381Y-154097076D01*
X105333619Y-153716124D02*
X105286000Y-153668505D01*
X105238381Y-153573267D01*
X105238381Y-153335171D01*
X105286000Y-153239933D01*
X105333619Y-153192314D01*
X105428857Y-153144695D01*
X105524095Y-153144695D01*
X105666952Y-153192314D01*
X106238381Y-153763743D01*
X106238381Y-153144695D01*
X109091505Y-150210781D02*
X109091505Y-149210781D01*
X109472458Y-149210781D01*
X109567696Y-149258400D01*
X109615315Y-149306019D01*
X109662934Y-149401257D01*
X109662934Y-149544114D01*
X109615315Y-149639352D01*
X109567696Y-149686971D01*
X109472458Y-149734590D01*
X109091505Y-149734590D01*
X109996267Y-149210781D02*
X110615315Y-149210781D01*
X110281981Y-149591733D01*
X110424839Y-149591733D01*
X110520077Y-149639352D01*
X110567696Y-149686971D01*
X110615315Y-149782210D01*
X110615315Y-150020305D01*
X110567696Y-150115543D01*
X110520077Y-150163162D01*
X110424839Y-150210781D01*
X110139124Y-150210781D01*
X110043886Y-150163162D01*
X109996267Y-150115543D01*
M02*
