G04 #@! TF.FileFunction,Legend,Bot*
%FSLAX46Y46*%
G04 Gerber Fmt 4.6, Leading zero omitted, Abs format (unit mm)*
G04 Created by KiCad (PCBNEW 4.0.0-rc1-stable) date Sun 22 Nov 2015 09:54:25 PM ICT*
%MOMM*%
G01*
G04 APERTURE LIST*
%ADD10C,0.100000*%
%ADD11C,0.300000*%
%ADD12C,1.000000*%
%ADD13C,0.066040*%
%ADD14C,0.203200*%
%ADD15C,0.002540*%
%ADD16C,0.150000*%
%ADD17C,0.088900*%
G04 APERTURE END LIST*
D10*
D11*
X108946071Y-130116856D02*
X107446071Y-130116856D01*
X108946071Y-130759713D02*
X108160357Y-130759713D01*
X108017500Y-130688284D01*
X107946071Y-130545427D01*
X107946071Y-130331142D01*
X108017500Y-130188284D01*
X108088929Y-130116856D01*
X107946071Y-131259713D02*
X107946071Y-131831142D01*
X107446071Y-131473999D02*
X108731786Y-131473999D01*
X108874643Y-131545427D01*
X108946071Y-131688285D01*
X108946071Y-131831142D01*
X107946071Y-132116856D02*
X107946071Y-132688285D01*
X107446071Y-132331142D02*
X108731786Y-132331142D01*
X108874643Y-132402570D01*
X108946071Y-132545428D01*
X108946071Y-132688285D01*
X107946071Y-133188285D02*
X109446071Y-133188285D01*
X108017500Y-133188285D02*
X107946071Y-133331142D01*
X107946071Y-133616856D01*
X108017500Y-133759713D01*
X108088929Y-133831142D01*
X108231786Y-133902571D01*
X108660357Y-133902571D01*
X108803214Y-133831142D01*
X108874643Y-133759713D01*
X108946071Y-133616856D01*
X108946071Y-133331142D01*
X108874643Y-133188285D01*
X108803214Y-134545428D02*
X108874643Y-134616856D01*
X108946071Y-134545428D01*
X108874643Y-134473999D01*
X108803214Y-134545428D01*
X108946071Y-134545428D01*
X108017500Y-134545428D02*
X108088929Y-134616856D01*
X108160357Y-134545428D01*
X108088929Y-134473999D01*
X108017500Y-134545428D01*
X108160357Y-134545428D01*
X107374643Y-136331142D02*
X109303214Y-135045428D01*
X107374643Y-137902571D02*
X109303214Y-136616857D01*
X107946071Y-138188286D02*
X107946071Y-138759715D01*
X107446071Y-138402572D02*
X108731786Y-138402572D01*
X108874643Y-138474000D01*
X108946071Y-138616858D01*
X108946071Y-138759715D01*
X108946071Y-139259715D02*
X107946071Y-139259715D01*
X107446071Y-139259715D02*
X107517500Y-139188286D01*
X107588929Y-139259715D01*
X107517500Y-139331143D01*
X107446071Y-139259715D01*
X107588929Y-139259715D01*
X107946071Y-139974001D02*
X108946071Y-139974001D01*
X108088929Y-139974001D02*
X108017500Y-140045429D01*
X107946071Y-140188287D01*
X107946071Y-140402572D01*
X108017500Y-140545429D01*
X108160357Y-140616858D01*
X108946071Y-140616858D01*
X107946071Y-141188287D02*
X108946071Y-141545430D01*
X107946071Y-141902572D02*
X108946071Y-141545430D01*
X109303214Y-141402572D01*
X109374643Y-141331144D01*
X109446071Y-141188287D01*
X108874643Y-143116858D02*
X108946071Y-142974001D01*
X108946071Y-142688287D01*
X108874643Y-142545429D01*
X108803214Y-142474001D01*
X108660357Y-142402572D01*
X108231786Y-142402572D01*
X108088929Y-142474001D01*
X108017500Y-142545429D01*
X107946071Y-142688287D01*
X107946071Y-142974001D01*
X108017500Y-143116858D01*
X108946071Y-143974001D02*
X108874643Y-143831143D01*
X108803214Y-143759715D01*
X108660357Y-143688286D01*
X108231786Y-143688286D01*
X108088929Y-143759715D01*
X108017500Y-143831143D01*
X107946071Y-143974001D01*
X107946071Y-144188286D01*
X108017500Y-144331143D01*
X108088929Y-144402572D01*
X108231786Y-144474001D01*
X108660357Y-144474001D01*
X108803214Y-144402572D01*
X108874643Y-144331143D01*
X108946071Y-144188286D01*
X108946071Y-143974001D01*
X108946071Y-145116858D02*
X107946071Y-145116858D01*
X108088929Y-145116858D02*
X108017500Y-145188286D01*
X107946071Y-145331144D01*
X107946071Y-145545429D01*
X108017500Y-145688286D01*
X108160357Y-145759715D01*
X108946071Y-145759715D01*
X108160357Y-145759715D02*
X108017500Y-145831144D01*
X107946071Y-145974001D01*
X107946071Y-146188286D01*
X108017500Y-146331144D01*
X108160357Y-146402572D01*
X108946071Y-146402572D01*
X108803214Y-147116858D02*
X108874643Y-147188286D01*
X108946071Y-147116858D01*
X108874643Y-147045429D01*
X108803214Y-147116858D01*
X108946071Y-147116858D01*
X108946071Y-148045430D02*
X108874643Y-147902572D01*
X108803214Y-147831144D01*
X108660357Y-147759715D01*
X108231786Y-147759715D01*
X108088929Y-147831144D01*
X108017500Y-147902572D01*
X107946071Y-148045430D01*
X107946071Y-148259715D01*
X108017500Y-148402572D01*
X108088929Y-148474001D01*
X108231786Y-148545430D01*
X108660357Y-148545430D01*
X108803214Y-148474001D01*
X108874643Y-148402572D01*
X108946071Y-148259715D01*
X108946071Y-148045430D01*
X108946071Y-149188287D02*
X107946071Y-149188287D01*
X108231786Y-149188287D02*
X108088929Y-149259715D01*
X108017500Y-149331144D01*
X107946071Y-149474001D01*
X107946071Y-149616858D01*
X107946071Y-150759715D02*
X109160357Y-150759715D01*
X109303214Y-150688286D01*
X109374643Y-150616858D01*
X109446071Y-150474001D01*
X109446071Y-150259715D01*
X109374643Y-150116858D01*
X108874643Y-150759715D02*
X108946071Y-150616858D01*
X108946071Y-150331144D01*
X108874643Y-150188286D01*
X108803214Y-150116858D01*
X108660357Y-150045429D01*
X108231786Y-150045429D01*
X108088929Y-150116858D01*
X108017500Y-150188286D01*
X107946071Y-150331144D01*
X107946071Y-150616858D01*
X108017500Y-150759715D01*
X107374643Y-152545429D02*
X109303214Y-151259715D01*
D12*
X100235024Y-129192238D02*
X100235024Y-131477953D01*
X104235024Y-130335096D02*
X100235024Y-130335096D01*
X104235024Y-132811286D02*
X101568357Y-132811286D01*
X100235024Y-132811286D02*
X100425500Y-132620810D01*
X100615976Y-132811286D01*
X100425500Y-133001762D01*
X100235024Y-132811286D01*
X100615976Y-132811286D01*
X101568357Y-134716048D02*
X104235024Y-134716048D01*
X101949310Y-134716048D02*
X101758833Y-134906524D01*
X101568357Y-135287477D01*
X101568357Y-135858905D01*
X101758833Y-136239857D01*
X102139786Y-136430334D01*
X104235024Y-136430334D01*
X101568357Y-137954144D02*
X104235024Y-138906525D01*
X101568357Y-139858905D02*
X104235024Y-138906525D01*
X105187405Y-138525572D01*
X105377881Y-138335096D01*
X105568357Y-137954144D01*
X103854071Y-143668429D02*
X104044548Y-143477953D01*
X104235024Y-142906524D01*
X104235024Y-142525572D01*
X104044548Y-141954144D01*
X103663595Y-141573191D01*
X103282643Y-141382715D01*
X102520738Y-141192239D01*
X101949310Y-141192239D01*
X101187405Y-141382715D01*
X100806452Y-141573191D01*
X100425500Y-141954144D01*
X100235024Y-142525572D01*
X100235024Y-142906524D01*
X100425500Y-143477953D01*
X100615976Y-143668429D01*
X104235024Y-145954144D02*
X104044548Y-145573191D01*
X103854071Y-145382715D01*
X103473119Y-145192239D01*
X102330262Y-145192239D01*
X101949310Y-145382715D01*
X101758833Y-145573191D01*
X101568357Y-145954144D01*
X101568357Y-146525572D01*
X101758833Y-146906524D01*
X101949310Y-147097001D01*
X102330262Y-147287477D01*
X103473119Y-147287477D01*
X103854071Y-147097001D01*
X104044548Y-146906524D01*
X104235024Y-146525572D01*
X104235024Y-145954144D01*
X104235024Y-149001763D02*
X101568357Y-149001763D01*
X101949310Y-149001763D02*
X101758833Y-149192239D01*
X101568357Y-149573192D01*
X101568357Y-150144620D01*
X101758833Y-150525572D01*
X102139786Y-150716049D01*
X104235024Y-150716049D01*
X102139786Y-150716049D02*
X101758833Y-150906525D01*
X101568357Y-151287477D01*
X101568357Y-151858906D01*
X101758833Y-152239858D01*
X102139786Y-152430334D01*
X104235024Y-152430334D01*
D13*
X124602740Y-150794720D02*
X123751840Y-150794720D01*
X123751840Y-150794720D02*
X123751840Y-150495000D01*
X124602740Y-150495000D02*
X123751840Y-150495000D01*
X124602740Y-150794720D02*
X124602740Y-150495000D01*
X124102360Y-150794720D02*
X123251460Y-150794720D01*
X123251460Y-150794720D02*
X123251460Y-150495000D01*
X124102360Y-150495000D02*
X123251460Y-150495000D01*
X124102360Y-150794720D02*
X124102360Y-150495000D01*
X123601980Y-150794720D02*
X122751080Y-150794720D01*
X122751080Y-150794720D02*
X122751080Y-150495000D01*
X123601980Y-150495000D02*
X122751080Y-150495000D01*
X123601980Y-150794720D02*
X123601980Y-150495000D01*
X123101600Y-150794720D02*
X122250700Y-150794720D01*
X122250700Y-150794720D02*
X122250700Y-150495000D01*
X123101600Y-150495000D02*
X122250700Y-150495000D01*
X123101600Y-150794720D02*
X123101600Y-150495000D01*
X122601220Y-150794720D02*
X121752860Y-150794720D01*
X121752860Y-150794720D02*
X121752860Y-150495000D01*
X122601220Y-150495000D02*
X121752860Y-150495000D01*
X122601220Y-150794720D02*
X122601220Y-150495000D01*
X122100840Y-150794720D02*
X121252480Y-150794720D01*
X121252480Y-150794720D02*
X121252480Y-150495000D01*
X122100840Y-150495000D02*
X121252480Y-150495000D01*
X122100840Y-150794720D02*
X122100840Y-150495000D01*
X121603000Y-150794720D02*
X120752100Y-150794720D01*
X120752100Y-150794720D02*
X120752100Y-150495000D01*
X121603000Y-150495000D02*
X120752100Y-150495000D01*
X121603000Y-150794720D02*
X121603000Y-150495000D01*
X121102620Y-150794720D02*
X120251720Y-150794720D01*
X120251720Y-150794720D02*
X120251720Y-150495000D01*
X121102620Y-150495000D02*
X120251720Y-150495000D01*
X121102620Y-150794720D02*
X121102620Y-150495000D01*
X120602240Y-150794720D02*
X119751340Y-150794720D01*
X119751340Y-150794720D02*
X119751340Y-150495000D01*
X120602240Y-150495000D02*
X119751340Y-150495000D01*
X120602240Y-150794720D02*
X120602240Y-150495000D01*
X120101860Y-150794720D02*
X119250960Y-150794720D01*
X119250960Y-150794720D02*
X119250960Y-150495000D01*
X120101860Y-150495000D02*
X119250960Y-150495000D01*
X120101860Y-150794720D02*
X120101860Y-150495000D01*
X119601480Y-150794720D02*
X118750580Y-150794720D01*
X118750580Y-150794720D02*
X118750580Y-150495000D01*
X119601480Y-150495000D02*
X118750580Y-150495000D01*
X119601480Y-150794720D02*
X119601480Y-150495000D01*
X119101100Y-150794720D02*
X118255280Y-150794720D01*
X118255280Y-150794720D02*
X118255280Y-150495000D01*
X119101100Y-150495000D02*
X118255280Y-150495000D01*
X119101100Y-150794720D02*
X119101100Y-150495000D01*
X118600720Y-150794720D02*
X117754900Y-150794720D01*
X117754900Y-150794720D02*
X117754900Y-150495000D01*
X118600720Y-150495000D02*
X117754900Y-150495000D01*
X118600720Y-150794720D02*
X118600720Y-150495000D01*
X118105420Y-150794720D02*
X117254520Y-150794720D01*
X117254520Y-150794720D02*
X117254520Y-150495000D01*
X118105420Y-150495000D02*
X117254520Y-150495000D01*
X118105420Y-150794720D02*
X118105420Y-150495000D01*
X117605040Y-150794720D02*
X116754140Y-150794720D01*
X116754140Y-150794720D02*
X116754140Y-150495000D01*
X117605040Y-150495000D02*
X116754140Y-150495000D01*
X117605040Y-150794720D02*
X117605040Y-150495000D01*
X117104660Y-150794720D02*
X116253760Y-150794720D01*
X116253760Y-150794720D02*
X116253760Y-150495000D01*
X117104660Y-150495000D02*
X116253760Y-150495000D01*
X117104660Y-150794720D02*
X117104660Y-150495000D01*
X116604280Y-150794720D02*
X115753380Y-150794720D01*
X115753380Y-150794720D02*
X115753380Y-150495000D01*
X116604280Y-150495000D02*
X115753380Y-150495000D01*
X116604280Y-150794720D02*
X116604280Y-150495000D01*
X116103900Y-150794720D02*
X115253000Y-150794720D01*
X115253000Y-150794720D02*
X115253000Y-150495000D01*
X116103900Y-150495000D02*
X115253000Y-150495000D01*
X116103900Y-150794720D02*
X116103900Y-150495000D01*
X115603520Y-150794720D02*
X114755160Y-150794720D01*
X114755160Y-150794720D02*
X114755160Y-150495000D01*
X115603520Y-150495000D02*
X114755160Y-150495000D01*
X115603520Y-150794720D02*
X115603520Y-150495000D01*
X115103140Y-150794720D02*
X114254780Y-150794720D01*
X114254780Y-150794720D02*
X114254780Y-150495000D01*
X115103140Y-150495000D02*
X114254780Y-150495000D01*
X115103140Y-150794720D02*
X115103140Y-150495000D01*
X114605300Y-150794720D02*
X113754400Y-150794720D01*
X113754400Y-150794720D02*
X113754400Y-150495000D01*
X114605300Y-150495000D02*
X113754400Y-150495000D01*
X114605300Y-150794720D02*
X114605300Y-150495000D01*
X114104920Y-150794720D02*
X113254020Y-150794720D01*
X113254020Y-150794720D02*
X113254020Y-150495000D01*
X114104920Y-150495000D02*
X113254020Y-150495000D01*
X114104920Y-150794720D02*
X114104920Y-150495000D01*
X113604540Y-150794720D02*
X112753640Y-150794720D01*
X112753640Y-150794720D02*
X112753640Y-150495000D01*
X113604540Y-150495000D02*
X112753640Y-150495000D01*
X113604540Y-150794720D02*
X113604540Y-150495000D01*
X113104160Y-150794720D02*
X112253260Y-150794720D01*
X112253260Y-150794720D02*
X112253260Y-150495000D01*
X113104160Y-150495000D02*
X112253260Y-150495000D01*
X113104160Y-150794720D02*
X113104160Y-150495000D01*
X113104160Y-131445000D02*
X112253260Y-131445000D01*
X112253260Y-131445000D02*
X112253260Y-131145280D01*
X113104160Y-131145280D02*
X112253260Y-131145280D01*
X113104160Y-131445000D02*
X113104160Y-131145280D01*
X113604540Y-131445000D02*
X112753640Y-131445000D01*
X112753640Y-131445000D02*
X112753640Y-131145280D01*
X113604540Y-131145280D02*
X112753640Y-131145280D01*
X113604540Y-131445000D02*
X113604540Y-131145280D01*
X114104920Y-131445000D02*
X113254020Y-131445000D01*
X113254020Y-131445000D02*
X113254020Y-131145280D01*
X114104920Y-131145280D02*
X113254020Y-131145280D01*
X114104920Y-131445000D02*
X114104920Y-131145280D01*
X114605300Y-131445000D02*
X113754400Y-131445000D01*
X113754400Y-131445000D02*
X113754400Y-131145280D01*
X114605300Y-131145280D02*
X113754400Y-131145280D01*
X114605300Y-131445000D02*
X114605300Y-131145280D01*
X115103140Y-131445000D02*
X114254780Y-131445000D01*
X114254780Y-131445000D02*
X114254780Y-131145280D01*
X115103140Y-131145280D02*
X114254780Y-131145280D01*
X115103140Y-131445000D02*
X115103140Y-131145280D01*
X115603520Y-131445000D02*
X114755160Y-131445000D01*
X114755160Y-131445000D02*
X114755160Y-131145280D01*
X115603520Y-131145280D02*
X114755160Y-131145280D01*
X115603520Y-131445000D02*
X115603520Y-131145280D01*
X116103900Y-131445000D02*
X115253000Y-131445000D01*
X115253000Y-131445000D02*
X115253000Y-131145280D01*
X116103900Y-131145280D02*
X115253000Y-131145280D01*
X116103900Y-131445000D02*
X116103900Y-131145280D01*
X116604280Y-131445000D02*
X115753380Y-131445000D01*
X115753380Y-131445000D02*
X115753380Y-131145280D01*
X116604280Y-131145280D02*
X115753380Y-131145280D01*
X116604280Y-131445000D02*
X116604280Y-131145280D01*
X117104660Y-131445000D02*
X116253760Y-131445000D01*
X116253760Y-131445000D02*
X116253760Y-131145280D01*
X117104660Y-131145280D02*
X116253760Y-131145280D01*
X117104660Y-131445000D02*
X117104660Y-131145280D01*
X117605040Y-131445000D02*
X116754140Y-131445000D01*
X116754140Y-131445000D02*
X116754140Y-131145280D01*
X117605040Y-131145280D02*
X116754140Y-131145280D01*
X117605040Y-131445000D02*
X117605040Y-131145280D01*
X118105420Y-131445000D02*
X117254520Y-131445000D01*
X117254520Y-131445000D02*
X117254520Y-131145280D01*
X118105420Y-131145280D02*
X117254520Y-131145280D01*
X118105420Y-131445000D02*
X118105420Y-131145280D01*
X118600720Y-131445000D02*
X117754900Y-131445000D01*
X117754900Y-131445000D02*
X117754900Y-131145280D01*
X118600720Y-131145280D02*
X117754900Y-131145280D01*
X118600720Y-131445000D02*
X118600720Y-131145280D01*
X119101100Y-131445000D02*
X118255280Y-131445000D01*
X118255280Y-131445000D02*
X118255280Y-131145280D01*
X119101100Y-131145280D02*
X118255280Y-131145280D01*
X119101100Y-131445000D02*
X119101100Y-131145280D01*
X119601480Y-131445000D02*
X118750580Y-131445000D01*
X118750580Y-131445000D02*
X118750580Y-131145280D01*
X119601480Y-131145280D02*
X118750580Y-131145280D01*
X119601480Y-131445000D02*
X119601480Y-131145280D01*
X120101860Y-131445000D02*
X119250960Y-131445000D01*
X119250960Y-131445000D02*
X119250960Y-131145280D01*
X120101860Y-131145280D02*
X119250960Y-131145280D01*
X120101860Y-131445000D02*
X120101860Y-131145280D01*
X120602240Y-131445000D02*
X119751340Y-131445000D01*
X119751340Y-131445000D02*
X119751340Y-131145280D01*
X120602240Y-131145280D02*
X119751340Y-131145280D01*
X120602240Y-131445000D02*
X120602240Y-131145280D01*
X121102620Y-131445000D02*
X120251720Y-131445000D01*
X120251720Y-131445000D02*
X120251720Y-131145280D01*
X121102620Y-131145280D02*
X120251720Y-131145280D01*
X121102620Y-131445000D02*
X121102620Y-131145280D01*
X121603000Y-131445000D02*
X120752100Y-131445000D01*
X120752100Y-131445000D02*
X120752100Y-131145280D01*
X121603000Y-131145280D02*
X120752100Y-131145280D01*
X121603000Y-131445000D02*
X121603000Y-131145280D01*
X122100840Y-131445000D02*
X121252480Y-131445000D01*
X121252480Y-131445000D02*
X121252480Y-131145280D01*
X122100840Y-131145280D02*
X121252480Y-131145280D01*
X122100840Y-131445000D02*
X122100840Y-131145280D01*
X122601220Y-131445000D02*
X121752860Y-131445000D01*
X121752860Y-131445000D02*
X121752860Y-131145280D01*
X122601220Y-131145280D02*
X121752860Y-131145280D01*
X122601220Y-131445000D02*
X122601220Y-131145280D01*
X123101600Y-131445000D02*
X122250700Y-131445000D01*
X122250700Y-131445000D02*
X122250700Y-131145280D01*
X123101600Y-131145280D02*
X122250700Y-131145280D01*
X123101600Y-131445000D02*
X123101600Y-131145280D01*
X123601980Y-131445000D02*
X122751080Y-131445000D01*
X122751080Y-131445000D02*
X122751080Y-131145280D01*
X123601980Y-131145280D02*
X122751080Y-131145280D01*
X123601980Y-131445000D02*
X123601980Y-131145280D01*
X124102360Y-131445000D02*
X123251460Y-131445000D01*
X123251460Y-131445000D02*
X123251460Y-131145280D01*
X124102360Y-131145280D02*
X123251460Y-131145280D01*
X124102360Y-131445000D02*
X124102360Y-131145280D01*
X124602740Y-131445000D02*
X123751840Y-131445000D01*
X123751840Y-131445000D02*
X123751840Y-131145280D01*
X124602740Y-131145280D02*
X123751840Y-131145280D01*
X124602740Y-131445000D02*
X124602740Y-131145280D01*
D14*
X112235480Y-131775200D02*
X112235480Y-150164800D01*
X112235480Y-150164800D02*
X124620520Y-150164800D01*
X124620520Y-150164800D02*
X124620520Y-131775200D01*
X124620520Y-131775200D02*
X112235480Y-131775200D01*
D15*
X123730710Y-148907500D02*
G75*
G03X123730710Y-148907500I-222710J0D01*
G01*
D16*
X118623000Y-153071000D02*
X117623000Y-153071000D01*
X117623000Y-154421000D02*
X118623000Y-154421000D01*
X121366000Y-153046000D02*
X120366000Y-153046000D01*
X120366000Y-154396000D02*
X121366000Y-154396000D01*
X124084000Y-153020000D02*
X123084000Y-153020000D01*
X123084000Y-154370000D02*
X124084000Y-154370000D01*
D17*
X125364619Y-146863405D02*
X126187095Y-146863405D01*
X126283857Y-146911786D01*
X126332238Y-146960167D01*
X126380619Y-147056929D01*
X126380619Y-147250452D01*
X126332238Y-147347214D01*
X126283857Y-147395595D01*
X126187095Y-147443976D01*
X125364619Y-147443976D01*
X125364619Y-147831024D02*
X125364619Y-148459976D01*
X125751667Y-148121310D01*
X125751667Y-148266452D01*
X125800048Y-148363214D01*
X125848429Y-148411595D01*
X125945190Y-148459976D01*
X126187095Y-148459976D01*
X126283857Y-148411595D01*
X126332238Y-148363214D01*
X126380619Y-148266452D01*
X126380619Y-147976167D01*
X126332238Y-147879405D01*
X126283857Y-147831024D01*
X117995595Y-135681963D02*
X117182795Y-135681963D01*
X117569843Y-135681963D02*
X117569843Y-136146420D01*
X117995595Y-136146420D02*
X117182795Y-136146420D01*
X117260205Y-136494763D02*
X117221500Y-136533468D01*
X117182795Y-136610877D01*
X117182795Y-136804401D01*
X117221500Y-136881811D01*
X117260205Y-136920515D01*
X117337614Y-136959220D01*
X117415024Y-136959220D01*
X117531138Y-136920515D01*
X117995595Y-136456058D01*
X117995595Y-136959220D01*
X117182795Y-137230153D02*
X117182795Y-137772020D01*
X117995595Y-137423677D01*
X117182795Y-138081658D02*
X117840776Y-138081658D01*
X117918186Y-138120363D01*
X117956890Y-138159067D01*
X117995595Y-138236477D01*
X117995595Y-138391296D01*
X117956890Y-138468705D01*
X117918186Y-138507410D01*
X117840776Y-138546115D01*
X117182795Y-138546115D01*
X117569843Y-139204096D02*
X117608548Y-139320210D01*
X117647252Y-139358915D01*
X117724662Y-139397620D01*
X117840776Y-139397620D01*
X117918186Y-139358915D01*
X117956890Y-139320210D01*
X117995595Y-139242801D01*
X117995595Y-138933163D01*
X117182795Y-138933163D01*
X117182795Y-139204096D01*
X117221500Y-139281506D01*
X117260205Y-139320210D01*
X117337614Y-139358915D01*
X117415024Y-139358915D01*
X117492433Y-139320210D01*
X117531138Y-139281506D01*
X117569843Y-139204096D01*
X117569843Y-138933163D01*
X117221500Y-140171715D02*
X117182795Y-140094306D01*
X117182795Y-139978191D01*
X117221500Y-139862077D01*
X117298910Y-139784668D01*
X117376319Y-139745963D01*
X117531138Y-139707258D01*
X117647252Y-139707258D01*
X117802071Y-139745963D01*
X117879481Y-139784668D01*
X117956890Y-139862077D01*
X117995595Y-139978191D01*
X117995595Y-140055601D01*
X117956890Y-140171715D01*
X117918186Y-140210420D01*
X117647252Y-140210420D01*
X117647252Y-140055601D01*
X117531138Y-140674877D02*
X117492433Y-140597468D01*
X117453729Y-140558763D01*
X117376319Y-140520058D01*
X117337614Y-140520058D01*
X117260205Y-140558763D01*
X117221500Y-140597468D01*
X117182795Y-140674877D01*
X117182795Y-140829696D01*
X117221500Y-140907106D01*
X117260205Y-140945810D01*
X117337614Y-140984515D01*
X117376319Y-140984515D01*
X117453729Y-140945810D01*
X117492433Y-140907106D01*
X117531138Y-140829696D01*
X117531138Y-140674877D01*
X117569843Y-140597468D01*
X117608548Y-140558763D01*
X117685957Y-140520058D01*
X117840776Y-140520058D01*
X117918186Y-140558763D01*
X117956890Y-140597468D01*
X117995595Y-140674877D01*
X117995595Y-140829696D01*
X117956890Y-140907106D01*
X117918186Y-140945810D01*
X117840776Y-140984515D01*
X117685957Y-140984515D01*
X117608548Y-140945810D01*
X117569843Y-140907106D01*
X117531138Y-140829696D01*
X117182795Y-141216744D02*
X117182795Y-141681201D01*
X117995595Y-141448972D02*
X117182795Y-141448972D01*
X117260205Y-141913429D02*
X117221500Y-141952134D01*
X117182795Y-142029543D01*
X117182795Y-142223067D01*
X117221500Y-142300477D01*
X117260205Y-142339181D01*
X117337614Y-142377886D01*
X117415024Y-142377886D01*
X117531138Y-142339181D01*
X117995595Y-141874724D01*
X117995595Y-142377886D01*
X117763367Y-142687524D02*
X117763367Y-143074572D01*
X117995595Y-142610115D02*
X117182795Y-142881048D01*
X117995595Y-143151981D01*
X117144090Y-144003486D02*
X118189119Y-143306801D01*
X117182795Y-144158306D02*
X117182795Y-144622763D01*
X117995595Y-144390534D02*
X117182795Y-144390534D01*
X117956890Y-144854991D02*
X117995595Y-144971105D01*
X117995595Y-145164629D01*
X117956890Y-145242039D01*
X117918186Y-145280743D01*
X117840776Y-145319448D01*
X117763367Y-145319448D01*
X117685957Y-145280743D01*
X117647252Y-145242039D01*
X117608548Y-145164629D01*
X117569843Y-145009810D01*
X117531138Y-144932401D01*
X117492433Y-144893696D01*
X117415024Y-144854991D01*
X117337614Y-144854991D01*
X117260205Y-144893696D01*
X117221500Y-144932401D01*
X117182795Y-145009810D01*
X117182795Y-145203334D01*
X117221500Y-145319448D01*
X117182795Y-145822610D02*
X117182795Y-145977429D01*
X117221500Y-146054838D01*
X117298910Y-146132248D01*
X117453729Y-146170953D01*
X117724662Y-146170953D01*
X117879481Y-146132248D01*
X117956890Y-146054838D01*
X117995595Y-145977429D01*
X117995595Y-145822610D01*
X117956890Y-145745200D01*
X117879481Y-145667791D01*
X117724662Y-145629086D01*
X117453729Y-145629086D01*
X117298910Y-145667791D01*
X117221500Y-145745200D01*
X117182795Y-145822610D01*
X117995595Y-146519296D02*
X117182795Y-146519296D01*
X117182795Y-146828934D01*
X117221500Y-146906343D01*
X117260205Y-146945048D01*
X117337614Y-146983753D01*
X117453729Y-146983753D01*
X117531138Y-146945048D01*
X117569843Y-146906343D01*
X117608548Y-146828934D01*
X117608548Y-146519296D01*
X117453729Y-147680439D02*
X117995595Y-147680439D01*
X117144090Y-147486915D02*
X117724662Y-147293391D01*
X117724662Y-147796553D01*
X117531138Y-148222305D02*
X117492433Y-148144896D01*
X117453729Y-148106191D01*
X117376319Y-148067486D01*
X117337614Y-148067486D01*
X117260205Y-148106191D01*
X117221500Y-148144896D01*
X117182795Y-148222305D01*
X117182795Y-148377124D01*
X117221500Y-148454534D01*
X117260205Y-148493238D01*
X117337614Y-148531943D01*
X117376319Y-148531943D01*
X117453729Y-148493238D01*
X117492433Y-148454534D01*
X117531138Y-148377124D01*
X117531138Y-148222305D01*
X117569843Y-148144896D01*
X117608548Y-148106191D01*
X117685957Y-148067486D01*
X117840776Y-148067486D01*
X117918186Y-148106191D01*
X117956890Y-148144896D01*
X117995595Y-148222305D01*
X117995595Y-148377124D01*
X117956890Y-148454534D01*
X117918186Y-148493238D01*
X117840776Y-148531943D01*
X117685957Y-148531943D01*
X117608548Y-148493238D01*
X117569843Y-148454534D01*
X117531138Y-148377124D01*
D16*
X118289666Y-156098381D02*
X118623000Y-155622190D01*
X118861095Y-156098381D02*
X118861095Y-155098381D01*
X118480142Y-155098381D01*
X118384904Y-155146000D01*
X118337285Y-155193619D01*
X118289666Y-155288857D01*
X118289666Y-155431714D01*
X118337285Y-155526952D01*
X118384904Y-155574571D01*
X118480142Y-155622190D01*
X118861095Y-155622190D01*
X117384904Y-155098381D02*
X117861095Y-155098381D01*
X117908714Y-155574571D01*
X117861095Y-155526952D01*
X117765857Y-155479333D01*
X117527761Y-155479333D01*
X117432523Y-155526952D01*
X117384904Y-155574571D01*
X117337285Y-155669810D01*
X117337285Y-155907905D01*
X117384904Y-156003143D01*
X117432523Y-156050762D01*
X117527761Y-156098381D01*
X117765857Y-156098381D01*
X117861095Y-156050762D01*
X117908714Y-156003143D01*
X121032666Y-156073381D02*
X121366000Y-155597190D01*
X121604095Y-156073381D02*
X121604095Y-155073381D01*
X121223142Y-155073381D01*
X121127904Y-155121000D01*
X121080285Y-155168619D01*
X121032666Y-155263857D01*
X121032666Y-155406714D01*
X121080285Y-155501952D01*
X121127904Y-155549571D01*
X121223142Y-155597190D01*
X121604095Y-155597190D01*
X120175523Y-155073381D02*
X120366000Y-155073381D01*
X120461238Y-155121000D01*
X120508857Y-155168619D01*
X120604095Y-155311476D01*
X120651714Y-155501952D01*
X120651714Y-155882905D01*
X120604095Y-155978143D01*
X120556476Y-156025762D01*
X120461238Y-156073381D01*
X120270761Y-156073381D01*
X120175523Y-156025762D01*
X120127904Y-155978143D01*
X120080285Y-155882905D01*
X120080285Y-155644810D01*
X120127904Y-155549571D01*
X120175523Y-155501952D01*
X120270761Y-155454333D01*
X120461238Y-155454333D01*
X120556476Y-155501952D01*
X120604095Y-155549571D01*
X120651714Y-155644810D01*
X123750666Y-156047381D02*
X124084000Y-155571190D01*
X124322095Y-156047381D02*
X124322095Y-155047381D01*
X123941142Y-155047381D01*
X123845904Y-155095000D01*
X123798285Y-155142619D01*
X123750666Y-155237857D01*
X123750666Y-155380714D01*
X123798285Y-155475952D01*
X123845904Y-155523571D01*
X123941142Y-155571190D01*
X124322095Y-155571190D01*
X123417333Y-155047381D02*
X122750666Y-155047381D01*
X123179238Y-156047381D01*
D17*
X99299244Y-145285619D02*
X100327339Y-145285619D01*
X100448291Y-145225143D01*
X100508768Y-145164667D01*
X100569244Y-145043714D01*
X100569244Y-144801810D01*
X100508768Y-144680857D01*
X100448291Y-144620381D01*
X100327339Y-144559905D01*
X99299244Y-144559905D01*
X99420196Y-144015619D02*
X99359720Y-143955143D01*
X99299244Y-143834191D01*
X99299244Y-143531810D01*
X99359720Y-143410857D01*
X99420196Y-143350381D01*
X99541149Y-143289905D01*
X99662101Y-143289905D01*
X99843530Y-143350381D01*
X100569244Y-144076095D01*
X100569244Y-143289905D01*
X85072704Y-154961809D02*
X83802704Y-154961809D01*
X84407466Y-154961809D02*
X84407466Y-154236095D01*
X85072704Y-154236095D02*
X83802704Y-154236095D01*
X83802704Y-153026571D02*
X83802704Y-153631333D01*
X84407466Y-153691809D01*
X84346990Y-153631333D01*
X84286513Y-153510381D01*
X84286513Y-153208000D01*
X84346990Y-153087047D01*
X84407466Y-153026571D01*
X84528418Y-152966095D01*
X84830799Y-152966095D01*
X84951751Y-153026571D01*
X85012228Y-153087047D01*
X85072704Y-153208000D01*
X85072704Y-153510381D01*
X85012228Y-153631333D01*
X84951751Y-153691809D01*
X83802704Y-152603238D02*
X83802704Y-151877523D01*
X85072704Y-152240380D02*
X83802704Y-152240380D01*
X85193656Y-150607523D02*
X85133180Y-150728476D01*
X85012228Y-150849428D01*
X84830799Y-151030857D01*
X84770323Y-151151809D01*
X84770323Y-151272761D01*
X85072704Y-151212285D02*
X85012228Y-151333238D01*
X84891275Y-151454190D01*
X84649370Y-151514666D01*
X84226037Y-151514666D01*
X83984132Y-151454190D01*
X83863180Y-151333238D01*
X83802704Y-151212285D01*
X83802704Y-150970381D01*
X83863180Y-150849428D01*
X83984132Y-150728476D01*
X84226037Y-150668000D01*
X84649370Y-150668000D01*
X84891275Y-150728476D01*
X85012228Y-150849428D01*
X85072704Y-150970381D01*
X85072704Y-151212285D01*
X83863180Y-149458476D02*
X83802704Y-149579428D01*
X83802704Y-149760857D01*
X83863180Y-149942285D01*
X83984132Y-150063238D01*
X84105085Y-150123714D01*
X84346990Y-150184190D01*
X84528418Y-150184190D01*
X84770323Y-150123714D01*
X84891275Y-150063238D01*
X85012228Y-149942285D01*
X85072704Y-149760857D01*
X85072704Y-149639905D01*
X85012228Y-149458476D01*
X84951751Y-149398000D01*
X84528418Y-149398000D01*
X84528418Y-149639905D01*
X83802704Y-148309428D02*
X83802704Y-148551333D01*
X83863180Y-148672285D01*
X83923656Y-148732762D01*
X84105085Y-148853714D01*
X84346990Y-148914190D01*
X84830799Y-148914190D01*
X84951751Y-148853714D01*
X85012228Y-148793238D01*
X85072704Y-148672285D01*
X85072704Y-148430381D01*
X85012228Y-148309428D01*
X84951751Y-148248952D01*
X84830799Y-148188476D01*
X84528418Y-148188476D01*
X84407466Y-148248952D01*
X84346990Y-148309428D01*
X84286513Y-148430381D01*
X84286513Y-148672285D01*
X84346990Y-148793238D01*
X84407466Y-148853714D01*
X84528418Y-148914190D01*
X83802704Y-147765142D02*
X83802704Y-146978952D01*
X84286513Y-147402285D01*
X84286513Y-147220857D01*
X84346990Y-147099904D01*
X84407466Y-147039428D01*
X84528418Y-146978952D01*
X84830799Y-146978952D01*
X84951751Y-147039428D01*
X85012228Y-147099904D01*
X85072704Y-147220857D01*
X85072704Y-147583714D01*
X85012228Y-147704666D01*
X84951751Y-147765142D01*
X84407466Y-146011333D02*
X84467942Y-145829904D01*
X84528418Y-145769428D01*
X84649370Y-145708952D01*
X84830799Y-145708952D01*
X84951751Y-145769428D01*
X85012228Y-145829904D01*
X85072704Y-145950857D01*
X85072704Y-146434666D01*
X83802704Y-146434666D01*
X83802704Y-146011333D01*
X83863180Y-145890380D01*
X83923656Y-145829904D01*
X84044609Y-145769428D01*
X84165561Y-145769428D01*
X84286513Y-145829904D01*
X84346990Y-145890380D01*
X84407466Y-146011333D01*
X84407466Y-146434666D01*
X84407466Y-144741333D02*
X84407466Y-145164666D01*
X85072704Y-145164666D02*
X83802704Y-145164666D01*
X83802704Y-144559904D01*
X85072704Y-143350381D02*
X84467942Y-143773714D01*
X85072704Y-144076095D02*
X83802704Y-144076095D01*
X83802704Y-143592286D01*
X83863180Y-143471333D01*
X83923656Y-143410857D01*
X84044609Y-143350381D01*
X84226037Y-143350381D01*
X84346990Y-143410857D01*
X84407466Y-143471333D01*
X84467942Y-143592286D01*
X84467942Y-144076095D01*
X83742228Y-141898952D02*
X85375085Y-142987524D01*
X84407466Y-141052286D02*
X84407466Y-141475619D01*
X85072704Y-141475619D02*
X83802704Y-141475619D01*
X83802704Y-140870857D01*
X84407466Y-139963715D02*
X84467942Y-139782286D01*
X84528418Y-139721810D01*
X84649370Y-139661334D01*
X84830799Y-139661334D01*
X84951751Y-139721810D01*
X85012228Y-139782286D01*
X85072704Y-139903239D01*
X85072704Y-140387048D01*
X83802704Y-140387048D01*
X83802704Y-139963715D01*
X83863180Y-139842762D01*
X83923656Y-139782286D01*
X84044609Y-139721810D01*
X84165561Y-139721810D01*
X84286513Y-139782286D01*
X84346990Y-139842762D01*
X84407466Y-139963715D01*
X84407466Y-140387048D01*
X83863180Y-138451810D02*
X83802704Y-138572762D01*
X83802704Y-138754191D01*
X83863180Y-138935619D01*
X83984132Y-139056572D01*
X84105085Y-139117048D01*
X84346990Y-139177524D01*
X84528418Y-139177524D01*
X84770323Y-139117048D01*
X84891275Y-139056572D01*
X85012228Y-138935619D01*
X85072704Y-138754191D01*
X85072704Y-138633239D01*
X85012228Y-138451810D01*
X84951751Y-138391334D01*
X84528418Y-138391334D01*
X84528418Y-138633239D01*
X84709847Y-137907524D02*
X84709847Y-137302762D01*
X85072704Y-138028477D02*
X83802704Y-137605143D01*
X85072704Y-137181810D01*
X85072704Y-136698001D02*
X85072704Y-136456096D01*
X85012228Y-136335144D01*
X84951751Y-136274668D01*
X84770323Y-136153715D01*
X84528418Y-136093239D01*
X84044609Y-136093239D01*
X83923656Y-136153715D01*
X83863180Y-136214191D01*
X83802704Y-136335144D01*
X83802704Y-136577048D01*
X83863180Y-136698001D01*
X83923656Y-136758477D01*
X84044609Y-136818953D01*
X84346990Y-136818953D01*
X84467942Y-136758477D01*
X84528418Y-136698001D01*
X84588894Y-136577048D01*
X84588894Y-136335144D01*
X84528418Y-136214191D01*
X84467942Y-136153715D01*
X84346990Y-136093239D01*
X83802704Y-135004667D02*
X83802704Y-135246572D01*
X83863180Y-135367524D01*
X83923656Y-135428001D01*
X84105085Y-135548953D01*
X84346990Y-135609429D01*
X84830799Y-135609429D01*
X84951751Y-135548953D01*
X85012228Y-135488477D01*
X85072704Y-135367524D01*
X85072704Y-135125620D01*
X85012228Y-135004667D01*
X84951751Y-134944191D01*
X84830799Y-134883715D01*
X84528418Y-134883715D01*
X84407466Y-134944191D01*
X84346990Y-135004667D01*
X84286513Y-135125620D01*
X84286513Y-135367524D01*
X84346990Y-135488477D01*
X84407466Y-135548953D01*
X84528418Y-135609429D01*
M02*
