G04 #@! TF.FileFunction,Soldermask,Top*
%FSLAX46Y46*%
G04 Gerber Fmt 4.6, Leading zero omitted, Abs format (unit mm)*
G04 Created by KiCad (PCBNEW 4.0.0-rc1-stable) date Sun 22 Nov 2015 09:54:25 PM ICT*
%MOMM*%
G01*
G04 APERTURE LIST*
%ADD10C,0.100000*%
%ADD11R,1.867200X1.867200*%
%ADD12O,1.867200X1.867200*%
%ADD13R,0.890000X0.940000*%
%ADD14R,1.040000X0.640000*%
%ADD15R,0.640000X1.040000*%
%ADD16R,2.240580X2.240580*%
%ADD17R,1.140000X1.640000*%
%ADD18R,0.940000X0.890000*%
%ADD19C,1.140000*%
%ADD20C,0.440000*%
%ADD21C,0.739440*%
%ADD22O,0.440000X0.440000*%
G04 APERTURE END LIST*
D10*
D11*
X95821500Y-157670000D03*
D12*
X95821500Y-160210000D03*
X98361500Y-157670000D03*
X98361500Y-160210000D03*
X100901500Y-157670000D03*
X100901500Y-160210000D03*
X103441500Y-157670000D03*
X103441500Y-160210000D03*
X105981500Y-157670000D03*
X105981500Y-160210000D03*
X108521500Y-157670000D03*
X108521500Y-160210000D03*
X111061500Y-157670000D03*
X111061500Y-160210000D03*
X113601500Y-157670000D03*
X113601500Y-160210000D03*
D13*
X96418400Y-152717000D03*
X96418400Y-154217000D03*
D14*
X90119200Y-136385000D03*
X90119200Y-137885000D03*
X91440000Y-137885000D03*
X91440000Y-136385000D03*
D15*
X90817000Y-151003000D03*
X92317000Y-151003000D03*
D11*
X95758000Y-122618000D03*
D12*
X95758000Y-125158000D03*
X98298000Y-122618000D03*
X98298000Y-125158000D03*
X100838000Y-122618000D03*
X100838000Y-125158000D03*
X103378000Y-122618000D03*
X103378000Y-125158000D03*
X105918000Y-122618000D03*
X105918000Y-125158000D03*
X108458000Y-122618000D03*
X108458000Y-125158000D03*
X110998000Y-122618000D03*
X110998000Y-125158000D03*
X113538000Y-122618000D03*
X113538000Y-125158000D03*
D16*
X116269000Y-129286000D03*
X120079000Y-129286000D03*
D17*
X108228000Y-130302000D03*
X105728000Y-130302000D03*
D13*
X105728000Y-128702000D03*
X105728000Y-127202000D03*
X108204000Y-128702000D03*
X108204000Y-127202000D03*
D14*
X109639000Y-153961000D03*
X109639000Y-155461000D03*
D15*
X112724000Y-130302000D03*
X114224000Y-130302000D03*
X102767000Y-130429000D03*
X104267000Y-130429000D03*
D13*
X100889000Y-137808000D03*
X100889000Y-136308000D03*
X94373700Y-137758000D03*
X94373700Y-136258000D03*
X86614000Y-139790000D03*
X86614000Y-138290000D03*
X86868000Y-151091000D03*
X86868000Y-152591000D03*
X100482000Y-152717000D03*
X100482000Y-154217000D03*
X91998800Y-152704000D03*
X91998800Y-154204000D03*
X124282000Y-143382000D03*
X124282000Y-144882000D03*
X120129000Y-151866000D03*
X120129000Y-153366000D03*
X121450000Y-151840000D03*
X121450000Y-153340000D03*
X124308000Y-146570000D03*
X124308000Y-148070000D03*
D18*
X122097000Y-128651000D03*
X123597000Y-128651000D03*
X114021000Y-128600000D03*
X112521000Y-128600000D03*
D13*
X111214000Y-130354000D03*
X111214000Y-128854000D03*
X109969000Y-130328000D03*
X109969000Y-128828000D03*
D18*
X103341000Y-133998000D03*
X101841000Y-133998000D03*
X103341000Y-135141000D03*
X101841000Y-135141000D03*
D13*
X97548700Y-137846000D03*
X97548700Y-136346000D03*
X105308400Y-153656600D03*
X105308400Y-155156600D03*
X103886000Y-153656600D03*
X103886000Y-155156600D03*
D19*
X109829600Y-152298400D03*
D20*
X98361500Y-142443480D03*
X98361500Y-143243580D03*
X98361500Y-144043680D03*
X98361500Y-147239000D03*
X98361500Y-148039100D03*
X98361500Y-148839200D03*
X97561400Y-142443480D03*
X97561400Y-143243580D03*
X97561400Y-144043680D03*
X97561400Y-147239000D03*
X97561400Y-148039100D03*
X97561400Y-148839200D03*
X96761300Y-142443480D03*
X96761300Y-143243580D03*
X96761300Y-144043680D03*
X96761300Y-147239000D03*
X96761300Y-148039100D03*
X96761300Y-148839200D03*
X95961200Y-142443480D03*
X95961200Y-143243580D03*
X95961200Y-144043680D03*
X95961200Y-147239000D03*
X95961200Y-148039100D03*
X95961200Y-148839200D03*
X95161100Y-142443480D03*
X95161100Y-143243580D03*
X95161100Y-144043680D03*
X95161100Y-147239000D03*
X95161100Y-148039100D03*
X95161100Y-148839200D03*
X94361000Y-142443480D03*
X94361000Y-143243580D03*
X94361000Y-144043680D03*
X94361000Y-147239000D03*
X94361000Y-148039100D03*
X94361000Y-148839200D03*
D21*
X85862160Y-141143000D03*
X98861880Y-150139680D03*
D20*
X93560900Y-142443480D03*
X93560900Y-143243580D03*
X93560900Y-144043680D03*
X93560900Y-147239000D03*
X93560900Y-148039100D03*
X93560900Y-148839200D03*
X92760800Y-142443480D03*
X92760800Y-143243580D03*
X92760800Y-144043680D03*
X92760800Y-147239000D03*
X92760800Y-148039100D03*
X92760800Y-148839200D03*
X91963240Y-142443480D03*
X91963240Y-143243580D03*
X91963240Y-144043680D03*
X91963240Y-147239000D03*
X91963240Y-148039100D03*
X91963240Y-148839200D03*
X91163140Y-142443480D03*
X91163140Y-143243580D03*
X91163140Y-144043680D03*
X91163140Y-147239000D03*
X91163140Y-148039100D03*
X91163140Y-148839200D03*
X90363040Y-142443480D03*
X90363040Y-143243580D03*
X90363040Y-144043680D03*
X90363040Y-147239000D03*
X90363040Y-148039100D03*
X90363040Y-148839200D03*
X89562940Y-142443480D03*
X89562940Y-143243580D03*
X89562940Y-144043680D03*
X89562940Y-147239000D03*
X89562940Y-148039100D03*
X89562940Y-148839200D03*
X88762840Y-142443480D03*
X88762840Y-143243580D03*
X88762840Y-144043680D03*
X88762840Y-147239000D03*
X88762840Y-148039100D03*
X88762840Y-148839200D03*
X87962740Y-142443480D03*
X87962740Y-143243580D03*
X87962740Y-144043680D03*
X87962740Y-147239000D03*
X87962740Y-148039100D03*
X87962740Y-148839200D03*
X87162640Y-142443480D03*
X87162640Y-143243580D03*
X87162640Y-144043680D03*
X87162640Y-147239000D03*
X87162640Y-148039100D03*
X87162640Y-148839200D03*
X86362540Y-142443480D03*
X86362540Y-143243580D03*
X86362540Y-144043680D03*
X86362540Y-147239000D03*
X86362540Y-148039100D03*
X86362540Y-148839200D03*
D22*
X104945440Y-132250440D03*
X105745540Y-132250440D03*
X106545640Y-132250440D03*
X107345740Y-132250440D03*
X108145840Y-132250440D03*
X108945940Y-132250440D03*
X109746040Y-132250440D03*
X110546140Y-132250440D03*
X111346240Y-132250440D03*
X112146340Y-132250440D03*
X112946440Y-132250440D03*
X113744000Y-132250440D03*
X114541560Y-132250440D03*
X115341660Y-132250440D03*
X116141760Y-132250440D03*
X116941860Y-132250440D03*
X117741960Y-132250440D03*
X118542060Y-132250440D03*
X119342160Y-132250440D03*
X120142260Y-132250440D03*
X120942360Y-132250440D03*
X121742460Y-132250440D03*
X122542560Y-132250440D03*
X104945440Y-133050540D03*
X105745540Y-133050540D03*
X106545640Y-133050540D03*
X107345740Y-133050540D03*
X108145840Y-133050540D03*
X108945940Y-133050540D03*
X109746040Y-133050540D03*
X110546140Y-133050540D03*
X111346240Y-133050540D03*
X112146340Y-133050540D03*
X112946440Y-133050540D03*
X113744000Y-133050540D03*
X114541560Y-133050540D03*
X115341660Y-133050540D03*
X116141760Y-133050540D03*
X116941860Y-133050540D03*
X117741960Y-133050540D03*
X118542060Y-133050540D03*
X119342160Y-133050540D03*
X120142260Y-133050540D03*
X120942360Y-133050540D03*
X121742460Y-133050540D03*
X122542560Y-133050540D03*
X104945440Y-133850640D03*
X105745540Y-133850640D03*
X106545640Y-133850640D03*
X107345740Y-133850640D03*
X108145840Y-133850640D03*
X108945940Y-133850640D03*
X109746040Y-133850640D03*
X110546140Y-133850640D03*
X111346240Y-133850640D03*
X112146340Y-133850640D03*
X112946440Y-133850640D03*
X113744000Y-133850640D03*
X114541560Y-133850640D03*
X115341660Y-133850640D03*
X116141760Y-133850640D03*
X116941860Y-133850640D03*
X117741960Y-133850640D03*
X118542060Y-133850640D03*
X119342160Y-133850640D03*
X120142260Y-133850640D03*
X120942360Y-133850640D03*
X121742460Y-133850640D03*
X122542560Y-133850640D03*
X104945440Y-134650740D03*
X105745540Y-134650740D03*
X106545640Y-134650740D03*
X107345740Y-134650740D03*
X108145840Y-134650740D03*
X108945940Y-134650740D03*
X109746040Y-134650740D03*
X110546140Y-134650740D03*
X111346240Y-134650740D03*
X112146340Y-134650740D03*
X112946440Y-134650740D03*
X113744000Y-134650740D03*
X114541560Y-134650740D03*
X115341660Y-134650740D03*
X116141760Y-134650740D03*
X116941860Y-134650740D03*
X117741960Y-134650740D03*
X118542060Y-134650740D03*
X119342160Y-134650740D03*
X120142260Y-134650740D03*
X120942360Y-134650740D03*
X121742460Y-134650740D03*
X122542560Y-134650740D03*
X104945440Y-135450840D03*
X105745540Y-135450840D03*
X106545640Y-135450840D03*
X107345740Y-135450840D03*
X108145840Y-135450840D03*
X108945940Y-135450840D03*
X109746040Y-135450840D03*
X110546140Y-135450840D03*
X111346240Y-135450840D03*
X112146340Y-135450840D03*
X112946440Y-135450840D03*
X113744000Y-135450840D03*
X114541560Y-135450840D03*
X115341660Y-135450840D03*
X116141760Y-135450840D03*
X116941860Y-135450840D03*
X117741960Y-135450840D03*
X118542060Y-135450840D03*
X119342160Y-135450840D03*
X120142260Y-135450840D03*
X120942360Y-135450840D03*
X121742460Y-135450840D03*
X122542560Y-135450840D03*
X104945440Y-146647160D03*
X105745540Y-146647160D03*
X106545640Y-146647160D03*
X107345740Y-146647160D03*
X108145840Y-146647160D03*
X108945940Y-146647160D03*
X109746040Y-146647160D03*
X110546140Y-146647160D03*
X111346240Y-146647160D03*
X112146340Y-146647160D03*
X112946440Y-146647160D03*
X113744000Y-146647160D03*
X114541560Y-146647160D03*
X115341660Y-146647160D03*
X116141760Y-146647160D03*
X116941860Y-146647160D03*
X117741960Y-146647160D03*
X118542060Y-146647160D03*
X119342160Y-146647160D03*
X120142260Y-146647160D03*
X120942360Y-146647160D03*
X121742460Y-146647160D03*
X122542560Y-146647160D03*
X104945440Y-147447260D03*
X105745540Y-147447260D03*
X106545640Y-147447260D03*
X107345740Y-147447260D03*
X108145840Y-147447260D03*
X108945940Y-147447260D03*
X109746040Y-147447260D03*
X110546140Y-147447260D03*
X111346240Y-147447260D03*
X112146340Y-147447260D03*
X112946440Y-147447260D03*
X113744000Y-147447260D03*
X114541560Y-147447260D03*
X115341660Y-147447260D03*
X116141760Y-147447260D03*
X116941860Y-147447260D03*
X117741960Y-147447260D03*
X118542060Y-147447260D03*
X119342160Y-147447260D03*
X120142260Y-147447260D03*
X120942360Y-147447260D03*
X121742460Y-147447260D03*
X122542560Y-147447260D03*
X104945440Y-148247360D03*
X105745540Y-148247360D03*
X106545640Y-148247360D03*
X107345740Y-148247360D03*
X108145840Y-148247360D03*
X108945940Y-148247360D03*
X109746040Y-148247360D03*
X110546140Y-148247360D03*
X111346240Y-148247360D03*
X112146340Y-148247360D03*
X112946440Y-148247360D03*
X113744000Y-148247360D03*
X114541560Y-148247360D03*
X115341660Y-148247360D03*
X116141760Y-148247360D03*
X116941860Y-148247360D03*
X117741960Y-148247360D03*
X118542060Y-148247360D03*
X119342160Y-148247360D03*
X120142260Y-148247360D03*
X120942360Y-148247360D03*
X121742460Y-148247360D03*
X122542560Y-148247360D03*
X104945440Y-149047460D03*
X105745540Y-149047460D03*
X106545640Y-149047460D03*
X107345740Y-149047460D03*
X108145840Y-149047460D03*
X108945940Y-149047460D03*
X109746040Y-149047460D03*
X110546140Y-149047460D03*
X111346240Y-149047460D03*
X112146340Y-149047460D03*
X112946440Y-149047460D03*
X113744000Y-149047460D03*
X114541560Y-149047460D03*
X115341660Y-149047460D03*
X116141760Y-149047460D03*
X116941860Y-149047460D03*
X117741960Y-149047460D03*
X118542060Y-149047460D03*
X119342160Y-149047460D03*
X120142260Y-149047460D03*
X120942360Y-149047460D03*
X121742460Y-149047460D03*
X122542560Y-149047460D03*
X104945440Y-149847560D03*
X105745540Y-149847560D03*
X106545640Y-149847560D03*
X107345740Y-149847560D03*
X108145840Y-149847560D03*
X108945940Y-149847560D03*
X109746040Y-149847560D03*
X110546140Y-149847560D03*
X111346240Y-149847560D03*
X112146340Y-149847560D03*
X112946440Y-149847560D03*
X113744000Y-149847560D03*
X114541560Y-149847560D03*
X115341660Y-149847560D03*
X116141760Y-149847560D03*
X116941860Y-149847560D03*
X117741960Y-149847560D03*
X118542060Y-149847560D03*
X119342160Y-149847560D03*
X120142260Y-149847560D03*
X120942360Y-149847560D03*
X121742460Y-149847560D03*
X122542560Y-149847560D03*
X104945440Y-136250940D03*
X105745540Y-136250940D03*
X106545640Y-136250940D03*
X107345740Y-136250940D03*
X108145840Y-136250940D03*
X119342160Y-136250940D03*
X120142260Y-136250940D03*
X120942360Y-136250940D03*
X121742460Y-136250940D03*
X122542560Y-136250940D03*
X104945440Y-137051040D03*
X105745540Y-137051040D03*
X106545640Y-137051040D03*
X107345740Y-137051040D03*
X108145840Y-137051040D03*
X119342160Y-137051040D03*
X120142260Y-137051040D03*
X120942360Y-137051040D03*
X121742460Y-137051040D03*
X122542560Y-137051040D03*
X104945440Y-137851140D03*
X105745540Y-137851140D03*
X106545640Y-137851140D03*
X107345740Y-137851140D03*
X108145840Y-137851140D03*
X119342160Y-137851140D03*
X120142260Y-137851140D03*
X120942360Y-137851140D03*
X121742460Y-137851140D03*
X122542560Y-137851140D03*
X104945440Y-138651240D03*
X105745540Y-138651240D03*
X106545640Y-138651240D03*
X107345740Y-138651240D03*
X108145840Y-138651240D03*
X119342160Y-138651240D03*
X120142260Y-138651240D03*
X120942360Y-138651240D03*
X121742460Y-138651240D03*
X122542560Y-138651240D03*
X104945440Y-139451340D03*
X105745540Y-139451340D03*
X106545640Y-139451340D03*
X107345740Y-139451340D03*
X108145840Y-139451340D03*
X119342160Y-139451340D03*
X120142260Y-139451340D03*
X120942360Y-139451340D03*
X121742460Y-139451340D03*
X122542560Y-139451340D03*
X104945440Y-140251440D03*
X105745540Y-140251440D03*
X106545640Y-140251440D03*
X107345740Y-140251440D03*
X108145840Y-140251440D03*
X119342160Y-140251440D03*
X120142260Y-140251440D03*
X120942360Y-140251440D03*
X121742460Y-140251440D03*
X122542560Y-140251440D03*
X104945440Y-141049000D03*
X105745540Y-141049000D03*
X106545640Y-141049000D03*
X107345740Y-141049000D03*
X108145840Y-141049000D03*
X119342160Y-141049000D03*
X120142260Y-141049000D03*
X120942360Y-141049000D03*
X121742460Y-141049000D03*
X122542560Y-141049000D03*
X104945440Y-141846560D03*
X105745540Y-141846560D03*
X106545640Y-141846560D03*
X107345740Y-141846560D03*
X108145840Y-141846560D03*
X119342160Y-141846560D03*
X120142260Y-141846560D03*
X120942360Y-141846560D03*
X121742460Y-141846560D03*
X122542560Y-141846560D03*
X104945440Y-142646660D03*
X105745540Y-142646660D03*
X106545640Y-142646660D03*
X107345740Y-142646660D03*
X108145840Y-142646660D03*
X119342160Y-142646660D03*
X120142260Y-142646660D03*
X120942360Y-142646660D03*
X121742460Y-142646660D03*
X122542560Y-142646660D03*
X104945440Y-143446760D03*
X105745540Y-143446760D03*
X106545640Y-143446760D03*
X107345740Y-143446760D03*
X108145840Y-143446760D03*
X119342160Y-143446760D03*
X120142260Y-143446760D03*
X120942360Y-143446760D03*
X121742460Y-143446760D03*
X122542560Y-143446760D03*
X104945440Y-144246860D03*
X105745540Y-144246860D03*
X106545640Y-144246860D03*
X107345740Y-144246860D03*
X108145840Y-144246860D03*
X119342160Y-144246860D03*
X120142260Y-144246860D03*
X120942360Y-144246860D03*
X121742460Y-144246860D03*
X122542560Y-144246860D03*
X104945440Y-145046960D03*
X105745540Y-145046960D03*
X106545640Y-145046960D03*
X107345740Y-145046960D03*
X108145840Y-145046960D03*
X119342160Y-145046960D03*
X120142260Y-145046960D03*
X120942360Y-145046960D03*
X121742460Y-145046960D03*
X122542560Y-145046960D03*
X104945440Y-145847060D03*
X105745540Y-145847060D03*
X106545640Y-145847060D03*
X107345740Y-145847060D03*
X108145840Y-145847060D03*
X119342160Y-145847060D03*
X120142260Y-145847060D03*
X120942360Y-145847060D03*
X121742460Y-145847060D03*
X122542560Y-145847060D03*
X110546140Y-137851140D03*
X111346240Y-137851140D03*
X112146340Y-137851140D03*
X112946440Y-137851140D03*
X113744000Y-137851140D03*
X114541560Y-137851140D03*
X115341660Y-137851140D03*
X116141760Y-137851140D03*
X116941860Y-137851140D03*
X110546140Y-138651240D03*
X111346240Y-138651240D03*
X112146340Y-138651240D03*
X112946440Y-138651240D03*
X113744000Y-138651240D03*
X114541560Y-138651240D03*
X115341660Y-138651240D03*
X116141760Y-138651240D03*
X116941860Y-138651240D03*
X110546140Y-139451340D03*
X111346240Y-139451340D03*
X112146340Y-139451340D03*
X112946440Y-139451340D03*
X113744000Y-139451340D03*
X114541560Y-139451340D03*
X115341660Y-139451340D03*
X116141760Y-139451340D03*
X116941860Y-139451340D03*
X110546140Y-140251440D03*
X111346240Y-140251440D03*
X112146340Y-140251440D03*
X112946440Y-140251440D03*
X113744000Y-140251440D03*
X114541560Y-140251440D03*
X115341660Y-140251440D03*
X116141760Y-140251440D03*
X116941860Y-140251440D03*
X110546140Y-141049000D03*
X111346240Y-141049000D03*
X112146340Y-141049000D03*
X112946440Y-141049000D03*
X113744000Y-141049000D03*
X114541560Y-141049000D03*
X115341660Y-141049000D03*
X116141760Y-141049000D03*
X116941860Y-141049000D03*
X110546140Y-141846560D03*
X111346240Y-141846560D03*
X112146340Y-141846560D03*
X112946440Y-141846560D03*
X113744000Y-141846560D03*
X114541560Y-141846560D03*
X115341660Y-141846560D03*
X116141760Y-141846560D03*
X116941860Y-141846560D03*
X110546140Y-142646660D03*
X111346240Y-142646660D03*
X112146340Y-142646660D03*
X112946440Y-142646660D03*
X113744000Y-142646660D03*
X114541560Y-142646660D03*
X115341660Y-142646660D03*
X116141760Y-142646660D03*
X116941860Y-142646660D03*
X110546140Y-143446760D03*
X111346240Y-143446760D03*
X112146340Y-143446760D03*
X112946440Y-143446760D03*
X113744000Y-143446760D03*
X114541560Y-143446760D03*
X115341660Y-143446760D03*
X116141760Y-143446760D03*
X116941860Y-143446760D03*
X110546140Y-144246860D03*
X111346240Y-144246860D03*
X112146340Y-144246860D03*
X112946440Y-144246860D03*
X113744000Y-144246860D03*
X114541560Y-144246860D03*
X115341660Y-144246860D03*
X116141760Y-144246860D03*
X116941860Y-144246860D03*
M02*
