G04 #@! TF.FileFunction,Soldermask,Bot*
%FSLAX46Y46*%
G04 Gerber Fmt 4.6, Leading zero omitted, Abs format (unit mm)*
G04 Created by KiCad (PCBNEW 4.0.0-rc1-stable) date Sun 22 Nov 2015 09:54:25 PM ICT*
%MOMM*%
G01*
G04 APERTURE LIST*
%ADD10C,0.100000*%
%ADD11R,1.867200X1.867200*%
%ADD12O,1.867200X1.867200*%
%ADD13R,0.439720X1.737660*%
%ADD14R,0.640000X1.040000*%
G04 APERTURE END LIST*
D10*
D11*
X95821500Y-157670000D03*
D12*
X95821500Y-160210000D03*
X98361500Y-157670000D03*
X98361500Y-160210000D03*
X100901500Y-157670000D03*
X100901500Y-160210000D03*
X103441500Y-157670000D03*
X103441500Y-160210000D03*
X105981500Y-157670000D03*
X105981500Y-160210000D03*
X108521500Y-157670000D03*
X108521500Y-160210000D03*
X111061500Y-157670000D03*
X111061500Y-160210000D03*
X113601500Y-157670000D03*
X113601500Y-160210000D03*
D11*
X95758000Y-122618000D03*
D12*
X95758000Y-125158000D03*
X98298000Y-122618000D03*
X98298000Y-125158000D03*
X100838000Y-122618000D03*
X100838000Y-125158000D03*
X103378000Y-122618000D03*
X103378000Y-125158000D03*
X105918000Y-122618000D03*
X105918000Y-125158000D03*
X108458000Y-122618000D03*
X108458000Y-125158000D03*
X110998000Y-122618000D03*
X110998000Y-125158000D03*
X113538000Y-122618000D03*
X113538000Y-125158000D03*
D13*
X124176020Y-150568660D03*
X123675640Y-150568660D03*
X123177800Y-150568660D03*
X122677420Y-150568660D03*
X122177040Y-150568660D03*
X121676660Y-150568660D03*
X121176280Y-150568660D03*
X120675900Y-150568660D03*
X120175520Y-150568660D03*
X119677680Y-150568660D03*
X119177300Y-150568660D03*
X118676920Y-150568660D03*
X118179080Y-150568660D03*
X117678700Y-150568660D03*
X117178320Y-150568660D03*
X116680480Y-150568660D03*
X116180100Y-150568660D03*
X115679720Y-150568660D03*
X115179340Y-150568660D03*
X114678960Y-150568660D03*
X114178580Y-150568660D03*
X113678200Y-150568660D03*
X113180360Y-150568660D03*
X112679980Y-150568660D03*
X112679980Y-131371340D03*
X113180360Y-131371340D03*
X113678200Y-131371340D03*
X114178580Y-131371340D03*
X114678960Y-131371340D03*
X115179340Y-131371340D03*
X115679720Y-131371340D03*
X116180100Y-131371340D03*
X116680480Y-131371340D03*
X117178320Y-131371340D03*
X117678700Y-131371340D03*
X118179080Y-131371340D03*
X118676920Y-131371340D03*
X119177300Y-131371340D03*
X119677680Y-131371340D03*
X120175520Y-131371340D03*
X120675900Y-131371340D03*
X121176280Y-131371340D03*
X121676660Y-131371340D03*
X122177040Y-131371340D03*
X122677420Y-131371340D03*
X123177800Y-131371340D03*
X123675640Y-131371340D03*
X124176020Y-131371340D03*
D14*
X117373000Y-153746000D03*
X118873000Y-153746000D03*
X120116000Y-153721000D03*
X121616000Y-153721000D03*
X122834000Y-153695000D03*
X124334000Y-153695000D03*
M02*
