M48
;DRILL file {KiCad 4.0.0-rc1-stable} date Sun 22 Nov 2015 09:54:21 PM ICT
;FORMAT={-:-/ absolute / metric / decimal}
FMAT,2
METRIC,TZ
T1C0.300
T2C1.016
%
G90
G05
M71
T1
X85.859Y-142.418
X86.335Y-149.403
X86.601Y-137.439
X86.639Y-140.526
X86.85Y-146.519
X86.868Y-153.53
X86.893Y-150.254
X86.918Y-141.714
X87.087Y-149.472
X87.541Y-146.85
X87.56Y-144.895
X87.948Y-141.858
X88.365Y-148.436
X88.59Y-144.957
X88.697Y-149.377
X88.991Y-141.634
X89.078Y-144.412
X89.154Y-143.637
X89.167Y-148.438
X89.205Y-142.888
X89.342Y-140.853
X89.456Y-149.618
X90.106Y-135.636
X90.129Y-146.921
X90.17Y-144.704
X90.63Y-141.849
X90.632Y-146.03
X90.678Y-139.615
X90.729Y-149.352
X91.107Y-141.303
X91.326Y-146.784
X91.362Y-146.059
X91.44Y-135.674
X91.554Y-149.454
X91.564Y-147.643
X91.681Y-150.978
X92.054Y-146.886
X92.103Y-144.758
X92.135Y-140.951
X92.38Y-137.935
X92.612Y-149.414
X92.748Y-152.641
X92.799Y-154.191
X92.875Y-140.815
X93.073Y-146.455
X93.154Y-143.637
X93.635Y-149.833
X93.791Y-141.408
X94.001Y-145.378
X94.361Y-135.42
X94.685Y-149.639
X94.742Y-146.159
X94.767Y-147.637
X94.842Y-141.619
X95.186Y-137.808
X95.305Y-150.405
X95.329Y-145.151
X95.423Y-149.509
X95.58Y-146.799
X96.172Y-142.062
X96.258Y-145.738
X96.444Y-155.156
X96.52Y-149.454
X96.919Y-142.085
X97.025Y-150.31
X97.132Y-146.68
X97.32Y-152.819
X97.549Y-135.484
X97.617Y-149.312
X97.638Y-144.754
X97.706Y-142.067
X97.955Y-147.637
X98.036Y-146.733
X98.336Y-137.846
X98.892Y-147.653
X99.301Y-148.729
X99.519Y-145.703
X99.907Y-143.455
X100.249Y-150.014
X100.266Y-146.059
X100.368Y-155.08
X100.825Y-135.382
X100.972Y-145.28
X100.999Y-150.26
X101.002Y-139.704
X101.014Y-148.909
X101.194Y-147.049
X101.602Y-145.687
X101.69Y-143.201
X101.732Y-139.53
X101.79Y-137.782
X101.854Y-152.394
X101.867Y-153.149
X102.437Y-149.216
X102.608Y-145.087
X102.677Y-151.989
X102.819Y-131.331
X102.921Y-153.848
X103.124Y-156.058
X103.378Y-133.083
X103.391Y-136.042
X103.454Y-147.489
X103.454Y-151.689
X103.475Y-149.439
X104.058Y-143.137
X104.07Y-145.087
X104.648Y-156.159
X104.966Y-127.178
X106.066Y-151.089
X106.147Y-148.641
X106.147Y-149.454
X106.401Y-153.772
X106.934Y-138.239
X106.944Y-148.638
X106.947Y-144.653
X106.947Y-147.853
X106.949Y-143.05
X106.959Y-145.454
X107.239Y-150.725
X107.721Y-142.227
X107.747Y-139.052
X107.747Y-143.053
X107.785Y-147.091
X108.369Y-145.466
X108.392Y-148.783
X108.615Y-150.346
X108.63Y-137.386
X108.632Y-138.849
X108.686Y-143.663
X108.797Y-139.58
X108.915Y-145.009
X108.948Y-136.746
X108.954Y-141.591
X108.991Y-127.14
X109.22Y-142.672
X109.281Y-137.884
X109.313Y-129.577
X109.347Y-149.441
X109.403Y-139.992
X109.426Y-143.687
X109.601Y-156.159
X109.696Y-141.708
X109.728Y-131.204
X109.838Y-145.75
X109.928Y-144.922
X110.049Y-150.688
X110.147Y-147.13
X110.273Y-136.654
X110.338Y-151.409
X110.947Y-138.24
X110.977Y-144.958
X111.745Y-147.846
X111.747Y-139.827
X111.78Y-131.318
X111.847Y-129.585
X111.875Y-145.968
X112.09Y-144.907
X112.857Y-146.159
X112.897Y-129.317
X113.434Y-144.716
X113.886Y-145.285
X114.135Y-140.64
X114.479Y-145.728
X114.94Y-145.124
X114.94Y-148.646
X114.943Y-143.048
X116.548Y-139.89
X116.631Y-145.044
X116.713Y-153.772
X117.094Y-146.05
X117.335Y-139.04
X117.869Y-141.008
X117.96Y-130.108
X118.192Y-139.493
X118.318Y-152.649
X118.332Y-142.69
X118.37Y-143.878
X118.485Y-129.559
X118.492Y-145.194
X118.783Y-145.91
X118.806Y-139.924
X118.847Y-152.118
X118.935Y-147.841
X118.948Y-148.653
X119.078Y-137.996
X119.232Y-152.801
X119.748Y-140.64
X120.536Y-132.651
X121.349Y-133.452
X121.361Y-137.465
X121.374Y-141.415
X121.734Y-130.118
X122.149Y-152.883
X122.174Y-140.627
X122.415Y-152.121
X122.947Y-137.447
X123.044Y-139.774
X123.114Y-135.611
X123.352Y-140.864
X123.366Y-142.567
X123.413Y-138.105
X123.431Y-143.421
X123.482Y-146.596
X123.557Y-136.188
X123.584Y-129.565
X123.596Y-153.518
X123.662Y-149.045
X123.706Y-139.127
X124.27Y-145.72
X124.396Y-148.895
T2
X95.758Y-122.618
X95.758Y-125.158
X95.822Y-157.67
X95.822Y-160.21
X98.298Y-122.618
X98.298Y-125.158
X98.361Y-157.67
X98.361Y-160.21
X100.838Y-122.618
X100.838Y-125.158
X100.901Y-157.67
X100.901Y-160.21
X103.378Y-122.618
X103.378Y-125.158
X103.441Y-157.67
X103.441Y-160.21
X105.918Y-122.618
X105.918Y-125.158
X105.981Y-157.67
X105.981Y-160.21
X108.458Y-122.618
X108.458Y-125.158
X108.521Y-157.67
X108.521Y-160.21
X110.998Y-122.618
X110.998Y-125.158
X111.061Y-157.67
X111.061Y-160.21
X113.538Y-122.618
X113.538Y-125.158
X113.602Y-157.67
X113.602Y-160.21
T0
M30
