G04 #@! TF.FileFunction,Legend,Bot*
%FSLAX46Y46*%
G04 Gerber Fmt 4.6, Leading zero omitted, Abs format (unit mm)*
G04 Created by KiCad (PCBNEW 4.0.0-2.201511301920+6191~38~ubuntu14.04.1-stable) date Thu 21 Jan 2016 01:29:08 PM ICT*
%MOMM*%
G01*
G04 APERTURE LIST*
%ADD10C,0.100000*%
%ADD11C,0.700000*%
%ADD12C,0.150000*%
%ADD13C,0.254000*%
%ADD14C,0.002540*%
G04 APERTURE END LIST*
D10*
D11*
X148944143Y-93083429D02*
X148944143Y-94797715D01*
X151944143Y-93940572D02*
X148944143Y-93940572D01*
X151944143Y-95797715D02*
X149944143Y-95797715D01*
X148944143Y-95797715D02*
X149087000Y-95654858D01*
X149229857Y-95797715D01*
X149087000Y-95940572D01*
X148944143Y-95797715D01*
X149229857Y-95797715D01*
X149944143Y-97226286D02*
X151944143Y-97226286D01*
X150229857Y-97226286D02*
X150087000Y-97369143D01*
X149944143Y-97654857D01*
X149944143Y-98083429D01*
X150087000Y-98369143D01*
X150372714Y-98512000D01*
X151944143Y-98512000D01*
X149944143Y-99654857D02*
X151944143Y-100369143D01*
X149944143Y-101083429D02*
X151944143Y-100369143D01*
X152658429Y-100083429D01*
X152801286Y-99940572D01*
X152944143Y-99654857D01*
X151658429Y-103940571D02*
X151801286Y-103797714D01*
X151944143Y-103369143D01*
X151944143Y-103083429D01*
X151801286Y-102654857D01*
X151515571Y-102369143D01*
X151229857Y-102226286D01*
X150658429Y-102083429D01*
X150229857Y-102083429D01*
X149658429Y-102226286D01*
X149372714Y-102369143D01*
X149087000Y-102654857D01*
X148944143Y-103083429D01*
X148944143Y-103369143D01*
X149087000Y-103797714D01*
X149229857Y-103940571D01*
X151944143Y-105654857D02*
X151801286Y-105369143D01*
X151658429Y-105226286D01*
X151372714Y-105083429D01*
X150515571Y-105083429D01*
X150229857Y-105226286D01*
X150087000Y-105369143D01*
X149944143Y-105654857D01*
X149944143Y-106083429D01*
X150087000Y-106369143D01*
X150229857Y-106512000D01*
X150515571Y-106654857D01*
X151372714Y-106654857D01*
X151658429Y-106512000D01*
X151801286Y-106369143D01*
X151944143Y-106083429D01*
X151944143Y-105654857D01*
X151944143Y-107940572D02*
X149944143Y-107940572D01*
X150229857Y-107940572D02*
X150087000Y-108083429D01*
X149944143Y-108369143D01*
X149944143Y-108797715D01*
X150087000Y-109083429D01*
X150372714Y-109226286D01*
X151944143Y-109226286D01*
X150372714Y-109226286D02*
X150087000Y-109369143D01*
X149944143Y-109654857D01*
X149944143Y-110083429D01*
X150087000Y-110369143D01*
X150372714Y-110512000D01*
X151944143Y-110512000D01*
D12*
X155459381Y-96147238D02*
X154459381Y-96147238D01*
X155459381Y-96575810D02*
X154935571Y-96575810D01*
X154840333Y-96528191D01*
X154792714Y-96432953D01*
X154792714Y-96290095D01*
X154840333Y-96194857D01*
X154887952Y-96147238D01*
X154792714Y-96909143D02*
X154792714Y-97290095D01*
X154459381Y-97052000D02*
X155316524Y-97052000D01*
X155411762Y-97099619D01*
X155459381Y-97194857D01*
X155459381Y-97290095D01*
X154792714Y-97480572D02*
X154792714Y-97861524D01*
X154459381Y-97623429D02*
X155316524Y-97623429D01*
X155411762Y-97671048D01*
X155459381Y-97766286D01*
X155459381Y-97861524D01*
X154792714Y-98194858D02*
X155792714Y-98194858D01*
X154840333Y-98194858D02*
X154792714Y-98290096D01*
X154792714Y-98480573D01*
X154840333Y-98575811D01*
X154887952Y-98623430D01*
X154983190Y-98671049D01*
X155268905Y-98671049D01*
X155364143Y-98623430D01*
X155411762Y-98575811D01*
X155459381Y-98480573D01*
X155459381Y-98290096D01*
X155411762Y-98194858D01*
X155364143Y-99099620D02*
X155411762Y-99147239D01*
X155459381Y-99099620D01*
X155411762Y-99052001D01*
X155364143Y-99099620D01*
X155459381Y-99099620D01*
X154840333Y-99099620D02*
X154887952Y-99147239D01*
X154935571Y-99099620D01*
X154887952Y-99052001D01*
X154840333Y-99099620D01*
X154935571Y-99099620D01*
X154411762Y-100290096D02*
X155697476Y-99432953D01*
X154411762Y-101337715D02*
X155697476Y-100480572D01*
X154792714Y-101528191D02*
X154792714Y-101909143D01*
X154459381Y-101671048D02*
X155316524Y-101671048D01*
X155411762Y-101718667D01*
X155459381Y-101813905D01*
X155459381Y-101909143D01*
X155459381Y-102242477D02*
X154792714Y-102242477D01*
X154459381Y-102242477D02*
X154507000Y-102194858D01*
X154554619Y-102242477D01*
X154507000Y-102290096D01*
X154459381Y-102242477D01*
X154554619Y-102242477D01*
X154792714Y-102718667D02*
X155459381Y-102718667D01*
X154887952Y-102718667D02*
X154840333Y-102766286D01*
X154792714Y-102861524D01*
X154792714Y-103004382D01*
X154840333Y-103099620D01*
X154935571Y-103147239D01*
X155459381Y-103147239D01*
X154792714Y-103528191D02*
X155459381Y-103766286D01*
X154792714Y-104004382D02*
X155459381Y-103766286D01*
X155697476Y-103671048D01*
X155745095Y-103623429D01*
X155792714Y-103528191D01*
X155411762Y-104813906D02*
X155459381Y-104718668D01*
X155459381Y-104528191D01*
X155411762Y-104432953D01*
X155364143Y-104385334D01*
X155268905Y-104337715D01*
X154983190Y-104337715D01*
X154887952Y-104385334D01*
X154840333Y-104432953D01*
X154792714Y-104528191D01*
X154792714Y-104718668D01*
X154840333Y-104813906D01*
X155459381Y-105385334D02*
X155411762Y-105290096D01*
X155364143Y-105242477D01*
X155268905Y-105194858D01*
X154983190Y-105194858D01*
X154887952Y-105242477D01*
X154840333Y-105290096D01*
X154792714Y-105385334D01*
X154792714Y-105528192D01*
X154840333Y-105623430D01*
X154887952Y-105671049D01*
X154983190Y-105718668D01*
X155268905Y-105718668D01*
X155364143Y-105671049D01*
X155411762Y-105623430D01*
X155459381Y-105528192D01*
X155459381Y-105385334D01*
X155459381Y-106147239D02*
X154792714Y-106147239D01*
X154887952Y-106147239D02*
X154840333Y-106194858D01*
X154792714Y-106290096D01*
X154792714Y-106432954D01*
X154840333Y-106528192D01*
X154935571Y-106575811D01*
X155459381Y-106575811D01*
X154935571Y-106575811D02*
X154840333Y-106623430D01*
X154792714Y-106718668D01*
X154792714Y-106861525D01*
X154840333Y-106956763D01*
X154935571Y-107004382D01*
X155459381Y-107004382D01*
X155364143Y-107480572D02*
X155411762Y-107528191D01*
X155459381Y-107480572D01*
X155411762Y-107432953D01*
X155364143Y-107480572D01*
X155459381Y-107480572D01*
X155459381Y-108099619D02*
X155411762Y-108004381D01*
X155364143Y-107956762D01*
X155268905Y-107909143D01*
X154983190Y-107909143D01*
X154887952Y-107956762D01*
X154840333Y-108004381D01*
X154792714Y-108099619D01*
X154792714Y-108242477D01*
X154840333Y-108337715D01*
X154887952Y-108385334D01*
X154983190Y-108432953D01*
X155268905Y-108432953D01*
X155364143Y-108385334D01*
X155411762Y-108337715D01*
X155459381Y-108242477D01*
X155459381Y-108099619D01*
X155459381Y-108861524D02*
X154792714Y-108861524D01*
X154983190Y-108861524D02*
X154887952Y-108909143D01*
X154840333Y-108956762D01*
X154792714Y-109052000D01*
X154792714Y-109147239D01*
X154792714Y-109909144D02*
X155602238Y-109909144D01*
X155697476Y-109861525D01*
X155745095Y-109813906D01*
X155792714Y-109718667D01*
X155792714Y-109575810D01*
X155745095Y-109480572D01*
X155411762Y-109909144D02*
X155459381Y-109813906D01*
X155459381Y-109623429D01*
X155411762Y-109528191D01*
X155364143Y-109480572D01*
X155268905Y-109432953D01*
X154983190Y-109432953D01*
X154887952Y-109480572D01*
X154840333Y-109528191D01*
X154792714Y-109623429D01*
X154792714Y-109813906D01*
X154840333Y-109909144D01*
X154411762Y-111099620D02*
X155697476Y-110242477D01*
D13*
X142582900Y-109834680D02*
X135387080Y-109834680D01*
X144084040Y-99636580D02*
X144084040Y-96738440D01*
X142582900Y-95138240D02*
X135387080Y-95138240D01*
X129585720Y-95138240D02*
X129585720Y-98437700D01*
X130286760Y-100838000D02*
X130286760Y-109834680D01*
X132585460Y-95138240D02*
X129585720Y-95138240D01*
X132585460Y-109834680D02*
X130286760Y-109834680D01*
X129585720Y-98437700D02*
X130286760Y-100838000D01*
D14*
G36*
X155963620Y-93121480D02*
X155958540Y-93131640D01*
X155943300Y-93154500D01*
X155922980Y-93187520D01*
X155895040Y-93228160D01*
X155869640Y-93266260D01*
X155846780Y-93299280D01*
X155831540Y-93322140D01*
X155826460Y-93332300D01*
X155829000Y-93337380D01*
X155839160Y-93355160D01*
X155851860Y-93383100D01*
X155859480Y-93398340D01*
X155872180Y-93423740D01*
X155874720Y-93436440D01*
X155869640Y-93438980D01*
X155851860Y-93449140D01*
X155818840Y-93461840D01*
X155775660Y-93482160D01*
X155724860Y-93502480D01*
X155668980Y-93525340D01*
X155613100Y-93548200D01*
X155559760Y-93571060D01*
X155511500Y-93591380D01*
X155473400Y-93606620D01*
X155445460Y-93616780D01*
X155435300Y-93621860D01*
X155432760Y-93619320D01*
X155420060Y-93606620D01*
X155404820Y-93586300D01*
X155364180Y-93538040D01*
X155305760Y-93492320D01*
X155239720Y-93461840D01*
X155166060Y-93454220D01*
X155100020Y-93461840D01*
X155036520Y-93487240D01*
X154975560Y-93532960D01*
X154932380Y-93588840D01*
X154904440Y-93654880D01*
X154896820Y-93726000D01*
X154904440Y-93794580D01*
X154929840Y-93860620D01*
X154975560Y-93921580D01*
X155003500Y-93944440D01*
X155064460Y-93980000D01*
X155125420Y-94000320D01*
X155140660Y-94000320D01*
X155211780Y-93997780D01*
X155280360Y-93977460D01*
X155338780Y-93941900D01*
X155389580Y-93888560D01*
X155394660Y-93883480D01*
X155412440Y-93858080D01*
X155422600Y-93842840D01*
X155432760Y-93830140D01*
X155648660Y-93919040D01*
X155684220Y-93934280D01*
X155742640Y-93959680D01*
X155793440Y-93980000D01*
X155834080Y-93997780D01*
X155859480Y-94010480D01*
X155872180Y-94015560D01*
X155872180Y-94015560D01*
X155872180Y-94023180D01*
X155867100Y-94038420D01*
X155851860Y-94068900D01*
X155841700Y-94089220D01*
X155831540Y-94112080D01*
X155826460Y-94122240D01*
X155831540Y-94132400D01*
X155846780Y-94152720D01*
X155867100Y-94185740D01*
X155892500Y-94223840D01*
X155917900Y-94259400D01*
X155940760Y-94294960D01*
X155956000Y-94317820D01*
X155963620Y-94330520D01*
X155963620Y-94333060D01*
X155956000Y-94343220D01*
X155940760Y-94363540D01*
X155912820Y-94391480D01*
X155872180Y-94432120D01*
X155867100Y-94439740D01*
X155831540Y-94472760D01*
X155801060Y-94500700D01*
X155780740Y-94521020D01*
X155773120Y-94526100D01*
X155773120Y-94526100D01*
X155760420Y-94521020D01*
X155735020Y-94505780D01*
X155702000Y-94482920D01*
X155661360Y-94454980D01*
X155557220Y-94383860D01*
X155460700Y-94424500D01*
X155430220Y-94434660D01*
X155394660Y-94449900D01*
X155369260Y-94462600D01*
X155356560Y-94467680D01*
X155354020Y-94477840D01*
X155346400Y-94505780D01*
X155338780Y-94543880D01*
X155331160Y-94589600D01*
X155321000Y-94635320D01*
X155313380Y-94673420D01*
X155308300Y-94703900D01*
X155305760Y-94716600D01*
X155303220Y-94719140D01*
X155298140Y-94721680D01*
X155285440Y-94724220D01*
X155260040Y-94724220D01*
X155221940Y-94724220D01*
X155166060Y-94724220D01*
X155160980Y-94724220D01*
X155107640Y-94724220D01*
X155067000Y-94724220D01*
X155041600Y-94721680D01*
X155031440Y-94719140D01*
X155031440Y-94719140D01*
X155026360Y-94706440D01*
X155021280Y-94678500D01*
X155013660Y-94640400D01*
X155003500Y-94592140D01*
X155003500Y-94589600D01*
X154995880Y-94541340D01*
X154985720Y-94503240D01*
X154980640Y-94475300D01*
X154975560Y-94462600D01*
X154973020Y-94460060D01*
X154955240Y-94449900D01*
X154924760Y-94437200D01*
X154889200Y-94421960D01*
X154853640Y-94406720D01*
X154818080Y-94391480D01*
X154795220Y-94383860D01*
X154782520Y-94381320D01*
X154782520Y-94381320D01*
X154772360Y-94388940D01*
X154746960Y-94404180D01*
X154713940Y-94427040D01*
X154673300Y-94454980D01*
X154668220Y-94457520D01*
X154630120Y-94485460D01*
X154594560Y-94505780D01*
X154571700Y-94521020D01*
X154561540Y-94526100D01*
X154559000Y-94526100D01*
X154548840Y-94518480D01*
X154525980Y-94498160D01*
X154495500Y-94467680D01*
X154459940Y-94432120D01*
X154449780Y-94421960D01*
X154411680Y-94383860D01*
X154386280Y-94355920D01*
X154373580Y-94338140D01*
X154368500Y-94330520D01*
X154371040Y-94330520D01*
X154376120Y-94317820D01*
X154393900Y-94292420D01*
X154416760Y-94259400D01*
X154444700Y-94218760D01*
X154447240Y-94216220D01*
X154472640Y-94175580D01*
X154495500Y-94142560D01*
X154510740Y-94119700D01*
X154518360Y-94109540D01*
X154518360Y-94107000D01*
X154513280Y-94091760D01*
X154503120Y-94061280D01*
X154490420Y-94028260D01*
X154475180Y-93990160D01*
X154459940Y-93957140D01*
X154449780Y-93931740D01*
X154442160Y-93919040D01*
X154442160Y-93919040D01*
X154426920Y-93913960D01*
X154396440Y-93908880D01*
X154355800Y-93898720D01*
X154307540Y-93891100D01*
X154299920Y-93888560D01*
X154251660Y-93880940D01*
X154213560Y-93873320D01*
X154185620Y-93865700D01*
X154172920Y-93863160D01*
X154172920Y-93858080D01*
X154170380Y-93832680D01*
X154170380Y-93797120D01*
X154170380Y-93753940D01*
X154170380Y-93710760D01*
X154170380Y-93667580D01*
X154172920Y-93629480D01*
X154172920Y-93604080D01*
X154175460Y-93591380D01*
X154178000Y-93591380D01*
X154190700Y-93586300D01*
X154221180Y-93581220D01*
X154261820Y-93571060D01*
X154312620Y-93563440D01*
X154320240Y-93560900D01*
X154368500Y-93553280D01*
X154406600Y-93543120D01*
X154434540Y-93538040D01*
X154444700Y-93535500D01*
X154447240Y-93530420D01*
X154454860Y-93512640D01*
X154467560Y-93479620D01*
X154485340Y-93438980D01*
X154520900Y-93347540D01*
X154444700Y-93235780D01*
X154437080Y-93225620D01*
X154409140Y-93184980D01*
X154388820Y-93151960D01*
X154373580Y-93129100D01*
X154368500Y-93118940D01*
X154368500Y-93118940D01*
X154378660Y-93108780D01*
X154398980Y-93085920D01*
X154429460Y-93055440D01*
X154462480Y-93019880D01*
X154490420Y-92994480D01*
X154520900Y-92964000D01*
X154541220Y-92943680D01*
X154556460Y-92933520D01*
X154564080Y-92928440D01*
X154569160Y-92930980D01*
X154581860Y-92936060D01*
X154604720Y-92953840D01*
X154640280Y-92976700D01*
X154678380Y-93004640D01*
X154713940Y-93027500D01*
X154749500Y-93050360D01*
X154777440Y-93065600D01*
X154790140Y-93073220D01*
X154795220Y-93070680D01*
X154818080Y-93063060D01*
X154851100Y-93050360D01*
X154891740Y-93032580D01*
X154980640Y-92994480D01*
X154990800Y-92936060D01*
X154998420Y-92900500D01*
X155006040Y-92849700D01*
X155016200Y-92803980D01*
X155031440Y-92730320D01*
X155298140Y-92727780D01*
X155303220Y-92737940D01*
X155308300Y-92750640D01*
X155313380Y-92776040D01*
X155321000Y-92816680D01*
X155328620Y-92862400D01*
X155336240Y-92900500D01*
X155343860Y-92941140D01*
X155348940Y-92969080D01*
X155351480Y-92981780D01*
X155356560Y-92984320D01*
X155376880Y-92994480D01*
X155407360Y-93009720D01*
X155442920Y-93024960D01*
X155481020Y-93040200D01*
X155516580Y-93052900D01*
X155541980Y-93063060D01*
X155557220Y-93068140D01*
X155567380Y-93063060D01*
X155590240Y-93047820D01*
X155623260Y-93024960D01*
X155661360Y-92999560D01*
X155702000Y-92971620D01*
X155735020Y-92948760D01*
X155760420Y-92933520D01*
X155770580Y-92925900D01*
X155778200Y-92930980D01*
X155795980Y-92946220D01*
X155826460Y-92974160D01*
X155872180Y-93019880D01*
X155877260Y-93027500D01*
X155912820Y-93060520D01*
X155938220Y-93091000D01*
X155958540Y-93111320D01*
X155963620Y-93121480D01*
X155963620Y-93121480D01*
G37*
X155963620Y-93121480D02*
X155958540Y-93131640D01*
X155943300Y-93154500D01*
X155922980Y-93187520D01*
X155895040Y-93228160D01*
X155869640Y-93266260D01*
X155846780Y-93299280D01*
X155831540Y-93322140D01*
X155826460Y-93332300D01*
X155829000Y-93337380D01*
X155839160Y-93355160D01*
X155851860Y-93383100D01*
X155859480Y-93398340D01*
X155872180Y-93423740D01*
X155874720Y-93436440D01*
X155869640Y-93438980D01*
X155851860Y-93449140D01*
X155818840Y-93461840D01*
X155775660Y-93482160D01*
X155724860Y-93502480D01*
X155668980Y-93525340D01*
X155613100Y-93548200D01*
X155559760Y-93571060D01*
X155511500Y-93591380D01*
X155473400Y-93606620D01*
X155445460Y-93616780D01*
X155435300Y-93621860D01*
X155432760Y-93619320D01*
X155420060Y-93606620D01*
X155404820Y-93586300D01*
X155364180Y-93538040D01*
X155305760Y-93492320D01*
X155239720Y-93461840D01*
X155166060Y-93454220D01*
X155100020Y-93461840D01*
X155036520Y-93487240D01*
X154975560Y-93532960D01*
X154932380Y-93588840D01*
X154904440Y-93654880D01*
X154896820Y-93726000D01*
X154904440Y-93794580D01*
X154929840Y-93860620D01*
X154975560Y-93921580D01*
X155003500Y-93944440D01*
X155064460Y-93980000D01*
X155125420Y-94000320D01*
X155140660Y-94000320D01*
X155211780Y-93997780D01*
X155280360Y-93977460D01*
X155338780Y-93941900D01*
X155389580Y-93888560D01*
X155394660Y-93883480D01*
X155412440Y-93858080D01*
X155422600Y-93842840D01*
X155432760Y-93830140D01*
X155648660Y-93919040D01*
X155684220Y-93934280D01*
X155742640Y-93959680D01*
X155793440Y-93980000D01*
X155834080Y-93997780D01*
X155859480Y-94010480D01*
X155872180Y-94015560D01*
X155872180Y-94015560D01*
X155872180Y-94023180D01*
X155867100Y-94038420D01*
X155851860Y-94068900D01*
X155841700Y-94089220D01*
X155831540Y-94112080D01*
X155826460Y-94122240D01*
X155831540Y-94132400D01*
X155846780Y-94152720D01*
X155867100Y-94185740D01*
X155892500Y-94223840D01*
X155917900Y-94259400D01*
X155940760Y-94294960D01*
X155956000Y-94317820D01*
X155963620Y-94330520D01*
X155963620Y-94333060D01*
X155956000Y-94343220D01*
X155940760Y-94363540D01*
X155912820Y-94391480D01*
X155872180Y-94432120D01*
X155867100Y-94439740D01*
X155831540Y-94472760D01*
X155801060Y-94500700D01*
X155780740Y-94521020D01*
X155773120Y-94526100D01*
X155773120Y-94526100D01*
X155760420Y-94521020D01*
X155735020Y-94505780D01*
X155702000Y-94482920D01*
X155661360Y-94454980D01*
X155557220Y-94383860D01*
X155460700Y-94424500D01*
X155430220Y-94434660D01*
X155394660Y-94449900D01*
X155369260Y-94462600D01*
X155356560Y-94467680D01*
X155354020Y-94477840D01*
X155346400Y-94505780D01*
X155338780Y-94543880D01*
X155331160Y-94589600D01*
X155321000Y-94635320D01*
X155313380Y-94673420D01*
X155308300Y-94703900D01*
X155305760Y-94716600D01*
X155303220Y-94719140D01*
X155298140Y-94721680D01*
X155285440Y-94724220D01*
X155260040Y-94724220D01*
X155221940Y-94724220D01*
X155166060Y-94724220D01*
X155160980Y-94724220D01*
X155107640Y-94724220D01*
X155067000Y-94724220D01*
X155041600Y-94721680D01*
X155031440Y-94719140D01*
X155031440Y-94719140D01*
X155026360Y-94706440D01*
X155021280Y-94678500D01*
X155013660Y-94640400D01*
X155003500Y-94592140D01*
X155003500Y-94589600D01*
X154995880Y-94541340D01*
X154985720Y-94503240D01*
X154980640Y-94475300D01*
X154975560Y-94462600D01*
X154973020Y-94460060D01*
X154955240Y-94449900D01*
X154924760Y-94437200D01*
X154889200Y-94421960D01*
X154853640Y-94406720D01*
X154818080Y-94391480D01*
X154795220Y-94383860D01*
X154782520Y-94381320D01*
X154782520Y-94381320D01*
X154772360Y-94388940D01*
X154746960Y-94404180D01*
X154713940Y-94427040D01*
X154673300Y-94454980D01*
X154668220Y-94457520D01*
X154630120Y-94485460D01*
X154594560Y-94505780D01*
X154571700Y-94521020D01*
X154561540Y-94526100D01*
X154559000Y-94526100D01*
X154548840Y-94518480D01*
X154525980Y-94498160D01*
X154495500Y-94467680D01*
X154459940Y-94432120D01*
X154449780Y-94421960D01*
X154411680Y-94383860D01*
X154386280Y-94355920D01*
X154373580Y-94338140D01*
X154368500Y-94330520D01*
X154371040Y-94330520D01*
X154376120Y-94317820D01*
X154393900Y-94292420D01*
X154416760Y-94259400D01*
X154444700Y-94218760D01*
X154447240Y-94216220D01*
X154472640Y-94175580D01*
X154495500Y-94142560D01*
X154510740Y-94119700D01*
X154518360Y-94109540D01*
X154518360Y-94107000D01*
X154513280Y-94091760D01*
X154503120Y-94061280D01*
X154490420Y-94028260D01*
X154475180Y-93990160D01*
X154459940Y-93957140D01*
X154449780Y-93931740D01*
X154442160Y-93919040D01*
X154442160Y-93919040D01*
X154426920Y-93913960D01*
X154396440Y-93908880D01*
X154355800Y-93898720D01*
X154307540Y-93891100D01*
X154299920Y-93888560D01*
X154251660Y-93880940D01*
X154213560Y-93873320D01*
X154185620Y-93865700D01*
X154172920Y-93863160D01*
X154172920Y-93858080D01*
X154170380Y-93832680D01*
X154170380Y-93797120D01*
X154170380Y-93753940D01*
X154170380Y-93710760D01*
X154170380Y-93667580D01*
X154172920Y-93629480D01*
X154172920Y-93604080D01*
X154175460Y-93591380D01*
X154178000Y-93591380D01*
X154190700Y-93586300D01*
X154221180Y-93581220D01*
X154261820Y-93571060D01*
X154312620Y-93563440D01*
X154320240Y-93560900D01*
X154368500Y-93553280D01*
X154406600Y-93543120D01*
X154434540Y-93538040D01*
X154444700Y-93535500D01*
X154447240Y-93530420D01*
X154454860Y-93512640D01*
X154467560Y-93479620D01*
X154485340Y-93438980D01*
X154520900Y-93347540D01*
X154444700Y-93235780D01*
X154437080Y-93225620D01*
X154409140Y-93184980D01*
X154388820Y-93151960D01*
X154373580Y-93129100D01*
X154368500Y-93118940D01*
X154368500Y-93118940D01*
X154378660Y-93108780D01*
X154398980Y-93085920D01*
X154429460Y-93055440D01*
X154462480Y-93019880D01*
X154490420Y-92994480D01*
X154520900Y-92964000D01*
X154541220Y-92943680D01*
X154556460Y-92933520D01*
X154564080Y-92928440D01*
X154569160Y-92930980D01*
X154581860Y-92936060D01*
X154604720Y-92953840D01*
X154640280Y-92976700D01*
X154678380Y-93004640D01*
X154713940Y-93027500D01*
X154749500Y-93050360D01*
X154777440Y-93065600D01*
X154790140Y-93073220D01*
X154795220Y-93070680D01*
X154818080Y-93063060D01*
X154851100Y-93050360D01*
X154891740Y-93032580D01*
X154980640Y-92994480D01*
X154990800Y-92936060D01*
X154998420Y-92900500D01*
X155006040Y-92849700D01*
X155016200Y-92803980D01*
X155031440Y-92730320D01*
X155298140Y-92727780D01*
X155303220Y-92737940D01*
X155308300Y-92750640D01*
X155313380Y-92776040D01*
X155321000Y-92816680D01*
X155328620Y-92862400D01*
X155336240Y-92900500D01*
X155343860Y-92941140D01*
X155348940Y-92969080D01*
X155351480Y-92981780D01*
X155356560Y-92984320D01*
X155376880Y-92994480D01*
X155407360Y-93009720D01*
X155442920Y-93024960D01*
X155481020Y-93040200D01*
X155516580Y-93052900D01*
X155541980Y-93063060D01*
X155557220Y-93068140D01*
X155567380Y-93063060D01*
X155590240Y-93047820D01*
X155623260Y-93024960D01*
X155661360Y-92999560D01*
X155702000Y-92971620D01*
X155735020Y-92948760D01*
X155760420Y-92933520D01*
X155770580Y-92925900D01*
X155778200Y-92930980D01*
X155795980Y-92946220D01*
X155826460Y-92974160D01*
X155872180Y-93019880D01*
X155877260Y-93027500D01*
X155912820Y-93060520D01*
X155938220Y-93091000D01*
X155958540Y-93111320D01*
X155963620Y-93121480D01*
D12*
X147217000Y-103036000D02*
X148217000Y-103036000D01*
X148217000Y-104736000D02*
X147217000Y-104736000D01*
D13*
X145386659Y-97992293D02*
X146172373Y-97992293D01*
X146329516Y-97939913D01*
X146434278Y-97835151D01*
X146486659Y-97678008D01*
X146486659Y-97573246D01*
X146486659Y-99092293D02*
X146486659Y-98463722D01*
X146486659Y-98778008D02*
X145386659Y-98778008D01*
X145543802Y-98673246D01*
X145648564Y-98568484D01*
X145700945Y-98463722D01*
D12*
X147883666Y-102143143D02*
X147931285Y-102190762D01*
X148074142Y-102238381D01*
X148169380Y-102238381D01*
X148312238Y-102190762D01*
X148407476Y-102095524D01*
X148455095Y-102000286D01*
X148502714Y-101809810D01*
X148502714Y-101666952D01*
X148455095Y-101476476D01*
X148407476Y-101381238D01*
X148312238Y-101286000D01*
X148169380Y-101238381D01*
X148074142Y-101238381D01*
X147931285Y-101286000D01*
X147883666Y-101333619D01*
X147312238Y-101666952D02*
X147407476Y-101619333D01*
X147455095Y-101571714D01*
X147502714Y-101476476D01*
X147502714Y-101428857D01*
X147455095Y-101333619D01*
X147407476Y-101286000D01*
X147312238Y-101238381D01*
X147121761Y-101238381D01*
X147026523Y-101286000D01*
X146978904Y-101333619D01*
X146931285Y-101428857D01*
X146931285Y-101476476D01*
X146978904Y-101571714D01*
X147026523Y-101619333D01*
X147121761Y-101666952D01*
X147312238Y-101666952D01*
X147407476Y-101714571D01*
X147455095Y-101762190D01*
X147502714Y-101857429D01*
X147502714Y-102047905D01*
X147455095Y-102143143D01*
X147407476Y-102190762D01*
X147312238Y-102238381D01*
X147121761Y-102238381D01*
X147026523Y-102190762D01*
X146978904Y-102143143D01*
X146931285Y-102047905D01*
X146931285Y-101857429D01*
X146978904Y-101762190D01*
X147026523Y-101714571D01*
X147121761Y-101666952D01*
M02*
