G04 #@! TF.FileFunction,Soldermask,Top*
%FSLAX46Y46*%
G04 Gerber Fmt 4.6, Leading zero omitted, Abs format (unit mm)*
G04 Created by KiCad (PCBNEW 4.0.0-2.201511301920+6191~38~ubuntu14.04.1-stable) date Fri 22 Jan 2016 11:42:30 AM ICT*
%MOMM*%
G01*
G04 APERTURE LIST*
%ADD10C,0.100000*%
%ADD11R,0.338120X1.039160*%
%ADD12R,1.039160X0.338120*%
%ADD13R,1.562400X1.039160*%
%ADD14R,0.538780X1.039160*%
%ADD15C,1.140000*%
%ADD16R,1.140000X1.390000*%
%ADD17R,0.749600X1.029000*%
%ADD18R,0.840000X1.440000*%
%ADD19R,3.640000X1.440000*%
%ADD20C,1.562400*%
%ADD21C,3.467400*%
%ADD22R,2.240000X0.540000*%
%ADD23O,1.690000X1.140000*%
%ADD24C,0.740000*%
%ADD25R,2.040000X2.040000*%
%ADD26R,1.140000X1.140000*%
%ADD27R,2.370000X1.940000*%
%ADD28R,1.867200X1.867200*%
%ADD29O,1.867200X1.867200*%
%ADD30R,1.640000X1.340000*%
%ADD31R,2.140000X4.140000*%
%ADD32R,1.940000X2.370000*%
%ADD33R,1.390000X1.140000*%
%ADD34C,4.204000*%
%ADD35R,1.440000X0.840000*%
%ADD36C,1.537000*%
%ADD37R,1.338880X1.338880*%
%ADD38C,1.540000*%
G04 APERTURE END LIST*
D10*
D11*
X140642340Y-89529920D03*
X140241020Y-89529920D03*
X139842240Y-89529920D03*
X139440920Y-89529920D03*
X139042140Y-89529920D03*
X138640820Y-89529920D03*
X138244580Y-89529920D03*
X137843260Y-89529920D03*
X137444480Y-89529920D03*
X137043160Y-89529920D03*
X136644380Y-89529920D03*
X136243060Y-89529920D03*
D12*
X135442960Y-90330020D03*
X135442960Y-90731340D03*
X135442960Y-91130120D03*
X135442960Y-91531440D03*
X135442960Y-91930220D03*
X135442960Y-92331540D03*
X135442960Y-92727780D03*
X135442960Y-93129100D03*
X135442960Y-93527880D03*
X135442960Y-93929200D03*
X135442960Y-94327980D03*
X135442960Y-94729300D03*
D11*
X136243060Y-95529400D03*
X136644380Y-95529400D03*
X137043160Y-95529400D03*
X137444480Y-95529400D03*
X137843260Y-95529400D03*
X138244580Y-95529400D03*
X138640820Y-95529400D03*
X139042140Y-95529400D03*
X139440920Y-95529400D03*
X139842240Y-95529400D03*
X140241020Y-95529400D03*
X140642340Y-95529400D03*
D12*
X141442440Y-94729300D03*
X141442440Y-94327980D03*
X141442440Y-93929200D03*
X141442440Y-93527880D03*
X141442440Y-93129100D03*
X141442440Y-92727780D03*
X141442440Y-92331540D03*
X141442440Y-91930220D03*
X141442440Y-91531440D03*
X141442440Y-91130120D03*
X141442440Y-90731340D03*
X141442440Y-90330020D03*
D13*
X138442700Y-92529660D03*
D14*
X140040360Y-93177360D03*
X139440920Y-93177360D03*
X140040360Y-91881960D03*
X139440920Y-91881960D03*
X139090400Y-90932000D03*
X139090400Y-91531440D03*
X137795000Y-90932000D03*
X137795000Y-91531440D03*
X136845040Y-91881960D03*
X137444480Y-91881960D03*
X136845040Y-93177360D03*
X137444480Y-93177360D03*
X137795000Y-94127320D03*
X137795000Y-93527880D03*
X139090400Y-94127320D03*
X139090400Y-93527880D03*
D15*
X133583680Y-99438460D03*
X133583680Y-107439460D03*
D16*
X148447000Y-101600000D03*
X146447000Y-101600000D03*
D17*
X156192451Y-97362415D03*
X154287451Y-97362415D03*
X154287451Y-94822415D03*
X155239951Y-94822415D03*
X156192451Y-94822415D03*
X148484546Y-97641012D03*
X146579546Y-97641012D03*
X146579546Y-95101012D03*
X147532046Y-95101012D03*
X148484546Y-95101012D03*
D18*
X148826546Y-90838412D03*
X150726546Y-90838412D03*
X150726546Y-93124412D03*
X148826546Y-93124412D03*
X156894451Y-90884115D03*
X158794451Y-90884115D03*
X158794451Y-92916115D03*
X156894451Y-92916115D03*
D19*
X145966546Y-93081412D03*
X145966546Y-90881412D03*
X153973451Y-93000115D03*
X153973451Y-90800115D03*
D20*
X158179200Y-101048700D03*
X158179200Y-103055300D03*
X158179200Y-98559500D03*
D21*
X160897000Y-95486100D03*
X160897000Y-108617900D03*
D20*
X158179200Y-105544500D03*
D22*
X128849540Y-100961100D03*
X128849540Y-101611100D03*
X128849540Y-102261100D03*
X128849540Y-102911100D03*
X128849540Y-103561100D03*
D23*
X125862000Y-99437000D03*
X125862000Y-105062000D03*
D24*
X128012000Y-100262000D03*
X128012000Y-104262000D03*
D25*
X125862000Y-101187000D03*
X125862000Y-103337000D03*
D26*
X127937000Y-99062000D03*
X127937000Y-105462000D03*
D27*
X155157000Y-100902000D03*
X155157000Y-103822000D03*
D28*
X135567000Y-117942000D03*
D29*
X135567000Y-120482000D03*
X138107000Y-117942000D03*
X138107000Y-120482000D03*
X140647000Y-117942000D03*
X140647000Y-120482000D03*
X143187000Y-117942000D03*
X143187000Y-120482000D03*
X145727000Y-117942000D03*
X145727000Y-120482000D03*
X148267000Y-117942000D03*
X148267000Y-120482000D03*
X150807000Y-117942000D03*
X150807000Y-120482000D03*
X153347000Y-117942000D03*
X153347000Y-120482000D03*
X155887000Y-117942000D03*
X155887000Y-120482000D03*
X158427000Y-117942000D03*
X158427000Y-120482000D03*
D28*
X135557000Y-82892000D03*
D29*
X135557000Y-85432000D03*
X138097000Y-82892000D03*
X138097000Y-85432000D03*
X140637000Y-82892000D03*
X140637000Y-85432000D03*
X143177000Y-82892000D03*
X143177000Y-85432000D03*
X145717000Y-82892000D03*
X145717000Y-85432000D03*
X148257000Y-82892000D03*
X148257000Y-85432000D03*
X150797000Y-82892000D03*
X150797000Y-85432000D03*
X153337000Y-82892000D03*
X153337000Y-85432000D03*
X155877000Y-82892000D03*
X155877000Y-85432000D03*
X158417000Y-82892000D03*
X158417000Y-85432000D03*
D30*
X140347000Y-112762000D03*
X140347000Y-110262000D03*
X140347000Y-106762000D03*
X140347000Y-104262000D03*
X152597000Y-113262000D03*
X152597000Y-111262000D03*
D31*
X168577000Y-113862000D03*
X160577000Y-113862000D03*
D32*
X126117000Y-108762000D03*
X129037000Y-108762000D03*
D19*
X131191000Y-88562000D03*
X131191000Y-90762000D03*
X131191000Y-93642000D03*
X131191000Y-95842000D03*
D33*
X126026001Y-90662000D03*
X126026001Y-88662000D03*
X126111000Y-95742000D03*
X126111000Y-93742000D03*
D16*
X143653000Y-80264000D03*
X145653000Y-80264000D03*
X150225000Y-80264000D03*
X148225000Y-80264000D03*
D33*
X137795000Y-106664000D03*
X137795000Y-104664000D03*
D18*
X132537000Y-97812000D03*
X130637000Y-97812000D03*
D34*
X164900000Y-84000000D03*
X129300000Y-84000000D03*
X129200000Y-119600000D03*
X164700000Y-119600000D03*
D35*
X144377000Y-89103946D03*
X144377000Y-87203946D03*
X142196581Y-89103946D03*
X142196581Y-87203946D03*
D33*
X140277000Y-99732000D03*
X140277000Y-97732000D03*
X142567000Y-99742000D03*
X142567000Y-97742000D03*
D36*
X137795000Y-111760000D03*
X137795000Y-114300000D03*
D18*
X167097000Y-89622000D03*
X165197000Y-89622000D03*
D37*
X165127980Y-92042000D03*
X167226020Y-92042000D03*
D35*
X143129000Y-92014000D03*
X143129000Y-93914000D03*
D33*
X137997000Y-99822000D03*
X137997000Y-97822000D03*
X127889000Y-90662000D03*
X127889000Y-88662000D03*
X127889000Y-95742000D03*
X127889000Y-93742000D03*
D38*
X129695000Y-113284000D03*
X133195000Y-113284000D03*
D16*
X148998546Y-88552412D03*
X146998546Y-88552412D03*
X155126451Y-88471115D03*
X153126451Y-88471115D03*
M02*
