G04 #@! TF.FileFunction,Legend,Bot*
%FSLAX46Y46*%
G04 Gerber Fmt 4.6, Leading zero omitted, Abs format (unit mm)*
G04 Created by KiCad (PCBNEW 4.0.0-rc1-stable) date Sun 22 Nov 2015 09:57:49 PM ICT*
%MOMM*%
G01*
G04 APERTURE LIST*
%ADD10C,0.100000*%
%ADD11C,0.150000*%
%ADD12C,0.700000*%
%ADD13C,0.088900*%
G04 APERTURE END LIST*
D10*
D11*
X154343762Y-105100381D02*
X154343762Y-104100381D01*
X153915190Y-105100381D02*
X153915190Y-104576571D01*
X153962809Y-104481333D01*
X154058047Y-104433714D01*
X154200905Y-104433714D01*
X154296143Y-104481333D01*
X154343762Y-104528952D01*
X153581857Y-104433714D02*
X153200905Y-104433714D01*
X153439000Y-104100381D02*
X153439000Y-104957524D01*
X153391381Y-105052762D01*
X153296143Y-105100381D01*
X153200905Y-105100381D01*
X153010428Y-104433714D02*
X152629476Y-104433714D01*
X152867571Y-104100381D02*
X152867571Y-104957524D01*
X152819952Y-105052762D01*
X152724714Y-105100381D01*
X152629476Y-105100381D01*
X152296142Y-104433714D02*
X152296142Y-105433714D01*
X152296142Y-104481333D02*
X152200904Y-104433714D01*
X152010427Y-104433714D01*
X151915189Y-104481333D01*
X151867570Y-104528952D01*
X151819951Y-104624190D01*
X151819951Y-104909905D01*
X151867570Y-105005143D01*
X151915189Y-105052762D01*
X152010427Y-105100381D01*
X152200904Y-105100381D01*
X152296142Y-105052762D01*
X151391380Y-105005143D02*
X151343761Y-105052762D01*
X151391380Y-105100381D01*
X151438999Y-105052762D01*
X151391380Y-105005143D01*
X151391380Y-105100381D01*
X151391380Y-104481333D02*
X151343761Y-104528952D01*
X151391380Y-104576571D01*
X151438999Y-104528952D01*
X151391380Y-104481333D01*
X151391380Y-104576571D01*
X150200904Y-104052762D02*
X151058047Y-105338476D01*
X149153285Y-104052762D02*
X150010428Y-105338476D01*
X148962809Y-104433714D02*
X148581857Y-104433714D01*
X148819952Y-104100381D02*
X148819952Y-104957524D01*
X148772333Y-105052762D01*
X148677095Y-105100381D01*
X148581857Y-105100381D01*
X148248523Y-105100381D02*
X148248523Y-104433714D01*
X148248523Y-104100381D02*
X148296142Y-104148000D01*
X148248523Y-104195619D01*
X148200904Y-104148000D01*
X148248523Y-104100381D01*
X148248523Y-104195619D01*
X147772333Y-104433714D02*
X147772333Y-105100381D01*
X147772333Y-104528952D02*
X147724714Y-104481333D01*
X147629476Y-104433714D01*
X147486618Y-104433714D01*
X147391380Y-104481333D01*
X147343761Y-104576571D01*
X147343761Y-105100381D01*
X146962809Y-104433714D02*
X146724714Y-105100381D01*
X146486618Y-104433714D02*
X146724714Y-105100381D01*
X146819952Y-105338476D01*
X146867571Y-105386095D01*
X146962809Y-105433714D01*
X145677094Y-105052762D02*
X145772332Y-105100381D01*
X145962809Y-105100381D01*
X146058047Y-105052762D01*
X146105666Y-105005143D01*
X146153285Y-104909905D01*
X146153285Y-104624190D01*
X146105666Y-104528952D01*
X146058047Y-104481333D01*
X145962809Y-104433714D01*
X145772332Y-104433714D01*
X145677094Y-104481333D01*
X145105666Y-105100381D02*
X145200904Y-105052762D01*
X145248523Y-105005143D01*
X145296142Y-104909905D01*
X145296142Y-104624190D01*
X145248523Y-104528952D01*
X145200904Y-104481333D01*
X145105666Y-104433714D01*
X144962808Y-104433714D01*
X144867570Y-104481333D01*
X144819951Y-104528952D01*
X144772332Y-104624190D01*
X144772332Y-104909905D01*
X144819951Y-105005143D01*
X144867570Y-105052762D01*
X144962808Y-105100381D01*
X145105666Y-105100381D01*
X144343761Y-105100381D02*
X144343761Y-104433714D01*
X144343761Y-104528952D02*
X144296142Y-104481333D01*
X144200904Y-104433714D01*
X144058046Y-104433714D01*
X143962808Y-104481333D01*
X143915189Y-104576571D01*
X143915189Y-105100381D01*
X143915189Y-104576571D02*
X143867570Y-104481333D01*
X143772332Y-104433714D01*
X143629475Y-104433714D01*
X143534237Y-104481333D01*
X143486618Y-104576571D01*
X143486618Y-105100381D01*
X143010428Y-105005143D02*
X142962809Y-105052762D01*
X143010428Y-105100381D01*
X143058047Y-105052762D01*
X143010428Y-105005143D01*
X143010428Y-105100381D01*
X142391381Y-105100381D02*
X142486619Y-105052762D01*
X142534238Y-105005143D01*
X142581857Y-104909905D01*
X142581857Y-104624190D01*
X142534238Y-104528952D01*
X142486619Y-104481333D01*
X142391381Y-104433714D01*
X142248523Y-104433714D01*
X142153285Y-104481333D01*
X142105666Y-104528952D01*
X142058047Y-104624190D01*
X142058047Y-104909905D01*
X142105666Y-105005143D01*
X142153285Y-105052762D01*
X142248523Y-105100381D01*
X142391381Y-105100381D01*
X141629476Y-105100381D02*
X141629476Y-104433714D01*
X141629476Y-104624190D02*
X141581857Y-104528952D01*
X141534238Y-104481333D01*
X141439000Y-104433714D01*
X141343761Y-104433714D01*
X140581856Y-104433714D02*
X140581856Y-105243238D01*
X140629475Y-105338476D01*
X140677094Y-105386095D01*
X140772333Y-105433714D01*
X140915190Y-105433714D01*
X141010428Y-105386095D01*
X140581856Y-105052762D02*
X140677094Y-105100381D01*
X140867571Y-105100381D01*
X140962809Y-105052762D01*
X141010428Y-105005143D01*
X141058047Y-104909905D01*
X141058047Y-104624190D01*
X141010428Y-104528952D01*
X140962809Y-104481333D01*
X140867571Y-104433714D01*
X140677094Y-104433714D01*
X140581856Y-104481333D01*
X139391380Y-104052762D02*
X140248523Y-105338476D01*
D12*
X155867571Y-99576143D02*
X154153285Y-99576143D01*
X155010428Y-102576143D02*
X155010428Y-99576143D01*
X153153285Y-102576143D02*
X153153285Y-100576143D01*
X153153285Y-99576143D02*
X153296142Y-99719000D01*
X153153285Y-99861857D01*
X153010428Y-99719000D01*
X153153285Y-99576143D01*
X153153285Y-99861857D01*
X151724714Y-100576143D02*
X151724714Y-102576143D01*
X151724714Y-100861857D02*
X151581857Y-100719000D01*
X151296143Y-100576143D01*
X150867571Y-100576143D01*
X150581857Y-100719000D01*
X150439000Y-101004714D01*
X150439000Y-102576143D01*
X149296143Y-100576143D02*
X148581857Y-102576143D01*
X147867571Y-100576143D02*
X148581857Y-102576143D01*
X148867571Y-103290429D01*
X149010428Y-103433286D01*
X149296143Y-103576143D01*
X145010429Y-102290429D02*
X145153286Y-102433286D01*
X145581857Y-102576143D01*
X145867571Y-102576143D01*
X146296143Y-102433286D01*
X146581857Y-102147571D01*
X146724714Y-101861857D01*
X146867571Y-101290429D01*
X146867571Y-100861857D01*
X146724714Y-100290429D01*
X146581857Y-100004714D01*
X146296143Y-99719000D01*
X145867571Y-99576143D01*
X145581857Y-99576143D01*
X145153286Y-99719000D01*
X145010429Y-99861857D01*
X143296143Y-102576143D02*
X143581857Y-102433286D01*
X143724714Y-102290429D01*
X143867571Y-102004714D01*
X143867571Y-101147571D01*
X143724714Y-100861857D01*
X143581857Y-100719000D01*
X143296143Y-100576143D01*
X142867571Y-100576143D01*
X142581857Y-100719000D01*
X142439000Y-100861857D01*
X142296143Y-101147571D01*
X142296143Y-102004714D01*
X142439000Y-102290429D01*
X142581857Y-102433286D01*
X142867571Y-102576143D01*
X143296143Y-102576143D01*
X141010428Y-102576143D02*
X141010428Y-100576143D01*
X141010428Y-100861857D02*
X140867571Y-100719000D01*
X140581857Y-100576143D01*
X140153285Y-100576143D01*
X139867571Y-100719000D01*
X139724714Y-101004714D01*
X139724714Y-102576143D01*
X139724714Y-101004714D02*
X139581857Y-100719000D01*
X139296143Y-100576143D01*
X138867571Y-100576143D01*
X138581857Y-100719000D01*
X138439000Y-101004714D01*
X138439000Y-102576143D01*
D11*
X140863000Y-101713000D02*
X142063000Y-101713000D01*
X142063000Y-99963000D02*
X140863000Y-99963000D01*
X140868000Y-103720000D02*
X142068000Y-103720000D01*
X142068000Y-101970000D02*
X140868000Y-101970000D01*
X140853000Y-105752000D02*
X142053000Y-105752000D01*
X142053000Y-104002000D02*
X140853000Y-104002000D01*
X140853000Y-107758000D02*
X142053000Y-107758000D01*
X142053000Y-106008000D02*
X140853000Y-106008000D01*
X140842000Y-109739000D02*
X142042000Y-109739000D01*
X142042000Y-107989000D02*
X140842000Y-107989000D01*
X141629666Y-99190381D02*
X141963000Y-98714190D01*
X142201095Y-99190381D02*
X142201095Y-98190381D01*
X141820142Y-98190381D01*
X141724904Y-98238000D01*
X141677285Y-98285619D01*
X141629666Y-98380857D01*
X141629666Y-98523714D01*
X141677285Y-98618952D01*
X141724904Y-98666571D01*
X141820142Y-98714190D01*
X142201095Y-98714190D01*
X141058238Y-98618952D02*
X141153476Y-98571333D01*
X141201095Y-98523714D01*
X141248714Y-98428476D01*
X141248714Y-98380857D01*
X141201095Y-98285619D01*
X141153476Y-98238000D01*
X141058238Y-98190381D01*
X140867761Y-98190381D01*
X140772523Y-98238000D01*
X140724904Y-98285619D01*
X140677285Y-98380857D01*
X140677285Y-98428476D01*
X140724904Y-98523714D01*
X140772523Y-98571333D01*
X140867761Y-98618952D01*
X141058238Y-98618952D01*
X141153476Y-98666571D01*
X141201095Y-98714190D01*
X141248714Y-98809429D01*
X141248714Y-98999905D01*
X141201095Y-99095143D01*
X141153476Y-99142762D01*
X141058238Y-99190381D01*
X140867761Y-99190381D01*
X140772523Y-99142762D01*
X140724904Y-99095143D01*
X140677285Y-98999905D01*
X140677285Y-98809429D01*
X140724904Y-98714190D01*
X140772523Y-98666571D01*
X140867761Y-98618952D01*
X141634666Y-101197381D02*
X141968000Y-100721190D01*
X142206095Y-101197381D02*
X142206095Y-100197381D01*
X141825142Y-100197381D01*
X141729904Y-100245000D01*
X141682285Y-100292619D01*
X141634666Y-100387857D01*
X141634666Y-100530714D01*
X141682285Y-100625952D01*
X141729904Y-100673571D01*
X141825142Y-100721190D01*
X142206095Y-100721190D01*
X141158476Y-101197381D02*
X140968000Y-101197381D01*
X140872761Y-101149762D01*
X140825142Y-101102143D01*
X140729904Y-100959286D01*
X140682285Y-100768810D01*
X140682285Y-100387857D01*
X140729904Y-100292619D01*
X140777523Y-100245000D01*
X140872761Y-100197381D01*
X141063238Y-100197381D01*
X141158476Y-100245000D01*
X141206095Y-100292619D01*
X141253714Y-100387857D01*
X141253714Y-100625952D01*
X141206095Y-100721190D01*
X141158476Y-100768810D01*
X141063238Y-100816429D01*
X140872761Y-100816429D01*
X140777523Y-100768810D01*
X140729904Y-100721190D01*
X140682285Y-100625952D01*
X142095857Y-103229381D02*
X142429191Y-102753190D01*
X142667286Y-103229381D02*
X142667286Y-102229381D01*
X142286333Y-102229381D01*
X142191095Y-102277000D01*
X142143476Y-102324619D01*
X142095857Y-102419857D01*
X142095857Y-102562714D01*
X142143476Y-102657952D01*
X142191095Y-102705571D01*
X142286333Y-102753190D01*
X142667286Y-102753190D01*
X141143476Y-103229381D02*
X141714905Y-103229381D01*
X141429191Y-103229381D02*
X141429191Y-102229381D01*
X141524429Y-102372238D01*
X141619667Y-102467476D01*
X141714905Y-102515095D01*
X140524429Y-102229381D02*
X140429190Y-102229381D01*
X140333952Y-102277000D01*
X140286333Y-102324619D01*
X140238714Y-102419857D01*
X140191095Y-102610333D01*
X140191095Y-102848429D01*
X140238714Y-103038905D01*
X140286333Y-103134143D01*
X140333952Y-103181762D01*
X140429190Y-103229381D01*
X140524429Y-103229381D01*
X140619667Y-103181762D01*
X140667286Y-103134143D01*
X140714905Y-103038905D01*
X140762524Y-102848429D01*
X140762524Y-102610333D01*
X140714905Y-102419857D01*
X140667286Y-102324619D01*
X140619667Y-102277000D01*
X140524429Y-102229381D01*
X142095857Y-105235381D02*
X142429191Y-104759190D01*
X142667286Y-105235381D02*
X142667286Y-104235381D01*
X142286333Y-104235381D01*
X142191095Y-104283000D01*
X142143476Y-104330619D01*
X142095857Y-104425857D01*
X142095857Y-104568714D01*
X142143476Y-104663952D01*
X142191095Y-104711571D01*
X142286333Y-104759190D01*
X142667286Y-104759190D01*
X141143476Y-105235381D02*
X141714905Y-105235381D01*
X141429191Y-105235381D02*
X141429191Y-104235381D01*
X141524429Y-104378238D01*
X141619667Y-104473476D01*
X141714905Y-104521095D01*
X140191095Y-105235381D02*
X140762524Y-105235381D01*
X140476810Y-105235381D02*
X140476810Y-104235381D01*
X140572048Y-104378238D01*
X140667286Y-104473476D01*
X140762524Y-104521095D01*
X142084857Y-107216381D02*
X142418191Y-106740190D01*
X142656286Y-107216381D02*
X142656286Y-106216381D01*
X142275333Y-106216381D01*
X142180095Y-106264000D01*
X142132476Y-106311619D01*
X142084857Y-106406857D01*
X142084857Y-106549714D01*
X142132476Y-106644952D01*
X142180095Y-106692571D01*
X142275333Y-106740190D01*
X142656286Y-106740190D01*
X141132476Y-107216381D02*
X141703905Y-107216381D01*
X141418191Y-107216381D02*
X141418191Y-106216381D01*
X141513429Y-106359238D01*
X141608667Y-106454476D01*
X141703905Y-106502095D01*
X140751524Y-106311619D02*
X140703905Y-106264000D01*
X140608667Y-106216381D01*
X140370571Y-106216381D01*
X140275333Y-106264000D01*
X140227714Y-106311619D01*
X140180095Y-106406857D01*
X140180095Y-106502095D01*
X140227714Y-106644952D01*
X140799143Y-107216381D01*
X140180095Y-107216381D01*
D13*
X154777524Y-108684381D02*
X153507524Y-108684381D01*
X153507524Y-108200572D01*
X153568000Y-108079619D01*
X153628476Y-108019143D01*
X153749429Y-107958667D01*
X153930857Y-107958667D01*
X154051810Y-108019143D01*
X154112286Y-108079619D01*
X154172762Y-108200572D01*
X154172762Y-108684381D01*
X153507524Y-107535333D02*
X153507524Y-106749143D01*
X153991333Y-107172476D01*
X153991333Y-106991048D01*
X154051810Y-106870095D01*
X154112286Y-106809619D01*
X154233238Y-106749143D01*
X154535619Y-106749143D01*
X154656571Y-106809619D01*
X154717048Y-106870095D01*
X154777524Y-106991048D01*
X154777524Y-107353905D01*
X154717048Y-107474857D01*
X154656571Y-107535333D01*
M02*
