G04 #@! TF.FileFunction,Legend,Top*
%FSLAX46Y46*%
G04 Gerber Fmt 4.6, Leading zero omitted, Abs format (unit mm)*
G04 Created by KiCad (PCBNEW 4.0.0-2.201511301920+6191~38~ubuntu14.04.1-stable) date Tue 29 Mar 2016 01:13:56 PM ICT*
%MOMM*%
G01*
G04 APERTURE LIST*
%ADD10C,0.100000*%
%ADD11C,0.200000*%
%ADD12C,0.150000*%
%ADD13C,0.152400*%
%ADD14C,0.127000*%
%ADD15C,0.066040*%
%ADD16C,0.203200*%
%ADD17C,0.254000*%
%ADD18C,0.088900*%
G04 APERTURE END LIST*
D10*
D11*
X169044690Y-84074000D02*
G75*
G03X169044690Y-84074000I-4198690J0D01*
G01*
X133478924Y-84074000D02*
G75*
G03X133478924Y-84074000I-4192924J0D01*
G01*
X168917690Y-119634000D02*
G75*
G03X168917690Y-119634000I-4198690J0D01*
G01*
X133484690Y-119634000D02*
G75*
G03X133484690Y-119634000I-4198690J0D01*
G01*
D12*
X140742000Y-88322000D02*
X140742000Y-89522000D01*
X138992000Y-89522000D02*
X138992000Y-88322000D01*
X138557000Y-89522000D02*
X138557000Y-88522000D01*
X136857000Y-88522000D02*
X136857000Y-89522000D01*
X130197000Y-88912000D02*
X130197000Y-89912000D01*
X131897000Y-89912000D02*
X131897000Y-88912000D01*
X127287000Y-89802000D02*
X127287000Y-88802000D01*
X125587000Y-88802000D02*
X125587000Y-89802000D01*
X146947000Y-102450000D02*
X147947000Y-102450000D01*
X147947000Y-100750000D02*
X146947000Y-100750000D01*
D13*
X156741091Y-96991575D02*
X156540431Y-96991575D01*
X156741091Y-96991575D02*
X156741091Y-95193255D01*
X156741091Y-95193255D02*
X156540431Y-95193255D01*
X153738811Y-95193255D02*
X153939471Y-95193255D01*
X153738811Y-96991575D02*
X153939471Y-96991575D01*
X153738811Y-95193255D02*
X153738811Y-96991575D01*
X150698140Y-96951160D02*
X150497480Y-96951160D01*
X150698140Y-96951160D02*
X150698140Y-95152840D01*
X150698140Y-95152840D02*
X150497480Y-95152840D01*
X147695860Y-95152840D02*
X147896520Y-95152840D01*
X147695860Y-96951160D02*
X147896520Y-96951160D01*
X147695860Y-95152840D02*
X147695860Y-96951160D01*
D12*
X153227000Y-91587000D02*
X152027000Y-91587000D01*
X152027000Y-89837000D02*
X153227000Y-89837000D01*
X152017000Y-91867000D02*
X153217000Y-91867000D01*
X153217000Y-93617000D02*
X152017000Y-93617000D01*
X161307000Y-90927000D02*
X160107000Y-90927000D01*
X160107000Y-89177000D02*
X161307000Y-89177000D01*
X160077000Y-91417000D02*
X161277000Y-91417000D01*
X161277000Y-93167000D02*
X160077000Y-93167000D01*
X148777000Y-89762000D02*
G75*
G03X147277000Y-91262000I0J-1500000D01*
G01*
X150277000Y-91262000D02*
G75*
G03X148777000Y-89762000I-1500000J0D01*
G01*
X147277000Y-91862000D02*
G75*
G03X148777000Y-93362000I1500000J0D01*
G01*
X148777000Y-93362000D02*
G75*
G03X150277000Y-91862000I0J1500000D01*
G01*
X150277000Y-92062000D02*
X150277000Y-91062000D01*
X147277000Y-92062000D02*
X147277000Y-91062000D01*
X156547000Y-89852000D02*
G75*
G03X155047000Y-91352000I0J-1500000D01*
G01*
X158047000Y-91352000D02*
G75*
G03X156547000Y-89852000I-1500000J0D01*
G01*
X155047000Y-91952000D02*
G75*
G03X156547000Y-93452000I1500000J0D01*
G01*
X156547000Y-93452000D02*
G75*
G03X158047000Y-91952000I0J1500000D01*
G01*
X158047000Y-92152000D02*
X158047000Y-91152000D01*
X155047000Y-92152000D02*
X155047000Y-91152000D01*
D14*
X157201300Y-108617900D02*
X171184000Y-108617900D01*
X157201300Y-95486100D02*
X171184000Y-95486100D01*
X171184000Y-108529000D02*
X171184000Y-95575000D01*
X157188600Y-108554400D02*
X157188600Y-95549600D01*
X163437000Y-96972000D02*
X169787000Y-97607000D01*
X169787000Y-97607000D02*
X169787000Y-100782000D01*
X169787000Y-100782000D02*
X163437000Y-101417000D01*
X163437000Y-107132000D02*
X169787000Y-106497000D01*
X169787000Y-106497000D02*
X169787000Y-103322000D01*
X169787000Y-103322000D02*
X163437000Y-102687000D01*
D12*
X123219540Y-97911100D02*
X123219540Y-106611100D01*
X129624540Y-97911100D02*
X129624540Y-106611100D01*
X129624540Y-106611100D02*
X123219540Y-106611100D01*
X124449540Y-106611100D02*
X124449540Y-97911100D01*
X123219540Y-97911100D02*
X129624540Y-97911100D01*
X152387000Y-99132000D02*
X156487000Y-99132000D01*
X152387000Y-102132000D02*
X156487000Y-102132000D01*
X159697000Y-121752000D02*
X134297000Y-121752000D01*
X136837000Y-116672000D02*
X159697000Y-116672000D01*
X159697000Y-121752000D02*
X159697000Y-116672000D01*
X134297000Y-121752000D02*
X134297000Y-119212000D01*
X135567000Y-116392000D02*
X134017000Y-116392000D01*
X134297000Y-119212000D02*
X136837000Y-119212000D01*
X136837000Y-119212000D02*
X136837000Y-116672000D01*
X134017000Y-116392000D02*
X134017000Y-117942000D01*
X159687000Y-86702000D02*
X134287000Y-86702000D01*
X136827000Y-81622000D02*
X159687000Y-81622000D01*
X159687000Y-86702000D02*
X159687000Y-81622000D01*
X134287000Y-86702000D02*
X134287000Y-84162000D01*
X135557000Y-81342000D02*
X134007000Y-81342000D01*
X134287000Y-84162000D02*
X136827000Y-84162000D01*
X136827000Y-84162000D02*
X136827000Y-81622000D01*
X134007000Y-81342000D02*
X134007000Y-82892000D01*
X156917000Y-102992000D02*
X156917000Y-115992000D01*
X144667000Y-102992000D02*
X156917000Y-102992000D01*
X144667000Y-115992000D02*
X144667000Y-102992000D01*
X156917000Y-115992000D02*
X144667000Y-115992000D01*
X158097000Y-114892000D02*
X158097000Y-110892000D01*
X168097000Y-114892000D02*
X158097000Y-114892000D01*
X168097000Y-110892000D02*
X168097000Y-114892000D01*
X158097000Y-110892000D02*
X168097000Y-110892000D01*
X125777000Y-107262000D02*
X129877000Y-107262000D01*
X125777000Y-110262000D02*
X129877000Y-110262000D01*
X132517000Y-89042000D02*
G75*
G03X134017000Y-90542000I1500000J0D01*
G01*
X134017000Y-87542000D02*
G75*
G03X132517000Y-89042000I0J-1500000D01*
G01*
X134617000Y-90542000D02*
G75*
G03X136117000Y-89042000I0J1500000D01*
G01*
X136117000Y-89042000D02*
G75*
G03X134617000Y-87542000I-1500000J0D01*
G01*
X134817000Y-87542000D02*
X133817000Y-87542000D01*
X134817000Y-90542000D02*
X133817000Y-90542000D01*
X130667000Y-96872000D02*
G75*
G03X132167000Y-95372000I0J1500000D01*
G01*
X129167000Y-95372000D02*
G75*
G03X130667000Y-96872000I1500000J0D01*
G01*
X132167000Y-94772000D02*
G75*
G03X130667000Y-93272000I-1500000J0D01*
G01*
X130667000Y-93272000D02*
G75*
G03X129167000Y-94772000I0J-1500000D01*
G01*
X129167000Y-94572000D02*
X129167000Y-95572000D01*
X132167000Y-94572000D02*
X132167000Y-95572000D01*
X128197000Y-88892000D02*
X128197000Y-89892000D01*
X129897000Y-89892000D02*
X129897000Y-88892000D01*
X124997000Y-94592000D02*
X124997000Y-95592000D01*
X126697000Y-95592000D02*
X126697000Y-94592000D01*
X144067000Y-79402000D02*
X143067000Y-79402000D01*
X143067000Y-81102000D02*
X144067000Y-81102000D01*
X147117000Y-81142000D02*
X148117000Y-81142000D01*
X148117000Y-79442000D02*
X147117000Y-79442000D01*
X141447000Y-106312000D02*
X141447000Y-107312000D01*
X143147000Y-107312000D02*
X143147000Y-106312000D01*
X130707000Y-98877000D02*
X131907000Y-98877000D01*
X131907000Y-100627000D02*
X130707000Y-100627000D01*
X167186000Y-84000000D02*
G75*
G03X167186000Y-84000000I-2286000J0D01*
G01*
X131586000Y-84000000D02*
G75*
G03X131586000Y-84000000I-2286000J0D01*
G01*
X131486000Y-119600000D02*
G75*
G03X131486000Y-119600000I-2286000J0D01*
G01*
X166986000Y-119600000D02*
G75*
G03X166986000Y-119600000I-2286000J0D01*
G01*
X142842000Y-88332000D02*
X142842000Y-89532000D01*
X141092000Y-89532000D02*
X141092000Y-88332000D01*
X131987000Y-91352000D02*
X130987000Y-91352000D01*
X130987000Y-93052000D02*
X131987000Y-93052000D01*
X138447000Y-101852000D02*
X138447000Y-102852000D01*
X140147000Y-102852000D02*
X140147000Y-101852000D01*
X139667000Y-111612000D02*
X139667000Y-114152000D01*
X141086903Y-111612000D02*
G75*
G03X141086903Y-111612000I-1419903J0D01*
G01*
X165547000Y-88747000D02*
X166747000Y-88747000D01*
X166747000Y-90497000D02*
X165547000Y-90497000D01*
X167777000Y-91292000D02*
X165077000Y-91292000D01*
X167777000Y-92792000D02*
X165077000Y-92792000D01*
X166277000Y-91892000D02*
X166277000Y-92142000D01*
X166277000Y-92142000D02*
X166427000Y-91992000D01*
X166527000Y-92392000D02*
X166527000Y-91692000D01*
X166177000Y-92042000D02*
X165827000Y-92042000D01*
X166527000Y-92042000D02*
X166177000Y-92392000D01*
X166177000Y-92392000D02*
X166177000Y-91692000D01*
X166177000Y-91692000D02*
X166527000Y-92042000D01*
X144007000Y-94377000D02*
X142807000Y-94377000D01*
X142807000Y-92627000D02*
X144007000Y-92627000D01*
X132807000Y-102072000D02*
X132807000Y-103072000D01*
X134507000Y-103072000D02*
X134507000Y-102072000D01*
X132587000Y-102942000D02*
X132587000Y-101942000D01*
X130887000Y-101942000D02*
X130887000Y-102942000D01*
X126997000Y-94602000D02*
X126997000Y-95602000D01*
X128697000Y-95602000D02*
X128697000Y-94602000D01*
X156157000Y-89302000D02*
X157157000Y-89302000D01*
X157157000Y-87602000D02*
X156157000Y-87602000D01*
X151237000Y-81172000D02*
X152237000Y-81172000D01*
X152237000Y-79472000D02*
X151237000Y-79472000D01*
X155007000Y-81162000D02*
X156007000Y-81162000D01*
X156007000Y-79462000D02*
X155007000Y-79462000D01*
X144842000Y-88322000D02*
X144842000Y-89522000D01*
X143092000Y-89522000D02*
X143092000Y-88322000D01*
X145072000Y-89512000D02*
X145072000Y-88312000D01*
X146822000Y-88312000D02*
X146822000Y-89512000D01*
D15*
X139237620Y-94861820D02*
X138236860Y-94861820D01*
X138236860Y-94861820D02*
X138236860Y-95857500D01*
X139237620Y-95857500D02*
X138236860Y-95857500D01*
X139237620Y-94861820D02*
X139237620Y-95857500D01*
X137937140Y-93561340D02*
X136941460Y-93561340D01*
X136941460Y-93561340D02*
X136941460Y-94562100D01*
X137937140Y-94562100D02*
X136941460Y-94562100D01*
X137937140Y-93561340D02*
X137937140Y-94562100D01*
X139237620Y-93561340D02*
X138236860Y-93561340D01*
X138236860Y-93561340D02*
X138236860Y-94562100D01*
X139237620Y-94562100D02*
X138236860Y-94562100D01*
X139237620Y-93561340D02*
X139237620Y-94562100D01*
X136641740Y-93561340D02*
X135640980Y-93561340D01*
X135640980Y-93561340D02*
X135640980Y-94562100D01*
X136641740Y-94562100D02*
X135640980Y-94562100D01*
X136641740Y-93561340D02*
X136641740Y-94562100D01*
X136641740Y-94861820D02*
X135640980Y-94861820D01*
X135640980Y-94861820D02*
X135640980Y-95857500D01*
X136641740Y-95857500D02*
X135640980Y-95857500D01*
X136641740Y-94861820D02*
X136641740Y-95857500D01*
X139237620Y-96157220D02*
X138236860Y-96157220D01*
X138236860Y-96157220D02*
X138236860Y-97157980D01*
X139237620Y-97157980D02*
X138236860Y-97157980D01*
X139237620Y-96157220D02*
X139237620Y-97157980D01*
X137937140Y-96157220D02*
X136941460Y-96157220D01*
X136941460Y-96157220D02*
X136941460Y-97157980D01*
X137937140Y-97157980D02*
X136941460Y-97157980D01*
X137937140Y-96157220D02*
X137937140Y-97157980D01*
X136641740Y-96157220D02*
X135640980Y-96157220D01*
X135640980Y-96157220D02*
X135640980Y-97157980D01*
X136641740Y-97157980D02*
X135640980Y-97157980D01*
X136641740Y-96157220D02*
X136641740Y-97157980D01*
D16*
X140439040Y-98359400D02*
X139964060Y-98359400D01*
X139964060Y-98359400D02*
X134914540Y-98359400D01*
X134914540Y-98359400D02*
X134439560Y-98359400D01*
X134439560Y-98359400D02*
X134439560Y-97884420D01*
X134439560Y-97884420D02*
X134439560Y-92834900D01*
X134439560Y-92834900D02*
X134439560Y-92359920D01*
X134439560Y-92359920D02*
X134914540Y-92359920D01*
X134914540Y-92359920D02*
X139964060Y-92359920D01*
X139964060Y-92359920D02*
X140238380Y-92359920D01*
X140238380Y-92359920D02*
X140439040Y-92560580D01*
X140439040Y-92560580D02*
X140439040Y-92834900D01*
X140439040Y-92834900D02*
X140439040Y-97884420D01*
X140439040Y-97884420D02*
X140439040Y-98359400D01*
D12*
X143127000Y-96862000D02*
X144127000Y-96862000D01*
X144127000Y-95162000D02*
X143127000Y-95162000D01*
X141777000Y-102862000D02*
X141777000Y-101862000D01*
X140077000Y-101862000D02*
X140077000Y-102862000D01*
X134627000Y-102012000D02*
X134627000Y-103012000D01*
X136327000Y-103012000D02*
X136327000Y-102012000D01*
X130827000Y-98692000D02*
X131827000Y-98692000D01*
X131827000Y-96992000D02*
X130827000Y-96992000D01*
X138082000Y-101922000D02*
X138082000Y-103122000D01*
X136332000Y-103122000D02*
X136332000Y-101922000D01*
X128657000Y-93067000D02*
X127457000Y-93067000D01*
X127457000Y-91317000D02*
X128657000Y-91317000D01*
X143907000Y-91132000D02*
X142907000Y-91132000D01*
X142907000Y-92832000D02*
X143907000Y-92832000D01*
X148227000Y-89102000D02*
X149227000Y-89102000D01*
X149227000Y-87402000D02*
X148227000Y-87402000D01*
X147477000Y-96632000D02*
X147477000Y-95632000D01*
X145777000Y-95632000D02*
X145777000Y-96632000D01*
X153587000Y-96702000D02*
X153587000Y-95702000D01*
X151887000Y-95702000D02*
X151887000Y-96702000D01*
X152007000Y-89242000D02*
X153007000Y-89242000D01*
X153007000Y-87542000D02*
X152007000Y-87542000D01*
X160207000Y-89062000D02*
X161207000Y-89062000D01*
X161207000Y-87362000D02*
X160207000Y-87362000D01*
D17*
X133357000Y-105492000D02*
X133357000Y-108192000D01*
X136547000Y-105492000D02*
X131547000Y-105492000D01*
X132917000Y-105492000D02*
X132917000Y-108192000D01*
X131547000Y-108192000D02*
X136547000Y-108192000D01*
D12*
X138219381Y-89088666D02*
X137743190Y-89422000D01*
X138219381Y-89660095D02*
X137219381Y-89660095D01*
X137219381Y-89279142D01*
X137267000Y-89183904D01*
X137314619Y-89136285D01*
X137409857Y-89088666D01*
X137552714Y-89088666D01*
X137647952Y-89136285D01*
X137695571Y-89183904D01*
X137743190Y-89279142D01*
X137743190Y-89660095D01*
X137647952Y-88517238D02*
X137600333Y-88612476D01*
X137552714Y-88660095D01*
X137457476Y-88707714D01*
X137409857Y-88707714D01*
X137314619Y-88660095D01*
X137267000Y-88612476D01*
X137219381Y-88517238D01*
X137219381Y-88326761D01*
X137267000Y-88231523D01*
X137314619Y-88183904D01*
X137409857Y-88136285D01*
X137457476Y-88136285D01*
X137552714Y-88183904D01*
X137600333Y-88231523D01*
X137647952Y-88326761D01*
X137647952Y-88517238D01*
X137695571Y-88612476D01*
X137743190Y-88660095D01*
X137838429Y-88707714D01*
X138028905Y-88707714D01*
X138124143Y-88660095D01*
X138171762Y-88612476D01*
X138219381Y-88517238D01*
X138219381Y-88326761D01*
X138171762Y-88231523D01*
X138124143Y-88183904D01*
X138028905Y-88136285D01*
X137838429Y-88136285D01*
X137743190Y-88183904D01*
X137695571Y-88231523D01*
X137647952Y-88326761D01*
X140164143Y-89664857D02*
X140211762Y-89712476D01*
X140259381Y-89855333D01*
X140259381Y-89950571D01*
X140211762Y-90093429D01*
X140116524Y-90188667D01*
X140021286Y-90236286D01*
X139830810Y-90283905D01*
X139687952Y-90283905D01*
X139497476Y-90236286D01*
X139402238Y-90188667D01*
X139307000Y-90093429D01*
X139259381Y-89950571D01*
X139259381Y-89855333D01*
X139307000Y-89712476D01*
X139354619Y-89664857D01*
X140259381Y-88712476D02*
X140259381Y-89283905D01*
X140259381Y-88998191D02*
X139259381Y-88998191D01*
X139402238Y-89093429D01*
X139497476Y-89188667D01*
X139545095Y-89283905D01*
X139259381Y-88379143D02*
X139259381Y-87712476D01*
X140259381Y-88141048D01*
X129304143Y-89578666D02*
X129351762Y-89626285D01*
X129399381Y-89769142D01*
X129399381Y-89864380D01*
X129351762Y-90007238D01*
X129256524Y-90102476D01*
X129161286Y-90150095D01*
X128970810Y-90197714D01*
X128827952Y-90197714D01*
X128637476Y-90150095D01*
X128542238Y-90102476D01*
X128447000Y-90007238D01*
X128399381Y-89864380D01*
X128399381Y-89769142D01*
X128447000Y-89626285D01*
X128494619Y-89578666D01*
X129399381Y-88626285D02*
X129399381Y-89197714D01*
X129399381Y-88912000D02*
X128399381Y-88912000D01*
X128542238Y-89007238D01*
X128637476Y-89102476D01*
X128685095Y-89197714D01*
X128894143Y-89944857D02*
X128941762Y-89992476D01*
X128989381Y-90135333D01*
X128989381Y-90230571D01*
X128941762Y-90373429D01*
X128846524Y-90468667D01*
X128751286Y-90516286D01*
X128560810Y-90563905D01*
X128417952Y-90563905D01*
X128227476Y-90516286D01*
X128132238Y-90468667D01*
X128037000Y-90373429D01*
X127989381Y-90230571D01*
X127989381Y-90135333D01*
X128037000Y-89992476D01*
X128084619Y-89944857D01*
X128084619Y-89563905D02*
X128037000Y-89516286D01*
X127989381Y-89421048D01*
X127989381Y-89182952D01*
X128037000Y-89087714D01*
X128084619Y-89040095D01*
X128179857Y-88992476D01*
X128275095Y-88992476D01*
X128417952Y-89040095D01*
X128989381Y-89611524D01*
X128989381Y-88992476D01*
X128989381Y-88040095D02*
X128989381Y-88611524D01*
X128989381Y-88325810D02*
X127989381Y-88325810D01*
X128132238Y-88421048D01*
X128227476Y-88516286D01*
X128275095Y-88611524D01*
X147280334Y-104057143D02*
X147232715Y-104104762D01*
X147089858Y-104152381D01*
X146994620Y-104152381D01*
X146851762Y-104104762D01*
X146756524Y-104009524D01*
X146708905Y-103914286D01*
X146661286Y-103723810D01*
X146661286Y-103580952D01*
X146708905Y-103390476D01*
X146756524Y-103295238D01*
X146851762Y-103200000D01*
X146994620Y-103152381D01*
X147089858Y-103152381D01*
X147232715Y-103200000D01*
X147280334Y-103247619D01*
X147851762Y-103580952D02*
X147756524Y-103533333D01*
X147708905Y-103485714D01*
X147661286Y-103390476D01*
X147661286Y-103342857D01*
X147708905Y-103247619D01*
X147756524Y-103200000D01*
X147851762Y-103152381D01*
X148042239Y-103152381D01*
X148137477Y-103200000D01*
X148185096Y-103247619D01*
X148232715Y-103342857D01*
X148232715Y-103390476D01*
X148185096Y-103485714D01*
X148137477Y-103533333D01*
X148042239Y-103580952D01*
X147851762Y-103580952D01*
X147756524Y-103628571D01*
X147708905Y-103676190D01*
X147661286Y-103771429D01*
X147661286Y-103961905D01*
X147708905Y-104057143D01*
X147756524Y-104104762D01*
X147851762Y-104152381D01*
X148042239Y-104152381D01*
X148137477Y-104104762D01*
X148185096Y-104057143D01*
X148232715Y-103961905D01*
X148232715Y-103771429D01*
X148185096Y-103676190D01*
X148137477Y-103628571D01*
X148042239Y-103580952D01*
D13*
X154775494Y-95758586D02*
X154775494Y-96252072D01*
X154804522Y-96310129D01*
X154833551Y-96339158D01*
X154891608Y-96368186D01*
X155007722Y-96368186D01*
X155065780Y-96339158D01*
X155094808Y-96310129D01*
X155123837Y-96252072D01*
X155123837Y-95758586D01*
X155356066Y-95758586D02*
X155733437Y-95758586D01*
X155530237Y-95990815D01*
X155617323Y-95990815D01*
X155675380Y-96019844D01*
X155704409Y-96048872D01*
X155733437Y-96106929D01*
X155733437Y-96252072D01*
X155704409Y-96310129D01*
X155675380Y-96339158D01*
X155617323Y-96368186D01*
X155443151Y-96368186D01*
X155385094Y-96339158D01*
X155356066Y-96310129D01*
X148732543Y-95718171D02*
X148732543Y-96211657D01*
X148761571Y-96269714D01*
X148790600Y-96298743D01*
X148848657Y-96327771D01*
X148964771Y-96327771D01*
X149022829Y-96298743D01*
X149051857Y-96269714D01*
X149080886Y-96211657D01*
X149080886Y-95718171D01*
X149690486Y-96327771D02*
X149342143Y-96327771D01*
X149516315Y-96327771D02*
X149516315Y-95718171D01*
X149458258Y-95805257D01*
X149400200Y-95863314D01*
X149342143Y-95892343D01*
D12*
X152460334Y-89064381D02*
X152127000Y-88588190D01*
X151888905Y-89064381D02*
X151888905Y-88064381D01*
X152269858Y-88064381D01*
X152365096Y-88112000D01*
X152412715Y-88159619D01*
X152460334Y-88254857D01*
X152460334Y-88397714D01*
X152412715Y-88492952D01*
X152365096Y-88540571D01*
X152269858Y-88588190D01*
X151888905Y-88588190D01*
X153412715Y-89064381D02*
X152841286Y-89064381D01*
X153127000Y-89064381D02*
X153127000Y-88064381D01*
X153031762Y-88207238D01*
X152936524Y-88302476D01*
X152841286Y-88350095D01*
X152450334Y-95294381D02*
X152117000Y-94818190D01*
X151878905Y-95294381D02*
X151878905Y-94294381D01*
X152259858Y-94294381D01*
X152355096Y-94342000D01*
X152402715Y-94389619D01*
X152450334Y-94484857D01*
X152450334Y-94627714D01*
X152402715Y-94722952D01*
X152355096Y-94770571D01*
X152259858Y-94818190D01*
X151878905Y-94818190D01*
X152831286Y-94389619D02*
X152878905Y-94342000D01*
X152974143Y-94294381D01*
X153212239Y-94294381D01*
X153307477Y-94342000D01*
X153355096Y-94389619D01*
X153402715Y-94484857D01*
X153402715Y-94580095D01*
X153355096Y-94722952D01*
X152783667Y-95294381D01*
X153402715Y-95294381D01*
X160540334Y-88404381D02*
X160207000Y-87928190D01*
X159968905Y-88404381D02*
X159968905Y-87404381D01*
X160349858Y-87404381D01*
X160445096Y-87452000D01*
X160492715Y-87499619D01*
X160540334Y-87594857D01*
X160540334Y-87737714D01*
X160492715Y-87832952D01*
X160445096Y-87880571D01*
X160349858Y-87928190D01*
X159968905Y-87928190D01*
X160873667Y-87404381D02*
X161492715Y-87404381D01*
X161159381Y-87785333D01*
X161302239Y-87785333D01*
X161397477Y-87832952D01*
X161445096Y-87880571D01*
X161492715Y-87975810D01*
X161492715Y-88213905D01*
X161445096Y-88309143D01*
X161397477Y-88356762D01*
X161302239Y-88404381D01*
X161016524Y-88404381D01*
X160921286Y-88356762D01*
X160873667Y-88309143D01*
X160510334Y-94844381D02*
X160177000Y-94368190D01*
X159938905Y-94844381D02*
X159938905Y-93844381D01*
X160319858Y-93844381D01*
X160415096Y-93892000D01*
X160462715Y-93939619D01*
X160510334Y-94034857D01*
X160510334Y-94177714D01*
X160462715Y-94272952D01*
X160415096Y-94320571D01*
X160319858Y-94368190D01*
X159938905Y-94368190D01*
X161367477Y-94177714D02*
X161367477Y-94844381D01*
X161129381Y-93796762D02*
X160891286Y-94511048D01*
X161510334Y-94511048D01*
X148510334Y-94614381D02*
X148034143Y-94614381D01*
X148034143Y-93614381D01*
X149367477Y-94614381D02*
X148796048Y-94614381D01*
X149081762Y-94614381D02*
X149081762Y-93614381D01*
X148986524Y-93757238D01*
X148891286Y-93852476D01*
X148796048Y-93900095D01*
X156280334Y-94704381D02*
X155804143Y-94704381D01*
X155804143Y-93704381D01*
X156518429Y-93704381D02*
X157137477Y-93704381D01*
X156804143Y-94085333D01*
X156947001Y-94085333D01*
X157042239Y-94132952D01*
X157089858Y-94180571D01*
X157137477Y-94275810D01*
X157137477Y-94513905D01*
X157089858Y-94609143D01*
X157042239Y-94656762D01*
X156947001Y-94704381D01*
X156661286Y-94704381D01*
X156566048Y-94656762D01*
X156518429Y-94609143D01*
D18*
X156391524Y-109974381D02*
X155121524Y-109974381D01*
X155121524Y-109490572D01*
X155182000Y-109369619D01*
X155242476Y-109309143D01*
X155363429Y-109248667D01*
X155544857Y-109248667D01*
X155665810Y-109309143D01*
X155726286Y-109369619D01*
X155786762Y-109490572D01*
X155786762Y-109974381D01*
X155121524Y-108825333D02*
X155121524Y-108039143D01*
X155605333Y-108462476D01*
X155605333Y-108281048D01*
X155665810Y-108160095D01*
X155726286Y-108099619D01*
X155847238Y-108039143D01*
X156149619Y-108039143D01*
X156270571Y-108099619D01*
X156331048Y-108160095D01*
X156391524Y-108281048D01*
X156391524Y-108643905D01*
X156331048Y-108764857D01*
X156270571Y-108825333D01*
D12*
X157740143Y-101217429D02*
X157740143Y-102451143D01*
X157812715Y-102596286D01*
X157885286Y-102668857D01*
X158030429Y-102741429D01*
X158320715Y-102741429D01*
X158465857Y-102668857D01*
X158538429Y-102596286D01*
X158611000Y-102451143D01*
X158611000Y-101217429D01*
X159264143Y-102668857D02*
X159481857Y-102741429D01*
X159844714Y-102741429D01*
X159989857Y-102668857D01*
X160062428Y-102596286D01*
X160135000Y-102451143D01*
X160135000Y-102306000D01*
X160062428Y-102160857D01*
X159989857Y-102088286D01*
X159844714Y-102015714D01*
X159554428Y-101943143D01*
X159409286Y-101870571D01*
X159336714Y-101798000D01*
X159264143Y-101652857D01*
X159264143Y-101507714D01*
X159336714Y-101362571D01*
X159409286Y-101290000D01*
X159554428Y-101217429D01*
X159917286Y-101217429D01*
X160135000Y-101290000D01*
X161296143Y-101943143D02*
X161513857Y-102015714D01*
X161586429Y-102088286D01*
X161659000Y-102233429D01*
X161659000Y-102451143D01*
X161586429Y-102596286D01*
X161513857Y-102668857D01*
X161368715Y-102741429D01*
X160788143Y-102741429D01*
X160788143Y-101217429D01*
X161296143Y-101217429D01*
X161441286Y-101290000D01*
X161513857Y-101362571D01*
X161586429Y-101507714D01*
X161586429Y-101652857D01*
X161513857Y-101798000D01*
X161441286Y-101870571D01*
X161296143Y-101943143D01*
X160788143Y-101943143D01*
X161949286Y-102886571D02*
X163110429Y-102886571D01*
X163400715Y-102306000D02*
X164126429Y-102306000D01*
X163255572Y-102741429D02*
X163763572Y-101217429D01*
X164271572Y-102741429D01*
X130939381Y-103000095D02*
X129939381Y-103000095D01*
X129939381Y-102619142D01*
X129987000Y-102523904D01*
X130034619Y-102476285D01*
X130129857Y-102428666D01*
X130272714Y-102428666D01*
X130367952Y-102476285D01*
X130415571Y-102523904D01*
X130463190Y-102619142D01*
X130463190Y-103000095D01*
X130272714Y-101571523D02*
X130939381Y-101571523D01*
X129891762Y-101809619D02*
X130606048Y-102047714D01*
X130606048Y-101428666D01*
X153544143Y-103589143D02*
X153496524Y-103636762D01*
X153353667Y-103684381D01*
X153258429Y-103684381D01*
X153115571Y-103636762D01*
X153020333Y-103541524D01*
X152972714Y-103446286D01*
X152925095Y-103255810D01*
X152925095Y-103112952D01*
X152972714Y-102922476D01*
X153020333Y-102827238D01*
X153115571Y-102732000D01*
X153258429Y-102684381D01*
X153353667Y-102684381D01*
X153496524Y-102732000D01*
X153544143Y-102779619D01*
X154496524Y-103684381D02*
X153925095Y-103684381D01*
X154210809Y-103684381D02*
X154210809Y-102684381D01*
X154115571Y-102827238D01*
X154020333Y-102922476D01*
X153925095Y-102970095D01*
X154877476Y-102779619D02*
X154925095Y-102732000D01*
X155020333Y-102684381D01*
X155258429Y-102684381D01*
X155353667Y-102732000D01*
X155401286Y-102779619D01*
X155448905Y-102874857D01*
X155448905Y-102970095D01*
X155401286Y-103112952D01*
X154829857Y-103684381D01*
X155448905Y-103684381D01*
X134828905Y-113294381D02*
X134828905Y-112294381D01*
X135209858Y-112294381D01*
X135305096Y-112342000D01*
X135352715Y-112389619D01*
X135400334Y-112484857D01*
X135400334Y-112627714D01*
X135352715Y-112722952D01*
X135305096Y-112770571D01*
X135209858Y-112818190D01*
X134828905Y-112818190D01*
X136352715Y-113294381D02*
X135781286Y-113294381D01*
X136067000Y-113294381D02*
X136067000Y-112294381D01*
X135971762Y-112437238D01*
X135876524Y-112532476D01*
X135781286Y-112580095D01*
X134818905Y-78244381D02*
X134818905Y-77244381D01*
X135199858Y-77244381D01*
X135295096Y-77292000D01*
X135342715Y-77339619D01*
X135390334Y-77434857D01*
X135390334Y-77577714D01*
X135342715Y-77672952D01*
X135295096Y-77720571D01*
X135199858Y-77768190D01*
X134818905Y-77768190D01*
X135771286Y-77339619D02*
X135818905Y-77292000D01*
X135914143Y-77244381D01*
X136152239Y-77244381D01*
X136247477Y-77292000D01*
X136295096Y-77339619D01*
X136342715Y-77434857D01*
X136342715Y-77530095D01*
X136295096Y-77672952D01*
X135723667Y-78244381D01*
X136342715Y-78244381D01*
X150155095Y-107694381D02*
X150155095Y-108503905D01*
X150202714Y-108599143D01*
X150250333Y-108646762D01*
X150345571Y-108694381D01*
X150536048Y-108694381D01*
X150631286Y-108646762D01*
X150678905Y-108599143D01*
X150726524Y-108503905D01*
X150726524Y-107694381D01*
X151631286Y-108027714D02*
X151631286Y-108694381D01*
X151393190Y-107646762D02*
X151155095Y-108361048D01*
X151774143Y-108361048D01*
X162335095Y-112844381D02*
X162335095Y-113653905D01*
X162382714Y-113749143D01*
X162430333Y-113796762D01*
X162525571Y-113844381D01*
X162716048Y-113844381D01*
X162811286Y-113796762D01*
X162858905Y-113749143D01*
X162906524Y-113653905D01*
X162906524Y-112844381D01*
X163858905Y-112844381D02*
X163382714Y-112844381D01*
X163335095Y-113320571D01*
X163382714Y-113272952D01*
X163477952Y-113225333D01*
X163716048Y-113225333D01*
X163811286Y-113272952D01*
X163858905Y-113320571D01*
X163906524Y-113415810D01*
X163906524Y-113653905D01*
X163858905Y-113749143D01*
X163811286Y-113796762D01*
X163716048Y-113844381D01*
X163477952Y-113844381D01*
X163382714Y-113796762D01*
X163335095Y-113749143D01*
X126934143Y-111719143D02*
X126886524Y-111766762D01*
X126743667Y-111814381D01*
X126648429Y-111814381D01*
X126505571Y-111766762D01*
X126410333Y-111671524D01*
X126362714Y-111576286D01*
X126315095Y-111385810D01*
X126315095Y-111242952D01*
X126362714Y-111052476D01*
X126410333Y-110957238D01*
X126505571Y-110862000D01*
X126648429Y-110814381D01*
X126743667Y-110814381D01*
X126886524Y-110862000D01*
X126934143Y-110909619D01*
X127886524Y-111814381D02*
X127315095Y-111814381D01*
X127600809Y-111814381D02*
X127600809Y-110814381D01*
X127505571Y-110957238D01*
X127410333Y-111052476D01*
X127315095Y-111100095D01*
X128838905Y-111814381D02*
X128267476Y-111814381D01*
X128553190Y-111814381D02*
X128553190Y-110814381D01*
X128457952Y-110957238D01*
X128362714Y-111052476D01*
X128267476Y-111100095D01*
X137369381Y-89308666D02*
X137369381Y-89784857D01*
X136369381Y-89784857D01*
X136464619Y-89022952D02*
X136417000Y-88975333D01*
X136369381Y-88880095D01*
X136369381Y-88641999D01*
X136417000Y-88546761D01*
X136464619Y-88499142D01*
X136559857Y-88451523D01*
X136655095Y-88451523D01*
X136797952Y-88499142D01*
X137369381Y-89070571D01*
X137369381Y-88451523D01*
X131219381Y-92638666D02*
X131219381Y-93114857D01*
X130219381Y-93114857D01*
X130552714Y-91876761D02*
X131219381Y-91876761D01*
X130171762Y-92114857D02*
X130886048Y-92352952D01*
X130886048Y-91733904D01*
X127304143Y-89558666D02*
X127351762Y-89606285D01*
X127399381Y-89749142D01*
X127399381Y-89844380D01*
X127351762Y-89987238D01*
X127256524Y-90082476D01*
X127161286Y-90130095D01*
X126970810Y-90177714D01*
X126827952Y-90177714D01*
X126637476Y-90130095D01*
X126542238Y-90082476D01*
X126447000Y-89987238D01*
X126399381Y-89844380D01*
X126399381Y-89749142D01*
X126447000Y-89606285D01*
X126494619Y-89558666D01*
X126732714Y-88701523D02*
X127399381Y-88701523D01*
X126351762Y-88939619D02*
X127066048Y-89177714D01*
X127066048Y-88558666D01*
X124104143Y-95258666D02*
X124151762Y-95306285D01*
X124199381Y-95449142D01*
X124199381Y-95544380D01*
X124151762Y-95687238D01*
X124056524Y-95782476D01*
X123961286Y-95830095D01*
X123770810Y-95877714D01*
X123627952Y-95877714D01*
X123437476Y-95830095D01*
X123342238Y-95782476D01*
X123247000Y-95687238D01*
X123199381Y-95544380D01*
X123199381Y-95449142D01*
X123247000Y-95306285D01*
X123294619Y-95258666D01*
X123199381Y-94401523D02*
X123199381Y-94592000D01*
X123247000Y-94687238D01*
X123294619Y-94734857D01*
X123437476Y-94830095D01*
X123627952Y-94877714D01*
X124008905Y-94877714D01*
X124104143Y-94830095D01*
X124151762Y-94782476D01*
X124199381Y-94687238D01*
X124199381Y-94496761D01*
X124151762Y-94401523D01*
X124104143Y-94353904D01*
X124008905Y-94306285D01*
X123770810Y-94306285D01*
X123675571Y-94353904D01*
X123627952Y-94401523D01*
X123580333Y-94496761D01*
X123580333Y-94687238D01*
X123627952Y-94782476D01*
X123675571Y-94830095D01*
X123770810Y-94877714D01*
X143400334Y-78509143D02*
X143352715Y-78556762D01*
X143209858Y-78604381D01*
X143114620Y-78604381D01*
X142971762Y-78556762D01*
X142876524Y-78461524D01*
X142828905Y-78366286D01*
X142781286Y-78175810D01*
X142781286Y-78032952D01*
X142828905Y-77842476D01*
X142876524Y-77747238D01*
X142971762Y-77652000D01*
X143114620Y-77604381D01*
X143209858Y-77604381D01*
X143352715Y-77652000D01*
X143400334Y-77699619D01*
X143733667Y-77604381D02*
X144400334Y-77604381D01*
X143971762Y-78604381D01*
X147450334Y-82749143D02*
X147402715Y-82796762D01*
X147259858Y-82844381D01*
X147164620Y-82844381D01*
X147021762Y-82796762D01*
X146926524Y-82701524D01*
X146878905Y-82606286D01*
X146831286Y-82415810D01*
X146831286Y-82272952D01*
X146878905Y-82082476D01*
X146926524Y-81987238D01*
X147021762Y-81892000D01*
X147164620Y-81844381D01*
X147259858Y-81844381D01*
X147402715Y-81892000D01*
X147450334Y-81939619D01*
X147926524Y-82844381D02*
X148117000Y-82844381D01*
X148212239Y-82796762D01*
X148259858Y-82749143D01*
X148355096Y-82606286D01*
X148402715Y-82415810D01*
X148402715Y-82034857D01*
X148355096Y-81939619D01*
X148307477Y-81892000D01*
X148212239Y-81844381D01*
X148021762Y-81844381D01*
X147926524Y-81892000D01*
X147878905Y-81939619D01*
X147831286Y-82034857D01*
X147831286Y-82272952D01*
X147878905Y-82368190D01*
X147926524Y-82415810D01*
X148021762Y-82463429D01*
X148212239Y-82463429D01*
X148307477Y-82415810D01*
X148355096Y-82368190D01*
X148402715Y-82272952D01*
X140554143Y-107454857D02*
X140601762Y-107502476D01*
X140649381Y-107645333D01*
X140649381Y-107740571D01*
X140601762Y-107883429D01*
X140506524Y-107978667D01*
X140411286Y-108026286D01*
X140220810Y-108073905D01*
X140077952Y-108073905D01*
X139887476Y-108026286D01*
X139792238Y-107978667D01*
X139697000Y-107883429D01*
X139649381Y-107740571D01*
X139649381Y-107645333D01*
X139697000Y-107502476D01*
X139744619Y-107454857D01*
X140649381Y-106502476D02*
X140649381Y-107073905D01*
X140649381Y-106788191D02*
X139649381Y-106788191D01*
X139792238Y-106883429D01*
X139887476Y-106978667D01*
X139935095Y-107073905D01*
X139649381Y-105883429D02*
X139649381Y-105788190D01*
X139697000Y-105692952D01*
X139744619Y-105645333D01*
X139839857Y-105597714D01*
X140030333Y-105550095D01*
X140268429Y-105550095D01*
X140458905Y-105597714D01*
X140554143Y-105645333D01*
X140601762Y-105692952D01*
X140649381Y-105788190D01*
X140649381Y-105883429D01*
X140601762Y-105978667D01*
X140554143Y-106026286D01*
X140458905Y-106073905D01*
X140268429Y-106121524D01*
X140030333Y-106121524D01*
X139839857Y-106073905D01*
X139744619Y-106026286D01*
X139697000Y-105978667D01*
X139649381Y-105883429D01*
X131140334Y-102304381D02*
X130807000Y-101828190D01*
X130568905Y-102304381D02*
X130568905Y-101304381D01*
X130949858Y-101304381D01*
X131045096Y-101352000D01*
X131092715Y-101399619D01*
X131140334Y-101494857D01*
X131140334Y-101637714D01*
X131092715Y-101732952D01*
X131045096Y-101780571D01*
X130949858Y-101828190D01*
X130568905Y-101828190D01*
X131997477Y-101304381D02*
X131807000Y-101304381D01*
X131711762Y-101352000D01*
X131664143Y-101399619D01*
X131568905Y-101542476D01*
X131521286Y-101732952D01*
X131521286Y-102113905D01*
X131568905Y-102209143D01*
X131616524Y-102256762D01*
X131711762Y-102304381D01*
X131902239Y-102304381D01*
X131997477Y-102256762D01*
X132045096Y-102209143D01*
X132092715Y-102113905D01*
X132092715Y-101875810D01*
X132045096Y-101780571D01*
X131997477Y-101732952D01*
X131902239Y-101685333D01*
X131711762Y-101685333D01*
X131616524Y-101732952D01*
X131568905Y-101780571D01*
X131521286Y-101875810D01*
X163566667Y-81404381D02*
X163233333Y-80928190D01*
X162995238Y-81404381D02*
X162995238Y-80404381D01*
X163376191Y-80404381D01*
X163471429Y-80452000D01*
X163519048Y-80499619D01*
X163566667Y-80594857D01*
X163566667Y-80737714D01*
X163519048Y-80832952D01*
X163471429Y-80880571D01*
X163376191Y-80928190D01*
X162995238Y-80928190D01*
X163995238Y-80880571D02*
X164328572Y-80880571D01*
X164471429Y-81404381D02*
X163995238Y-81404381D01*
X163995238Y-80404381D01*
X164471429Y-80404381D01*
X165233334Y-80880571D02*
X164900000Y-80880571D01*
X164900000Y-81404381D02*
X164900000Y-80404381D01*
X165376191Y-80404381D01*
X165900000Y-80404381D02*
X165900000Y-80642476D01*
X165661905Y-80547238D02*
X165900000Y-80642476D01*
X166138096Y-80547238D01*
X165757143Y-80832952D02*
X165900000Y-80642476D01*
X166042858Y-80832952D01*
X166661905Y-80404381D02*
X166661905Y-80642476D01*
X166423810Y-80547238D02*
X166661905Y-80642476D01*
X166900001Y-80547238D01*
X166519048Y-80832952D02*
X166661905Y-80642476D01*
X166804763Y-80832952D01*
X127966667Y-81404381D02*
X127633333Y-80928190D01*
X127395238Y-81404381D02*
X127395238Y-80404381D01*
X127776191Y-80404381D01*
X127871429Y-80452000D01*
X127919048Y-80499619D01*
X127966667Y-80594857D01*
X127966667Y-80737714D01*
X127919048Y-80832952D01*
X127871429Y-80880571D01*
X127776191Y-80928190D01*
X127395238Y-80928190D01*
X128395238Y-80880571D02*
X128728572Y-80880571D01*
X128871429Y-81404381D02*
X128395238Y-81404381D01*
X128395238Y-80404381D01*
X128871429Y-80404381D01*
X129633334Y-80880571D02*
X129300000Y-80880571D01*
X129300000Y-81404381D02*
X129300000Y-80404381D01*
X129776191Y-80404381D01*
X130300000Y-80404381D02*
X130300000Y-80642476D01*
X130061905Y-80547238D02*
X130300000Y-80642476D01*
X130538096Y-80547238D01*
X130157143Y-80832952D02*
X130300000Y-80642476D01*
X130442858Y-80832952D01*
X131061905Y-80404381D02*
X131061905Y-80642476D01*
X130823810Y-80547238D02*
X131061905Y-80642476D01*
X131300001Y-80547238D01*
X130919048Y-80832952D02*
X131061905Y-80642476D01*
X131204763Y-80832952D01*
X127866667Y-117004381D02*
X127533333Y-116528190D01*
X127295238Y-117004381D02*
X127295238Y-116004381D01*
X127676191Y-116004381D01*
X127771429Y-116052000D01*
X127819048Y-116099619D01*
X127866667Y-116194857D01*
X127866667Y-116337714D01*
X127819048Y-116432952D01*
X127771429Y-116480571D01*
X127676191Y-116528190D01*
X127295238Y-116528190D01*
X128295238Y-116480571D02*
X128628572Y-116480571D01*
X128771429Y-117004381D02*
X128295238Y-117004381D01*
X128295238Y-116004381D01*
X128771429Y-116004381D01*
X129533334Y-116480571D02*
X129200000Y-116480571D01*
X129200000Y-117004381D02*
X129200000Y-116004381D01*
X129676191Y-116004381D01*
X130200000Y-116004381D02*
X130200000Y-116242476D01*
X129961905Y-116147238D02*
X130200000Y-116242476D01*
X130438096Y-116147238D01*
X130057143Y-116432952D02*
X130200000Y-116242476D01*
X130342858Y-116432952D01*
X130961905Y-116004381D02*
X130961905Y-116242476D01*
X130723810Y-116147238D02*
X130961905Y-116242476D01*
X131200001Y-116147238D01*
X130819048Y-116432952D02*
X130961905Y-116242476D01*
X131104763Y-116432952D01*
X163366667Y-117004381D02*
X163033333Y-116528190D01*
X162795238Y-117004381D02*
X162795238Y-116004381D01*
X163176191Y-116004381D01*
X163271429Y-116052000D01*
X163319048Y-116099619D01*
X163366667Y-116194857D01*
X163366667Y-116337714D01*
X163319048Y-116432952D01*
X163271429Y-116480571D01*
X163176191Y-116528190D01*
X162795238Y-116528190D01*
X163795238Y-116480571D02*
X164128572Y-116480571D01*
X164271429Y-117004381D02*
X163795238Y-117004381D01*
X163795238Y-116004381D01*
X164271429Y-116004381D01*
X165033334Y-116480571D02*
X164700000Y-116480571D01*
X164700000Y-117004381D02*
X164700000Y-116004381D01*
X165176191Y-116004381D01*
X165700000Y-116004381D02*
X165700000Y-116242476D01*
X165461905Y-116147238D02*
X165700000Y-116242476D01*
X165938096Y-116147238D01*
X165557143Y-116432952D02*
X165700000Y-116242476D01*
X165842858Y-116432952D01*
X166461905Y-116004381D02*
X166461905Y-116242476D01*
X166223810Y-116147238D02*
X166461905Y-116242476D01*
X166700001Y-116147238D01*
X166319048Y-116432952D02*
X166461905Y-116242476D01*
X166604763Y-116432952D01*
X140319381Y-89098666D02*
X139843190Y-89432000D01*
X140319381Y-89670095D02*
X139319381Y-89670095D01*
X139319381Y-89289142D01*
X139367000Y-89193904D01*
X139414619Y-89146285D01*
X139509857Y-89098666D01*
X139652714Y-89098666D01*
X139747952Y-89146285D01*
X139795571Y-89193904D01*
X139843190Y-89289142D01*
X139843190Y-89670095D01*
X139319381Y-88765333D02*
X139319381Y-88098666D01*
X140319381Y-88527238D01*
X130844143Y-90459143D02*
X130796524Y-90506762D01*
X130653667Y-90554381D01*
X130558429Y-90554381D01*
X130415571Y-90506762D01*
X130320333Y-90411524D01*
X130272714Y-90316286D01*
X130225095Y-90125810D01*
X130225095Y-89982952D01*
X130272714Y-89792476D01*
X130320333Y-89697238D01*
X130415571Y-89602000D01*
X130558429Y-89554381D01*
X130653667Y-89554381D01*
X130796524Y-89602000D01*
X130844143Y-89649619D01*
X131796524Y-90554381D02*
X131225095Y-90554381D01*
X131510809Y-90554381D02*
X131510809Y-89554381D01*
X131415571Y-89697238D01*
X131320333Y-89792476D01*
X131225095Y-89840095D01*
X132129857Y-89554381D02*
X132748905Y-89554381D01*
X132415571Y-89935333D01*
X132558429Y-89935333D01*
X132653667Y-89982952D01*
X132701286Y-90030571D01*
X132748905Y-90125810D01*
X132748905Y-90363905D01*
X132701286Y-90459143D01*
X132653667Y-90506762D01*
X132558429Y-90554381D01*
X132272714Y-90554381D01*
X132177476Y-90506762D01*
X132129857Y-90459143D01*
X137554143Y-102994857D02*
X137601762Y-103042476D01*
X137649381Y-103185333D01*
X137649381Y-103280571D01*
X137601762Y-103423429D01*
X137506524Y-103518667D01*
X137411286Y-103566286D01*
X137220810Y-103613905D01*
X137077952Y-103613905D01*
X136887476Y-103566286D01*
X136792238Y-103518667D01*
X136697000Y-103423429D01*
X136649381Y-103280571D01*
X136649381Y-103185333D01*
X136697000Y-103042476D01*
X136744619Y-102994857D01*
X137649381Y-102042476D02*
X137649381Y-102613905D01*
X137649381Y-102328191D02*
X136649381Y-102328191D01*
X136792238Y-102423429D01*
X136887476Y-102518667D01*
X136935095Y-102613905D01*
X136982714Y-101185333D02*
X137649381Y-101185333D01*
X136601762Y-101423429D02*
X137316048Y-101661524D01*
X137316048Y-101042476D01*
X136579381Y-113151714D02*
X136579381Y-112580285D01*
X137579381Y-112866000D02*
X136579381Y-112866000D01*
X137579381Y-112246952D02*
X136579381Y-112246952D01*
X137055571Y-112246952D02*
X137055571Y-111675523D01*
X137579381Y-111675523D02*
X136579381Y-111675523D01*
X137579381Y-110675523D02*
X137579381Y-111246952D01*
X137579381Y-110961238D02*
X136579381Y-110961238D01*
X136722238Y-111056476D01*
X136817476Y-111151714D01*
X136865095Y-111246952D01*
X165980334Y-92174381D02*
X165647000Y-91698190D01*
X165408905Y-92174381D02*
X165408905Y-91174381D01*
X165789858Y-91174381D01*
X165885096Y-91222000D01*
X165932715Y-91269619D01*
X165980334Y-91364857D01*
X165980334Y-91507714D01*
X165932715Y-91602952D01*
X165885096Y-91650571D01*
X165789858Y-91698190D01*
X165408905Y-91698190D01*
X166456524Y-92174381D02*
X166647000Y-92174381D01*
X166742239Y-92126762D01*
X166789858Y-92079143D01*
X166885096Y-91936286D01*
X166932715Y-91745810D01*
X166932715Y-91364857D01*
X166885096Y-91269619D01*
X166837477Y-91222000D01*
X166742239Y-91174381D01*
X166551762Y-91174381D01*
X166456524Y-91222000D01*
X166408905Y-91269619D01*
X166361286Y-91364857D01*
X166361286Y-91602952D01*
X166408905Y-91698190D01*
X166456524Y-91745810D01*
X166551762Y-91793429D01*
X166742239Y-91793429D01*
X166837477Y-91745810D01*
X166885096Y-91698190D01*
X166932715Y-91602952D01*
X165438905Y-94244381D02*
X165438905Y-93244381D01*
X165677000Y-93244381D01*
X165819858Y-93292000D01*
X165915096Y-93387238D01*
X165962715Y-93482476D01*
X166010334Y-93672952D01*
X166010334Y-93815810D01*
X165962715Y-94006286D01*
X165915096Y-94101524D01*
X165819858Y-94196762D01*
X165677000Y-94244381D01*
X165438905Y-94244381D01*
X166962715Y-94244381D02*
X166391286Y-94244381D01*
X166677000Y-94244381D02*
X166677000Y-93244381D01*
X166581762Y-93387238D01*
X166486524Y-93482476D01*
X166391286Y-93530095D01*
X142764143Y-91854381D02*
X142430809Y-91378190D01*
X142192714Y-91854381D02*
X142192714Y-90854381D01*
X142573667Y-90854381D01*
X142668905Y-90902000D01*
X142716524Y-90949619D01*
X142764143Y-91044857D01*
X142764143Y-91187714D01*
X142716524Y-91282952D01*
X142668905Y-91330571D01*
X142573667Y-91378190D01*
X142192714Y-91378190D01*
X143716524Y-91854381D02*
X143145095Y-91854381D01*
X143430809Y-91854381D02*
X143430809Y-90854381D01*
X143335571Y-90997238D01*
X143240333Y-91092476D01*
X143145095Y-91140095D01*
X144335571Y-90854381D02*
X144430810Y-90854381D01*
X144526048Y-90902000D01*
X144573667Y-90949619D01*
X144621286Y-91044857D01*
X144668905Y-91235333D01*
X144668905Y-91473429D01*
X144621286Y-91663905D01*
X144573667Y-91759143D01*
X144526048Y-91806762D01*
X144430810Y-91854381D01*
X144335571Y-91854381D01*
X144240333Y-91806762D01*
X144192714Y-91759143D01*
X144145095Y-91663905D01*
X144097476Y-91473429D01*
X144097476Y-91235333D01*
X144145095Y-91044857D01*
X144192714Y-90949619D01*
X144240333Y-90902000D01*
X144335571Y-90854381D01*
X131914143Y-103214857D02*
X131961762Y-103262476D01*
X132009381Y-103405333D01*
X132009381Y-103500571D01*
X131961762Y-103643429D01*
X131866524Y-103738667D01*
X131771286Y-103786286D01*
X131580810Y-103833905D01*
X131437952Y-103833905D01*
X131247476Y-103786286D01*
X131152238Y-103738667D01*
X131057000Y-103643429D01*
X131009381Y-103500571D01*
X131009381Y-103405333D01*
X131057000Y-103262476D01*
X131104619Y-103214857D01*
X132009381Y-102262476D02*
X132009381Y-102833905D01*
X132009381Y-102548191D02*
X131009381Y-102548191D01*
X131152238Y-102643429D01*
X131247476Y-102738667D01*
X131295095Y-102833905D01*
X131009381Y-101357714D02*
X131009381Y-101833905D01*
X131485571Y-101881524D01*
X131437952Y-101833905D01*
X131390333Y-101738667D01*
X131390333Y-101500571D01*
X131437952Y-101405333D01*
X131485571Y-101357714D01*
X131580810Y-101310095D01*
X131818905Y-101310095D01*
X131914143Y-101357714D01*
X131961762Y-101405333D01*
X132009381Y-101500571D01*
X132009381Y-101738667D01*
X131961762Y-101833905D01*
X131914143Y-101881524D01*
X134194143Y-103084857D02*
X134241762Y-103132476D01*
X134289381Y-103275333D01*
X134289381Y-103370571D01*
X134241762Y-103513429D01*
X134146524Y-103608667D01*
X134051286Y-103656286D01*
X133860810Y-103703905D01*
X133717952Y-103703905D01*
X133527476Y-103656286D01*
X133432238Y-103608667D01*
X133337000Y-103513429D01*
X133289381Y-103370571D01*
X133289381Y-103275333D01*
X133337000Y-103132476D01*
X133384619Y-103084857D01*
X134289381Y-102132476D02*
X134289381Y-102703905D01*
X134289381Y-102418191D02*
X133289381Y-102418191D01*
X133432238Y-102513429D01*
X133527476Y-102608667D01*
X133575095Y-102703905D01*
X133289381Y-101275333D02*
X133289381Y-101465810D01*
X133337000Y-101561048D01*
X133384619Y-101608667D01*
X133527476Y-101703905D01*
X133717952Y-101751524D01*
X134098905Y-101751524D01*
X134194143Y-101703905D01*
X134241762Y-101656286D01*
X134289381Y-101561048D01*
X134289381Y-101370571D01*
X134241762Y-101275333D01*
X134194143Y-101227714D01*
X134098905Y-101180095D01*
X133860810Y-101180095D01*
X133765571Y-101227714D01*
X133717952Y-101275333D01*
X133670333Y-101370571D01*
X133670333Y-101561048D01*
X133717952Y-101656286D01*
X133765571Y-101703905D01*
X133860810Y-101751524D01*
X126104143Y-95268666D02*
X126151762Y-95316285D01*
X126199381Y-95459142D01*
X126199381Y-95554380D01*
X126151762Y-95697238D01*
X126056524Y-95792476D01*
X125961286Y-95840095D01*
X125770810Y-95887714D01*
X125627952Y-95887714D01*
X125437476Y-95840095D01*
X125342238Y-95792476D01*
X125247000Y-95697238D01*
X125199381Y-95554380D01*
X125199381Y-95459142D01*
X125247000Y-95316285D01*
X125294619Y-95268666D01*
X125199381Y-94935333D02*
X125199381Y-94316285D01*
X125580333Y-94649619D01*
X125580333Y-94506761D01*
X125627952Y-94411523D01*
X125675571Y-94363904D01*
X125770810Y-94316285D01*
X126008905Y-94316285D01*
X126104143Y-94363904D01*
X126151762Y-94411523D01*
X126199381Y-94506761D01*
X126199381Y-94792476D01*
X126151762Y-94887714D01*
X126104143Y-94935333D01*
X156490334Y-90909143D02*
X156442715Y-90956762D01*
X156299858Y-91004381D01*
X156204620Y-91004381D01*
X156061762Y-90956762D01*
X155966524Y-90861524D01*
X155918905Y-90766286D01*
X155871286Y-90575810D01*
X155871286Y-90432952D01*
X155918905Y-90242476D01*
X155966524Y-90147238D01*
X156061762Y-90052000D01*
X156204620Y-90004381D01*
X156299858Y-90004381D01*
X156442715Y-90052000D01*
X156490334Y-90099619D01*
X157395096Y-90004381D02*
X156918905Y-90004381D01*
X156871286Y-90480571D01*
X156918905Y-90432952D01*
X157014143Y-90385333D01*
X157252239Y-90385333D01*
X157347477Y-90432952D01*
X157395096Y-90480571D01*
X157442715Y-90575810D01*
X157442715Y-90813905D01*
X157395096Y-90909143D01*
X157347477Y-90956762D01*
X157252239Y-91004381D01*
X157014143Y-91004381D01*
X156918905Y-90956762D01*
X156871286Y-90909143D01*
X151094143Y-82779143D02*
X151046524Y-82826762D01*
X150903667Y-82874381D01*
X150808429Y-82874381D01*
X150665571Y-82826762D01*
X150570333Y-82731524D01*
X150522714Y-82636286D01*
X150475095Y-82445810D01*
X150475095Y-82302952D01*
X150522714Y-82112476D01*
X150570333Y-82017238D01*
X150665571Y-81922000D01*
X150808429Y-81874381D01*
X150903667Y-81874381D01*
X151046524Y-81922000D01*
X151094143Y-81969619D01*
X152046524Y-82874381D02*
X151475095Y-82874381D01*
X151760809Y-82874381D02*
X151760809Y-81874381D01*
X151665571Y-82017238D01*
X151570333Y-82112476D01*
X151475095Y-82160095D01*
X152617952Y-82302952D02*
X152522714Y-82255333D01*
X152475095Y-82207714D01*
X152427476Y-82112476D01*
X152427476Y-82064857D01*
X152475095Y-81969619D01*
X152522714Y-81922000D01*
X152617952Y-81874381D01*
X152808429Y-81874381D01*
X152903667Y-81922000D01*
X152951286Y-81969619D01*
X152998905Y-82064857D01*
X152998905Y-82112476D01*
X152951286Y-82207714D01*
X152903667Y-82255333D01*
X152808429Y-82302952D01*
X152617952Y-82302952D01*
X152522714Y-82350571D01*
X152475095Y-82398190D01*
X152427476Y-82493429D01*
X152427476Y-82683905D01*
X152475095Y-82779143D01*
X152522714Y-82826762D01*
X152617952Y-82874381D01*
X152808429Y-82874381D01*
X152903667Y-82826762D01*
X152951286Y-82779143D01*
X152998905Y-82683905D01*
X152998905Y-82493429D01*
X152951286Y-82398190D01*
X152903667Y-82350571D01*
X152808429Y-82302952D01*
X154864143Y-82769143D02*
X154816524Y-82816762D01*
X154673667Y-82864381D01*
X154578429Y-82864381D01*
X154435571Y-82816762D01*
X154340333Y-82721524D01*
X154292714Y-82626286D01*
X154245095Y-82435810D01*
X154245095Y-82292952D01*
X154292714Y-82102476D01*
X154340333Y-82007238D01*
X154435571Y-81912000D01*
X154578429Y-81864381D01*
X154673667Y-81864381D01*
X154816524Y-81912000D01*
X154864143Y-81959619D01*
X155816524Y-82864381D02*
X155245095Y-82864381D01*
X155530809Y-82864381D02*
X155530809Y-81864381D01*
X155435571Y-82007238D01*
X155340333Y-82102476D01*
X155245095Y-82150095D01*
X156292714Y-82864381D02*
X156483190Y-82864381D01*
X156578429Y-82816762D01*
X156626048Y-82769143D01*
X156721286Y-82626286D01*
X156768905Y-82435810D01*
X156768905Y-82054857D01*
X156721286Y-81959619D01*
X156673667Y-81912000D01*
X156578429Y-81864381D01*
X156387952Y-81864381D01*
X156292714Y-81912000D01*
X156245095Y-81959619D01*
X156197476Y-82054857D01*
X156197476Y-82292952D01*
X156245095Y-82388190D01*
X156292714Y-82435810D01*
X156387952Y-82483429D01*
X156578429Y-82483429D01*
X156673667Y-82435810D01*
X156721286Y-82388190D01*
X156768905Y-82292952D01*
X142319381Y-89088666D02*
X141843190Y-89422000D01*
X142319381Y-89660095D02*
X141319381Y-89660095D01*
X141319381Y-89279142D01*
X141367000Y-89183904D01*
X141414619Y-89136285D01*
X141509857Y-89088666D01*
X141652714Y-89088666D01*
X141747952Y-89136285D01*
X141795571Y-89183904D01*
X141843190Y-89279142D01*
X141843190Y-89660095D01*
X141319381Y-88183904D02*
X141319381Y-88660095D01*
X141795571Y-88707714D01*
X141747952Y-88660095D01*
X141700333Y-88564857D01*
X141700333Y-88326761D01*
X141747952Y-88231523D01*
X141795571Y-88183904D01*
X141890810Y-88136285D01*
X142128905Y-88136285D01*
X142224143Y-88183904D01*
X142271762Y-88231523D01*
X142319381Y-88326761D01*
X142319381Y-88564857D01*
X142271762Y-88660095D01*
X142224143Y-88707714D01*
X148499381Y-89554857D02*
X148023190Y-89888191D01*
X148499381Y-90126286D02*
X147499381Y-90126286D01*
X147499381Y-89745333D01*
X147547000Y-89650095D01*
X147594619Y-89602476D01*
X147689857Y-89554857D01*
X147832714Y-89554857D01*
X147927952Y-89602476D01*
X147975571Y-89650095D01*
X148023190Y-89745333D01*
X148023190Y-90126286D01*
X148499381Y-88602476D02*
X148499381Y-89173905D01*
X148499381Y-88888191D02*
X147499381Y-88888191D01*
X147642238Y-88983429D01*
X147737476Y-89078667D01*
X147785095Y-89173905D01*
X148499381Y-87650095D02*
X148499381Y-88221524D01*
X148499381Y-87935810D02*
X147499381Y-87935810D01*
X147642238Y-88031048D01*
X147737476Y-88126286D01*
X147785095Y-88221524D01*
D18*
X136171961Y-90384284D02*
X136171961Y-91412379D01*
X136232437Y-91533331D01*
X136292913Y-91593808D01*
X136413866Y-91654284D01*
X136655770Y-91654284D01*
X136776723Y-91593808D01*
X136837199Y-91533331D01*
X136897675Y-91412379D01*
X136897675Y-90384284D01*
X137441961Y-90505236D02*
X137502437Y-90444760D01*
X137623389Y-90384284D01*
X137925770Y-90384284D01*
X138046723Y-90444760D01*
X138107199Y-90505236D01*
X138167675Y-90626189D01*
X138167675Y-90747141D01*
X138107199Y-90928570D01*
X137381485Y-91654284D01*
X138167675Y-91654284D01*
X134082872Y-90321327D02*
X134687634Y-90321327D01*
X133961919Y-90684184D02*
X134385253Y-89414184D01*
X134808586Y-90684184D01*
X135110967Y-89414184D02*
X135957633Y-90684184D01*
X135957633Y-89414184D02*
X135110967Y-90684184D01*
X136441443Y-90684184D02*
X136441443Y-89414184D01*
X136925252Y-89414184D01*
X137046205Y-89474660D01*
X137106681Y-89535136D01*
X137167157Y-89656089D01*
X137167157Y-89837517D01*
X137106681Y-89958470D01*
X137046205Y-90018946D01*
X136925252Y-90079422D01*
X136441443Y-90079422D01*
X137650967Y-89535136D02*
X137711443Y-89474660D01*
X137832395Y-89414184D01*
X138134776Y-89414184D01*
X138255729Y-89474660D01*
X138316205Y-89535136D01*
X138376681Y-89656089D01*
X138376681Y-89777041D01*
X138316205Y-89958470D01*
X137590491Y-90684184D01*
X138376681Y-90684184D01*
X139162872Y-89414184D02*
X139283824Y-89414184D01*
X139404776Y-89474660D01*
X139465253Y-89535136D01*
X139525729Y-89656089D01*
X139586205Y-89897993D01*
X139586205Y-90200374D01*
X139525729Y-90442279D01*
X139465253Y-90563231D01*
X139404776Y-90623708D01*
X139283824Y-90684184D01*
X139162872Y-90684184D01*
X139041919Y-90623708D01*
X138981443Y-90563231D01*
X138920967Y-90442279D01*
X138860491Y-90200374D01*
X138860491Y-89897993D01*
X138920967Y-89656089D01*
X138981443Y-89535136D01*
X139041919Y-89474660D01*
X139162872Y-89414184D01*
X140190967Y-90684184D02*
X140432872Y-90684184D01*
X140553824Y-90623708D01*
X140614300Y-90563231D01*
X140735253Y-90381803D01*
X140795729Y-90139898D01*
X140795729Y-89656089D01*
X140735253Y-89535136D01*
X140674777Y-89474660D01*
X140553824Y-89414184D01*
X140311920Y-89414184D01*
X140190967Y-89474660D01*
X140130491Y-89535136D01*
X140070015Y-89656089D01*
X140070015Y-89958470D01*
X140130491Y-90079422D01*
X140190967Y-90139898D01*
X140311920Y-90200374D01*
X140553824Y-90200374D01*
X140674777Y-90139898D01*
X140735253Y-90079422D01*
X140795729Y-89958470D01*
D12*
X142984143Y-98469143D02*
X142936524Y-98516762D01*
X142793667Y-98564381D01*
X142698429Y-98564381D01*
X142555571Y-98516762D01*
X142460333Y-98421524D01*
X142412714Y-98326286D01*
X142365095Y-98135810D01*
X142365095Y-97992952D01*
X142412714Y-97802476D01*
X142460333Y-97707238D01*
X142555571Y-97612000D01*
X142698429Y-97564381D01*
X142793667Y-97564381D01*
X142936524Y-97612000D01*
X142984143Y-97659619D01*
X143365095Y-97659619D02*
X143412714Y-97612000D01*
X143507952Y-97564381D01*
X143746048Y-97564381D01*
X143841286Y-97612000D01*
X143888905Y-97659619D01*
X143936524Y-97754857D01*
X143936524Y-97850095D01*
X143888905Y-97992952D01*
X143317476Y-98564381D01*
X143936524Y-98564381D01*
X144555571Y-97564381D02*
X144650810Y-97564381D01*
X144746048Y-97612000D01*
X144793667Y-97659619D01*
X144841286Y-97754857D01*
X144888905Y-97945333D01*
X144888905Y-98183429D01*
X144841286Y-98373905D01*
X144793667Y-98469143D01*
X144746048Y-98516762D01*
X144650810Y-98564381D01*
X144555571Y-98564381D01*
X144460333Y-98516762D01*
X144412714Y-98469143D01*
X144365095Y-98373905D01*
X144317476Y-98183429D01*
X144317476Y-97945333D01*
X144365095Y-97754857D01*
X144412714Y-97659619D01*
X144460333Y-97612000D01*
X144555571Y-97564381D01*
X129909286Y-111712571D02*
X130052143Y-111760190D01*
X130099762Y-111807810D01*
X130147381Y-111903048D01*
X130147381Y-112045905D01*
X130099762Y-112141143D01*
X130052143Y-112188762D01*
X129956905Y-112236381D01*
X129575952Y-112236381D01*
X129575952Y-111236381D01*
X129909286Y-111236381D01*
X130004524Y-111284000D01*
X130052143Y-111331619D01*
X130099762Y-111426857D01*
X130099762Y-111522095D01*
X130052143Y-111617333D01*
X130004524Y-111664952D01*
X129909286Y-111712571D01*
X129575952Y-111712571D01*
X130433095Y-111236381D02*
X131004524Y-111236381D01*
X130718809Y-112236381D02*
X130718809Y-111236381D01*
X131861667Y-112236381D02*
X131290238Y-112236381D01*
X131575952Y-112236381D02*
X131575952Y-111236381D01*
X131480714Y-111379238D01*
X131385476Y-111474476D01*
X131290238Y-111522095D01*
X130064048Y-114605429D02*
X130825953Y-114605429D01*
X132064048Y-114605429D02*
X132825953Y-114605429D01*
X132445001Y-114986381D02*
X132445001Y-114224476D01*
X143384143Y-103004857D02*
X143431762Y-103052476D01*
X143479381Y-103195333D01*
X143479381Y-103290571D01*
X143431762Y-103433429D01*
X143336524Y-103528667D01*
X143241286Y-103576286D01*
X143050810Y-103623905D01*
X142907952Y-103623905D01*
X142717476Y-103576286D01*
X142622238Y-103528667D01*
X142527000Y-103433429D01*
X142479381Y-103290571D01*
X142479381Y-103195333D01*
X142527000Y-103052476D01*
X142574619Y-103004857D01*
X142574619Y-102623905D02*
X142527000Y-102576286D01*
X142479381Y-102481048D01*
X142479381Y-102242952D01*
X142527000Y-102147714D01*
X142574619Y-102100095D01*
X142669857Y-102052476D01*
X142765095Y-102052476D01*
X142907952Y-102100095D01*
X143479381Y-102671524D01*
X143479381Y-102052476D01*
X142574619Y-101671524D02*
X142527000Y-101623905D01*
X142479381Y-101528667D01*
X142479381Y-101290571D01*
X142527000Y-101195333D01*
X142574619Y-101147714D01*
X142669857Y-101100095D01*
X142765095Y-101100095D01*
X142907952Y-101147714D01*
X143479381Y-101719143D01*
X143479381Y-101100095D01*
X133734143Y-103154857D02*
X133781762Y-103202476D01*
X133829381Y-103345333D01*
X133829381Y-103440571D01*
X133781762Y-103583429D01*
X133686524Y-103678667D01*
X133591286Y-103726286D01*
X133400810Y-103773905D01*
X133257952Y-103773905D01*
X133067476Y-103726286D01*
X132972238Y-103678667D01*
X132877000Y-103583429D01*
X132829381Y-103440571D01*
X132829381Y-103345333D01*
X132877000Y-103202476D01*
X132924619Y-103154857D01*
X132924619Y-102773905D02*
X132877000Y-102726286D01*
X132829381Y-102631048D01*
X132829381Y-102392952D01*
X132877000Y-102297714D01*
X132924619Y-102250095D01*
X133019857Y-102202476D01*
X133115095Y-102202476D01*
X133257952Y-102250095D01*
X133829381Y-102821524D01*
X133829381Y-102202476D01*
X132829381Y-101869143D02*
X132829381Y-101250095D01*
X133210333Y-101583429D01*
X133210333Y-101440571D01*
X133257952Y-101345333D01*
X133305571Y-101297714D01*
X133400810Y-101250095D01*
X133638905Y-101250095D01*
X133734143Y-101297714D01*
X133781762Y-101345333D01*
X133829381Y-101440571D01*
X133829381Y-101726286D01*
X133781762Y-101821524D01*
X133734143Y-101869143D01*
X130684143Y-100299143D02*
X130636524Y-100346762D01*
X130493667Y-100394381D01*
X130398429Y-100394381D01*
X130255571Y-100346762D01*
X130160333Y-100251524D01*
X130112714Y-100156286D01*
X130065095Y-99965810D01*
X130065095Y-99822952D01*
X130112714Y-99632476D01*
X130160333Y-99537238D01*
X130255571Y-99442000D01*
X130398429Y-99394381D01*
X130493667Y-99394381D01*
X130636524Y-99442000D01*
X130684143Y-99489619D01*
X131065095Y-99489619D02*
X131112714Y-99442000D01*
X131207952Y-99394381D01*
X131446048Y-99394381D01*
X131541286Y-99442000D01*
X131588905Y-99489619D01*
X131636524Y-99584857D01*
X131636524Y-99680095D01*
X131588905Y-99822952D01*
X131017476Y-100394381D01*
X131636524Y-100394381D01*
X132493667Y-99727714D02*
X132493667Y-100394381D01*
X132255571Y-99346762D02*
X132017476Y-100061048D01*
X132636524Y-100061048D01*
X135559381Y-103164857D02*
X135083190Y-103498191D01*
X135559381Y-103736286D02*
X134559381Y-103736286D01*
X134559381Y-103355333D01*
X134607000Y-103260095D01*
X134654619Y-103212476D01*
X134749857Y-103164857D01*
X134892714Y-103164857D01*
X134987952Y-103212476D01*
X135035571Y-103260095D01*
X135083190Y-103355333D01*
X135083190Y-103736286D01*
X135559381Y-102212476D02*
X135559381Y-102783905D01*
X135559381Y-102498191D02*
X134559381Y-102498191D01*
X134702238Y-102593429D01*
X134797476Y-102688667D01*
X134845095Y-102783905D01*
X134654619Y-101831524D02*
X134607000Y-101783905D01*
X134559381Y-101688667D01*
X134559381Y-101450571D01*
X134607000Y-101355333D01*
X134654619Y-101307714D01*
X134749857Y-101260095D01*
X134845095Y-101260095D01*
X134987952Y-101307714D01*
X135559381Y-101879143D01*
X135559381Y-101260095D01*
X127414143Y-90544381D02*
X127080809Y-90068190D01*
X126842714Y-90544381D02*
X126842714Y-89544381D01*
X127223667Y-89544381D01*
X127318905Y-89592000D01*
X127366524Y-89639619D01*
X127414143Y-89734857D01*
X127414143Y-89877714D01*
X127366524Y-89972952D01*
X127318905Y-90020571D01*
X127223667Y-90068190D01*
X126842714Y-90068190D01*
X128366524Y-90544381D02*
X127795095Y-90544381D01*
X128080809Y-90544381D02*
X128080809Y-89544381D01*
X127985571Y-89687238D01*
X127890333Y-89782476D01*
X127795095Y-89830095D01*
X128699857Y-89544381D02*
X129318905Y-89544381D01*
X128985571Y-89925333D01*
X129128429Y-89925333D01*
X129223667Y-89972952D01*
X129271286Y-90020571D01*
X129318905Y-90115810D01*
X129318905Y-90353905D01*
X129271286Y-90449143D01*
X129223667Y-90496762D01*
X129128429Y-90544381D01*
X128842714Y-90544381D01*
X128747476Y-90496762D01*
X128699857Y-90449143D01*
X142764143Y-90239143D02*
X142716524Y-90286762D01*
X142573667Y-90334381D01*
X142478429Y-90334381D01*
X142335571Y-90286762D01*
X142240333Y-90191524D01*
X142192714Y-90096286D01*
X142145095Y-89905810D01*
X142145095Y-89762952D01*
X142192714Y-89572476D01*
X142240333Y-89477238D01*
X142335571Y-89382000D01*
X142478429Y-89334381D01*
X142573667Y-89334381D01*
X142716524Y-89382000D01*
X142764143Y-89429619D01*
X143145095Y-89429619D02*
X143192714Y-89382000D01*
X143287952Y-89334381D01*
X143526048Y-89334381D01*
X143621286Y-89382000D01*
X143668905Y-89429619D01*
X143716524Y-89524857D01*
X143716524Y-89620095D01*
X143668905Y-89762952D01*
X143097476Y-90334381D01*
X143716524Y-90334381D01*
X144621286Y-89334381D02*
X144145095Y-89334381D01*
X144097476Y-89810571D01*
X144145095Y-89762952D01*
X144240333Y-89715333D01*
X144478429Y-89715333D01*
X144573667Y-89762952D01*
X144621286Y-89810571D01*
X144668905Y-89905810D01*
X144668905Y-90143905D01*
X144621286Y-90239143D01*
X144573667Y-90286762D01*
X144478429Y-90334381D01*
X144240333Y-90334381D01*
X144145095Y-90286762D01*
X144097476Y-90239143D01*
X148560334Y-90709143D02*
X148512715Y-90756762D01*
X148369858Y-90804381D01*
X148274620Y-90804381D01*
X148131762Y-90756762D01*
X148036524Y-90661524D01*
X147988905Y-90566286D01*
X147941286Y-90375810D01*
X147941286Y-90232952D01*
X147988905Y-90042476D01*
X148036524Y-89947238D01*
X148131762Y-89852000D01*
X148274620Y-89804381D01*
X148369858Y-89804381D01*
X148512715Y-89852000D01*
X148560334Y-89899619D01*
X148941286Y-89899619D02*
X148988905Y-89852000D01*
X149084143Y-89804381D01*
X149322239Y-89804381D01*
X149417477Y-89852000D01*
X149465096Y-89899619D01*
X149512715Y-89994857D01*
X149512715Y-90090095D01*
X149465096Y-90232952D01*
X148893667Y-90804381D01*
X149512715Y-90804381D01*
X149084143Y-96774857D02*
X149131762Y-96822476D01*
X149179381Y-96965333D01*
X149179381Y-97060571D01*
X149131762Y-97203429D01*
X149036524Y-97298667D01*
X148941286Y-97346286D01*
X148750810Y-97393905D01*
X148607952Y-97393905D01*
X148417476Y-97346286D01*
X148322238Y-97298667D01*
X148227000Y-97203429D01*
X148179381Y-97060571D01*
X148179381Y-96965333D01*
X148227000Y-96822476D01*
X148274619Y-96774857D01*
X148274619Y-96393905D02*
X148227000Y-96346286D01*
X148179381Y-96251048D01*
X148179381Y-96012952D01*
X148227000Y-95917714D01*
X148274619Y-95870095D01*
X148369857Y-95822476D01*
X148465095Y-95822476D01*
X148607952Y-95870095D01*
X149179381Y-96441524D01*
X149179381Y-95822476D01*
X148179381Y-94965333D02*
X148179381Y-95155810D01*
X148227000Y-95251048D01*
X148274619Y-95298667D01*
X148417476Y-95393905D01*
X148607952Y-95441524D01*
X148988905Y-95441524D01*
X149084143Y-95393905D01*
X149131762Y-95346286D01*
X149179381Y-95251048D01*
X149179381Y-95060571D01*
X149131762Y-94965333D01*
X149084143Y-94917714D01*
X148988905Y-94870095D01*
X148750810Y-94870095D01*
X148655571Y-94917714D01*
X148607952Y-94965333D01*
X148560333Y-95060571D01*
X148560333Y-95251048D01*
X148607952Y-95346286D01*
X148655571Y-95393905D01*
X148750810Y-95441524D01*
X155194143Y-96844857D02*
X155241762Y-96892476D01*
X155289381Y-97035333D01*
X155289381Y-97130571D01*
X155241762Y-97273429D01*
X155146524Y-97368667D01*
X155051286Y-97416286D01*
X154860810Y-97463905D01*
X154717952Y-97463905D01*
X154527476Y-97416286D01*
X154432238Y-97368667D01*
X154337000Y-97273429D01*
X154289381Y-97130571D01*
X154289381Y-97035333D01*
X154337000Y-96892476D01*
X154384619Y-96844857D01*
X154384619Y-96463905D02*
X154337000Y-96416286D01*
X154289381Y-96321048D01*
X154289381Y-96082952D01*
X154337000Y-95987714D01*
X154384619Y-95940095D01*
X154479857Y-95892476D01*
X154575095Y-95892476D01*
X154717952Y-95940095D01*
X155289381Y-96511524D01*
X155289381Y-95892476D01*
X154289381Y-95559143D02*
X154289381Y-94892476D01*
X155289381Y-95321048D01*
X151864143Y-90849143D02*
X151816524Y-90896762D01*
X151673667Y-90944381D01*
X151578429Y-90944381D01*
X151435571Y-90896762D01*
X151340333Y-90801524D01*
X151292714Y-90706286D01*
X151245095Y-90515810D01*
X151245095Y-90372952D01*
X151292714Y-90182476D01*
X151340333Y-90087238D01*
X151435571Y-89992000D01*
X151578429Y-89944381D01*
X151673667Y-89944381D01*
X151816524Y-89992000D01*
X151864143Y-90039619D01*
X152245095Y-90039619D02*
X152292714Y-89992000D01*
X152387952Y-89944381D01*
X152626048Y-89944381D01*
X152721286Y-89992000D01*
X152768905Y-90039619D01*
X152816524Y-90134857D01*
X152816524Y-90230095D01*
X152768905Y-90372952D01*
X152197476Y-90944381D01*
X152816524Y-90944381D01*
X153387952Y-90372952D02*
X153292714Y-90325333D01*
X153245095Y-90277714D01*
X153197476Y-90182476D01*
X153197476Y-90134857D01*
X153245095Y-90039619D01*
X153292714Y-89992000D01*
X153387952Y-89944381D01*
X153578429Y-89944381D01*
X153673667Y-89992000D01*
X153721286Y-90039619D01*
X153768905Y-90134857D01*
X153768905Y-90182476D01*
X153721286Y-90277714D01*
X153673667Y-90325333D01*
X153578429Y-90372952D01*
X153387952Y-90372952D01*
X153292714Y-90420571D01*
X153245095Y-90468190D01*
X153197476Y-90563429D01*
X153197476Y-90753905D01*
X153245095Y-90849143D01*
X153292714Y-90896762D01*
X153387952Y-90944381D01*
X153578429Y-90944381D01*
X153673667Y-90896762D01*
X153721286Y-90849143D01*
X153768905Y-90753905D01*
X153768905Y-90563429D01*
X153721286Y-90468190D01*
X153673667Y-90420571D01*
X153578429Y-90372952D01*
X160064143Y-90669143D02*
X160016524Y-90716762D01*
X159873667Y-90764381D01*
X159778429Y-90764381D01*
X159635571Y-90716762D01*
X159540333Y-90621524D01*
X159492714Y-90526286D01*
X159445095Y-90335810D01*
X159445095Y-90192952D01*
X159492714Y-90002476D01*
X159540333Y-89907238D01*
X159635571Y-89812000D01*
X159778429Y-89764381D01*
X159873667Y-89764381D01*
X160016524Y-89812000D01*
X160064143Y-89859619D01*
X160445095Y-89859619D02*
X160492714Y-89812000D01*
X160587952Y-89764381D01*
X160826048Y-89764381D01*
X160921286Y-89812000D01*
X160968905Y-89859619D01*
X161016524Y-89954857D01*
X161016524Y-90050095D01*
X160968905Y-90192952D01*
X160397476Y-90764381D01*
X161016524Y-90764381D01*
X161492714Y-90764381D02*
X161683190Y-90764381D01*
X161778429Y-90716762D01*
X161826048Y-90669143D01*
X161921286Y-90526286D01*
X161968905Y-90335810D01*
X161968905Y-89954857D01*
X161921286Y-89859619D01*
X161873667Y-89812000D01*
X161778429Y-89764381D01*
X161587952Y-89764381D01*
X161492714Y-89812000D01*
X161445095Y-89859619D01*
X161397476Y-89954857D01*
X161397476Y-90192952D01*
X161445095Y-90288190D01*
X161492714Y-90335810D01*
X161587952Y-90383429D01*
X161778429Y-90383429D01*
X161873667Y-90335810D01*
X161921286Y-90288190D01*
X161968905Y-90192952D01*
D17*
X132662096Y-109714619D02*
X132662096Y-108698619D01*
X132904001Y-108698619D01*
X133049143Y-108747000D01*
X133145905Y-108843762D01*
X133194286Y-108940524D01*
X133242667Y-109134048D01*
X133242667Y-109279190D01*
X133194286Y-109472714D01*
X133145905Y-109569476D01*
X133049143Y-109666238D01*
X132904001Y-109714619D01*
X132662096Y-109714619D01*
X133629715Y-108795381D02*
X133678096Y-108747000D01*
X133774858Y-108698619D01*
X134016762Y-108698619D01*
X134113524Y-108747000D01*
X134161905Y-108795381D01*
X134210286Y-108892143D01*
X134210286Y-108988905D01*
X134161905Y-109134048D01*
X133581334Y-109714619D01*
X134210286Y-109714619D01*
M02*
