G04 #@! TF.FileFunction,Soldermask,Top*
%FSLAX46Y46*%
G04 Gerber Fmt 4.6, Leading zero omitted, Abs format (unit mm)*
G04 Created by KiCad (PCBNEW 4.0.0-2.201511301920+6191~38~ubuntu14.04.1-stable) date Thu 21 Jan 2016 01:29:08 PM ICT*
%MOMM*%
G01*
G04 APERTURE LIST*
%ADD10C,0.100000*%
%ADD11R,0.338120X1.039160*%
%ADD12R,1.039160X0.338120*%
%ADD13R,1.562400X1.039160*%
%ADD14R,0.538780X1.039160*%
%ADD15C,1.140000*%
%ADD16R,0.749600X1.029000*%
%ADD17R,0.840000X1.440000*%
%ADD18R,3.640000X1.440000*%
%ADD19R,1.140000X1.740000*%
%ADD20R,2.240000X0.540000*%
%ADD21O,1.690000X1.140000*%
%ADD22C,0.740000*%
%ADD23R,2.040000X2.040000*%
%ADD24R,1.140000X1.140000*%
%ADD25R,1.867200X1.867200*%
%ADD26O,1.867200X1.867200*%
%ADD27R,1.440000X3.640000*%
%ADD28C,4.204000*%
%ADD29R,1.440000X0.840000*%
%ADD30C,1.537000*%
%ADD31C,1.540000*%
%ADD32R,1.140000X1.390000*%
%ADD33R,1.390000X1.140000*%
%ADD34R,1.940000X1.370000*%
%ADD35C,1.641140*%
G04 APERTURE END LIST*
D10*
D11*
X159626300Y-103057960D03*
X159224980Y-103057960D03*
X158826200Y-103057960D03*
X158424880Y-103057960D03*
X158026100Y-103057960D03*
X157624780Y-103057960D03*
X157228540Y-103057960D03*
X156827220Y-103057960D03*
X156428440Y-103057960D03*
X156027120Y-103057960D03*
X155628340Y-103057960D03*
X155227020Y-103057960D03*
D12*
X154426920Y-103858060D03*
X154426920Y-104259380D03*
X154426920Y-104658160D03*
X154426920Y-105059480D03*
X154426920Y-105458260D03*
X154426920Y-105859580D03*
X154426920Y-106255820D03*
X154426920Y-106657140D03*
X154426920Y-107055920D03*
X154426920Y-107457240D03*
X154426920Y-107856020D03*
X154426920Y-108257340D03*
D11*
X155227020Y-109057440D03*
X155628340Y-109057440D03*
X156027120Y-109057440D03*
X156428440Y-109057440D03*
X156827220Y-109057440D03*
X157228540Y-109057440D03*
X157624780Y-109057440D03*
X158026100Y-109057440D03*
X158424880Y-109057440D03*
X158826200Y-109057440D03*
X159224980Y-109057440D03*
X159626300Y-109057440D03*
D12*
X160426400Y-108257340D03*
X160426400Y-107856020D03*
X160426400Y-107457240D03*
X160426400Y-107055920D03*
X160426400Y-106657140D03*
X160426400Y-106255820D03*
X160426400Y-105859580D03*
X160426400Y-105458260D03*
X160426400Y-105059480D03*
X160426400Y-104658160D03*
X160426400Y-104259380D03*
X160426400Y-103858060D03*
D13*
X157426660Y-106057700D03*
D14*
X159024320Y-106705400D03*
X158424880Y-106705400D03*
X159024320Y-105410000D03*
X158424880Y-105410000D03*
X158074360Y-104460040D03*
X158074360Y-105059480D03*
X156778960Y-104460040D03*
X156778960Y-105059480D03*
X155829000Y-105410000D03*
X156428440Y-105410000D03*
X155829000Y-106705400D03*
X156428440Y-106705400D03*
X156778960Y-107655360D03*
X156778960Y-107055920D03*
X158074360Y-107655360D03*
X158074360Y-107055920D03*
D15*
X133583680Y-99438460D03*
X133583680Y-107439460D03*
D16*
X144322451Y-98882415D03*
X142417451Y-98882415D03*
X142417451Y-96342415D03*
X143369951Y-96342415D03*
X144322451Y-96342415D03*
X136614546Y-99161012D03*
X134709546Y-99161012D03*
X134709546Y-96621012D03*
X135662046Y-96621012D03*
X136614546Y-96621012D03*
D17*
X136956546Y-92358412D03*
X138856546Y-92358412D03*
X138856546Y-94644412D03*
X136956546Y-94644412D03*
X145024451Y-92404115D03*
X146924451Y-92404115D03*
X146924451Y-94436115D03*
X145024451Y-94436115D03*
D18*
X134096546Y-94601412D03*
X134096546Y-92401412D03*
X142103451Y-94520115D03*
X142103451Y-92320115D03*
D19*
X137628546Y-90072412D03*
X134628546Y-90072412D03*
X143756451Y-89991115D03*
X140756451Y-89991115D03*
D20*
X128849540Y-100961100D03*
X128849540Y-101611100D03*
X128849540Y-102261100D03*
X128849540Y-102911100D03*
X128849540Y-103561100D03*
D21*
X125862000Y-99437000D03*
X125862000Y-105062000D03*
D22*
X128012000Y-100262000D03*
X128012000Y-104262000D03*
D23*
X125862000Y-101187000D03*
X125862000Y-103337000D03*
D24*
X127937000Y-99062000D03*
X127937000Y-105462000D03*
D25*
X135567000Y-117942000D03*
D26*
X135567000Y-120482000D03*
X138107000Y-117942000D03*
X138107000Y-120482000D03*
X140647000Y-117942000D03*
X140647000Y-120482000D03*
X143187000Y-117942000D03*
X143187000Y-120482000D03*
X145727000Y-117942000D03*
X145727000Y-120482000D03*
X148267000Y-117942000D03*
X148267000Y-120482000D03*
X150807000Y-117942000D03*
X150807000Y-120482000D03*
X153347000Y-117942000D03*
X153347000Y-120482000D03*
X155887000Y-117942000D03*
X155887000Y-120482000D03*
X158427000Y-117942000D03*
X158427000Y-120482000D03*
D25*
X135557000Y-82892000D03*
D26*
X135557000Y-85432000D03*
X138097000Y-82892000D03*
X138097000Y-85432000D03*
X140637000Y-82892000D03*
X140637000Y-85432000D03*
X143177000Y-82892000D03*
X143177000Y-85432000D03*
X145717000Y-82892000D03*
X145717000Y-85432000D03*
X148257000Y-82892000D03*
X148257000Y-85432000D03*
X150797000Y-82892000D03*
X150797000Y-85432000D03*
X153337000Y-82892000D03*
X153337000Y-85432000D03*
X155877000Y-82892000D03*
X155877000Y-85432000D03*
X158417000Y-82892000D03*
X158417000Y-85432000D03*
D27*
X158623000Y-98806000D03*
X156423000Y-98806000D03*
D17*
X151379000Y-109982000D03*
X149479000Y-109982000D03*
D28*
X164900000Y-84000000D03*
X129300000Y-84000000D03*
X129200000Y-119600000D03*
X164700000Y-119600000D03*
D29*
X165735000Y-97724000D03*
X165735000Y-95824000D03*
X163737000Y-97724000D03*
X163737000Y-95824000D03*
D30*
X147193000Y-114300000D03*
X144653000Y-114300000D03*
D17*
X164785000Y-100584000D03*
X166685000Y-100584000D03*
D31*
X137767000Y-113792000D03*
X134267000Y-113792000D03*
D18*
X150495000Y-103294000D03*
X150495000Y-105494000D03*
D32*
X158607000Y-95758000D03*
X156607000Y-95758000D03*
D33*
X147847000Y-103842000D03*
X147847000Y-105842000D03*
D32*
X158607000Y-93726000D03*
X156607000Y-93726000D03*
D33*
X145617000Y-103912000D03*
X145617000Y-105912000D03*
X159385000Y-114030000D03*
X159385000Y-112030000D03*
X157353000Y-114030000D03*
X157353000Y-112030000D03*
X153289000Y-113252000D03*
X153289000Y-111252000D03*
D32*
X149479000Y-112014000D03*
X151479000Y-112014000D03*
D34*
X126337000Y-108582000D03*
X128957000Y-108582000D03*
D32*
X148479000Y-101642000D03*
X150479000Y-101642000D03*
D33*
X161163000Y-97806000D03*
X161163000Y-99806000D03*
D32*
X164449000Y-108966000D03*
X162449000Y-108966000D03*
X164703000Y-102870000D03*
X162703000Y-102870000D03*
D18*
X166243000Y-107018000D03*
X166243000Y-104818000D03*
D29*
X162687000Y-105034000D03*
X162687000Y-106934000D03*
D32*
X168513000Y-109220000D03*
X166513000Y-109220000D03*
X148463000Y-99568000D03*
X150463000Y-99568000D03*
D29*
X152273000Y-99634000D03*
X152273000Y-101534000D03*
D32*
X165481000Y-111252000D03*
X163481000Y-111252000D03*
D33*
X154305000Y-97790000D03*
X154305000Y-99790000D03*
X161417000Y-114030000D03*
X161417000Y-112030000D03*
D29*
X167767000Y-97724000D03*
X167767000Y-95824000D03*
D32*
X149749000Y-108204000D03*
X151749000Y-108204000D03*
X153305000Y-115062000D03*
X155305000Y-115062000D03*
D29*
X155321000Y-113406000D03*
X155321000Y-111506000D03*
D32*
X143653000Y-80264000D03*
X145653000Y-80264000D03*
X150225000Y-80264000D03*
X148225000Y-80264000D03*
X166481000Y-113538000D03*
X164481000Y-113538000D03*
D35*
X162687000Y-93726000D03*
X159639000Y-91694000D03*
X147701000Y-107950000D03*
X147193000Y-109728000D03*
X162941000Y-116586000D03*
X145161000Y-112014000D03*
X157861000Y-115570000D03*
X151003000Y-115570000D03*
M02*
