G04 #@! TF.FileFunction,Legend,Top*
%FSLAX46Y46*%
G04 Gerber Fmt 4.6, Leading zero omitted, Abs format (unit mm)*
G04 Created by KiCad (PCBNEW 4.0.0-2.201511301920+6191~38~ubuntu14.04.1-stable) date Sat 16 Jan 2016 08:35:56 PM ICT*
%MOMM*%
G01*
G04 APERTURE LIST*
%ADD10C,0.100000*%
%ADD11C,0.200000*%
%ADD12C,0.066040*%
%ADD13C,0.203200*%
%ADD14C,0.150000*%
%ADD15C,0.152400*%
%ADD16C,0.127000*%
%ADD17C,0.088900*%
G04 APERTURE END LIST*
D10*
D11*
X169044690Y-84074000D02*
G75*
G03X169044690Y-84074000I-4198690J0D01*
G01*
X133478924Y-84074000D02*
G75*
G03X133478924Y-84074000I-4192924J0D01*
G01*
X168917690Y-119634000D02*
G75*
G03X168917690Y-119634000I-4198690J0D01*
G01*
X133484690Y-119634000D02*
G75*
G03X133484690Y-119634000I-4198690J0D01*
G01*
D12*
X140241020Y-92031820D02*
X139240260Y-92031820D01*
X139240260Y-92031820D02*
X139240260Y-93027500D01*
X140241020Y-93027500D02*
X139240260Y-93027500D01*
X140241020Y-92031820D02*
X140241020Y-93027500D01*
X138940540Y-90731340D02*
X137944860Y-90731340D01*
X137944860Y-90731340D02*
X137944860Y-91732100D01*
X138940540Y-91732100D02*
X137944860Y-91732100D01*
X138940540Y-90731340D02*
X138940540Y-91732100D01*
X140241020Y-90731340D02*
X139240260Y-90731340D01*
X139240260Y-90731340D02*
X139240260Y-91732100D01*
X140241020Y-91732100D02*
X139240260Y-91732100D01*
X140241020Y-90731340D02*
X140241020Y-91732100D01*
X137645140Y-90731340D02*
X136644380Y-90731340D01*
X136644380Y-90731340D02*
X136644380Y-91732100D01*
X137645140Y-91732100D02*
X136644380Y-91732100D01*
X137645140Y-90731340D02*
X137645140Y-91732100D01*
X137645140Y-92031820D02*
X136644380Y-92031820D01*
X136644380Y-92031820D02*
X136644380Y-93027500D01*
X137645140Y-93027500D02*
X136644380Y-93027500D01*
X137645140Y-92031820D02*
X137645140Y-93027500D01*
X140241020Y-93327220D02*
X139240260Y-93327220D01*
X139240260Y-93327220D02*
X139240260Y-94327980D01*
X140241020Y-94327980D02*
X139240260Y-94327980D01*
X140241020Y-93327220D02*
X140241020Y-94327980D01*
X138940540Y-93327220D02*
X137944860Y-93327220D01*
X137944860Y-93327220D02*
X137944860Y-94327980D01*
X138940540Y-94327980D02*
X137944860Y-94327980D01*
X138940540Y-93327220D02*
X138940540Y-94327980D01*
X137645140Y-93327220D02*
X136644380Y-93327220D01*
X136644380Y-93327220D02*
X136644380Y-94327980D01*
X137645140Y-94327980D02*
X136644380Y-94327980D01*
X137645140Y-93327220D02*
X137645140Y-94327980D01*
D13*
X141442440Y-95529400D02*
X140967460Y-95529400D01*
X140967460Y-95529400D02*
X135917940Y-95529400D01*
X135917940Y-95529400D02*
X135442960Y-95529400D01*
X135442960Y-95529400D02*
X135442960Y-95054420D01*
X135442960Y-95054420D02*
X135442960Y-90004900D01*
X135442960Y-90004900D02*
X135442960Y-89529920D01*
X135442960Y-89529920D02*
X135917940Y-89529920D01*
X135917940Y-89529920D02*
X140967460Y-89529920D01*
X140967460Y-89529920D02*
X141241780Y-89529920D01*
X141241780Y-89529920D02*
X141442440Y-89730580D01*
X141442440Y-89730580D02*
X141442440Y-90004900D01*
X141442440Y-90004900D02*
X141442440Y-95054420D01*
X141442440Y-95054420D02*
X141442440Y-95529400D01*
D14*
X146947000Y-102450000D02*
X147947000Y-102450000D01*
X147947000Y-100750000D02*
X146947000Y-100750000D01*
D15*
X156741091Y-96991575D02*
X156540431Y-96991575D01*
X156741091Y-96991575D02*
X156741091Y-95193255D01*
X156741091Y-95193255D02*
X156540431Y-95193255D01*
X153738811Y-95193255D02*
X153939471Y-95193255D01*
X153738811Y-96991575D02*
X153939471Y-96991575D01*
X153738811Y-95193255D02*
X153738811Y-96991575D01*
X149033186Y-97270172D02*
X148832526Y-97270172D01*
X149033186Y-97270172D02*
X149033186Y-95471852D01*
X149033186Y-95471852D02*
X148832526Y-95471852D01*
X146030906Y-95471852D02*
X146231566Y-95471852D01*
X146030906Y-97270172D02*
X146231566Y-97270172D01*
X146030906Y-95471852D02*
X146030906Y-97270172D01*
D14*
X150376546Y-91713412D02*
X149176546Y-91713412D01*
X149176546Y-89963412D02*
X150376546Y-89963412D01*
X149176546Y-92249412D02*
X150376546Y-92249412D01*
X150376546Y-93999412D02*
X149176546Y-93999412D01*
X158444451Y-91759115D02*
X157244451Y-91759115D01*
X157244451Y-90009115D02*
X158444451Y-90009115D01*
X157244451Y-92041115D02*
X158444451Y-92041115D01*
X158444451Y-93791115D02*
X157244451Y-93791115D01*
X145966546Y-90181412D02*
G75*
G03X144466546Y-91681412I0J-1500000D01*
G01*
X147466546Y-91681412D02*
G75*
G03X145966546Y-90181412I-1500000J0D01*
G01*
X144466546Y-92281412D02*
G75*
G03X145966546Y-93781412I1500000J0D01*
G01*
X145966546Y-93781412D02*
G75*
G03X147466546Y-92281412I0J1500000D01*
G01*
X147466546Y-92481412D02*
X147466546Y-91481412D01*
X144466546Y-92481412D02*
X144466546Y-91481412D01*
X153973451Y-90100115D02*
G75*
G03X152473451Y-91600115I0J-1500000D01*
G01*
X155473451Y-91600115D02*
G75*
G03X153973451Y-90100115I-1500000J0D01*
G01*
X152473451Y-92200115D02*
G75*
G03X153973451Y-93700115I1500000J0D01*
G01*
X153973451Y-93700115D02*
G75*
G03X155473451Y-92200115I0J1500000D01*
G01*
X155473451Y-92400115D02*
X155473451Y-91400115D01*
X152473451Y-92400115D02*
X152473451Y-91400115D01*
D16*
X157201300Y-108617900D02*
X171184000Y-108617900D01*
X157201300Y-95486100D02*
X171184000Y-95486100D01*
X171184000Y-108529000D02*
X171184000Y-95575000D01*
X157188600Y-108554400D02*
X157188600Y-95549600D01*
X163437000Y-96972000D02*
X169787000Y-97607000D01*
X169787000Y-97607000D02*
X169787000Y-100782000D01*
X169787000Y-100782000D02*
X163437000Y-101417000D01*
X163437000Y-107132000D02*
X169787000Y-106497000D01*
X169787000Y-106497000D02*
X169787000Y-103322000D01*
X169787000Y-103322000D02*
X163437000Y-102687000D01*
D14*
X146998546Y-89577412D02*
X148998546Y-89577412D01*
X148998546Y-87527412D02*
X146998546Y-87527412D01*
X153126451Y-89496115D02*
X155126451Y-89496115D01*
X155126451Y-87446115D02*
X153126451Y-87446115D01*
X123219540Y-97911100D02*
X123219540Y-106611100D01*
X129624540Y-97911100D02*
X129624540Y-106611100D01*
X129624540Y-106611100D02*
X123219540Y-106611100D01*
X124449540Y-106611100D02*
X124449540Y-97911100D01*
X123219540Y-97911100D02*
X129624540Y-97911100D01*
X156657000Y-100562000D02*
X156657000Y-104662000D01*
X153657000Y-100562000D02*
X153657000Y-104662000D01*
X159697000Y-121752000D02*
X134297000Y-121752000D01*
X136837000Y-116672000D02*
X159697000Y-116672000D01*
X159697000Y-121752000D02*
X159697000Y-116672000D01*
X134297000Y-121752000D02*
X134297000Y-119212000D01*
X135567000Y-116392000D02*
X134017000Y-116392000D01*
X134297000Y-119212000D02*
X136837000Y-119212000D01*
X136837000Y-119212000D02*
X136837000Y-116672000D01*
X134017000Y-116392000D02*
X134017000Y-117942000D01*
X159687000Y-86702000D02*
X134287000Y-86702000D01*
X136827000Y-81622000D02*
X159687000Y-81622000D01*
X159687000Y-86702000D02*
X159687000Y-81622000D01*
X134287000Y-86702000D02*
X134287000Y-84162000D01*
X135557000Y-81342000D02*
X134007000Y-81342000D01*
X134287000Y-84162000D02*
X136827000Y-84162000D01*
X136827000Y-84162000D02*
X136827000Y-81622000D01*
X134007000Y-81342000D02*
X134007000Y-82892000D01*
X152597000Y-102762000D02*
X152597000Y-115762000D01*
X140347000Y-102762000D02*
X152597000Y-102762000D01*
X140347000Y-115762000D02*
X140347000Y-102762000D01*
X152597000Y-115762000D02*
X140347000Y-115762000D01*
X159577000Y-115862000D02*
X159577000Y-111862000D01*
X169577000Y-115862000D02*
X159577000Y-115862000D01*
X169577000Y-111862000D02*
X169577000Y-115862000D01*
X159577000Y-111862000D02*
X169577000Y-111862000D01*
X125777000Y-107262000D02*
X129877000Y-107262000D01*
X125777000Y-110262000D02*
X129877000Y-110262000D01*
X131191000Y-91462000D02*
G75*
G03X132691000Y-89962000I0J1500000D01*
G01*
X129691000Y-89962000D02*
G75*
G03X131191000Y-91462000I1500000J0D01*
G01*
X132691000Y-89362000D02*
G75*
G03X131191000Y-87862000I-1500000J0D01*
G01*
X131191000Y-87862000D02*
G75*
G03X129691000Y-89362000I0J-1500000D01*
G01*
X129691000Y-89162000D02*
X129691000Y-90162000D01*
X132691000Y-89162000D02*
X132691000Y-90162000D01*
X131191000Y-96542000D02*
G75*
G03X132691000Y-95042000I0J1500000D01*
G01*
X129691000Y-95042000D02*
G75*
G03X131191000Y-96542000I1500000J0D01*
G01*
X132691000Y-94442000D02*
G75*
G03X131191000Y-92942000I-1500000J0D01*
G01*
X131191000Y-92942000D02*
G75*
G03X129691000Y-94442000I0J-1500000D01*
G01*
X129691000Y-94242000D02*
X129691000Y-95242000D01*
X132691000Y-94242000D02*
X132691000Y-95242000D01*
X126864000Y-88662000D02*
X126864000Y-90662000D01*
X128914000Y-90662000D02*
X128914000Y-88662000D01*
X126864000Y-93742000D02*
X126864000Y-95742000D01*
X128914000Y-95742000D02*
X128914000Y-93742000D01*
X125176001Y-89162000D02*
X125176001Y-90162000D01*
X126876001Y-90162000D02*
X126876001Y-89162000D01*
X125261000Y-94242000D02*
X125261000Y-95242000D01*
X126961000Y-95242000D02*
X126961000Y-94242000D01*
X145153000Y-79414000D02*
X144153000Y-79414000D01*
X144153000Y-81114000D02*
X145153000Y-81114000D01*
X148725000Y-81114000D02*
X149725000Y-81114000D01*
X149725000Y-79414000D02*
X148725000Y-79414000D01*
X136945000Y-105164000D02*
X136945000Y-106164000D01*
X138645000Y-106164000D02*
X138645000Y-105164000D01*
X130987000Y-96937000D02*
X132187000Y-96937000D01*
X132187000Y-98687000D02*
X130987000Y-98687000D01*
X167186000Y-84000000D02*
G75*
G03X167186000Y-84000000I-2286000J0D01*
G01*
X131586000Y-84000000D02*
G75*
G03X131586000Y-84000000I-2286000J0D01*
G01*
X131486000Y-119600000D02*
G75*
G03X131486000Y-119600000I-2286000J0D01*
G01*
X166986000Y-119600000D02*
G75*
G03X166986000Y-119600000I-2286000J0D01*
G01*
X145252000Y-87553946D02*
X145252000Y-88753946D01*
X143502000Y-88753946D02*
X143502000Y-87553946D01*
X143071581Y-87553946D02*
X143071581Y-88753946D01*
X141321581Y-88753946D02*
X141321581Y-87553946D01*
X139427000Y-98232000D02*
X139427000Y-99232000D01*
X141127000Y-99232000D02*
X141127000Y-98232000D01*
X141717000Y-98242000D02*
X141717000Y-99242000D01*
X143417000Y-99242000D02*
X143417000Y-98242000D01*
X137117000Y-111732000D02*
X137117000Y-114272000D01*
X138536903Y-111732000D02*
G75*
G03X138536903Y-111732000I-1419903J0D01*
G01*
X165547000Y-88747000D02*
X166747000Y-88747000D01*
X166747000Y-90497000D02*
X165547000Y-90497000D01*
X167777000Y-91292000D02*
X165077000Y-91292000D01*
X167777000Y-92792000D02*
X165077000Y-92792000D01*
X166277000Y-91892000D02*
X166277000Y-92142000D01*
X166277000Y-92142000D02*
X166427000Y-91992000D01*
X166527000Y-92392000D02*
X166527000Y-91692000D01*
X166177000Y-92042000D02*
X165827000Y-92042000D01*
X166527000Y-92042000D02*
X166177000Y-92392000D01*
X166177000Y-92392000D02*
X166177000Y-91692000D01*
X166177000Y-91692000D02*
X166527000Y-92042000D01*
X142212000Y-93352000D02*
X142212000Y-92152000D01*
X143962000Y-92152000D02*
X143962000Y-93352000D01*
X137147000Y-98322000D02*
X137147000Y-99322000D01*
X138847000Y-99322000D02*
X138847000Y-98322000D01*
D17*
X137175361Y-87554284D02*
X137175361Y-88582379D01*
X137235837Y-88703331D01*
X137296313Y-88763808D01*
X137417266Y-88824284D01*
X137659170Y-88824284D01*
X137780123Y-88763808D01*
X137840599Y-88703331D01*
X137901075Y-88582379D01*
X137901075Y-87554284D01*
X138445361Y-87675236D02*
X138505837Y-87614760D01*
X138626789Y-87554284D01*
X138929170Y-87554284D01*
X139050123Y-87614760D01*
X139110599Y-87675236D01*
X139171075Y-87796189D01*
X139171075Y-87917141D01*
X139110599Y-88098570D01*
X138384885Y-88824284D01*
X139171075Y-88824284D01*
X135086272Y-87491327D02*
X135691034Y-87491327D01*
X134965319Y-87854184D02*
X135388653Y-86584184D01*
X135811986Y-87854184D01*
X136114367Y-86584184D02*
X136961033Y-87854184D01*
X136961033Y-86584184D02*
X136114367Y-87854184D01*
X137444843Y-87854184D02*
X137444843Y-86584184D01*
X137928652Y-86584184D01*
X138049605Y-86644660D01*
X138110081Y-86705136D01*
X138170557Y-86826089D01*
X138170557Y-87007517D01*
X138110081Y-87128470D01*
X138049605Y-87188946D01*
X137928652Y-87249422D01*
X137444843Y-87249422D01*
X138654367Y-86705136D02*
X138714843Y-86644660D01*
X138835795Y-86584184D01*
X139138176Y-86584184D01*
X139259129Y-86644660D01*
X139319605Y-86705136D01*
X139380081Y-86826089D01*
X139380081Y-86947041D01*
X139319605Y-87128470D01*
X138593891Y-87854184D01*
X139380081Y-87854184D01*
X140166272Y-86584184D02*
X140287224Y-86584184D01*
X140408176Y-86644660D01*
X140468653Y-86705136D01*
X140529129Y-86826089D01*
X140589605Y-87067993D01*
X140589605Y-87370374D01*
X140529129Y-87612279D01*
X140468653Y-87733231D01*
X140408176Y-87793708D01*
X140287224Y-87854184D01*
X140166272Y-87854184D01*
X140045319Y-87793708D01*
X139984843Y-87733231D01*
X139924367Y-87612279D01*
X139863891Y-87370374D01*
X139863891Y-87067993D01*
X139924367Y-86826089D01*
X139984843Y-86705136D01*
X140045319Y-86644660D01*
X140166272Y-86584184D01*
X141194367Y-87854184D02*
X141436272Y-87854184D01*
X141557224Y-87793708D01*
X141617700Y-87733231D01*
X141738653Y-87551803D01*
X141799129Y-87309898D01*
X141799129Y-86826089D01*
X141738653Y-86705136D01*
X141678177Y-86644660D01*
X141557224Y-86584184D01*
X141315320Y-86584184D01*
X141194367Y-86644660D01*
X141133891Y-86705136D01*
X141073415Y-86826089D01*
X141073415Y-87128470D01*
X141133891Y-87249422D01*
X141194367Y-87309898D01*
X141315320Y-87370374D01*
X141557224Y-87370374D01*
X141678177Y-87309898D01*
X141738653Y-87249422D01*
X141799129Y-87128470D01*
D14*
X147280334Y-104057143D02*
X147232715Y-104104762D01*
X147089858Y-104152381D01*
X146994620Y-104152381D01*
X146851762Y-104104762D01*
X146756524Y-104009524D01*
X146708905Y-103914286D01*
X146661286Y-103723810D01*
X146661286Y-103580952D01*
X146708905Y-103390476D01*
X146756524Y-103295238D01*
X146851762Y-103200000D01*
X146994620Y-103152381D01*
X147089858Y-103152381D01*
X147232715Y-103200000D01*
X147280334Y-103247619D01*
X147851762Y-103580952D02*
X147756524Y-103533333D01*
X147708905Y-103485714D01*
X147661286Y-103390476D01*
X147661286Y-103342857D01*
X147708905Y-103247619D01*
X147756524Y-103200000D01*
X147851762Y-103152381D01*
X148042239Y-103152381D01*
X148137477Y-103200000D01*
X148185096Y-103247619D01*
X148232715Y-103342857D01*
X148232715Y-103390476D01*
X148185096Y-103485714D01*
X148137477Y-103533333D01*
X148042239Y-103580952D01*
X147851762Y-103580952D01*
X147756524Y-103628571D01*
X147708905Y-103676190D01*
X147661286Y-103771429D01*
X147661286Y-103961905D01*
X147708905Y-104057143D01*
X147756524Y-104104762D01*
X147851762Y-104152381D01*
X148042239Y-104152381D01*
X148137477Y-104104762D01*
X148185096Y-104057143D01*
X148232715Y-103961905D01*
X148232715Y-103771429D01*
X148185096Y-103676190D01*
X148137477Y-103628571D01*
X148042239Y-103580952D01*
D15*
X154775494Y-95758586D02*
X154775494Y-96252072D01*
X154804522Y-96310129D01*
X154833551Y-96339158D01*
X154891608Y-96368186D01*
X155007722Y-96368186D01*
X155065780Y-96339158D01*
X155094808Y-96310129D01*
X155123837Y-96252072D01*
X155123837Y-95758586D01*
X155356066Y-95758586D02*
X155733437Y-95758586D01*
X155530237Y-95990815D01*
X155617323Y-95990815D01*
X155675380Y-96019844D01*
X155704409Y-96048872D01*
X155733437Y-96106929D01*
X155733437Y-96252072D01*
X155704409Y-96310129D01*
X155675380Y-96339158D01*
X155617323Y-96368186D01*
X155443151Y-96368186D01*
X155385094Y-96339158D01*
X155356066Y-96310129D01*
X147067589Y-96037183D02*
X147067589Y-96530669D01*
X147096617Y-96588726D01*
X147125646Y-96617755D01*
X147183703Y-96646783D01*
X147299817Y-96646783D01*
X147357875Y-96617755D01*
X147386903Y-96588726D01*
X147415932Y-96530669D01*
X147415932Y-96037183D01*
X148025532Y-96646783D02*
X147677189Y-96646783D01*
X147851361Y-96646783D02*
X147851361Y-96037183D01*
X147793304Y-96124269D01*
X147735246Y-96182326D01*
X147677189Y-96211355D01*
D14*
X149609880Y-89190793D02*
X149276546Y-88714602D01*
X149038451Y-89190793D02*
X149038451Y-88190793D01*
X149419404Y-88190793D01*
X149514642Y-88238412D01*
X149562261Y-88286031D01*
X149609880Y-88381269D01*
X149609880Y-88524126D01*
X149562261Y-88619364D01*
X149514642Y-88666983D01*
X149419404Y-88714602D01*
X149038451Y-88714602D01*
X150562261Y-89190793D02*
X149990832Y-89190793D01*
X150276546Y-89190793D02*
X150276546Y-88190793D01*
X150181308Y-88333650D01*
X150086070Y-88428888D01*
X149990832Y-88476507D01*
X149609880Y-95676793D02*
X149276546Y-95200602D01*
X149038451Y-95676793D02*
X149038451Y-94676793D01*
X149419404Y-94676793D01*
X149514642Y-94724412D01*
X149562261Y-94772031D01*
X149609880Y-94867269D01*
X149609880Y-95010126D01*
X149562261Y-95105364D01*
X149514642Y-95152983D01*
X149419404Y-95200602D01*
X149038451Y-95200602D01*
X149990832Y-94772031D02*
X150038451Y-94724412D01*
X150133689Y-94676793D01*
X150371785Y-94676793D01*
X150467023Y-94724412D01*
X150514642Y-94772031D01*
X150562261Y-94867269D01*
X150562261Y-94962507D01*
X150514642Y-95105364D01*
X149943213Y-95676793D01*
X150562261Y-95676793D01*
X157677785Y-89236496D02*
X157344451Y-88760305D01*
X157106356Y-89236496D02*
X157106356Y-88236496D01*
X157487309Y-88236496D01*
X157582547Y-88284115D01*
X157630166Y-88331734D01*
X157677785Y-88426972D01*
X157677785Y-88569829D01*
X157630166Y-88665067D01*
X157582547Y-88712686D01*
X157487309Y-88760305D01*
X157106356Y-88760305D01*
X158011118Y-88236496D02*
X158630166Y-88236496D01*
X158296832Y-88617448D01*
X158439690Y-88617448D01*
X158534928Y-88665067D01*
X158582547Y-88712686D01*
X158630166Y-88807925D01*
X158630166Y-89046020D01*
X158582547Y-89141258D01*
X158534928Y-89188877D01*
X158439690Y-89236496D01*
X158153975Y-89236496D01*
X158058737Y-89188877D01*
X158011118Y-89141258D01*
X157677785Y-95468496D02*
X157344451Y-94992305D01*
X157106356Y-95468496D02*
X157106356Y-94468496D01*
X157487309Y-94468496D01*
X157582547Y-94516115D01*
X157630166Y-94563734D01*
X157677785Y-94658972D01*
X157677785Y-94801829D01*
X157630166Y-94897067D01*
X157582547Y-94944686D01*
X157487309Y-94992305D01*
X157106356Y-94992305D01*
X158534928Y-94801829D02*
X158534928Y-95468496D01*
X158296832Y-94420877D02*
X158058737Y-95135163D01*
X158677785Y-95135163D01*
X145699880Y-95033793D02*
X145223689Y-95033793D01*
X145223689Y-94033793D01*
X146557023Y-95033793D02*
X145985594Y-95033793D01*
X146271308Y-95033793D02*
X146271308Y-94033793D01*
X146176070Y-94176650D01*
X146080832Y-94271888D01*
X145985594Y-94319507D01*
X153706785Y-94952496D02*
X153230594Y-94952496D01*
X153230594Y-93952496D01*
X153944880Y-93952496D02*
X154563928Y-93952496D01*
X154230594Y-94333448D01*
X154373452Y-94333448D01*
X154468690Y-94381067D01*
X154516309Y-94428686D01*
X154563928Y-94523925D01*
X154563928Y-94762020D01*
X154516309Y-94857258D01*
X154468690Y-94904877D01*
X154373452Y-94952496D01*
X154087737Y-94952496D01*
X153992499Y-94904877D01*
X153944880Y-94857258D01*
D17*
X156391524Y-109974381D02*
X155121524Y-109974381D01*
X155121524Y-109490572D01*
X155182000Y-109369619D01*
X155242476Y-109309143D01*
X155363429Y-109248667D01*
X155544857Y-109248667D01*
X155665810Y-109309143D01*
X155726286Y-109369619D01*
X155786762Y-109490572D01*
X155786762Y-109974381D01*
X155121524Y-108825333D02*
X155121524Y-108039143D01*
X155605333Y-108462476D01*
X155605333Y-108281048D01*
X155665810Y-108160095D01*
X155726286Y-108099619D01*
X155847238Y-108039143D01*
X156149619Y-108039143D01*
X156270571Y-108099619D01*
X156331048Y-108160095D01*
X156391524Y-108281048D01*
X156391524Y-108643905D01*
X156331048Y-108764857D01*
X156270571Y-108825333D01*
D14*
X157740143Y-101217429D02*
X157740143Y-102451143D01*
X157812715Y-102596286D01*
X157885286Y-102668857D01*
X158030429Y-102741429D01*
X158320715Y-102741429D01*
X158465857Y-102668857D01*
X158538429Y-102596286D01*
X158611000Y-102451143D01*
X158611000Y-101217429D01*
X159264143Y-102668857D02*
X159481857Y-102741429D01*
X159844714Y-102741429D01*
X159989857Y-102668857D01*
X160062428Y-102596286D01*
X160135000Y-102451143D01*
X160135000Y-102306000D01*
X160062428Y-102160857D01*
X159989857Y-102088286D01*
X159844714Y-102015714D01*
X159554428Y-101943143D01*
X159409286Y-101870571D01*
X159336714Y-101798000D01*
X159264143Y-101652857D01*
X159264143Y-101507714D01*
X159336714Y-101362571D01*
X159409286Y-101290000D01*
X159554428Y-101217429D01*
X159917286Y-101217429D01*
X160135000Y-101290000D01*
X161296143Y-101943143D02*
X161513857Y-102015714D01*
X161586429Y-102088286D01*
X161659000Y-102233429D01*
X161659000Y-102451143D01*
X161586429Y-102596286D01*
X161513857Y-102668857D01*
X161368715Y-102741429D01*
X160788143Y-102741429D01*
X160788143Y-101217429D01*
X161296143Y-101217429D01*
X161441286Y-101290000D01*
X161513857Y-101362571D01*
X161586429Y-101507714D01*
X161586429Y-101652857D01*
X161513857Y-101798000D01*
X161441286Y-101870571D01*
X161296143Y-101943143D01*
X160788143Y-101943143D01*
X161949286Y-102886571D02*
X163110429Y-102886571D01*
X163400715Y-102306000D02*
X164126429Y-102306000D01*
X163255572Y-102741429D02*
X163763572Y-101217429D01*
X164271572Y-102741429D01*
X147831880Y-91209555D02*
X147784261Y-91257174D01*
X147641404Y-91304793D01*
X147546166Y-91304793D01*
X147403308Y-91257174D01*
X147308070Y-91161936D01*
X147260451Y-91066698D01*
X147212832Y-90876222D01*
X147212832Y-90733364D01*
X147260451Y-90542888D01*
X147308070Y-90447650D01*
X147403308Y-90352412D01*
X147546166Y-90304793D01*
X147641404Y-90304793D01*
X147784261Y-90352412D01*
X147831880Y-90400031D01*
X148212832Y-90400031D02*
X148260451Y-90352412D01*
X148355689Y-90304793D01*
X148593785Y-90304793D01*
X148689023Y-90352412D01*
X148736642Y-90400031D01*
X148784261Y-90495269D01*
X148784261Y-90590507D01*
X148736642Y-90733364D01*
X148165213Y-91304793D01*
X148784261Y-91304793D01*
X153959785Y-91128258D02*
X153912166Y-91175877D01*
X153769309Y-91223496D01*
X153674071Y-91223496D01*
X153531213Y-91175877D01*
X153435975Y-91080639D01*
X153388356Y-90985401D01*
X153340737Y-90794925D01*
X153340737Y-90652067D01*
X153388356Y-90461591D01*
X153435975Y-90366353D01*
X153531213Y-90271115D01*
X153674071Y-90223496D01*
X153769309Y-90223496D01*
X153912166Y-90271115D01*
X153959785Y-90318734D01*
X154864547Y-90223496D02*
X154388356Y-90223496D01*
X154340737Y-90699686D01*
X154388356Y-90652067D01*
X154483594Y-90604448D01*
X154721690Y-90604448D01*
X154816928Y-90652067D01*
X154864547Y-90699686D01*
X154912166Y-90794925D01*
X154912166Y-91033020D01*
X154864547Y-91128258D01*
X154816928Y-91175877D01*
X154721690Y-91223496D01*
X154483594Y-91223496D01*
X154388356Y-91175877D01*
X154340737Y-91128258D01*
X130939381Y-103000095D02*
X129939381Y-103000095D01*
X129939381Y-102619142D01*
X129987000Y-102523904D01*
X130034619Y-102476285D01*
X130129857Y-102428666D01*
X130272714Y-102428666D01*
X130367952Y-102476285D01*
X130415571Y-102523904D01*
X130463190Y-102619142D01*
X130463190Y-103000095D01*
X130272714Y-101571523D02*
X130939381Y-101571523D01*
X129891762Y-101809619D02*
X130606048Y-102047714D01*
X130606048Y-101428666D01*
X152914143Y-103004857D02*
X152961762Y-103052476D01*
X153009381Y-103195333D01*
X153009381Y-103290571D01*
X152961762Y-103433429D01*
X152866524Y-103528667D01*
X152771286Y-103576286D01*
X152580810Y-103623905D01*
X152437952Y-103623905D01*
X152247476Y-103576286D01*
X152152238Y-103528667D01*
X152057000Y-103433429D01*
X152009381Y-103290571D01*
X152009381Y-103195333D01*
X152057000Y-103052476D01*
X152104619Y-103004857D01*
X153009381Y-102052476D02*
X153009381Y-102623905D01*
X153009381Y-102338191D02*
X152009381Y-102338191D01*
X152152238Y-102433429D01*
X152247476Y-102528667D01*
X152295095Y-102623905D01*
X152104619Y-101671524D02*
X152057000Y-101623905D01*
X152009381Y-101528667D01*
X152009381Y-101290571D01*
X152057000Y-101195333D01*
X152104619Y-101147714D01*
X152199857Y-101100095D01*
X152295095Y-101100095D01*
X152437952Y-101147714D01*
X153009381Y-101719143D01*
X153009381Y-101100095D01*
X134828905Y-113294381D02*
X134828905Y-112294381D01*
X135209858Y-112294381D01*
X135305096Y-112342000D01*
X135352715Y-112389619D01*
X135400334Y-112484857D01*
X135400334Y-112627714D01*
X135352715Y-112722952D01*
X135305096Y-112770571D01*
X135209858Y-112818190D01*
X134828905Y-112818190D01*
X136352715Y-113294381D02*
X135781286Y-113294381D01*
X136067000Y-113294381D02*
X136067000Y-112294381D01*
X135971762Y-112437238D01*
X135876524Y-112532476D01*
X135781286Y-112580095D01*
X134818905Y-78244381D02*
X134818905Y-77244381D01*
X135199858Y-77244381D01*
X135295096Y-77292000D01*
X135342715Y-77339619D01*
X135390334Y-77434857D01*
X135390334Y-77577714D01*
X135342715Y-77672952D01*
X135295096Y-77720571D01*
X135199858Y-77768190D01*
X134818905Y-77768190D01*
X135771286Y-77339619D02*
X135818905Y-77292000D01*
X135914143Y-77244381D01*
X136152239Y-77244381D01*
X136247477Y-77292000D01*
X136295096Y-77339619D01*
X136342715Y-77434857D01*
X136342715Y-77530095D01*
X136295096Y-77672952D01*
X135723667Y-78244381D01*
X136342715Y-78244381D01*
X145835095Y-107464381D02*
X145835095Y-108273905D01*
X145882714Y-108369143D01*
X145930333Y-108416762D01*
X146025571Y-108464381D01*
X146216048Y-108464381D01*
X146311286Y-108416762D01*
X146358905Y-108369143D01*
X146406524Y-108273905D01*
X146406524Y-107464381D01*
X147311286Y-107797714D02*
X147311286Y-108464381D01*
X147073190Y-107416762D02*
X146835095Y-108131048D01*
X147454143Y-108131048D01*
X163815095Y-113814381D02*
X163815095Y-114623905D01*
X163862714Y-114719143D01*
X163910333Y-114766762D01*
X164005571Y-114814381D01*
X164196048Y-114814381D01*
X164291286Y-114766762D01*
X164338905Y-114719143D01*
X164386524Y-114623905D01*
X164386524Y-113814381D01*
X165338905Y-113814381D02*
X164862714Y-113814381D01*
X164815095Y-114290571D01*
X164862714Y-114242952D01*
X164957952Y-114195333D01*
X165196048Y-114195333D01*
X165291286Y-114242952D01*
X165338905Y-114290571D01*
X165386524Y-114385810D01*
X165386524Y-114623905D01*
X165338905Y-114719143D01*
X165291286Y-114766762D01*
X165196048Y-114814381D01*
X164957952Y-114814381D01*
X164862714Y-114766762D01*
X164815095Y-114719143D01*
X126934143Y-111719143D02*
X126886524Y-111766762D01*
X126743667Y-111814381D01*
X126648429Y-111814381D01*
X126505571Y-111766762D01*
X126410333Y-111671524D01*
X126362714Y-111576286D01*
X126315095Y-111385810D01*
X126315095Y-111242952D01*
X126362714Y-111052476D01*
X126410333Y-110957238D01*
X126505571Y-110862000D01*
X126648429Y-110814381D01*
X126743667Y-110814381D01*
X126886524Y-110862000D01*
X126934143Y-110909619D01*
X127886524Y-111814381D02*
X127315095Y-111814381D01*
X127600809Y-111814381D02*
X127600809Y-110814381D01*
X127505571Y-110957238D01*
X127410333Y-111052476D01*
X127315095Y-111100095D01*
X128838905Y-111814381D02*
X128267476Y-111814381D01*
X128553190Y-111814381D02*
X128553190Y-110814381D01*
X128457952Y-110957238D01*
X128362714Y-111052476D01*
X128267476Y-111100095D01*
X131124334Y-87514381D02*
X130648143Y-87514381D01*
X130648143Y-86514381D01*
X131410048Y-86609619D02*
X131457667Y-86562000D01*
X131552905Y-86514381D01*
X131791001Y-86514381D01*
X131886239Y-86562000D01*
X131933858Y-86609619D01*
X131981477Y-86704857D01*
X131981477Y-86800095D01*
X131933858Y-86942952D01*
X131362429Y-87514381D01*
X131981477Y-87514381D01*
X131124334Y-92594381D02*
X130648143Y-92594381D01*
X130648143Y-91594381D01*
X131886239Y-91927714D02*
X131886239Y-92594381D01*
X131648143Y-91546762D02*
X131410048Y-92261048D01*
X132029096Y-92261048D01*
X125946143Y-89828666D02*
X125993762Y-89876285D01*
X126041381Y-90019142D01*
X126041381Y-90114380D01*
X125993762Y-90257238D01*
X125898524Y-90352476D01*
X125803286Y-90400095D01*
X125612810Y-90447714D01*
X125469952Y-90447714D01*
X125279476Y-90400095D01*
X125184238Y-90352476D01*
X125089000Y-90257238D01*
X125041381Y-90114380D01*
X125041381Y-90019142D01*
X125089000Y-89876285D01*
X125136619Y-89828666D01*
X126041381Y-88876285D02*
X126041381Y-89447714D01*
X126041381Y-89162000D02*
X125041381Y-89162000D01*
X125184238Y-89257238D01*
X125279476Y-89352476D01*
X125327095Y-89447714D01*
X125946143Y-94908666D02*
X125993762Y-94956285D01*
X126041381Y-95099142D01*
X126041381Y-95194380D01*
X125993762Y-95337238D01*
X125898524Y-95432476D01*
X125803286Y-95480095D01*
X125612810Y-95527714D01*
X125469952Y-95527714D01*
X125279476Y-95480095D01*
X125184238Y-95432476D01*
X125089000Y-95337238D01*
X125041381Y-95194380D01*
X125041381Y-95099142D01*
X125089000Y-94956285D01*
X125136619Y-94908666D01*
X125041381Y-94575333D02*
X125041381Y-93956285D01*
X125422333Y-94289619D01*
X125422333Y-94146761D01*
X125469952Y-94051523D01*
X125517571Y-94003904D01*
X125612810Y-93956285D01*
X125850905Y-93956285D01*
X125946143Y-94003904D01*
X125993762Y-94051523D01*
X126041381Y-94146761D01*
X126041381Y-94432476D01*
X125993762Y-94527714D01*
X125946143Y-94575333D01*
X124283144Y-89828666D02*
X124330763Y-89876285D01*
X124378382Y-90019142D01*
X124378382Y-90114380D01*
X124330763Y-90257238D01*
X124235525Y-90352476D01*
X124140287Y-90400095D01*
X123949811Y-90447714D01*
X123806953Y-90447714D01*
X123616477Y-90400095D01*
X123521239Y-90352476D01*
X123426001Y-90257238D01*
X123378382Y-90114380D01*
X123378382Y-90019142D01*
X123426001Y-89876285D01*
X123473620Y-89828666D01*
X123711715Y-88971523D02*
X124378382Y-88971523D01*
X123330763Y-89209619D02*
X124045049Y-89447714D01*
X124045049Y-88828666D01*
X124368143Y-94908666D02*
X124415762Y-94956285D01*
X124463381Y-95099142D01*
X124463381Y-95194380D01*
X124415762Y-95337238D01*
X124320524Y-95432476D01*
X124225286Y-95480095D01*
X124034810Y-95527714D01*
X123891952Y-95527714D01*
X123701476Y-95480095D01*
X123606238Y-95432476D01*
X123511000Y-95337238D01*
X123463381Y-95194380D01*
X123463381Y-95099142D01*
X123511000Y-94956285D01*
X123558619Y-94908666D01*
X123463381Y-94051523D02*
X123463381Y-94242000D01*
X123511000Y-94337238D01*
X123558619Y-94384857D01*
X123701476Y-94480095D01*
X123891952Y-94527714D01*
X124272905Y-94527714D01*
X124368143Y-94480095D01*
X124415762Y-94432476D01*
X124463381Y-94337238D01*
X124463381Y-94146761D01*
X124415762Y-94051523D01*
X124368143Y-94003904D01*
X124272905Y-93956285D01*
X124034810Y-93956285D01*
X123939571Y-94003904D01*
X123891952Y-94051523D01*
X123844333Y-94146761D01*
X123844333Y-94337238D01*
X123891952Y-94432476D01*
X123939571Y-94480095D01*
X124034810Y-94527714D01*
X144486334Y-78521143D02*
X144438715Y-78568762D01*
X144295858Y-78616381D01*
X144200620Y-78616381D01*
X144057762Y-78568762D01*
X143962524Y-78473524D01*
X143914905Y-78378286D01*
X143867286Y-78187810D01*
X143867286Y-78044952D01*
X143914905Y-77854476D01*
X143962524Y-77759238D01*
X144057762Y-77664000D01*
X144200620Y-77616381D01*
X144295858Y-77616381D01*
X144438715Y-77664000D01*
X144486334Y-77711619D01*
X144819667Y-77616381D02*
X145486334Y-77616381D01*
X145057762Y-78616381D01*
X149058334Y-82721143D02*
X149010715Y-82768762D01*
X148867858Y-82816381D01*
X148772620Y-82816381D01*
X148629762Y-82768762D01*
X148534524Y-82673524D01*
X148486905Y-82578286D01*
X148439286Y-82387810D01*
X148439286Y-82244952D01*
X148486905Y-82054476D01*
X148534524Y-81959238D01*
X148629762Y-81864000D01*
X148772620Y-81816381D01*
X148867858Y-81816381D01*
X149010715Y-81864000D01*
X149058334Y-81911619D01*
X149534524Y-82816381D02*
X149725000Y-82816381D01*
X149820239Y-82768762D01*
X149867858Y-82721143D01*
X149963096Y-82578286D01*
X150010715Y-82387810D01*
X150010715Y-82006857D01*
X149963096Y-81911619D01*
X149915477Y-81864000D01*
X149820239Y-81816381D01*
X149629762Y-81816381D01*
X149534524Y-81864000D01*
X149486905Y-81911619D01*
X149439286Y-82006857D01*
X149439286Y-82244952D01*
X149486905Y-82340190D01*
X149534524Y-82387810D01*
X149629762Y-82435429D01*
X149820239Y-82435429D01*
X149915477Y-82387810D01*
X149963096Y-82340190D01*
X150010715Y-82244952D01*
X136052143Y-106306857D02*
X136099762Y-106354476D01*
X136147381Y-106497333D01*
X136147381Y-106592571D01*
X136099762Y-106735429D01*
X136004524Y-106830667D01*
X135909286Y-106878286D01*
X135718810Y-106925905D01*
X135575952Y-106925905D01*
X135385476Y-106878286D01*
X135290238Y-106830667D01*
X135195000Y-106735429D01*
X135147381Y-106592571D01*
X135147381Y-106497333D01*
X135195000Y-106354476D01*
X135242619Y-106306857D01*
X136147381Y-105354476D02*
X136147381Y-105925905D01*
X136147381Y-105640191D02*
X135147381Y-105640191D01*
X135290238Y-105735429D01*
X135385476Y-105830667D01*
X135433095Y-105925905D01*
X135147381Y-104735429D02*
X135147381Y-104640190D01*
X135195000Y-104544952D01*
X135242619Y-104497333D01*
X135337857Y-104449714D01*
X135528333Y-104402095D01*
X135766429Y-104402095D01*
X135956905Y-104449714D01*
X136052143Y-104497333D01*
X136099762Y-104544952D01*
X136147381Y-104640190D01*
X136147381Y-104735429D01*
X136099762Y-104830667D01*
X136052143Y-104878286D01*
X135956905Y-104925905D01*
X135766429Y-104973524D01*
X135528333Y-104973524D01*
X135337857Y-104925905D01*
X135242619Y-104878286D01*
X135195000Y-104830667D01*
X135147381Y-104735429D01*
X131420334Y-100364381D02*
X131087000Y-99888190D01*
X130848905Y-100364381D02*
X130848905Y-99364381D01*
X131229858Y-99364381D01*
X131325096Y-99412000D01*
X131372715Y-99459619D01*
X131420334Y-99554857D01*
X131420334Y-99697714D01*
X131372715Y-99792952D01*
X131325096Y-99840571D01*
X131229858Y-99888190D01*
X130848905Y-99888190D01*
X132277477Y-99364381D02*
X132087000Y-99364381D01*
X131991762Y-99412000D01*
X131944143Y-99459619D01*
X131848905Y-99602476D01*
X131801286Y-99792952D01*
X131801286Y-100173905D01*
X131848905Y-100269143D01*
X131896524Y-100316762D01*
X131991762Y-100364381D01*
X132182239Y-100364381D01*
X132277477Y-100316762D01*
X132325096Y-100269143D01*
X132372715Y-100173905D01*
X132372715Y-99935810D01*
X132325096Y-99840571D01*
X132277477Y-99792952D01*
X132182239Y-99745333D01*
X131991762Y-99745333D01*
X131896524Y-99792952D01*
X131848905Y-99840571D01*
X131801286Y-99935810D01*
X163566667Y-81404381D02*
X163233333Y-80928190D01*
X162995238Y-81404381D02*
X162995238Y-80404381D01*
X163376191Y-80404381D01*
X163471429Y-80452000D01*
X163519048Y-80499619D01*
X163566667Y-80594857D01*
X163566667Y-80737714D01*
X163519048Y-80832952D01*
X163471429Y-80880571D01*
X163376191Y-80928190D01*
X162995238Y-80928190D01*
X163995238Y-80880571D02*
X164328572Y-80880571D01*
X164471429Y-81404381D02*
X163995238Y-81404381D01*
X163995238Y-80404381D01*
X164471429Y-80404381D01*
X165233334Y-80880571D02*
X164900000Y-80880571D01*
X164900000Y-81404381D02*
X164900000Y-80404381D01*
X165376191Y-80404381D01*
X165900000Y-80404381D02*
X165900000Y-80642476D01*
X165661905Y-80547238D02*
X165900000Y-80642476D01*
X166138096Y-80547238D01*
X165757143Y-80832952D02*
X165900000Y-80642476D01*
X166042858Y-80832952D01*
X166661905Y-80404381D02*
X166661905Y-80642476D01*
X166423810Y-80547238D02*
X166661905Y-80642476D01*
X166900001Y-80547238D01*
X166519048Y-80832952D02*
X166661905Y-80642476D01*
X166804763Y-80832952D01*
X127966667Y-81404381D02*
X127633333Y-80928190D01*
X127395238Y-81404381D02*
X127395238Y-80404381D01*
X127776191Y-80404381D01*
X127871429Y-80452000D01*
X127919048Y-80499619D01*
X127966667Y-80594857D01*
X127966667Y-80737714D01*
X127919048Y-80832952D01*
X127871429Y-80880571D01*
X127776191Y-80928190D01*
X127395238Y-80928190D01*
X128395238Y-80880571D02*
X128728572Y-80880571D01*
X128871429Y-81404381D02*
X128395238Y-81404381D01*
X128395238Y-80404381D01*
X128871429Y-80404381D01*
X129633334Y-80880571D02*
X129300000Y-80880571D01*
X129300000Y-81404381D02*
X129300000Y-80404381D01*
X129776191Y-80404381D01*
X130300000Y-80404381D02*
X130300000Y-80642476D01*
X130061905Y-80547238D02*
X130300000Y-80642476D01*
X130538096Y-80547238D01*
X130157143Y-80832952D02*
X130300000Y-80642476D01*
X130442858Y-80832952D01*
X131061905Y-80404381D02*
X131061905Y-80642476D01*
X130823810Y-80547238D02*
X131061905Y-80642476D01*
X131300001Y-80547238D01*
X130919048Y-80832952D02*
X131061905Y-80642476D01*
X131204763Y-80832952D01*
X127866667Y-117004381D02*
X127533333Y-116528190D01*
X127295238Y-117004381D02*
X127295238Y-116004381D01*
X127676191Y-116004381D01*
X127771429Y-116052000D01*
X127819048Y-116099619D01*
X127866667Y-116194857D01*
X127866667Y-116337714D01*
X127819048Y-116432952D01*
X127771429Y-116480571D01*
X127676191Y-116528190D01*
X127295238Y-116528190D01*
X128295238Y-116480571D02*
X128628572Y-116480571D01*
X128771429Y-117004381D02*
X128295238Y-117004381D01*
X128295238Y-116004381D01*
X128771429Y-116004381D01*
X129533334Y-116480571D02*
X129200000Y-116480571D01*
X129200000Y-117004381D02*
X129200000Y-116004381D01*
X129676191Y-116004381D01*
X130200000Y-116004381D02*
X130200000Y-116242476D01*
X129961905Y-116147238D02*
X130200000Y-116242476D01*
X130438096Y-116147238D01*
X130057143Y-116432952D02*
X130200000Y-116242476D01*
X130342858Y-116432952D01*
X130961905Y-116004381D02*
X130961905Y-116242476D01*
X130723810Y-116147238D02*
X130961905Y-116242476D01*
X131200001Y-116147238D01*
X130819048Y-116432952D02*
X130961905Y-116242476D01*
X131104763Y-116432952D01*
X163366667Y-117004381D02*
X163033333Y-116528190D01*
X162795238Y-117004381D02*
X162795238Y-116004381D01*
X163176191Y-116004381D01*
X163271429Y-116052000D01*
X163319048Y-116099619D01*
X163366667Y-116194857D01*
X163366667Y-116337714D01*
X163319048Y-116432952D01*
X163271429Y-116480571D01*
X163176191Y-116528190D01*
X162795238Y-116528190D01*
X163795238Y-116480571D02*
X164128572Y-116480571D01*
X164271429Y-117004381D02*
X163795238Y-117004381D01*
X163795238Y-116004381D01*
X164271429Y-116004381D01*
X165033334Y-116480571D02*
X164700000Y-116480571D01*
X164700000Y-117004381D02*
X164700000Y-116004381D01*
X165176191Y-116004381D01*
X165700000Y-116004381D02*
X165700000Y-116242476D01*
X165461905Y-116147238D02*
X165700000Y-116242476D01*
X165938096Y-116147238D01*
X165557143Y-116432952D02*
X165700000Y-116242476D01*
X165842858Y-116432952D01*
X166461905Y-116004381D02*
X166461905Y-116242476D01*
X166223810Y-116147238D02*
X166461905Y-116242476D01*
X166700001Y-116147238D01*
X166319048Y-116432952D02*
X166461905Y-116242476D01*
X166604763Y-116432952D01*
X142729381Y-88320612D02*
X142253190Y-88653946D01*
X142729381Y-88892041D02*
X141729381Y-88892041D01*
X141729381Y-88511088D01*
X141777000Y-88415850D01*
X141824619Y-88368231D01*
X141919857Y-88320612D01*
X142062714Y-88320612D01*
X142157952Y-88368231D01*
X142205571Y-88415850D01*
X142253190Y-88511088D01*
X142253190Y-88892041D01*
X141729381Y-87987279D02*
X141729381Y-87320612D01*
X142729381Y-87749184D01*
X140548962Y-88320612D02*
X140072771Y-88653946D01*
X140548962Y-88892041D02*
X139548962Y-88892041D01*
X139548962Y-88511088D01*
X139596581Y-88415850D01*
X139644200Y-88368231D01*
X139739438Y-88320612D01*
X139882295Y-88320612D01*
X139977533Y-88368231D01*
X140025152Y-88415850D01*
X140072771Y-88511088D01*
X140072771Y-88892041D01*
X139977533Y-87749184D02*
X139929914Y-87844422D01*
X139882295Y-87892041D01*
X139787057Y-87939660D01*
X139739438Y-87939660D01*
X139644200Y-87892041D01*
X139596581Y-87844422D01*
X139548962Y-87749184D01*
X139548962Y-87558707D01*
X139596581Y-87463469D01*
X139644200Y-87415850D01*
X139739438Y-87368231D01*
X139787057Y-87368231D01*
X139882295Y-87415850D01*
X139929914Y-87463469D01*
X139977533Y-87558707D01*
X139977533Y-87749184D01*
X140025152Y-87844422D01*
X140072771Y-87892041D01*
X140168010Y-87939660D01*
X140358486Y-87939660D01*
X140453724Y-87892041D01*
X140501343Y-87844422D01*
X140548962Y-87749184D01*
X140548962Y-87558707D01*
X140501343Y-87463469D01*
X140453724Y-87415850D01*
X140358486Y-87368231D01*
X140168010Y-87368231D01*
X140072771Y-87415850D01*
X140025152Y-87463469D01*
X139977533Y-87558707D01*
X138534143Y-99374857D02*
X138581762Y-99422476D01*
X138629381Y-99565333D01*
X138629381Y-99660571D01*
X138581762Y-99803429D01*
X138486524Y-99898667D01*
X138391286Y-99946286D01*
X138200810Y-99993905D01*
X138057952Y-99993905D01*
X137867476Y-99946286D01*
X137772238Y-99898667D01*
X137677000Y-99803429D01*
X137629381Y-99660571D01*
X137629381Y-99565333D01*
X137677000Y-99422476D01*
X137724619Y-99374857D01*
X138629381Y-98422476D02*
X138629381Y-98993905D01*
X138629381Y-98708191D02*
X137629381Y-98708191D01*
X137772238Y-98803429D01*
X137867476Y-98898667D01*
X137915095Y-98993905D01*
X137629381Y-98089143D02*
X137629381Y-97470095D01*
X138010333Y-97803429D01*
X138010333Y-97660571D01*
X138057952Y-97565333D01*
X138105571Y-97517714D01*
X138200810Y-97470095D01*
X138438905Y-97470095D01*
X138534143Y-97517714D01*
X138581762Y-97565333D01*
X138629381Y-97660571D01*
X138629381Y-97946286D01*
X138581762Y-98041524D01*
X138534143Y-98089143D01*
X140824143Y-99384857D02*
X140871762Y-99432476D01*
X140919381Y-99575333D01*
X140919381Y-99670571D01*
X140871762Y-99813429D01*
X140776524Y-99908667D01*
X140681286Y-99956286D01*
X140490810Y-100003905D01*
X140347952Y-100003905D01*
X140157476Y-99956286D01*
X140062238Y-99908667D01*
X139967000Y-99813429D01*
X139919381Y-99670571D01*
X139919381Y-99575333D01*
X139967000Y-99432476D01*
X140014619Y-99384857D01*
X140919381Y-98432476D02*
X140919381Y-99003905D01*
X140919381Y-98718191D02*
X139919381Y-98718191D01*
X140062238Y-98813429D01*
X140157476Y-98908667D01*
X140205095Y-99003905D01*
X140252714Y-97575333D02*
X140919381Y-97575333D01*
X139871762Y-97813429D02*
X140586048Y-98051524D01*
X140586048Y-97432476D01*
X134029381Y-113271714D02*
X134029381Y-112700285D01*
X135029381Y-112986000D02*
X134029381Y-112986000D01*
X135029381Y-112366952D02*
X134029381Y-112366952D01*
X134505571Y-112366952D02*
X134505571Y-111795523D01*
X135029381Y-111795523D02*
X134029381Y-111795523D01*
X135029381Y-110795523D02*
X135029381Y-111366952D01*
X135029381Y-111081238D02*
X134029381Y-111081238D01*
X134172238Y-111176476D01*
X134267476Y-111271714D01*
X134315095Y-111366952D01*
X165980334Y-92174381D02*
X165647000Y-91698190D01*
X165408905Y-92174381D02*
X165408905Y-91174381D01*
X165789858Y-91174381D01*
X165885096Y-91222000D01*
X165932715Y-91269619D01*
X165980334Y-91364857D01*
X165980334Y-91507714D01*
X165932715Y-91602952D01*
X165885096Y-91650571D01*
X165789858Y-91698190D01*
X165408905Y-91698190D01*
X166456524Y-92174381D02*
X166647000Y-92174381D01*
X166742239Y-92126762D01*
X166789858Y-92079143D01*
X166885096Y-91936286D01*
X166932715Y-91745810D01*
X166932715Y-91364857D01*
X166885096Y-91269619D01*
X166837477Y-91222000D01*
X166742239Y-91174381D01*
X166551762Y-91174381D01*
X166456524Y-91222000D01*
X166408905Y-91269619D01*
X166361286Y-91364857D01*
X166361286Y-91602952D01*
X166408905Y-91698190D01*
X166456524Y-91745810D01*
X166551762Y-91793429D01*
X166742239Y-91793429D01*
X166837477Y-91745810D01*
X166885096Y-91698190D01*
X166932715Y-91602952D01*
X165438905Y-94244381D02*
X165438905Y-93244381D01*
X165677000Y-93244381D01*
X165819858Y-93292000D01*
X165915096Y-93387238D01*
X165962715Y-93482476D01*
X166010334Y-93672952D01*
X166010334Y-93815810D01*
X165962715Y-94006286D01*
X165915096Y-94101524D01*
X165819858Y-94196762D01*
X165677000Y-94244381D01*
X165438905Y-94244381D01*
X166962715Y-94244381D02*
X166391286Y-94244381D01*
X166677000Y-94244381D02*
X166677000Y-93244381D01*
X166581762Y-93387238D01*
X166486524Y-93482476D01*
X166391286Y-93530095D01*
X145639381Y-93394857D02*
X145163190Y-93728191D01*
X145639381Y-93966286D02*
X144639381Y-93966286D01*
X144639381Y-93585333D01*
X144687000Y-93490095D01*
X144734619Y-93442476D01*
X144829857Y-93394857D01*
X144972714Y-93394857D01*
X145067952Y-93442476D01*
X145115571Y-93490095D01*
X145163190Y-93585333D01*
X145163190Y-93966286D01*
X145639381Y-92442476D02*
X145639381Y-93013905D01*
X145639381Y-92728191D02*
X144639381Y-92728191D01*
X144782238Y-92823429D01*
X144877476Y-92918667D01*
X144925095Y-93013905D01*
X144639381Y-91823429D02*
X144639381Y-91728190D01*
X144687000Y-91632952D01*
X144734619Y-91585333D01*
X144829857Y-91537714D01*
X145020333Y-91490095D01*
X145258429Y-91490095D01*
X145448905Y-91537714D01*
X145544143Y-91585333D01*
X145591762Y-91632952D01*
X145639381Y-91728190D01*
X145639381Y-91823429D01*
X145591762Y-91918667D01*
X145544143Y-91966286D01*
X145448905Y-92013905D01*
X145258429Y-92061524D01*
X145020333Y-92061524D01*
X144829857Y-92013905D01*
X144734619Y-91966286D01*
X144687000Y-91918667D01*
X144639381Y-91823429D01*
X136254143Y-99464857D02*
X136301762Y-99512476D01*
X136349381Y-99655333D01*
X136349381Y-99750571D01*
X136301762Y-99893429D01*
X136206524Y-99988667D01*
X136111286Y-100036286D01*
X135920810Y-100083905D01*
X135777952Y-100083905D01*
X135587476Y-100036286D01*
X135492238Y-99988667D01*
X135397000Y-99893429D01*
X135349381Y-99750571D01*
X135349381Y-99655333D01*
X135397000Y-99512476D01*
X135444619Y-99464857D01*
X136349381Y-98512476D02*
X136349381Y-99083905D01*
X136349381Y-98798191D02*
X135349381Y-98798191D01*
X135492238Y-98893429D01*
X135587476Y-98988667D01*
X135635095Y-99083905D01*
X135349381Y-98179143D02*
X135349381Y-97512476D01*
X136349381Y-97941048D01*
X129191286Y-114800571D02*
X129334143Y-114848190D01*
X129381762Y-114895810D01*
X129429381Y-114991048D01*
X129429381Y-115133905D01*
X129381762Y-115229143D01*
X129334143Y-115276762D01*
X129238905Y-115324381D01*
X128857952Y-115324381D01*
X128857952Y-114324381D01*
X129191286Y-114324381D01*
X129286524Y-114372000D01*
X129334143Y-114419619D01*
X129381762Y-114514857D01*
X129381762Y-114610095D01*
X129334143Y-114705333D01*
X129286524Y-114752952D01*
X129191286Y-114800571D01*
X128857952Y-114800571D01*
X129715095Y-114324381D02*
X130286524Y-114324381D01*
X130000809Y-115324381D02*
X130000809Y-114324381D01*
X131143667Y-115324381D02*
X130572238Y-115324381D01*
X130857952Y-115324381D02*
X130857952Y-114324381D01*
X130762714Y-114467238D01*
X130667476Y-114562476D01*
X130572238Y-114610095D01*
X129846048Y-112193429D02*
X130607953Y-112193429D01*
X127846048Y-112193429D02*
X128607953Y-112193429D01*
X128227001Y-112574381D02*
X128227001Y-111812476D01*
M02*
