G04 #@! TF.FileFunction,Copper,L1,Top,Signal*
%FSLAX46Y46*%
G04 Gerber Fmt 4.6, Leading zero omitted, Abs format (unit mm)*
G04 Created by KiCad (PCBNEW 4.0.0-rc1-stable) date Sun 22 Nov 2015 09:57:49 PM ICT*
%MOMM*%
G01*
G04 APERTURE LIST*
%ADD10C,0.100000*%
%ADD11C,4.064000*%
%ADD12R,1.727200X1.727200*%
%ADD13O,1.727200X1.727200*%
%ADD14R,0.889000X0.609600*%
%ADD15R,1.300000X0.700000*%
%ADD16R,1.300000X3.500000*%
%ADD17R,2.499360X1.800860*%
%ADD18R,1.250000X1.000000*%
%ADD19C,1.422400*%
%ADD20C,3.327400*%
%ADD21R,1.600000X1.000000*%
%ADD22R,1.800000X1.230000*%
%ADD23R,1.049020X0.599440*%
%ADD24R,1.501140X1.049020*%
%ADD25R,2.100000X0.400000*%
%ADD26O,1.550000X1.000000*%
%ADD27R,1.900000X1.900000*%
%ADD28R,1.000000X1.000000*%
%ADD29R,2.230000X1.800000*%
%ADD30C,0.600000*%
%ADD31C,0.250000*%
%ADD32C,0.254000*%
G04 APERTURE END LIST*
D10*
D11*
X129286000Y-84010500D03*
X164846000Y-84010500D03*
X164782000Y-119570000D03*
X129286000Y-119570000D03*
D12*
X137922000Y-117983000D03*
D13*
X137922000Y-120523000D03*
X140462000Y-117983000D03*
X140462000Y-120523000D03*
X143002000Y-117983000D03*
X143002000Y-120523000D03*
X145542000Y-117983000D03*
X145542000Y-120523000D03*
X148082000Y-117983000D03*
X148082000Y-120523000D03*
X150622000Y-117983000D03*
X150622000Y-120523000D03*
X153162000Y-117983000D03*
X153162000Y-120523000D03*
X155702000Y-117983000D03*
X155702000Y-120523000D03*
D12*
X155756000Y-85540000D03*
D13*
X155756000Y-83000000D03*
X153216000Y-85540000D03*
X153216000Y-83000000D03*
X150676000Y-85540000D03*
X150676000Y-83000000D03*
X148136000Y-85540000D03*
X148136000Y-83000000D03*
X145596000Y-85540000D03*
X145596000Y-83000000D03*
X143056000Y-85540000D03*
X143056000Y-83000000D03*
X140516000Y-85540000D03*
X140516000Y-83000000D03*
X137976000Y-85540000D03*
X137976000Y-83000000D03*
D14*
X144805000Y-102387500D03*
X144805000Y-100482500D03*
X147345000Y-100482500D03*
X147345000Y-101435000D03*
X147345000Y-102387500D03*
X144983000Y-112026500D03*
X144983000Y-110121500D03*
X147523000Y-110121500D03*
X147523000Y-111074000D03*
X147523000Y-112026500D03*
X142621000Y-92773500D03*
X142621000Y-90868500D03*
X145161000Y-90868500D03*
X145161000Y-91821000D03*
X145161000Y-92773500D03*
D15*
X149479000Y-92649000D03*
X149479000Y-94549000D03*
X147193000Y-94549000D03*
X147193000Y-92649000D03*
X151333000Y-112217000D03*
X151333000Y-114117000D03*
X149301000Y-114117000D03*
X149301000Y-112217000D03*
X151155000Y-102199000D03*
X151155000Y-104099000D03*
X149123000Y-104099000D03*
X149123000Y-102199000D03*
D16*
X147236000Y-89789000D03*
X149436000Y-89789000D03*
X149039000Y-99339400D03*
X151239000Y-99339400D03*
X149217000Y-109296000D03*
X151417000Y-109296000D03*
D17*
X158589980Y-89408000D03*
X154592020Y-89408000D03*
D15*
X161417000Y-89093000D03*
X161417000Y-90993000D03*
D18*
X140259000Y-106435000D03*
X140259000Y-104435000D03*
D19*
X156565200Y-99758700D03*
X156565200Y-101765300D03*
X156565200Y-97269500D03*
D20*
X159283000Y-94196100D03*
X159283000Y-107327900D03*
D19*
X156565200Y-104254500D03*
D21*
X151765000Y-93321000D03*
X151765000Y-90321000D03*
X163779000Y-92330400D03*
X163779000Y-89330400D03*
X153441000Y-102795000D03*
X153441000Y-99795000D03*
X153746000Y-112727000D03*
X153746000Y-109727000D03*
X140462000Y-90448000D03*
X140462000Y-93448000D03*
X142646000Y-99998000D03*
X142646000Y-102998000D03*
X142951000Y-109701000D03*
X142951000Y-112701000D03*
D22*
X162524000Y-111125000D03*
X159904000Y-111125000D03*
D23*
X138335120Y-99849080D03*
X138335120Y-100948900D03*
X138335120Y-102048720D03*
X138335120Y-103148540D03*
X138335120Y-104248360D03*
X138335120Y-105348180D03*
X138335120Y-106448000D03*
X138335120Y-107547820D03*
D24*
X136941000Y-98644000D03*
X136966000Y-113469000D03*
X127491000Y-98719000D03*
X127491000Y-114769000D03*
D23*
X138341000Y-108644000D03*
D25*
X130203540Y-91862000D03*
X130203540Y-92512000D03*
X130203540Y-93162000D03*
X130203540Y-93812000D03*
X130203540Y-94462000D03*
D26*
X127216000Y-90337900D03*
X127216000Y-95962900D03*
D27*
X127216000Y-92087900D03*
X127216000Y-94237900D03*
D28*
X129291000Y-89962900D03*
X129291000Y-96362900D03*
D29*
X134272020Y-94659720D03*
X134272020Y-91739720D03*
D30*
X153568400Y-103679490D03*
X135255000Y-103251000D03*
X136456610Y-103174800D03*
X149326600Y-113030000D03*
X147218400Y-93548200D03*
X144630110Y-105511600D03*
X143480090Y-105486200D03*
X140589000Y-95097600D03*
X157022800Y-111506000D03*
X137426600Y-108800400D03*
X137135000Y-107620000D03*
X137185000Y-106477000D03*
X137218000Y-104248000D03*
X137135000Y-101981000D03*
X137160000Y-100940000D03*
X140776400Y-99601600D03*
X132105400Y-93243400D03*
X132105000Y-92456000D03*
D31*
X156565200Y-104254500D02*
X156565200Y-107670200D01*
X156565200Y-107670200D02*
X159099700Y-110204700D01*
X159099700Y-110204700D02*
X159904000Y-110204700D01*
X159904000Y-110204700D02*
X159904000Y-111125000D01*
X143116300Y-91478600D02*
X142621000Y-91478600D01*
X144411200Y-92773500D02*
X143116300Y-91478600D01*
X142621000Y-90868500D02*
X142621000Y-91478600D01*
X145161000Y-92773500D02*
X144411200Y-92773500D01*
X134391000Y-91908000D02*
X135311300Y-91908000D01*
X135403900Y-92000600D02*
X135881600Y-92000600D01*
X135311300Y-91908000D02*
X135403900Y-92000600D01*
X139714700Y-92000600D02*
X140462000Y-91253300D01*
X135881600Y-92000600D02*
X139714700Y-92000600D01*
X140462000Y-90448000D02*
X140462000Y-90850600D01*
X140462000Y-90850600D02*
X140462000Y-91253300D01*
X141853300Y-90850600D02*
X141871200Y-90868500D01*
X140462000Y-90850600D02*
X141853300Y-90850600D01*
X142621000Y-90868500D02*
X141871200Y-90868500D01*
X133356700Y-91794000D02*
X133470700Y-91908000D01*
X131626800Y-91794000D02*
X133356700Y-91794000D01*
X131558800Y-91862000D02*
X131626800Y-91794000D01*
X130203500Y-91862000D02*
X131558800Y-91862000D01*
X134391000Y-91908000D02*
X133470700Y-91908000D01*
X145478300Y-110731600D02*
X144983000Y-110731600D01*
X146773200Y-112026500D02*
X145478300Y-110731600D01*
X147523000Y-112026500D02*
X146773200Y-112026500D01*
X144983000Y-110121500D02*
X144983000Y-110731600D01*
X142646000Y-99998000D02*
X143751300Y-99998000D01*
X146099900Y-102387500D02*
X147345000Y-102387500D01*
X144805000Y-101092600D02*
X146099900Y-102387500D01*
X152784700Y-104254500D02*
X156565200Y-104254500D01*
X151384600Y-102854400D02*
X152784700Y-104254500D01*
X148328200Y-102854400D02*
X151384600Y-102854400D01*
X148094800Y-102621000D02*
X148328200Y-102854400D01*
X148094800Y-102387500D02*
X148094800Y-102621000D01*
X147345000Y-102387500D02*
X148094800Y-102387500D01*
X137338900Y-109701000D02*
X142951000Y-109701000D01*
X135881600Y-108243700D02*
X137338900Y-109701000D01*
X135881600Y-92000600D02*
X135881600Y-108243700D01*
X144056300Y-109944600D02*
X144233200Y-110121500D01*
X144056300Y-109701000D02*
X144056300Y-109944600D01*
X144983000Y-110121500D02*
X144233200Y-110121500D01*
X144805000Y-100482500D02*
X144162800Y-100482500D01*
X142951000Y-109701000D02*
X144055100Y-109701000D01*
X144055100Y-109701000D02*
X144056300Y-109701000D01*
X143751300Y-100178700D02*
X144055100Y-100482500D01*
X143751300Y-99998000D02*
X143751300Y-100178700D01*
X144162800Y-100482500D02*
X144055100Y-100482500D01*
X144055100Y-100482500D02*
X144055100Y-109701000D01*
X144805000Y-100482500D02*
X144805000Y-101092600D01*
X130203540Y-93812000D02*
X130203540Y-94462000D01*
X135229600Y-103276400D02*
X134848600Y-103276400D01*
X135255000Y-103251000D02*
X135229600Y-103276400D01*
X138335120Y-103148540D02*
X136482870Y-103148540D01*
X136482870Y-103148540D02*
X136456610Y-103174800D01*
X149301000Y-112217000D02*
X149301000Y-113004400D01*
X149301000Y-113004400D02*
X149326600Y-113030000D01*
X147193000Y-92649000D02*
X147193000Y-93522800D01*
X147193000Y-93522800D02*
X147218400Y-93548200D01*
X144630110Y-105511600D02*
X151452664Y-105511600D01*
X157022800Y-111081736D02*
X157022800Y-111506000D01*
X151452664Y-105511600D02*
X157022800Y-111081736D01*
X142646000Y-102998000D02*
X142646000Y-104652110D01*
X142646000Y-104652110D02*
X143480090Y-105486200D01*
X153441000Y-102795000D02*
X153441000Y-103552090D01*
X153441000Y-103552090D02*
X153568400Y-103679490D01*
X140462000Y-93448000D02*
X140462000Y-94970600D01*
X140462000Y-94970600D02*
X140589000Y-95097600D01*
X153746000Y-112727000D02*
X155801800Y-112727000D01*
X155801800Y-112727000D02*
X157022800Y-111506000D01*
X149301000Y-112217000D02*
X148158000Y-111074000D01*
X148158000Y-111074000D02*
X147523000Y-111074000D01*
X149123000Y-102199000D02*
X148359000Y-101435000D01*
X148359000Y-101435000D02*
X147345000Y-101435000D01*
X147193000Y-92649000D02*
X146365000Y-91821000D01*
X146365000Y-91821000D02*
X145161000Y-91821000D01*
X130203540Y-93812000D02*
X131503540Y-93812000D01*
X131503540Y-93812000D02*
X132219540Y-94528000D01*
X132219540Y-94528000D02*
X133526000Y-94528000D01*
X133526000Y-94528000D02*
X134391000Y-94528000D01*
X137566490Y-108644000D02*
X137426600Y-108783890D01*
X138341000Y-108644000D02*
X137566490Y-108644000D01*
X137426600Y-108783890D02*
X137426600Y-108800400D01*
X138335000Y-107548000D02*
X138334900Y-107548000D01*
X137207000Y-107548000D02*
X137135000Y-107620000D01*
X138334900Y-107548000D02*
X137207000Y-107548000D01*
X138334900Y-107548000D02*
X138335100Y-107547800D01*
X137214000Y-106448000D02*
X137185000Y-106477000D01*
X138335000Y-106448000D02*
X137214000Y-106448000D01*
X138335000Y-106448000D02*
X138335100Y-106448000D01*
X138335000Y-104248000D02*
X138334700Y-104248000D01*
X138334700Y-104248000D02*
X137218000Y-104248000D01*
X138334700Y-104248000D02*
X138335100Y-104248400D01*
X138335000Y-102049000D02*
X138334800Y-102049000D01*
X137202000Y-102049000D02*
X137135000Y-101981000D01*
X138334800Y-102049000D02*
X137202000Y-102049000D01*
X138334800Y-102049000D02*
X138335100Y-102048700D01*
X137169000Y-100949000D02*
X137160000Y-100940000D01*
X138335000Y-100949000D02*
X137169000Y-100949000D01*
X138335000Y-100949000D02*
X138335100Y-100948900D01*
X140462000Y-120523000D02*
X140817600Y-120167400D01*
X140817600Y-120167400D02*
X141630900Y-120167400D01*
X141630900Y-120159700D02*
X142537600Y-119253000D01*
X141630900Y-120167400D02*
X141630900Y-120159700D01*
X142537600Y-119253000D02*
X143414200Y-119253000D01*
X143414200Y-119253000D02*
X144243400Y-118423800D01*
X144243400Y-118423800D02*
X144243400Y-117577800D01*
X144243400Y-117577800D02*
X145235800Y-116585400D01*
X145235800Y-116585400D02*
X150366400Y-116585400D01*
X150366400Y-116585400D02*
X152307900Y-114643900D01*
X152307900Y-114643900D02*
X152307900Y-113601500D01*
X152307900Y-113601500D02*
X151578700Y-112872300D01*
X151578700Y-112872300D02*
X151333000Y-112872300D01*
X151333000Y-112872300D02*
X151333000Y-112217000D01*
X152640700Y-109564400D02*
X152372300Y-109296000D01*
X152640700Y-109727000D02*
X152640700Y-109564400D01*
X153746000Y-109727000D02*
X152640700Y-109727000D01*
X151417000Y-109296000D02*
X151655900Y-109296000D01*
X151655900Y-109296000D02*
X152372300Y-109296000D01*
X151333000Y-109618900D02*
X151333000Y-112217000D01*
X151655900Y-109296000D02*
X151333000Y-109618900D01*
X153218500Y-99795000D02*
X153218500Y-99896300D01*
X156164100Y-102841900D02*
X157858300Y-102841900D01*
X153218500Y-99896300D02*
X156164100Y-102841900D01*
X161403999Y-110234999D02*
X161348999Y-110289999D01*
X161403999Y-112015001D02*
X161467800Y-112015001D01*
X157858300Y-102841900D02*
X161366200Y-106349800D01*
X161467800Y-113871800D02*
X156086600Y-119253000D01*
X161366200Y-106349800D02*
X161366200Y-110234999D01*
X161366200Y-110234999D02*
X161403999Y-110234999D01*
X161348999Y-110289999D02*
X161348999Y-111960001D01*
X144170900Y-120159700D02*
X144170900Y-120167400D01*
X161348999Y-111960001D02*
X161403999Y-112015001D01*
X161467800Y-112015001D02*
X161467800Y-113871800D01*
X156086600Y-119253000D02*
X145077600Y-119253000D01*
X145077600Y-119253000D02*
X144170900Y-120159700D01*
X144170900Y-120167400D02*
X143357600Y-120167400D01*
X143357600Y-120167400D02*
X143002000Y-120523000D01*
X151239000Y-99339400D02*
X152194300Y-99339400D01*
X152194300Y-99653700D02*
X152335600Y-99795000D01*
X152194300Y-99339400D02*
X152194300Y-99653700D01*
X152443300Y-99795000D02*
X152335600Y-99795000D01*
X151155000Y-100975600D02*
X151155000Y-102199000D01*
X152335600Y-99795000D02*
X151155000Y-100975600D01*
X153441000Y-99795000D02*
X153218500Y-99795000D01*
X153218500Y-99795000D02*
X152443300Y-99795000D01*
X140151100Y-105348200D02*
X140259000Y-105240300D01*
X138335100Y-105348200D02*
X140151100Y-105348200D01*
X140259000Y-104435000D02*
X140259000Y-105240300D01*
X140259000Y-100119000D02*
X140776400Y-99601600D01*
X140259000Y-104435000D02*
X140259000Y-100119000D01*
X149724700Y-93304300D02*
X149479000Y-93304300D01*
X150463400Y-94043000D02*
X149724700Y-93304300D01*
X150463400Y-95065000D02*
X150463400Y-94043000D01*
X149386600Y-96141800D02*
X150463400Y-95065000D01*
X144236200Y-96141800D02*
X149386600Y-96141800D01*
X140776400Y-99601600D02*
X144236200Y-96141800D01*
X149479000Y-92689900D02*
X149479000Y-93304300D01*
X149479000Y-92689900D02*
X149479000Y-92649000D01*
X149479000Y-91887300D02*
X149436000Y-91844300D01*
X149479000Y-92649000D02*
X149479000Y-91887300D01*
X149436000Y-89789000D02*
X149436000Y-91844300D01*
X150659700Y-90057400D02*
X150391300Y-89789000D01*
X150659700Y-90321000D02*
X150659700Y-90057400D01*
X149436000Y-89789000D02*
X150391300Y-89789000D01*
X151212400Y-90321000D02*
X150659700Y-90321000D01*
X151212400Y-90321000D02*
X151765000Y-90321000D01*
X152870300Y-89574700D02*
X153037000Y-89408000D01*
X152870300Y-90321000D02*
X152870300Y-89574700D01*
X154592000Y-89408000D02*
X153037000Y-89408000D01*
X151765000Y-90321000D02*
X152870300Y-90321000D01*
X130284900Y-93243400D02*
X131681136Y-93243400D01*
X130203500Y-93162000D02*
X130284900Y-93243400D01*
X131681136Y-93243400D02*
X132105400Y-93243400D01*
X132049000Y-92512000D02*
X132105000Y-92456000D01*
X130204000Y-92512000D02*
X132049000Y-92512000D01*
X130204000Y-92512000D02*
X130203500Y-92512000D01*
X158589980Y-89408000D02*
X160145000Y-89408000D01*
X157035000Y-89408000D02*
X158589980Y-89408000D01*
X161417000Y-89093000D02*
X160460000Y-89093000D01*
X160460000Y-89093000D02*
X160145000Y-89408000D01*
X157035000Y-89408000D02*
X157035000Y-89000400D01*
X154457400Y-86422800D02*
X154457400Y-85047000D01*
X157035000Y-89000400D02*
X154457400Y-86422800D01*
X154457400Y-85047000D02*
X153579300Y-84168900D01*
X153579300Y-84168900D02*
X153216000Y-84168900D01*
X153216000Y-84168900D02*
X153216000Y-83000000D01*
X162609700Y-89330400D02*
X162372300Y-89093000D01*
X163779000Y-89330400D02*
X162609700Y-89330400D01*
X161417000Y-89093000D02*
X162372300Y-89093000D01*
X149479000Y-94549000D02*
X147193000Y-94549000D01*
X143786400Y-94549000D02*
X142621000Y-93383600D01*
X147193000Y-94549000D02*
X143786400Y-94549000D01*
X142621000Y-92773500D02*
X142621000Y-93383600D01*
X145630400Y-89789000D02*
X145161000Y-90258400D01*
X147236000Y-89789000D02*
X145630400Y-89789000D01*
X145161000Y-90868500D02*
X145161000Y-90258400D01*
X147550700Y-99872400D02*
X147345000Y-99872400D01*
X148083700Y-99339400D02*
X147550700Y-99872400D01*
X149039000Y-99339400D02*
X148083700Y-99339400D01*
X147345000Y-100482500D02*
X147345000Y-99872400D01*
X148046300Y-109511400D02*
X147523000Y-109511400D01*
X148261700Y-109296000D02*
X148046300Y-109511400D01*
X149217000Y-109296000D02*
X148261700Y-109296000D01*
X147523000Y-110121500D02*
X147523000Y-109511400D01*
X151333000Y-114117000D02*
X149301000Y-114117000D01*
X146463400Y-114117000D02*
X144983000Y-112636600D01*
X149301000Y-114117000D02*
X146463400Y-114117000D01*
X144983000Y-112026500D02*
X144983000Y-112636600D01*
X144805000Y-102387500D02*
X144805000Y-102997600D01*
X151155000Y-104099000D02*
X149123000Y-104099000D01*
X145906400Y-104099000D02*
X144805000Y-102997600D01*
X149123000Y-104099000D02*
X145906400Y-104099000D01*
D32*
G36*
X166259005Y-80303498D02*
X167672221Y-81247779D01*
X168616502Y-82660997D01*
X168962000Y-84397931D01*
X168962000Y-119310069D01*
X168616502Y-121047003D01*
X167672221Y-122460221D01*
X166259005Y-123404502D01*
X164522069Y-123750000D01*
X162658545Y-123750000D01*
X127788496Y-123348040D01*
X126459779Y-122460221D01*
X125515498Y-121047005D01*
X125326764Y-120098172D01*
X126618538Y-120098172D01*
X127023709Y-121078761D01*
X127773293Y-121829655D01*
X128753173Y-122236536D01*
X129814172Y-122237462D01*
X130794761Y-121832291D01*
X131545655Y-121082707D01*
X131628984Y-120882026D01*
X136467042Y-120882026D01*
X136639312Y-121297947D01*
X137033510Y-121729821D01*
X137562973Y-121977968D01*
X137795000Y-121857469D01*
X137795000Y-120650000D01*
X136588183Y-120650000D01*
X136467042Y-120882026D01*
X131628984Y-120882026D01*
X131952536Y-120102827D01*
X131953462Y-119041828D01*
X131548291Y-118061239D01*
X130798707Y-117310345D01*
X129818827Y-116903464D01*
X128757828Y-116902538D01*
X127777239Y-117307709D01*
X127026345Y-118057293D01*
X126619464Y-119037173D01*
X126618538Y-120098172D01*
X125326764Y-120098172D01*
X125186898Y-119395020D01*
X125170000Y-117446133D01*
X125170000Y-115054750D01*
X126105430Y-115054750D01*
X126105430Y-115419819D01*
X126202103Y-115653208D01*
X126380731Y-115831837D01*
X126614120Y-115928510D01*
X127205250Y-115928510D01*
X127364000Y-115769760D01*
X127364000Y-114896000D01*
X127618000Y-114896000D01*
X127618000Y-115769760D01*
X127776750Y-115928510D01*
X128367880Y-115928510D01*
X128601269Y-115831837D01*
X128779897Y-115653208D01*
X128876570Y-115419819D01*
X128876570Y-115054750D01*
X128717820Y-114896000D01*
X127618000Y-114896000D01*
X127364000Y-114896000D01*
X126264180Y-114896000D01*
X126105430Y-115054750D01*
X125170000Y-115054750D01*
X125170000Y-114118181D01*
X126105430Y-114118181D01*
X126105430Y-114483250D01*
X126264180Y-114642000D01*
X127364000Y-114642000D01*
X127364000Y-113768240D01*
X127618000Y-113768240D01*
X127618000Y-114642000D01*
X128717820Y-114642000D01*
X128876570Y-114483250D01*
X128876570Y-114118181D01*
X128779897Y-113884792D01*
X128649856Y-113754750D01*
X135580430Y-113754750D01*
X135580430Y-114119819D01*
X135677103Y-114353208D01*
X135855731Y-114531837D01*
X136089120Y-114628510D01*
X136680250Y-114628510D01*
X136839000Y-114469760D01*
X136839000Y-113596000D01*
X137093000Y-113596000D01*
X137093000Y-114469760D01*
X137251750Y-114628510D01*
X137842880Y-114628510D01*
X138076269Y-114531837D01*
X138254897Y-114353208D01*
X138351570Y-114119819D01*
X138351570Y-113754750D01*
X138192820Y-113596000D01*
X137093000Y-113596000D01*
X136839000Y-113596000D01*
X135739180Y-113596000D01*
X135580430Y-113754750D01*
X128649856Y-113754750D01*
X128601269Y-113706163D01*
X128367880Y-113609490D01*
X127776750Y-113609490D01*
X127618000Y-113768240D01*
X127364000Y-113768240D01*
X127205250Y-113609490D01*
X126614120Y-113609490D01*
X126380731Y-113706163D01*
X126202103Y-113884792D01*
X126105430Y-114118181D01*
X125170000Y-114118181D01*
X125170000Y-112818181D01*
X135580430Y-112818181D01*
X135580430Y-113183250D01*
X135739180Y-113342000D01*
X136839000Y-113342000D01*
X136839000Y-112468240D01*
X137093000Y-112468240D01*
X137093000Y-113342000D01*
X138192820Y-113342000D01*
X138351570Y-113183250D01*
X138351570Y-112986750D01*
X141516000Y-112986750D01*
X141516000Y-113327309D01*
X141612673Y-113560698D01*
X141791301Y-113739327D01*
X142024690Y-113836000D01*
X142665250Y-113836000D01*
X142824000Y-113677250D01*
X142824000Y-112828000D01*
X141674750Y-112828000D01*
X141516000Y-112986750D01*
X138351570Y-112986750D01*
X138351570Y-112818181D01*
X138254897Y-112584792D01*
X138076269Y-112406163D01*
X137842880Y-112309490D01*
X137251750Y-112309490D01*
X137093000Y-112468240D01*
X136839000Y-112468240D01*
X136680250Y-112309490D01*
X136089120Y-112309490D01*
X135855731Y-112406163D01*
X135677103Y-112584792D01*
X135580430Y-112818181D01*
X125170000Y-112818181D01*
X125170000Y-112074691D01*
X141516000Y-112074691D01*
X141516000Y-112415250D01*
X141674750Y-112574000D01*
X142824000Y-112574000D01*
X142824000Y-111724750D01*
X142665250Y-111566000D01*
X142024690Y-111566000D01*
X141791301Y-111662673D01*
X141612673Y-111841302D01*
X141516000Y-112074691D01*
X125170000Y-112074691D01*
X125170000Y-99004750D01*
X126105430Y-99004750D01*
X126105430Y-99369819D01*
X126202103Y-99603208D01*
X126380731Y-99781837D01*
X126614120Y-99878510D01*
X127205250Y-99878510D01*
X127364000Y-99719760D01*
X127364000Y-98846000D01*
X127618000Y-98846000D01*
X127618000Y-99719760D01*
X127776750Y-99878510D01*
X128367880Y-99878510D01*
X128601269Y-99781837D01*
X128779897Y-99603208D01*
X128876570Y-99369819D01*
X128876570Y-99004750D01*
X128717820Y-98846000D01*
X127618000Y-98846000D01*
X127364000Y-98846000D01*
X126264180Y-98846000D01*
X126105430Y-99004750D01*
X125170000Y-99004750D01*
X125170000Y-98068181D01*
X126105430Y-98068181D01*
X126105430Y-98433250D01*
X126264180Y-98592000D01*
X127364000Y-98592000D01*
X127364000Y-97718240D01*
X127618000Y-97718240D01*
X127618000Y-98592000D01*
X128717820Y-98592000D01*
X128876570Y-98433250D01*
X128876570Y-98068181D01*
X128779897Y-97834792D01*
X128601269Y-97656163D01*
X128367880Y-97559490D01*
X127776750Y-97559490D01*
X127618000Y-97718240D01*
X127364000Y-97718240D01*
X127205250Y-97559490D01*
X126614120Y-97559490D01*
X126380731Y-97656163D01*
X126202103Y-97834792D01*
X126105430Y-98068181D01*
X125170000Y-98068181D01*
X125170000Y-96264774D01*
X125846881Y-96264774D01*
X126048632Y-96675663D01*
X126389322Y-96962902D01*
X126814000Y-97097900D01*
X127089000Y-97097900D01*
X127089000Y-96089900D01*
X125973046Y-96089900D01*
X125846881Y-96264774D01*
X125170000Y-96264774D01*
X125170000Y-94523650D01*
X125631000Y-94523650D01*
X125631000Y-95314210D01*
X125727673Y-95547599D01*
X125861853Y-95681778D01*
X125973046Y-95835900D01*
X127089000Y-95835900D01*
X127089000Y-94364900D01*
X125789750Y-94364900D01*
X125631000Y-94523650D01*
X125170000Y-94523650D01*
X125170000Y-92373650D01*
X125631000Y-92373650D01*
X125631000Y-93952150D01*
X125789750Y-94110900D01*
X127089000Y-94110900D01*
X127089000Y-92214900D01*
X125789750Y-92214900D01*
X125631000Y-92373650D01*
X125170000Y-92373650D01*
X125170000Y-91011590D01*
X125631000Y-91011590D01*
X125631000Y-91802150D01*
X125789750Y-91960900D01*
X127089000Y-91960900D01*
X127089000Y-90464900D01*
X125973046Y-90464900D01*
X125846881Y-90639774D01*
X125853210Y-90652664D01*
X125727673Y-90778201D01*
X125631000Y-91011590D01*
X125170000Y-91011590D01*
X125170000Y-90036026D01*
X125846881Y-90036026D01*
X125973046Y-90210900D01*
X127089000Y-90210900D01*
X127089000Y-89202900D01*
X127343000Y-89202900D01*
X127343000Y-90210900D01*
X127363000Y-90210900D01*
X127363000Y-90464900D01*
X127343000Y-90464900D01*
X127343000Y-91960900D01*
X127363000Y-91960900D01*
X127363000Y-92214900D01*
X127343000Y-92214900D01*
X127343000Y-94110900D01*
X127363000Y-94110900D01*
X127363000Y-94364900D01*
X127343000Y-94364900D01*
X127343000Y-95835900D01*
X127363000Y-95835900D01*
X127363000Y-96089900D01*
X127343000Y-96089900D01*
X127343000Y-97097900D01*
X127618000Y-97097900D01*
X128042678Y-96962902D01*
X128156000Y-96867359D01*
X128156000Y-96989210D01*
X128252673Y-97222599D01*
X128431302Y-97401227D01*
X128664691Y-97497900D01*
X129005250Y-97497900D01*
X129164000Y-97339150D01*
X129164000Y-96489900D01*
X129418000Y-96489900D01*
X129418000Y-97339150D01*
X129576750Y-97497900D01*
X129917309Y-97497900D01*
X130150698Y-97401227D01*
X130329327Y-97222599D01*
X130426000Y-96989210D01*
X130426000Y-96648650D01*
X130267250Y-96489900D01*
X129418000Y-96489900D01*
X129164000Y-96489900D01*
X129144000Y-96489900D01*
X129144000Y-96235900D01*
X129164000Y-96235900D01*
X129164000Y-96215900D01*
X129418000Y-96215900D01*
X129418000Y-96235900D01*
X130267250Y-96235900D01*
X130426000Y-96077150D01*
X130426000Y-95736590D01*
X130329327Y-95503201D01*
X130264158Y-95438033D01*
X130300838Y-95349699D01*
X130300884Y-95297000D01*
X130330542Y-95297000D01*
X130330542Y-95138252D01*
X130489290Y-95297000D01*
X131379849Y-95297000D01*
X131613238Y-95200327D01*
X131791867Y-95021699D01*
X131823442Y-94945470D01*
X132522020Y-94945470D01*
X132522020Y-95686029D01*
X132618693Y-95919418D01*
X132797321Y-96098047D01*
X133030710Y-96194720D01*
X133986270Y-96194720D01*
X134145020Y-96035970D01*
X134145020Y-94786720D01*
X132680770Y-94786720D01*
X132522020Y-94945470D01*
X131823442Y-94945470D01*
X131888540Y-94788310D01*
X131888540Y-94720750D01*
X131729790Y-94562000D01*
X131585057Y-94562000D01*
X131613238Y-94550327D01*
X131791867Y-94371699D01*
X131842620Y-94249170D01*
X131888540Y-94203250D01*
X131888540Y-94165756D01*
X131918601Y-94178238D01*
X132290567Y-94178562D01*
X132522020Y-94082928D01*
X132522020Y-94373970D01*
X132680770Y-94532720D01*
X134145020Y-94532720D01*
X134145020Y-94512720D01*
X134399020Y-94512720D01*
X134399020Y-94532720D01*
X134419020Y-94532720D01*
X134419020Y-94786720D01*
X134399020Y-94786720D01*
X134399020Y-96035970D01*
X134557770Y-96194720D01*
X135121600Y-96194720D01*
X135121600Y-108243700D01*
X135179452Y-108534539D01*
X135344199Y-108781101D01*
X136801499Y-110238401D01*
X137048060Y-110403148D01*
X137080004Y-110409502D01*
X137338900Y-110461000D01*
X141563721Y-110461000D01*
X141686910Y-110652441D01*
X141899110Y-110797431D01*
X142151000Y-110848440D01*
X143751000Y-110848440D01*
X143929264Y-110814897D01*
X143942360Y-110823648D01*
X144053876Y-110845830D01*
X144074410Y-110877741D01*
X144280014Y-111018224D01*
X144280852Y-111022439D01*
X144340386Y-111111538D01*
X144303183Y-111118538D01*
X144087059Y-111257610D01*
X143942069Y-111469810D01*
X143919086Y-111583304D01*
X143877310Y-111566000D01*
X143236750Y-111566000D01*
X143078000Y-111724750D01*
X143078000Y-112574000D01*
X143098000Y-112574000D01*
X143098000Y-112828000D01*
X143078000Y-112828000D01*
X143078000Y-113677250D01*
X143236750Y-113836000D01*
X143877310Y-113836000D01*
X144110699Y-113739327D01*
X144289327Y-113560698D01*
X144386000Y-113327309D01*
X144386000Y-113084805D01*
X144445599Y-113174001D01*
X145925999Y-114654401D01*
X146172561Y-114819148D01*
X146463400Y-114877000D01*
X148160243Y-114877000D01*
X148186910Y-114918441D01*
X148399110Y-115063431D01*
X148651000Y-115114440D01*
X149951000Y-115114440D01*
X150186317Y-115070162D01*
X150317457Y-114985775D01*
X150431110Y-115063431D01*
X150683000Y-115114440D01*
X150762558Y-115114440D01*
X150051598Y-115825400D01*
X145235800Y-115825400D01*
X144944961Y-115883252D01*
X144698399Y-116047999D01*
X143930398Y-116816000D01*
X143604848Y-116598474D01*
X143031359Y-116484400D01*
X142972641Y-116484400D01*
X142399152Y-116598474D01*
X141912971Y-116923330D01*
X141732000Y-117194172D01*
X141551029Y-116923330D01*
X141064848Y-116598474D01*
X140491359Y-116484400D01*
X140432641Y-116484400D01*
X139859152Y-116598474D01*
X139393558Y-116909574D01*
X139388762Y-116884083D01*
X139249690Y-116667959D01*
X139037490Y-116522969D01*
X138785600Y-116471960D01*
X137058400Y-116471960D01*
X136823083Y-116516238D01*
X136606959Y-116655310D01*
X136461969Y-116867510D01*
X136410960Y-117119400D01*
X136410960Y-118846600D01*
X136455238Y-119081917D01*
X136594310Y-119298041D01*
X136806510Y-119443031D01*
X136900375Y-119462039D01*
X136639312Y-119748053D01*
X136467042Y-120163974D01*
X136588183Y-120396000D01*
X137795000Y-120396000D01*
X137795000Y-120376000D01*
X138049000Y-120376000D01*
X138049000Y-120396000D01*
X138069000Y-120396000D01*
X138069000Y-120650000D01*
X138049000Y-120650000D01*
X138049000Y-121857469D01*
X138281027Y-121977968D01*
X138810490Y-121729821D01*
X139192008Y-121311839D01*
X139372971Y-121582670D01*
X139859152Y-121907526D01*
X140432641Y-122021600D01*
X140491359Y-122021600D01*
X141064848Y-121907526D01*
X141551029Y-121582670D01*
X141732000Y-121311828D01*
X141912971Y-121582670D01*
X142399152Y-121907526D01*
X142972641Y-122021600D01*
X143031359Y-122021600D01*
X143604848Y-121907526D01*
X144091029Y-121582670D01*
X144272000Y-121311828D01*
X144452971Y-121582670D01*
X144939152Y-121907526D01*
X145512641Y-122021600D01*
X145571359Y-122021600D01*
X146144848Y-121907526D01*
X146631029Y-121582670D01*
X146812000Y-121311828D01*
X146992971Y-121582670D01*
X147479152Y-121907526D01*
X148052641Y-122021600D01*
X148111359Y-122021600D01*
X148684848Y-121907526D01*
X149171029Y-121582670D01*
X149352000Y-121311828D01*
X149532971Y-121582670D01*
X150019152Y-121907526D01*
X150592641Y-122021600D01*
X150651359Y-122021600D01*
X151224848Y-121907526D01*
X151711029Y-121582670D01*
X151892000Y-121311828D01*
X152072971Y-121582670D01*
X152559152Y-121907526D01*
X153132641Y-122021600D01*
X153191359Y-122021600D01*
X153764848Y-121907526D01*
X154251029Y-121582670D01*
X154432000Y-121311828D01*
X154612971Y-121582670D01*
X155099152Y-121907526D01*
X155672641Y-122021600D01*
X155731359Y-122021600D01*
X156304848Y-121907526D01*
X156791029Y-121582670D01*
X157115885Y-121096489D01*
X157229959Y-120523000D01*
X157145456Y-120098172D01*
X162114538Y-120098172D01*
X162519709Y-121078761D01*
X163269293Y-121829655D01*
X164249173Y-122236536D01*
X165310172Y-122237462D01*
X166290761Y-121832291D01*
X167041655Y-121082707D01*
X167448536Y-120102827D01*
X167449462Y-119041828D01*
X167044291Y-118061239D01*
X166294707Y-117310345D01*
X165314827Y-116903464D01*
X164253828Y-116902538D01*
X163273239Y-117307709D01*
X162522345Y-118057293D01*
X162115464Y-119037173D01*
X162114538Y-120098172D01*
X157145456Y-120098172D01*
X157115885Y-119949511D01*
X156855133Y-119559269D01*
X162005201Y-114409201D01*
X162169948Y-114162639D01*
X162227800Y-113871800D01*
X162227800Y-112375000D01*
X162238250Y-112375000D01*
X162397000Y-112216250D01*
X162397000Y-111252000D01*
X162651000Y-111252000D01*
X162651000Y-112216250D01*
X162809750Y-112375000D01*
X163550309Y-112375000D01*
X163783698Y-112278327D01*
X163962327Y-112099699D01*
X164059000Y-111866310D01*
X164059000Y-111410750D01*
X163900250Y-111252000D01*
X162651000Y-111252000D01*
X162397000Y-111252000D01*
X162377000Y-111252000D01*
X162377000Y-110998000D01*
X162397000Y-110998000D01*
X162397000Y-110033750D01*
X162651000Y-110033750D01*
X162651000Y-110998000D01*
X163900250Y-110998000D01*
X164059000Y-110839250D01*
X164059000Y-110383690D01*
X163962327Y-110150301D01*
X163783698Y-109971673D01*
X163550309Y-109875000D01*
X162809750Y-109875000D01*
X162651000Y-110033750D01*
X162397000Y-110033750D01*
X162238250Y-109875000D01*
X162126200Y-109875000D01*
X162126200Y-106349800D01*
X162068348Y-106058961D01*
X161903601Y-105812399D01*
X158395701Y-102304499D01*
X158149139Y-102139752D01*
X157888857Y-102087978D01*
X157911166Y-102034251D01*
X157911634Y-101498699D01*
X157707119Y-101003735D01*
X157465716Y-100761910D01*
X157705788Y-100522257D01*
X157911166Y-100027651D01*
X157911634Y-99492099D01*
X157707119Y-98997135D01*
X157328757Y-98618112D01*
X157094409Y-98520802D01*
X157265773Y-98449821D01*
X157328990Y-98212895D01*
X156565200Y-97449105D01*
X155801410Y-98212895D01*
X155864627Y-98449821D01*
X156049654Y-98515128D01*
X155803635Y-98616781D01*
X155424612Y-98995143D01*
X155219234Y-99489749D01*
X155218766Y-100025301D01*
X155423281Y-100520265D01*
X155664684Y-100762090D01*
X155424612Y-101001743D01*
X155417023Y-101020021D01*
X154855359Y-100458357D01*
X154888440Y-100295000D01*
X154888440Y-99295000D01*
X154844162Y-99059683D01*
X154705090Y-98843559D01*
X154492890Y-98698569D01*
X154241000Y-98647560D01*
X152641000Y-98647560D01*
X152536440Y-98667234D01*
X152536440Y-97589400D01*
X152492162Y-97354083D01*
X152353090Y-97137959D01*
X152259403Y-97073945D01*
X155206628Y-97073945D01*
X155235207Y-97608733D01*
X155384879Y-97970073D01*
X155621805Y-98033290D01*
X156385595Y-97269500D01*
X156744805Y-97269500D01*
X157508595Y-98033290D01*
X157745521Y-97970073D01*
X157923772Y-97465055D01*
X157895193Y-96930267D01*
X157745521Y-96568927D01*
X157508595Y-96505710D01*
X156744805Y-97269500D01*
X156385595Y-97269500D01*
X155621805Y-96505710D01*
X155384879Y-96568927D01*
X155206628Y-97073945D01*
X152259403Y-97073945D01*
X152140890Y-96992969D01*
X151889000Y-96941960D01*
X150589000Y-96941960D01*
X150353683Y-96986238D01*
X150137559Y-97125310D01*
X150136610Y-97126699D01*
X149940890Y-96992969D01*
X149689000Y-96941960D01*
X148389000Y-96941960D01*
X148153683Y-96986238D01*
X147937559Y-97125310D01*
X147792569Y-97337510D01*
X147741560Y-97589400D01*
X147741560Y-98671530D01*
X147546299Y-98801999D01*
X147208807Y-99139491D01*
X147054161Y-99170252D01*
X146807599Y-99334999D01*
X146642852Y-99581561D01*
X146641176Y-99589986D01*
X146449059Y-99713610D01*
X146304069Y-99925810D01*
X146253060Y-100177700D01*
X146253060Y-100787300D01*
X146284970Y-100956886D01*
X146265500Y-101003891D01*
X146265500Y-101149250D01*
X146424250Y-101308000D01*
X146537774Y-101308000D01*
X146648610Y-101383731D01*
X146900500Y-101434740D01*
X147492000Y-101434740D01*
X147492000Y-101435260D01*
X146900500Y-101435260D01*
X146665183Y-101479538D01*
X146537033Y-101562000D01*
X146424250Y-101562000D01*
X146386726Y-101599524D01*
X145838000Y-101050798D01*
X145845931Y-101039190D01*
X145896940Y-100787300D01*
X145896940Y-100177700D01*
X145852662Y-99942383D01*
X145713590Y-99726259D01*
X145501390Y-99581269D01*
X145249500Y-99530260D01*
X144360500Y-99530260D01*
X144338067Y-99534481D01*
X144288701Y-99460599D01*
X144057311Y-99305989D01*
X144049162Y-99262683D01*
X143910090Y-99046559D01*
X143697890Y-98901569D01*
X143446000Y-98850560D01*
X142602242Y-98850560D01*
X144551002Y-96901800D01*
X149386600Y-96901800D01*
X149677439Y-96843948D01*
X149924001Y-96679201D01*
X150277097Y-96326105D01*
X155801410Y-96326105D01*
X156565200Y-97089895D01*
X157328990Y-96326105D01*
X157265773Y-96089179D01*
X156760755Y-95910928D01*
X156225967Y-95939507D01*
X155864627Y-96089179D01*
X155801410Y-96326105D01*
X150277097Y-96326105D01*
X150774894Y-95828308D01*
X157830398Y-95828308D01*
X158010157Y-96164084D01*
X158860161Y-96501376D01*
X159774538Y-96487711D01*
X160555843Y-96164084D01*
X160735602Y-95828308D01*
X159283000Y-94375705D01*
X157830398Y-95828308D01*
X150774894Y-95828308D01*
X151000801Y-95602401D01*
X151165548Y-95355839D01*
X151223400Y-95065000D01*
X151223400Y-94456000D01*
X151479250Y-94456000D01*
X151638000Y-94297250D01*
X151638000Y-93448000D01*
X151892000Y-93448000D01*
X151892000Y-94297250D01*
X152050750Y-94456000D01*
X152691310Y-94456000D01*
X152924699Y-94359327D01*
X153103327Y-94180698D01*
X153200000Y-93947309D01*
X153200000Y-93773261D01*
X156977724Y-93773261D01*
X156991389Y-94687638D01*
X157315016Y-95468943D01*
X157650792Y-95648702D01*
X159103395Y-94196100D01*
X159462605Y-94196100D01*
X160915208Y-95648702D01*
X161250984Y-95468943D01*
X161588276Y-94618939D01*
X161574611Y-93704562D01*
X161250984Y-92923257D01*
X160915208Y-92743498D01*
X159462605Y-94196100D01*
X159103395Y-94196100D01*
X157650792Y-92743498D01*
X157315016Y-92923257D01*
X156977724Y-93773261D01*
X153200000Y-93773261D01*
X153200000Y-93606750D01*
X153041250Y-93448000D01*
X151892000Y-93448000D01*
X151638000Y-93448000D01*
X151618000Y-93448000D01*
X151618000Y-93194000D01*
X151638000Y-93194000D01*
X151638000Y-92344750D01*
X151892000Y-92344750D01*
X151892000Y-93194000D01*
X153041250Y-93194000D01*
X153200000Y-93035250D01*
X153200000Y-92694691D01*
X153145822Y-92563892D01*
X157830398Y-92563892D01*
X159283000Y-94016495D01*
X160683344Y-92616150D01*
X162344000Y-92616150D01*
X162344000Y-92956709D01*
X162440673Y-93190098D01*
X162619301Y-93368727D01*
X162852690Y-93465400D01*
X163493250Y-93465400D01*
X163652000Y-93306650D01*
X163652000Y-92457400D01*
X163906000Y-92457400D01*
X163906000Y-93306650D01*
X164064750Y-93465400D01*
X164705310Y-93465400D01*
X164938699Y-93368727D01*
X165117327Y-93190098D01*
X165214000Y-92956709D01*
X165214000Y-92616150D01*
X165055250Y-92457400D01*
X163906000Y-92457400D01*
X163652000Y-92457400D01*
X162502750Y-92457400D01*
X162344000Y-92616150D01*
X160683344Y-92616150D01*
X160735602Y-92563892D01*
X160555843Y-92228116D01*
X159705839Y-91890824D01*
X158791462Y-91904489D01*
X158010157Y-92228116D01*
X157830398Y-92563892D01*
X153145822Y-92563892D01*
X153103327Y-92461302D01*
X152924699Y-92282673D01*
X152691310Y-92186000D01*
X152050750Y-92186000D01*
X151892000Y-92344750D01*
X151638000Y-92344750D01*
X151479250Y-92186000D01*
X150838690Y-92186000D01*
X150761216Y-92218091D01*
X150732162Y-92063683D01*
X150617641Y-91885713D01*
X150682431Y-91790890D01*
X150733440Y-91539000D01*
X150733440Y-91421548D01*
X150965000Y-91468440D01*
X152565000Y-91468440D01*
X152800317Y-91424162D01*
X153016441Y-91285090D01*
X153020772Y-91278750D01*
X160132000Y-91278750D01*
X160132000Y-91469309D01*
X160228673Y-91702698D01*
X160407301Y-91881327D01*
X160640690Y-91978000D01*
X161131250Y-91978000D01*
X161290000Y-91819250D01*
X161290000Y-91120000D01*
X161544000Y-91120000D01*
X161544000Y-91819250D01*
X161702750Y-91978000D01*
X162193310Y-91978000D01*
X162344000Y-91915582D01*
X162344000Y-92044650D01*
X162502750Y-92203400D01*
X163652000Y-92203400D01*
X163652000Y-91354150D01*
X163906000Y-91354150D01*
X163906000Y-92203400D01*
X165055250Y-92203400D01*
X165214000Y-92044650D01*
X165214000Y-91704091D01*
X165117327Y-91470702D01*
X164938699Y-91292073D01*
X164705310Y-91195400D01*
X164064750Y-91195400D01*
X163906000Y-91354150D01*
X163652000Y-91354150D01*
X163493250Y-91195400D01*
X162852690Y-91195400D01*
X162687199Y-91263949D01*
X162543250Y-91120000D01*
X161544000Y-91120000D01*
X161290000Y-91120000D01*
X160290750Y-91120000D01*
X160132000Y-91278750D01*
X153020772Y-91278750D01*
X153161431Y-91072890D01*
X153173126Y-91015139D01*
X153280554Y-90943358D01*
X153342340Y-90955870D01*
X155841700Y-90955870D01*
X156077017Y-90911592D01*
X156293141Y-90772520D01*
X156438131Y-90560320D01*
X156489140Y-90308430D01*
X156489140Y-89932741D01*
X156497599Y-89945401D01*
X156692860Y-90075870D01*
X156692860Y-90308430D01*
X156737138Y-90543747D01*
X156876210Y-90759871D01*
X157088410Y-90904861D01*
X157340300Y-90955870D01*
X159839660Y-90955870D01*
X160074977Y-90911592D01*
X160234008Y-90809258D01*
X160290750Y-90866000D01*
X161290000Y-90866000D01*
X161290000Y-90846000D01*
X161544000Y-90846000D01*
X161544000Y-90866000D01*
X162543250Y-90866000D01*
X162702000Y-90707250D01*
X162702000Y-90516691D01*
X162640174Y-90367430D01*
X162727110Y-90426831D01*
X162979000Y-90477840D01*
X164579000Y-90477840D01*
X164814317Y-90433562D01*
X165030441Y-90294490D01*
X165175431Y-90082290D01*
X165226440Y-89830400D01*
X165226440Y-88830400D01*
X165182162Y-88595083D01*
X165043090Y-88378959D01*
X164830890Y-88233969D01*
X164579000Y-88182960D01*
X162979000Y-88182960D01*
X162743683Y-88227238D01*
X162564072Y-88342815D01*
X162531090Y-88291559D01*
X162318890Y-88146569D01*
X162067000Y-88095560D01*
X160767000Y-88095560D01*
X160531683Y-88139838D01*
X160408586Y-88219049D01*
X160303750Y-88056129D01*
X160091550Y-87911139D01*
X159839660Y-87860130D01*
X157340300Y-87860130D01*
X157104983Y-87904408D01*
X157049508Y-87940106D01*
X156160442Y-87051040D01*
X156619600Y-87051040D01*
X156854917Y-87006762D01*
X157071041Y-86867690D01*
X157216031Y-86655490D01*
X157267040Y-86403600D01*
X157267040Y-84676400D01*
X157241125Y-84538672D01*
X162178538Y-84538672D01*
X162583709Y-85519261D01*
X163333293Y-86270155D01*
X164313173Y-86677036D01*
X165374172Y-86677962D01*
X166354761Y-86272791D01*
X167105655Y-85523207D01*
X167512536Y-84543327D01*
X167513462Y-83482328D01*
X167108291Y-82501739D01*
X166358707Y-81750845D01*
X165378827Y-81343964D01*
X164317828Y-81343038D01*
X163337239Y-81748209D01*
X162586345Y-82497793D01*
X162179464Y-83477673D01*
X162178538Y-84538672D01*
X157241125Y-84538672D01*
X157222762Y-84441083D01*
X157083690Y-84224959D01*
X156871490Y-84079969D01*
X156777625Y-84060961D01*
X157038688Y-83774947D01*
X157210958Y-83359026D01*
X157089817Y-83127000D01*
X155883000Y-83127000D01*
X155883000Y-83147000D01*
X155629000Y-83147000D01*
X155629000Y-83127000D01*
X155609000Y-83127000D01*
X155609000Y-82873000D01*
X155629000Y-82873000D01*
X155629000Y-81665531D01*
X155883000Y-81665531D01*
X155883000Y-82873000D01*
X157089817Y-82873000D01*
X157210958Y-82640974D01*
X157038688Y-82225053D01*
X156644490Y-81793179D01*
X156115027Y-81545032D01*
X155883000Y-81665531D01*
X155629000Y-81665531D01*
X155396973Y-81545032D01*
X154867510Y-81793179D01*
X154485992Y-82211161D01*
X154305029Y-81940330D01*
X153818848Y-81615474D01*
X153245359Y-81501400D01*
X153186641Y-81501400D01*
X152613152Y-81615474D01*
X152126971Y-81940330D01*
X151946000Y-82211172D01*
X151765029Y-81940330D01*
X151278848Y-81615474D01*
X150705359Y-81501400D01*
X150646641Y-81501400D01*
X150073152Y-81615474D01*
X149586971Y-81940330D01*
X149406000Y-82211172D01*
X149225029Y-81940330D01*
X148738848Y-81615474D01*
X148165359Y-81501400D01*
X148106641Y-81501400D01*
X147533152Y-81615474D01*
X147046971Y-81940330D01*
X146866000Y-82211172D01*
X146685029Y-81940330D01*
X146198848Y-81615474D01*
X145625359Y-81501400D01*
X145566641Y-81501400D01*
X144993152Y-81615474D01*
X144506971Y-81940330D01*
X144326000Y-82211172D01*
X144145029Y-81940330D01*
X143658848Y-81615474D01*
X143085359Y-81501400D01*
X143026641Y-81501400D01*
X142453152Y-81615474D01*
X141966971Y-81940330D01*
X141786000Y-82211172D01*
X141605029Y-81940330D01*
X141118848Y-81615474D01*
X140545359Y-81501400D01*
X140486641Y-81501400D01*
X139913152Y-81615474D01*
X139426971Y-81940330D01*
X139246000Y-82211172D01*
X139065029Y-81940330D01*
X138578848Y-81615474D01*
X138005359Y-81501400D01*
X137946641Y-81501400D01*
X137373152Y-81615474D01*
X136886971Y-81940330D01*
X136562115Y-82426511D01*
X136448041Y-83000000D01*
X136562115Y-83573489D01*
X136886971Y-84059670D01*
X137201752Y-84270000D01*
X136886971Y-84480330D01*
X136562115Y-84966511D01*
X136448041Y-85540000D01*
X136562115Y-86113489D01*
X136886971Y-86599670D01*
X137373152Y-86924526D01*
X137946641Y-87038600D01*
X138005359Y-87038600D01*
X138578848Y-86924526D01*
X139065029Y-86599670D01*
X139246000Y-86328828D01*
X139426971Y-86599670D01*
X139913152Y-86924526D01*
X140486641Y-87038600D01*
X140545359Y-87038600D01*
X141118848Y-86924526D01*
X141605029Y-86599670D01*
X141786000Y-86328828D01*
X141966971Y-86599670D01*
X142453152Y-86924526D01*
X143026641Y-87038600D01*
X143085359Y-87038600D01*
X143658848Y-86924526D01*
X144145029Y-86599670D01*
X144326000Y-86328828D01*
X144506971Y-86599670D01*
X144993152Y-86924526D01*
X145566641Y-87038600D01*
X145625359Y-87038600D01*
X146198848Y-86924526D01*
X146685029Y-86599670D01*
X146866000Y-86328828D01*
X147046971Y-86599670D01*
X147533152Y-86924526D01*
X148106641Y-87038600D01*
X148165359Y-87038600D01*
X148738848Y-86924526D01*
X149225029Y-86599670D01*
X149406000Y-86328828D01*
X149586971Y-86599670D01*
X150073152Y-86924526D01*
X150646641Y-87038600D01*
X150705359Y-87038600D01*
X151278848Y-86924526D01*
X151765029Y-86599670D01*
X151946000Y-86328828D01*
X152126971Y-86599670D01*
X152613152Y-86924526D01*
X153186641Y-87038600D01*
X153245359Y-87038600D01*
X153818848Y-86924526D01*
X153872298Y-86888812D01*
X153919999Y-86960201D01*
X154819928Y-87860130D01*
X153342340Y-87860130D01*
X153107023Y-87904408D01*
X152890899Y-88043480D01*
X152745909Y-88255680D01*
X152694900Y-88507570D01*
X152694900Y-88740103D01*
X152499599Y-88870599D01*
X152332899Y-89037299D01*
X152241853Y-89173560D01*
X150965000Y-89173560D01*
X150845546Y-89196037D01*
X150733440Y-89121130D01*
X150733440Y-88039000D01*
X150689162Y-87803683D01*
X150550090Y-87587559D01*
X150337890Y-87442569D01*
X150086000Y-87391560D01*
X148786000Y-87391560D01*
X148550683Y-87435838D01*
X148334559Y-87574910D01*
X148333610Y-87576299D01*
X148137890Y-87442569D01*
X147886000Y-87391560D01*
X146586000Y-87391560D01*
X146350683Y-87435838D01*
X146134559Y-87574910D01*
X145989569Y-87787110D01*
X145938560Y-88039000D01*
X145938560Y-89029000D01*
X145630400Y-89029000D01*
X145339561Y-89086852D01*
X145092999Y-89251599D01*
X144623599Y-89720999D01*
X144458852Y-89967561D01*
X144457176Y-89975986D01*
X144265059Y-90099610D01*
X144120069Y-90311810D01*
X144069060Y-90563700D01*
X144069060Y-91173300D01*
X144100970Y-91342886D01*
X144087619Y-91375117D01*
X143712940Y-91000438D01*
X143712940Y-90563700D01*
X143668662Y-90328383D01*
X143529590Y-90112259D01*
X143317390Y-89967269D01*
X143065500Y-89916260D01*
X142176500Y-89916260D01*
X141941183Y-89960538D01*
X141909440Y-89980964D01*
X141909440Y-89948000D01*
X141865162Y-89712683D01*
X141726090Y-89496559D01*
X141513890Y-89351569D01*
X141262000Y-89300560D01*
X139662000Y-89300560D01*
X139426683Y-89344838D01*
X139210559Y-89483910D01*
X139065569Y-89696110D01*
X139014560Y-89948000D01*
X139014560Y-90948000D01*
X139058838Y-91183317D01*
X139095699Y-91240600D01*
X136034460Y-91240600D01*
X136034460Y-90839720D01*
X135990182Y-90604403D01*
X135851110Y-90388279D01*
X135638910Y-90243289D01*
X135387020Y-90192280D01*
X133157020Y-90192280D01*
X132921703Y-90236558D01*
X132705579Y-90375630D01*
X132560589Y-90587830D01*
X132509580Y-90839720D01*
X132509580Y-91034000D01*
X131626800Y-91034000D01*
X131486929Y-91061822D01*
X131253540Y-91014560D01*
X130301130Y-91014560D01*
X130301162Y-90977733D01*
X130264039Y-90887887D01*
X130329327Y-90822599D01*
X130426000Y-90589210D01*
X130426000Y-90248650D01*
X130267250Y-90089900D01*
X129418000Y-90089900D01*
X129418000Y-90109900D01*
X129164000Y-90109900D01*
X129164000Y-90089900D01*
X129144000Y-90089900D01*
X129144000Y-89835900D01*
X129164000Y-89835900D01*
X129164000Y-88986650D01*
X129418000Y-88986650D01*
X129418000Y-89835900D01*
X130267250Y-89835900D01*
X130426000Y-89677150D01*
X130426000Y-89336590D01*
X130329327Y-89103201D01*
X130150698Y-88924573D01*
X129917309Y-88827900D01*
X129576750Y-88827900D01*
X129418000Y-88986650D01*
X129164000Y-88986650D01*
X129005250Y-88827900D01*
X128664691Y-88827900D01*
X128431302Y-88924573D01*
X128252673Y-89103201D01*
X128156000Y-89336590D01*
X128156000Y-89433441D01*
X128042678Y-89337898D01*
X127618000Y-89202900D01*
X127343000Y-89202900D01*
X127089000Y-89202900D01*
X126814000Y-89202900D01*
X126389322Y-89337898D01*
X126048632Y-89625137D01*
X125846881Y-90036026D01*
X125170000Y-90036026D01*
X125170000Y-84538672D01*
X126618538Y-84538672D01*
X127023709Y-85519261D01*
X127773293Y-86270155D01*
X128753173Y-86677036D01*
X129814172Y-86677962D01*
X130794761Y-86272791D01*
X131545655Y-85523207D01*
X131952536Y-84543327D01*
X131953462Y-83482328D01*
X131548291Y-82501739D01*
X130798707Y-81750845D01*
X129818827Y-81343964D01*
X128757828Y-81343038D01*
X127777239Y-81748209D01*
X127026345Y-82497793D01*
X126619464Y-83477673D01*
X126618538Y-84538672D01*
X125170000Y-84538672D01*
X125170000Y-84397931D01*
X125515498Y-82660995D01*
X126459779Y-81247779D01*
X127872997Y-80303498D01*
X129609931Y-79958000D01*
X164522069Y-79958000D01*
X166259005Y-80303498D01*
X166259005Y-80303498D01*
G37*
X166259005Y-80303498D02*
X167672221Y-81247779D01*
X168616502Y-82660997D01*
X168962000Y-84397931D01*
X168962000Y-119310069D01*
X168616502Y-121047003D01*
X167672221Y-122460221D01*
X166259005Y-123404502D01*
X164522069Y-123750000D01*
X162658545Y-123750000D01*
X127788496Y-123348040D01*
X126459779Y-122460221D01*
X125515498Y-121047005D01*
X125326764Y-120098172D01*
X126618538Y-120098172D01*
X127023709Y-121078761D01*
X127773293Y-121829655D01*
X128753173Y-122236536D01*
X129814172Y-122237462D01*
X130794761Y-121832291D01*
X131545655Y-121082707D01*
X131628984Y-120882026D01*
X136467042Y-120882026D01*
X136639312Y-121297947D01*
X137033510Y-121729821D01*
X137562973Y-121977968D01*
X137795000Y-121857469D01*
X137795000Y-120650000D01*
X136588183Y-120650000D01*
X136467042Y-120882026D01*
X131628984Y-120882026D01*
X131952536Y-120102827D01*
X131953462Y-119041828D01*
X131548291Y-118061239D01*
X130798707Y-117310345D01*
X129818827Y-116903464D01*
X128757828Y-116902538D01*
X127777239Y-117307709D01*
X127026345Y-118057293D01*
X126619464Y-119037173D01*
X126618538Y-120098172D01*
X125326764Y-120098172D01*
X125186898Y-119395020D01*
X125170000Y-117446133D01*
X125170000Y-115054750D01*
X126105430Y-115054750D01*
X126105430Y-115419819D01*
X126202103Y-115653208D01*
X126380731Y-115831837D01*
X126614120Y-115928510D01*
X127205250Y-115928510D01*
X127364000Y-115769760D01*
X127364000Y-114896000D01*
X127618000Y-114896000D01*
X127618000Y-115769760D01*
X127776750Y-115928510D01*
X128367880Y-115928510D01*
X128601269Y-115831837D01*
X128779897Y-115653208D01*
X128876570Y-115419819D01*
X128876570Y-115054750D01*
X128717820Y-114896000D01*
X127618000Y-114896000D01*
X127364000Y-114896000D01*
X126264180Y-114896000D01*
X126105430Y-115054750D01*
X125170000Y-115054750D01*
X125170000Y-114118181D01*
X126105430Y-114118181D01*
X126105430Y-114483250D01*
X126264180Y-114642000D01*
X127364000Y-114642000D01*
X127364000Y-113768240D01*
X127618000Y-113768240D01*
X127618000Y-114642000D01*
X128717820Y-114642000D01*
X128876570Y-114483250D01*
X128876570Y-114118181D01*
X128779897Y-113884792D01*
X128649856Y-113754750D01*
X135580430Y-113754750D01*
X135580430Y-114119819D01*
X135677103Y-114353208D01*
X135855731Y-114531837D01*
X136089120Y-114628510D01*
X136680250Y-114628510D01*
X136839000Y-114469760D01*
X136839000Y-113596000D01*
X137093000Y-113596000D01*
X137093000Y-114469760D01*
X137251750Y-114628510D01*
X137842880Y-114628510D01*
X138076269Y-114531837D01*
X138254897Y-114353208D01*
X138351570Y-114119819D01*
X138351570Y-113754750D01*
X138192820Y-113596000D01*
X137093000Y-113596000D01*
X136839000Y-113596000D01*
X135739180Y-113596000D01*
X135580430Y-113754750D01*
X128649856Y-113754750D01*
X128601269Y-113706163D01*
X128367880Y-113609490D01*
X127776750Y-113609490D01*
X127618000Y-113768240D01*
X127364000Y-113768240D01*
X127205250Y-113609490D01*
X126614120Y-113609490D01*
X126380731Y-113706163D01*
X126202103Y-113884792D01*
X126105430Y-114118181D01*
X125170000Y-114118181D01*
X125170000Y-112818181D01*
X135580430Y-112818181D01*
X135580430Y-113183250D01*
X135739180Y-113342000D01*
X136839000Y-113342000D01*
X136839000Y-112468240D01*
X137093000Y-112468240D01*
X137093000Y-113342000D01*
X138192820Y-113342000D01*
X138351570Y-113183250D01*
X138351570Y-112986750D01*
X141516000Y-112986750D01*
X141516000Y-113327309D01*
X141612673Y-113560698D01*
X141791301Y-113739327D01*
X142024690Y-113836000D01*
X142665250Y-113836000D01*
X142824000Y-113677250D01*
X142824000Y-112828000D01*
X141674750Y-112828000D01*
X141516000Y-112986750D01*
X138351570Y-112986750D01*
X138351570Y-112818181D01*
X138254897Y-112584792D01*
X138076269Y-112406163D01*
X137842880Y-112309490D01*
X137251750Y-112309490D01*
X137093000Y-112468240D01*
X136839000Y-112468240D01*
X136680250Y-112309490D01*
X136089120Y-112309490D01*
X135855731Y-112406163D01*
X135677103Y-112584792D01*
X135580430Y-112818181D01*
X125170000Y-112818181D01*
X125170000Y-112074691D01*
X141516000Y-112074691D01*
X141516000Y-112415250D01*
X141674750Y-112574000D01*
X142824000Y-112574000D01*
X142824000Y-111724750D01*
X142665250Y-111566000D01*
X142024690Y-111566000D01*
X141791301Y-111662673D01*
X141612673Y-111841302D01*
X141516000Y-112074691D01*
X125170000Y-112074691D01*
X125170000Y-99004750D01*
X126105430Y-99004750D01*
X126105430Y-99369819D01*
X126202103Y-99603208D01*
X126380731Y-99781837D01*
X126614120Y-99878510D01*
X127205250Y-99878510D01*
X127364000Y-99719760D01*
X127364000Y-98846000D01*
X127618000Y-98846000D01*
X127618000Y-99719760D01*
X127776750Y-99878510D01*
X128367880Y-99878510D01*
X128601269Y-99781837D01*
X128779897Y-99603208D01*
X128876570Y-99369819D01*
X128876570Y-99004750D01*
X128717820Y-98846000D01*
X127618000Y-98846000D01*
X127364000Y-98846000D01*
X126264180Y-98846000D01*
X126105430Y-99004750D01*
X125170000Y-99004750D01*
X125170000Y-98068181D01*
X126105430Y-98068181D01*
X126105430Y-98433250D01*
X126264180Y-98592000D01*
X127364000Y-98592000D01*
X127364000Y-97718240D01*
X127618000Y-97718240D01*
X127618000Y-98592000D01*
X128717820Y-98592000D01*
X128876570Y-98433250D01*
X128876570Y-98068181D01*
X128779897Y-97834792D01*
X128601269Y-97656163D01*
X128367880Y-97559490D01*
X127776750Y-97559490D01*
X127618000Y-97718240D01*
X127364000Y-97718240D01*
X127205250Y-97559490D01*
X126614120Y-97559490D01*
X126380731Y-97656163D01*
X126202103Y-97834792D01*
X126105430Y-98068181D01*
X125170000Y-98068181D01*
X125170000Y-96264774D01*
X125846881Y-96264774D01*
X126048632Y-96675663D01*
X126389322Y-96962902D01*
X126814000Y-97097900D01*
X127089000Y-97097900D01*
X127089000Y-96089900D01*
X125973046Y-96089900D01*
X125846881Y-96264774D01*
X125170000Y-96264774D01*
X125170000Y-94523650D01*
X125631000Y-94523650D01*
X125631000Y-95314210D01*
X125727673Y-95547599D01*
X125861853Y-95681778D01*
X125973046Y-95835900D01*
X127089000Y-95835900D01*
X127089000Y-94364900D01*
X125789750Y-94364900D01*
X125631000Y-94523650D01*
X125170000Y-94523650D01*
X125170000Y-92373650D01*
X125631000Y-92373650D01*
X125631000Y-93952150D01*
X125789750Y-94110900D01*
X127089000Y-94110900D01*
X127089000Y-92214900D01*
X125789750Y-92214900D01*
X125631000Y-92373650D01*
X125170000Y-92373650D01*
X125170000Y-91011590D01*
X125631000Y-91011590D01*
X125631000Y-91802150D01*
X125789750Y-91960900D01*
X127089000Y-91960900D01*
X127089000Y-90464900D01*
X125973046Y-90464900D01*
X125846881Y-90639774D01*
X125853210Y-90652664D01*
X125727673Y-90778201D01*
X125631000Y-91011590D01*
X125170000Y-91011590D01*
X125170000Y-90036026D01*
X125846881Y-90036026D01*
X125973046Y-90210900D01*
X127089000Y-90210900D01*
X127089000Y-89202900D01*
X127343000Y-89202900D01*
X127343000Y-90210900D01*
X127363000Y-90210900D01*
X127363000Y-90464900D01*
X127343000Y-90464900D01*
X127343000Y-91960900D01*
X127363000Y-91960900D01*
X127363000Y-92214900D01*
X127343000Y-92214900D01*
X127343000Y-94110900D01*
X127363000Y-94110900D01*
X127363000Y-94364900D01*
X127343000Y-94364900D01*
X127343000Y-95835900D01*
X127363000Y-95835900D01*
X127363000Y-96089900D01*
X127343000Y-96089900D01*
X127343000Y-97097900D01*
X127618000Y-97097900D01*
X128042678Y-96962902D01*
X128156000Y-96867359D01*
X128156000Y-96989210D01*
X128252673Y-97222599D01*
X128431302Y-97401227D01*
X128664691Y-97497900D01*
X129005250Y-97497900D01*
X129164000Y-97339150D01*
X129164000Y-96489900D01*
X129418000Y-96489900D01*
X129418000Y-97339150D01*
X129576750Y-97497900D01*
X129917309Y-97497900D01*
X130150698Y-97401227D01*
X130329327Y-97222599D01*
X130426000Y-96989210D01*
X130426000Y-96648650D01*
X130267250Y-96489900D01*
X129418000Y-96489900D01*
X129164000Y-96489900D01*
X129144000Y-96489900D01*
X129144000Y-96235900D01*
X129164000Y-96235900D01*
X129164000Y-96215900D01*
X129418000Y-96215900D01*
X129418000Y-96235900D01*
X130267250Y-96235900D01*
X130426000Y-96077150D01*
X130426000Y-95736590D01*
X130329327Y-95503201D01*
X130264158Y-95438033D01*
X130300838Y-95349699D01*
X130300884Y-95297000D01*
X130330542Y-95297000D01*
X130330542Y-95138252D01*
X130489290Y-95297000D01*
X131379849Y-95297000D01*
X131613238Y-95200327D01*
X131791867Y-95021699D01*
X131823442Y-94945470D01*
X132522020Y-94945470D01*
X132522020Y-95686029D01*
X132618693Y-95919418D01*
X132797321Y-96098047D01*
X133030710Y-96194720D01*
X133986270Y-96194720D01*
X134145020Y-96035970D01*
X134145020Y-94786720D01*
X132680770Y-94786720D01*
X132522020Y-94945470D01*
X131823442Y-94945470D01*
X131888540Y-94788310D01*
X131888540Y-94720750D01*
X131729790Y-94562000D01*
X131585057Y-94562000D01*
X131613238Y-94550327D01*
X131791867Y-94371699D01*
X131842620Y-94249170D01*
X131888540Y-94203250D01*
X131888540Y-94165756D01*
X131918601Y-94178238D01*
X132290567Y-94178562D01*
X132522020Y-94082928D01*
X132522020Y-94373970D01*
X132680770Y-94532720D01*
X134145020Y-94532720D01*
X134145020Y-94512720D01*
X134399020Y-94512720D01*
X134399020Y-94532720D01*
X134419020Y-94532720D01*
X134419020Y-94786720D01*
X134399020Y-94786720D01*
X134399020Y-96035970D01*
X134557770Y-96194720D01*
X135121600Y-96194720D01*
X135121600Y-108243700D01*
X135179452Y-108534539D01*
X135344199Y-108781101D01*
X136801499Y-110238401D01*
X137048060Y-110403148D01*
X137080004Y-110409502D01*
X137338900Y-110461000D01*
X141563721Y-110461000D01*
X141686910Y-110652441D01*
X141899110Y-110797431D01*
X142151000Y-110848440D01*
X143751000Y-110848440D01*
X143929264Y-110814897D01*
X143942360Y-110823648D01*
X144053876Y-110845830D01*
X144074410Y-110877741D01*
X144280014Y-111018224D01*
X144280852Y-111022439D01*
X144340386Y-111111538D01*
X144303183Y-111118538D01*
X144087059Y-111257610D01*
X143942069Y-111469810D01*
X143919086Y-111583304D01*
X143877310Y-111566000D01*
X143236750Y-111566000D01*
X143078000Y-111724750D01*
X143078000Y-112574000D01*
X143098000Y-112574000D01*
X143098000Y-112828000D01*
X143078000Y-112828000D01*
X143078000Y-113677250D01*
X143236750Y-113836000D01*
X143877310Y-113836000D01*
X144110699Y-113739327D01*
X144289327Y-113560698D01*
X144386000Y-113327309D01*
X144386000Y-113084805D01*
X144445599Y-113174001D01*
X145925999Y-114654401D01*
X146172561Y-114819148D01*
X146463400Y-114877000D01*
X148160243Y-114877000D01*
X148186910Y-114918441D01*
X148399110Y-115063431D01*
X148651000Y-115114440D01*
X149951000Y-115114440D01*
X150186317Y-115070162D01*
X150317457Y-114985775D01*
X150431110Y-115063431D01*
X150683000Y-115114440D01*
X150762558Y-115114440D01*
X150051598Y-115825400D01*
X145235800Y-115825400D01*
X144944961Y-115883252D01*
X144698399Y-116047999D01*
X143930398Y-116816000D01*
X143604848Y-116598474D01*
X143031359Y-116484400D01*
X142972641Y-116484400D01*
X142399152Y-116598474D01*
X141912971Y-116923330D01*
X141732000Y-117194172D01*
X141551029Y-116923330D01*
X141064848Y-116598474D01*
X140491359Y-116484400D01*
X140432641Y-116484400D01*
X139859152Y-116598474D01*
X139393558Y-116909574D01*
X139388762Y-116884083D01*
X139249690Y-116667959D01*
X139037490Y-116522969D01*
X138785600Y-116471960D01*
X137058400Y-116471960D01*
X136823083Y-116516238D01*
X136606959Y-116655310D01*
X136461969Y-116867510D01*
X136410960Y-117119400D01*
X136410960Y-118846600D01*
X136455238Y-119081917D01*
X136594310Y-119298041D01*
X136806510Y-119443031D01*
X136900375Y-119462039D01*
X136639312Y-119748053D01*
X136467042Y-120163974D01*
X136588183Y-120396000D01*
X137795000Y-120396000D01*
X137795000Y-120376000D01*
X138049000Y-120376000D01*
X138049000Y-120396000D01*
X138069000Y-120396000D01*
X138069000Y-120650000D01*
X138049000Y-120650000D01*
X138049000Y-121857469D01*
X138281027Y-121977968D01*
X138810490Y-121729821D01*
X139192008Y-121311839D01*
X139372971Y-121582670D01*
X139859152Y-121907526D01*
X140432641Y-122021600D01*
X140491359Y-122021600D01*
X141064848Y-121907526D01*
X141551029Y-121582670D01*
X141732000Y-121311828D01*
X141912971Y-121582670D01*
X142399152Y-121907526D01*
X142972641Y-122021600D01*
X143031359Y-122021600D01*
X143604848Y-121907526D01*
X144091029Y-121582670D01*
X144272000Y-121311828D01*
X144452971Y-121582670D01*
X144939152Y-121907526D01*
X145512641Y-122021600D01*
X145571359Y-122021600D01*
X146144848Y-121907526D01*
X146631029Y-121582670D01*
X146812000Y-121311828D01*
X146992971Y-121582670D01*
X147479152Y-121907526D01*
X148052641Y-122021600D01*
X148111359Y-122021600D01*
X148684848Y-121907526D01*
X149171029Y-121582670D01*
X149352000Y-121311828D01*
X149532971Y-121582670D01*
X150019152Y-121907526D01*
X150592641Y-122021600D01*
X150651359Y-122021600D01*
X151224848Y-121907526D01*
X151711029Y-121582670D01*
X151892000Y-121311828D01*
X152072971Y-121582670D01*
X152559152Y-121907526D01*
X153132641Y-122021600D01*
X153191359Y-122021600D01*
X153764848Y-121907526D01*
X154251029Y-121582670D01*
X154432000Y-121311828D01*
X154612971Y-121582670D01*
X155099152Y-121907526D01*
X155672641Y-122021600D01*
X155731359Y-122021600D01*
X156304848Y-121907526D01*
X156791029Y-121582670D01*
X157115885Y-121096489D01*
X157229959Y-120523000D01*
X157145456Y-120098172D01*
X162114538Y-120098172D01*
X162519709Y-121078761D01*
X163269293Y-121829655D01*
X164249173Y-122236536D01*
X165310172Y-122237462D01*
X166290761Y-121832291D01*
X167041655Y-121082707D01*
X167448536Y-120102827D01*
X167449462Y-119041828D01*
X167044291Y-118061239D01*
X166294707Y-117310345D01*
X165314827Y-116903464D01*
X164253828Y-116902538D01*
X163273239Y-117307709D01*
X162522345Y-118057293D01*
X162115464Y-119037173D01*
X162114538Y-120098172D01*
X157145456Y-120098172D01*
X157115885Y-119949511D01*
X156855133Y-119559269D01*
X162005201Y-114409201D01*
X162169948Y-114162639D01*
X162227800Y-113871800D01*
X162227800Y-112375000D01*
X162238250Y-112375000D01*
X162397000Y-112216250D01*
X162397000Y-111252000D01*
X162651000Y-111252000D01*
X162651000Y-112216250D01*
X162809750Y-112375000D01*
X163550309Y-112375000D01*
X163783698Y-112278327D01*
X163962327Y-112099699D01*
X164059000Y-111866310D01*
X164059000Y-111410750D01*
X163900250Y-111252000D01*
X162651000Y-111252000D01*
X162397000Y-111252000D01*
X162377000Y-111252000D01*
X162377000Y-110998000D01*
X162397000Y-110998000D01*
X162397000Y-110033750D01*
X162651000Y-110033750D01*
X162651000Y-110998000D01*
X163900250Y-110998000D01*
X164059000Y-110839250D01*
X164059000Y-110383690D01*
X163962327Y-110150301D01*
X163783698Y-109971673D01*
X163550309Y-109875000D01*
X162809750Y-109875000D01*
X162651000Y-110033750D01*
X162397000Y-110033750D01*
X162238250Y-109875000D01*
X162126200Y-109875000D01*
X162126200Y-106349800D01*
X162068348Y-106058961D01*
X161903601Y-105812399D01*
X158395701Y-102304499D01*
X158149139Y-102139752D01*
X157888857Y-102087978D01*
X157911166Y-102034251D01*
X157911634Y-101498699D01*
X157707119Y-101003735D01*
X157465716Y-100761910D01*
X157705788Y-100522257D01*
X157911166Y-100027651D01*
X157911634Y-99492099D01*
X157707119Y-98997135D01*
X157328757Y-98618112D01*
X157094409Y-98520802D01*
X157265773Y-98449821D01*
X157328990Y-98212895D01*
X156565200Y-97449105D01*
X155801410Y-98212895D01*
X155864627Y-98449821D01*
X156049654Y-98515128D01*
X155803635Y-98616781D01*
X155424612Y-98995143D01*
X155219234Y-99489749D01*
X155218766Y-100025301D01*
X155423281Y-100520265D01*
X155664684Y-100762090D01*
X155424612Y-101001743D01*
X155417023Y-101020021D01*
X154855359Y-100458357D01*
X154888440Y-100295000D01*
X154888440Y-99295000D01*
X154844162Y-99059683D01*
X154705090Y-98843559D01*
X154492890Y-98698569D01*
X154241000Y-98647560D01*
X152641000Y-98647560D01*
X152536440Y-98667234D01*
X152536440Y-97589400D01*
X152492162Y-97354083D01*
X152353090Y-97137959D01*
X152259403Y-97073945D01*
X155206628Y-97073945D01*
X155235207Y-97608733D01*
X155384879Y-97970073D01*
X155621805Y-98033290D01*
X156385595Y-97269500D01*
X156744805Y-97269500D01*
X157508595Y-98033290D01*
X157745521Y-97970073D01*
X157923772Y-97465055D01*
X157895193Y-96930267D01*
X157745521Y-96568927D01*
X157508595Y-96505710D01*
X156744805Y-97269500D01*
X156385595Y-97269500D01*
X155621805Y-96505710D01*
X155384879Y-96568927D01*
X155206628Y-97073945D01*
X152259403Y-97073945D01*
X152140890Y-96992969D01*
X151889000Y-96941960D01*
X150589000Y-96941960D01*
X150353683Y-96986238D01*
X150137559Y-97125310D01*
X150136610Y-97126699D01*
X149940890Y-96992969D01*
X149689000Y-96941960D01*
X148389000Y-96941960D01*
X148153683Y-96986238D01*
X147937559Y-97125310D01*
X147792569Y-97337510D01*
X147741560Y-97589400D01*
X147741560Y-98671530D01*
X147546299Y-98801999D01*
X147208807Y-99139491D01*
X147054161Y-99170252D01*
X146807599Y-99334999D01*
X146642852Y-99581561D01*
X146641176Y-99589986D01*
X146449059Y-99713610D01*
X146304069Y-99925810D01*
X146253060Y-100177700D01*
X146253060Y-100787300D01*
X146284970Y-100956886D01*
X146265500Y-101003891D01*
X146265500Y-101149250D01*
X146424250Y-101308000D01*
X146537774Y-101308000D01*
X146648610Y-101383731D01*
X146900500Y-101434740D01*
X147492000Y-101434740D01*
X147492000Y-101435260D01*
X146900500Y-101435260D01*
X146665183Y-101479538D01*
X146537033Y-101562000D01*
X146424250Y-101562000D01*
X146386726Y-101599524D01*
X145838000Y-101050798D01*
X145845931Y-101039190D01*
X145896940Y-100787300D01*
X145896940Y-100177700D01*
X145852662Y-99942383D01*
X145713590Y-99726259D01*
X145501390Y-99581269D01*
X145249500Y-99530260D01*
X144360500Y-99530260D01*
X144338067Y-99534481D01*
X144288701Y-99460599D01*
X144057311Y-99305989D01*
X144049162Y-99262683D01*
X143910090Y-99046559D01*
X143697890Y-98901569D01*
X143446000Y-98850560D01*
X142602242Y-98850560D01*
X144551002Y-96901800D01*
X149386600Y-96901800D01*
X149677439Y-96843948D01*
X149924001Y-96679201D01*
X150277097Y-96326105D01*
X155801410Y-96326105D01*
X156565200Y-97089895D01*
X157328990Y-96326105D01*
X157265773Y-96089179D01*
X156760755Y-95910928D01*
X156225967Y-95939507D01*
X155864627Y-96089179D01*
X155801410Y-96326105D01*
X150277097Y-96326105D01*
X150774894Y-95828308D01*
X157830398Y-95828308D01*
X158010157Y-96164084D01*
X158860161Y-96501376D01*
X159774538Y-96487711D01*
X160555843Y-96164084D01*
X160735602Y-95828308D01*
X159283000Y-94375705D01*
X157830398Y-95828308D01*
X150774894Y-95828308D01*
X151000801Y-95602401D01*
X151165548Y-95355839D01*
X151223400Y-95065000D01*
X151223400Y-94456000D01*
X151479250Y-94456000D01*
X151638000Y-94297250D01*
X151638000Y-93448000D01*
X151892000Y-93448000D01*
X151892000Y-94297250D01*
X152050750Y-94456000D01*
X152691310Y-94456000D01*
X152924699Y-94359327D01*
X153103327Y-94180698D01*
X153200000Y-93947309D01*
X153200000Y-93773261D01*
X156977724Y-93773261D01*
X156991389Y-94687638D01*
X157315016Y-95468943D01*
X157650792Y-95648702D01*
X159103395Y-94196100D01*
X159462605Y-94196100D01*
X160915208Y-95648702D01*
X161250984Y-95468943D01*
X161588276Y-94618939D01*
X161574611Y-93704562D01*
X161250984Y-92923257D01*
X160915208Y-92743498D01*
X159462605Y-94196100D01*
X159103395Y-94196100D01*
X157650792Y-92743498D01*
X157315016Y-92923257D01*
X156977724Y-93773261D01*
X153200000Y-93773261D01*
X153200000Y-93606750D01*
X153041250Y-93448000D01*
X151892000Y-93448000D01*
X151638000Y-93448000D01*
X151618000Y-93448000D01*
X151618000Y-93194000D01*
X151638000Y-93194000D01*
X151638000Y-92344750D01*
X151892000Y-92344750D01*
X151892000Y-93194000D01*
X153041250Y-93194000D01*
X153200000Y-93035250D01*
X153200000Y-92694691D01*
X153145822Y-92563892D01*
X157830398Y-92563892D01*
X159283000Y-94016495D01*
X160683344Y-92616150D01*
X162344000Y-92616150D01*
X162344000Y-92956709D01*
X162440673Y-93190098D01*
X162619301Y-93368727D01*
X162852690Y-93465400D01*
X163493250Y-93465400D01*
X163652000Y-93306650D01*
X163652000Y-92457400D01*
X163906000Y-92457400D01*
X163906000Y-93306650D01*
X164064750Y-93465400D01*
X164705310Y-93465400D01*
X164938699Y-93368727D01*
X165117327Y-93190098D01*
X165214000Y-92956709D01*
X165214000Y-92616150D01*
X165055250Y-92457400D01*
X163906000Y-92457400D01*
X163652000Y-92457400D01*
X162502750Y-92457400D01*
X162344000Y-92616150D01*
X160683344Y-92616150D01*
X160735602Y-92563892D01*
X160555843Y-92228116D01*
X159705839Y-91890824D01*
X158791462Y-91904489D01*
X158010157Y-92228116D01*
X157830398Y-92563892D01*
X153145822Y-92563892D01*
X153103327Y-92461302D01*
X152924699Y-92282673D01*
X152691310Y-92186000D01*
X152050750Y-92186000D01*
X151892000Y-92344750D01*
X151638000Y-92344750D01*
X151479250Y-92186000D01*
X150838690Y-92186000D01*
X150761216Y-92218091D01*
X150732162Y-92063683D01*
X150617641Y-91885713D01*
X150682431Y-91790890D01*
X150733440Y-91539000D01*
X150733440Y-91421548D01*
X150965000Y-91468440D01*
X152565000Y-91468440D01*
X152800317Y-91424162D01*
X153016441Y-91285090D01*
X153020772Y-91278750D01*
X160132000Y-91278750D01*
X160132000Y-91469309D01*
X160228673Y-91702698D01*
X160407301Y-91881327D01*
X160640690Y-91978000D01*
X161131250Y-91978000D01*
X161290000Y-91819250D01*
X161290000Y-91120000D01*
X161544000Y-91120000D01*
X161544000Y-91819250D01*
X161702750Y-91978000D01*
X162193310Y-91978000D01*
X162344000Y-91915582D01*
X162344000Y-92044650D01*
X162502750Y-92203400D01*
X163652000Y-92203400D01*
X163652000Y-91354150D01*
X163906000Y-91354150D01*
X163906000Y-92203400D01*
X165055250Y-92203400D01*
X165214000Y-92044650D01*
X165214000Y-91704091D01*
X165117327Y-91470702D01*
X164938699Y-91292073D01*
X164705310Y-91195400D01*
X164064750Y-91195400D01*
X163906000Y-91354150D01*
X163652000Y-91354150D01*
X163493250Y-91195400D01*
X162852690Y-91195400D01*
X162687199Y-91263949D01*
X162543250Y-91120000D01*
X161544000Y-91120000D01*
X161290000Y-91120000D01*
X160290750Y-91120000D01*
X160132000Y-91278750D01*
X153020772Y-91278750D01*
X153161431Y-91072890D01*
X153173126Y-91015139D01*
X153280554Y-90943358D01*
X153342340Y-90955870D01*
X155841700Y-90955870D01*
X156077017Y-90911592D01*
X156293141Y-90772520D01*
X156438131Y-90560320D01*
X156489140Y-90308430D01*
X156489140Y-89932741D01*
X156497599Y-89945401D01*
X156692860Y-90075870D01*
X156692860Y-90308430D01*
X156737138Y-90543747D01*
X156876210Y-90759871D01*
X157088410Y-90904861D01*
X157340300Y-90955870D01*
X159839660Y-90955870D01*
X160074977Y-90911592D01*
X160234008Y-90809258D01*
X160290750Y-90866000D01*
X161290000Y-90866000D01*
X161290000Y-90846000D01*
X161544000Y-90846000D01*
X161544000Y-90866000D01*
X162543250Y-90866000D01*
X162702000Y-90707250D01*
X162702000Y-90516691D01*
X162640174Y-90367430D01*
X162727110Y-90426831D01*
X162979000Y-90477840D01*
X164579000Y-90477840D01*
X164814317Y-90433562D01*
X165030441Y-90294490D01*
X165175431Y-90082290D01*
X165226440Y-89830400D01*
X165226440Y-88830400D01*
X165182162Y-88595083D01*
X165043090Y-88378959D01*
X164830890Y-88233969D01*
X164579000Y-88182960D01*
X162979000Y-88182960D01*
X162743683Y-88227238D01*
X162564072Y-88342815D01*
X162531090Y-88291559D01*
X162318890Y-88146569D01*
X162067000Y-88095560D01*
X160767000Y-88095560D01*
X160531683Y-88139838D01*
X160408586Y-88219049D01*
X160303750Y-88056129D01*
X160091550Y-87911139D01*
X159839660Y-87860130D01*
X157340300Y-87860130D01*
X157104983Y-87904408D01*
X157049508Y-87940106D01*
X156160442Y-87051040D01*
X156619600Y-87051040D01*
X156854917Y-87006762D01*
X157071041Y-86867690D01*
X157216031Y-86655490D01*
X157267040Y-86403600D01*
X157267040Y-84676400D01*
X157241125Y-84538672D01*
X162178538Y-84538672D01*
X162583709Y-85519261D01*
X163333293Y-86270155D01*
X164313173Y-86677036D01*
X165374172Y-86677962D01*
X166354761Y-86272791D01*
X167105655Y-85523207D01*
X167512536Y-84543327D01*
X167513462Y-83482328D01*
X167108291Y-82501739D01*
X166358707Y-81750845D01*
X165378827Y-81343964D01*
X164317828Y-81343038D01*
X163337239Y-81748209D01*
X162586345Y-82497793D01*
X162179464Y-83477673D01*
X162178538Y-84538672D01*
X157241125Y-84538672D01*
X157222762Y-84441083D01*
X157083690Y-84224959D01*
X156871490Y-84079969D01*
X156777625Y-84060961D01*
X157038688Y-83774947D01*
X157210958Y-83359026D01*
X157089817Y-83127000D01*
X155883000Y-83127000D01*
X155883000Y-83147000D01*
X155629000Y-83147000D01*
X155629000Y-83127000D01*
X155609000Y-83127000D01*
X155609000Y-82873000D01*
X155629000Y-82873000D01*
X155629000Y-81665531D01*
X155883000Y-81665531D01*
X155883000Y-82873000D01*
X157089817Y-82873000D01*
X157210958Y-82640974D01*
X157038688Y-82225053D01*
X156644490Y-81793179D01*
X156115027Y-81545032D01*
X155883000Y-81665531D01*
X155629000Y-81665531D01*
X155396973Y-81545032D01*
X154867510Y-81793179D01*
X154485992Y-82211161D01*
X154305029Y-81940330D01*
X153818848Y-81615474D01*
X153245359Y-81501400D01*
X153186641Y-81501400D01*
X152613152Y-81615474D01*
X152126971Y-81940330D01*
X151946000Y-82211172D01*
X151765029Y-81940330D01*
X151278848Y-81615474D01*
X150705359Y-81501400D01*
X150646641Y-81501400D01*
X150073152Y-81615474D01*
X149586971Y-81940330D01*
X149406000Y-82211172D01*
X149225029Y-81940330D01*
X148738848Y-81615474D01*
X148165359Y-81501400D01*
X148106641Y-81501400D01*
X147533152Y-81615474D01*
X147046971Y-81940330D01*
X146866000Y-82211172D01*
X146685029Y-81940330D01*
X146198848Y-81615474D01*
X145625359Y-81501400D01*
X145566641Y-81501400D01*
X144993152Y-81615474D01*
X144506971Y-81940330D01*
X144326000Y-82211172D01*
X144145029Y-81940330D01*
X143658848Y-81615474D01*
X143085359Y-81501400D01*
X143026641Y-81501400D01*
X142453152Y-81615474D01*
X141966971Y-81940330D01*
X141786000Y-82211172D01*
X141605029Y-81940330D01*
X141118848Y-81615474D01*
X140545359Y-81501400D01*
X140486641Y-81501400D01*
X139913152Y-81615474D01*
X139426971Y-81940330D01*
X139246000Y-82211172D01*
X139065029Y-81940330D01*
X138578848Y-81615474D01*
X138005359Y-81501400D01*
X137946641Y-81501400D01*
X137373152Y-81615474D01*
X136886971Y-81940330D01*
X136562115Y-82426511D01*
X136448041Y-83000000D01*
X136562115Y-83573489D01*
X136886971Y-84059670D01*
X137201752Y-84270000D01*
X136886971Y-84480330D01*
X136562115Y-84966511D01*
X136448041Y-85540000D01*
X136562115Y-86113489D01*
X136886971Y-86599670D01*
X137373152Y-86924526D01*
X137946641Y-87038600D01*
X138005359Y-87038600D01*
X138578848Y-86924526D01*
X139065029Y-86599670D01*
X139246000Y-86328828D01*
X139426971Y-86599670D01*
X139913152Y-86924526D01*
X140486641Y-87038600D01*
X140545359Y-87038600D01*
X141118848Y-86924526D01*
X141605029Y-86599670D01*
X141786000Y-86328828D01*
X141966971Y-86599670D01*
X142453152Y-86924526D01*
X143026641Y-87038600D01*
X143085359Y-87038600D01*
X143658848Y-86924526D01*
X144145029Y-86599670D01*
X144326000Y-86328828D01*
X144506971Y-86599670D01*
X144993152Y-86924526D01*
X145566641Y-87038600D01*
X145625359Y-87038600D01*
X146198848Y-86924526D01*
X146685029Y-86599670D01*
X146866000Y-86328828D01*
X147046971Y-86599670D01*
X147533152Y-86924526D01*
X148106641Y-87038600D01*
X148165359Y-87038600D01*
X148738848Y-86924526D01*
X149225029Y-86599670D01*
X149406000Y-86328828D01*
X149586971Y-86599670D01*
X150073152Y-86924526D01*
X150646641Y-87038600D01*
X150705359Y-87038600D01*
X151278848Y-86924526D01*
X151765029Y-86599670D01*
X151946000Y-86328828D01*
X152126971Y-86599670D01*
X152613152Y-86924526D01*
X153186641Y-87038600D01*
X153245359Y-87038600D01*
X153818848Y-86924526D01*
X153872298Y-86888812D01*
X153919999Y-86960201D01*
X154819928Y-87860130D01*
X153342340Y-87860130D01*
X153107023Y-87904408D01*
X152890899Y-88043480D01*
X152745909Y-88255680D01*
X152694900Y-88507570D01*
X152694900Y-88740103D01*
X152499599Y-88870599D01*
X152332899Y-89037299D01*
X152241853Y-89173560D01*
X150965000Y-89173560D01*
X150845546Y-89196037D01*
X150733440Y-89121130D01*
X150733440Y-88039000D01*
X150689162Y-87803683D01*
X150550090Y-87587559D01*
X150337890Y-87442569D01*
X150086000Y-87391560D01*
X148786000Y-87391560D01*
X148550683Y-87435838D01*
X148334559Y-87574910D01*
X148333610Y-87576299D01*
X148137890Y-87442569D01*
X147886000Y-87391560D01*
X146586000Y-87391560D01*
X146350683Y-87435838D01*
X146134559Y-87574910D01*
X145989569Y-87787110D01*
X145938560Y-88039000D01*
X145938560Y-89029000D01*
X145630400Y-89029000D01*
X145339561Y-89086852D01*
X145092999Y-89251599D01*
X144623599Y-89720999D01*
X144458852Y-89967561D01*
X144457176Y-89975986D01*
X144265059Y-90099610D01*
X144120069Y-90311810D01*
X144069060Y-90563700D01*
X144069060Y-91173300D01*
X144100970Y-91342886D01*
X144087619Y-91375117D01*
X143712940Y-91000438D01*
X143712940Y-90563700D01*
X143668662Y-90328383D01*
X143529590Y-90112259D01*
X143317390Y-89967269D01*
X143065500Y-89916260D01*
X142176500Y-89916260D01*
X141941183Y-89960538D01*
X141909440Y-89980964D01*
X141909440Y-89948000D01*
X141865162Y-89712683D01*
X141726090Y-89496559D01*
X141513890Y-89351569D01*
X141262000Y-89300560D01*
X139662000Y-89300560D01*
X139426683Y-89344838D01*
X139210559Y-89483910D01*
X139065569Y-89696110D01*
X139014560Y-89948000D01*
X139014560Y-90948000D01*
X139058838Y-91183317D01*
X139095699Y-91240600D01*
X136034460Y-91240600D01*
X136034460Y-90839720D01*
X135990182Y-90604403D01*
X135851110Y-90388279D01*
X135638910Y-90243289D01*
X135387020Y-90192280D01*
X133157020Y-90192280D01*
X132921703Y-90236558D01*
X132705579Y-90375630D01*
X132560589Y-90587830D01*
X132509580Y-90839720D01*
X132509580Y-91034000D01*
X131626800Y-91034000D01*
X131486929Y-91061822D01*
X131253540Y-91014560D01*
X130301130Y-91014560D01*
X130301162Y-90977733D01*
X130264039Y-90887887D01*
X130329327Y-90822599D01*
X130426000Y-90589210D01*
X130426000Y-90248650D01*
X130267250Y-90089900D01*
X129418000Y-90089900D01*
X129418000Y-90109900D01*
X129164000Y-90109900D01*
X129164000Y-90089900D01*
X129144000Y-90089900D01*
X129144000Y-89835900D01*
X129164000Y-89835900D01*
X129164000Y-88986650D01*
X129418000Y-88986650D01*
X129418000Y-89835900D01*
X130267250Y-89835900D01*
X130426000Y-89677150D01*
X130426000Y-89336590D01*
X130329327Y-89103201D01*
X130150698Y-88924573D01*
X129917309Y-88827900D01*
X129576750Y-88827900D01*
X129418000Y-88986650D01*
X129164000Y-88986650D01*
X129005250Y-88827900D01*
X128664691Y-88827900D01*
X128431302Y-88924573D01*
X128252673Y-89103201D01*
X128156000Y-89336590D01*
X128156000Y-89433441D01*
X128042678Y-89337898D01*
X127618000Y-89202900D01*
X127343000Y-89202900D01*
X127089000Y-89202900D01*
X126814000Y-89202900D01*
X126389322Y-89337898D01*
X126048632Y-89625137D01*
X125846881Y-90036026D01*
X125170000Y-90036026D01*
X125170000Y-84538672D01*
X126618538Y-84538672D01*
X127023709Y-85519261D01*
X127773293Y-86270155D01*
X128753173Y-86677036D01*
X129814172Y-86677962D01*
X130794761Y-86272791D01*
X131545655Y-85523207D01*
X131952536Y-84543327D01*
X131953462Y-83482328D01*
X131548291Y-82501739D01*
X130798707Y-81750845D01*
X129818827Y-81343964D01*
X128757828Y-81343038D01*
X127777239Y-81748209D01*
X127026345Y-82497793D01*
X126619464Y-83477673D01*
X126618538Y-84538672D01*
X125170000Y-84538672D01*
X125170000Y-84397931D01*
X125515498Y-82660995D01*
X126459779Y-81247779D01*
X127872997Y-80303498D01*
X129609931Y-79958000D01*
X164522069Y-79958000D01*
X166259005Y-80303498D01*
G36*
X145368999Y-104636401D02*
X145615561Y-104801148D01*
X145906400Y-104859000D01*
X147982243Y-104859000D01*
X148008910Y-104900441D01*
X148221110Y-105045431D01*
X148473000Y-105096440D01*
X149773000Y-105096440D01*
X150008317Y-105052162D01*
X150139457Y-104967775D01*
X150253110Y-105045431D01*
X150505000Y-105096440D01*
X151805000Y-105096440D01*
X152040317Y-105052162D01*
X152256441Y-104913090D01*
X152310426Y-104834081D01*
X152493860Y-104956648D01*
X152542114Y-104966246D01*
X152784700Y-105014500D01*
X155422634Y-105014500D01*
X155423281Y-105016065D01*
X155801643Y-105395088D01*
X155805200Y-105396565D01*
X155805200Y-107670200D01*
X155863052Y-107961039D01*
X156027799Y-108207601D01*
X158356560Y-110536362D01*
X158356560Y-111740000D01*
X158400838Y-111975317D01*
X158539910Y-112191441D01*
X158752110Y-112336431D01*
X159004000Y-112387440D01*
X160707800Y-112387440D01*
X160707800Y-113556998D01*
X157011504Y-117253294D01*
X156791029Y-116923330D01*
X156304848Y-116598474D01*
X155731359Y-116484400D01*
X155672641Y-116484400D01*
X155099152Y-116598474D01*
X154612971Y-116923330D01*
X154432000Y-117194172D01*
X154251029Y-116923330D01*
X153764848Y-116598474D01*
X153191359Y-116484400D01*
X153132641Y-116484400D01*
X152559152Y-116598474D01*
X152072971Y-116923330D01*
X151892000Y-117194172D01*
X151711029Y-116923330D01*
X151346705Y-116679897D01*
X152845301Y-115181301D01*
X153010048Y-114934739D01*
X153067900Y-114643900D01*
X153067900Y-113862000D01*
X153460250Y-113862000D01*
X153619000Y-113703250D01*
X153619000Y-112854000D01*
X153873000Y-112854000D01*
X153873000Y-113703250D01*
X154031750Y-113862000D01*
X154672310Y-113862000D01*
X154905699Y-113765327D01*
X155084327Y-113586698D01*
X155181000Y-113353309D01*
X155181000Y-113012750D01*
X155022250Y-112854000D01*
X153873000Y-112854000D01*
X153619000Y-112854000D01*
X153599000Y-112854000D01*
X153599000Y-112600000D01*
X153619000Y-112600000D01*
X153619000Y-111750750D01*
X153873000Y-111750750D01*
X153873000Y-112600000D01*
X155022250Y-112600000D01*
X155181000Y-112441250D01*
X155181000Y-112100691D01*
X155084327Y-111867302D01*
X154905699Y-111688673D01*
X154672310Y-111592000D01*
X154031750Y-111592000D01*
X153873000Y-111750750D01*
X153619000Y-111750750D01*
X153460250Y-111592000D01*
X152819690Y-111592000D01*
X152596120Y-111684606D01*
X152586162Y-111631683D01*
X152511000Y-111514878D01*
X152518441Y-111510090D01*
X152663431Y-111297890D01*
X152714440Y-111046000D01*
X152714440Y-110827548D01*
X152946000Y-110874440D01*
X154546000Y-110874440D01*
X154781317Y-110830162D01*
X154997441Y-110691090D01*
X155142431Y-110478890D01*
X155193440Y-110227000D01*
X155193440Y-109227000D01*
X155149162Y-108991683D01*
X155010090Y-108775559D01*
X154797890Y-108630569D01*
X154546000Y-108579560D01*
X152946000Y-108579560D01*
X152714440Y-108623131D01*
X152714440Y-107546000D01*
X152670162Y-107310683D01*
X152531090Y-107094559D01*
X152318890Y-106949569D01*
X152067000Y-106898560D01*
X150767000Y-106898560D01*
X150531683Y-106942838D01*
X150315559Y-107081910D01*
X150314610Y-107083299D01*
X150118890Y-106949569D01*
X149867000Y-106898560D01*
X148567000Y-106898560D01*
X148331683Y-106942838D01*
X148115559Y-107081910D01*
X147970569Y-107294110D01*
X147919560Y-107546000D01*
X147919560Y-108628130D01*
X147735073Y-108751400D01*
X147523000Y-108751400D01*
X147232161Y-108809252D01*
X146985599Y-108973999D01*
X146820852Y-109220561D01*
X146819176Y-109228986D01*
X146627059Y-109352610D01*
X146482069Y-109564810D01*
X146431060Y-109816700D01*
X146431060Y-110426300D01*
X146462970Y-110595886D01*
X146449619Y-110628117D01*
X146074940Y-110253438D01*
X146074940Y-109816700D01*
X146030662Y-109581383D01*
X145891590Y-109365259D01*
X145679390Y-109220269D01*
X145427500Y-109169260D01*
X144815100Y-109169260D01*
X144815100Y-104082502D01*
X145368999Y-104636401D01*
X145368999Y-104636401D01*
G37*
X145368999Y-104636401D02*
X145615561Y-104801148D01*
X145906400Y-104859000D01*
X147982243Y-104859000D01*
X148008910Y-104900441D01*
X148221110Y-105045431D01*
X148473000Y-105096440D01*
X149773000Y-105096440D01*
X150008317Y-105052162D01*
X150139457Y-104967775D01*
X150253110Y-105045431D01*
X150505000Y-105096440D01*
X151805000Y-105096440D01*
X152040317Y-105052162D01*
X152256441Y-104913090D01*
X152310426Y-104834081D01*
X152493860Y-104956648D01*
X152542114Y-104966246D01*
X152784700Y-105014500D01*
X155422634Y-105014500D01*
X155423281Y-105016065D01*
X155801643Y-105395088D01*
X155805200Y-105396565D01*
X155805200Y-107670200D01*
X155863052Y-107961039D01*
X156027799Y-108207601D01*
X158356560Y-110536362D01*
X158356560Y-111740000D01*
X158400838Y-111975317D01*
X158539910Y-112191441D01*
X158752110Y-112336431D01*
X159004000Y-112387440D01*
X160707800Y-112387440D01*
X160707800Y-113556998D01*
X157011504Y-117253294D01*
X156791029Y-116923330D01*
X156304848Y-116598474D01*
X155731359Y-116484400D01*
X155672641Y-116484400D01*
X155099152Y-116598474D01*
X154612971Y-116923330D01*
X154432000Y-117194172D01*
X154251029Y-116923330D01*
X153764848Y-116598474D01*
X153191359Y-116484400D01*
X153132641Y-116484400D01*
X152559152Y-116598474D01*
X152072971Y-116923330D01*
X151892000Y-117194172D01*
X151711029Y-116923330D01*
X151346705Y-116679897D01*
X152845301Y-115181301D01*
X153010048Y-114934739D01*
X153067900Y-114643900D01*
X153067900Y-113862000D01*
X153460250Y-113862000D01*
X153619000Y-113703250D01*
X153619000Y-112854000D01*
X153873000Y-112854000D01*
X153873000Y-113703250D01*
X154031750Y-113862000D01*
X154672310Y-113862000D01*
X154905699Y-113765327D01*
X155084327Y-113586698D01*
X155181000Y-113353309D01*
X155181000Y-113012750D01*
X155022250Y-112854000D01*
X153873000Y-112854000D01*
X153619000Y-112854000D01*
X153599000Y-112854000D01*
X153599000Y-112600000D01*
X153619000Y-112600000D01*
X153619000Y-111750750D01*
X153873000Y-111750750D01*
X153873000Y-112600000D01*
X155022250Y-112600000D01*
X155181000Y-112441250D01*
X155181000Y-112100691D01*
X155084327Y-111867302D01*
X154905699Y-111688673D01*
X154672310Y-111592000D01*
X154031750Y-111592000D01*
X153873000Y-111750750D01*
X153619000Y-111750750D01*
X153460250Y-111592000D01*
X152819690Y-111592000D01*
X152596120Y-111684606D01*
X152586162Y-111631683D01*
X152511000Y-111514878D01*
X152518441Y-111510090D01*
X152663431Y-111297890D01*
X152714440Y-111046000D01*
X152714440Y-110827548D01*
X152946000Y-110874440D01*
X154546000Y-110874440D01*
X154781317Y-110830162D01*
X154997441Y-110691090D01*
X155142431Y-110478890D01*
X155193440Y-110227000D01*
X155193440Y-109227000D01*
X155149162Y-108991683D01*
X155010090Y-108775559D01*
X154797890Y-108630569D01*
X154546000Y-108579560D01*
X152946000Y-108579560D01*
X152714440Y-108623131D01*
X152714440Y-107546000D01*
X152670162Y-107310683D01*
X152531090Y-107094559D01*
X152318890Y-106949569D01*
X152067000Y-106898560D01*
X150767000Y-106898560D01*
X150531683Y-106942838D01*
X150315559Y-107081910D01*
X150314610Y-107083299D01*
X150118890Y-106949569D01*
X149867000Y-106898560D01*
X148567000Y-106898560D01*
X148331683Y-106942838D01*
X148115559Y-107081910D01*
X147970569Y-107294110D01*
X147919560Y-107546000D01*
X147919560Y-108628130D01*
X147735073Y-108751400D01*
X147523000Y-108751400D01*
X147232161Y-108809252D01*
X146985599Y-108973999D01*
X146820852Y-109220561D01*
X146819176Y-109228986D01*
X146627059Y-109352610D01*
X146482069Y-109564810D01*
X146431060Y-109816700D01*
X146431060Y-110426300D01*
X146462970Y-110595886D01*
X146449619Y-110628117D01*
X146074940Y-110253438D01*
X146074940Y-109816700D01*
X146030662Y-109581383D01*
X145891590Y-109365259D01*
X145679390Y-109220269D01*
X145427500Y-109169260D01*
X144815100Y-109169260D01*
X144815100Y-104082502D01*
X145368999Y-104636401D01*
G36*
X149428000Y-112090000D02*
X149448000Y-112090000D01*
X149448000Y-112344000D01*
X149428000Y-112344000D01*
X149428000Y-112364000D01*
X149174000Y-112364000D01*
X149174000Y-112344000D01*
X149154000Y-112344000D01*
X149154000Y-112090000D01*
X149174000Y-112090000D01*
X149174000Y-112070000D01*
X149428000Y-112070000D01*
X149428000Y-112090000D01*
X149428000Y-112090000D01*
G37*
X149428000Y-112090000D02*
X149448000Y-112090000D01*
X149448000Y-112344000D01*
X149428000Y-112344000D01*
X149428000Y-112364000D01*
X149174000Y-112364000D01*
X149174000Y-112344000D01*
X149154000Y-112344000D01*
X149154000Y-112090000D01*
X149174000Y-112090000D01*
X149174000Y-112070000D01*
X149428000Y-112070000D01*
X149428000Y-112090000D01*
G36*
X147670000Y-111074260D02*
X147376000Y-111074260D01*
X147376000Y-111073740D01*
X147670000Y-111073740D01*
X147670000Y-111074260D01*
X147670000Y-111074260D01*
G37*
X147670000Y-111074260D02*
X147376000Y-111074260D01*
X147376000Y-111073740D01*
X147670000Y-111073740D01*
X147670000Y-111074260D01*
G36*
X141198560Y-100498000D02*
X141242838Y-100733317D01*
X141381910Y-100949441D01*
X141594110Y-101094431D01*
X141846000Y-101145440D01*
X143295100Y-101145440D01*
X143295100Y-101863000D01*
X142931750Y-101863000D01*
X142773000Y-102021750D01*
X142773000Y-102871000D01*
X142793000Y-102871000D01*
X142793000Y-103125000D01*
X142773000Y-103125000D01*
X142773000Y-103974250D01*
X142931750Y-104133000D01*
X143295100Y-104133000D01*
X143295100Y-108553560D01*
X142151000Y-108553560D01*
X141915683Y-108597838D01*
X141699559Y-108736910D01*
X141560110Y-108941000D01*
X139512950Y-108941000D01*
X139512950Y-108344280D01*
X139468672Y-108108963D01*
X139457611Y-108091774D01*
X139507070Y-107847540D01*
X139507070Y-107569743D01*
X139507690Y-107570000D01*
X139973250Y-107570000D01*
X140132000Y-107411250D01*
X140132000Y-106562000D01*
X140386000Y-106562000D01*
X140386000Y-107411250D01*
X140544750Y-107570000D01*
X141010310Y-107570000D01*
X141243699Y-107473327D01*
X141422327Y-107294698D01*
X141519000Y-107061309D01*
X141519000Y-106720750D01*
X141360250Y-106562000D01*
X140386000Y-106562000D01*
X140132000Y-106562000D01*
X140112000Y-106562000D01*
X140112000Y-106308000D01*
X140132000Y-106308000D01*
X140132000Y-106288000D01*
X140386000Y-106288000D01*
X140386000Y-106308000D01*
X141360250Y-106308000D01*
X141519000Y-106149250D01*
X141519000Y-105808691D01*
X141422327Y-105575302D01*
X141281090Y-105434064D01*
X141335441Y-105399090D01*
X141480431Y-105186890D01*
X141531440Y-104935000D01*
X141531440Y-104055024D01*
X141719690Y-104133000D01*
X142360250Y-104133000D01*
X142519000Y-103974250D01*
X142519000Y-103125000D01*
X141369750Y-103125000D01*
X141211000Y-103283750D01*
X141211000Y-103389889D01*
X141135890Y-103338569D01*
X141019000Y-103314898D01*
X141019000Y-102371691D01*
X141211000Y-102371691D01*
X141211000Y-102712250D01*
X141369750Y-102871000D01*
X142519000Y-102871000D01*
X142519000Y-102021750D01*
X142360250Y-101863000D01*
X141719690Y-101863000D01*
X141486301Y-101959673D01*
X141307673Y-102138302D01*
X141211000Y-102371691D01*
X141019000Y-102371691D01*
X141019000Y-100513031D01*
X141198560Y-100438839D01*
X141198560Y-100498000D01*
X141198560Y-100498000D01*
G37*
X141198560Y-100498000D02*
X141242838Y-100733317D01*
X141381910Y-100949441D01*
X141594110Y-101094431D01*
X141846000Y-101145440D01*
X143295100Y-101145440D01*
X143295100Y-101863000D01*
X142931750Y-101863000D01*
X142773000Y-102021750D01*
X142773000Y-102871000D01*
X142793000Y-102871000D01*
X142793000Y-103125000D01*
X142773000Y-103125000D01*
X142773000Y-103974250D01*
X142931750Y-104133000D01*
X143295100Y-104133000D01*
X143295100Y-108553560D01*
X142151000Y-108553560D01*
X141915683Y-108597838D01*
X141699559Y-108736910D01*
X141560110Y-108941000D01*
X139512950Y-108941000D01*
X139512950Y-108344280D01*
X139468672Y-108108963D01*
X139457611Y-108091774D01*
X139507070Y-107847540D01*
X139507070Y-107569743D01*
X139507690Y-107570000D01*
X139973250Y-107570000D01*
X140132000Y-107411250D01*
X140132000Y-106562000D01*
X140386000Y-106562000D01*
X140386000Y-107411250D01*
X140544750Y-107570000D01*
X141010310Y-107570000D01*
X141243699Y-107473327D01*
X141422327Y-107294698D01*
X141519000Y-107061309D01*
X141519000Y-106720750D01*
X141360250Y-106562000D01*
X140386000Y-106562000D01*
X140132000Y-106562000D01*
X140112000Y-106562000D01*
X140112000Y-106308000D01*
X140132000Y-106308000D01*
X140132000Y-106288000D01*
X140386000Y-106288000D01*
X140386000Y-106308000D01*
X141360250Y-106308000D01*
X141519000Y-106149250D01*
X141519000Y-105808691D01*
X141422327Y-105575302D01*
X141281090Y-105434064D01*
X141335441Y-105399090D01*
X141480431Y-105186890D01*
X141531440Y-104935000D01*
X141531440Y-104055024D01*
X141719690Y-104133000D01*
X142360250Y-104133000D01*
X142519000Y-103974250D01*
X142519000Y-103125000D01*
X141369750Y-103125000D01*
X141211000Y-103283750D01*
X141211000Y-103389889D01*
X141135890Y-103338569D01*
X141019000Y-103314898D01*
X141019000Y-102371691D01*
X141211000Y-102371691D01*
X141211000Y-102712250D01*
X141369750Y-102871000D01*
X142519000Y-102871000D01*
X142519000Y-102021750D01*
X142360250Y-101863000D01*
X141719690Y-101863000D01*
X141486301Y-101959673D01*
X141307673Y-102138302D01*
X141211000Y-102371691D01*
X141019000Y-102371691D01*
X141019000Y-100513031D01*
X141198560Y-100438839D01*
X141198560Y-100498000D01*
G36*
X158975142Y-105033544D02*
X158791462Y-105036289D01*
X158010157Y-105359916D01*
X157830398Y-105695692D01*
X159283000Y-107148295D01*
X159297142Y-107134152D01*
X159476748Y-107313758D01*
X159462605Y-107327900D01*
X159476748Y-107342042D01*
X159297142Y-107521648D01*
X159283000Y-107507505D01*
X159268858Y-107521648D01*
X159089252Y-107342042D01*
X159103395Y-107327900D01*
X157650792Y-105875298D01*
X157325200Y-106049605D01*
X157325200Y-105397066D01*
X157326765Y-105396419D01*
X157705788Y-105018057D01*
X157911166Y-104523451D01*
X157911634Y-103987899D01*
X157899056Y-103957458D01*
X158975142Y-105033544D01*
X158975142Y-105033544D01*
G37*
X158975142Y-105033544D02*
X158791462Y-105036289D01*
X158010157Y-105359916D01*
X157830398Y-105695692D01*
X159283000Y-107148295D01*
X159297142Y-107134152D01*
X159476748Y-107313758D01*
X159462605Y-107327900D01*
X159476748Y-107342042D01*
X159297142Y-107521648D01*
X159283000Y-107507505D01*
X159268858Y-107521648D01*
X159089252Y-107342042D01*
X159103395Y-107327900D01*
X157650792Y-105875298D01*
X157325200Y-106049605D01*
X157325200Y-105397066D01*
X157326765Y-105396419D01*
X157705788Y-105018057D01*
X157911166Y-104523451D01*
X157911634Y-103987899D01*
X157899056Y-103957458D01*
X158975142Y-105033544D01*
G36*
X139499000Y-103312962D02*
X139398683Y-103331838D01*
X139394725Y-103334385D01*
X139335880Y-103275540D01*
X138462120Y-103275540D01*
X138462120Y-103295540D01*
X138208120Y-103295540D01*
X138208120Y-103275540D01*
X137334360Y-103275540D01*
X137296832Y-103313068D01*
X137032833Y-103312838D01*
X136689057Y-103454883D01*
X136641600Y-103502257D01*
X136641600Y-102788526D01*
X136948201Y-102915838D01*
X137228903Y-102916083D01*
X137334360Y-103021540D01*
X138208120Y-103021540D01*
X138208120Y-103001540D01*
X138462120Y-103001540D01*
X138462120Y-103021540D01*
X139335880Y-103021540D01*
X139494630Y-102862790D01*
X139494630Y-102722511D01*
X139448565Y-102611301D01*
X139456061Y-102600330D01*
X139499000Y-102388291D01*
X139499000Y-103312962D01*
X139499000Y-103312962D01*
G37*
X139499000Y-103312962D02*
X139398683Y-103331838D01*
X139394725Y-103334385D01*
X139335880Y-103275540D01*
X138462120Y-103275540D01*
X138462120Y-103295540D01*
X138208120Y-103295540D01*
X138208120Y-103275540D01*
X137334360Y-103275540D01*
X137296832Y-103313068D01*
X137032833Y-103312838D01*
X136689057Y-103454883D01*
X136641600Y-103502257D01*
X136641600Y-102788526D01*
X136948201Y-102915838D01*
X137228903Y-102916083D01*
X137334360Y-103021540D01*
X138208120Y-103021540D01*
X138208120Y-103001540D01*
X138462120Y-103001540D01*
X138462120Y-103021540D01*
X139335880Y-103021540D01*
X139494630Y-102862790D01*
X139494630Y-102722511D01*
X139448565Y-102611301D01*
X139456061Y-102600330D01*
X139499000Y-102388291D01*
X139499000Y-103312962D01*
G36*
X152641000Y-100942440D02*
X153189838Y-100942440D01*
X153907398Y-101660000D01*
X153726750Y-101660000D01*
X153568000Y-101818750D01*
X153568000Y-102668000D01*
X154717250Y-102668000D01*
X154816324Y-102568926D01*
X155581613Y-103334215D01*
X155424612Y-103490943D01*
X155423135Y-103494500D01*
X154845683Y-103494500D01*
X154876000Y-103421309D01*
X154876000Y-103080750D01*
X154717250Y-102922000D01*
X153568000Y-102922000D01*
X153568000Y-102942000D01*
X153314000Y-102942000D01*
X153314000Y-102922000D01*
X153294000Y-102922000D01*
X153294000Y-102668000D01*
X153314000Y-102668000D01*
X153314000Y-101818750D01*
X153155250Y-101660000D01*
X152514690Y-101660000D01*
X152423949Y-101697586D01*
X152408162Y-101613683D01*
X152355370Y-101531641D01*
X152485431Y-101341290D01*
X152536440Y-101089400D01*
X152536440Y-100921266D01*
X152641000Y-100942440D01*
X152641000Y-100942440D01*
G37*
X152641000Y-100942440D02*
X153189838Y-100942440D01*
X153907398Y-101660000D01*
X153726750Y-101660000D01*
X153568000Y-101818750D01*
X153568000Y-102668000D01*
X154717250Y-102668000D01*
X154816324Y-102568926D01*
X155581613Y-103334215D01*
X155424612Y-103490943D01*
X155423135Y-103494500D01*
X154845683Y-103494500D01*
X154876000Y-103421309D01*
X154876000Y-103080750D01*
X154717250Y-102922000D01*
X153568000Y-102922000D01*
X153568000Y-102942000D01*
X153314000Y-102942000D01*
X153314000Y-102922000D01*
X153294000Y-102922000D01*
X153294000Y-102668000D01*
X153314000Y-102668000D01*
X153314000Y-101818750D01*
X153155250Y-101660000D01*
X152514690Y-101660000D01*
X152423949Y-101697586D01*
X152408162Y-101613683D01*
X152355370Y-101531641D01*
X152485431Y-101341290D01*
X152536440Y-101089400D01*
X152536440Y-100921266D01*
X152641000Y-100942440D01*
G36*
X139027000Y-92821691D02*
X139027000Y-93162250D01*
X139185750Y-93321000D01*
X140335000Y-93321000D01*
X140335000Y-93301000D01*
X140589000Y-93301000D01*
X140589000Y-93321000D01*
X140609000Y-93321000D01*
X140609000Y-93575000D01*
X140589000Y-93575000D01*
X140589000Y-94424250D01*
X140747750Y-94583000D01*
X141388310Y-94583000D01*
X141621699Y-94486327D01*
X141800327Y-94307698D01*
X141897000Y-94074309D01*
X141897000Y-93733750D01*
X141738252Y-93575002D01*
X141778652Y-93575002D01*
X141918014Y-93670224D01*
X141918852Y-93674439D01*
X142083599Y-93921001D01*
X143248999Y-95086401D01*
X143495561Y-95251148D01*
X143786400Y-95309000D01*
X146052243Y-95309000D01*
X146078910Y-95350441D01*
X146124805Y-95381800D01*
X144236200Y-95381800D01*
X143945361Y-95439652D01*
X143698799Y-95604399D01*
X140636720Y-98666478D01*
X140591233Y-98666438D01*
X140247457Y-98808483D01*
X139984208Y-99071273D01*
X139841562Y-99414801D01*
X139841521Y-99461677D01*
X139721599Y-99581599D01*
X139556852Y-99828161D01*
X139507070Y-100078430D01*
X139507070Y-99549360D01*
X139462792Y-99314043D01*
X139323720Y-99097919D01*
X139111520Y-98952929D01*
X138859630Y-98901920D01*
X138298740Y-98901920D01*
X138167820Y-98771000D01*
X137068000Y-98771000D01*
X137068000Y-99644760D01*
X137163170Y-99739930D01*
X137163170Y-100005002D01*
X136974833Y-100004838D01*
X136641600Y-100142527D01*
X136641600Y-99803510D01*
X136655250Y-99803510D01*
X136814000Y-99644760D01*
X136814000Y-98771000D01*
X136794000Y-98771000D01*
X136794000Y-98517000D01*
X136814000Y-98517000D01*
X136814000Y-97643240D01*
X137068000Y-97643240D01*
X137068000Y-98517000D01*
X138167820Y-98517000D01*
X138326570Y-98358250D01*
X138326570Y-97993181D01*
X138229897Y-97759792D01*
X138051269Y-97581163D01*
X137817880Y-97484490D01*
X137226750Y-97484490D01*
X137068000Y-97643240D01*
X136814000Y-97643240D01*
X136655250Y-97484490D01*
X136641600Y-97484490D01*
X136641600Y-93733750D01*
X139027000Y-93733750D01*
X139027000Y-94074309D01*
X139123673Y-94307698D01*
X139302301Y-94486327D01*
X139535690Y-94583000D01*
X140176250Y-94583000D01*
X140335000Y-94424250D01*
X140335000Y-93575000D01*
X139185750Y-93575000D01*
X139027000Y-93733750D01*
X136641600Y-93733750D01*
X136641600Y-92760600D01*
X139052305Y-92760600D01*
X139027000Y-92821691D01*
X139027000Y-92821691D01*
G37*
X139027000Y-92821691D02*
X139027000Y-93162250D01*
X139185750Y-93321000D01*
X140335000Y-93321000D01*
X140335000Y-93301000D01*
X140589000Y-93301000D01*
X140589000Y-93321000D01*
X140609000Y-93321000D01*
X140609000Y-93575000D01*
X140589000Y-93575000D01*
X140589000Y-94424250D01*
X140747750Y-94583000D01*
X141388310Y-94583000D01*
X141621699Y-94486327D01*
X141800327Y-94307698D01*
X141897000Y-94074309D01*
X141897000Y-93733750D01*
X141738252Y-93575002D01*
X141778652Y-93575002D01*
X141918014Y-93670224D01*
X141918852Y-93674439D01*
X142083599Y-93921001D01*
X143248999Y-95086401D01*
X143495561Y-95251148D01*
X143786400Y-95309000D01*
X146052243Y-95309000D01*
X146078910Y-95350441D01*
X146124805Y-95381800D01*
X144236200Y-95381800D01*
X143945361Y-95439652D01*
X143698799Y-95604399D01*
X140636720Y-98666478D01*
X140591233Y-98666438D01*
X140247457Y-98808483D01*
X139984208Y-99071273D01*
X139841562Y-99414801D01*
X139841521Y-99461677D01*
X139721599Y-99581599D01*
X139556852Y-99828161D01*
X139507070Y-100078430D01*
X139507070Y-99549360D01*
X139462792Y-99314043D01*
X139323720Y-99097919D01*
X139111520Y-98952929D01*
X138859630Y-98901920D01*
X138298740Y-98901920D01*
X138167820Y-98771000D01*
X137068000Y-98771000D01*
X137068000Y-99644760D01*
X137163170Y-99739930D01*
X137163170Y-100005002D01*
X136974833Y-100004838D01*
X136641600Y-100142527D01*
X136641600Y-99803510D01*
X136655250Y-99803510D01*
X136814000Y-99644760D01*
X136814000Y-98771000D01*
X136794000Y-98771000D01*
X136794000Y-98517000D01*
X136814000Y-98517000D01*
X136814000Y-97643240D01*
X137068000Y-97643240D01*
X137068000Y-98517000D01*
X138167820Y-98517000D01*
X138326570Y-98358250D01*
X138326570Y-97993181D01*
X138229897Y-97759792D01*
X138051269Y-97581163D01*
X137817880Y-97484490D01*
X137226750Y-97484490D01*
X137068000Y-97643240D01*
X136814000Y-97643240D01*
X136655250Y-97484490D01*
X136641600Y-97484490D01*
X136641600Y-93733750D01*
X139027000Y-93733750D01*
X139027000Y-94074309D01*
X139123673Y-94307698D01*
X139302301Y-94486327D01*
X139535690Y-94583000D01*
X140176250Y-94583000D01*
X140335000Y-94424250D01*
X140335000Y-93575000D01*
X139185750Y-93575000D01*
X139027000Y-93733750D01*
X136641600Y-93733750D01*
X136641600Y-92760600D01*
X139052305Y-92760600D01*
X139027000Y-92821691D01*
G36*
X130330540Y-94488250D02*
X130404290Y-94562000D01*
X130330540Y-94562000D01*
X130330540Y-94609000D01*
X130134204Y-94609000D01*
X130056540Y-94531200D01*
X130056540Y-94508250D01*
X130076540Y-94488250D01*
X130076540Y-94315000D01*
X130330540Y-94315000D01*
X130330540Y-94488250D01*
X130330540Y-94488250D01*
G37*
X130330540Y-94488250D02*
X130404290Y-94562000D01*
X130330540Y-94562000D01*
X130330540Y-94609000D01*
X130134204Y-94609000D01*
X130056540Y-94531200D01*
X130056540Y-94508250D01*
X130076540Y-94488250D01*
X130076540Y-94315000D01*
X130330540Y-94315000D01*
X130330540Y-94488250D01*
G36*
X147320000Y-92522000D02*
X147340000Y-92522000D01*
X147340000Y-92776000D01*
X147320000Y-92776000D01*
X147320000Y-92796000D01*
X147066000Y-92796000D01*
X147066000Y-92776000D01*
X147046000Y-92776000D01*
X147046000Y-92522000D01*
X147066000Y-92522000D01*
X147066000Y-92502000D01*
X147320000Y-92502000D01*
X147320000Y-92522000D01*
X147320000Y-92522000D01*
G37*
X147320000Y-92522000D02*
X147340000Y-92522000D01*
X147340000Y-92776000D01*
X147320000Y-92776000D01*
X147320000Y-92796000D01*
X147066000Y-92796000D01*
X147066000Y-92776000D01*
X147046000Y-92776000D01*
X147046000Y-92522000D01*
X147066000Y-92522000D01*
X147066000Y-92502000D01*
X147320000Y-92502000D01*
X147320000Y-92522000D01*
G36*
X145308000Y-91821260D02*
X145014000Y-91821260D01*
X145014000Y-91820740D01*
X145308000Y-91820740D01*
X145308000Y-91821260D01*
X145308000Y-91821260D01*
G37*
X145308000Y-91821260D02*
X145014000Y-91821260D01*
X145014000Y-91820740D01*
X145308000Y-91820740D01*
X145308000Y-91821260D01*
M02*
