G04 #@! TF.FileFunction,Soldermask,Top*
%FSLAX46Y46*%
G04 Gerber Fmt 4.6, Leading zero omitted, Abs format (unit mm)*
G04 Created by KiCad (PCBNEW 4.0.0-rc1-stable) date Fri 20 Nov 2015 08:55:41 PM ICT*
%MOMM*%
G01*
G04 APERTURE LIST*
%ADD10C,0.100000*%
%ADD11C,4.204000*%
%ADD12R,1.867200X1.867200*%
%ADD13O,1.867200X1.867200*%
%ADD14R,1.029000X0.749600*%
%ADD15R,1.440000X0.840000*%
%ADD16R,1.440000X3.640000*%
%ADD17R,2.639360X1.940860*%
%ADD18R,1.390000X1.140000*%
%ADD19C,1.562400*%
%ADD20C,3.467400*%
%ADD21R,1.740000X1.140000*%
%ADD22R,1.370000X1.940000*%
%ADD23R,1.940000X1.370000*%
%ADD24R,2.240000X0.540000*%
%ADD25O,1.690000X1.140000*%
%ADD26C,0.740000*%
%ADD27R,2.040000X2.040000*%
%ADD28R,1.140000X1.140000*%
%ADD29R,1.189020X0.739440*%
%ADD30R,1.641140X1.189020*%
G04 APERTURE END LIST*
D10*
D11*
X129286000Y-84010500D03*
X164846000Y-84010500D03*
X164782000Y-119570000D03*
X129286000Y-119570000D03*
D12*
X137922000Y-117983000D03*
D13*
X137922000Y-120523000D03*
X140462000Y-117983000D03*
X140462000Y-120523000D03*
X143002000Y-117983000D03*
X143002000Y-120523000D03*
X145542000Y-117983000D03*
X145542000Y-120523000D03*
X148082000Y-117983000D03*
X148082000Y-120523000D03*
X150622000Y-117983000D03*
X150622000Y-120523000D03*
X153162000Y-117983000D03*
X153162000Y-120523000D03*
X155702000Y-117983000D03*
X155702000Y-120523000D03*
D12*
X155756000Y-85540000D03*
D13*
X155756000Y-83000000D03*
X153216000Y-85540000D03*
X153216000Y-83000000D03*
X150676000Y-85540000D03*
X150676000Y-83000000D03*
X148136000Y-85540000D03*
X148136000Y-83000000D03*
X145596000Y-85540000D03*
X145596000Y-83000000D03*
X143056000Y-85540000D03*
X143056000Y-83000000D03*
X140516000Y-85540000D03*
X140516000Y-83000000D03*
X137976000Y-85540000D03*
X137976000Y-83000000D03*
D14*
X144805000Y-102387500D03*
X144805000Y-100482500D03*
X147345000Y-100482500D03*
X147345000Y-101435000D03*
X147345000Y-102387500D03*
X144983000Y-112026500D03*
X144983000Y-110121500D03*
X147523000Y-110121500D03*
X147523000Y-111074000D03*
X147523000Y-112026500D03*
X142621000Y-92773500D03*
X142621000Y-90868500D03*
X145161000Y-90868500D03*
X145161000Y-91821000D03*
X145161000Y-92773500D03*
D15*
X149479000Y-92649000D03*
X149479000Y-94549000D03*
X147193000Y-94549000D03*
X147193000Y-92649000D03*
X151333000Y-112217000D03*
X151333000Y-114117000D03*
X149301000Y-114117000D03*
X149301000Y-112217000D03*
X151155000Y-102199000D03*
X151155000Y-104099000D03*
X149123000Y-104099000D03*
X149123000Y-102199000D03*
D16*
X147236000Y-89789000D03*
X149436000Y-89789000D03*
X149039000Y-99339400D03*
X151239000Y-99339400D03*
X149217000Y-109296000D03*
X151417000Y-109296000D03*
D17*
X158589980Y-89408000D03*
X154592020Y-89408000D03*
D15*
X161417000Y-89093000D03*
X161417000Y-90993000D03*
D18*
X140259000Y-106435000D03*
X140259000Y-104435000D03*
D19*
X156565200Y-99758700D03*
X156565200Y-101765300D03*
X156565200Y-97269500D03*
D20*
X159283000Y-94196100D03*
X159283000Y-107327900D03*
D19*
X156565200Y-104254500D03*
D21*
X151765000Y-93321000D03*
X151765000Y-90321000D03*
X163779000Y-92330400D03*
X163779000Y-89330400D03*
X153441000Y-102795000D03*
X153441000Y-99795000D03*
X153746000Y-112727000D03*
X153746000Y-109727000D03*
X140462000Y-90448000D03*
X140462000Y-93448000D03*
X142646000Y-99998000D03*
X142646000Y-102998000D03*
X142951000Y-109701000D03*
X142951000Y-112701000D03*
D22*
X134391000Y-94528000D03*
X134391000Y-91908000D03*
D23*
X162524000Y-111125000D03*
X159904000Y-111125000D03*
D24*
X130203540Y-91862000D03*
X130203540Y-92512000D03*
X130203540Y-93162000D03*
X130203540Y-93812000D03*
X130203540Y-94462000D03*
D25*
X127216000Y-90337900D03*
X127216000Y-95962900D03*
D26*
X129366000Y-91162900D03*
X129366000Y-95162900D03*
D27*
X127216000Y-92087900D03*
X127216000Y-94237900D03*
D28*
X129291000Y-89962900D03*
X129291000Y-96362900D03*
D29*
X138335120Y-99849080D03*
X138335120Y-100948900D03*
X138335120Y-102048720D03*
X138335120Y-103148540D03*
X138335120Y-104248360D03*
X138335120Y-105348180D03*
X138335120Y-106448000D03*
X138335120Y-107547820D03*
D30*
X136941000Y-98644000D03*
X136966000Y-113469000D03*
X127491000Y-98719000D03*
X127491000Y-114769000D03*
D29*
X138341000Y-108644000D03*
M02*
