G04 #@! TF.FileFunction,Legend,Top*
%FSLAX46Y46*%
G04 Gerber Fmt 4.6, Leading zero omitted, Abs format (unit mm)*
G04 Created by KiCad (PCBNEW 4.0.0-rc1-stable) date Fri 20 Nov 2015 08:55:41 PM ICT*
%MOMM*%
G01*
G04 APERTURE LIST*
%ADD10C,0.100000*%
%ADD11C,0.200000*%
%ADD12C,0.150000*%
%ADD13C,0.152400*%
%ADD14C,0.127000*%
%ADD15C,0.200660*%
%ADD16C,0.304800*%
G04 APERTURE END LIST*
D10*
D11*
X169044690Y-84074000D02*
G75*
G03X169044690Y-84074000I-4198690J0D01*
G01*
X133478924Y-84074000D02*
G75*
G03X133478924Y-84074000I-4192924J0D01*
G01*
X168917690Y-119634000D02*
G75*
G03X168917690Y-119634000I-4198690J0D01*
G01*
X133484690Y-119634000D02*
G75*
G03X133484690Y-119634000I-4198690J0D01*
G01*
D12*
X131572000Y-84010500D02*
G75*
G03X131572000Y-84010500I-2286000J0D01*
G01*
X167132000Y-84010500D02*
G75*
G03X167132000Y-84010500I-2286000J0D01*
G01*
X167068000Y-119570000D02*
G75*
G03X167068000Y-119570000I-2286000J0D01*
G01*
X131572000Y-119570000D02*
G75*
G03X131572000Y-119570000I-2286000J0D01*
G01*
X156972000Y-121793000D02*
X136652000Y-121793000D01*
X139192000Y-116713000D02*
X156972000Y-116713000D01*
X156972000Y-121793000D02*
X156972000Y-116713000D01*
X136652000Y-121793000D02*
X136652000Y-119253000D01*
X137922000Y-116433000D02*
X136372000Y-116433000D01*
X136652000Y-119253000D02*
X139192000Y-119253000D01*
X139192000Y-119253000D02*
X139192000Y-116713000D01*
X136372000Y-116433000D02*
X136372000Y-117983000D01*
X136706000Y-81730000D02*
X157026000Y-81730000D01*
X154486000Y-86810000D02*
X136706000Y-86810000D01*
X136706000Y-81730000D02*
X136706000Y-86810000D01*
X157026000Y-81730000D02*
X157026000Y-84270000D01*
X155756000Y-87090000D02*
X157306000Y-87090000D01*
X157026000Y-84270000D02*
X154486000Y-84270000D01*
X154486000Y-84270000D02*
X154486000Y-86810000D01*
X157306000Y-87090000D02*
X157306000Y-85540000D01*
D13*
X145175840Y-102936140D02*
X145175840Y-102735480D01*
X145175840Y-102936140D02*
X146974160Y-102936140D01*
X146974160Y-102936140D02*
X146974160Y-102735480D01*
X146974160Y-99933860D02*
X146974160Y-100134520D01*
X145175840Y-99933860D02*
X145175840Y-100134520D01*
X146974160Y-99933860D02*
X145175840Y-99933860D01*
X145353840Y-112575140D02*
X145353840Y-112374480D01*
X145353840Y-112575140D02*
X147152160Y-112575140D01*
X147152160Y-112575140D02*
X147152160Y-112374480D01*
X147152160Y-109572860D02*
X147152160Y-109773520D01*
X145353840Y-109572860D02*
X145353840Y-109773520D01*
X147152160Y-109572860D02*
X145353840Y-109572860D01*
X142991840Y-93322140D02*
X142991840Y-93121480D01*
X142991840Y-93322140D02*
X144790160Y-93322140D01*
X144790160Y-93322140D02*
X144790160Y-93121480D01*
X144790160Y-90319860D02*
X144790160Y-90520520D01*
X142991840Y-90319860D02*
X142991840Y-90520520D01*
X144790160Y-90319860D02*
X142991840Y-90319860D01*
D12*
X148604000Y-94199000D02*
X148604000Y-92999000D01*
X150354000Y-92999000D02*
X150354000Y-94199000D01*
X148068000Y-92999000D02*
X148068000Y-94199000D01*
X146318000Y-94199000D02*
X146318000Y-92999000D01*
X150458000Y-113767000D02*
X150458000Y-112567000D01*
X152208000Y-112567000D02*
X152208000Y-113767000D01*
X150176000Y-112567000D02*
X150176000Y-113767000D01*
X148426000Y-113767000D02*
X148426000Y-112567000D01*
X150280000Y-103749000D02*
X150280000Y-102549000D01*
X152030000Y-102549000D02*
X152030000Y-103749000D01*
X149998000Y-102549000D02*
X149998000Y-103749000D01*
X148248000Y-103749000D02*
X148248000Y-102549000D01*
X150136000Y-89789000D02*
G75*
G03X148636000Y-88289000I-1500000J0D01*
G01*
X148636000Y-91289000D02*
G75*
G03X150136000Y-89789000I0J1500000D01*
G01*
X148036000Y-88289000D02*
G75*
G03X146536000Y-89789000I0J-1500000D01*
G01*
X146536000Y-89789000D02*
G75*
G03X148036000Y-91289000I1500000J0D01*
G01*
X147836000Y-91289000D02*
X148836000Y-91289000D01*
X147836000Y-88289000D02*
X148836000Y-88289000D01*
X151939000Y-99339400D02*
G75*
G03X150439000Y-97839400I-1500000J0D01*
G01*
X150439000Y-100839400D02*
G75*
G03X151939000Y-99339400I0J1500000D01*
G01*
X149839000Y-97839400D02*
G75*
G03X148339000Y-99339400I0J-1500000D01*
G01*
X148339000Y-99339400D02*
G75*
G03X149839000Y-100839400I1500000J0D01*
G01*
X149639000Y-100839400D02*
X150639000Y-100839400D01*
X149639000Y-97839400D02*
X150639000Y-97839400D01*
X152117000Y-109296000D02*
G75*
G03X150617000Y-107796000I-1500000J0D01*
G01*
X150617000Y-110796000D02*
G75*
G03X152117000Y-109296000I0J1500000D01*
G01*
X150017000Y-107796000D02*
G75*
G03X148517000Y-109296000I0J-1500000D01*
G01*
X148517000Y-109296000D02*
G75*
G03X150017000Y-110796000I1500000J0D01*
G01*
X149817000Y-110796000D02*
X150817000Y-110796000D01*
X149817000Y-107796000D02*
X150817000Y-107796000D01*
X158390140Y-87657940D02*
X158390140Y-88008460D01*
X158390140Y-91158060D02*
X158390140Y-90807540D01*
X154340560Y-87657940D02*
X154340560Y-88008460D01*
X158841440Y-87657940D02*
X158841440Y-88008460D01*
X158841440Y-91158060D02*
X158841440Y-90807540D01*
X154340560Y-91158060D02*
X154340560Y-90807540D01*
X158841440Y-87657940D02*
X154340560Y-87657940D01*
X158841440Y-91158060D02*
X154340560Y-91158060D01*
X160542000Y-90643000D02*
X160542000Y-89443000D01*
X162292000Y-89443000D02*
X162292000Y-90643000D01*
X139409000Y-104935000D02*
X139409000Y-105935000D01*
X141109000Y-105935000D02*
X141109000Y-104935000D01*
D14*
X155587300Y-107327900D02*
X169570000Y-107327900D01*
X155587300Y-94196100D02*
X169570000Y-94196100D01*
X169570000Y-107239000D02*
X169570000Y-94285000D01*
X155574600Y-107264400D02*
X155574600Y-94259600D01*
X161823000Y-95682000D02*
X168173000Y-96317000D01*
X168173000Y-96317000D02*
X168173000Y-99492000D01*
X168173000Y-99492000D02*
X161823000Y-100127000D01*
X161823000Y-105842000D02*
X168173000Y-105207000D01*
X168173000Y-105207000D02*
X168173000Y-102032000D01*
X168173000Y-102032000D02*
X161823000Y-101397000D01*
D12*
X150740000Y-90821000D02*
X150740000Y-92821000D01*
X152790000Y-92821000D02*
X152790000Y-90821000D01*
X162754000Y-89830400D02*
X162754000Y-91830400D01*
X164804000Y-91830400D02*
X164804000Y-89830400D01*
X152416000Y-100295000D02*
X152416000Y-102295000D01*
X154466000Y-102295000D02*
X154466000Y-100295000D01*
X152721000Y-110227000D02*
X152721000Y-112227000D01*
X154771000Y-112227000D02*
X154771000Y-110227000D01*
X141487000Y-92948000D02*
X141487000Y-90948000D01*
X139437000Y-90948000D02*
X139437000Y-92948000D01*
X143671000Y-102498000D02*
X143671000Y-100498000D01*
X141621000Y-100498000D02*
X141621000Y-102498000D01*
X143976000Y-112201000D02*
X143976000Y-110201000D01*
X141926000Y-110201000D02*
X141926000Y-112201000D01*
X133491000Y-94818000D02*
X133491000Y-91118000D01*
X135291000Y-94818000D02*
X135291000Y-91118000D01*
X162814000Y-112025000D02*
X159114000Y-112025000D01*
X162814000Y-110225000D02*
X159114000Y-110225000D01*
X124573540Y-88812000D02*
X124573540Y-97512000D01*
X130978540Y-88812000D02*
X130978540Y-97512000D01*
X130978540Y-97512000D02*
X124573540Y-97512000D01*
X125803540Y-97512000D02*
X125803540Y-88812000D01*
X124573540Y-88812000D02*
X130978540Y-88812000D01*
D15*
X123366000Y-99294000D02*
X137816000Y-99294000D01*
X137816000Y-99294000D02*
X137815440Y-114068580D01*
X137815440Y-114068580D02*
X123341000Y-114069000D01*
X123366000Y-114069000D02*
X123366000Y-99294000D01*
D12*
X128524095Y-81414881D02*
X128524095Y-80414881D01*
X128524095Y-80891071D02*
X129095524Y-80891071D01*
X129095524Y-81414881D02*
X129095524Y-80414881D01*
X129524095Y-80510119D02*
X129571714Y-80462500D01*
X129666952Y-80414881D01*
X129905048Y-80414881D01*
X130000286Y-80462500D01*
X130047905Y-80510119D01*
X130095524Y-80605357D01*
X130095524Y-80700595D01*
X130047905Y-80843452D01*
X129476476Y-81414881D01*
X130095524Y-81414881D01*
X164084095Y-81414881D02*
X164084095Y-80414881D01*
X164084095Y-80891071D02*
X164655524Y-80891071D01*
X164655524Y-81414881D02*
X164655524Y-80414881D01*
X165655524Y-81414881D02*
X165084095Y-81414881D01*
X165369809Y-81414881D02*
X165369809Y-80414881D01*
X165274571Y-80557738D01*
X165179333Y-80652976D01*
X165084095Y-80700595D01*
X164020095Y-116974381D02*
X164020095Y-115974381D01*
X164020095Y-116450571D02*
X164591524Y-116450571D01*
X164591524Y-116974381D02*
X164591524Y-115974381D01*
X165496286Y-116307714D02*
X165496286Y-116974381D01*
X165258190Y-115926762D02*
X165020095Y-116641048D01*
X165639143Y-116641048D01*
X128524095Y-116974381D02*
X128524095Y-115974381D01*
X128524095Y-116450571D02*
X129095524Y-116450571D01*
X129095524Y-116974381D02*
X129095524Y-115974381D01*
X129476476Y-115974381D02*
X130095524Y-115974381D01*
X129762190Y-116355333D01*
X129905048Y-116355333D01*
X130000286Y-116402952D01*
X130047905Y-116450571D01*
X130095524Y-116545810D01*
X130095524Y-116783905D01*
X130047905Y-116879143D01*
X130000286Y-116926762D01*
X129905048Y-116974381D01*
X129619333Y-116974381D01*
X129524095Y-116926762D01*
X129476476Y-116879143D01*
X137183905Y-113335381D02*
X137183905Y-112335381D01*
X137564858Y-112335381D01*
X137660096Y-112383000D01*
X137707715Y-112430619D01*
X137755334Y-112525857D01*
X137755334Y-112668714D01*
X137707715Y-112763952D01*
X137660096Y-112811571D01*
X137564858Y-112859190D01*
X137183905Y-112859190D01*
X138707715Y-113335381D02*
X138136286Y-113335381D01*
X138422000Y-113335381D02*
X138422000Y-112335381D01*
X138326762Y-112478238D01*
X138231524Y-112573476D01*
X138136286Y-112621095D01*
X155017905Y-91092381D02*
X155017905Y-90092381D01*
X155398858Y-90092381D01*
X155494096Y-90140000D01*
X155541715Y-90187619D01*
X155589334Y-90282857D01*
X155589334Y-90425714D01*
X155541715Y-90520952D01*
X155494096Y-90568571D01*
X155398858Y-90616190D01*
X155017905Y-90616190D01*
X155970286Y-90187619D02*
X156017905Y-90140000D01*
X156113143Y-90092381D01*
X156351239Y-90092381D01*
X156446477Y-90140000D01*
X156494096Y-90187619D01*
X156541715Y-90282857D01*
X156541715Y-90378095D01*
X156494096Y-90520952D01*
X155922667Y-91092381D01*
X156541715Y-91092381D01*
D13*
X145741171Y-101899457D02*
X146234657Y-101899457D01*
X146292714Y-101870429D01*
X146321743Y-101841400D01*
X146350771Y-101783343D01*
X146350771Y-101667229D01*
X146321743Y-101609171D01*
X146292714Y-101580143D01*
X146234657Y-101551114D01*
X145741171Y-101551114D01*
X145799229Y-101289857D02*
X145770200Y-101260828D01*
X145741171Y-101202771D01*
X145741171Y-101057628D01*
X145770200Y-100999571D01*
X145799229Y-100970542D01*
X145857286Y-100941514D01*
X145915343Y-100941514D01*
X146002429Y-100970542D01*
X146350771Y-101318885D01*
X146350771Y-100941514D01*
X145919171Y-111538457D02*
X146412657Y-111538457D01*
X146470714Y-111509429D01*
X146499743Y-111480400D01*
X146528771Y-111422343D01*
X146528771Y-111306229D01*
X146499743Y-111248171D01*
X146470714Y-111219143D01*
X146412657Y-111190114D01*
X145919171Y-111190114D01*
X145919171Y-110957885D02*
X145919171Y-110580514D01*
X146151400Y-110783714D01*
X146151400Y-110696628D01*
X146180429Y-110638571D01*
X146209457Y-110609542D01*
X146267514Y-110580514D01*
X146412657Y-110580514D01*
X146470714Y-110609542D01*
X146499743Y-110638571D01*
X146528771Y-110696628D01*
X146528771Y-110870800D01*
X146499743Y-110928857D01*
X146470714Y-110957885D01*
X143557171Y-92285457D02*
X144050657Y-92285457D01*
X144108714Y-92256429D01*
X144137743Y-92227400D01*
X144166771Y-92169343D01*
X144166771Y-92053229D01*
X144137743Y-91995171D01*
X144108714Y-91966143D01*
X144050657Y-91937114D01*
X143557171Y-91937114D01*
X144166771Y-91327514D02*
X144166771Y-91675857D01*
X144166771Y-91501685D02*
X143557171Y-91501685D01*
X143644257Y-91559742D01*
X143702314Y-91617800D01*
X143731343Y-91675857D01*
D12*
X152031381Y-93765666D02*
X151555190Y-94099000D01*
X152031381Y-94337095D02*
X151031381Y-94337095D01*
X151031381Y-93956142D01*
X151079000Y-93860904D01*
X151126619Y-93813285D01*
X151221857Y-93765666D01*
X151364714Y-93765666D01*
X151459952Y-93813285D01*
X151507571Y-93860904D01*
X151555190Y-93956142D01*
X151555190Y-94337095D01*
X152031381Y-92813285D02*
X152031381Y-93384714D01*
X152031381Y-93099000D02*
X151031381Y-93099000D01*
X151174238Y-93194238D01*
X151269476Y-93289476D01*
X151317095Y-93384714D01*
X145545381Y-93765666D02*
X145069190Y-94099000D01*
X145545381Y-94337095D02*
X144545381Y-94337095D01*
X144545381Y-93956142D01*
X144593000Y-93860904D01*
X144640619Y-93813285D01*
X144735857Y-93765666D01*
X144878714Y-93765666D01*
X144973952Y-93813285D01*
X145021571Y-93860904D01*
X145069190Y-93956142D01*
X145069190Y-94337095D01*
X144640619Y-93384714D02*
X144593000Y-93337095D01*
X144545381Y-93241857D01*
X144545381Y-93003761D01*
X144593000Y-92908523D01*
X144640619Y-92860904D01*
X144735857Y-92813285D01*
X144831095Y-92813285D01*
X144973952Y-92860904D01*
X145545381Y-93432333D01*
X145545381Y-92813285D01*
X153885381Y-113333666D02*
X153409190Y-113667000D01*
X153885381Y-113905095D02*
X152885381Y-113905095D01*
X152885381Y-113524142D01*
X152933000Y-113428904D01*
X152980619Y-113381285D01*
X153075857Y-113333666D01*
X153218714Y-113333666D01*
X153313952Y-113381285D01*
X153361571Y-113428904D01*
X153409190Y-113524142D01*
X153409190Y-113905095D01*
X152885381Y-113000333D02*
X152885381Y-112381285D01*
X153266333Y-112714619D01*
X153266333Y-112571761D01*
X153313952Y-112476523D01*
X153361571Y-112428904D01*
X153456810Y-112381285D01*
X153694905Y-112381285D01*
X153790143Y-112428904D01*
X153837762Y-112476523D01*
X153885381Y-112571761D01*
X153885381Y-112857476D01*
X153837762Y-112952714D01*
X153790143Y-113000333D01*
X147653381Y-113333666D02*
X147177190Y-113667000D01*
X147653381Y-113905095D02*
X146653381Y-113905095D01*
X146653381Y-113524142D01*
X146701000Y-113428904D01*
X146748619Y-113381285D01*
X146843857Y-113333666D01*
X146986714Y-113333666D01*
X147081952Y-113381285D01*
X147129571Y-113428904D01*
X147177190Y-113524142D01*
X147177190Y-113905095D01*
X146986714Y-112476523D02*
X147653381Y-112476523D01*
X146605762Y-112714619D02*
X147320048Y-112952714D01*
X147320048Y-112333666D01*
X153707381Y-103315666D02*
X153231190Y-103649000D01*
X153707381Y-103887095D02*
X152707381Y-103887095D01*
X152707381Y-103506142D01*
X152755000Y-103410904D01*
X152802619Y-103363285D01*
X152897857Y-103315666D01*
X153040714Y-103315666D01*
X153135952Y-103363285D01*
X153183571Y-103410904D01*
X153231190Y-103506142D01*
X153231190Y-103887095D01*
X152707381Y-102410904D02*
X152707381Y-102887095D01*
X153183571Y-102934714D01*
X153135952Y-102887095D01*
X153088333Y-102791857D01*
X153088333Y-102553761D01*
X153135952Y-102458523D01*
X153183571Y-102410904D01*
X153278810Y-102363285D01*
X153516905Y-102363285D01*
X153612143Y-102410904D01*
X153659762Y-102458523D01*
X153707381Y-102553761D01*
X153707381Y-102791857D01*
X153659762Y-102887095D01*
X153612143Y-102934714D01*
X147475381Y-103315666D02*
X146999190Y-103649000D01*
X147475381Y-103887095D02*
X146475381Y-103887095D01*
X146475381Y-103506142D01*
X146523000Y-103410904D01*
X146570619Y-103363285D01*
X146665857Y-103315666D01*
X146808714Y-103315666D01*
X146903952Y-103363285D01*
X146951571Y-103410904D01*
X146999190Y-103506142D01*
X146999190Y-103887095D01*
X146475381Y-102458523D02*
X146475381Y-102649000D01*
X146523000Y-102744238D01*
X146570619Y-102791857D01*
X146713476Y-102887095D01*
X146903952Y-102934714D01*
X147284905Y-102934714D01*
X147380143Y-102887095D01*
X147427762Y-102839476D01*
X147475381Y-102744238D01*
X147475381Y-102553761D01*
X147427762Y-102458523D01*
X147380143Y-102410904D01*
X147284905Y-102363285D01*
X147046810Y-102363285D01*
X146951571Y-102410904D01*
X146903952Y-102458523D01*
X146856333Y-102553761D01*
X146856333Y-102744238D01*
X146903952Y-102839476D01*
X146951571Y-102887095D01*
X147046810Y-102934714D01*
X146188381Y-89855666D02*
X146188381Y-90331857D01*
X145188381Y-90331857D01*
X146188381Y-88998523D02*
X146188381Y-89569952D01*
X146188381Y-89284238D02*
X145188381Y-89284238D01*
X145331238Y-89379476D01*
X145426476Y-89474714D01*
X145474095Y-89569952D01*
X147991381Y-99406066D02*
X147991381Y-99882257D01*
X146991381Y-99882257D01*
X147086619Y-99120352D02*
X147039000Y-99072733D01*
X146991381Y-98977495D01*
X146991381Y-98739399D01*
X147039000Y-98644161D01*
X147086619Y-98596542D01*
X147181857Y-98548923D01*
X147277095Y-98548923D01*
X147419952Y-98596542D01*
X147991381Y-99167971D01*
X147991381Y-98548923D01*
X148169381Y-109362666D02*
X148169381Y-109838857D01*
X147169381Y-109838857D01*
X147169381Y-109124571D02*
X147169381Y-108505523D01*
X147550333Y-108838857D01*
X147550333Y-108695999D01*
X147597952Y-108600761D01*
X147645571Y-108553142D01*
X147740810Y-108505523D01*
X147978905Y-108505523D01*
X148074143Y-108553142D01*
X148121762Y-108600761D01*
X148169381Y-108695999D01*
X148169381Y-108981714D01*
X148121762Y-109076952D01*
X148074143Y-109124571D01*
X155852905Y-93670381D02*
X155852905Y-92670381D01*
X156091000Y-92670381D01*
X156233858Y-92718000D01*
X156329096Y-92813238D01*
X156376715Y-92908476D01*
X156424334Y-93098952D01*
X156424334Y-93241810D01*
X156376715Y-93432286D01*
X156329096Y-93527524D01*
X156233858Y-93622762D01*
X156091000Y-93670381D01*
X155852905Y-93670381D01*
X157376715Y-93670381D02*
X156805286Y-93670381D01*
X157091000Y-93670381D02*
X157091000Y-92670381D01*
X156995762Y-92813238D01*
X156900524Y-92908476D01*
X156805286Y-92956095D01*
X159229095Y-86910381D02*
X159229095Y-85910381D01*
X159800524Y-86910381D02*
X159371952Y-86338952D01*
X159800524Y-85910381D02*
X159229095Y-86481810D01*
X153452905Y-86674667D02*
X153929096Y-86674667D01*
X153357667Y-86960381D02*
X153691000Y-85960381D01*
X154024334Y-86960381D01*
X163969381Y-90158866D02*
X163493190Y-90492200D01*
X163969381Y-90730295D02*
X162969381Y-90730295D01*
X162969381Y-90349342D01*
X163017000Y-90254104D01*
X163064619Y-90206485D01*
X163159857Y-90158866D01*
X163302714Y-90158866D01*
X163397952Y-90206485D01*
X163445571Y-90254104D01*
X163493190Y-90349342D01*
X163493190Y-90730295D01*
X162969381Y-89825533D02*
X162969381Y-89158866D01*
X163969381Y-89587438D01*
X138516143Y-105601666D02*
X138563762Y-105649285D01*
X138611381Y-105792142D01*
X138611381Y-105887380D01*
X138563762Y-106030238D01*
X138468524Y-106125476D01*
X138373286Y-106173095D01*
X138182810Y-106220714D01*
X138039952Y-106220714D01*
X137849476Y-106173095D01*
X137754238Y-106125476D01*
X137659000Y-106030238D01*
X137611381Y-105887380D01*
X137611381Y-105792142D01*
X137659000Y-105649285D01*
X137706619Y-105601666D01*
X138039952Y-105030238D02*
X137992333Y-105125476D01*
X137944714Y-105173095D01*
X137849476Y-105220714D01*
X137801857Y-105220714D01*
X137706619Y-105173095D01*
X137659000Y-105125476D01*
X137611381Y-105030238D01*
X137611381Y-104839761D01*
X137659000Y-104744523D01*
X137706619Y-104696904D01*
X137801857Y-104649285D01*
X137849476Y-104649285D01*
X137944714Y-104696904D01*
X137992333Y-104744523D01*
X138039952Y-104839761D01*
X138039952Y-105030238D01*
X138087571Y-105125476D01*
X138135190Y-105173095D01*
X138230429Y-105220714D01*
X138420905Y-105220714D01*
X138516143Y-105173095D01*
X138563762Y-105125476D01*
X138611381Y-105030238D01*
X138611381Y-104839761D01*
X138563762Y-104744523D01*
X138516143Y-104696904D01*
X138420905Y-104649285D01*
X138230429Y-104649285D01*
X138135190Y-104696904D01*
X138087571Y-104744523D01*
X138039952Y-104839761D01*
X156126143Y-99927429D02*
X156126143Y-101161143D01*
X156198715Y-101306286D01*
X156271286Y-101378857D01*
X156416429Y-101451429D01*
X156706715Y-101451429D01*
X156851857Y-101378857D01*
X156924429Y-101306286D01*
X156997000Y-101161143D01*
X156997000Y-99927429D01*
X157650143Y-101378857D02*
X157867857Y-101451429D01*
X158230714Y-101451429D01*
X158375857Y-101378857D01*
X158448428Y-101306286D01*
X158521000Y-101161143D01*
X158521000Y-101016000D01*
X158448428Y-100870857D01*
X158375857Y-100798286D01*
X158230714Y-100725714D01*
X157940428Y-100653143D01*
X157795286Y-100580571D01*
X157722714Y-100508000D01*
X157650143Y-100362857D01*
X157650143Y-100217714D01*
X157722714Y-100072571D01*
X157795286Y-100000000D01*
X157940428Y-99927429D01*
X158303286Y-99927429D01*
X158521000Y-100000000D01*
X159682143Y-100653143D02*
X159899857Y-100725714D01*
X159972429Y-100798286D01*
X160045000Y-100943429D01*
X160045000Y-101161143D01*
X159972429Y-101306286D01*
X159899857Y-101378857D01*
X159754715Y-101451429D01*
X159174143Y-101451429D01*
X159174143Y-99927429D01*
X159682143Y-99927429D01*
X159827286Y-100000000D01*
X159899857Y-100072571D01*
X159972429Y-100217714D01*
X159972429Y-100362857D01*
X159899857Y-100508000D01*
X159827286Y-100580571D01*
X159682143Y-100653143D01*
X159174143Y-100653143D01*
X160335286Y-101596571D02*
X161496429Y-101596571D01*
X161786715Y-101016000D02*
X162512429Y-101016000D01*
X161641572Y-101451429D02*
X162149572Y-99927429D01*
X162657572Y-101451429D01*
X149822143Y-91987666D02*
X149869762Y-92035285D01*
X149917381Y-92178142D01*
X149917381Y-92273380D01*
X149869762Y-92416238D01*
X149774524Y-92511476D01*
X149679286Y-92559095D01*
X149488810Y-92606714D01*
X149345952Y-92606714D01*
X149155476Y-92559095D01*
X149060238Y-92511476D01*
X148965000Y-92416238D01*
X148917381Y-92273380D01*
X148917381Y-92178142D01*
X148965000Y-92035285D01*
X149012619Y-91987666D01*
X149012619Y-91606714D02*
X148965000Y-91559095D01*
X148917381Y-91463857D01*
X148917381Y-91225761D01*
X148965000Y-91130523D01*
X149012619Y-91082904D01*
X149107857Y-91035285D01*
X149203095Y-91035285D01*
X149345952Y-91082904D01*
X149917381Y-91654333D01*
X149917381Y-91035285D01*
X161836143Y-90997066D02*
X161883762Y-91044685D01*
X161931381Y-91187542D01*
X161931381Y-91282780D01*
X161883762Y-91425638D01*
X161788524Y-91520876D01*
X161693286Y-91568495D01*
X161502810Y-91616114D01*
X161359952Y-91616114D01*
X161169476Y-91568495D01*
X161074238Y-91520876D01*
X160979000Y-91425638D01*
X160931381Y-91282780D01*
X160931381Y-91187542D01*
X160979000Y-91044685D01*
X161026619Y-90997066D01*
X160931381Y-90663733D02*
X160931381Y-89997066D01*
X161931381Y-90425638D01*
X151498143Y-101461666D02*
X151545762Y-101509285D01*
X151593381Y-101652142D01*
X151593381Y-101747380D01*
X151545762Y-101890238D01*
X151450524Y-101985476D01*
X151355286Y-102033095D01*
X151164810Y-102080714D01*
X151021952Y-102080714D01*
X150831476Y-102033095D01*
X150736238Y-101985476D01*
X150641000Y-101890238D01*
X150593381Y-101747380D01*
X150593381Y-101652142D01*
X150641000Y-101509285D01*
X150688619Y-101461666D01*
X150593381Y-100604523D02*
X150593381Y-100795000D01*
X150641000Y-100890238D01*
X150688619Y-100937857D01*
X150831476Y-101033095D01*
X151021952Y-101080714D01*
X151402905Y-101080714D01*
X151498143Y-101033095D01*
X151545762Y-100985476D01*
X151593381Y-100890238D01*
X151593381Y-100699761D01*
X151545762Y-100604523D01*
X151498143Y-100556904D01*
X151402905Y-100509285D01*
X151164810Y-100509285D01*
X151069571Y-100556904D01*
X151021952Y-100604523D01*
X150974333Y-100699761D01*
X150974333Y-100890238D01*
X151021952Y-100985476D01*
X151069571Y-101033095D01*
X151164810Y-101080714D01*
X151803143Y-111393666D02*
X151850762Y-111441285D01*
X151898381Y-111584142D01*
X151898381Y-111679380D01*
X151850762Y-111822238D01*
X151755524Y-111917476D01*
X151660286Y-111965095D01*
X151469810Y-112012714D01*
X151326952Y-112012714D01*
X151136476Y-111965095D01*
X151041238Y-111917476D01*
X150946000Y-111822238D01*
X150898381Y-111679380D01*
X150898381Y-111584142D01*
X150946000Y-111441285D01*
X150993619Y-111393666D01*
X150898381Y-110488904D02*
X150898381Y-110965095D01*
X151374571Y-111012714D01*
X151326952Y-110965095D01*
X151279333Y-110869857D01*
X151279333Y-110631761D01*
X151326952Y-110536523D01*
X151374571Y-110488904D01*
X151469810Y-110441285D01*
X151707905Y-110441285D01*
X151803143Y-110488904D01*
X151850762Y-110536523D01*
X151898381Y-110631761D01*
X151898381Y-110869857D01*
X151850762Y-110965095D01*
X151803143Y-111012714D01*
X143119143Y-92114666D02*
X143166762Y-92162285D01*
X143214381Y-92305142D01*
X143214381Y-92400380D01*
X143166762Y-92543238D01*
X143071524Y-92638476D01*
X142976286Y-92686095D01*
X142785810Y-92733714D01*
X142642952Y-92733714D01*
X142452476Y-92686095D01*
X142357238Y-92638476D01*
X142262000Y-92543238D01*
X142214381Y-92400380D01*
X142214381Y-92305142D01*
X142262000Y-92162285D01*
X142309619Y-92114666D01*
X143214381Y-91162285D02*
X143214381Y-91733714D01*
X143214381Y-91448000D02*
X142214381Y-91448000D01*
X142357238Y-91543238D01*
X142452476Y-91638476D01*
X142500095Y-91733714D01*
X145303143Y-101664666D02*
X145350762Y-101712285D01*
X145398381Y-101855142D01*
X145398381Y-101950380D01*
X145350762Y-102093238D01*
X145255524Y-102188476D01*
X145160286Y-102236095D01*
X144969810Y-102283714D01*
X144826952Y-102283714D01*
X144636476Y-102236095D01*
X144541238Y-102188476D01*
X144446000Y-102093238D01*
X144398381Y-101950380D01*
X144398381Y-101855142D01*
X144446000Y-101712285D01*
X144493619Y-101664666D01*
X144398381Y-101331333D02*
X144398381Y-100712285D01*
X144779333Y-101045619D01*
X144779333Y-100902761D01*
X144826952Y-100807523D01*
X144874571Y-100759904D01*
X144969810Y-100712285D01*
X145207905Y-100712285D01*
X145303143Y-100759904D01*
X145350762Y-100807523D01*
X145398381Y-100902761D01*
X145398381Y-101188476D01*
X145350762Y-101283714D01*
X145303143Y-101331333D01*
X145608143Y-111367666D02*
X145655762Y-111415285D01*
X145703381Y-111558142D01*
X145703381Y-111653380D01*
X145655762Y-111796238D01*
X145560524Y-111891476D01*
X145465286Y-111939095D01*
X145274810Y-111986714D01*
X145131952Y-111986714D01*
X144941476Y-111939095D01*
X144846238Y-111891476D01*
X144751000Y-111796238D01*
X144703381Y-111653380D01*
X144703381Y-111558142D01*
X144751000Y-111415285D01*
X144798619Y-111367666D01*
X145036714Y-110510523D02*
X145703381Y-110510523D01*
X144655762Y-110748619D02*
X145370048Y-110986714D01*
X145370048Y-110367666D01*
X136648143Y-93860857D02*
X136695762Y-93908476D01*
X136743381Y-94051333D01*
X136743381Y-94146571D01*
X136695762Y-94289429D01*
X136600524Y-94384667D01*
X136505286Y-94432286D01*
X136314810Y-94479905D01*
X136171952Y-94479905D01*
X135981476Y-94432286D01*
X135886238Y-94384667D01*
X135791000Y-94289429D01*
X135743381Y-94146571D01*
X135743381Y-94051333D01*
X135791000Y-93908476D01*
X135838619Y-93860857D01*
X136743381Y-92908476D02*
X136743381Y-93479905D01*
X136743381Y-93194191D02*
X135743381Y-93194191D01*
X135886238Y-93289429D01*
X135981476Y-93384667D01*
X136029095Y-93479905D01*
X135838619Y-92527524D02*
X135791000Y-92479905D01*
X135743381Y-92384667D01*
X135743381Y-92146571D01*
X135791000Y-92051333D01*
X135838619Y-92003714D01*
X135933857Y-91956095D01*
X136029095Y-91956095D01*
X136171952Y-92003714D01*
X136743381Y-92575143D01*
X136743381Y-91956095D01*
X160571143Y-109582143D02*
X160523524Y-109629762D01*
X160380667Y-109677381D01*
X160285429Y-109677381D01*
X160142571Y-109629762D01*
X160047333Y-109534524D01*
X159999714Y-109439286D01*
X159952095Y-109248810D01*
X159952095Y-109105952D01*
X159999714Y-108915476D01*
X160047333Y-108820238D01*
X160142571Y-108725000D01*
X160285429Y-108677381D01*
X160380667Y-108677381D01*
X160523524Y-108725000D01*
X160571143Y-108772619D01*
X161523524Y-109677381D02*
X160952095Y-109677381D01*
X161237809Y-109677381D02*
X161237809Y-108677381D01*
X161142571Y-108820238D01*
X161047333Y-108915476D01*
X160952095Y-108963095D01*
X162475905Y-109677381D02*
X161904476Y-109677381D01*
X162190190Y-109677381D02*
X162190190Y-108677381D01*
X162094952Y-108820238D01*
X161999714Y-108915476D01*
X161904476Y-108963095D01*
X132293381Y-93900995D02*
X131293381Y-93900995D01*
X131293381Y-93520042D01*
X131341000Y-93424804D01*
X131388619Y-93377185D01*
X131483857Y-93329566D01*
X131626714Y-93329566D01*
X131721952Y-93377185D01*
X131769571Y-93424804D01*
X131817190Y-93520042D01*
X131817190Y-93900995D01*
X131626714Y-92472423D02*
X132293381Y-92472423D01*
X131245762Y-92710519D02*
X131960048Y-92948614D01*
X131960048Y-92329566D01*
D16*
X129884109Y-107761760D02*
X130972680Y-107761760D01*
X131190394Y-107834332D01*
X131335537Y-107979475D01*
X131408109Y-108197189D01*
X131408109Y-108342332D01*
X131408109Y-106237760D02*
X131408109Y-107108617D01*
X131408109Y-106673189D02*
X129884109Y-106673189D01*
X130101823Y-106818332D01*
X130246966Y-106963474D01*
X130319537Y-107108617D01*
M02*
