G04 #@! TF.FileFunction,Copper,L2,Bot,Signal*
%FSLAX46Y46*%
G04 Gerber Fmt 4.6, Leading zero omitted, Abs format (unit mm)*
G04 Created by KiCad (PCBNEW 4.0.0-2.201511301920+6191~38~ubuntu14.04.1-stable) date Tue 29 Mar 2016 01:13:56 PM ICT*
%MOMM*%
G01*
G04 APERTURE LIST*
%ADD10C,0.100000*%
%ADD11R,1.597660X0.698500*%
%ADD12R,1.399540X1.198880*%
%ADD13R,1.399540X1.597660*%
%ADD14R,2.199640X1.198880*%
%ADD15C,1.000000*%
%ADD16C,1.422400*%
%ADD17C,3.327400*%
%ADD18O,1.550000X1.000000*%
%ADD19R,1.727200X1.727200*%
%ADD20O,1.727200X1.727200*%
%ADD21C,4.064000*%
%ADD22C,1.397000*%
%ADD23R,1.422400X0.899160*%
%ADD24R,0.398780X0.899160*%
%ADD25C,1.800000*%
%ADD26C,0.600000*%
%ADD27C,0.400000*%
%ADD28C,0.200000*%
%ADD29C,0.150000*%
%ADD30C,0.254000*%
G04 APERTURE END LIST*
D10*
D11*
X144208500Y-100238560D03*
X144208500Y-101338380D03*
X144208500Y-102438200D03*
X144208500Y-103535480D03*
X144208500Y-104635300D03*
X144208500Y-105735120D03*
X144208500Y-106834940D03*
X144208500Y-107934760D03*
X144208500Y-109034580D03*
D12*
X143583660Y-110236000D03*
D13*
X143583660Y-95638620D03*
D14*
X133985000Y-110236000D03*
X133985000Y-94736920D03*
D15*
X133583680Y-99438460D03*
X133583680Y-107439460D03*
D16*
X158179200Y-101048700D03*
X158179200Y-103055300D03*
X158179200Y-98559500D03*
D17*
X160897000Y-95486100D03*
X160897000Y-108617900D03*
D16*
X158179200Y-105544500D03*
D18*
X125862000Y-99437000D03*
X125862000Y-105062000D03*
D19*
X135567000Y-117942000D03*
D20*
X135567000Y-120482000D03*
X138107000Y-117942000D03*
X138107000Y-120482000D03*
X140647000Y-117942000D03*
X140647000Y-120482000D03*
X143187000Y-117942000D03*
X143187000Y-120482000D03*
X145727000Y-117942000D03*
X145727000Y-120482000D03*
X148267000Y-117942000D03*
X148267000Y-120482000D03*
X150807000Y-117942000D03*
X150807000Y-120482000D03*
X153347000Y-117942000D03*
X153347000Y-120482000D03*
X155887000Y-117942000D03*
X155887000Y-120482000D03*
X158427000Y-117942000D03*
X158427000Y-120482000D03*
D19*
X135557000Y-82892000D03*
D20*
X135557000Y-85432000D03*
X138097000Y-82892000D03*
X138097000Y-85432000D03*
X140637000Y-82892000D03*
X140637000Y-85432000D03*
X143177000Y-82892000D03*
X143177000Y-85432000D03*
X145717000Y-82892000D03*
X145717000Y-85432000D03*
X148257000Y-82892000D03*
X148257000Y-85432000D03*
X150797000Y-82892000D03*
X150797000Y-85432000D03*
X153337000Y-82892000D03*
X153337000Y-85432000D03*
X155877000Y-82892000D03*
X155877000Y-85432000D03*
X158417000Y-82892000D03*
X158417000Y-85432000D03*
D21*
X164900000Y-84000000D03*
X129300000Y-84000000D03*
X129200000Y-119600000D03*
X164700000Y-119600000D03*
D22*
X139667000Y-111612000D03*
X139667000Y-114152000D03*
D23*
X137439300Y-95359660D03*
D24*
X139036960Y-96007360D03*
X138437520Y-96007360D03*
X139036960Y-94711960D03*
X138437520Y-94711960D03*
X138087000Y-93762000D03*
X138087000Y-94361440D03*
X136791600Y-93762000D03*
X136791600Y-94361440D03*
X135841640Y-94711960D03*
X136441080Y-94711960D03*
X135841640Y-96007360D03*
X136441080Y-96007360D03*
X136791600Y-96957320D03*
X136791600Y-96357880D03*
X138087000Y-96957320D03*
X138087000Y-96357880D03*
D25*
X133695000Y-113284000D03*
X129195000Y-113284000D03*
D26*
X136547000Y-106842000D03*
X152737000Y-80322000D03*
X156507000Y-80312000D03*
X148617000Y-80292000D03*
X142547000Y-79782000D03*
X137707000Y-88022000D03*
X149737000Y-88262000D03*
X151677000Y-93792000D03*
X152737000Y-95202000D03*
X142307000Y-107812000D03*
X131027000Y-90422000D03*
X126397000Y-88282000D03*
X130357000Y-99752000D03*
X130327000Y-97842000D03*
X135477000Y-103492000D03*
X140917000Y-103342000D03*
X144357000Y-93502000D03*
X127680000Y-90180000D03*
X143583660Y-95638620D03*
X144208500Y-109034580D03*
X133985000Y-110236000D03*
X139337000Y-103332000D03*
X133647000Y-103592000D03*
X127937000Y-105462000D03*
X127937000Y-99062000D03*
X125862000Y-103337000D03*
X125862000Y-101187000D03*
X126117000Y-108762000D03*
X148447000Y-101600000D03*
X152727000Y-100632000D03*
X144667000Y-112992000D03*
X159727000Y-92292000D03*
X165197000Y-89622000D03*
X157657000Y-88452000D03*
X149197000Y-94782000D03*
X155239951Y-94822415D03*
X127807000Y-96132000D03*
X125817000Y-96122000D03*
X130497000Y-92192000D03*
X131877000Y-103462000D03*
X152697000Y-91692000D03*
X145947000Y-87962000D03*
X143967000Y-87972000D03*
X141967000Y-87982000D03*
X139867000Y-87972000D03*
X146447000Y-101600000D03*
X133951887Y-91998767D03*
X139307000Y-101272000D03*
X132327000Y-97842000D03*
X129007000Y-92192000D03*
X132487000Y-92202000D03*
X141472808Y-94713514D03*
X137707000Y-90022000D03*
X142443888Y-96012000D03*
X141940030Y-97850132D03*
X133000000Y-95776362D03*
X165127980Y-92042000D03*
X137040000Y-100670000D03*
X144567000Y-80252000D03*
X136510000Y-99606980D03*
X141452770Y-95453254D03*
X133757626Y-91284708D03*
X134940020Y-99384900D03*
X145947000Y-89862000D03*
D27*
X131027000Y-90422000D02*
X131027000Y-91662000D01*
X131027000Y-91662000D02*
X130497000Y-92192000D01*
X138087000Y-96357880D02*
X138087000Y-96957320D01*
X136791600Y-96357880D02*
X136791600Y-96957320D01*
X136791600Y-96357880D02*
X136441080Y-96007360D01*
X136791600Y-94361440D02*
X136441080Y-94711960D01*
X136441080Y-94711960D02*
X135841640Y-94711960D01*
X136441080Y-96007360D02*
X136441080Y-94711960D01*
X135841640Y-96007360D02*
X136441080Y-96007360D01*
X135841640Y-94711960D02*
X135841640Y-96007360D01*
X136791600Y-93762000D02*
X136791600Y-94361440D01*
X138087000Y-94361440D02*
X138437520Y-94711960D01*
X138087000Y-93762000D02*
X138087000Y-94361440D01*
X139036960Y-94711960D02*
X138437520Y-94711960D01*
X139036960Y-96007360D02*
X139036960Y-94711960D01*
X138437520Y-96007360D02*
X139036960Y-96007360D01*
X138437520Y-94711960D02*
X138437520Y-96007360D01*
X136791600Y-96957320D02*
X138087000Y-96957320D01*
X136791600Y-96357880D02*
X138087000Y-96357880D01*
X136791600Y-94361440D02*
X138087000Y-94361440D01*
X138087000Y-93762000D02*
X136791600Y-93762000D01*
X150606999Y-93782001D02*
X152397001Y-91991999D01*
X150606999Y-94749203D02*
X150606999Y-93782001D01*
X152397001Y-91991999D02*
X152697000Y-91692000D01*
X146447000Y-98909202D02*
X150606999Y-94749203D01*
X146447000Y-101600000D02*
X146447000Y-98909202D01*
X141967000Y-87982000D02*
X139877000Y-87982000D01*
X139877000Y-87982000D02*
X139867000Y-87972000D01*
X143967000Y-87972000D02*
X141977000Y-87972000D01*
X141977000Y-87972000D02*
X141967000Y-87982000D01*
X145947000Y-87962000D02*
X143977000Y-87962000D01*
X143977000Y-87962000D02*
X143967000Y-87972000D01*
D28*
X145937000Y-87972000D02*
X145947000Y-87962000D01*
X143957000Y-87982000D02*
X143967000Y-87972000D01*
X141957000Y-87972000D02*
X141967000Y-87982000D01*
X144208500Y-103535480D02*
X144658080Y-103535480D01*
X144658080Y-103535480D02*
X146447000Y-101746560D01*
X146447000Y-101746560D02*
X146447000Y-101600000D01*
D29*
X144328968Y-96942462D02*
X144575557Y-96942462D01*
X144575557Y-96942462D02*
X146037011Y-95481008D01*
X146037011Y-95481008D02*
X146037011Y-95022304D01*
X141889990Y-105462788D02*
X141889990Y-99381440D01*
X143758920Y-107934760D02*
X142802001Y-106977841D01*
X142802001Y-106374799D02*
X141889990Y-105462788D01*
X141889990Y-99381440D02*
X144328968Y-96942462D01*
X144208500Y-107934760D02*
X143758920Y-107934760D01*
X142802001Y-106977841D02*
X142802001Y-106374799D01*
X146037011Y-95022304D02*
X146580599Y-94478716D01*
X146580599Y-94478716D02*
X146580599Y-86295599D01*
X146580599Y-86295599D02*
X145717000Y-85432000D01*
X148257000Y-93223000D02*
X148257000Y-86653314D01*
X148257000Y-86653314D02*
X148257000Y-85432000D01*
X146327022Y-95152978D02*
X148257000Y-93223000D01*
X146327022Y-95601134D02*
X146327022Y-95152978D01*
X144695683Y-97232473D02*
X146327022Y-95601134D01*
X143758920Y-106834940D02*
X142180001Y-105256021D01*
X144208500Y-106834940D02*
X143758920Y-106834940D01*
X142180001Y-99501566D02*
X144449094Y-97232473D01*
X144449094Y-97232473D02*
X144695683Y-97232473D01*
X142180001Y-105256021D02*
X142180001Y-99501566D01*
X144208500Y-104635300D02*
X143758920Y-104635300D01*
X148547011Y-93343126D02*
X148547011Y-93332578D01*
X150950000Y-90929590D02*
X150950000Y-85279000D01*
X143758920Y-104635300D02*
X142470012Y-103346392D01*
X146617033Y-95721260D02*
X146617033Y-95273103D01*
X142470012Y-103346392D02*
X142470012Y-99621692D01*
X142470012Y-99621692D02*
X144569220Y-97522484D01*
X144569220Y-97522484D02*
X144815809Y-97522484D01*
X144815809Y-97522484D02*
X146617033Y-95721260D01*
X146617033Y-95273103D02*
X148547011Y-93343126D01*
X148547011Y-93332578D02*
X150950000Y-90929590D01*
X150950000Y-85279000D02*
X150797000Y-85432000D01*
X148837022Y-93463252D02*
X148837022Y-93452704D01*
X153337000Y-88952726D02*
X153337000Y-86653314D01*
X148837022Y-93452704D02*
X153337000Y-88952726D01*
X146907044Y-95841386D02*
X146907044Y-95393228D01*
X142799989Y-101479269D02*
X142799989Y-99701852D01*
X144208500Y-102438200D02*
X143758920Y-102438200D01*
X144935935Y-97812495D02*
X146907044Y-95841386D01*
X144689346Y-97812495D02*
X144935935Y-97812495D01*
X143758920Y-102438200D02*
X142799989Y-101479269D01*
X153337000Y-86653314D02*
X153337000Y-85432000D01*
X142799989Y-99701852D02*
X144689346Y-97812495D01*
X146907044Y-95393228D02*
X148837022Y-93463252D01*
X143090000Y-99821978D02*
X144809472Y-98102506D01*
X155877000Y-86653314D02*
X155877000Y-85432000D01*
X152024991Y-90886987D02*
X155877000Y-87034978D01*
X143758920Y-101338380D02*
X143090000Y-100669460D01*
X147197055Y-95513353D02*
X149127033Y-93583378D01*
X147197055Y-95961512D02*
X147197055Y-95513353D01*
X145056061Y-98102506D02*
X147197055Y-95961512D01*
X144809472Y-98102506D02*
X145056061Y-98102506D01*
X143090000Y-100669460D02*
X143090000Y-99821978D01*
X149127033Y-93572830D02*
X151812876Y-90886987D01*
X151812876Y-90886987D02*
X152024991Y-90886987D01*
X155877000Y-87034978D02*
X155877000Y-86653314D01*
X149127033Y-93583378D02*
X149127033Y-93572830D01*
X144208500Y-101338380D02*
X143758920Y-101338380D01*
X157553401Y-86295599D02*
X158417000Y-85432000D01*
X152672002Y-91176998D02*
X157553401Y-86295599D01*
X151933002Y-91176998D02*
X152672002Y-91176998D01*
X149417044Y-93692956D02*
X151933002Y-91176998D01*
X149417044Y-93703504D02*
X149417044Y-93692956D01*
X147487066Y-95633478D02*
X149417044Y-93703504D01*
X144208500Y-99360204D02*
X147487066Y-96081638D01*
X144208500Y-100238560D02*
X144208500Y-99360204D01*
X147487066Y-96081638D02*
X147487066Y-95633478D01*
D28*
X148257000Y-82892000D02*
X147153399Y-81788399D01*
X136847000Y-87902000D02*
X136847000Y-89103654D01*
X147153399Y-81788399D02*
X142647271Y-81788399D01*
X142647271Y-81788399D02*
X141897000Y-82538670D01*
X141897000Y-82538670D02*
X141897000Y-83582000D01*
X141897000Y-83582000D02*
X141307000Y-84172000D01*
X137637000Y-87112000D02*
X136847000Y-87902000D01*
X141307000Y-84172000D02*
X139977000Y-84172000D01*
X139977000Y-84172000D02*
X139320000Y-84829000D01*
X139320000Y-84829000D02*
X139320000Y-86049798D01*
X139320000Y-86049798D02*
X138257798Y-87112000D01*
X138257798Y-87112000D02*
X137637000Y-87112000D01*
X136847000Y-89103654D02*
X134251886Y-91698768D01*
X134251886Y-91698768D02*
X133951887Y-91998767D01*
D27*
X139007001Y-100972001D02*
X139307000Y-101272000D01*
X138890000Y-100855000D02*
X139007001Y-100972001D01*
X138890000Y-99010000D02*
X138890000Y-100855000D01*
X138890000Y-99010000D02*
X138870000Y-99010000D01*
X138870000Y-99010000D02*
X137702000Y-97842000D01*
X137702000Y-97842000D02*
X134539803Y-97842000D01*
X134539803Y-97842000D02*
X132327000Y-97842000D01*
X132487000Y-92202000D02*
X131587000Y-92202000D01*
X131587000Y-92202000D02*
X130887000Y-92902000D01*
X130887000Y-92902000D02*
X129417000Y-92902000D01*
X129417000Y-92902000D02*
X129007000Y-92492000D01*
X129007000Y-92492000D02*
X129007000Y-92192000D01*
X137677000Y-92330000D02*
X134749000Y-92330000D01*
X134749000Y-92330000D02*
X134427000Y-92652000D01*
X134427000Y-92652000D02*
X132937000Y-92652000D01*
X132937000Y-92652000D02*
X132487000Y-92202000D01*
X140525514Y-94713514D02*
X141048544Y-94713514D01*
X141048544Y-94713514D02*
X141472808Y-94713514D01*
X140472000Y-94660000D02*
X140525514Y-94713514D01*
X141671026Y-96182000D02*
X140410000Y-96182000D01*
X142443888Y-96012000D02*
X141841026Y-96012000D01*
X141841026Y-96012000D02*
X141671026Y-96182000D01*
X137707000Y-90022000D02*
X137707000Y-92300000D01*
X137707000Y-92300000D02*
X137677000Y-92330000D01*
X139560000Y-92330000D02*
X137677000Y-92330000D01*
X140410000Y-96182000D02*
X140410000Y-94722000D01*
X140410000Y-97490000D02*
X140410000Y-96182000D01*
X140410000Y-94722000D02*
X140410000Y-93180000D01*
D28*
X140472000Y-94660000D02*
X140410000Y-94722000D01*
D27*
X140410000Y-93180000D02*
X139560000Y-92330000D01*
X138890000Y-99010000D02*
X140410000Y-97490000D01*
D29*
X141481656Y-114105000D02*
X139212001Y-116374655D01*
X139212001Y-119376999D02*
X138107000Y-120482000D01*
X139212001Y-116374655D02*
X139212001Y-119376999D01*
X144351656Y-114105000D02*
X141481656Y-114105000D01*
X156569655Y-101887001D02*
X144351656Y-114105000D01*
X158179200Y-101048700D02*
X157340899Y-101887001D01*
X157340899Y-101887001D02*
X156569655Y-101887001D01*
X141618344Y-114435000D02*
X139541999Y-116511345D01*
X139541999Y-116511345D02*
X139541999Y-119376999D01*
X139541999Y-119376999D02*
X140647000Y-120482000D01*
X144488344Y-114435000D02*
X141618344Y-114435000D01*
X156706345Y-102216999D02*
X144488344Y-114435000D01*
X158179200Y-103055300D02*
X157340899Y-102216999D01*
X157340899Y-102216999D02*
X156706345Y-102216999D01*
X139667000Y-111612000D02*
X141457000Y-109822000D01*
X141457000Y-109822000D02*
X141457000Y-98333162D01*
X141457000Y-98333162D02*
X141640031Y-98150131D01*
X141640031Y-98150131D02*
X141940030Y-97850132D01*
D28*
X131081362Y-95776362D02*
X132575736Y-95776362D01*
X128357000Y-93052000D02*
X131081362Y-95776362D01*
X160112001Y-80852001D02*
X153006201Y-80852001D01*
X148317800Y-80792002D02*
X134787998Y-80792002D01*
X128357000Y-91562000D02*
X128357000Y-93052000D01*
X153006201Y-80852001D02*
X152996201Y-80862001D01*
X132430000Y-83150000D02*
X132430000Y-87489000D01*
X134787998Y-80792002D02*
X132430000Y-83150000D01*
X148387799Y-80862001D02*
X148317800Y-80792002D01*
X152996201Y-80862001D02*
X148387799Y-80862001D01*
X132575736Y-95776362D02*
X133000000Y-95776362D01*
X161180000Y-81920000D02*
X160112001Y-80852001D01*
X161180000Y-87294580D02*
X161180000Y-81920000D01*
X165127980Y-91242560D02*
X161180000Y-87294580D01*
X165127980Y-92042000D02*
X165127980Y-91242560D01*
X132430000Y-87489000D02*
X128357000Y-91562000D01*
X137040000Y-101094264D02*
X137040000Y-100670000D01*
X137040000Y-106535798D02*
X137040000Y-101094264D01*
X137087001Y-106582799D02*
X137040000Y-106535798D01*
X137087001Y-109891999D02*
X137087001Y-106582799D01*
X133695000Y-113284000D02*
X137087001Y-109891999D01*
D29*
X136510000Y-99606980D02*
X135626479Y-98723459D01*
X142164798Y-80252000D02*
X142249799Y-80337001D01*
X127957000Y-94272000D02*
X127957000Y-91516508D01*
X143917000Y-80252000D02*
X144567000Y-80252000D01*
X132408459Y-98723459D02*
X127957000Y-94272000D01*
X127957000Y-91516508D02*
X128241592Y-91231916D01*
X142249799Y-80337001D02*
X143831999Y-80337001D01*
X132107000Y-82582000D02*
X134437000Y-80252000D01*
X143831999Y-80337001D02*
X143917000Y-80252000D01*
X135626479Y-98723459D02*
X132408459Y-98723459D01*
X128241592Y-91231916D02*
X128241592Y-89827408D01*
X132107000Y-85962000D02*
X132107000Y-82582000D01*
X128241592Y-89827408D02*
X132107000Y-85962000D01*
X134437000Y-80252000D02*
X142164798Y-80252000D01*
D28*
X150797000Y-82892000D02*
X149537000Y-84152000D01*
X141116989Y-86982011D02*
X139947989Y-86982011D01*
X149537000Y-84152000D02*
X142387000Y-84152000D01*
X142387000Y-84152000D02*
X141887000Y-84652000D01*
X142470000Y-94860288D02*
X141877034Y-95453254D01*
X141887000Y-84652000D02*
X141887000Y-86212000D01*
X141887000Y-86212000D02*
X141116989Y-86982011D01*
X139947989Y-86982011D02*
X138730000Y-88200000D01*
X138730000Y-89972000D02*
X142470000Y-93712000D01*
X138730000Y-88200000D02*
X138730000Y-89972000D01*
X142470000Y-93712000D02*
X142470000Y-94860288D01*
X141877034Y-95453254D02*
X141452770Y-95453254D01*
X141600020Y-95265736D02*
X141452770Y-95412986D01*
X141452770Y-95412986D02*
X141452770Y-95453254D01*
X153337000Y-82892000D02*
X151893385Y-81448385D01*
X151893385Y-81448385D02*
X140161616Y-81448385D01*
X136790000Y-84820001D02*
X136790000Y-87349000D01*
X140161616Y-81448385D02*
X139357000Y-82253001D01*
X139357000Y-82253001D02*
X139357000Y-83522000D01*
X136790000Y-87349000D02*
X134057625Y-90081375D01*
X139357000Y-83522000D02*
X138747000Y-84132000D01*
X134057625Y-90081375D02*
X134057625Y-90984709D01*
X138747000Y-84132000D02*
X137478001Y-84132000D01*
X137478001Y-84132000D02*
X136790000Y-84820001D01*
X134057625Y-90984709D02*
X133757626Y-91284708D01*
D29*
X138919205Y-101787001D02*
X137287202Y-100154998D01*
X145947000Y-90362000D02*
X145597000Y-90712000D01*
X135710118Y-100154998D02*
X135240019Y-99684899D01*
X139554201Y-101787001D02*
X138919205Y-101787001D01*
X142066549Y-96652451D02*
X139822001Y-98896999D01*
X137287202Y-100154998D02*
X135710118Y-100154998D01*
X144498431Y-96609451D02*
X144455431Y-96652451D01*
X135240019Y-99684899D02*
X134940020Y-99384900D01*
X144498431Y-96371432D02*
X144498431Y-96609451D01*
X145597000Y-90712000D02*
X145597000Y-95272864D01*
X139822001Y-101519201D02*
X139554201Y-101787001D01*
X145597000Y-95272864D02*
X144498431Y-96371432D01*
X144455431Y-96652451D02*
X142066549Y-96652451D01*
X139822001Y-98896999D02*
X139822001Y-101519201D01*
X145947000Y-89862000D02*
X145947000Y-90362000D01*
D30*
G36*
X144212297Y-79720145D02*
X144082215Y-79850000D01*
X143917000Y-79850000D01*
X143763161Y-79880600D01*
X143681745Y-79935001D01*
X142400053Y-79935001D01*
X142318637Y-79880600D01*
X142164798Y-79850000D01*
X134437000Y-79850000D01*
X134283161Y-79880600D01*
X134152743Y-79967743D01*
X131822743Y-82297743D01*
X131735600Y-82428161D01*
X131705000Y-82582000D01*
X131705000Y-85795486D01*
X127957335Y-89543151D01*
X127870192Y-89673569D01*
X127839592Y-89827408D01*
X127839592Y-91065402D01*
X127672743Y-91232251D01*
X127585600Y-91362669D01*
X127555000Y-91516508D01*
X127555000Y-94272000D01*
X127585600Y-94425839D01*
X127672743Y-94556257D01*
X132124202Y-99007716D01*
X132254620Y-99094859D01*
X132408459Y-99125459D01*
X132818187Y-99125459D01*
X132756824Y-99273238D01*
X132756537Y-99602239D01*
X132882175Y-99906306D01*
X133114610Y-100139148D01*
X133418458Y-100265316D01*
X133747459Y-100265603D01*
X134051526Y-100139965D01*
X134284368Y-99907530D01*
X134381198Y-99674337D01*
X134408165Y-99739603D01*
X134584389Y-99916135D01*
X134814755Y-100011791D01*
X134998558Y-100011952D01*
X135425861Y-100439255D01*
X135556279Y-100526398D01*
X135710118Y-100556998D01*
X136413098Y-100556998D01*
X136412891Y-100794171D01*
X136508145Y-101024703D01*
X136613000Y-101129741D01*
X136613000Y-106535793D01*
X136612999Y-106535798D01*
X136645503Y-106699204D01*
X136660001Y-106720902D01*
X136660001Y-109715130D01*
X135719820Y-110655311D01*
X135719820Y-110521750D01*
X135561070Y-110363000D01*
X134112000Y-110363000D01*
X134112000Y-111311690D01*
X134270750Y-111470440D01*
X134904690Y-111470440D01*
X134207074Y-112168056D01*
X133940136Y-112057214D01*
X133452005Y-112056788D01*
X133000869Y-112243194D01*
X132655407Y-112588053D01*
X132468214Y-113038864D01*
X132467788Y-113526995D01*
X132654194Y-113978131D01*
X132999053Y-114323593D01*
X133449864Y-114510786D01*
X133937995Y-114511212D01*
X134389131Y-114324806D01*
X134734593Y-113979947D01*
X134743091Y-113959480D01*
X138321073Y-113959480D01*
X138349852Y-114489199D01*
X138497200Y-114844929D01*
X138732812Y-114906583D01*
X139487395Y-114152000D01*
X138732812Y-113397417D01*
X138497200Y-113459071D01*
X138321073Y-113959480D01*
X134743091Y-113959480D01*
X134921786Y-113529136D01*
X134922057Y-113217812D01*
X138912417Y-113217812D01*
X139667000Y-113972395D01*
X140421583Y-113217812D01*
X140359929Y-112982200D01*
X139859520Y-112806073D01*
X139329801Y-112834852D01*
X138974071Y-112982200D01*
X138912417Y-113217812D01*
X134922057Y-113217812D01*
X134922212Y-113041005D01*
X134811005Y-112771865D01*
X137388933Y-110193936D01*
X137388936Y-110193934D01*
X137481498Y-110055405D01*
X137488773Y-110018830D01*
X137514002Y-109891999D01*
X137514001Y-109891994D01*
X137514001Y-106582799D01*
X137481498Y-106419393D01*
X137467000Y-106397695D01*
X137467000Y-101129684D01*
X137571235Y-101025631D01*
X137576541Y-101012851D01*
X138634948Y-102071258D01*
X138765366Y-102158401D01*
X138919205Y-102189001D01*
X139554201Y-102189001D01*
X139708040Y-102158401D01*
X139838458Y-102071258D01*
X140106258Y-101803458D01*
X140193401Y-101673040D01*
X140224001Y-101519201D01*
X140224001Y-99063513D01*
X141079991Y-98207523D01*
X141055000Y-98333162D01*
X141055000Y-109655486D01*
X140049891Y-110660595D01*
X139871880Y-110586678D01*
X139463910Y-110586322D01*
X139086860Y-110742116D01*
X138798130Y-111030342D01*
X138641678Y-111407120D01*
X138641322Y-111815090D01*
X138797116Y-112192140D01*
X139085342Y-112480870D01*
X139462120Y-112637322D01*
X139870090Y-112637678D01*
X140247140Y-112481884D01*
X140535870Y-112193658D01*
X140692322Y-111816880D01*
X140692678Y-111408910D01*
X140618391Y-111229123D01*
X141325764Y-110521750D01*
X142248890Y-110521750D01*
X142248890Y-110961749D01*
X142345563Y-111195138D01*
X142524191Y-111373767D01*
X142757580Y-111470440D01*
X143297910Y-111470440D01*
X143456660Y-111311690D01*
X143456660Y-110363000D01*
X143710660Y-110363000D01*
X143710660Y-111311690D01*
X143869410Y-111470440D01*
X144409740Y-111470440D01*
X144643129Y-111373767D01*
X144821757Y-111195138D01*
X144918430Y-110961749D01*
X144918430Y-110521750D01*
X144759680Y-110363000D01*
X143710660Y-110363000D01*
X143456660Y-110363000D01*
X142407640Y-110363000D01*
X142248890Y-110521750D01*
X141325764Y-110521750D01*
X141741257Y-110106257D01*
X141828400Y-109975839D01*
X141859000Y-109822000D01*
X141859000Y-106000312D01*
X142400001Y-106541313D01*
X142400001Y-106977841D01*
X142430601Y-107131680D01*
X142517744Y-107262098D01*
X143076264Y-107820618D01*
X143076264Y-108136112D01*
X143049971Y-108147003D01*
X142871343Y-108325632D01*
X142774670Y-108559021D01*
X142774670Y-108748830D01*
X142933418Y-108907578D01*
X142774670Y-108907578D01*
X142774670Y-109001560D01*
X142757580Y-109001560D01*
X142524191Y-109098233D01*
X142345563Y-109276862D01*
X142248890Y-109510251D01*
X142248890Y-109950250D01*
X142407640Y-110109000D01*
X143456660Y-110109000D01*
X143456660Y-110018830D01*
X143710660Y-110018830D01*
X143710660Y-110109000D01*
X144759680Y-110109000D01*
X144849850Y-110018830D01*
X145133640Y-110018830D01*
X145367029Y-109922157D01*
X145545657Y-109743528D01*
X145642330Y-109510139D01*
X145642330Y-109320330D01*
X145483580Y-109161580D01*
X144706476Y-109161580D01*
X144643129Y-109098233D01*
X144409740Y-109001560D01*
X144061500Y-109001560D01*
X144061500Y-108907580D01*
X144081500Y-108907580D01*
X144081500Y-108887580D01*
X144335500Y-108887580D01*
X144335500Y-108907580D01*
X145483580Y-108907580D01*
X145642330Y-108748830D01*
X145642330Y-108559021D01*
X145545657Y-108325632D01*
X145367029Y-108147003D01*
X145340736Y-108136112D01*
X145340736Y-107585510D01*
X145317935Y-107464331D01*
X145266403Y-107384249D01*
X145314468Y-107313904D01*
X145340736Y-107184190D01*
X145340736Y-106633588D01*
X145367029Y-106622697D01*
X145545657Y-106444068D01*
X145642330Y-106210679D01*
X145642330Y-106020870D01*
X145483580Y-105862120D01*
X144335500Y-105862120D01*
X144335500Y-105882120D01*
X144081500Y-105882120D01*
X144081500Y-105862120D01*
X144061500Y-105862120D01*
X144061500Y-105608120D01*
X144081500Y-105608120D01*
X144081500Y-105588120D01*
X144335500Y-105588120D01*
X144335500Y-105608120D01*
X145483580Y-105608120D01*
X145642330Y-105449370D01*
X145642330Y-105259561D01*
X145545657Y-105026172D01*
X145367029Y-104847543D01*
X145340736Y-104836652D01*
X145340736Y-104286050D01*
X145317935Y-104164871D01*
X145266403Y-104084789D01*
X145314468Y-104014444D01*
X145340736Y-103884730D01*
X145340736Y-103456694D01*
X146570322Y-102227108D01*
X146571171Y-102227109D01*
X146801703Y-102131855D01*
X146978235Y-101955631D01*
X147073891Y-101725265D01*
X147074109Y-101475829D01*
X146978855Y-101245297D01*
X146974000Y-101240434D01*
X146974000Y-99502895D01*
X157415410Y-99502895D01*
X157478627Y-99739821D01*
X157983645Y-99918072D01*
X158518433Y-99889493D01*
X158879773Y-99739821D01*
X158942990Y-99502895D01*
X158179200Y-98739105D01*
X157415410Y-99502895D01*
X146974000Y-99502895D01*
X146974000Y-99127492D01*
X147737547Y-98363945D01*
X156820628Y-98363945D01*
X156849207Y-98898733D01*
X156998879Y-99260073D01*
X157235805Y-99323290D01*
X157999595Y-98559500D01*
X158358805Y-98559500D01*
X159122595Y-99323290D01*
X159359521Y-99260073D01*
X159537772Y-98755055D01*
X159509193Y-98220267D01*
X159359521Y-97858927D01*
X159122595Y-97795710D01*
X158358805Y-98559500D01*
X157999595Y-98559500D01*
X157235805Y-97795710D01*
X156998879Y-97858927D01*
X156820628Y-98363945D01*
X147737547Y-98363945D01*
X148485387Y-97616105D01*
X157415410Y-97616105D01*
X158179200Y-98379895D01*
X158942990Y-97616105D01*
X158879773Y-97379179D01*
X158374755Y-97200928D01*
X157839967Y-97229507D01*
X157478627Y-97379179D01*
X157415410Y-97616105D01*
X148485387Y-97616105D01*
X148983184Y-97118308D01*
X159444398Y-97118308D01*
X159624157Y-97454084D01*
X160474161Y-97791376D01*
X161388538Y-97777711D01*
X162169843Y-97454084D01*
X162349602Y-97118308D01*
X160897000Y-95665705D01*
X159444398Y-97118308D01*
X148983184Y-97118308D01*
X150979644Y-95121848D01*
X151018791Y-95063261D01*
X158591724Y-95063261D01*
X158605389Y-95977638D01*
X158929016Y-96758943D01*
X159264792Y-96938702D01*
X160717395Y-95486100D01*
X161076605Y-95486100D01*
X162529208Y-96938702D01*
X162864984Y-96758943D01*
X163202276Y-95908939D01*
X163188611Y-94994562D01*
X162864984Y-94213257D01*
X162529208Y-94033498D01*
X161076605Y-95486100D01*
X160717395Y-95486100D01*
X159264792Y-94033498D01*
X158929016Y-94213257D01*
X158591724Y-95063261D01*
X151018791Y-95063261D01*
X151093884Y-94950878D01*
X151133999Y-94749203D01*
X151133999Y-94000291D01*
X151280398Y-93853892D01*
X159444398Y-93853892D01*
X160897000Y-95306495D01*
X162349602Y-93853892D01*
X162169843Y-93518116D01*
X161319839Y-93180824D01*
X160405462Y-93194489D01*
X159624157Y-93518116D01*
X159444398Y-93853892D01*
X151280398Y-93853892D01*
X152815186Y-92319104D01*
X152821171Y-92319109D01*
X153051703Y-92223855D01*
X153228235Y-92047631D01*
X153323891Y-91817265D01*
X153324109Y-91567829D01*
X153228855Y-91337297D01*
X153154601Y-91262913D01*
X157906575Y-86510939D01*
X157938052Y-86531971D01*
X158393675Y-86622600D01*
X158440325Y-86622600D01*
X158895948Y-86531971D01*
X159282206Y-86273881D01*
X159540296Y-85887623D01*
X159630925Y-85432000D01*
X159540296Y-84976377D01*
X159282206Y-84590119D01*
X158895948Y-84332029D01*
X158834136Y-84319734D01*
X159305490Y-84098821D01*
X159699688Y-83666947D01*
X159871958Y-83251026D01*
X159750817Y-83019000D01*
X158544000Y-83019000D01*
X158544000Y-83039000D01*
X158290000Y-83039000D01*
X158290000Y-83019000D01*
X158270000Y-83019000D01*
X158270000Y-82765000D01*
X158290000Y-82765000D01*
X158290000Y-81557531D01*
X158544000Y-81557531D01*
X158544000Y-82765000D01*
X159750817Y-82765000D01*
X159871958Y-82532974D01*
X159699688Y-82117053D01*
X159305490Y-81685179D01*
X158776027Y-81437032D01*
X158544000Y-81557531D01*
X158290000Y-81557531D01*
X158057973Y-81437032D01*
X157528510Y-81685179D01*
X157134312Y-82117053D01*
X157000866Y-82439240D01*
X157000296Y-82436377D01*
X156742206Y-82050119D01*
X156355948Y-81792029D01*
X155900325Y-81701400D01*
X155853675Y-81701400D01*
X155398052Y-81792029D01*
X155011794Y-82050119D01*
X154753704Y-82436377D01*
X154663075Y-82892000D01*
X154753704Y-83347623D01*
X155011794Y-83733881D01*
X155398052Y-83991971D01*
X155853675Y-84082600D01*
X155900325Y-84082600D01*
X156355948Y-83991971D01*
X156742206Y-83733881D01*
X157000296Y-83347623D01*
X157000866Y-83344760D01*
X157134312Y-83666947D01*
X157528510Y-84098821D01*
X157999864Y-84319734D01*
X157938052Y-84332029D01*
X157551794Y-84590119D01*
X157293704Y-84976377D01*
X157203075Y-85432000D01*
X157293704Y-85887623D01*
X157333422Y-85947064D01*
X156279000Y-87001486D01*
X156279000Y-86547277D01*
X156355948Y-86531971D01*
X156742206Y-86273881D01*
X157000296Y-85887623D01*
X157090925Y-85432000D01*
X157000296Y-84976377D01*
X156742206Y-84590119D01*
X156355948Y-84332029D01*
X155900325Y-84241400D01*
X155853675Y-84241400D01*
X155398052Y-84332029D01*
X155011794Y-84590119D01*
X154753704Y-84976377D01*
X154663075Y-85432000D01*
X154753704Y-85887623D01*
X155011794Y-86273881D01*
X155398052Y-86531971D01*
X155475000Y-86547277D01*
X155475000Y-86868464D01*
X153739000Y-88604464D01*
X153739000Y-86547277D01*
X153815948Y-86531971D01*
X154202206Y-86273881D01*
X154460296Y-85887623D01*
X154550925Y-85432000D01*
X154460296Y-84976377D01*
X154202206Y-84590119D01*
X153815948Y-84332029D01*
X153360325Y-84241400D01*
X153313675Y-84241400D01*
X152858052Y-84332029D01*
X152471794Y-84590119D01*
X152213704Y-84976377D01*
X152123075Y-85432000D01*
X152213704Y-85887623D01*
X152471794Y-86273881D01*
X152858052Y-86531971D01*
X152935000Y-86547277D01*
X152935000Y-88786212D01*
X151352000Y-90369212D01*
X151352000Y-86481155D01*
X151662206Y-86273881D01*
X151920296Y-85887623D01*
X152010925Y-85432000D01*
X151920296Y-84976377D01*
X151662206Y-84590119D01*
X151275948Y-84332029D01*
X150820325Y-84241400D01*
X150773675Y-84241400D01*
X150318052Y-84332029D01*
X149931794Y-84590119D01*
X149673704Y-84976377D01*
X149583075Y-85432000D01*
X149673704Y-85887623D01*
X149931794Y-86273881D01*
X150318052Y-86531971D01*
X150548000Y-86577710D01*
X150548000Y-90763076D01*
X148659000Y-92652075D01*
X148659000Y-86547277D01*
X148735948Y-86531971D01*
X149122206Y-86273881D01*
X149380296Y-85887623D01*
X149470925Y-85432000D01*
X149380296Y-84976377D01*
X149122206Y-84590119D01*
X149105565Y-84579000D01*
X149536995Y-84579000D01*
X149537000Y-84579001D01*
X149700406Y-84546497D01*
X149838935Y-84453935D01*
X150307770Y-83985100D01*
X150318052Y-83991971D01*
X150773675Y-84082600D01*
X150820325Y-84082600D01*
X151275948Y-83991971D01*
X151662206Y-83733881D01*
X151920296Y-83347623D01*
X152010925Y-82892000D01*
X151920296Y-82436377D01*
X151662206Y-82050119D01*
X151400699Y-81875385D01*
X151716515Y-81875385D01*
X152239260Y-82398130D01*
X152213704Y-82436377D01*
X152123075Y-82892000D01*
X152213704Y-83347623D01*
X152471794Y-83733881D01*
X152858052Y-83991971D01*
X153313675Y-84082600D01*
X153360325Y-84082600D01*
X153815948Y-83991971D01*
X154202206Y-83733881D01*
X154460296Y-83347623D01*
X154550925Y-82892000D01*
X154460296Y-82436377D01*
X154202206Y-82050119D01*
X153815948Y-81792029D01*
X153360325Y-81701400D01*
X153313675Y-81701400D01*
X152858052Y-81792029D01*
X152847770Y-81798900D01*
X152337871Y-81289001D01*
X152996196Y-81289001D01*
X152996201Y-81289002D01*
X153046479Y-81279001D01*
X159935131Y-81279001D01*
X160753000Y-82096869D01*
X160753000Y-87294575D01*
X160752999Y-87294580D01*
X160785503Y-87457986D01*
X160878065Y-87596515D01*
X164700980Y-91419429D01*
X164700980Y-91582316D01*
X164596745Y-91686369D01*
X164501089Y-91916735D01*
X164500871Y-92166171D01*
X164596125Y-92396703D01*
X164772349Y-92573235D01*
X165002715Y-92668891D01*
X165252151Y-92669109D01*
X165482683Y-92573855D01*
X165659215Y-92397631D01*
X165754871Y-92167265D01*
X165755089Y-91917829D01*
X165659835Y-91687297D01*
X165554980Y-91582259D01*
X165554980Y-91242565D01*
X165554981Y-91242560D01*
X165522477Y-91079154D01*
X165467087Y-90996257D01*
X165429915Y-90940625D01*
X165429912Y-90940623D01*
X161607000Y-87117710D01*
X161607000Y-84467176D01*
X162540591Y-84467176D01*
X162898971Y-85334521D01*
X163561989Y-85998697D01*
X164428707Y-86358590D01*
X165367176Y-86359409D01*
X166234521Y-86001029D01*
X166898697Y-85338011D01*
X167258590Y-84471293D01*
X167259409Y-83532824D01*
X166901029Y-82665479D01*
X166238011Y-82001303D01*
X165371293Y-81641410D01*
X164432824Y-81640591D01*
X163565479Y-81998971D01*
X162901303Y-82661989D01*
X162541410Y-83528707D01*
X162540591Y-84467176D01*
X161607000Y-84467176D01*
X161607000Y-81920005D01*
X161607001Y-81920000D01*
X161574497Y-81756594D01*
X161548572Y-81717795D01*
X161481935Y-81618065D01*
X161481932Y-81618063D01*
X160413936Y-80550066D01*
X160275407Y-80457504D01*
X160112001Y-80425000D01*
X160111996Y-80425001D01*
X153006201Y-80425001D01*
X152955927Y-80435001D01*
X148537323Y-80435001D01*
X148481206Y-80397505D01*
X148317800Y-80365001D01*
X148317795Y-80365002D01*
X145193902Y-80365002D01*
X145194109Y-80127829D01*
X145098855Y-79897297D01*
X144922631Y-79720765D01*
X144752209Y-79650000D01*
X164552405Y-79650000D01*
X166379180Y-80013368D01*
X167894276Y-81025723D01*
X168906632Y-82540820D01*
X169173000Y-83879943D01*
X169173000Y-119828057D01*
X168906632Y-121167180D01*
X167894276Y-122682277D01*
X166379180Y-123694632D01*
X164552405Y-124058000D01*
X129579595Y-124058000D01*
X127752820Y-123694632D01*
X126237723Y-122682276D01*
X125225368Y-121167180D01*
X125006564Y-120067176D01*
X126840591Y-120067176D01*
X127198971Y-120934521D01*
X127861989Y-121598697D01*
X128728707Y-121958590D01*
X129667176Y-121959409D01*
X130534521Y-121601029D01*
X131198697Y-120938011D01*
X131238968Y-120841026D01*
X134112042Y-120841026D01*
X134284312Y-121256947D01*
X134678510Y-121688821D01*
X135207973Y-121936968D01*
X135440000Y-121816469D01*
X135440000Y-120609000D01*
X134233183Y-120609000D01*
X134112042Y-120841026D01*
X131238968Y-120841026D01*
X131537130Y-120122974D01*
X134112042Y-120122974D01*
X134233183Y-120355000D01*
X135440000Y-120355000D01*
X135440000Y-120335000D01*
X135694000Y-120335000D01*
X135694000Y-120355000D01*
X135714000Y-120355000D01*
X135714000Y-120609000D01*
X135694000Y-120609000D01*
X135694000Y-121816469D01*
X135926027Y-121936968D01*
X136455490Y-121688821D01*
X136849688Y-121256947D01*
X136983134Y-120934760D01*
X136983704Y-120937623D01*
X137241794Y-121323881D01*
X137628052Y-121581971D01*
X138083675Y-121672600D01*
X138130325Y-121672600D01*
X138585948Y-121581971D01*
X138972206Y-121323881D01*
X139230296Y-120937623D01*
X139320925Y-120482000D01*
X139230296Y-120026377D01*
X139190578Y-119966936D01*
X139377000Y-119780514D01*
X139563422Y-119966936D01*
X139523704Y-120026377D01*
X139433075Y-120482000D01*
X139523704Y-120937623D01*
X139781794Y-121323881D01*
X140168052Y-121581971D01*
X140623675Y-121672600D01*
X140670325Y-121672600D01*
X141125948Y-121581971D01*
X141512206Y-121323881D01*
X141770296Y-120937623D01*
X141860925Y-120482000D01*
X141973075Y-120482000D01*
X142063704Y-120937623D01*
X142321794Y-121323881D01*
X142708052Y-121581971D01*
X143163675Y-121672600D01*
X143210325Y-121672600D01*
X143665948Y-121581971D01*
X144052206Y-121323881D01*
X144310296Y-120937623D01*
X144400925Y-120482000D01*
X144513075Y-120482000D01*
X144603704Y-120937623D01*
X144861794Y-121323881D01*
X145248052Y-121581971D01*
X145703675Y-121672600D01*
X145750325Y-121672600D01*
X146205948Y-121581971D01*
X146592206Y-121323881D01*
X146850296Y-120937623D01*
X146940925Y-120482000D01*
X147053075Y-120482000D01*
X147143704Y-120937623D01*
X147401794Y-121323881D01*
X147788052Y-121581971D01*
X148243675Y-121672600D01*
X148290325Y-121672600D01*
X148745948Y-121581971D01*
X149132206Y-121323881D01*
X149390296Y-120937623D01*
X149480925Y-120482000D01*
X149593075Y-120482000D01*
X149683704Y-120937623D01*
X149941794Y-121323881D01*
X150328052Y-121581971D01*
X150783675Y-121672600D01*
X150830325Y-121672600D01*
X151285948Y-121581971D01*
X151672206Y-121323881D01*
X151930296Y-120937623D01*
X152020925Y-120482000D01*
X152133075Y-120482000D01*
X152223704Y-120937623D01*
X152481794Y-121323881D01*
X152868052Y-121581971D01*
X153323675Y-121672600D01*
X153370325Y-121672600D01*
X153825948Y-121581971D01*
X154212206Y-121323881D01*
X154470296Y-120937623D01*
X154560925Y-120482000D01*
X154673075Y-120482000D01*
X154763704Y-120937623D01*
X155021794Y-121323881D01*
X155408052Y-121581971D01*
X155863675Y-121672600D01*
X155910325Y-121672600D01*
X156365948Y-121581971D01*
X156752206Y-121323881D01*
X157010296Y-120937623D01*
X157100925Y-120482000D01*
X157213075Y-120482000D01*
X157303704Y-120937623D01*
X157561794Y-121323881D01*
X157948052Y-121581971D01*
X158403675Y-121672600D01*
X158450325Y-121672600D01*
X158905948Y-121581971D01*
X159292206Y-121323881D01*
X159550296Y-120937623D01*
X159640925Y-120482000D01*
X159558412Y-120067176D01*
X162340591Y-120067176D01*
X162698971Y-120934521D01*
X163361989Y-121598697D01*
X164228707Y-121958590D01*
X165167176Y-121959409D01*
X166034521Y-121601029D01*
X166698697Y-120938011D01*
X167058590Y-120071293D01*
X167059409Y-119132824D01*
X166701029Y-118265479D01*
X166038011Y-117601303D01*
X165171293Y-117241410D01*
X164232824Y-117240591D01*
X163365479Y-117598971D01*
X162701303Y-118261989D01*
X162341410Y-119128707D01*
X162340591Y-120067176D01*
X159558412Y-120067176D01*
X159550296Y-120026377D01*
X159292206Y-119640119D01*
X158905948Y-119382029D01*
X158450325Y-119291400D01*
X158403675Y-119291400D01*
X157948052Y-119382029D01*
X157561794Y-119640119D01*
X157303704Y-120026377D01*
X157213075Y-120482000D01*
X157100925Y-120482000D01*
X157010296Y-120026377D01*
X156752206Y-119640119D01*
X156365948Y-119382029D01*
X155910325Y-119291400D01*
X155863675Y-119291400D01*
X155408052Y-119382029D01*
X155021794Y-119640119D01*
X154763704Y-120026377D01*
X154673075Y-120482000D01*
X154560925Y-120482000D01*
X154470296Y-120026377D01*
X154212206Y-119640119D01*
X153825948Y-119382029D01*
X153370325Y-119291400D01*
X153323675Y-119291400D01*
X152868052Y-119382029D01*
X152481794Y-119640119D01*
X152223704Y-120026377D01*
X152133075Y-120482000D01*
X152020925Y-120482000D01*
X151930296Y-120026377D01*
X151672206Y-119640119D01*
X151285948Y-119382029D01*
X150830325Y-119291400D01*
X150783675Y-119291400D01*
X150328052Y-119382029D01*
X149941794Y-119640119D01*
X149683704Y-120026377D01*
X149593075Y-120482000D01*
X149480925Y-120482000D01*
X149390296Y-120026377D01*
X149132206Y-119640119D01*
X148745948Y-119382029D01*
X148290325Y-119291400D01*
X148243675Y-119291400D01*
X147788052Y-119382029D01*
X147401794Y-119640119D01*
X147143704Y-120026377D01*
X147053075Y-120482000D01*
X146940925Y-120482000D01*
X146850296Y-120026377D01*
X146592206Y-119640119D01*
X146205948Y-119382029D01*
X145750325Y-119291400D01*
X145703675Y-119291400D01*
X145248052Y-119382029D01*
X144861794Y-119640119D01*
X144603704Y-120026377D01*
X144513075Y-120482000D01*
X144400925Y-120482000D01*
X144310296Y-120026377D01*
X144052206Y-119640119D01*
X143665948Y-119382029D01*
X143210325Y-119291400D01*
X143163675Y-119291400D01*
X142708052Y-119382029D01*
X142321794Y-119640119D01*
X142063704Y-120026377D01*
X141973075Y-120482000D01*
X141860925Y-120482000D01*
X141770296Y-120026377D01*
X141512206Y-119640119D01*
X141125948Y-119382029D01*
X140670325Y-119291400D01*
X140623675Y-119291400D01*
X140168052Y-119382029D01*
X140136575Y-119403061D01*
X139943999Y-119210485D01*
X139943999Y-118892263D01*
X140168052Y-119041971D01*
X140623675Y-119132600D01*
X140670325Y-119132600D01*
X141125948Y-119041971D01*
X141512206Y-118783881D01*
X141770296Y-118397623D01*
X141860925Y-117942000D01*
X141973075Y-117942000D01*
X142063704Y-118397623D01*
X142321794Y-118783881D01*
X142708052Y-119041971D01*
X143163675Y-119132600D01*
X143210325Y-119132600D01*
X143665948Y-119041971D01*
X144052206Y-118783881D01*
X144310296Y-118397623D01*
X144400925Y-117942000D01*
X144513075Y-117942000D01*
X144603704Y-118397623D01*
X144861794Y-118783881D01*
X145248052Y-119041971D01*
X145703675Y-119132600D01*
X145750325Y-119132600D01*
X146205948Y-119041971D01*
X146592206Y-118783881D01*
X146850296Y-118397623D01*
X146940925Y-117942000D01*
X147053075Y-117942000D01*
X147143704Y-118397623D01*
X147401794Y-118783881D01*
X147788052Y-119041971D01*
X148243675Y-119132600D01*
X148290325Y-119132600D01*
X148745948Y-119041971D01*
X149132206Y-118783881D01*
X149390296Y-118397623D01*
X149480925Y-117942000D01*
X149593075Y-117942000D01*
X149683704Y-118397623D01*
X149941794Y-118783881D01*
X150328052Y-119041971D01*
X150783675Y-119132600D01*
X150830325Y-119132600D01*
X151285948Y-119041971D01*
X151672206Y-118783881D01*
X151930296Y-118397623D01*
X152020925Y-117942000D01*
X152133075Y-117942000D01*
X152223704Y-118397623D01*
X152481794Y-118783881D01*
X152868052Y-119041971D01*
X153323675Y-119132600D01*
X153370325Y-119132600D01*
X153825948Y-119041971D01*
X154212206Y-118783881D01*
X154470296Y-118397623D01*
X154560925Y-117942000D01*
X154673075Y-117942000D01*
X154763704Y-118397623D01*
X155021794Y-118783881D01*
X155408052Y-119041971D01*
X155863675Y-119132600D01*
X155910325Y-119132600D01*
X156365948Y-119041971D01*
X156752206Y-118783881D01*
X157010296Y-118397623D01*
X157100925Y-117942000D01*
X157213075Y-117942000D01*
X157303704Y-118397623D01*
X157561794Y-118783881D01*
X157948052Y-119041971D01*
X158403675Y-119132600D01*
X158450325Y-119132600D01*
X158905948Y-119041971D01*
X159292206Y-118783881D01*
X159550296Y-118397623D01*
X159640925Y-117942000D01*
X159550296Y-117486377D01*
X159292206Y-117100119D01*
X158905948Y-116842029D01*
X158450325Y-116751400D01*
X158403675Y-116751400D01*
X157948052Y-116842029D01*
X157561794Y-117100119D01*
X157303704Y-117486377D01*
X157213075Y-117942000D01*
X157100925Y-117942000D01*
X157010296Y-117486377D01*
X156752206Y-117100119D01*
X156365948Y-116842029D01*
X155910325Y-116751400D01*
X155863675Y-116751400D01*
X155408052Y-116842029D01*
X155021794Y-117100119D01*
X154763704Y-117486377D01*
X154673075Y-117942000D01*
X154560925Y-117942000D01*
X154470296Y-117486377D01*
X154212206Y-117100119D01*
X153825948Y-116842029D01*
X153370325Y-116751400D01*
X153323675Y-116751400D01*
X152868052Y-116842029D01*
X152481794Y-117100119D01*
X152223704Y-117486377D01*
X152133075Y-117942000D01*
X152020925Y-117942000D01*
X151930296Y-117486377D01*
X151672206Y-117100119D01*
X151285948Y-116842029D01*
X150830325Y-116751400D01*
X150783675Y-116751400D01*
X150328052Y-116842029D01*
X149941794Y-117100119D01*
X149683704Y-117486377D01*
X149593075Y-117942000D01*
X149480925Y-117942000D01*
X149390296Y-117486377D01*
X149132206Y-117100119D01*
X148745948Y-116842029D01*
X148290325Y-116751400D01*
X148243675Y-116751400D01*
X147788052Y-116842029D01*
X147401794Y-117100119D01*
X147143704Y-117486377D01*
X147053075Y-117942000D01*
X146940925Y-117942000D01*
X146850296Y-117486377D01*
X146592206Y-117100119D01*
X146205948Y-116842029D01*
X145750325Y-116751400D01*
X145703675Y-116751400D01*
X145248052Y-116842029D01*
X144861794Y-117100119D01*
X144603704Y-117486377D01*
X144513075Y-117942000D01*
X144400925Y-117942000D01*
X144310296Y-117486377D01*
X144052206Y-117100119D01*
X143665948Y-116842029D01*
X143210325Y-116751400D01*
X143163675Y-116751400D01*
X142708052Y-116842029D01*
X142321794Y-117100119D01*
X142063704Y-117486377D01*
X141973075Y-117942000D01*
X141860925Y-117942000D01*
X141770296Y-117486377D01*
X141512206Y-117100119D01*
X141125948Y-116842029D01*
X140670325Y-116751400D01*
X140623675Y-116751400D01*
X140168052Y-116842029D01*
X139943999Y-116991737D01*
X139943999Y-116677859D01*
X141784858Y-114837000D01*
X144488344Y-114837000D01*
X144642183Y-114806400D01*
X144772601Y-114719257D01*
X149241750Y-110250108D01*
X159444398Y-110250108D01*
X159624157Y-110585884D01*
X160474161Y-110923176D01*
X161388538Y-110909511D01*
X162169843Y-110585884D01*
X162349602Y-110250108D01*
X160897000Y-108797505D01*
X159444398Y-110250108D01*
X149241750Y-110250108D01*
X151296797Y-108195061D01*
X158591724Y-108195061D01*
X158605389Y-109109438D01*
X158929016Y-109890743D01*
X159264792Y-110070502D01*
X160717395Y-108617900D01*
X161076605Y-108617900D01*
X162529208Y-110070502D01*
X162864984Y-109890743D01*
X163202276Y-109040739D01*
X163188611Y-108126362D01*
X162864984Y-107345057D01*
X162529208Y-107165298D01*
X161076605Y-108617900D01*
X160717395Y-108617900D01*
X159264792Y-107165298D01*
X158929016Y-107345057D01*
X158591724Y-108195061D01*
X151296797Y-108195061D01*
X152506166Y-106985692D01*
X159444398Y-106985692D01*
X160897000Y-108438295D01*
X162349602Y-106985692D01*
X162169843Y-106649916D01*
X161319839Y-106312624D01*
X160405462Y-106326289D01*
X159624157Y-106649916D01*
X159444398Y-106985692D01*
X152506166Y-106985692D01*
X153741753Y-105750105D01*
X157140820Y-105750105D01*
X157298543Y-106131825D01*
X157590339Y-106424130D01*
X157971783Y-106582520D01*
X158384805Y-106582880D01*
X158766525Y-106425157D01*
X159058830Y-106133361D01*
X159217220Y-105751917D01*
X159217580Y-105338895D01*
X159059857Y-104957175D01*
X158768061Y-104664870D01*
X158386617Y-104506480D01*
X157973595Y-104506120D01*
X157591875Y-104663843D01*
X157299570Y-104955639D01*
X157141180Y-105337083D01*
X157140820Y-105750105D01*
X153741753Y-105750105D01*
X156872859Y-102618999D01*
X157174385Y-102618999D01*
X157218078Y-102662692D01*
X157141180Y-102847883D01*
X157140820Y-103260905D01*
X157298543Y-103642625D01*
X157590339Y-103934930D01*
X157971783Y-104093320D01*
X158384805Y-104093680D01*
X158766525Y-103935957D01*
X159058830Y-103644161D01*
X159217220Y-103262717D01*
X159217580Y-102849695D01*
X159059857Y-102467975D01*
X158768061Y-102175670D01*
X158469969Y-102051891D01*
X158766525Y-101929357D01*
X159058830Y-101637561D01*
X159217220Y-101256117D01*
X159217580Y-100843095D01*
X159059857Y-100461375D01*
X158768061Y-100169070D01*
X158386617Y-100010680D01*
X157973595Y-100010320D01*
X157591875Y-100168043D01*
X157299570Y-100459839D01*
X157141180Y-100841283D01*
X157140820Y-101254305D01*
X157218085Y-101441301D01*
X157174385Y-101485001D01*
X156569655Y-101485001D01*
X156415816Y-101515601D01*
X156285398Y-101602744D01*
X144185142Y-113703000D01*
X141481656Y-113703000D01*
X141327817Y-113733600D01*
X141197399Y-113820743D01*
X140995443Y-114022699D01*
X140984148Y-113814801D01*
X140836800Y-113459071D01*
X140601188Y-113397417D01*
X139846605Y-114152000D01*
X139860748Y-114166143D01*
X139681143Y-114345748D01*
X139667000Y-114331605D01*
X138912417Y-115086188D01*
X138974071Y-115321800D01*
X139474480Y-115497927D01*
X139522842Y-115495300D01*
X138927744Y-116090398D01*
X138840601Y-116220816D01*
X138810001Y-116374655D01*
X138810001Y-116991737D01*
X138585948Y-116842029D01*
X138130325Y-116751400D01*
X138083675Y-116751400D01*
X137628052Y-116842029D01*
X137241794Y-117100119D01*
X136983704Y-117486377D01*
X136893075Y-117942000D01*
X136983704Y-118397623D01*
X137241794Y-118783881D01*
X137628052Y-119041971D01*
X138083675Y-119132600D01*
X138130325Y-119132600D01*
X138585948Y-119041971D01*
X138810001Y-118892263D01*
X138810001Y-119210485D01*
X138617425Y-119403061D01*
X138585948Y-119382029D01*
X138130325Y-119291400D01*
X138083675Y-119291400D01*
X137628052Y-119382029D01*
X137241794Y-119640119D01*
X136983704Y-120026377D01*
X136983134Y-120029240D01*
X136849688Y-119707053D01*
X136455490Y-119275179D01*
X136164942Y-119139006D01*
X136430600Y-119139006D01*
X136551779Y-119116205D01*
X136663074Y-119044588D01*
X136737738Y-118935314D01*
X136764006Y-118805600D01*
X136764006Y-117078400D01*
X136741205Y-116957221D01*
X136669588Y-116845926D01*
X136560314Y-116771262D01*
X136430600Y-116744994D01*
X134703400Y-116744994D01*
X134582221Y-116767795D01*
X134470926Y-116839412D01*
X134396262Y-116948686D01*
X134369994Y-117078400D01*
X134369994Y-118805600D01*
X134392795Y-118926779D01*
X134464412Y-119038074D01*
X134573686Y-119112738D01*
X134703400Y-119139006D01*
X134969058Y-119139006D01*
X134678510Y-119275179D01*
X134284312Y-119707053D01*
X134112042Y-120122974D01*
X131537130Y-120122974D01*
X131558590Y-120071293D01*
X131559409Y-119132824D01*
X131201029Y-118265479D01*
X130538011Y-117601303D01*
X129671293Y-117241410D01*
X128732824Y-117240591D01*
X127865479Y-117598971D01*
X127201303Y-118261989D01*
X126841410Y-119128707D01*
X126840591Y-120067176D01*
X125006564Y-120067176D01*
X124862000Y-119340405D01*
X124862000Y-114364159D01*
X128294446Y-114364159D01*
X128380852Y-114620643D01*
X128954336Y-114830458D01*
X129564460Y-114804839D01*
X130009148Y-114620643D01*
X130095554Y-114364159D01*
X129195000Y-113463605D01*
X128294446Y-114364159D01*
X124862000Y-114364159D01*
X124862000Y-113043336D01*
X127648542Y-113043336D01*
X127674161Y-113653460D01*
X127858357Y-114098148D01*
X128114841Y-114184554D01*
X129015395Y-113284000D01*
X129374605Y-113284000D01*
X130275159Y-114184554D01*
X130531643Y-114098148D01*
X130741458Y-113524664D01*
X130715839Y-112914540D01*
X130531643Y-112469852D01*
X130275159Y-112383446D01*
X129374605Y-113284000D01*
X129015395Y-113284000D01*
X128114841Y-112383446D01*
X127858357Y-112469852D01*
X127648542Y-113043336D01*
X124862000Y-113043336D01*
X124862000Y-112203841D01*
X128294446Y-112203841D01*
X129195000Y-113104395D01*
X130095554Y-112203841D01*
X130009148Y-111947357D01*
X129435664Y-111737542D01*
X128825540Y-111763161D01*
X128380852Y-111947357D01*
X128294446Y-112203841D01*
X124862000Y-112203841D01*
X124862000Y-110521750D01*
X132250180Y-110521750D01*
X132250180Y-110961749D01*
X132346853Y-111195138D01*
X132525481Y-111373767D01*
X132758870Y-111470440D01*
X133699250Y-111470440D01*
X133858000Y-111311690D01*
X133858000Y-110363000D01*
X132408930Y-110363000D01*
X132250180Y-110521750D01*
X124862000Y-110521750D01*
X124862000Y-109510251D01*
X132250180Y-109510251D01*
X132250180Y-109950250D01*
X132408930Y-110109000D01*
X133858000Y-110109000D01*
X133858000Y-109160310D01*
X134112000Y-109160310D01*
X134112000Y-110109000D01*
X135561070Y-110109000D01*
X135719820Y-109950250D01*
X135719820Y-109510251D01*
X135623147Y-109276862D01*
X135444519Y-109098233D01*
X135211130Y-109001560D01*
X134270750Y-109001560D01*
X134112000Y-109160310D01*
X133858000Y-109160310D01*
X133699250Y-109001560D01*
X132758870Y-109001560D01*
X132525481Y-109098233D01*
X132346853Y-109276862D01*
X132250180Y-109510251D01*
X124862000Y-109510251D01*
X124862000Y-107603239D01*
X132756537Y-107603239D01*
X132882175Y-107907306D01*
X133114610Y-108140148D01*
X133418458Y-108266316D01*
X133747459Y-108266603D01*
X134051526Y-108140965D01*
X134284368Y-107908530D01*
X134410536Y-107604682D01*
X134410823Y-107275681D01*
X134285185Y-106971614D01*
X134052750Y-106738772D01*
X133748902Y-106612604D01*
X133419901Y-106612317D01*
X133115834Y-106737955D01*
X132882992Y-106970390D01*
X132756824Y-107274238D01*
X132756537Y-107603239D01*
X124862000Y-107603239D01*
X124862000Y-105915873D01*
X125035322Y-106062002D01*
X125460000Y-106197000D01*
X125735000Y-106197000D01*
X125735000Y-105189000D01*
X125989000Y-105189000D01*
X125989000Y-106197000D01*
X126264000Y-106197000D01*
X126688678Y-106062002D01*
X127029368Y-105774763D01*
X127231119Y-105363874D01*
X127104954Y-105189000D01*
X125989000Y-105189000D01*
X125735000Y-105189000D01*
X125715000Y-105189000D01*
X125715000Y-104935000D01*
X125735000Y-104935000D01*
X125735000Y-103927000D01*
X125989000Y-103927000D01*
X125989000Y-104935000D01*
X127104954Y-104935000D01*
X127231119Y-104760126D01*
X127047503Y-104386171D01*
X127384891Y-104386171D01*
X127480145Y-104616703D01*
X127656369Y-104793235D01*
X127886735Y-104888891D01*
X128136171Y-104889109D01*
X128366703Y-104793855D01*
X128543235Y-104617631D01*
X128638891Y-104387265D01*
X128639109Y-104137829D01*
X128543855Y-103907297D01*
X128367631Y-103730765D01*
X128137265Y-103635109D01*
X127887829Y-103634891D01*
X127657297Y-103730145D01*
X127480765Y-103906369D01*
X127385109Y-104136735D01*
X127384891Y-104386171D01*
X127047503Y-104386171D01*
X127029368Y-104349237D01*
X126688678Y-104061998D01*
X126264000Y-103927000D01*
X125989000Y-103927000D01*
X125735000Y-103927000D01*
X125460000Y-103927000D01*
X125035322Y-104061998D01*
X124862000Y-104208127D01*
X124862000Y-100290873D01*
X125035322Y-100437002D01*
X125460000Y-100572000D01*
X125735000Y-100572000D01*
X125735000Y-99564000D01*
X125989000Y-99564000D01*
X125989000Y-100572000D01*
X126264000Y-100572000D01*
X126688678Y-100437002D01*
X126748967Y-100386171D01*
X127384891Y-100386171D01*
X127480145Y-100616703D01*
X127656369Y-100793235D01*
X127886735Y-100888891D01*
X128136171Y-100889109D01*
X128366703Y-100793855D01*
X128543235Y-100617631D01*
X128638891Y-100387265D01*
X128639109Y-100137829D01*
X128543855Y-99907297D01*
X128367631Y-99730765D01*
X128137265Y-99635109D01*
X127887829Y-99634891D01*
X127657297Y-99730145D01*
X127480765Y-99906369D01*
X127385109Y-100136735D01*
X127384891Y-100386171D01*
X126748967Y-100386171D01*
X127029368Y-100149763D01*
X127231119Y-99738874D01*
X127104954Y-99564000D01*
X125989000Y-99564000D01*
X125735000Y-99564000D01*
X125715000Y-99564000D01*
X125715000Y-99310000D01*
X125735000Y-99310000D01*
X125735000Y-98302000D01*
X125989000Y-98302000D01*
X125989000Y-99310000D01*
X127104954Y-99310000D01*
X127231119Y-99135126D01*
X127029368Y-98724237D01*
X126688678Y-98436998D01*
X126264000Y-98302000D01*
X125989000Y-98302000D01*
X125735000Y-98302000D01*
X125460000Y-98302000D01*
X125035322Y-98436998D01*
X124862000Y-98583127D01*
X124862000Y-84467176D01*
X126940591Y-84467176D01*
X127298971Y-85334521D01*
X127961989Y-85998697D01*
X128828707Y-86358590D01*
X129767176Y-86359409D01*
X130634521Y-86001029D01*
X131298697Y-85338011D01*
X131658590Y-84471293D01*
X131659409Y-83532824D01*
X131301029Y-82665479D01*
X130638011Y-82001303D01*
X129771293Y-81641410D01*
X128832824Y-81640591D01*
X127965479Y-81998971D01*
X127301303Y-82661989D01*
X126941410Y-83528707D01*
X126940591Y-84467176D01*
X124862000Y-84467176D01*
X124862000Y-84367595D01*
X125225368Y-82540820D01*
X126237723Y-81025724D01*
X127752820Y-80013368D01*
X129579595Y-79650000D01*
X144382061Y-79650000D01*
X144212297Y-79720145D01*
X144212297Y-79720145D01*
G37*
X144212297Y-79720145D02*
X144082215Y-79850000D01*
X143917000Y-79850000D01*
X143763161Y-79880600D01*
X143681745Y-79935001D01*
X142400053Y-79935001D01*
X142318637Y-79880600D01*
X142164798Y-79850000D01*
X134437000Y-79850000D01*
X134283161Y-79880600D01*
X134152743Y-79967743D01*
X131822743Y-82297743D01*
X131735600Y-82428161D01*
X131705000Y-82582000D01*
X131705000Y-85795486D01*
X127957335Y-89543151D01*
X127870192Y-89673569D01*
X127839592Y-89827408D01*
X127839592Y-91065402D01*
X127672743Y-91232251D01*
X127585600Y-91362669D01*
X127555000Y-91516508D01*
X127555000Y-94272000D01*
X127585600Y-94425839D01*
X127672743Y-94556257D01*
X132124202Y-99007716D01*
X132254620Y-99094859D01*
X132408459Y-99125459D01*
X132818187Y-99125459D01*
X132756824Y-99273238D01*
X132756537Y-99602239D01*
X132882175Y-99906306D01*
X133114610Y-100139148D01*
X133418458Y-100265316D01*
X133747459Y-100265603D01*
X134051526Y-100139965D01*
X134284368Y-99907530D01*
X134381198Y-99674337D01*
X134408165Y-99739603D01*
X134584389Y-99916135D01*
X134814755Y-100011791D01*
X134998558Y-100011952D01*
X135425861Y-100439255D01*
X135556279Y-100526398D01*
X135710118Y-100556998D01*
X136413098Y-100556998D01*
X136412891Y-100794171D01*
X136508145Y-101024703D01*
X136613000Y-101129741D01*
X136613000Y-106535793D01*
X136612999Y-106535798D01*
X136645503Y-106699204D01*
X136660001Y-106720902D01*
X136660001Y-109715130D01*
X135719820Y-110655311D01*
X135719820Y-110521750D01*
X135561070Y-110363000D01*
X134112000Y-110363000D01*
X134112000Y-111311690D01*
X134270750Y-111470440D01*
X134904690Y-111470440D01*
X134207074Y-112168056D01*
X133940136Y-112057214D01*
X133452005Y-112056788D01*
X133000869Y-112243194D01*
X132655407Y-112588053D01*
X132468214Y-113038864D01*
X132467788Y-113526995D01*
X132654194Y-113978131D01*
X132999053Y-114323593D01*
X133449864Y-114510786D01*
X133937995Y-114511212D01*
X134389131Y-114324806D01*
X134734593Y-113979947D01*
X134743091Y-113959480D01*
X138321073Y-113959480D01*
X138349852Y-114489199D01*
X138497200Y-114844929D01*
X138732812Y-114906583D01*
X139487395Y-114152000D01*
X138732812Y-113397417D01*
X138497200Y-113459071D01*
X138321073Y-113959480D01*
X134743091Y-113959480D01*
X134921786Y-113529136D01*
X134922057Y-113217812D01*
X138912417Y-113217812D01*
X139667000Y-113972395D01*
X140421583Y-113217812D01*
X140359929Y-112982200D01*
X139859520Y-112806073D01*
X139329801Y-112834852D01*
X138974071Y-112982200D01*
X138912417Y-113217812D01*
X134922057Y-113217812D01*
X134922212Y-113041005D01*
X134811005Y-112771865D01*
X137388933Y-110193936D01*
X137388936Y-110193934D01*
X137481498Y-110055405D01*
X137488773Y-110018830D01*
X137514002Y-109891999D01*
X137514001Y-109891994D01*
X137514001Y-106582799D01*
X137481498Y-106419393D01*
X137467000Y-106397695D01*
X137467000Y-101129684D01*
X137571235Y-101025631D01*
X137576541Y-101012851D01*
X138634948Y-102071258D01*
X138765366Y-102158401D01*
X138919205Y-102189001D01*
X139554201Y-102189001D01*
X139708040Y-102158401D01*
X139838458Y-102071258D01*
X140106258Y-101803458D01*
X140193401Y-101673040D01*
X140224001Y-101519201D01*
X140224001Y-99063513D01*
X141079991Y-98207523D01*
X141055000Y-98333162D01*
X141055000Y-109655486D01*
X140049891Y-110660595D01*
X139871880Y-110586678D01*
X139463910Y-110586322D01*
X139086860Y-110742116D01*
X138798130Y-111030342D01*
X138641678Y-111407120D01*
X138641322Y-111815090D01*
X138797116Y-112192140D01*
X139085342Y-112480870D01*
X139462120Y-112637322D01*
X139870090Y-112637678D01*
X140247140Y-112481884D01*
X140535870Y-112193658D01*
X140692322Y-111816880D01*
X140692678Y-111408910D01*
X140618391Y-111229123D01*
X141325764Y-110521750D01*
X142248890Y-110521750D01*
X142248890Y-110961749D01*
X142345563Y-111195138D01*
X142524191Y-111373767D01*
X142757580Y-111470440D01*
X143297910Y-111470440D01*
X143456660Y-111311690D01*
X143456660Y-110363000D01*
X143710660Y-110363000D01*
X143710660Y-111311690D01*
X143869410Y-111470440D01*
X144409740Y-111470440D01*
X144643129Y-111373767D01*
X144821757Y-111195138D01*
X144918430Y-110961749D01*
X144918430Y-110521750D01*
X144759680Y-110363000D01*
X143710660Y-110363000D01*
X143456660Y-110363000D01*
X142407640Y-110363000D01*
X142248890Y-110521750D01*
X141325764Y-110521750D01*
X141741257Y-110106257D01*
X141828400Y-109975839D01*
X141859000Y-109822000D01*
X141859000Y-106000312D01*
X142400001Y-106541313D01*
X142400001Y-106977841D01*
X142430601Y-107131680D01*
X142517744Y-107262098D01*
X143076264Y-107820618D01*
X143076264Y-108136112D01*
X143049971Y-108147003D01*
X142871343Y-108325632D01*
X142774670Y-108559021D01*
X142774670Y-108748830D01*
X142933418Y-108907578D01*
X142774670Y-108907578D01*
X142774670Y-109001560D01*
X142757580Y-109001560D01*
X142524191Y-109098233D01*
X142345563Y-109276862D01*
X142248890Y-109510251D01*
X142248890Y-109950250D01*
X142407640Y-110109000D01*
X143456660Y-110109000D01*
X143456660Y-110018830D01*
X143710660Y-110018830D01*
X143710660Y-110109000D01*
X144759680Y-110109000D01*
X144849850Y-110018830D01*
X145133640Y-110018830D01*
X145367029Y-109922157D01*
X145545657Y-109743528D01*
X145642330Y-109510139D01*
X145642330Y-109320330D01*
X145483580Y-109161580D01*
X144706476Y-109161580D01*
X144643129Y-109098233D01*
X144409740Y-109001560D01*
X144061500Y-109001560D01*
X144061500Y-108907580D01*
X144081500Y-108907580D01*
X144081500Y-108887580D01*
X144335500Y-108887580D01*
X144335500Y-108907580D01*
X145483580Y-108907580D01*
X145642330Y-108748830D01*
X145642330Y-108559021D01*
X145545657Y-108325632D01*
X145367029Y-108147003D01*
X145340736Y-108136112D01*
X145340736Y-107585510D01*
X145317935Y-107464331D01*
X145266403Y-107384249D01*
X145314468Y-107313904D01*
X145340736Y-107184190D01*
X145340736Y-106633588D01*
X145367029Y-106622697D01*
X145545657Y-106444068D01*
X145642330Y-106210679D01*
X145642330Y-106020870D01*
X145483580Y-105862120D01*
X144335500Y-105862120D01*
X144335500Y-105882120D01*
X144081500Y-105882120D01*
X144081500Y-105862120D01*
X144061500Y-105862120D01*
X144061500Y-105608120D01*
X144081500Y-105608120D01*
X144081500Y-105588120D01*
X144335500Y-105588120D01*
X144335500Y-105608120D01*
X145483580Y-105608120D01*
X145642330Y-105449370D01*
X145642330Y-105259561D01*
X145545657Y-105026172D01*
X145367029Y-104847543D01*
X145340736Y-104836652D01*
X145340736Y-104286050D01*
X145317935Y-104164871D01*
X145266403Y-104084789D01*
X145314468Y-104014444D01*
X145340736Y-103884730D01*
X145340736Y-103456694D01*
X146570322Y-102227108D01*
X146571171Y-102227109D01*
X146801703Y-102131855D01*
X146978235Y-101955631D01*
X147073891Y-101725265D01*
X147074109Y-101475829D01*
X146978855Y-101245297D01*
X146974000Y-101240434D01*
X146974000Y-99502895D01*
X157415410Y-99502895D01*
X157478627Y-99739821D01*
X157983645Y-99918072D01*
X158518433Y-99889493D01*
X158879773Y-99739821D01*
X158942990Y-99502895D01*
X158179200Y-98739105D01*
X157415410Y-99502895D01*
X146974000Y-99502895D01*
X146974000Y-99127492D01*
X147737547Y-98363945D01*
X156820628Y-98363945D01*
X156849207Y-98898733D01*
X156998879Y-99260073D01*
X157235805Y-99323290D01*
X157999595Y-98559500D01*
X158358805Y-98559500D01*
X159122595Y-99323290D01*
X159359521Y-99260073D01*
X159537772Y-98755055D01*
X159509193Y-98220267D01*
X159359521Y-97858927D01*
X159122595Y-97795710D01*
X158358805Y-98559500D01*
X157999595Y-98559500D01*
X157235805Y-97795710D01*
X156998879Y-97858927D01*
X156820628Y-98363945D01*
X147737547Y-98363945D01*
X148485387Y-97616105D01*
X157415410Y-97616105D01*
X158179200Y-98379895D01*
X158942990Y-97616105D01*
X158879773Y-97379179D01*
X158374755Y-97200928D01*
X157839967Y-97229507D01*
X157478627Y-97379179D01*
X157415410Y-97616105D01*
X148485387Y-97616105D01*
X148983184Y-97118308D01*
X159444398Y-97118308D01*
X159624157Y-97454084D01*
X160474161Y-97791376D01*
X161388538Y-97777711D01*
X162169843Y-97454084D01*
X162349602Y-97118308D01*
X160897000Y-95665705D01*
X159444398Y-97118308D01*
X148983184Y-97118308D01*
X150979644Y-95121848D01*
X151018791Y-95063261D01*
X158591724Y-95063261D01*
X158605389Y-95977638D01*
X158929016Y-96758943D01*
X159264792Y-96938702D01*
X160717395Y-95486100D01*
X161076605Y-95486100D01*
X162529208Y-96938702D01*
X162864984Y-96758943D01*
X163202276Y-95908939D01*
X163188611Y-94994562D01*
X162864984Y-94213257D01*
X162529208Y-94033498D01*
X161076605Y-95486100D01*
X160717395Y-95486100D01*
X159264792Y-94033498D01*
X158929016Y-94213257D01*
X158591724Y-95063261D01*
X151018791Y-95063261D01*
X151093884Y-94950878D01*
X151133999Y-94749203D01*
X151133999Y-94000291D01*
X151280398Y-93853892D01*
X159444398Y-93853892D01*
X160897000Y-95306495D01*
X162349602Y-93853892D01*
X162169843Y-93518116D01*
X161319839Y-93180824D01*
X160405462Y-93194489D01*
X159624157Y-93518116D01*
X159444398Y-93853892D01*
X151280398Y-93853892D01*
X152815186Y-92319104D01*
X152821171Y-92319109D01*
X153051703Y-92223855D01*
X153228235Y-92047631D01*
X153323891Y-91817265D01*
X153324109Y-91567829D01*
X153228855Y-91337297D01*
X153154601Y-91262913D01*
X157906575Y-86510939D01*
X157938052Y-86531971D01*
X158393675Y-86622600D01*
X158440325Y-86622600D01*
X158895948Y-86531971D01*
X159282206Y-86273881D01*
X159540296Y-85887623D01*
X159630925Y-85432000D01*
X159540296Y-84976377D01*
X159282206Y-84590119D01*
X158895948Y-84332029D01*
X158834136Y-84319734D01*
X159305490Y-84098821D01*
X159699688Y-83666947D01*
X159871958Y-83251026D01*
X159750817Y-83019000D01*
X158544000Y-83019000D01*
X158544000Y-83039000D01*
X158290000Y-83039000D01*
X158290000Y-83019000D01*
X158270000Y-83019000D01*
X158270000Y-82765000D01*
X158290000Y-82765000D01*
X158290000Y-81557531D01*
X158544000Y-81557531D01*
X158544000Y-82765000D01*
X159750817Y-82765000D01*
X159871958Y-82532974D01*
X159699688Y-82117053D01*
X159305490Y-81685179D01*
X158776027Y-81437032D01*
X158544000Y-81557531D01*
X158290000Y-81557531D01*
X158057973Y-81437032D01*
X157528510Y-81685179D01*
X157134312Y-82117053D01*
X157000866Y-82439240D01*
X157000296Y-82436377D01*
X156742206Y-82050119D01*
X156355948Y-81792029D01*
X155900325Y-81701400D01*
X155853675Y-81701400D01*
X155398052Y-81792029D01*
X155011794Y-82050119D01*
X154753704Y-82436377D01*
X154663075Y-82892000D01*
X154753704Y-83347623D01*
X155011794Y-83733881D01*
X155398052Y-83991971D01*
X155853675Y-84082600D01*
X155900325Y-84082600D01*
X156355948Y-83991971D01*
X156742206Y-83733881D01*
X157000296Y-83347623D01*
X157000866Y-83344760D01*
X157134312Y-83666947D01*
X157528510Y-84098821D01*
X157999864Y-84319734D01*
X157938052Y-84332029D01*
X157551794Y-84590119D01*
X157293704Y-84976377D01*
X157203075Y-85432000D01*
X157293704Y-85887623D01*
X157333422Y-85947064D01*
X156279000Y-87001486D01*
X156279000Y-86547277D01*
X156355948Y-86531971D01*
X156742206Y-86273881D01*
X157000296Y-85887623D01*
X157090925Y-85432000D01*
X157000296Y-84976377D01*
X156742206Y-84590119D01*
X156355948Y-84332029D01*
X155900325Y-84241400D01*
X155853675Y-84241400D01*
X155398052Y-84332029D01*
X155011794Y-84590119D01*
X154753704Y-84976377D01*
X154663075Y-85432000D01*
X154753704Y-85887623D01*
X155011794Y-86273881D01*
X155398052Y-86531971D01*
X155475000Y-86547277D01*
X155475000Y-86868464D01*
X153739000Y-88604464D01*
X153739000Y-86547277D01*
X153815948Y-86531971D01*
X154202206Y-86273881D01*
X154460296Y-85887623D01*
X154550925Y-85432000D01*
X154460296Y-84976377D01*
X154202206Y-84590119D01*
X153815948Y-84332029D01*
X153360325Y-84241400D01*
X153313675Y-84241400D01*
X152858052Y-84332029D01*
X152471794Y-84590119D01*
X152213704Y-84976377D01*
X152123075Y-85432000D01*
X152213704Y-85887623D01*
X152471794Y-86273881D01*
X152858052Y-86531971D01*
X152935000Y-86547277D01*
X152935000Y-88786212D01*
X151352000Y-90369212D01*
X151352000Y-86481155D01*
X151662206Y-86273881D01*
X151920296Y-85887623D01*
X152010925Y-85432000D01*
X151920296Y-84976377D01*
X151662206Y-84590119D01*
X151275948Y-84332029D01*
X150820325Y-84241400D01*
X150773675Y-84241400D01*
X150318052Y-84332029D01*
X149931794Y-84590119D01*
X149673704Y-84976377D01*
X149583075Y-85432000D01*
X149673704Y-85887623D01*
X149931794Y-86273881D01*
X150318052Y-86531971D01*
X150548000Y-86577710D01*
X150548000Y-90763076D01*
X148659000Y-92652075D01*
X148659000Y-86547277D01*
X148735948Y-86531971D01*
X149122206Y-86273881D01*
X149380296Y-85887623D01*
X149470925Y-85432000D01*
X149380296Y-84976377D01*
X149122206Y-84590119D01*
X149105565Y-84579000D01*
X149536995Y-84579000D01*
X149537000Y-84579001D01*
X149700406Y-84546497D01*
X149838935Y-84453935D01*
X150307770Y-83985100D01*
X150318052Y-83991971D01*
X150773675Y-84082600D01*
X150820325Y-84082600D01*
X151275948Y-83991971D01*
X151662206Y-83733881D01*
X151920296Y-83347623D01*
X152010925Y-82892000D01*
X151920296Y-82436377D01*
X151662206Y-82050119D01*
X151400699Y-81875385D01*
X151716515Y-81875385D01*
X152239260Y-82398130D01*
X152213704Y-82436377D01*
X152123075Y-82892000D01*
X152213704Y-83347623D01*
X152471794Y-83733881D01*
X152858052Y-83991971D01*
X153313675Y-84082600D01*
X153360325Y-84082600D01*
X153815948Y-83991971D01*
X154202206Y-83733881D01*
X154460296Y-83347623D01*
X154550925Y-82892000D01*
X154460296Y-82436377D01*
X154202206Y-82050119D01*
X153815948Y-81792029D01*
X153360325Y-81701400D01*
X153313675Y-81701400D01*
X152858052Y-81792029D01*
X152847770Y-81798900D01*
X152337871Y-81289001D01*
X152996196Y-81289001D01*
X152996201Y-81289002D01*
X153046479Y-81279001D01*
X159935131Y-81279001D01*
X160753000Y-82096869D01*
X160753000Y-87294575D01*
X160752999Y-87294580D01*
X160785503Y-87457986D01*
X160878065Y-87596515D01*
X164700980Y-91419429D01*
X164700980Y-91582316D01*
X164596745Y-91686369D01*
X164501089Y-91916735D01*
X164500871Y-92166171D01*
X164596125Y-92396703D01*
X164772349Y-92573235D01*
X165002715Y-92668891D01*
X165252151Y-92669109D01*
X165482683Y-92573855D01*
X165659215Y-92397631D01*
X165754871Y-92167265D01*
X165755089Y-91917829D01*
X165659835Y-91687297D01*
X165554980Y-91582259D01*
X165554980Y-91242565D01*
X165554981Y-91242560D01*
X165522477Y-91079154D01*
X165467087Y-90996257D01*
X165429915Y-90940625D01*
X165429912Y-90940623D01*
X161607000Y-87117710D01*
X161607000Y-84467176D01*
X162540591Y-84467176D01*
X162898971Y-85334521D01*
X163561989Y-85998697D01*
X164428707Y-86358590D01*
X165367176Y-86359409D01*
X166234521Y-86001029D01*
X166898697Y-85338011D01*
X167258590Y-84471293D01*
X167259409Y-83532824D01*
X166901029Y-82665479D01*
X166238011Y-82001303D01*
X165371293Y-81641410D01*
X164432824Y-81640591D01*
X163565479Y-81998971D01*
X162901303Y-82661989D01*
X162541410Y-83528707D01*
X162540591Y-84467176D01*
X161607000Y-84467176D01*
X161607000Y-81920005D01*
X161607001Y-81920000D01*
X161574497Y-81756594D01*
X161548572Y-81717795D01*
X161481935Y-81618065D01*
X161481932Y-81618063D01*
X160413936Y-80550066D01*
X160275407Y-80457504D01*
X160112001Y-80425000D01*
X160111996Y-80425001D01*
X153006201Y-80425001D01*
X152955927Y-80435001D01*
X148537323Y-80435001D01*
X148481206Y-80397505D01*
X148317800Y-80365001D01*
X148317795Y-80365002D01*
X145193902Y-80365002D01*
X145194109Y-80127829D01*
X145098855Y-79897297D01*
X144922631Y-79720765D01*
X144752209Y-79650000D01*
X164552405Y-79650000D01*
X166379180Y-80013368D01*
X167894276Y-81025723D01*
X168906632Y-82540820D01*
X169173000Y-83879943D01*
X169173000Y-119828057D01*
X168906632Y-121167180D01*
X167894276Y-122682277D01*
X166379180Y-123694632D01*
X164552405Y-124058000D01*
X129579595Y-124058000D01*
X127752820Y-123694632D01*
X126237723Y-122682276D01*
X125225368Y-121167180D01*
X125006564Y-120067176D01*
X126840591Y-120067176D01*
X127198971Y-120934521D01*
X127861989Y-121598697D01*
X128728707Y-121958590D01*
X129667176Y-121959409D01*
X130534521Y-121601029D01*
X131198697Y-120938011D01*
X131238968Y-120841026D01*
X134112042Y-120841026D01*
X134284312Y-121256947D01*
X134678510Y-121688821D01*
X135207973Y-121936968D01*
X135440000Y-121816469D01*
X135440000Y-120609000D01*
X134233183Y-120609000D01*
X134112042Y-120841026D01*
X131238968Y-120841026D01*
X131537130Y-120122974D01*
X134112042Y-120122974D01*
X134233183Y-120355000D01*
X135440000Y-120355000D01*
X135440000Y-120335000D01*
X135694000Y-120335000D01*
X135694000Y-120355000D01*
X135714000Y-120355000D01*
X135714000Y-120609000D01*
X135694000Y-120609000D01*
X135694000Y-121816469D01*
X135926027Y-121936968D01*
X136455490Y-121688821D01*
X136849688Y-121256947D01*
X136983134Y-120934760D01*
X136983704Y-120937623D01*
X137241794Y-121323881D01*
X137628052Y-121581971D01*
X138083675Y-121672600D01*
X138130325Y-121672600D01*
X138585948Y-121581971D01*
X138972206Y-121323881D01*
X139230296Y-120937623D01*
X139320925Y-120482000D01*
X139230296Y-120026377D01*
X139190578Y-119966936D01*
X139377000Y-119780514D01*
X139563422Y-119966936D01*
X139523704Y-120026377D01*
X139433075Y-120482000D01*
X139523704Y-120937623D01*
X139781794Y-121323881D01*
X140168052Y-121581971D01*
X140623675Y-121672600D01*
X140670325Y-121672600D01*
X141125948Y-121581971D01*
X141512206Y-121323881D01*
X141770296Y-120937623D01*
X141860925Y-120482000D01*
X141973075Y-120482000D01*
X142063704Y-120937623D01*
X142321794Y-121323881D01*
X142708052Y-121581971D01*
X143163675Y-121672600D01*
X143210325Y-121672600D01*
X143665948Y-121581971D01*
X144052206Y-121323881D01*
X144310296Y-120937623D01*
X144400925Y-120482000D01*
X144513075Y-120482000D01*
X144603704Y-120937623D01*
X144861794Y-121323881D01*
X145248052Y-121581971D01*
X145703675Y-121672600D01*
X145750325Y-121672600D01*
X146205948Y-121581971D01*
X146592206Y-121323881D01*
X146850296Y-120937623D01*
X146940925Y-120482000D01*
X147053075Y-120482000D01*
X147143704Y-120937623D01*
X147401794Y-121323881D01*
X147788052Y-121581971D01*
X148243675Y-121672600D01*
X148290325Y-121672600D01*
X148745948Y-121581971D01*
X149132206Y-121323881D01*
X149390296Y-120937623D01*
X149480925Y-120482000D01*
X149593075Y-120482000D01*
X149683704Y-120937623D01*
X149941794Y-121323881D01*
X150328052Y-121581971D01*
X150783675Y-121672600D01*
X150830325Y-121672600D01*
X151285948Y-121581971D01*
X151672206Y-121323881D01*
X151930296Y-120937623D01*
X152020925Y-120482000D01*
X152133075Y-120482000D01*
X152223704Y-120937623D01*
X152481794Y-121323881D01*
X152868052Y-121581971D01*
X153323675Y-121672600D01*
X153370325Y-121672600D01*
X153825948Y-121581971D01*
X154212206Y-121323881D01*
X154470296Y-120937623D01*
X154560925Y-120482000D01*
X154673075Y-120482000D01*
X154763704Y-120937623D01*
X155021794Y-121323881D01*
X155408052Y-121581971D01*
X155863675Y-121672600D01*
X155910325Y-121672600D01*
X156365948Y-121581971D01*
X156752206Y-121323881D01*
X157010296Y-120937623D01*
X157100925Y-120482000D01*
X157213075Y-120482000D01*
X157303704Y-120937623D01*
X157561794Y-121323881D01*
X157948052Y-121581971D01*
X158403675Y-121672600D01*
X158450325Y-121672600D01*
X158905948Y-121581971D01*
X159292206Y-121323881D01*
X159550296Y-120937623D01*
X159640925Y-120482000D01*
X159558412Y-120067176D01*
X162340591Y-120067176D01*
X162698971Y-120934521D01*
X163361989Y-121598697D01*
X164228707Y-121958590D01*
X165167176Y-121959409D01*
X166034521Y-121601029D01*
X166698697Y-120938011D01*
X167058590Y-120071293D01*
X167059409Y-119132824D01*
X166701029Y-118265479D01*
X166038011Y-117601303D01*
X165171293Y-117241410D01*
X164232824Y-117240591D01*
X163365479Y-117598971D01*
X162701303Y-118261989D01*
X162341410Y-119128707D01*
X162340591Y-120067176D01*
X159558412Y-120067176D01*
X159550296Y-120026377D01*
X159292206Y-119640119D01*
X158905948Y-119382029D01*
X158450325Y-119291400D01*
X158403675Y-119291400D01*
X157948052Y-119382029D01*
X157561794Y-119640119D01*
X157303704Y-120026377D01*
X157213075Y-120482000D01*
X157100925Y-120482000D01*
X157010296Y-120026377D01*
X156752206Y-119640119D01*
X156365948Y-119382029D01*
X155910325Y-119291400D01*
X155863675Y-119291400D01*
X155408052Y-119382029D01*
X155021794Y-119640119D01*
X154763704Y-120026377D01*
X154673075Y-120482000D01*
X154560925Y-120482000D01*
X154470296Y-120026377D01*
X154212206Y-119640119D01*
X153825948Y-119382029D01*
X153370325Y-119291400D01*
X153323675Y-119291400D01*
X152868052Y-119382029D01*
X152481794Y-119640119D01*
X152223704Y-120026377D01*
X152133075Y-120482000D01*
X152020925Y-120482000D01*
X151930296Y-120026377D01*
X151672206Y-119640119D01*
X151285948Y-119382029D01*
X150830325Y-119291400D01*
X150783675Y-119291400D01*
X150328052Y-119382029D01*
X149941794Y-119640119D01*
X149683704Y-120026377D01*
X149593075Y-120482000D01*
X149480925Y-120482000D01*
X149390296Y-120026377D01*
X149132206Y-119640119D01*
X148745948Y-119382029D01*
X148290325Y-119291400D01*
X148243675Y-119291400D01*
X147788052Y-119382029D01*
X147401794Y-119640119D01*
X147143704Y-120026377D01*
X147053075Y-120482000D01*
X146940925Y-120482000D01*
X146850296Y-120026377D01*
X146592206Y-119640119D01*
X146205948Y-119382029D01*
X145750325Y-119291400D01*
X145703675Y-119291400D01*
X145248052Y-119382029D01*
X144861794Y-119640119D01*
X144603704Y-120026377D01*
X144513075Y-120482000D01*
X144400925Y-120482000D01*
X144310296Y-120026377D01*
X144052206Y-119640119D01*
X143665948Y-119382029D01*
X143210325Y-119291400D01*
X143163675Y-119291400D01*
X142708052Y-119382029D01*
X142321794Y-119640119D01*
X142063704Y-120026377D01*
X141973075Y-120482000D01*
X141860925Y-120482000D01*
X141770296Y-120026377D01*
X141512206Y-119640119D01*
X141125948Y-119382029D01*
X140670325Y-119291400D01*
X140623675Y-119291400D01*
X140168052Y-119382029D01*
X140136575Y-119403061D01*
X139943999Y-119210485D01*
X139943999Y-118892263D01*
X140168052Y-119041971D01*
X140623675Y-119132600D01*
X140670325Y-119132600D01*
X141125948Y-119041971D01*
X141512206Y-118783881D01*
X141770296Y-118397623D01*
X141860925Y-117942000D01*
X141973075Y-117942000D01*
X142063704Y-118397623D01*
X142321794Y-118783881D01*
X142708052Y-119041971D01*
X143163675Y-119132600D01*
X143210325Y-119132600D01*
X143665948Y-119041971D01*
X144052206Y-118783881D01*
X144310296Y-118397623D01*
X144400925Y-117942000D01*
X144513075Y-117942000D01*
X144603704Y-118397623D01*
X144861794Y-118783881D01*
X145248052Y-119041971D01*
X145703675Y-119132600D01*
X145750325Y-119132600D01*
X146205948Y-119041971D01*
X146592206Y-118783881D01*
X146850296Y-118397623D01*
X146940925Y-117942000D01*
X147053075Y-117942000D01*
X147143704Y-118397623D01*
X147401794Y-118783881D01*
X147788052Y-119041971D01*
X148243675Y-119132600D01*
X148290325Y-119132600D01*
X148745948Y-119041971D01*
X149132206Y-118783881D01*
X149390296Y-118397623D01*
X149480925Y-117942000D01*
X149593075Y-117942000D01*
X149683704Y-118397623D01*
X149941794Y-118783881D01*
X150328052Y-119041971D01*
X150783675Y-119132600D01*
X150830325Y-119132600D01*
X151285948Y-119041971D01*
X151672206Y-118783881D01*
X151930296Y-118397623D01*
X152020925Y-117942000D01*
X152133075Y-117942000D01*
X152223704Y-118397623D01*
X152481794Y-118783881D01*
X152868052Y-119041971D01*
X153323675Y-119132600D01*
X153370325Y-119132600D01*
X153825948Y-119041971D01*
X154212206Y-118783881D01*
X154470296Y-118397623D01*
X154560925Y-117942000D01*
X154673075Y-117942000D01*
X154763704Y-118397623D01*
X155021794Y-118783881D01*
X155408052Y-119041971D01*
X155863675Y-119132600D01*
X155910325Y-119132600D01*
X156365948Y-119041971D01*
X156752206Y-118783881D01*
X157010296Y-118397623D01*
X157100925Y-117942000D01*
X157213075Y-117942000D01*
X157303704Y-118397623D01*
X157561794Y-118783881D01*
X157948052Y-119041971D01*
X158403675Y-119132600D01*
X158450325Y-119132600D01*
X158905948Y-119041971D01*
X159292206Y-118783881D01*
X159550296Y-118397623D01*
X159640925Y-117942000D01*
X159550296Y-117486377D01*
X159292206Y-117100119D01*
X158905948Y-116842029D01*
X158450325Y-116751400D01*
X158403675Y-116751400D01*
X157948052Y-116842029D01*
X157561794Y-117100119D01*
X157303704Y-117486377D01*
X157213075Y-117942000D01*
X157100925Y-117942000D01*
X157010296Y-117486377D01*
X156752206Y-117100119D01*
X156365948Y-116842029D01*
X155910325Y-116751400D01*
X155863675Y-116751400D01*
X155408052Y-116842029D01*
X155021794Y-117100119D01*
X154763704Y-117486377D01*
X154673075Y-117942000D01*
X154560925Y-117942000D01*
X154470296Y-117486377D01*
X154212206Y-117100119D01*
X153825948Y-116842029D01*
X153370325Y-116751400D01*
X153323675Y-116751400D01*
X152868052Y-116842029D01*
X152481794Y-117100119D01*
X152223704Y-117486377D01*
X152133075Y-117942000D01*
X152020925Y-117942000D01*
X151930296Y-117486377D01*
X151672206Y-117100119D01*
X151285948Y-116842029D01*
X150830325Y-116751400D01*
X150783675Y-116751400D01*
X150328052Y-116842029D01*
X149941794Y-117100119D01*
X149683704Y-117486377D01*
X149593075Y-117942000D01*
X149480925Y-117942000D01*
X149390296Y-117486377D01*
X149132206Y-117100119D01*
X148745948Y-116842029D01*
X148290325Y-116751400D01*
X148243675Y-116751400D01*
X147788052Y-116842029D01*
X147401794Y-117100119D01*
X147143704Y-117486377D01*
X147053075Y-117942000D01*
X146940925Y-117942000D01*
X146850296Y-117486377D01*
X146592206Y-117100119D01*
X146205948Y-116842029D01*
X145750325Y-116751400D01*
X145703675Y-116751400D01*
X145248052Y-116842029D01*
X144861794Y-117100119D01*
X144603704Y-117486377D01*
X144513075Y-117942000D01*
X144400925Y-117942000D01*
X144310296Y-117486377D01*
X144052206Y-117100119D01*
X143665948Y-116842029D01*
X143210325Y-116751400D01*
X143163675Y-116751400D01*
X142708052Y-116842029D01*
X142321794Y-117100119D01*
X142063704Y-117486377D01*
X141973075Y-117942000D01*
X141860925Y-117942000D01*
X141770296Y-117486377D01*
X141512206Y-117100119D01*
X141125948Y-116842029D01*
X140670325Y-116751400D01*
X140623675Y-116751400D01*
X140168052Y-116842029D01*
X139943999Y-116991737D01*
X139943999Y-116677859D01*
X141784858Y-114837000D01*
X144488344Y-114837000D01*
X144642183Y-114806400D01*
X144772601Y-114719257D01*
X149241750Y-110250108D01*
X159444398Y-110250108D01*
X159624157Y-110585884D01*
X160474161Y-110923176D01*
X161388538Y-110909511D01*
X162169843Y-110585884D01*
X162349602Y-110250108D01*
X160897000Y-108797505D01*
X159444398Y-110250108D01*
X149241750Y-110250108D01*
X151296797Y-108195061D01*
X158591724Y-108195061D01*
X158605389Y-109109438D01*
X158929016Y-109890743D01*
X159264792Y-110070502D01*
X160717395Y-108617900D01*
X161076605Y-108617900D01*
X162529208Y-110070502D01*
X162864984Y-109890743D01*
X163202276Y-109040739D01*
X163188611Y-108126362D01*
X162864984Y-107345057D01*
X162529208Y-107165298D01*
X161076605Y-108617900D01*
X160717395Y-108617900D01*
X159264792Y-107165298D01*
X158929016Y-107345057D01*
X158591724Y-108195061D01*
X151296797Y-108195061D01*
X152506166Y-106985692D01*
X159444398Y-106985692D01*
X160897000Y-108438295D01*
X162349602Y-106985692D01*
X162169843Y-106649916D01*
X161319839Y-106312624D01*
X160405462Y-106326289D01*
X159624157Y-106649916D01*
X159444398Y-106985692D01*
X152506166Y-106985692D01*
X153741753Y-105750105D01*
X157140820Y-105750105D01*
X157298543Y-106131825D01*
X157590339Y-106424130D01*
X157971783Y-106582520D01*
X158384805Y-106582880D01*
X158766525Y-106425157D01*
X159058830Y-106133361D01*
X159217220Y-105751917D01*
X159217580Y-105338895D01*
X159059857Y-104957175D01*
X158768061Y-104664870D01*
X158386617Y-104506480D01*
X157973595Y-104506120D01*
X157591875Y-104663843D01*
X157299570Y-104955639D01*
X157141180Y-105337083D01*
X157140820Y-105750105D01*
X153741753Y-105750105D01*
X156872859Y-102618999D01*
X157174385Y-102618999D01*
X157218078Y-102662692D01*
X157141180Y-102847883D01*
X157140820Y-103260905D01*
X157298543Y-103642625D01*
X157590339Y-103934930D01*
X157971783Y-104093320D01*
X158384805Y-104093680D01*
X158766525Y-103935957D01*
X159058830Y-103644161D01*
X159217220Y-103262717D01*
X159217580Y-102849695D01*
X159059857Y-102467975D01*
X158768061Y-102175670D01*
X158469969Y-102051891D01*
X158766525Y-101929357D01*
X159058830Y-101637561D01*
X159217220Y-101256117D01*
X159217580Y-100843095D01*
X159059857Y-100461375D01*
X158768061Y-100169070D01*
X158386617Y-100010680D01*
X157973595Y-100010320D01*
X157591875Y-100168043D01*
X157299570Y-100459839D01*
X157141180Y-100841283D01*
X157140820Y-101254305D01*
X157218085Y-101441301D01*
X157174385Y-101485001D01*
X156569655Y-101485001D01*
X156415816Y-101515601D01*
X156285398Y-101602744D01*
X144185142Y-113703000D01*
X141481656Y-113703000D01*
X141327817Y-113733600D01*
X141197399Y-113820743D01*
X140995443Y-114022699D01*
X140984148Y-113814801D01*
X140836800Y-113459071D01*
X140601188Y-113397417D01*
X139846605Y-114152000D01*
X139860748Y-114166143D01*
X139681143Y-114345748D01*
X139667000Y-114331605D01*
X138912417Y-115086188D01*
X138974071Y-115321800D01*
X139474480Y-115497927D01*
X139522842Y-115495300D01*
X138927744Y-116090398D01*
X138840601Y-116220816D01*
X138810001Y-116374655D01*
X138810001Y-116991737D01*
X138585948Y-116842029D01*
X138130325Y-116751400D01*
X138083675Y-116751400D01*
X137628052Y-116842029D01*
X137241794Y-117100119D01*
X136983704Y-117486377D01*
X136893075Y-117942000D01*
X136983704Y-118397623D01*
X137241794Y-118783881D01*
X137628052Y-119041971D01*
X138083675Y-119132600D01*
X138130325Y-119132600D01*
X138585948Y-119041971D01*
X138810001Y-118892263D01*
X138810001Y-119210485D01*
X138617425Y-119403061D01*
X138585948Y-119382029D01*
X138130325Y-119291400D01*
X138083675Y-119291400D01*
X137628052Y-119382029D01*
X137241794Y-119640119D01*
X136983704Y-120026377D01*
X136983134Y-120029240D01*
X136849688Y-119707053D01*
X136455490Y-119275179D01*
X136164942Y-119139006D01*
X136430600Y-119139006D01*
X136551779Y-119116205D01*
X136663074Y-119044588D01*
X136737738Y-118935314D01*
X136764006Y-118805600D01*
X136764006Y-117078400D01*
X136741205Y-116957221D01*
X136669588Y-116845926D01*
X136560314Y-116771262D01*
X136430600Y-116744994D01*
X134703400Y-116744994D01*
X134582221Y-116767795D01*
X134470926Y-116839412D01*
X134396262Y-116948686D01*
X134369994Y-117078400D01*
X134369994Y-118805600D01*
X134392795Y-118926779D01*
X134464412Y-119038074D01*
X134573686Y-119112738D01*
X134703400Y-119139006D01*
X134969058Y-119139006D01*
X134678510Y-119275179D01*
X134284312Y-119707053D01*
X134112042Y-120122974D01*
X131537130Y-120122974D01*
X131558590Y-120071293D01*
X131559409Y-119132824D01*
X131201029Y-118265479D01*
X130538011Y-117601303D01*
X129671293Y-117241410D01*
X128732824Y-117240591D01*
X127865479Y-117598971D01*
X127201303Y-118261989D01*
X126841410Y-119128707D01*
X126840591Y-120067176D01*
X125006564Y-120067176D01*
X124862000Y-119340405D01*
X124862000Y-114364159D01*
X128294446Y-114364159D01*
X128380852Y-114620643D01*
X128954336Y-114830458D01*
X129564460Y-114804839D01*
X130009148Y-114620643D01*
X130095554Y-114364159D01*
X129195000Y-113463605D01*
X128294446Y-114364159D01*
X124862000Y-114364159D01*
X124862000Y-113043336D01*
X127648542Y-113043336D01*
X127674161Y-113653460D01*
X127858357Y-114098148D01*
X128114841Y-114184554D01*
X129015395Y-113284000D01*
X129374605Y-113284000D01*
X130275159Y-114184554D01*
X130531643Y-114098148D01*
X130741458Y-113524664D01*
X130715839Y-112914540D01*
X130531643Y-112469852D01*
X130275159Y-112383446D01*
X129374605Y-113284000D01*
X129015395Y-113284000D01*
X128114841Y-112383446D01*
X127858357Y-112469852D01*
X127648542Y-113043336D01*
X124862000Y-113043336D01*
X124862000Y-112203841D01*
X128294446Y-112203841D01*
X129195000Y-113104395D01*
X130095554Y-112203841D01*
X130009148Y-111947357D01*
X129435664Y-111737542D01*
X128825540Y-111763161D01*
X128380852Y-111947357D01*
X128294446Y-112203841D01*
X124862000Y-112203841D01*
X124862000Y-110521750D01*
X132250180Y-110521750D01*
X132250180Y-110961749D01*
X132346853Y-111195138D01*
X132525481Y-111373767D01*
X132758870Y-111470440D01*
X133699250Y-111470440D01*
X133858000Y-111311690D01*
X133858000Y-110363000D01*
X132408930Y-110363000D01*
X132250180Y-110521750D01*
X124862000Y-110521750D01*
X124862000Y-109510251D01*
X132250180Y-109510251D01*
X132250180Y-109950250D01*
X132408930Y-110109000D01*
X133858000Y-110109000D01*
X133858000Y-109160310D01*
X134112000Y-109160310D01*
X134112000Y-110109000D01*
X135561070Y-110109000D01*
X135719820Y-109950250D01*
X135719820Y-109510251D01*
X135623147Y-109276862D01*
X135444519Y-109098233D01*
X135211130Y-109001560D01*
X134270750Y-109001560D01*
X134112000Y-109160310D01*
X133858000Y-109160310D01*
X133699250Y-109001560D01*
X132758870Y-109001560D01*
X132525481Y-109098233D01*
X132346853Y-109276862D01*
X132250180Y-109510251D01*
X124862000Y-109510251D01*
X124862000Y-107603239D01*
X132756537Y-107603239D01*
X132882175Y-107907306D01*
X133114610Y-108140148D01*
X133418458Y-108266316D01*
X133747459Y-108266603D01*
X134051526Y-108140965D01*
X134284368Y-107908530D01*
X134410536Y-107604682D01*
X134410823Y-107275681D01*
X134285185Y-106971614D01*
X134052750Y-106738772D01*
X133748902Y-106612604D01*
X133419901Y-106612317D01*
X133115834Y-106737955D01*
X132882992Y-106970390D01*
X132756824Y-107274238D01*
X132756537Y-107603239D01*
X124862000Y-107603239D01*
X124862000Y-105915873D01*
X125035322Y-106062002D01*
X125460000Y-106197000D01*
X125735000Y-106197000D01*
X125735000Y-105189000D01*
X125989000Y-105189000D01*
X125989000Y-106197000D01*
X126264000Y-106197000D01*
X126688678Y-106062002D01*
X127029368Y-105774763D01*
X127231119Y-105363874D01*
X127104954Y-105189000D01*
X125989000Y-105189000D01*
X125735000Y-105189000D01*
X125715000Y-105189000D01*
X125715000Y-104935000D01*
X125735000Y-104935000D01*
X125735000Y-103927000D01*
X125989000Y-103927000D01*
X125989000Y-104935000D01*
X127104954Y-104935000D01*
X127231119Y-104760126D01*
X127047503Y-104386171D01*
X127384891Y-104386171D01*
X127480145Y-104616703D01*
X127656369Y-104793235D01*
X127886735Y-104888891D01*
X128136171Y-104889109D01*
X128366703Y-104793855D01*
X128543235Y-104617631D01*
X128638891Y-104387265D01*
X128639109Y-104137829D01*
X128543855Y-103907297D01*
X128367631Y-103730765D01*
X128137265Y-103635109D01*
X127887829Y-103634891D01*
X127657297Y-103730145D01*
X127480765Y-103906369D01*
X127385109Y-104136735D01*
X127384891Y-104386171D01*
X127047503Y-104386171D01*
X127029368Y-104349237D01*
X126688678Y-104061998D01*
X126264000Y-103927000D01*
X125989000Y-103927000D01*
X125735000Y-103927000D01*
X125460000Y-103927000D01*
X125035322Y-104061998D01*
X124862000Y-104208127D01*
X124862000Y-100290873D01*
X125035322Y-100437002D01*
X125460000Y-100572000D01*
X125735000Y-100572000D01*
X125735000Y-99564000D01*
X125989000Y-99564000D01*
X125989000Y-100572000D01*
X126264000Y-100572000D01*
X126688678Y-100437002D01*
X126748967Y-100386171D01*
X127384891Y-100386171D01*
X127480145Y-100616703D01*
X127656369Y-100793235D01*
X127886735Y-100888891D01*
X128136171Y-100889109D01*
X128366703Y-100793855D01*
X128543235Y-100617631D01*
X128638891Y-100387265D01*
X128639109Y-100137829D01*
X128543855Y-99907297D01*
X128367631Y-99730765D01*
X128137265Y-99635109D01*
X127887829Y-99634891D01*
X127657297Y-99730145D01*
X127480765Y-99906369D01*
X127385109Y-100136735D01*
X127384891Y-100386171D01*
X126748967Y-100386171D01*
X127029368Y-100149763D01*
X127231119Y-99738874D01*
X127104954Y-99564000D01*
X125989000Y-99564000D01*
X125735000Y-99564000D01*
X125715000Y-99564000D01*
X125715000Y-99310000D01*
X125735000Y-99310000D01*
X125735000Y-98302000D01*
X125989000Y-98302000D01*
X125989000Y-99310000D01*
X127104954Y-99310000D01*
X127231119Y-99135126D01*
X127029368Y-98724237D01*
X126688678Y-98436998D01*
X126264000Y-98302000D01*
X125989000Y-98302000D01*
X125735000Y-98302000D01*
X125460000Y-98302000D01*
X125035322Y-98436998D01*
X124862000Y-98583127D01*
X124862000Y-84467176D01*
X126940591Y-84467176D01*
X127298971Y-85334521D01*
X127961989Y-85998697D01*
X128828707Y-86358590D01*
X129767176Y-86359409D01*
X130634521Y-86001029D01*
X131298697Y-85338011D01*
X131658590Y-84471293D01*
X131659409Y-83532824D01*
X131301029Y-82665479D01*
X130638011Y-82001303D01*
X129771293Y-81641410D01*
X128832824Y-81640591D01*
X127965479Y-81998971D01*
X127301303Y-82661989D01*
X126941410Y-83528707D01*
X126940591Y-84467176D01*
X124862000Y-84467176D01*
X124862000Y-84367595D01*
X125225368Y-82540820D01*
X126237723Y-81025724D01*
X127752820Y-80013368D01*
X129579595Y-79650000D01*
X144382061Y-79650000D01*
X144212297Y-79720145D01*
G36*
X150120114Y-93580326D02*
X150094917Y-93707000D01*
X150079999Y-93782001D01*
X150079999Y-94530913D01*
X146074355Y-98536557D01*
X145960115Y-98707527D01*
X145960115Y-98707528D01*
X145920000Y-98909202D01*
X145920000Y-101240141D01*
X145915765Y-101244369D01*
X145820109Y-101474735D01*
X145819891Y-101724171D01*
X145833232Y-101756458D01*
X145340736Y-102248954D01*
X145340736Y-102088950D01*
X145317935Y-101967771D01*
X145266403Y-101887689D01*
X145314468Y-101817344D01*
X145340736Y-101687630D01*
X145340736Y-100989130D01*
X145317935Y-100867951D01*
X145266403Y-100787869D01*
X145314468Y-100717524D01*
X145340736Y-100587810D01*
X145340736Y-99889310D01*
X145317935Y-99768131D01*
X145246318Y-99656836D01*
X145137044Y-99582172D01*
X145007330Y-99555904D01*
X144610500Y-99555904D01*
X144610500Y-99526718D01*
X147771323Y-96365895D01*
X147858466Y-96235477D01*
X147889066Y-96081638D01*
X147889066Y-95799992D01*
X149701298Y-93987763D01*
X149701301Y-93987761D01*
X149722542Y-93955972D01*
X150164267Y-93514247D01*
X150120114Y-93580326D01*
X150120114Y-93580326D01*
G37*
X150120114Y-93580326D02*
X150094917Y-93707000D01*
X150079999Y-93782001D01*
X150079999Y-94530913D01*
X146074355Y-98536557D01*
X145960115Y-98707527D01*
X145960115Y-98707528D01*
X145920000Y-98909202D01*
X145920000Y-101240141D01*
X145915765Y-101244369D01*
X145820109Y-101474735D01*
X145819891Y-101724171D01*
X145833232Y-101756458D01*
X145340736Y-102248954D01*
X145340736Y-102088950D01*
X145317935Y-101967771D01*
X145266403Y-101887689D01*
X145314468Y-101817344D01*
X145340736Y-101687630D01*
X145340736Y-100989130D01*
X145317935Y-100867951D01*
X145266403Y-100787869D01*
X145314468Y-100717524D01*
X145340736Y-100587810D01*
X145340736Y-99889310D01*
X145317935Y-99768131D01*
X145246318Y-99656836D01*
X145137044Y-99582172D01*
X145007330Y-99555904D01*
X144610500Y-99555904D01*
X144610500Y-99526718D01*
X147771323Y-96365895D01*
X147858466Y-96235477D01*
X147889066Y-96081638D01*
X147889066Y-95799992D01*
X149701298Y-93987763D01*
X149701301Y-93987761D01*
X149722542Y-93955972D01*
X150164267Y-93514247D01*
X150120114Y-93580326D01*
G36*
X139883000Y-93398291D02*
X139883000Y-97271709D01*
X138880000Y-98274710D01*
X138578509Y-97973219D01*
X138646088Y-97945227D01*
X138824717Y-97766599D01*
X138921390Y-97533210D01*
X138921390Y-97243070D01*
X138830798Y-97152478D01*
X138859029Y-97084322D01*
X138921390Y-97084322D01*
X138921390Y-97026424D01*
X138996608Y-96995267D01*
X139136655Y-96855221D01*
X139136655Y-96933190D01*
X139295405Y-97091940D01*
X139362659Y-97091940D01*
X139596048Y-96995267D01*
X139774677Y-96816639D01*
X139871350Y-96583250D01*
X139871350Y-96293110D01*
X139712600Y-96134360D01*
X139136655Y-96134360D01*
X139136655Y-96157855D01*
X139113160Y-96134360D01*
X138889960Y-96134360D01*
X138889960Y-96103560D01*
X138921390Y-96072130D01*
X138921390Y-95880360D01*
X139113160Y-95880360D01*
X139133160Y-95860360D01*
X139136655Y-95860360D01*
X139136655Y-95880360D01*
X139712600Y-95880360D01*
X139871350Y-95721610D01*
X139871350Y-95431470D01*
X139841605Y-95359660D01*
X139871350Y-95287850D01*
X139871350Y-94997710D01*
X139712600Y-94838960D01*
X139136655Y-94838960D01*
X139136655Y-94858960D01*
X139133160Y-94858960D01*
X139113160Y-94838960D01*
X138921390Y-94838960D01*
X138921390Y-94647190D01*
X138889960Y-94615760D01*
X138889960Y-94584960D01*
X139113160Y-94584960D01*
X139136655Y-94561465D01*
X139136655Y-94584960D01*
X139712600Y-94584960D01*
X139871350Y-94426210D01*
X139871350Y-94136070D01*
X139774677Y-93902681D01*
X139596048Y-93724053D01*
X139362659Y-93627380D01*
X139295405Y-93627380D01*
X139136655Y-93786130D01*
X139136655Y-93864099D01*
X138996608Y-93724053D01*
X138921390Y-93692896D01*
X138921390Y-93634998D01*
X138859029Y-93634998D01*
X138830798Y-93566842D01*
X138921390Y-93476250D01*
X138921390Y-93186110D01*
X138824717Y-92952721D01*
X138728995Y-92857000D01*
X139341710Y-92857000D01*
X139883000Y-93398291D01*
X139883000Y-93398291D01*
G37*
X139883000Y-93398291D02*
X139883000Y-97271709D01*
X138880000Y-98274710D01*
X138578509Y-97973219D01*
X138646088Y-97945227D01*
X138824717Y-97766599D01*
X138921390Y-97533210D01*
X138921390Y-97243070D01*
X138830798Y-97152478D01*
X138859029Y-97084322D01*
X138921390Y-97084322D01*
X138921390Y-97026424D01*
X138996608Y-96995267D01*
X139136655Y-96855221D01*
X139136655Y-96933190D01*
X139295405Y-97091940D01*
X139362659Y-97091940D01*
X139596048Y-96995267D01*
X139774677Y-96816639D01*
X139871350Y-96583250D01*
X139871350Y-96293110D01*
X139712600Y-96134360D01*
X139136655Y-96134360D01*
X139136655Y-96157855D01*
X139113160Y-96134360D01*
X138889960Y-96134360D01*
X138889960Y-96103560D01*
X138921390Y-96072130D01*
X138921390Y-95880360D01*
X139113160Y-95880360D01*
X139133160Y-95860360D01*
X139136655Y-95860360D01*
X139136655Y-95880360D01*
X139712600Y-95880360D01*
X139871350Y-95721610D01*
X139871350Y-95431470D01*
X139841605Y-95359660D01*
X139871350Y-95287850D01*
X139871350Y-94997710D01*
X139712600Y-94838960D01*
X139136655Y-94838960D01*
X139136655Y-94858960D01*
X139133160Y-94858960D01*
X139113160Y-94838960D01*
X138921390Y-94838960D01*
X138921390Y-94647190D01*
X138889960Y-94615760D01*
X138889960Y-94584960D01*
X139113160Y-94584960D01*
X139136655Y-94561465D01*
X139136655Y-94584960D01*
X139712600Y-94584960D01*
X139871350Y-94426210D01*
X139871350Y-94136070D01*
X139774677Y-93902681D01*
X139596048Y-93724053D01*
X139362659Y-93627380D01*
X139295405Y-93627380D01*
X139136655Y-93786130D01*
X139136655Y-93864099D01*
X138996608Y-93724053D01*
X138921390Y-93692896D01*
X138921390Y-93634998D01*
X138859029Y-93634998D01*
X138830798Y-93566842D01*
X138921390Y-93476250D01*
X138921390Y-93186110D01*
X138824717Y-92952721D01*
X138728995Y-92857000D01*
X139341710Y-92857000D01*
X139883000Y-93398291D01*
G36*
X130779425Y-96078294D02*
X130779427Y-96078297D01*
X130915083Y-96168939D01*
X130917956Y-96170859D01*
X131081362Y-96203363D01*
X131081367Y-96203362D01*
X132540316Y-96203362D01*
X132644369Y-96307597D01*
X132874735Y-96403253D01*
X133124171Y-96403471D01*
X133354703Y-96308217D01*
X133531235Y-96131993D01*
X133626891Y-95901627D01*
X133627094Y-95669766D01*
X135007250Y-95669766D01*
X135007250Y-95721610D01*
X135166000Y-95880360D01*
X135741945Y-95880360D01*
X135741945Y-95860360D01*
X135745440Y-95860360D01*
X135765440Y-95880360D01*
X135957210Y-95880360D01*
X135957210Y-96072130D01*
X135988640Y-96103560D01*
X135988640Y-96134360D01*
X135765440Y-96134360D01*
X135741945Y-96157855D01*
X135741945Y-96134360D01*
X135166000Y-96134360D01*
X135007250Y-96293110D01*
X135007250Y-96583250D01*
X135103923Y-96816639D01*
X135282552Y-96995267D01*
X135515941Y-97091940D01*
X135583195Y-97091940D01*
X135741945Y-96933190D01*
X135741945Y-96855221D01*
X135881992Y-96995267D01*
X135957210Y-97026424D01*
X135957210Y-97084322D01*
X136019571Y-97084322D01*
X136047802Y-97152478D01*
X135957210Y-97243070D01*
X135957210Y-97315000D01*
X132686859Y-97315000D01*
X132682631Y-97310765D01*
X132452265Y-97215109D01*
X132202829Y-97214891D01*
X131972297Y-97310145D01*
X131795765Y-97486369D01*
X131779369Y-97525855D01*
X128359000Y-94105486D01*
X128359000Y-93657870D01*
X130779425Y-96078294D01*
X130779425Y-96078294D01*
G37*
X130779425Y-96078294D02*
X130779427Y-96078297D01*
X130915083Y-96168939D01*
X130917956Y-96170859D01*
X131081362Y-96203363D01*
X131081367Y-96203362D01*
X132540316Y-96203362D01*
X132644369Y-96307597D01*
X132874735Y-96403253D01*
X133124171Y-96403471D01*
X133354703Y-96308217D01*
X133531235Y-96131993D01*
X133626891Y-95901627D01*
X133627094Y-95669766D01*
X135007250Y-95669766D01*
X135007250Y-95721610D01*
X135166000Y-95880360D01*
X135741945Y-95880360D01*
X135741945Y-95860360D01*
X135745440Y-95860360D01*
X135765440Y-95880360D01*
X135957210Y-95880360D01*
X135957210Y-96072130D01*
X135988640Y-96103560D01*
X135988640Y-96134360D01*
X135765440Y-96134360D01*
X135741945Y-96157855D01*
X135741945Y-96134360D01*
X135166000Y-96134360D01*
X135007250Y-96293110D01*
X135007250Y-96583250D01*
X135103923Y-96816639D01*
X135282552Y-96995267D01*
X135515941Y-97091940D01*
X135583195Y-97091940D01*
X135741945Y-96933190D01*
X135741945Y-96855221D01*
X135881992Y-96995267D01*
X135957210Y-97026424D01*
X135957210Y-97084322D01*
X136019571Y-97084322D01*
X136047802Y-97152478D01*
X135957210Y-97243070D01*
X135957210Y-97315000D01*
X132686859Y-97315000D01*
X132682631Y-97310765D01*
X132452265Y-97215109D01*
X132202829Y-97214891D01*
X131972297Y-97310145D01*
X131795765Y-97486369D01*
X131779369Y-97525855D01*
X128359000Y-94105486D01*
X128359000Y-93657870D01*
X130779425Y-96078294D01*
G36*
X139335145Y-88326703D02*
X139511369Y-88503235D01*
X139741735Y-88598891D01*
X139991171Y-88599109D01*
X140209251Y-88509000D01*
X141607141Y-88509000D01*
X141611369Y-88513235D01*
X141841735Y-88608891D01*
X142091171Y-88609109D01*
X142321703Y-88513855D01*
X142336584Y-88499000D01*
X143607141Y-88499000D01*
X143611369Y-88503235D01*
X143841735Y-88598891D01*
X144091171Y-88599109D01*
X144321703Y-88503855D01*
X144336584Y-88489000D01*
X145587141Y-88489000D01*
X145591369Y-88493235D01*
X145821735Y-88588891D01*
X146071171Y-88589109D01*
X146178599Y-88544721D01*
X146178599Y-89279263D01*
X146072265Y-89235109D01*
X145822829Y-89234891D01*
X145592297Y-89330145D01*
X145415765Y-89506369D01*
X145320109Y-89736735D01*
X145319891Y-89986171D01*
X145415145Y-90216703D01*
X145469417Y-90271069D01*
X145312743Y-90427743D01*
X145225600Y-90558161D01*
X145195000Y-90712000D01*
X145195000Y-95106350D01*
X144789731Y-95511618D01*
X144759682Y-95511618D01*
X144918430Y-95352870D01*
X144918430Y-94713481D01*
X144821757Y-94480092D01*
X144643129Y-94301463D01*
X144409740Y-94204790D01*
X143869410Y-94204790D01*
X143710660Y-94363540D01*
X143710660Y-95511620D01*
X143730660Y-95511620D01*
X143730660Y-95765620D01*
X143710660Y-95765620D01*
X143710660Y-95785620D01*
X143456660Y-95785620D01*
X143456660Y-95765620D01*
X143436660Y-95765620D01*
X143436660Y-95511620D01*
X143456660Y-95511620D01*
X143456660Y-94363540D01*
X143297910Y-94204790D01*
X142897000Y-94204790D01*
X142897000Y-93712005D01*
X142897001Y-93712000D01*
X142864497Y-93548594D01*
X142844132Y-93518116D01*
X142771935Y-93410065D01*
X142771932Y-93410063D01*
X139157000Y-89795130D01*
X139157000Y-88376870D01*
X139297726Y-88236143D01*
X139335145Y-88326703D01*
X139335145Y-88326703D01*
G37*
X139335145Y-88326703D02*
X139511369Y-88503235D01*
X139741735Y-88598891D01*
X139991171Y-88599109D01*
X140209251Y-88509000D01*
X141607141Y-88509000D01*
X141611369Y-88513235D01*
X141841735Y-88608891D01*
X142091171Y-88609109D01*
X142321703Y-88513855D01*
X142336584Y-88499000D01*
X143607141Y-88499000D01*
X143611369Y-88503235D01*
X143841735Y-88598891D01*
X144091171Y-88599109D01*
X144321703Y-88503855D01*
X144336584Y-88489000D01*
X145587141Y-88489000D01*
X145591369Y-88493235D01*
X145821735Y-88588891D01*
X146071171Y-88589109D01*
X146178599Y-88544721D01*
X146178599Y-89279263D01*
X146072265Y-89235109D01*
X145822829Y-89234891D01*
X145592297Y-89330145D01*
X145415765Y-89506369D01*
X145320109Y-89736735D01*
X145319891Y-89986171D01*
X145415145Y-90216703D01*
X145469417Y-90271069D01*
X145312743Y-90427743D01*
X145225600Y-90558161D01*
X145195000Y-90712000D01*
X145195000Y-95106350D01*
X144789731Y-95511618D01*
X144759682Y-95511618D01*
X144918430Y-95352870D01*
X144918430Y-94713481D01*
X144821757Y-94480092D01*
X144643129Y-94301463D01*
X144409740Y-94204790D01*
X143869410Y-94204790D01*
X143710660Y-94363540D01*
X143710660Y-95511620D01*
X143730660Y-95511620D01*
X143730660Y-95765620D01*
X143710660Y-95765620D01*
X143710660Y-95785620D01*
X143456660Y-95785620D01*
X143456660Y-95765620D01*
X143436660Y-95765620D01*
X143436660Y-95511620D01*
X143456660Y-95511620D01*
X143456660Y-94363540D01*
X143297910Y-94204790D01*
X142897000Y-94204790D01*
X142897000Y-93712005D01*
X142897001Y-93712000D01*
X142864497Y-93548594D01*
X142844132Y-93518116D01*
X142771935Y-93410065D01*
X142771932Y-93410063D01*
X139157000Y-89795130D01*
X139157000Y-88376870D01*
X139297726Y-88236143D01*
X139335145Y-88326703D01*
G36*
X137527912Y-95349347D02*
X137552810Y-95359660D01*
X137527912Y-95369973D01*
X137439300Y-95458585D01*
X137350688Y-95369973D01*
X137325790Y-95359660D01*
X137350688Y-95349347D01*
X137439300Y-95260735D01*
X137527912Y-95349347D01*
X137527912Y-95349347D01*
G37*
X137527912Y-95349347D02*
X137552810Y-95359660D01*
X137527912Y-95369973D01*
X137439300Y-95458585D01*
X137350688Y-95369973D01*
X137325790Y-95359660D01*
X137350688Y-95349347D01*
X137439300Y-95260735D01*
X137527912Y-95349347D01*
G36*
X135765440Y-94584960D02*
X135988640Y-94584960D01*
X135988640Y-94615760D01*
X135957210Y-94647190D01*
X135957210Y-94838960D01*
X135765440Y-94838960D01*
X135745440Y-94858960D01*
X135741945Y-94858960D01*
X135741945Y-94838960D01*
X135694640Y-94838960D01*
X135694640Y-94584960D01*
X135741945Y-94584960D01*
X135741945Y-94564960D01*
X135745440Y-94564960D01*
X135765440Y-94584960D01*
X135765440Y-94584960D01*
G37*
X135765440Y-94584960D02*
X135988640Y-94584960D01*
X135988640Y-94615760D01*
X135957210Y-94647190D01*
X135957210Y-94838960D01*
X135765440Y-94838960D01*
X135745440Y-94858960D01*
X135741945Y-94858960D01*
X135741945Y-94838960D01*
X135694640Y-94838960D01*
X135694640Y-94584960D01*
X135741945Y-94584960D01*
X135741945Y-94564960D01*
X135745440Y-94564960D01*
X135765440Y-94584960D01*
G36*
X139055065Y-81951066D02*
X138975543Y-82070079D01*
X138962206Y-82050119D01*
X138575948Y-81792029D01*
X138120325Y-81701400D01*
X138073675Y-81701400D01*
X137618052Y-81792029D01*
X137231794Y-82050119D01*
X136973704Y-82436377D01*
X136883075Y-82892000D01*
X136973704Y-83347623D01*
X137231794Y-83733881D01*
X137275905Y-83763355D01*
X137176066Y-83830065D01*
X137176064Y-83830068D01*
X136488065Y-84518066D01*
X136431063Y-84603375D01*
X136422206Y-84590119D01*
X136035948Y-84332029D01*
X135580325Y-84241400D01*
X135533675Y-84241400D01*
X135078052Y-84332029D01*
X134691794Y-84590119D01*
X134433704Y-84976377D01*
X134343075Y-85432000D01*
X134433704Y-85887623D01*
X134691794Y-86273881D01*
X135078052Y-86531971D01*
X135533675Y-86622600D01*
X135580325Y-86622600D01*
X136035948Y-86531971D01*
X136363000Y-86313441D01*
X136363000Y-87172131D01*
X133755690Y-89779440D01*
X133663128Y-89917969D01*
X133630624Y-90081375D01*
X133630625Y-90081380D01*
X133630625Y-90658768D01*
X133402923Y-90752853D01*
X133226391Y-90929077D01*
X133130735Y-91159443D01*
X133130517Y-91408879D01*
X133225771Y-91639411D01*
X133364495Y-91778377D01*
X133324996Y-91873502D01*
X133324778Y-92122938D01*
X133325630Y-92125000D01*
X133155290Y-92125000D01*
X133114104Y-92083814D01*
X133114109Y-92077829D01*
X133018855Y-91847297D01*
X132842631Y-91670765D01*
X132612265Y-91575109D01*
X132362829Y-91574891D01*
X132132297Y-91670145D01*
X132127434Y-91675000D01*
X131587000Y-91675000D01*
X131385326Y-91715115D01*
X131385324Y-91715116D01*
X131385325Y-91715116D01*
X131214354Y-91829355D01*
X130668710Y-92375000D01*
X129635291Y-92375000D01*
X129617362Y-92357071D01*
X129633891Y-92317265D01*
X129634109Y-92067829D01*
X129538855Y-91837297D01*
X129362631Y-91660765D01*
X129132265Y-91565109D01*
X128957913Y-91564957D01*
X132731932Y-87790937D01*
X132731935Y-87790935D01*
X132824497Y-87652406D01*
X132824790Y-87650934D01*
X132857001Y-87489000D01*
X132857000Y-87488995D01*
X132857000Y-83326870D01*
X134155469Y-82028400D01*
X134359994Y-82028400D01*
X134359994Y-83755600D01*
X134382795Y-83876779D01*
X134454412Y-83988074D01*
X134563686Y-84062738D01*
X134693400Y-84089006D01*
X136420600Y-84089006D01*
X136541779Y-84066205D01*
X136653074Y-83994588D01*
X136727738Y-83885314D01*
X136754006Y-83755600D01*
X136754006Y-82028400D01*
X136731205Y-81907221D01*
X136659588Y-81795926D01*
X136550314Y-81721262D01*
X136420600Y-81694994D01*
X134693400Y-81694994D01*
X134572221Y-81717795D01*
X134460926Y-81789412D01*
X134386262Y-81898686D01*
X134359994Y-82028400D01*
X134155469Y-82028400D01*
X134964867Y-81219002D01*
X139787130Y-81219002D01*
X139055065Y-81951066D01*
X139055065Y-81951066D01*
G37*
X139055065Y-81951066D02*
X138975543Y-82070079D01*
X138962206Y-82050119D01*
X138575948Y-81792029D01*
X138120325Y-81701400D01*
X138073675Y-81701400D01*
X137618052Y-81792029D01*
X137231794Y-82050119D01*
X136973704Y-82436377D01*
X136883075Y-82892000D01*
X136973704Y-83347623D01*
X137231794Y-83733881D01*
X137275905Y-83763355D01*
X137176066Y-83830065D01*
X137176064Y-83830068D01*
X136488065Y-84518066D01*
X136431063Y-84603375D01*
X136422206Y-84590119D01*
X136035948Y-84332029D01*
X135580325Y-84241400D01*
X135533675Y-84241400D01*
X135078052Y-84332029D01*
X134691794Y-84590119D01*
X134433704Y-84976377D01*
X134343075Y-85432000D01*
X134433704Y-85887623D01*
X134691794Y-86273881D01*
X135078052Y-86531971D01*
X135533675Y-86622600D01*
X135580325Y-86622600D01*
X136035948Y-86531971D01*
X136363000Y-86313441D01*
X136363000Y-87172131D01*
X133755690Y-89779440D01*
X133663128Y-89917969D01*
X133630624Y-90081375D01*
X133630625Y-90081380D01*
X133630625Y-90658768D01*
X133402923Y-90752853D01*
X133226391Y-90929077D01*
X133130735Y-91159443D01*
X133130517Y-91408879D01*
X133225771Y-91639411D01*
X133364495Y-91778377D01*
X133324996Y-91873502D01*
X133324778Y-92122938D01*
X133325630Y-92125000D01*
X133155290Y-92125000D01*
X133114104Y-92083814D01*
X133114109Y-92077829D01*
X133018855Y-91847297D01*
X132842631Y-91670765D01*
X132612265Y-91575109D01*
X132362829Y-91574891D01*
X132132297Y-91670145D01*
X132127434Y-91675000D01*
X131587000Y-91675000D01*
X131385326Y-91715115D01*
X131385324Y-91715116D01*
X131385325Y-91715116D01*
X131214354Y-91829355D01*
X130668710Y-92375000D01*
X129635291Y-92375000D01*
X129617362Y-92357071D01*
X129633891Y-92317265D01*
X129634109Y-92067829D01*
X129538855Y-91837297D01*
X129362631Y-91660765D01*
X129132265Y-91565109D01*
X128957913Y-91564957D01*
X132731932Y-87790937D01*
X132731935Y-87790935D01*
X132824497Y-87652406D01*
X132824790Y-87650934D01*
X132857001Y-87489000D01*
X132857000Y-87488995D01*
X132857000Y-83326870D01*
X134155469Y-82028400D01*
X134359994Y-82028400D01*
X134359994Y-83755600D01*
X134382795Y-83876779D01*
X134454412Y-83988074D01*
X134563686Y-84062738D01*
X134693400Y-84089006D01*
X136420600Y-84089006D01*
X136541779Y-84066205D01*
X136653074Y-83994588D01*
X136727738Y-83885314D01*
X136754006Y-83755600D01*
X136754006Y-82028400D01*
X136731205Y-81907221D01*
X136659588Y-81795926D01*
X136550314Y-81721262D01*
X136420600Y-81694994D01*
X134693400Y-81694994D01*
X134572221Y-81717795D01*
X134460926Y-81789412D01*
X134386262Y-81898686D01*
X134359994Y-82028400D01*
X134155469Y-82028400D01*
X134964867Y-81219002D01*
X139787130Y-81219002D01*
X139055065Y-81951066D01*
G36*
X139771794Y-86273881D02*
X140158052Y-86531971D01*
X140273882Y-86555011D01*
X139947994Y-86555011D01*
X139947989Y-86555010D01*
X139784583Y-86587514D01*
X139646054Y-86680076D01*
X139646052Y-86680079D01*
X138428065Y-87898065D01*
X138335503Y-88036594D01*
X138302999Y-88200000D01*
X138303000Y-88200005D01*
X138303000Y-89822540D01*
X138238855Y-89667297D01*
X138062631Y-89490765D01*
X137832265Y-89395109D01*
X137582829Y-89394891D01*
X137352297Y-89490145D01*
X137175765Y-89666369D01*
X137080109Y-89896735D01*
X137079891Y-90146171D01*
X137175145Y-90376703D01*
X137180000Y-90381566D01*
X137180000Y-91803000D01*
X134751524Y-91803000D01*
X137148932Y-89405591D01*
X137148935Y-89405589D01*
X137241497Y-89267060D01*
X137274000Y-89103654D01*
X137274000Y-88078870D01*
X137813869Y-87539000D01*
X138257793Y-87539000D01*
X138257798Y-87539001D01*
X138421204Y-87506497D01*
X138559733Y-87413935D01*
X139621932Y-86351735D01*
X139621935Y-86351733D01*
X139714497Y-86213204D01*
X139718340Y-86193882D01*
X139771794Y-86273881D01*
X139771794Y-86273881D01*
G37*
X139771794Y-86273881D02*
X140158052Y-86531971D01*
X140273882Y-86555011D01*
X139947994Y-86555011D01*
X139947989Y-86555010D01*
X139784583Y-86587514D01*
X139646054Y-86680076D01*
X139646052Y-86680079D01*
X138428065Y-87898065D01*
X138335503Y-88036594D01*
X138302999Y-88200000D01*
X138303000Y-88200005D01*
X138303000Y-89822540D01*
X138238855Y-89667297D01*
X138062631Y-89490765D01*
X137832265Y-89395109D01*
X137582829Y-89394891D01*
X137352297Y-89490145D01*
X137175765Y-89666369D01*
X137080109Y-89896735D01*
X137079891Y-90146171D01*
X137175145Y-90376703D01*
X137180000Y-90381566D01*
X137180000Y-91803000D01*
X134751524Y-91803000D01*
X137148932Y-89405591D01*
X137148935Y-89405589D01*
X137241497Y-89267060D01*
X137274000Y-89103654D01*
X137274000Y-88078870D01*
X137813869Y-87539000D01*
X138257793Y-87539000D01*
X138257798Y-87539001D01*
X138421204Y-87506497D01*
X138559733Y-87413935D01*
X139621932Y-86351735D01*
X139621935Y-86351733D01*
X139714497Y-86213204D01*
X139718340Y-86193882D01*
X139771794Y-86273881D01*
M02*
