G04 #@! TF.FileFunction,Copper,L1,Top,Signal*
%FSLAX46Y46*%
G04 Gerber Fmt 4.6, Leading zero omitted, Abs format (unit mm)*
G04 Created by KiCad (PCBNEW 4.0.0-2.201511301920+6191~38~ubuntu14.04.1-stable) date Thu 21 Jan 2016 01:29:08 PM ICT*
%MOMM*%
G01*
G04 APERTURE LIST*
%ADD10C,0.100000*%
%ADD11R,0.198120X0.899160*%
%ADD12R,0.899160X0.198120*%
%ADD13R,1.422400X0.899160*%
%ADD14R,0.398780X0.899160*%
%ADD15C,1.000000*%
%ADD16R,0.609600X0.889000*%
%ADD17R,0.700000X1.300000*%
%ADD18R,3.500000X1.300000*%
%ADD19R,1.000000X1.600000*%
%ADD20R,2.100000X0.400000*%
%ADD21O,1.550000X1.000000*%
%ADD22R,1.900000X1.900000*%
%ADD23R,1.000000X1.000000*%
%ADD24R,1.727200X1.727200*%
%ADD25O,1.727200X1.727200*%
%ADD26R,1.300000X3.500000*%
%ADD27C,4.064000*%
%ADD28R,1.300000X0.700000*%
%ADD29C,1.397000*%
%ADD30C,1.400000*%
%ADD31R,1.000000X1.250000*%
%ADD32R,1.250000X1.000000*%
%ADD33R,1.800000X1.230000*%
%ADD34C,1.501140*%
%ADD35C,0.600000*%
%ADD36C,0.200000*%
%ADD37C,0.300000*%
%ADD38C,0.150000*%
%ADD39C,0.254000*%
G04 APERTURE END LIST*
D10*
D11*
X159626300Y-103057960D03*
X159224980Y-103057960D03*
X158826200Y-103057960D03*
X158424880Y-103057960D03*
X158026100Y-103057960D03*
X157624780Y-103057960D03*
X157228540Y-103057960D03*
X156827220Y-103057960D03*
X156428440Y-103057960D03*
X156027120Y-103057960D03*
X155628340Y-103057960D03*
X155227020Y-103057960D03*
D12*
X154426920Y-103858060D03*
X154426920Y-104259380D03*
X154426920Y-104658160D03*
X154426920Y-105059480D03*
X154426920Y-105458260D03*
X154426920Y-105859580D03*
X154426920Y-106255820D03*
X154426920Y-106657140D03*
X154426920Y-107055920D03*
X154426920Y-107457240D03*
X154426920Y-107856020D03*
X154426920Y-108257340D03*
D11*
X155227020Y-109057440D03*
X155628340Y-109057440D03*
X156027120Y-109057440D03*
X156428440Y-109057440D03*
X156827220Y-109057440D03*
X157228540Y-109057440D03*
X157624780Y-109057440D03*
X158026100Y-109057440D03*
X158424880Y-109057440D03*
X158826200Y-109057440D03*
X159224980Y-109057440D03*
X159626300Y-109057440D03*
D12*
X160426400Y-108257340D03*
X160426400Y-107856020D03*
X160426400Y-107457240D03*
X160426400Y-107055920D03*
X160426400Y-106657140D03*
X160426400Y-106255820D03*
X160426400Y-105859580D03*
X160426400Y-105458260D03*
X160426400Y-105059480D03*
X160426400Y-104658160D03*
X160426400Y-104259380D03*
X160426400Y-103858060D03*
D13*
X157426660Y-106057700D03*
D14*
X159024320Y-106705400D03*
X158424880Y-106705400D03*
X159024320Y-105410000D03*
X158424880Y-105410000D03*
X158074360Y-104460040D03*
X158074360Y-105059480D03*
X156778960Y-104460040D03*
X156778960Y-105059480D03*
X155829000Y-105410000D03*
X156428440Y-105410000D03*
X155829000Y-106705400D03*
X156428440Y-106705400D03*
X156778960Y-107655360D03*
X156778960Y-107055920D03*
X158074360Y-107655360D03*
X158074360Y-107055920D03*
D15*
X133583680Y-99438460D03*
X133583680Y-107439460D03*
D16*
X144322451Y-98882415D03*
X142417451Y-98882415D03*
X142417451Y-96342415D03*
X143369951Y-96342415D03*
X144322451Y-96342415D03*
X136614546Y-99161012D03*
X134709546Y-99161012D03*
X134709546Y-96621012D03*
X135662046Y-96621012D03*
X136614546Y-96621012D03*
D17*
X136956546Y-92358412D03*
X138856546Y-92358412D03*
X138856546Y-94644412D03*
X136956546Y-94644412D03*
X145024451Y-92404115D03*
X146924451Y-92404115D03*
X146924451Y-94436115D03*
X145024451Y-94436115D03*
D18*
X134096546Y-94601412D03*
X134096546Y-92401412D03*
X142103451Y-94520115D03*
X142103451Y-92320115D03*
D19*
X137628546Y-90072412D03*
X134628546Y-90072412D03*
X143756451Y-89991115D03*
X140756451Y-89991115D03*
D20*
X128849540Y-100961100D03*
X128849540Y-101611100D03*
X128849540Y-102261100D03*
X128849540Y-102911100D03*
X128849540Y-103561100D03*
D21*
X125862000Y-99437000D03*
X125862000Y-105062000D03*
D22*
X125862000Y-101187000D03*
X125862000Y-103337000D03*
D23*
X127937000Y-99062000D03*
X127937000Y-105462000D03*
D24*
X135567000Y-117942000D03*
D25*
X135567000Y-120482000D03*
X138107000Y-117942000D03*
X138107000Y-120482000D03*
X140647000Y-117942000D03*
X140647000Y-120482000D03*
X143187000Y-117942000D03*
X143187000Y-120482000D03*
X145727000Y-117942000D03*
X145727000Y-120482000D03*
X148267000Y-117942000D03*
X148267000Y-120482000D03*
X150807000Y-117942000D03*
X150807000Y-120482000D03*
X153347000Y-117942000D03*
X153347000Y-120482000D03*
X155887000Y-117942000D03*
X155887000Y-120482000D03*
X158427000Y-117942000D03*
X158427000Y-120482000D03*
D24*
X135557000Y-82892000D03*
D25*
X135557000Y-85432000D03*
X138097000Y-82892000D03*
X138097000Y-85432000D03*
X140637000Y-82892000D03*
X140637000Y-85432000D03*
X143177000Y-82892000D03*
X143177000Y-85432000D03*
X145717000Y-82892000D03*
X145717000Y-85432000D03*
X148257000Y-82892000D03*
X148257000Y-85432000D03*
X150797000Y-82892000D03*
X150797000Y-85432000D03*
X153337000Y-82892000D03*
X153337000Y-85432000D03*
X155877000Y-82892000D03*
X155877000Y-85432000D03*
X158417000Y-82892000D03*
X158417000Y-85432000D03*
D26*
X158623000Y-98806000D03*
X156423000Y-98806000D03*
D17*
X151379000Y-109982000D03*
X149479000Y-109982000D03*
D27*
X164900000Y-84000000D03*
X129300000Y-84000000D03*
X129200000Y-119600000D03*
X164700000Y-119600000D03*
D28*
X165735000Y-97724000D03*
X165735000Y-95824000D03*
X163737000Y-97724000D03*
X163737000Y-95824000D03*
D29*
X147193000Y-114300000D03*
X144653000Y-114300000D03*
D17*
X164785000Y-100584000D03*
X166685000Y-100584000D03*
D30*
X137767000Y-113792000D03*
X134267000Y-113792000D03*
D18*
X150495000Y-103294000D03*
X150495000Y-105494000D03*
D31*
X158607000Y-95758000D03*
X156607000Y-95758000D03*
D32*
X147847000Y-103842000D03*
X147847000Y-105842000D03*
D31*
X158607000Y-93726000D03*
X156607000Y-93726000D03*
D32*
X145617000Y-103912000D03*
X145617000Y-105912000D03*
X159385000Y-114030000D03*
X159385000Y-112030000D03*
X157353000Y-114030000D03*
X157353000Y-112030000D03*
X153289000Y-113252000D03*
X153289000Y-111252000D03*
D31*
X149479000Y-112014000D03*
X151479000Y-112014000D03*
D33*
X126337000Y-108582000D03*
X128957000Y-108582000D03*
D31*
X148479000Y-101642000D03*
X150479000Y-101642000D03*
D32*
X161163000Y-97806000D03*
X161163000Y-99806000D03*
D31*
X164449000Y-108966000D03*
X162449000Y-108966000D03*
X164703000Y-102870000D03*
X162703000Y-102870000D03*
D18*
X166243000Y-107018000D03*
X166243000Y-104818000D03*
D28*
X162687000Y-105034000D03*
X162687000Y-106934000D03*
D31*
X168513000Y-109220000D03*
X166513000Y-109220000D03*
X148463000Y-99568000D03*
X150463000Y-99568000D03*
D28*
X152273000Y-99634000D03*
X152273000Y-101534000D03*
D31*
X165481000Y-111252000D03*
X163481000Y-111252000D03*
D32*
X154305000Y-97790000D03*
X154305000Y-99790000D03*
X161417000Y-114030000D03*
X161417000Y-112030000D03*
D28*
X167767000Y-97724000D03*
X167767000Y-95824000D03*
D31*
X149749000Y-108204000D03*
X151749000Y-108204000D03*
X153305000Y-115062000D03*
X155305000Y-115062000D03*
D28*
X155321000Y-113406000D03*
X155321000Y-111506000D03*
D31*
X143653000Y-80264000D03*
X145653000Y-80264000D03*
X150225000Y-80264000D03*
X148225000Y-80264000D03*
X166481000Y-113538000D03*
X164481000Y-113538000D03*
D34*
X162687000Y-93726000D03*
X159639000Y-91694000D03*
X147701000Y-107950000D03*
X147193000Y-109728000D03*
X162941000Y-116586000D03*
X145161000Y-112014000D03*
X157861000Y-115570000D03*
X151003000Y-115570000D03*
D35*
X147847000Y-103842000D03*
X155194000Y-96774000D03*
X157372624Y-96733777D03*
X152753015Y-108246020D03*
X153293287Y-104971534D03*
X157812050Y-101485776D03*
X159512620Y-101354594D03*
X159473189Y-94618083D03*
X156283968Y-101703241D03*
X168402000Y-100584000D03*
X166624000Y-114808000D03*
X164846000Y-112014000D03*
X161755980Y-103886000D03*
X162381643Y-86438479D03*
X151765000Y-79837940D03*
X145669000Y-104902000D03*
X142367000Y-109982000D03*
X148463000Y-109474000D03*
X151765000Y-114300000D03*
X159385000Y-115316000D03*
X168529000Y-110998000D03*
X143583660Y-95638620D03*
X166116000Y-102870000D03*
X157480000Y-104902000D03*
X140970000Y-88392000D03*
X136271000Y-93472000D03*
X135890000Y-89916000D03*
X166581980Y-96774000D03*
X163695835Y-96624012D03*
X165608000Y-96774000D03*
X154576150Y-101538995D03*
X159224980Y-107696000D03*
X165608000Y-109220000D03*
X157122930Y-110094291D03*
X158496000Y-110998000D03*
X155309009Y-110307041D03*
X158550752Y-101356021D03*
X153313721Y-106686373D03*
X154940000Y-112522000D03*
X156464000Y-110490000D03*
X160319877Y-111203690D03*
X165608000Y-110176998D03*
X162814000Y-109982000D03*
X162560000Y-107696000D03*
X161281083Y-107699803D03*
X162086406Y-106008471D03*
X161446095Y-105056961D03*
X158653976Y-92380384D03*
X156718000Y-91186000D03*
X163371411Y-108185852D03*
X154100051Y-109721580D03*
X167894000Y-94234000D03*
D36*
X156304024Y-111506000D02*
X156171000Y-111506000D01*
X157175731Y-110634293D02*
X156304024Y-111506000D01*
X157662932Y-109745172D02*
X157662932Y-110353493D01*
X157624780Y-109707020D02*
X157662932Y-109745172D01*
X157624780Y-109057440D02*
X157624780Y-109707020D01*
X157382132Y-110634293D02*
X157175731Y-110634293D01*
X157662932Y-110353493D02*
X157382132Y-110634293D01*
X156171000Y-111506000D02*
X155321000Y-111506000D01*
D37*
X139733966Y-100961100D02*
X139733966Y-104935966D01*
X139733966Y-104935966D02*
X147737001Y-112939001D01*
X147737001Y-112939001D02*
X152219001Y-112939001D01*
X152219001Y-112939001D02*
X152363999Y-112794003D01*
X152363999Y-112794003D02*
X152363999Y-112511999D01*
X152363999Y-112511999D02*
X152719998Y-112156000D01*
X152719998Y-112156000D02*
X154371000Y-112156000D01*
X154371000Y-112156000D02*
X155021000Y-111506000D01*
X155021000Y-111506000D02*
X155321000Y-111506000D01*
X131699000Y-100961100D02*
X133653958Y-100961100D01*
X128849540Y-100961100D02*
X131699000Y-100961100D01*
X131699000Y-100961100D02*
X131699000Y-104925000D01*
X131699000Y-104925000D02*
X128957000Y-107667000D01*
X128957000Y-107667000D02*
X128957000Y-108582000D01*
X133653958Y-100961100D02*
X139733966Y-100961100D01*
X139733966Y-100961100D02*
X141812651Y-98882415D01*
X141812651Y-98882415D02*
X142417451Y-98882415D01*
X142417451Y-98882415D02*
X143022251Y-98882415D01*
X143022251Y-98882415D02*
X144322451Y-97582215D01*
X144322451Y-97582215D02*
X144322451Y-97086915D01*
X144322451Y-97086915D02*
X144322451Y-96342415D01*
X134709546Y-99161012D02*
X135314346Y-99161012D01*
X135314346Y-99161012D02*
X136614546Y-97860812D01*
X136614546Y-97860812D02*
X136614546Y-97365512D01*
X136614546Y-97365512D02*
X136614546Y-96621012D01*
X133653958Y-100961100D02*
X134709546Y-99905512D01*
X134709546Y-99905512D02*
X134709546Y-99161012D01*
D38*
X155194000Y-96774000D02*
X155194000Y-96901000D01*
X155194000Y-96901000D02*
X154305000Y-97790000D01*
X158607000Y-95883000D02*
X157756223Y-96733777D01*
X158607000Y-95758000D02*
X158607000Y-95883000D01*
X157756223Y-96733777D02*
X157372624Y-96733777D01*
D36*
X153632359Y-107558269D02*
X152944608Y-108246020D01*
X152944608Y-108246020D02*
X152753015Y-108246020D01*
X153913176Y-107457240D02*
X153812148Y-107558268D01*
X153812148Y-107558268D02*
X153632359Y-107558269D01*
X154426920Y-107457240D02*
X153913176Y-107457240D01*
X154426920Y-105059480D02*
X153381233Y-105059480D01*
X153381233Y-105059480D02*
X153293287Y-104971534D01*
X157624780Y-101673046D02*
X157812050Y-101485776D01*
X157624780Y-103057960D02*
X157624780Y-101673046D01*
X158424880Y-103057960D02*
X158424880Y-102270758D01*
X159341044Y-101354594D02*
X159512620Y-101354594D01*
X158424880Y-102270758D02*
X159341044Y-101354594D01*
D37*
X158607000Y-93726000D02*
X159407000Y-93726000D01*
X159407000Y-93726000D02*
X159473189Y-93792189D01*
X159473189Y-94193819D02*
X159473189Y-94618083D01*
X159473189Y-93792189D02*
X159473189Y-94193819D01*
D36*
X156428440Y-101847713D02*
X156283968Y-101703241D01*
X156428440Y-103057960D02*
X156428440Y-101847713D01*
X166685000Y-100584000D02*
X168402000Y-100584000D01*
X166481000Y-113538000D02*
X166481000Y-114665000D01*
X166481000Y-114665000D02*
X166624000Y-114808000D01*
X165481000Y-111252000D02*
X165481000Y-111379000D01*
X165481000Y-111379000D02*
X164846000Y-112014000D01*
X160426400Y-104658160D02*
X161030894Y-104658160D01*
X161455981Y-104185999D02*
X161755980Y-103886000D01*
X161030894Y-104658160D02*
X161455981Y-104233073D01*
X161455981Y-104233073D02*
X161455981Y-104185999D01*
D37*
X162081644Y-86138480D02*
X162381643Y-86438479D01*
X158835164Y-82892000D02*
X162081644Y-86138480D01*
X158417000Y-82892000D02*
X158835164Y-82892000D01*
X151465001Y-80137939D02*
X151765000Y-79837940D01*
X151338940Y-80264000D02*
X151465001Y-80137939D01*
X150225000Y-80264000D02*
X151338940Y-80264000D01*
D36*
X145617000Y-103912000D02*
X145617000Y-104850000D01*
X145617000Y-104850000D02*
X145669000Y-104902000D01*
D37*
X149479000Y-109982000D02*
X148971000Y-109982000D01*
X148971000Y-109982000D02*
X148463000Y-109474000D01*
X153289000Y-113252000D02*
X152813000Y-113252000D01*
X152813000Y-113252000D02*
X151765000Y-114300000D01*
X159385000Y-114030000D02*
X159385000Y-115316000D01*
X168513000Y-109220000D02*
X168513000Y-110982000D01*
X168513000Y-110982000D02*
X168529000Y-110998000D01*
X148463000Y-99568000D02*
X148463000Y-101626000D01*
X148463000Y-101626000D02*
X148479000Y-101642000D01*
X145617000Y-103912000D02*
X147777000Y-103912000D01*
X147777000Y-103912000D02*
X147847000Y-103842000D01*
X149749000Y-107950000D02*
X149749000Y-109712000D01*
X149749000Y-109712000D02*
X149479000Y-109982000D01*
X149479000Y-112014000D02*
X149479000Y-109982000D01*
X164449000Y-108966000D02*
X164449000Y-111020000D01*
X164449000Y-111020000D02*
X164681000Y-111252000D01*
X164681000Y-111252000D02*
X165481000Y-111252000D01*
X157353000Y-114030000D02*
X161417000Y-114030000D01*
X153289000Y-113252000D02*
X153289000Y-115046000D01*
X153289000Y-115046000D02*
X153305000Y-115062000D01*
X158607000Y-93726000D02*
X158607000Y-95758000D01*
D36*
X158074360Y-107655360D02*
X158074360Y-107055920D01*
X143369951Y-96342415D02*
X143369951Y-95852329D01*
X143369951Y-95852329D02*
X143583660Y-95638620D01*
D37*
X128849540Y-102911100D02*
X128849540Y-103561100D01*
D36*
X164703000Y-102870000D02*
X166116000Y-102870000D01*
X156027120Y-109057440D02*
X156027120Y-108458000D01*
X156027120Y-108458000D02*
X156027120Y-108407200D01*
X154426920Y-107457240D02*
X155076500Y-107457240D01*
X155076500Y-107457240D02*
X156027120Y-108407860D01*
X156027120Y-108407860D02*
X156027120Y-108458000D01*
X156778960Y-105059480D02*
X157322520Y-105059480D01*
X157322520Y-105059480D02*
X157480000Y-104902000D01*
X156428440Y-105410000D02*
X156778960Y-105059480D01*
X156778960Y-107055920D02*
X156428440Y-106705400D01*
X156778960Y-107055920D02*
X156778960Y-107655360D01*
X159024320Y-106705400D02*
X158424880Y-106705400D01*
X156778960Y-104460040D02*
X156778960Y-105059480D01*
X157426660Y-106057700D02*
X157426660Y-106408220D01*
X157426660Y-106408220D02*
X158074360Y-107055920D01*
X157426660Y-106408220D02*
X156778960Y-107055920D01*
X157426660Y-106057700D02*
X157777180Y-106057700D01*
X157777180Y-106057700D02*
X158424880Y-106705400D01*
X158424880Y-105410000D02*
X158074360Y-105410000D01*
X158074360Y-105410000D02*
X157426660Y-106057700D01*
X158424880Y-105410000D02*
X159024320Y-105410000D01*
X158074360Y-105059480D02*
X158424880Y-105410000D01*
X158074360Y-105059480D02*
X158074360Y-104460040D01*
X156778960Y-105059480D02*
X156778960Y-105410000D01*
X156778960Y-105410000D02*
X157426660Y-106057700D01*
X155829000Y-105410000D02*
X156428440Y-105410000D01*
X156428440Y-106705400D02*
X155829000Y-106705400D01*
X156027120Y-108407200D02*
X156778960Y-107655360D01*
D37*
X143369951Y-96342415D02*
X143369951Y-96090615D01*
X143369951Y-96090615D02*
X145024451Y-94436115D01*
X135662046Y-96621012D02*
X135662046Y-95938912D01*
X135662046Y-95938912D02*
X136956546Y-94644412D01*
X136956546Y-94644412D02*
X136956546Y-94344412D01*
X136956546Y-94344412D02*
X137628546Y-93672412D01*
X137628546Y-93672412D02*
X137628546Y-91172412D01*
X137628546Y-91172412D02*
X137628546Y-90072412D01*
X140756451Y-88891115D02*
X140756451Y-88605549D01*
X140756451Y-88605549D02*
X140970000Y-88392000D01*
X140756451Y-89991115D02*
X140756451Y-88891115D01*
X145024451Y-92404115D02*
X142187451Y-92404115D01*
X142187451Y-92404115D02*
X142103451Y-92320115D01*
X140756451Y-89991115D02*
X140756451Y-90973115D01*
X140756451Y-90973115D02*
X142103451Y-92320115D01*
D36*
X136956546Y-92358412D02*
X136956546Y-92786454D01*
X136956546Y-92786454D02*
X136271000Y-93472000D01*
X159010597Y-84005601D02*
X141750601Y-84005601D01*
X141750601Y-84005601D02*
X141500599Y-83755599D01*
X141500599Y-83755599D02*
X140637000Y-82892000D01*
X163737000Y-95824000D02*
X163737000Y-88732004D01*
X163737000Y-88732004D02*
X159010597Y-84005601D01*
D37*
X135428546Y-90072412D02*
X135733588Y-90072412D01*
X135733588Y-90072412D02*
X135890000Y-89916000D01*
X134628546Y-90072412D02*
X135428546Y-90072412D01*
X134628546Y-90072412D02*
X134628546Y-91869412D01*
X134628546Y-91869412D02*
X134096546Y-92401412D01*
X136956546Y-92358412D02*
X134139546Y-92358412D01*
X134139546Y-92358412D02*
X134096546Y-92401412D01*
D36*
X165735000Y-95824000D02*
X166585000Y-95824000D01*
X166585000Y-95824000D02*
X167767000Y-95824000D01*
X163737000Y-95824000D02*
X165735000Y-95824000D01*
D37*
X136614546Y-99161012D02*
X137219346Y-99161012D01*
X137219346Y-99161012D02*
X138856546Y-97523812D01*
X138856546Y-97523812D02*
X138856546Y-95594412D01*
X138856546Y-95594412D02*
X138856546Y-94644412D01*
X138856546Y-92358412D02*
X138856546Y-94644412D01*
X134709546Y-96621012D02*
X134709546Y-95214412D01*
X134709546Y-95214412D02*
X134096546Y-94601412D01*
X142103451Y-94520115D02*
X142103451Y-96028415D01*
X142103451Y-96028415D02*
X142417451Y-96342415D01*
X144322451Y-98742715D02*
X146274451Y-96790715D01*
X146274451Y-95386115D02*
X146924451Y-94736115D01*
X146274451Y-96790715D02*
X146274451Y-95386115D01*
X146924451Y-94736115D02*
X146924451Y-94436115D01*
X144322451Y-98882415D02*
X144322451Y-98742715D01*
X146924451Y-92404115D02*
X146924451Y-94436115D01*
D36*
X156827220Y-102408380D02*
X156833988Y-102401612D01*
X156833988Y-101191018D02*
X158623000Y-99402006D01*
X158623000Y-99402006D02*
X158623000Y-98806000D01*
X156827220Y-103057960D02*
X156827220Y-102408380D01*
X156833988Y-102401612D02*
X156833988Y-101191018D01*
X156423000Y-98806000D02*
X156423000Y-100756000D01*
X156027120Y-102408380D02*
X156027120Y-103057960D01*
X155733966Y-101967243D02*
X156027120Y-102260397D01*
X156027120Y-102260397D02*
X156027120Y-102408380D01*
X156423000Y-100756000D02*
X155733966Y-101445034D01*
X155733966Y-101445034D02*
X155733966Y-101967243D01*
D37*
X148752989Y-86671989D02*
X155807000Y-93726000D01*
X136933399Y-83104799D02*
X136933399Y-85990529D01*
X136933399Y-85990529D02*
X137614859Y-86671989D01*
X136720600Y-82892000D02*
X136933399Y-83104799D01*
X137614859Y-86671989D02*
X148752989Y-86671989D01*
X135557000Y-82892000D02*
X136720600Y-82892000D01*
X155807000Y-93726000D02*
X156607000Y-93726000D01*
D36*
X156607000Y-95758000D02*
X156607000Y-94933000D01*
X156607000Y-94933000D02*
X156607000Y-93726000D01*
X156423000Y-98806000D02*
X156423000Y-95942000D01*
X156423000Y-95942000D02*
X156607000Y-95758000D01*
X152931180Y-103812000D02*
X151207000Y-103812000D01*
X154426920Y-104658160D02*
X153777340Y-104658160D01*
X153777340Y-104658160D02*
X152931180Y-103812000D01*
X153575941Y-105521554D02*
X151697446Y-105521554D01*
X153639235Y-105458260D02*
X153575941Y-105521554D01*
X151697446Y-105521554D02*
X151207000Y-106012000D01*
X154426920Y-105458260D02*
X153639235Y-105458260D01*
D37*
X146812000Y-100838000D02*
X144691999Y-102958001D01*
X144692000Y-105112000D02*
X145492000Y-105912000D01*
X144691999Y-102958001D02*
X144692000Y-105112000D01*
X145492000Y-105912000D02*
X145617000Y-105912000D01*
X146812000Y-96088568D02*
X146812000Y-100838000D01*
X138097000Y-82892000D02*
X136485000Y-81280000D01*
X136485000Y-81280000D02*
X134366000Y-81280000D01*
X134366000Y-81280000D02*
X133858000Y-81788000D01*
X147722000Y-105842000D02*
X147847000Y-105842000D01*
X133858000Y-81788000D02*
X133858000Y-85852000D01*
X148336000Y-94564568D02*
X146812000Y-96088568D01*
X133858000Y-85852000D02*
X135128000Y-87122000D01*
X145542000Y-87122000D02*
X148336000Y-89916000D01*
X148336000Y-89916000D02*
X148336000Y-94564568D01*
X135128000Y-87122000D02*
X145542000Y-87122000D01*
X145742000Y-105912000D02*
X145617000Y-105912000D01*
X147847000Y-105842000D02*
X145687000Y-105842000D01*
X145687000Y-105842000D02*
X145617000Y-105912000D01*
X151207000Y-106012000D02*
X148017000Y-106012000D01*
X148017000Y-106012000D02*
X147847000Y-105842000D01*
D36*
X165661399Y-98324001D02*
X166866999Y-98324001D01*
X163088034Y-100897366D02*
X165661399Y-98324001D01*
X163088034Y-100940938D02*
X163088034Y-100897366D01*
X161896977Y-101606031D02*
X162422941Y-101606031D01*
X160426400Y-103076608D02*
X161896977Y-101606031D01*
X160426400Y-103858060D02*
X160426400Y-103076608D01*
X166866999Y-98324001D02*
X167467000Y-97724000D01*
X162422941Y-101606031D02*
X163088034Y-100940938D01*
X167467000Y-97659020D02*
X166881979Y-97073999D01*
X167467000Y-97724000D02*
X167467000Y-97659020D01*
X166881979Y-97073999D02*
X166581980Y-96774000D01*
X167767000Y-97724000D02*
X167467000Y-97724000D01*
X159224980Y-103057960D02*
X159224980Y-102460638D01*
X159327239Y-102358379D02*
X160062615Y-102358379D01*
X162388012Y-99622988D02*
X163737000Y-98274000D01*
X159224980Y-102460638D02*
X159327239Y-102358379D01*
X163737000Y-98274000D02*
X163737000Y-97724000D01*
X161514982Y-100906012D02*
X162132981Y-100906011D01*
X160062615Y-102358379D02*
X161514982Y-100906012D01*
X162132981Y-100906011D02*
X162388012Y-100650980D01*
X162388012Y-100650980D02*
X162388012Y-99622988D01*
X163737000Y-97724000D02*
X163737000Y-96665177D01*
X163737000Y-96665177D02*
X163695835Y-96624012D01*
X162277961Y-101256021D02*
X162738023Y-100795959D01*
X162738023Y-100795959D02*
X162738023Y-100420977D01*
X159626300Y-103057960D02*
X159925360Y-103057960D01*
X159925360Y-103057960D02*
X161727299Y-101256021D01*
X165435000Y-97724000D02*
X165735000Y-97724000D01*
X161727299Y-101256021D02*
X162277961Y-101256021D01*
X162738023Y-100420977D02*
X165435000Y-97724000D01*
X165735000Y-97724000D02*
X165735000Y-96901000D01*
X165735000Y-96901000D02*
X165608000Y-96774000D01*
X154927960Y-102408380D02*
X154927960Y-101890805D01*
X155227020Y-102707440D02*
X154927960Y-102408380D01*
X154876149Y-101838994D02*
X154576150Y-101538995D01*
X155227020Y-103057960D02*
X155227020Y-102707440D01*
X154927960Y-101890805D02*
X154876149Y-101838994D01*
D37*
X148225000Y-80264000D02*
X148225000Y-82860000D01*
X148225000Y-82860000D02*
X148257000Y-82892000D01*
D36*
X154426920Y-107055920D02*
X153777340Y-107055920D01*
X153625001Y-107208259D02*
X153487379Y-107208259D01*
X152999638Y-107696000D02*
X152003000Y-107696000D01*
X153777340Y-107055920D02*
X153625001Y-107208259D01*
X153487379Y-107208259D02*
X152999638Y-107696000D01*
X152003000Y-107696000D02*
X151749000Y-107950000D01*
X153207001Y-103018001D02*
X152273000Y-102084000D01*
X154426920Y-104259380D02*
X153890127Y-104259380D01*
X152273000Y-102084000D02*
X152273000Y-101534000D01*
X153890127Y-104259380D02*
X153207001Y-103576254D01*
X153207001Y-103576254D02*
X153207001Y-103018001D01*
X161038000Y-99806000D02*
X161163000Y-99806000D01*
X160338000Y-100506000D02*
X161038000Y-99806000D01*
X157228540Y-101291456D02*
X157713995Y-100806001D01*
X157228540Y-103057960D02*
X157228540Y-101291456D01*
X157713995Y-100806001D02*
X159473001Y-100806001D01*
X159773002Y-100506000D02*
X160338000Y-100506000D01*
X159473001Y-100806001D02*
X159773002Y-100506000D01*
X159224980Y-109057440D02*
X159224980Y-107696000D01*
X159224980Y-107696000D02*
X159224980Y-107603712D01*
X159224980Y-107603712D02*
X159385000Y-107443692D01*
X165608000Y-109220000D02*
X166513000Y-109220000D01*
X159571080Y-105664000D02*
X159512000Y-105723080D01*
X159512000Y-105723080D02*
X159512000Y-107316692D01*
X159512000Y-107316692D02*
X159385000Y-107443692D01*
X155575421Y-103760459D02*
X155321000Y-104014880D01*
X154426920Y-107055920D02*
X155076500Y-107055920D01*
X155321000Y-104014880D02*
X155076500Y-104259380D01*
X155076500Y-107055920D02*
X155321000Y-106811420D01*
X155321000Y-106811420D02*
X155321000Y-104014880D01*
X157353000Y-103760459D02*
X155575421Y-103760459D01*
X157281459Y-103760459D02*
X157228540Y-103707540D01*
X158473751Y-103760459D02*
X157353000Y-103760459D01*
X157353000Y-103760459D02*
X157281459Y-103760459D01*
X157228540Y-103707540D02*
X157228540Y-103057960D01*
X159571080Y-105664000D02*
X159571080Y-104857788D01*
X159571080Y-104857788D02*
X158473751Y-103760459D01*
X155076500Y-104259380D02*
X154426920Y-104259380D01*
X159776820Y-105458260D02*
X159571080Y-105664000D01*
X159385000Y-107443692D02*
X159772772Y-107055920D01*
X160426400Y-105458260D02*
X159776820Y-105458260D01*
X159772772Y-107055920D02*
X159776820Y-107055920D01*
X159776820Y-107055920D02*
X160426400Y-107055920D01*
X152273000Y-101534000D02*
X150587000Y-101534000D01*
X150587000Y-101534000D02*
X150479000Y-101642000D01*
X159224980Y-109057440D02*
X159224980Y-110236000D01*
X159224980Y-110236000D02*
X159224980Y-111869980D01*
X158826200Y-109057440D02*
X158826200Y-109707020D01*
X158826200Y-109707020D02*
X159224980Y-110105800D01*
X159224980Y-110105800D02*
X159224980Y-110236000D01*
X159385000Y-112030000D02*
X161417000Y-112030000D01*
X159385000Y-112030000D02*
X158560000Y-112030000D01*
X158560000Y-112030000D02*
X157353000Y-112030000D01*
X159224980Y-111869980D02*
X159385000Y-112030000D01*
X153777339Y-107908279D02*
X153303017Y-108382601D01*
X153303017Y-108382601D02*
X153303017Y-108607983D01*
X153303017Y-108607983D02*
X151929000Y-109982000D01*
X151929000Y-109982000D02*
X151379000Y-109982000D01*
X154426920Y-107856020D02*
X154374661Y-107908279D01*
X154374661Y-107908279D02*
X153777339Y-107908279D01*
X160426400Y-108257340D02*
X160426400Y-109311425D01*
X160426400Y-109311425D02*
X162730999Y-111616024D01*
X162730999Y-111616024D02*
X162730999Y-114891001D01*
X162730999Y-114891001D02*
X160793601Y-116828399D01*
X160793601Y-116828399D02*
X149721399Y-116828399D01*
X149721399Y-116828399D02*
X147891499Y-114998499D01*
X147891499Y-114998499D02*
X147193000Y-114300000D01*
X157228540Y-109988681D02*
X157122930Y-110094291D01*
X157228540Y-109057440D02*
X157228540Y-109988681D01*
X164235000Y-100584000D02*
X164785000Y-100584000D01*
X161125981Y-104068083D02*
X161125981Y-102872017D01*
X161125981Y-102872017D02*
X162002999Y-101994999D01*
X160426400Y-104259380D02*
X160934684Y-104259380D01*
X160934684Y-104259380D02*
X161125981Y-104068083D01*
X162002999Y-101994999D02*
X162824001Y-101994999D01*
X162824001Y-101994999D02*
X164235000Y-100584000D01*
X153414000Y-111252000D02*
X154908979Y-109757021D01*
X155628340Y-109707020D02*
X155628340Y-109057440D01*
X154908979Y-109757021D02*
X155578339Y-109757021D01*
X153289000Y-111252000D02*
X153414000Y-111252000D01*
X155578339Y-109757021D02*
X155628340Y-109707020D01*
X154426920Y-108257340D02*
X154426920Y-108556400D01*
X154426920Y-108556400D02*
X152179000Y-110804320D01*
X152179000Y-110804320D02*
X152179000Y-111189000D01*
X152179000Y-111189000D02*
X151479000Y-111889000D01*
X151479000Y-111889000D02*
X151479000Y-112014000D01*
D38*
X158149900Y-109889900D02*
X158149900Y-110651900D01*
X158149900Y-110651900D02*
X158496000Y-110998000D01*
D36*
X158149900Y-109889900D02*
X158026100Y-109766100D01*
X158026100Y-109766100D02*
X158026100Y-109057440D01*
X158242000Y-109889900D02*
X158149900Y-109889900D01*
X158424880Y-109057440D02*
X158424880Y-109707020D01*
X158424880Y-109707020D02*
X158242000Y-109889900D01*
X156428440Y-109057440D02*
X156366181Y-109119699D01*
X156366181Y-109674133D02*
X155733273Y-110307041D01*
X156366181Y-109119699D02*
X156366181Y-109674133D01*
X155733273Y-110307041D02*
X155309009Y-110307041D01*
D37*
X145653000Y-80264000D02*
X145653000Y-82828000D01*
X145653000Y-82828000D02*
X145717000Y-82892000D01*
D36*
X161988001Y-100556001D02*
X162038001Y-100506001D01*
X161370003Y-100556001D02*
X161988001Y-100556001D01*
X158826200Y-103057960D02*
X158826200Y-102364428D01*
X162687000Y-94787466D02*
X162687000Y-93726000D01*
X159182260Y-102008368D02*
X159917636Y-102008368D01*
X159917636Y-102008368D02*
X161370003Y-100556001D01*
X162038001Y-100506001D02*
X162038001Y-95436465D01*
X162038001Y-95436465D02*
X162687000Y-94787466D01*
X158826200Y-102364428D02*
X159182260Y-102008368D01*
X158026100Y-103057960D02*
X158026100Y-102085746D01*
X158026100Y-102085746D02*
X158550752Y-101561094D01*
X158550752Y-101561094D02*
X158550752Y-101356021D01*
D38*
X152019000Y-107099998D02*
X152150281Y-107099997D01*
X152019000Y-107099999D02*
X152019000Y-107099998D01*
X147943569Y-108977431D02*
X147193000Y-109728000D01*
X153088426Y-106161853D02*
X153604196Y-106161853D01*
X148117415Y-108977431D02*
X147943569Y-108977431D01*
X148844000Y-108250846D02*
X148117415Y-108977431D01*
X148844000Y-107324998D02*
X148844000Y-108250846D01*
X153698163Y-106255820D02*
X153827340Y-106255820D01*
X153827340Y-106255820D02*
X154426920Y-106255820D01*
X153088908Y-106161371D02*
X153603714Y-106161371D01*
X152150281Y-107099997D02*
X153088908Y-106161371D01*
X153603714Y-106161371D02*
X153698163Y-106255820D01*
X149068999Y-107099999D02*
X148844000Y-107324998D01*
X152019000Y-107099999D02*
X149068999Y-107099999D01*
X152150281Y-107099997D02*
X153088426Y-106161853D01*
X154426920Y-106657140D02*
X153342954Y-106657140D01*
X153342954Y-106657140D02*
X153313721Y-106686373D01*
X154940000Y-112522000D02*
X154515736Y-112522000D01*
X154515736Y-112522000D02*
X154178000Y-112859736D01*
X154178000Y-112859736D02*
X154178000Y-115701002D01*
X154178000Y-115701002D02*
X153558433Y-116320569D01*
X153558433Y-116320569D02*
X151753569Y-116320569D01*
X151753569Y-116320569D02*
X151003000Y-115570000D01*
X156464000Y-110046694D02*
X156464000Y-110490000D01*
X156827220Y-109057440D02*
X156827220Y-109562395D01*
X156827220Y-109562395D02*
X156681192Y-109708423D01*
X156681192Y-109708423D02*
X156681192Y-109829502D01*
X156681192Y-109829502D02*
X156464000Y-110046694D01*
X159626300Y-110510113D02*
X160319877Y-111203690D01*
X159626300Y-109057440D02*
X159626300Y-110510113D01*
X148944731Y-106799988D02*
X148209000Y-107535719D01*
X151998823Y-106799988D02*
X148944731Y-106799988D01*
X154426920Y-105859580D02*
X152939231Y-105859580D01*
X152939231Y-105859580D02*
X151998823Y-106799988D01*
X148209000Y-107535719D02*
X148209000Y-107950000D01*
D36*
X154426920Y-105859580D02*
X154379741Y-105906759D01*
X168667001Y-107444001D02*
X168193001Y-107918001D01*
X168952002Y-100319998D02*
X168952002Y-100848002D01*
X159880612Y-82664612D02*
X168667001Y-91451001D01*
X163971001Y-107918001D02*
X162987000Y-106934000D01*
X168667001Y-100034997D02*
X168952002Y-100319998D01*
X168667001Y-91451001D02*
X168667001Y-100034997D01*
X159096509Y-81428389D02*
X159880612Y-82212492D01*
X162987000Y-106934000D02*
X162687000Y-106934000D01*
X154800612Y-81428388D02*
X159096509Y-81428389D01*
X168952002Y-100848002D02*
X168667001Y-101133003D01*
X159880612Y-82212492D02*
X159880612Y-82664612D01*
X153337000Y-82892000D02*
X154800612Y-81428388D01*
X168667001Y-101133003D02*
X168667001Y-107444001D01*
X168193001Y-107918001D02*
X163971001Y-107918001D01*
X166878000Y-111022734D02*
X166878000Y-111430002D01*
X166878000Y-111430002D02*
X165595002Y-112713000D01*
X165595002Y-112713000D02*
X165181000Y-112713000D01*
X165181000Y-112713000D02*
X164481000Y-113413000D01*
X164481000Y-113413000D02*
X164481000Y-113538000D01*
X165608000Y-110176998D02*
X166032264Y-110176998D01*
X166032264Y-110176998D02*
X166878000Y-111022734D01*
X162449000Y-109617000D02*
X162814000Y-109982000D01*
X162449000Y-108966000D02*
X162449000Y-109617000D01*
X162560000Y-107696000D02*
X162560000Y-107061000D01*
X162560000Y-107061000D02*
X162687000Y-106934000D01*
X161036000Y-107696002D02*
X161277282Y-107696002D01*
X161277282Y-107696002D02*
X161281083Y-107699803D01*
X160426400Y-107856020D02*
X160875982Y-107856020D01*
X160875982Y-107856020D02*
X161036000Y-107696002D01*
X160797240Y-107457240D02*
X161036000Y-107696002D01*
X161036000Y-107696002D02*
X160985989Y-107746013D01*
X160426400Y-107457240D02*
X160797240Y-107457240D01*
X162687000Y-106934000D02*
X162012970Y-106934000D01*
X162012970Y-106934000D02*
X161334790Y-106255820D01*
X161334790Y-106255820D02*
X161075980Y-106255820D01*
X161075980Y-106255820D02*
X160426400Y-106255820D01*
X162687000Y-106934000D02*
X162687000Y-108728000D01*
X162687000Y-108728000D02*
X162449000Y-108966000D01*
X161421295Y-105859580D02*
X161075980Y-105859580D01*
X162246875Y-105034000D02*
X161421295Y-105859580D01*
X161075980Y-105859580D02*
X160426400Y-105859580D01*
X162687000Y-105034000D02*
X162246875Y-105034000D01*
X162703000Y-102870000D02*
X162703000Y-105018000D01*
X162703000Y-105018000D02*
X162687000Y-105034000D01*
X166243000Y-104818000D02*
X162903000Y-104818000D01*
X162903000Y-104818000D02*
X162687000Y-105034000D01*
X163283471Y-106008471D02*
X162510670Y-106008471D01*
X164293000Y-107018000D02*
X163283471Y-106008471D01*
X166243000Y-107018000D02*
X164293000Y-107018000D01*
X162510670Y-106008471D02*
X162086406Y-106008471D01*
X161443576Y-105059480D02*
X161446095Y-105056961D01*
X160426400Y-105059480D02*
X161443576Y-105059480D01*
X153123000Y-100891129D02*
X153123000Y-100184000D01*
X154426920Y-103858060D02*
X154426920Y-102195049D01*
X153123000Y-100184000D02*
X152573000Y-99634000D01*
X154426920Y-102195049D02*
X153123000Y-100891129D01*
X152573000Y-99634000D02*
X152273000Y-99634000D01*
X152273000Y-99634000D02*
X150529000Y-99634000D01*
X150529000Y-99634000D02*
X150463000Y-99568000D01*
X158353977Y-92080385D02*
X158653976Y-92380384D01*
X157459592Y-91186000D02*
X158353977Y-92080385D01*
X156718000Y-91186000D02*
X157459592Y-91186000D01*
X163159998Y-111252000D02*
X163481000Y-111252000D01*
X161840002Y-107534001D02*
X161840002Y-107960002D01*
X161698999Y-109791001D02*
X163159998Y-111252000D01*
X161786999Y-107480998D02*
X161840002Y-107534001D01*
X161786999Y-107368159D02*
X161786999Y-107480998D01*
X161840002Y-107960002D02*
X161698999Y-108101005D01*
X161075980Y-106657140D02*
X161786999Y-107368159D01*
X160426400Y-106657140D02*
X161075980Y-106657140D01*
X161698999Y-108101005D02*
X161698999Y-109791001D01*
X163481000Y-111252000D02*
X163481000Y-108295441D01*
X163481000Y-108295441D02*
X163371411Y-108185852D01*
X155628340Y-102408380D02*
X155628340Y-103057960D01*
X154305000Y-99790000D02*
X154305000Y-100490000D01*
X155628340Y-102356607D02*
X155628340Y-102408380D01*
X155383956Y-102112223D02*
X155628340Y-102356607D01*
X154305000Y-100490000D02*
X155383956Y-101568956D01*
X155383956Y-101568956D02*
X155383956Y-102112223D01*
X167894000Y-91172990D02*
X167894000Y-93809736D01*
X159530601Y-82809591D02*
X167894000Y-91172990D01*
X156990601Y-81778399D02*
X158951529Y-81778399D01*
X158951529Y-81778399D02*
X159530601Y-82357471D01*
X155877000Y-82892000D02*
X156990601Y-81778399D01*
X159530601Y-82357471D02*
X159530601Y-82809591D01*
X167894000Y-93809736D02*
X167894000Y-94234000D01*
X154764191Y-109057440D02*
X154400050Y-109421581D01*
X154400050Y-109421581D02*
X154100051Y-109721580D01*
X155227020Y-109057440D02*
X154764191Y-109057440D01*
X155321000Y-113406000D02*
X155321000Y-115046000D01*
X155321000Y-115046000D02*
X155305000Y-115062000D01*
D39*
G36*
X142518000Y-79978250D02*
X142676750Y-80137000D01*
X143526000Y-80137000D01*
X143526000Y-80117000D01*
X143780000Y-80117000D01*
X143780000Y-80137000D01*
X144629250Y-80137000D01*
X144788000Y-79978250D01*
X144788000Y-79650000D01*
X144819594Y-79650000D01*
X144819594Y-80889000D01*
X144842395Y-81010179D01*
X144914012Y-81121474D01*
X145023286Y-81196138D01*
X145153000Y-81222406D01*
X145176000Y-81222406D01*
X145176000Y-81833491D01*
X144851794Y-82050119D01*
X144593704Y-82436377D01*
X144503075Y-82892000D01*
X144593704Y-83347623D01*
X144748039Y-83578601D01*
X144145961Y-83578601D01*
X144300296Y-83347623D01*
X144390925Y-82892000D01*
X144300296Y-82436377D01*
X144042206Y-82050119D01*
X143655948Y-81792029D01*
X143200325Y-81701400D01*
X143153675Y-81701400D01*
X142698052Y-81792029D01*
X142311794Y-82050119D01*
X142053704Y-82436377D01*
X141963075Y-82892000D01*
X142053704Y-83347623D01*
X142208039Y-83578601D01*
X141927471Y-83578601D01*
X141802534Y-83453664D01*
X141802531Y-83453662D01*
X141734740Y-83385871D01*
X141760296Y-83347623D01*
X141850925Y-82892000D01*
X141760296Y-82436377D01*
X141502206Y-82050119D01*
X141115948Y-81792029D01*
X140660325Y-81701400D01*
X140613675Y-81701400D01*
X140158052Y-81792029D01*
X139771794Y-82050119D01*
X139513704Y-82436377D01*
X139423075Y-82892000D01*
X139513704Y-83347623D01*
X139771794Y-83733881D01*
X140158052Y-83991971D01*
X140613675Y-84082600D01*
X140660325Y-84082600D01*
X141115948Y-83991971D01*
X141126231Y-83985100D01*
X141198662Y-84057531D01*
X141198664Y-84057534D01*
X141448664Y-84307533D01*
X141448666Y-84307536D01*
X141587195Y-84400098D01*
X141750601Y-84432601D01*
X142547536Y-84432601D01*
X142311794Y-84590119D01*
X142053704Y-84976377D01*
X141963075Y-85432000D01*
X142053704Y-85887623D01*
X142259080Y-86194989D01*
X141554920Y-86194989D01*
X141760296Y-85887623D01*
X141850925Y-85432000D01*
X141760296Y-84976377D01*
X141502206Y-84590119D01*
X141115948Y-84332029D01*
X140660325Y-84241400D01*
X140613675Y-84241400D01*
X140158052Y-84332029D01*
X139771794Y-84590119D01*
X139513704Y-84976377D01*
X139423075Y-85432000D01*
X139513704Y-85887623D01*
X139719080Y-86194989D01*
X139014920Y-86194989D01*
X139220296Y-85887623D01*
X139310925Y-85432000D01*
X139220296Y-84976377D01*
X138962206Y-84590119D01*
X138575948Y-84332029D01*
X138120325Y-84241400D01*
X138073675Y-84241400D01*
X137618052Y-84332029D01*
X137410399Y-84470779D01*
X137410399Y-83853221D01*
X137618052Y-83991971D01*
X138073675Y-84082600D01*
X138120325Y-84082600D01*
X138575948Y-83991971D01*
X138962206Y-83733881D01*
X139220296Y-83347623D01*
X139310925Y-82892000D01*
X139220296Y-82436377D01*
X138962206Y-82050119D01*
X138575948Y-81792029D01*
X138120325Y-81701400D01*
X138073675Y-81701400D01*
X137662723Y-81783143D01*
X136822290Y-80942710D01*
X136667540Y-80839309D01*
X136485000Y-80803000D01*
X134366000Y-80803000D01*
X134183459Y-80839309D01*
X134028710Y-80942710D01*
X133520710Y-81450710D01*
X133417309Y-81605460D01*
X133381000Y-81788000D01*
X133381000Y-85852000D01*
X133417309Y-86034540D01*
X133520710Y-86189290D01*
X134790710Y-87459290D01*
X134945460Y-87562691D01*
X135128000Y-87599000D01*
X145344420Y-87599000D01*
X147859000Y-90113580D01*
X147859000Y-94366988D01*
X147607857Y-94618131D01*
X147607857Y-93786115D01*
X147585056Y-93664936D01*
X147513439Y-93553641D01*
X147404165Y-93478977D01*
X147401451Y-93478427D01*
X147401451Y-93360974D01*
X147506925Y-93293103D01*
X147581589Y-93183829D01*
X147607857Y-93054115D01*
X147607857Y-91754115D01*
X147585056Y-91632936D01*
X147513439Y-91521641D01*
X147404165Y-91446977D01*
X147274451Y-91420709D01*
X146574451Y-91420709D01*
X146453272Y-91443510D01*
X146341977Y-91515127D01*
X146267313Y-91624401D01*
X146241045Y-91754115D01*
X146241045Y-93054115D01*
X146263846Y-93175294D01*
X146335463Y-93286589D01*
X146444737Y-93361253D01*
X146447451Y-93361803D01*
X146447451Y-93479256D01*
X146341977Y-93547127D01*
X146267313Y-93656401D01*
X146241045Y-93786115D01*
X146241045Y-94744941D01*
X146009451Y-94976535D01*
X146009451Y-94721865D01*
X145850701Y-94563115D01*
X145151451Y-94563115D01*
X145151451Y-95562365D01*
X145310201Y-95721115D01*
X145500760Y-95721115D01*
X145734149Y-95624442D01*
X145797451Y-95561140D01*
X145797451Y-96593135D01*
X144797236Y-97593350D01*
X144799451Y-97582215D01*
X144799451Y-97064689D01*
X144859725Y-97025903D01*
X144934389Y-96916629D01*
X144960657Y-96786915D01*
X144960657Y-95897915D01*
X144937856Y-95776736D01*
X144866239Y-95665441D01*
X144823546Y-95636270D01*
X144897451Y-95562365D01*
X144897451Y-94563115D01*
X144877451Y-94563115D01*
X144877451Y-94309115D01*
X144897451Y-94309115D01*
X144897451Y-94289115D01*
X145151451Y-94289115D01*
X145151451Y-94309115D01*
X145850701Y-94309115D01*
X146009451Y-94150365D01*
X146009451Y-93659805D01*
X145912778Y-93426416D01*
X145734149Y-93247788D01*
X145659122Y-93216711D01*
X145681589Y-93183829D01*
X145707857Y-93054115D01*
X145707857Y-91754115D01*
X145685056Y-91632936D01*
X145613439Y-91521641D01*
X145504165Y-91446977D01*
X145374451Y-91420709D01*
X144674451Y-91420709D01*
X144553272Y-91443510D01*
X144441977Y-91515127D01*
X144367313Y-91624401D01*
X144341045Y-91754115D01*
X144341045Y-91927115D01*
X144186857Y-91927115D01*
X144186857Y-91670115D01*
X144164056Y-91548936D01*
X144092439Y-91437641D01*
X144075570Y-91426115D01*
X144382760Y-91426115D01*
X144616149Y-91329442D01*
X144794778Y-91150814D01*
X144891451Y-90917425D01*
X144891451Y-90276865D01*
X144732701Y-90118115D01*
X143883451Y-90118115D01*
X143883451Y-90138115D01*
X143629451Y-90138115D01*
X143629451Y-90118115D01*
X142780201Y-90118115D01*
X142621451Y-90276865D01*
X142621451Y-90917425D01*
X142718124Y-91150814D01*
X142896753Y-91329442D01*
X142914297Y-91336709D01*
X141794625Y-91336709D01*
X141488374Y-91030458D01*
X141488925Y-91030103D01*
X141563589Y-90920829D01*
X141589857Y-90791115D01*
X141589857Y-89191115D01*
X141567056Y-89069936D01*
X141563755Y-89064805D01*
X142621451Y-89064805D01*
X142621451Y-89705365D01*
X142780201Y-89864115D01*
X143629451Y-89864115D01*
X143629451Y-88714865D01*
X143883451Y-88714865D01*
X143883451Y-89864115D01*
X144732701Y-89864115D01*
X144891451Y-89705365D01*
X144891451Y-89064805D01*
X144794778Y-88831416D01*
X144616149Y-88652788D01*
X144382760Y-88556115D01*
X144042201Y-88556115D01*
X143883451Y-88714865D01*
X143629451Y-88714865D01*
X143470701Y-88556115D01*
X143130142Y-88556115D01*
X142896753Y-88652788D01*
X142718124Y-88831416D01*
X142621451Y-89064805D01*
X141563755Y-89064805D01*
X141495439Y-88958641D01*
X141386165Y-88883977D01*
X141368279Y-88880355D01*
X141501235Y-88747631D01*
X141596891Y-88517265D01*
X141597109Y-88267829D01*
X141501855Y-88037297D01*
X141325631Y-87860765D01*
X141095265Y-87765109D01*
X140845829Y-87764891D01*
X140615297Y-87860145D01*
X140438765Y-88036369D01*
X140343109Y-88266735D01*
X140343008Y-88382230D01*
X140315760Y-88423009D01*
X140279451Y-88605549D01*
X140279451Y-88857709D01*
X140256451Y-88857709D01*
X140135272Y-88880510D01*
X140023977Y-88952127D01*
X139949313Y-89061401D01*
X139923045Y-89191115D01*
X139923045Y-90791115D01*
X139945846Y-90912294D01*
X140017463Y-91023589D01*
X140126737Y-91098253D01*
X140256451Y-91124521D01*
X140309567Y-91124521D01*
X140315760Y-91155655D01*
X140419161Y-91310405D01*
X140445465Y-91336709D01*
X140353451Y-91336709D01*
X140232272Y-91359510D01*
X140120977Y-91431127D01*
X140046313Y-91540401D01*
X140020045Y-91670115D01*
X140020045Y-92970115D01*
X140042846Y-93091294D01*
X140114463Y-93202589D01*
X140223737Y-93277253D01*
X140353451Y-93303521D01*
X143853451Y-93303521D01*
X143974630Y-93280720D01*
X144085925Y-93209103D01*
X144160589Y-93099829D01*
X144186857Y-92970115D01*
X144186857Y-92881115D01*
X144341045Y-92881115D01*
X144341045Y-93054115D01*
X144363846Y-93175294D01*
X144390346Y-93216476D01*
X144314753Y-93247788D01*
X144136124Y-93426416D01*
X144058295Y-93614311D01*
X143983165Y-93562977D01*
X143853451Y-93536709D01*
X140353451Y-93536709D01*
X140232272Y-93559510D01*
X140120977Y-93631127D01*
X140046313Y-93740401D01*
X140020045Y-93870115D01*
X140020045Y-95170115D01*
X140042846Y-95291294D01*
X140114463Y-95402589D01*
X140223737Y-95477253D01*
X140353451Y-95503521D01*
X141626451Y-95503521D01*
X141626451Y-96028415D01*
X141662760Y-96210955D01*
X141766161Y-96365705D01*
X141779245Y-96378789D01*
X141779245Y-96786915D01*
X141802046Y-96908094D01*
X141873663Y-97019389D01*
X141982937Y-97094053D01*
X142112651Y-97120321D01*
X142515933Y-97120321D01*
X142526824Y-97146614D01*
X142705453Y-97325242D01*
X142938842Y-97421915D01*
X143084201Y-97421915D01*
X143242951Y-97263165D01*
X143242951Y-96469415D01*
X143222951Y-96469415D01*
X143222951Y-96215415D01*
X143242951Y-96215415D01*
X143242951Y-96195415D01*
X143496951Y-96195415D01*
X143496951Y-96215415D01*
X143516951Y-96215415D01*
X143516951Y-96469415D01*
X143496951Y-96469415D01*
X143496951Y-97263165D01*
X143655701Y-97421915D01*
X143801060Y-97421915D01*
X143813199Y-97416887D01*
X142986065Y-98244021D01*
X142961239Y-98205441D01*
X142851965Y-98130777D01*
X142722251Y-98104509D01*
X142112651Y-98104509D01*
X141991472Y-98127310D01*
X141880177Y-98198927D01*
X141805513Y-98308201D01*
X141784701Y-98410975D01*
X141630111Y-98441724D01*
X141475361Y-98545125D01*
X139536386Y-100484100D01*
X134805538Y-100484100D01*
X135046836Y-100242802D01*
X135150237Y-100088052D01*
X135186546Y-99905512D01*
X135186546Y-99883286D01*
X135246820Y-99844500D01*
X135321484Y-99735226D01*
X135342296Y-99632452D01*
X135496886Y-99601703D01*
X135651636Y-99498302D01*
X135976340Y-99173598D01*
X135976340Y-99605512D01*
X135999141Y-99726691D01*
X136070758Y-99837986D01*
X136180032Y-99912650D01*
X136309746Y-99938918D01*
X136919346Y-99938918D01*
X137040525Y-99916117D01*
X137151820Y-99844500D01*
X137226484Y-99735226D01*
X137247296Y-99632452D01*
X137401886Y-99601703D01*
X137556636Y-99498302D01*
X139193836Y-97861102D01*
X139297237Y-97706353D01*
X139333546Y-97523812D01*
X139333546Y-95601271D01*
X139439020Y-95533400D01*
X139513684Y-95424126D01*
X139539952Y-95294412D01*
X139539952Y-93994412D01*
X139517151Y-93873233D01*
X139445534Y-93761938D01*
X139336260Y-93687274D01*
X139333546Y-93686724D01*
X139333546Y-93315271D01*
X139439020Y-93247400D01*
X139513684Y-93138126D01*
X139539952Y-93008412D01*
X139539952Y-91708412D01*
X139517151Y-91587233D01*
X139445534Y-91475938D01*
X139336260Y-91401274D01*
X139206546Y-91375006D01*
X138523977Y-91375006D01*
X138666873Y-91232111D01*
X138763546Y-90998722D01*
X138763546Y-90358162D01*
X138604796Y-90199412D01*
X137755546Y-90199412D01*
X137755546Y-91348662D01*
X137914296Y-91507412D01*
X138248116Y-91507412D01*
X138199408Y-91578698D01*
X138173140Y-91708412D01*
X138173140Y-93008412D01*
X138195941Y-93129591D01*
X138267558Y-93240886D01*
X138376832Y-93315550D01*
X138379546Y-93316100D01*
X138379546Y-93687553D01*
X138274072Y-93755424D01*
X138199408Y-93864698D01*
X138173140Y-93994412D01*
X138173140Y-95294412D01*
X138195941Y-95415591D01*
X138267558Y-95526886D01*
X138376832Y-95601550D01*
X138379546Y-95602100D01*
X138379546Y-97326232D01*
X137183160Y-98522618D01*
X137158334Y-98484038D01*
X137049060Y-98409374D01*
X136919346Y-98383106D01*
X136766832Y-98383106D01*
X136951836Y-98198102D01*
X137055237Y-98043353D01*
X137091546Y-97860812D01*
X137091546Y-97343286D01*
X137151820Y-97304500D01*
X137226484Y-97195226D01*
X137252752Y-97065512D01*
X137252752Y-96176512D01*
X137229951Y-96055333D01*
X137158334Y-95944038D01*
X137083548Y-95892939D01*
X137083548Y-95770664D01*
X137242296Y-95929412D01*
X137432855Y-95929412D01*
X137666244Y-95832739D01*
X137844873Y-95654111D01*
X137941546Y-95420722D01*
X137941546Y-94930162D01*
X137782796Y-94771412D01*
X137083546Y-94771412D01*
X137083546Y-94791412D01*
X136829546Y-94791412D01*
X136829546Y-94771412D01*
X136809546Y-94771412D01*
X136809546Y-94517412D01*
X136829546Y-94517412D01*
X136829546Y-94497412D01*
X137083546Y-94497412D01*
X137083546Y-94517412D01*
X137782796Y-94517412D01*
X137941546Y-94358662D01*
X137941546Y-93868102D01*
X137844873Y-93634713D01*
X137666244Y-93456085D01*
X137432855Y-93359412D01*
X137242296Y-93359412D01*
X137083548Y-93518160D01*
X137083548Y-93359412D01*
X136987457Y-93359412D01*
X137005051Y-93341818D01*
X137306546Y-93341818D01*
X137427725Y-93319017D01*
X137539020Y-93247400D01*
X137613684Y-93138126D01*
X137639952Y-93008412D01*
X137639952Y-91708412D01*
X137617151Y-91587233D01*
X137545534Y-91475938D01*
X137443789Y-91406419D01*
X137501546Y-91348662D01*
X137501546Y-90199412D01*
X137481546Y-90199412D01*
X137481546Y-89945412D01*
X137501546Y-89945412D01*
X137501546Y-88796162D01*
X137755546Y-88796162D01*
X137755546Y-89945412D01*
X138604796Y-89945412D01*
X138763546Y-89786662D01*
X138763546Y-89146102D01*
X138666873Y-88912713D01*
X138488244Y-88734085D01*
X138254855Y-88637412D01*
X137914296Y-88637412D01*
X137755546Y-88796162D01*
X137501546Y-88796162D01*
X137342796Y-88637412D01*
X137002237Y-88637412D01*
X136768848Y-88734085D01*
X136590219Y-88912713D01*
X136493546Y-89146102D01*
X136493546Y-89734802D01*
X136421855Y-89561297D01*
X136245631Y-89384765D01*
X136015265Y-89289109D01*
X135765829Y-89288891D01*
X135535297Y-89384145D01*
X135461952Y-89457362D01*
X135461952Y-89272412D01*
X135439151Y-89151233D01*
X135367534Y-89039938D01*
X135258260Y-88965274D01*
X135128546Y-88939006D01*
X134128546Y-88939006D01*
X134007367Y-88961807D01*
X133896072Y-89033424D01*
X133821408Y-89142698D01*
X133795140Y-89272412D01*
X133795140Y-90872412D01*
X133817941Y-90993591D01*
X133889558Y-91104886D01*
X133998832Y-91179550D01*
X134128546Y-91205818D01*
X134151546Y-91205818D01*
X134151546Y-91418006D01*
X132346546Y-91418006D01*
X132225367Y-91440807D01*
X132114072Y-91512424D01*
X132039408Y-91621698D01*
X132013140Y-91751412D01*
X132013140Y-93051412D01*
X132035941Y-93172591D01*
X132107558Y-93283886D01*
X132216832Y-93358550D01*
X132346546Y-93384818D01*
X135644076Y-93384818D01*
X135643891Y-93596171D01*
X135652913Y-93618006D01*
X132346546Y-93618006D01*
X132225367Y-93640807D01*
X132114072Y-93712424D01*
X132039408Y-93821698D01*
X132013140Y-93951412D01*
X132013140Y-95251412D01*
X132035941Y-95372591D01*
X132107558Y-95483886D01*
X132216832Y-95558550D01*
X132346546Y-95584818D01*
X134232546Y-95584818D01*
X134232546Y-95898738D01*
X134172272Y-95937524D01*
X134097608Y-96046798D01*
X134071340Y-96176512D01*
X134071340Y-97065512D01*
X134094141Y-97186691D01*
X134165758Y-97297986D01*
X134275032Y-97372650D01*
X134404746Y-97398918D01*
X134808028Y-97398918D01*
X134818919Y-97425211D01*
X134997548Y-97603839D01*
X135230937Y-97700512D01*
X135376296Y-97700512D01*
X135535046Y-97541762D01*
X135535046Y-96748012D01*
X135515046Y-96748012D01*
X135515046Y-96494012D01*
X135535046Y-96494012D01*
X135535046Y-96474012D01*
X135789046Y-96474012D01*
X135789046Y-96494012D01*
X135809046Y-96494012D01*
X135809046Y-96748012D01*
X135789046Y-96748012D01*
X135789046Y-97541762D01*
X135947796Y-97700512D01*
X136093155Y-97700512D01*
X136105294Y-97695484D01*
X135278160Y-98522618D01*
X135253334Y-98484038D01*
X135144060Y-98409374D01*
X135014346Y-98383106D01*
X134404746Y-98383106D01*
X134283567Y-98405907D01*
X134172272Y-98477524D01*
X134097608Y-98586798D01*
X134071340Y-98716512D01*
X134071340Y-98756395D01*
X134052750Y-98737772D01*
X133748902Y-98611604D01*
X133419901Y-98611317D01*
X133115834Y-98736955D01*
X132882992Y-98969390D01*
X132756824Y-99273238D01*
X132756537Y-99602239D01*
X132882175Y-99906306D01*
X133114610Y-100139148D01*
X133418458Y-100265316D01*
X133674938Y-100265540D01*
X133456378Y-100484100D01*
X130073362Y-100484100D01*
X130029254Y-100453962D01*
X129899540Y-100427694D01*
X128622103Y-100427694D01*
X128638891Y-100387265D01*
X128639085Y-100165613D01*
X128796698Y-100100327D01*
X128975327Y-99921699D01*
X129072000Y-99688310D01*
X129072000Y-99347750D01*
X128913250Y-99189000D01*
X128064000Y-99189000D01*
X128064000Y-99209000D01*
X127810000Y-99209000D01*
X127810000Y-99189000D01*
X127790000Y-99189000D01*
X127790000Y-98935000D01*
X127810000Y-98935000D01*
X127810000Y-98085750D01*
X128064000Y-98085750D01*
X128064000Y-98935000D01*
X128913250Y-98935000D01*
X129072000Y-98776250D01*
X129072000Y-98435690D01*
X128975327Y-98202301D01*
X128796698Y-98023673D01*
X128563309Y-97927000D01*
X128222750Y-97927000D01*
X128064000Y-98085750D01*
X127810000Y-98085750D01*
X127651250Y-97927000D01*
X127310691Y-97927000D01*
X127077302Y-98023673D01*
X126898673Y-98202301D01*
X126802000Y-98435690D01*
X126802000Y-98532541D01*
X126688678Y-98436998D01*
X126264000Y-98302000D01*
X125989000Y-98302000D01*
X125989000Y-99310000D01*
X126009000Y-99310000D01*
X126009000Y-99564000D01*
X125989000Y-99564000D01*
X125989000Y-101060000D01*
X127288250Y-101060000D01*
X127447000Y-100901250D01*
X127447000Y-100536486D01*
X127480145Y-100616703D01*
X127493377Y-100629958D01*
X127492402Y-100631386D01*
X127466134Y-100761100D01*
X127466134Y-101161100D01*
X127488935Y-101282279D01*
X127491435Y-101286163D01*
X127466134Y-101411100D01*
X127466134Y-101811100D01*
X127488935Y-101932279D01*
X127491435Y-101936163D01*
X127466134Y-102061100D01*
X127466134Y-102161882D01*
X127447000Y-102169808D01*
X127447000Y-101472750D01*
X127288250Y-101314000D01*
X125989000Y-101314000D01*
X125989000Y-103210000D01*
X126009000Y-103210000D01*
X126009000Y-103464000D01*
X125989000Y-103464000D01*
X125989000Y-104935000D01*
X126009000Y-104935000D01*
X126009000Y-105189000D01*
X125989000Y-105189000D01*
X125989000Y-106197000D01*
X126264000Y-106197000D01*
X126688678Y-106062002D01*
X126802000Y-105966459D01*
X126802000Y-106088310D01*
X126898673Y-106321699D01*
X127077302Y-106500327D01*
X127310691Y-106597000D01*
X127651250Y-106597000D01*
X127810000Y-106438250D01*
X127810000Y-105589000D01*
X128064000Y-105589000D01*
X128064000Y-106438250D01*
X128222750Y-106597000D01*
X128563309Y-106597000D01*
X128796698Y-106500327D01*
X128975327Y-106321699D01*
X129072000Y-106088310D01*
X129072000Y-105747750D01*
X128913250Y-105589000D01*
X128064000Y-105589000D01*
X127810000Y-105589000D01*
X127790000Y-105589000D01*
X127790000Y-105335000D01*
X127810000Y-105335000D01*
X127810000Y-105315000D01*
X128064000Y-105315000D01*
X128064000Y-105335000D01*
X128913250Y-105335000D01*
X129072000Y-105176250D01*
X129072000Y-104835690D01*
X128975327Y-104602301D01*
X128796698Y-104423673D01*
X128638916Y-104358318D01*
X128638949Y-104320941D01*
X128722540Y-104237350D01*
X128722540Y-103661100D01*
X128702540Y-103661100D01*
X128702540Y-103607350D01*
X128722540Y-103587350D01*
X128722540Y-103414100D01*
X128976540Y-103414100D01*
X128976540Y-103587350D01*
X129050290Y-103661100D01*
X128976540Y-103661100D01*
X128976540Y-104237350D01*
X129135290Y-104396100D01*
X130025849Y-104396100D01*
X130259238Y-104299427D01*
X130437867Y-104120799D01*
X130534540Y-103887410D01*
X130534540Y-103819850D01*
X130375790Y-103661100D01*
X130231057Y-103661100D01*
X130259238Y-103649427D01*
X130437867Y-103470799D01*
X130488620Y-103348270D01*
X130534540Y-103302350D01*
X130534540Y-103169850D01*
X130488620Y-103123930D01*
X130437867Y-103001401D01*
X130259238Y-102822773D01*
X130231057Y-102811100D01*
X130375790Y-102811100D01*
X130534540Y-102652350D01*
X130534540Y-102584790D01*
X130437867Y-102351401D01*
X130259238Y-102172773D01*
X130232946Y-102161882D01*
X130232946Y-102061100D01*
X130210145Y-101939921D01*
X130207645Y-101936037D01*
X130232946Y-101811100D01*
X130232946Y-101438100D01*
X131222000Y-101438100D01*
X131222000Y-104727420D01*
X128619710Y-107329710D01*
X128516309Y-107484460D01*
X128486645Y-107633594D01*
X128057000Y-107633594D01*
X127935821Y-107656395D01*
X127825159Y-107727605D01*
X127775327Y-107607301D01*
X127596698Y-107428673D01*
X127363309Y-107332000D01*
X126622750Y-107332000D01*
X126464000Y-107490750D01*
X126464000Y-108455000D01*
X126484000Y-108455000D01*
X126484000Y-108709000D01*
X126464000Y-108709000D01*
X126464000Y-109673250D01*
X126622750Y-109832000D01*
X127363309Y-109832000D01*
X127596698Y-109735327D01*
X127775327Y-109556699D01*
X127825817Y-109434807D01*
X127927286Y-109504138D01*
X128057000Y-109530406D01*
X129857000Y-109530406D01*
X129978179Y-109507605D01*
X130089474Y-109435988D01*
X130164138Y-109326714D01*
X130190406Y-109197000D01*
X130190406Y-107967000D01*
X130167605Y-107845821D01*
X130095988Y-107734526D01*
X129986714Y-107659862D01*
X129857000Y-107633594D01*
X129664986Y-107633594D01*
X129695341Y-107603239D01*
X132756537Y-107603239D01*
X132882175Y-107907306D01*
X133114610Y-108140148D01*
X133418458Y-108266316D01*
X133747459Y-108266603D01*
X134051526Y-108140965D01*
X134284368Y-107908530D01*
X134410536Y-107604682D01*
X134410823Y-107275681D01*
X134285185Y-106971614D01*
X134052750Y-106738772D01*
X133748902Y-106612604D01*
X133419901Y-106612317D01*
X133115834Y-106737955D01*
X132882992Y-106970390D01*
X132756824Y-107274238D01*
X132756537Y-107603239D01*
X129695341Y-107603239D01*
X132036290Y-105262290D01*
X132139691Y-105107540D01*
X132176000Y-104925000D01*
X132176000Y-101438100D01*
X139256966Y-101438100D01*
X139256966Y-104935966D01*
X139293275Y-105118506D01*
X139396676Y-105273256D01*
X145059761Y-110936341D01*
X144947598Y-110936243D01*
X144551403Y-111099948D01*
X144248013Y-111402809D01*
X144083617Y-111798718D01*
X144083243Y-112227402D01*
X144246948Y-112623597D01*
X144549809Y-112926987D01*
X144641706Y-112965146D01*
X144315801Y-112982852D01*
X143960071Y-113130200D01*
X143898417Y-113365812D01*
X144653000Y-114120395D01*
X145407583Y-113365812D01*
X145345929Y-113130200D01*
X145236363Y-113091637D01*
X145374402Y-113091757D01*
X145770597Y-112928052D01*
X146073987Y-112625191D01*
X146238383Y-112229282D01*
X146238483Y-112115063D01*
X147398253Y-113274833D01*
X147397880Y-113274678D01*
X146989910Y-113274322D01*
X146612860Y-113430116D01*
X146324130Y-113718342D01*
X146167678Y-114095120D01*
X146167322Y-114503090D01*
X146323116Y-114880140D01*
X146611342Y-115168870D01*
X146988120Y-115325322D01*
X147396090Y-115325678D01*
X147550859Y-115261729D01*
X147589562Y-115300431D01*
X147589564Y-115300434D01*
X149419462Y-117130331D01*
X149419464Y-117130334D01*
X149519523Y-117197191D01*
X149557993Y-117222896D01*
X149721399Y-117255399D01*
X149838039Y-117255399D01*
X149683704Y-117486377D01*
X149593075Y-117942000D01*
X149683704Y-118397623D01*
X149941794Y-118783881D01*
X150328052Y-119041971D01*
X150783675Y-119132600D01*
X150830325Y-119132600D01*
X151285948Y-119041971D01*
X151672206Y-118783881D01*
X151930296Y-118397623D01*
X152020925Y-117942000D01*
X151930296Y-117486377D01*
X151775961Y-117255399D01*
X152378039Y-117255399D01*
X152223704Y-117486377D01*
X152133075Y-117942000D01*
X152223704Y-118397623D01*
X152481794Y-118783881D01*
X152868052Y-119041971D01*
X153323675Y-119132600D01*
X153370325Y-119132600D01*
X153825948Y-119041971D01*
X154212206Y-118783881D01*
X154470296Y-118397623D01*
X154560925Y-117942000D01*
X154470296Y-117486377D01*
X154315961Y-117255399D01*
X154918039Y-117255399D01*
X154763704Y-117486377D01*
X154673075Y-117942000D01*
X154763704Y-118397623D01*
X155021794Y-118783881D01*
X155408052Y-119041971D01*
X155863675Y-119132600D01*
X155910325Y-119132600D01*
X156365948Y-119041971D01*
X156752206Y-118783881D01*
X157010296Y-118397623D01*
X157100925Y-117942000D01*
X157010296Y-117486377D01*
X156855961Y-117255399D01*
X157458039Y-117255399D01*
X157303704Y-117486377D01*
X157213075Y-117942000D01*
X157303704Y-118397623D01*
X157561794Y-118783881D01*
X157948052Y-119041971D01*
X158403675Y-119132600D01*
X158450325Y-119132600D01*
X158905948Y-119041971D01*
X159292206Y-118783881D01*
X159550296Y-118397623D01*
X159640925Y-117942000D01*
X159550296Y-117486377D01*
X159395961Y-117255399D01*
X160793596Y-117255399D01*
X160793601Y-117255400D01*
X160957007Y-117222896D01*
X161095536Y-117130334D01*
X161869628Y-116356241D01*
X161863617Y-116370718D01*
X161863243Y-116799402D01*
X162026948Y-117195597D01*
X162329809Y-117498987D01*
X162725718Y-117663383D01*
X163154402Y-117663757D01*
X163550597Y-117500052D01*
X163853987Y-117197191D01*
X164018383Y-116801282D01*
X164018757Y-116372598D01*
X163855052Y-115976403D01*
X163552191Y-115673013D01*
X163156282Y-115508617D01*
X162727598Y-115508243D01*
X162710605Y-115515265D01*
X163032931Y-115192938D01*
X163032934Y-115192936D01*
X163125496Y-115054407D01*
X163137725Y-114992929D01*
X163158000Y-114891001D01*
X163157999Y-114890996D01*
X163157999Y-112210406D01*
X163981000Y-112210406D01*
X164102179Y-112187605D01*
X164213474Y-112115988D01*
X164288138Y-112006714D01*
X164314406Y-111877000D01*
X164314406Y-110627000D01*
X164291605Y-110505821D01*
X164219988Y-110394526D01*
X164110714Y-110319862D01*
X163981000Y-110293594D01*
X163908000Y-110293594D01*
X163908000Y-110226000D01*
X164163250Y-110226000D01*
X164322000Y-110067250D01*
X164322000Y-109093000D01*
X164302000Y-109093000D01*
X164302000Y-108839000D01*
X164322000Y-108839000D01*
X164322000Y-108819000D01*
X164576000Y-108819000D01*
X164576000Y-108839000D01*
X164596000Y-108839000D01*
X164596000Y-109093000D01*
X164576000Y-109093000D01*
X164576000Y-110067250D01*
X164609362Y-110100612D01*
X164442673Y-110267301D01*
X164346000Y-110500690D01*
X164346000Y-110966250D01*
X164504750Y-111125000D01*
X165354000Y-111125000D01*
X165354000Y-111105000D01*
X165608000Y-111105000D01*
X165608000Y-111125000D01*
X165628000Y-111125000D01*
X165628000Y-111379000D01*
X165608000Y-111379000D01*
X165608000Y-111399000D01*
X165354000Y-111399000D01*
X165354000Y-111379000D01*
X164504750Y-111379000D01*
X164346000Y-111537750D01*
X164346000Y-112003310D01*
X164442673Y-112236699D01*
X164621302Y-112415327D01*
X164800555Y-112489576D01*
X164710537Y-112579594D01*
X163981000Y-112579594D01*
X163859821Y-112602395D01*
X163748526Y-112674012D01*
X163673862Y-112783286D01*
X163647594Y-112913000D01*
X163647594Y-114163000D01*
X163670395Y-114284179D01*
X163742012Y-114395474D01*
X163851286Y-114470138D01*
X163981000Y-114496406D01*
X164981000Y-114496406D01*
X165102179Y-114473605D01*
X165213474Y-114401988D01*
X165288138Y-114292714D01*
X165314406Y-114163000D01*
X165314406Y-113823750D01*
X165346000Y-113823750D01*
X165346000Y-114289310D01*
X165442673Y-114522699D01*
X165621302Y-114701327D01*
X165854691Y-114798000D01*
X166195250Y-114798000D01*
X166354000Y-114639250D01*
X166354000Y-113665000D01*
X166608000Y-113665000D01*
X166608000Y-114639250D01*
X166766750Y-114798000D01*
X167107309Y-114798000D01*
X167340698Y-114701327D01*
X167519327Y-114522699D01*
X167616000Y-114289310D01*
X167616000Y-113823750D01*
X167457250Y-113665000D01*
X166608000Y-113665000D01*
X166354000Y-113665000D01*
X165504750Y-113665000D01*
X165346000Y-113823750D01*
X165314406Y-113823750D01*
X165314406Y-113183463D01*
X165346000Y-113151869D01*
X165346000Y-113252250D01*
X165504750Y-113411000D01*
X166354000Y-113411000D01*
X166354000Y-113391000D01*
X166608000Y-113391000D01*
X166608000Y-113411000D01*
X167457250Y-113411000D01*
X167616000Y-113252250D01*
X167616000Y-112786690D01*
X167519327Y-112553301D01*
X167340698Y-112374673D01*
X167107309Y-112278000D01*
X166766750Y-112278000D01*
X166608002Y-112436748D01*
X166608002Y-112303870D01*
X167179932Y-111731939D01*
X167179935Y-111731937D01*
X167272497Y-111593408D01*
X167305000Y-111430002D01*
X167305000Y-111022734D01*
X167272497Y-110859328D01*
X167179935Y-110720799D01*
X167179932Y-110720797D01*
X166637542Y-110178406D01*
X167013000Y-110178406D01*
X167134179Y-110155605D01*
X167245474Y-110083988D01*
X167320138Y-109974714D01*
X167346406Y-109845000D01*
X167346406Y-109505750D01*
X167378000Y-109505750D01*
X167378000Y-109971310D01*
X167474673Y-110204699D01*
X167653302Y-110383327D01*
X167886691Y-110480000D01*
X168227250Y-110480000D01*
X168386000Y-110321250D01*
X168386000Y-109347000D01*
X167536750Y-109347000D01*
X167378000Y-109505750D01*
X167346406Y-109505750D01*
X167346406Y-108595000D01*
X167323605Y-108473821D01*
X167251988Y-108362526D01*
X167226339Y-108345001D01*
X167429234Y-108345001D01*
X167378000Y-108468690D01*
X167378000Y-108934250D01*
X167536750Y-109093000D01*
X168386000Y-109093000D01*
X168386000Y-109073000D01*
X168640000Y-109073000D01*
X168640000Y-109093000D01*
X168660000Y-109093000D01*
X168660000Y-109347000D01*
X168640000Y-109347000D01*
X168640000Y-110321250D01*
X168798750Y-110480000D01*
X169139309Y-110480000D01*
X169270000Y-110425866D01*
X169270000Y-119340405D01*
X168906632Y-121167180D01*
X167894276Y-122682277D01*
X166379180Y-123694632D01*
X164979729Y-123973000D01*
X129152271Y-123973000D01*
X127752820Y-123694632D01*
X126237723Y-122682276D01*
X125225368Y-121167180D01*
X125027000Y-120169916D01*
X125027000Y-120067176D01*
X126840591Y-120067176D01*
X127198971Y-120934521D01*
X127861989Y-121598697D01*
X128728707Y-121958590D01*
X129667176Y-121959409D01*
X130534521Y-121601029D01*
X131198697Y-120938011D01*
X131238968Y-120841026D01*
X134112042Y-120841026D01*
X134284312Y-121256947D01*
X134678510Y-121688821D01*
X135207973Y-121936968D01*
X135440000Y-121816469D01*
X135440000Y-120609000D01*
X134233183Y-120609000D01*
X134112042Y-120841026D01*
X131238968Y-120841026D01*
X131537130Y-120122974D01*
X134112042Y-120122974D01*
X134233183Y-120355000D01*
X135440000Y-120355000D01*
X135440000Y-120335000D01*
X135694000Y-120335000D01*
X135694000Y-120355000D01*
X135714000Y-120355000D01*
X135714000Y-120609000D01*
X135694000Y-120609000D01*
X135694000Y-121816469D01*
X135926027Y-121936968D01*
X136455490Y-121688821D01*
X136849688Y-121256947D01*
X136983134Y-120934760D01*
X136983704Y-120937623D01*
X137241794Y-121323881D01*
X137628052Y-121581971D01*
X138083675Y-121672600D01*
X138130325Y-121672600D01*
X138585948Y-121581971D01*
X138972206Y-121323881D01*
X139230296Y-120937623D01*
X139320925Y-120482000D01*
X139433075Y-120482000D01*
X139523704Y-120937623D01*
X139781794Y-121323881D01*
X140168052Y-121581971D01*
X140623675Y-121672600D01*
X140670325Y-121672600D01*
X141125948Y-121581971D01*
X141512206Y-121323881D01*
X141770296Y-120937623D01*
X141860925Y-120482000D01*
X141973075Y-120482000D01*
X142063704Y-120937623D01*
X142321794Y-121323881D01*
X142708052Y-121581971D01*
X143163675Y-121672600D01*
X143210325Y-121672600D01*
X143665948Y-121581971D01*
X144052206Y-121323881D01*
X144310296Y-120937623D01*
X144400925Y-120482000D01*
X144513075Y-120482000D01*
X144603704Y-120937623D01*
X144861794Y-121323881D01*
X145248052Y-121581971D01*
X145703675Y-121672600D01*
X145750325Y-121672600D01*
X146205948Y-121581971D01*
X146592206Y-121323881D01*
X146850296Y-120937623D01*
X146940925Y-120482000D01*
X147053075Y-120482000D01*
X147143704Y-120937623D01*
X147401794Y-121323881D01*
X147788052Y-121581971D01*
X148243675Y-121672600D01*
X148290325Y-121672600D01*
X148745948Y-121581971D01*
X149132206Y-121323881D01*
X149390296Y-120937623D01*
X149480925Y-120482000D01*
X149593075Y-120482000D01*
X149683704Y-120937623D01*
X149941794Y-121323881D01*
X150328052Y-121581971D01*
X150783675Y-121672600D01*
X150830325Y-121672600D01*
X151285948Y-121581971D01*
X151672206Y-121323881D01*
X151930296Y-120937623D01*
X152020925Y-120482000D01*
X152133075Y-120482000D01*
X152223704Y-120937623D01*
X152481794Y-121323881D01*
X152868052Y-121581971D01*
X153323675Y-121672600D01*
X153370325Y-121672600D01*
X153825948Y-121581971D01*
X154212206Y-121323881D01*
X154470296Y-120937623D01*
X154560925Y-120482000D01*
X154673075Y-120482000D01*
X154763704Y-120937623D01*
X155021794Y-121323881D01*
X155408052Y-121581971D01*
X155863675Y-121672600D01*
X155910325Y-121672600D01*
X156365948Y-121581971D01*
X156752206Y-121323881D01*
X157010296Y-120937623D01*
X157100925Y-120482000D01*
X157213075Y-120482000D01*
X157303704Y-120937623D01*
X157561794Y-121323881D01*
X157948052Y-121581971D01*
X158403675Y-121672600D01*
X158450325Y-121672600D01*
X158905948Y-121581971D01*
X159292206Y-121323881D01*
X159550296Y-120937623D01*
X159640925Y-120482000D01*
X159558412Y-120067176D01*
X162340591Y-120067176D01*
X162698971Y-120934521D01*
X163361989Y-121598697D01*
X164228707Y-121958590D01*
X165167176Y-121959409D01*
X166034521Y-121601029D01*
X166698697Y-120938011D01*
X167058590Y-120071293D01*
X167059409Y-119132824D01*
X166701029Y-118265479D01*
X166038011Y-117601303D01*
X165171293Y-117241410D01*
X164232824Y-117240591D01*
X163365479Y-117598971D01*
X162701303Y-118261989D01*
X162341410Y-119128707D01*
X162340591Y-120067176D01*
X159558412Y-120067176D01*
X159550296Y-120026377D01*
X159292206Y-119640119D01*
X158905948Y-119382029D01*
X158450325Y-119291400D01*
X158403675Y-119291400D01*
X157948052Y-119382029D01*
X157561794Y-119640119D01*
X157303704Y-120026377D01*
X157213075Y-120482000D01*
X157100925Y-120482000D01*
X157010296Y-120026377D01*
X156752206Y-119640119D01*
X156365948Y-119382029D01*
X155910325Y-119291400D01*
X155863675Y-119291400D01*
X155408052Y-119382029D01*
X155021794Y-119640119D01*
X154763704Y-120026377D01*
X154673075Y-120482000D01*
X154560925Y-120482000D01*
X154470296Y-120026377D01*
X154212206Y-119640119D01*
X153825948Y-119382029D01*
X153370325Y-119291400D01*
X153323675Y-119291400D01*
X152868052Y-119382029D01*
X152481794Y-119640119D01*
X152223704Y-120026377D01*
X152133075Y-120482000D01*
X152020925Y-120482000D01*
X151930296Y-120026377D01*
X151672206Y-119640119D01*
X151285948Y-119382029D01*
X150830325Y-119291400D01*
X150783675Y-119291400D01*
X150328052Y-119382029D01*
X149941794Y-119640119D01*
X149683704Y-120026377D01*
X149593075Y-120482000D01*
X149480925Y-120482000D01*
X149390296Y-120026377D01*
X149132206Y-119640119D01*
X148745948Y-119382029D01*
X148290325Y-119291400D01*
X148243675Y-119291400D01*
X147788052Y-119382029D01*
X147401794Y-119640119D01*
X147143704Y-120026377D01*
X147053075Y-120482000D01*
X146940925Y-120482000D01*
X146850296Y-120026377D01*
X146592206Y-119640119D01*
X146205948Y-119382029D01*
X145750325Y-119291400D01*
X145703675Y-119291400D01*
X145248052Y-119382029D01*
X144861794Y-119640119D01*
X144603704Y-120026377D01*
X144513075Y-120482000D01*
X144400925Y-120482000D01*
X144310296Y-120026377D01*
X144052206Y-119640119D01*
X143665948Y-119382029D01*
X143210325Y-119291400D01*
X143163675Y-119291400D01*
X142708052Y-119382029D01*
X142321794Y-119640119D01*
X142063704Y-120026377D01*
X141973075Y-120482000D01*
X141860925Y-120482000D01*
X141770296Y-120026377D01*
X141512206Y-119640119D01*
X141125948Y-119382029D01*
X140670325Y-119291400D01*
X140623675Y-119291400D01*
X140168052Y-119382029D01*
X139781794Y-119640119D01*
X139523704Y-120026377D01*
X139433075Y-120482000D01*
X139320925Y-120482000D01*
X139230296Y-120026377D01*
X138972206Y-119640119D01*
X138585948Y-119382029D01*
X138130325Y-119291400D01*
X138083675Y-119291400D01*
X137628052Y-119382029D01*
X137241794Y-119640119D01*
X136983704Y-120026377D01*
X136983134Y-120029240D01*
X136849688Y-119707053D01*
X136455490Y-119275179D01*
X136164942Y-119139006D01*
X136430600Y-119139006D01*
X136551779Y-119116205D01*
X136663074Y-119044588D01*
X136737738Y-118935314D01*
X136764006Y-118805600D01*
X136764006Y-117942000D01*
X136893075Y-117942000D01*
X136983704Y-118397623D01*
X137241794Y-118783881D01*
X137628052Y-119041971D01*
X138083675Y-119132600D01*
X138130325Y-119132600D01*
X138585948Y-119041971D01*
X138972206Y-118783881D01*
X139230296Y-118397623D01*
X139320925Y-117942000D01*
X139433075Y-117942000D01*
X139523704Y-118397623D01*
X139781794Y-118783881D01*
X140168052Y-119041971D01*
X140623675Y-119132600D01*
X140670325Y-119132600D01*
X141125948Y-119041971D01*
X141512206Y-118783881D01*
X141770296Y-118397623D01*
X141860925Y-117942000D01*
X141973075Y-117942000D01*
X142063704Y-118397623D01*
X142321794Y-118783881D01*
X142708052Y-119041971D01*
X143163675Y-119132600D01*
X143210325Y-119132600D01*
X143665948Y-119041971D01*
X144052206Y-118783881D01*
X144310296Y-118397623D01*
X144400925Y-117942000D01*
X144513075Y-117942000D01*
X144603704Y-118397623D01*
X144861794Y-118783881D01*
X145248052Y-119041971D01*
X145703675Y-119132600D01*
X145750325Y-119132600D01*
X146205948Y-119041971D01*
X146592206Y-118783881D01*
X146850296Y-118397623D01*
X146940925Y-117942000D01*
X147053075Y-117942000D01*
X147143704Y-118397623D01*
X147401794Y-118783881D01*
X147788052Y-119041971D01*
X148243675Y-119132600D01*
X148290325Y-119132600D01*
X148745948Y-119041971D01*
X149132206Y-118783881D01*
X149390296Y-118397623D01*
X149480925Y-117942000D01*
X149390296Y-117486377D01*
X149132206Y-117100119D01*
X148745948Y-116842029D01*
X148290325Y-116751400D01*
X148243675Y-116751400D01*
X147788052Y-116842029D01*
X147401794Y-117100119D01*
X147143704Y-117486377D01*
X147053075Y-117942000D01*
X146940925Y-117942000D01*
X146850296Y-117486377D01*
X146592206Y-117100119D01*
X146205948Y-116842029D01*
X145750325Y-116751400D01*
X145703675Y-116751400D01*
X145248052Y-116842029D01*
X144861794Y-117100119D01*
X144603704Y-117486377D01*
X144513075Y-117942000D01*
X144400925Y-117942000D01*
X144310296Y-117486377D01*
X144052206Y-117100119D01*
X143665948Y-116842029D01*
X143210325Y-116751400D01*
X143163675Y-116751400D01*
X142708052Y-116842029D01*
X142321794Y-117100119D01*
X142063704Y-117486377D01*
X141973075Y-117942000D01*
X141860925Y-117942000D01*
X141770296Y-117486377D01*
X141512206Y-117100119D01*
X141125948Y-116842029D01*
X140670325Y-116751400D01*
X140623675Y-116751400D01*
X140168052Y-116842029D01*
X139781794Y-117100119D01*
X139523704Y-117486377D01*
X139433075Y-117942000D01*
X139320925Y-117942000D01*
X139230296Y-117486377D01*
X138972206Y-117100119D01*
X138585948Y-116842029D01*
X138130325Y-116751400D01*
X138083675Y-116751400D01*
X137628052Y-116842029D01*
X137241794Y-117100119D01*
X136983704Y-117486377D01*
X136893075Y-117942000D01*
X136764006Y-117942000D01*
X136764006Y-117078400D01*
X136741205Y-116957221D01*
X136669588Y-116845926D01*
X136560314Y-116771262D01*
X136430600Y-116744994D01*
X134703400Y-116744994D01*
X134582221Y-116767795D01*
X134470926Y-116839412D01*
X134396262Y-116948686D01*
X134369994Y-117078400D01*
X134369994Y-118805600D01*
X134392795Y-118926779D01*
X134464412Y-119038074D01*
X134573686Y-119112738D01*
X134703400Y-119139006D01*
X134969058Y-119139006D01*
X134678510Y-119275179D01*
X134284312Y-119707053D01*
X134112042Y-120122974D01*
X131537130Y-120122974D01*
X131558590Y-120071293D01*
X131559409Y-119132824D01*
X131201029Y-118265479D01*
X130538011Y-117601303D01*
X129671293Y-117241410D01*
X128732824Y-117240591D01*
X127865479Y-117598971D01*
X127201303Y-118261989D01*
X126841410Y-119128707D01*
X126840591Y-120067176D01*
X125027000Y-120067176D01*
X125027000Y-115234188D01*
X143898417Y-115234188D01*
X143960071Y-115469800D01*
X144460480Y-115645927D01*
X144990199Y-115617148D01*
X145345929Y-115469800D01*
X145407583Y-115234188D01*
X144653000Y-114479605D01*
X143898417Y-115234188D01*
X125027000Y-115234188D01*
X125027000Y-114727275D01*
X133511331Y-114727275D01*
X133573169Y-114963042D01*
X134074122Y-115139419D01*
X134604440Y-115110664D01*
X134960831Y-114963042D01*
X135022669Y-114727275D01*
X134267000Y-113971605D01*
X133511331Y-114727275D01*
X125027000Y-114727275D01*
X125027000Y-113599122D01*
X132919581Y-113599122D01*
X132948336Y-114129440D01*
X133095958Y-114485831D01*
X133331725Y-114547669D01*
X134087395Y-113792000D01*
X134446605Y-113792000D01*
X135202275Y-114547669D01*
X135438042Y-114485831D01*
X135610718Y-113995387D01*
X136739822Y-113995387D01*
X136895844Y-114372989D01*
X137184492Y-114662140D01*
X137561821Y-114818821D01*
X137970387Y-114819178D01*
X138347989Y-114663156D01*
X138637140Y-114374508D01*
X138748019Y-114107480D01*
X143307073Y-114107480D01*
X143335852Y-114637199D01*
X143483200Y-114992929D01*
X143718812Y-115054583D01*
X144473395Y-114300000D01*
X144832605Y-114300000D01*
X145587188Y-115054583D01*
X145822800Y-114992929D01*
X145998927Y-114492520D01*
X145970148Y-113962801D01*
X145822800Y-113607071D01*
X145587188Y-113545417D01*
X144832605Y-114300000D01*
X144473395Y-114300000D01*
X143718812Y-113545417D01*
X143483200Y-113607071D01*
X143307073Y-114107480D01*
X138748019Y-114107480D01*
X138793821Y-113997179D01*
X138794178Y-113588613D01*
X138638156Y-113211011D01*
X138349508Y-112921860D01*
X137972179Y-112765179D01*
X137563613Y-112764822D01*
X137186011Y-112920844D01*
X136896860Y-113209492D01*
X136740179Y-113586821D01*
X136739822Y-113995387D01*
X135610718Y-113995387D01*
X135614419Y-113984878D01*
X135585664Y-113454560D01*
X135438042Y-113098169D01*
X135202275Y-113036331D01*
X134446605Y-113792000D01*
X134087395Y-113792000D01*
X133331725Y-113036331D01*
X133095958Y-113098169D01*
X132919581Y-113599122D01*
X125027000Y-113599122D01*
X125027000Y-112856725D01*
X133511331Y-112856725D01*
X134267000Y-113612395D01*
X135022669Y-112856725D01*
X134960831Y-112620958D01*
X134459878Y-112444581D01*
X133929560Y-112473336D01*
X133573169Y-112620958D01*
X133511331Y-112856725D01*
X125027000Y-112856725D01*
X125027000Y-109685025D01*
X125077302Y-109735327D01*
X125310691Y-109832000D01*
X126051250Y-109832000D01*
X126210000Y-109673250D01*
X126210000Y-108709000D01*
X126190000Y-108709000D01*
X126190000Y-108455000D01*
X126210000Y-108455000D01*
X126210000Y-107490750D01*
X126051250Y-107332000D01*
X125310691Y-107332000D01*
X125077302Y-107428673D01*
X125027000Y-107478975D01*
X125027000Y-106054986D01*
X125035322Y-106062002D01*
X125460000Y-106197000D01*
X125735000Y-106197000D01*
X125735000Y-105189000D01*
X125715000Y-105189000D01*
X125715000Y-104935000D01*
X125735000Y-104935000D01*
X125735000Y-103464000D01*
X125715000Y-103464000D01*
X125715000Y-103210000D01*
X125735000Y-103210000D01*
X125735000Y-101314000D01*
X125715000Y-101314000D01*
X125715000Y-101060000D01*
X125735000Y-101060000D01*
X125735000Y-99564000D01*
X125715000Y-99564000D01*
X125715000Y-99310000D01*
X125735000Y-99310000D01*
X125735000Y-98302000D01*
X125460000Y-98302000D01*
X125035322Y-98436998D01*
X125027000Y-98444014D01*
X125027000Y-84467176D01*
X126940591Y-84467176D01*
X127298971Y-85334521D01*
X127961989Y-85998697D01*
X128828707Y-86358590D01*
X129767176Y-86359409D01*
X130634521Y-86001029D01*
X131298697Y-85338011D01*
X131658590Y-84471293D01*
X131659409Y-83532824D01*
X131301029Y-82665479D01*
X130638011Y-82001303D01*
X129771293Y-81641410D01*
X128832824Y-81640591D01*
X127965479Y-81998971D01*
X127301303Y-82661989D01*
X126941410Y-83528707D01*
X126940591Y-84467176D01*
X125027000Y-84467176D01*
X125027000Y-83538084D01*
X125225368Y-82540820D01*
X126237723Y-81025724D01*
X126950068Y-80549750D01*
X142518000Y-80549750D01*
X142518000Y-81015310D01*
X142614673Y-81248699D01*
X142793302Y-81427327D01*
X143026691Y-81524000D01*
X143367250Y-81524000D01*
X143526000Y-81365250D01*
X143526000Y-80391000D01*
X143780000Y-80391000D01*
X143780000Y-81365250D01*
X143938750Y-81524000D01*
X144279309Y-81524000D01*
X144512698Y-81427327D01*
X144691327Y-81248699D01*
X144788000Y-81015310D01*
X144788000Y-80549750D01*
X144629250Y-80391000D01*
X143780000Y-80391000D01*
X143526000Y-80391000D01*
X142676750Y-80391000D01*
X142518000Y-80549750D01*
X126950068Y-80549750D01*
X127752820Y-80013368D01*
X129579595Y-79650000D01*
X142518000Y-79650000D01*
X142518000Y-79978250D01*
X142518000Y-79978250D01*
G37*
X142518000Y-79978250D02*
X142676750Y-80137000D01*
X143526000Y-80137000D01*
X143526000Y-80117000D01*
X143780000Y-80117000D01*
X143780000Y-80137000D01*
X144629250Y-80137000D01*
X144788000Y-79978250D01*
X144788000Y-79650000D01*
X144819594Y-79650000D01*
X144819594Y-80889000D01*
X144842395Y-81010179D01*
X144914012Y-81121474D01*
X145023286Y-81196138D01*
X145153000Y-81222406D01*
X145176000Y-81222406D01*
X145176000Y-81833491D01*
X144851794Y-82050119D01*
X144593704Y-82436377D01*
X144503075Y-82892000D01*
X144593704Y-83347623D01*
X144748039Y-83578601D01*
X144145961Y-83578601D01*
X144300296Y-83347623D01*
X144390925Y-82892000D01*
X144300296Y-82436377D01*
X144042206Y-82050119D01*
X143655948Y-81792029D01*
X143200325Y-81701400D01*
X143153675Y-81701400D01*
X142698052Y-81792029D01*
X142311794Y-82050119D01*
X142053704Y-82436377D01*
X141963075Y-82892000D01*
X142053704Y-83347623D01*
X142208039Y-83578601D01*
X141927471Y-83578601D01*
X141802534Y-83453664D01*
X141802531Y-83453662D01*
X141734740Y-83385871D01*
X141760296Y-83347623D01*
X141850925Y-82892000D01*
X141760296Y-82436377D01*
X141502206Y-82050119D01*
X141115948Y-81792029D01*
X140660325Y-81701400D01*
X140613675Y-81701400D01*
X140158052Y-81792029D01*
X139771794Y-82050119D01*
X139513704Y-82436377D01*
X139423075Y-82892000D01*
X139513704Y-83347623D01*
X139771794Y-83733881D01*
X140158052Y-83991971D01*
X140613675Y-84082600D01*
X140660325Y-84082600D01*
X141115948Y-83991971D01*
X141126231Y-83985100D01*
X141198662Y-84057531D01*
X141198664Y-84057534D01*
X141448664Y-84307533D01*
X141448666Y-84307536D01*
X141587195Y-84400098D01*
X141750601Y-84432601D01*
X142547536Y-84432601D01*
X142311794Y-84590119D01*
X142053704Y-84976377D01*
X141963075Y-85432000D01*
X142053704Y-85887623D01*
X142259080Y-86194989D01*
X141554920Y-86194989D01*
X141760296Y-85887623D01*
X141850925Y-85432000D01*
X141760296Y-84976377D01*
X141502206Y-84590119D01*
X141115948Y-84332029D01*
X140660325Y-84241400D01*
X140613675Y-84241400D01*
X140158052Y-84332029D01*
X139771794Y-84590119D01*
X139513704Y-84976377D01*
X139423075Y-85432000D01*
X139513704Y-85887623D01*
X139719080Y-86194989D01*
X139014920Y-86194989D01*
X139220296Y-85887623D01*
X139310925Y-85432000D01*
X139220296Y-84976377D01*
X138962206Y-84590119D01*
X138575948Y-84332029D01*
X138120325Y-84241400D01*
X138073675Y-84241400D01*
X137618052Y-84332029D01*
X137410399Y-84470779D01*
X137410399Y-83853221D01*
X137618052Y-83991971D01*
X138073675Y-84082600D01*
X138120325Y-84082600D01*
X138575948Y-83991971D01*
X138962206Y-83733881D01*
X139220296Y-83347623D01*
X139310925Y-82892000D01*
X139220296Y-82436377D01*
X138962206Y-82050119D01*
X138575948Y-81792029D01*
X138120325Y-81701400D01*
X138073675Y-81701400D01*
X137662723Y-81783143D01*
X136822290Y-80942710D01*
X136667540Y-80839309D01*
X136485000Y-80803000D01*
X134366000Y-80803000D01*
X134183459Y-80839309D01*
X134028710Y-80942710D01*
X133520710Y-81450710D01*
X133417309Y-81605460D01*
X133381000Y-81788000D01*
X133381000Y-85852000D01*
X133417309Y-86034540D01*
X133520710Y-86189290D01*
X134790710Y-87459290D01*
X134945460Y-87562691D01*
X135128000Y-87599000D01*
X145344420Y-87599000D01*
X147859000Y-90113580D01*
X147859000Y-94366988D01*
X147607857Y-94618131D01*
X147607857Y-93786115D01*
X147585056Y-93664936D01*
X147513439Y-93553641D01*
X147404165Y-93478977D01*
X147401451Y-93478427D01*
X147401451Y-93360974D01*
X147506925Y-93293103D01*
X147581589Y-93183829D01*
X147607857Y-93054115D01*
X147607857Y-91754115D01*
X147585056Y-91632936D01*
X147513439Y-91521641D01*
X147404165Y-91446977D01*
X147274451Y-91420709D01*
X146574451Y-91420709D01*
X146453272Y-91443510D01*
X146341977Y-91515127D01*
X146267313Y-91624401D01*
X146241045Y-91754115D01*
X146241045Y-93054115D01*
X146263846Y-93175294D01*
X146335463Y-93286589D01*
X146444737Y-93361253D01*
X146447451Y-93361803D01*
X146447451Y-93479256D01*
X146341977Y-93547127D01*
X146267313Y-93656401D01*
X146241045Y-93786115D01*
X146241045Y-94744941D01*
X146009451Y-94976535D01*
X146009451Y-94721865D01*
X145850701Y-94563115D01*
X145151451Y-94563115D01*
X145151451Y-95562365D01*
X145310201Y-95721115D01*
X145500760Y-95721115D01*
X145734149Y-95624442D01*
X145797451Y-95561140D01*
X145797451Y-96593135D01*
X144797236Y-97593350D01*
X144799451Y-97582215D01*
X144799451Y-97064689D01*
X144859725Y-97025903D01*
X144934389Y-96916629D01*
X144960657Y-96786915D01*
X144960657Y-95897915D01*
X144937856Y-95776736D01*
X144866239Y-95665441D01*
X144823546Y-95636270D01*
X144897451Y-95562365D01*
X144897451Y-94563115D01*
X144877451Y-94563115D01*
X144877451Y-94309115D01*
X144897451Y-94309115D01*
X144897451Y-94289115D01*
X145151451Y-94289115D01*
X145151451Y-94309115D01*
X145850701Y-94309115D01*
X146009451Y-94150365D01*
X146009451Y-93659805D01*
X145912778Y-93426416D01*
X145734149Y-93247788D01*
X145659122Y-93216711D01*
X145681589Y-93183829D01*
X145707857Y-93054115D01*
X145707857Y-91754115D01*
X145685056Y-91632936D01*
X145613439Y-91521641D01*
X145504165Y-91446977D01*
X145374451Y-91420709D01*
X144674451Y-91420709D01*
X144553272Y-91443510D01*
X144441977Y-91515127D01*
X144367313Y-91624401D01*
X144341045Y-91754115D01*
X144341045Y-91927115D01*
X144186857Y-91927115D01*
X144186857Y-91670115D01*
X144164056Y-91548936D01*
X144092439Y-91437641D01*
X144075570Y-91426115D01*
X144382760Y-91426115D01*
X144616149Y-91329442D01*
X144794778Y-91150814D01*
X144891451Y-90917425D01*
X144891451Y-90276865D01*
X144732701Y-90118115D01*
X143883451Y-90118115D01*
X143883451Y-90138115D01*
X143629451Y-90138115D01*
X143629451Y-90118115D01*
X142780201Y-90118115D01*
X142621451Y-90276865D01*
X142621451Y-90917425D01*
X142718124Y-91150814D01*
X142896753Y-91329442D01*
X142914297Y-91336709D01*
X141794625Y-91336709D01*
X141488374Y-91030458D01*
X141488925Y-91030103D01*
X141563589Y-90920829D01*
X141589857Y-90791115D01*
X141589857Y-89191115D01*
X141567056Y-89069936D01*
X141563755Y-89064805D01*
X142621451Y-89064805D01*
X142621451Y-89705365D01*
X142780201Y-89864115D01*
X143629451Y-89864115D01*
X143629451Y-88714865D01*
X143883451Y-88714865D01*
X143883451Y-89864115D01*
X144732701Y-89864115D01*
X144891451Y-89705365D01*
X144891451Y-89064805D01*
X144794778Y-88831416D01*
X144616149Y-88652788D01*
X144382760Y-88556115D01*
X144042201Y-88556115D01*
X143883451Y-88714865D01*
X143629451Y-88714865D01*
X143470701Y-88556115D01*
X143130142Y-88556115D01*
X142896753Y-88652788D01*
X142718124Y-88831416D01*
X142621451Y-89064805D01*
X141563755Y-89064805D01*
X141495439Y-88958641D01*
X141386165Y-88883977D01*
X141368279Y-88880355D01*
X141501235Y-88747631D01*
X141596891Y-88517265D01*
X141597109Y-88267829D01*
X141501855Y-88037297D01*
X141325631Y-87860765D01*
X141095265Y-87765109D01*
X140845829Y-87764891D01*
X140615297Y-87860145D01*
X140438765Y-88036369D01*
X140343109Y-88266735D01*
X140343008Y-88382230D01*
X140315760Y-88423009D01*
X140279451Y-88605549D01*
X140279451Y-88857709D01*
X140256451Y-88857709D01*
X140135272Y-88880510D01*
X140023977Y-88952127D01*
X139949313Y-89061401D01*
X139923045Y-89191115D01*
X139923045Y-90791115D01*
X139945846Y-90912294D01*
X140017463Y-91023589D01*
X140126737Y-91098253D01*
X140256451Y-91124521D01*
X140309567Y-91124521D01*
X140315760Y-91155655D01*
X140419161Y-91310405D01*
X140445465Y-91336709D01*
X140353451Y-91336709D01*
X140232272Y-91359510D01*
X140120977Y-91431127D01*
X140046313Y-91540401D01*
X140020045Y-91670115D01*
X140020045Y-92970115D01*
X140042846Y-93091294D01*
X140114463Y-93202589D01*
X140223737Y-93277253D01*
X140353451Y-93303521D01*
X143853451Y-93303521D01*
X143974630Y-93280720D01*
X144085925Y-93209103D01*
X144160589Y-93099829D01*
X144186857Y-92970115D01*
X144186857Y-92881115D01*
X144341045Y-92881115D01*
X144341045Y-93054115D01*
X144363846Y-93175294D01*
X144390346Y-93216476D01*
X144314753Y-93247788D01*
X144136124Y-93426416D01*
X144058295Y-93614311D01*
X143983165Y-93562977D01*
X143853451Y-93536709D01*
X140353451Y-93536709D01*
X140232272Y-93559510D01*
X140120977Y-93631127D01*
X140046313Y-93740401D01*
X140020045Y-93870115D01*
X140020045Y-95170115D01*
X140042846Y-95291294D01*
X140114463Y-95402589D01*
X140223737Y-95477253D01*
X140353451Y-95503521D01*
X141626451Y-95503521D01*
X141626451Y-96028415D01*
X141662760Y-96210955D01*
X141766161Y-96365705D01*
X141779245Y-96378789D01*
X141779245Y-96786915D01*
X141802046Y-96908094D01*
X141873663Y-97019389D01*
X141982937Y-97094053D01*
X142112651Y-97120321D01*
X142515933Y-97120321D01*
X142526824Y-97146614D01*
X142705453Y-97325242D01*
X142938842Y-97421915D01*
X143084201Y-97421915D01*
X143242951Y-97263165D01*
X143242951Y-96469415D01*
X143222951Y-96469415D01*
X143222951Y-96215415D01*
X143242951Y-96215415D01*
X143242951Y-96195415D01*
X143496951Y-96195415D01*
X143496951Y-96215415D01*
X143516951Y-96215415D01*
X143516951Y-96469415D01*
X143496951Y-96469415D01*
X143496951Y-97263165D01*
X143655701Y-97421915D01*
X143801060Y-97421915D01*
X143813199Y-97416887D01*
X142986065Y-98244021D01*
X142961239Y-98205441D01*
X142851965Y-98130777D01*
X142722251Y-98104509D01*
X142112651Y-98104509D01*
X141991472Y-98127310D01*
X141880177Y-98198927D01*
X141805513Y-98308201D01*
X141784701Y-98410975D01*
X141630111Y-98441724D01*
X141475361Y-98545125D01*
X139536386Y-100484100D01*
X134805538Y-100484100D01*
X135046836Y-100242802D01*
X135150237Y-100088052D01*
X135186546Y-99905512D01*
X135186546Y-99883286D01*
X135246820Y-99844500D01*
X135321484Y-99735226D01*
X135342296Y-99632452D01*
X135496886Y-99601703D01*
X135651636Y-99498302D01*
X135976340Y-99173598D01*
X135976340Y-99605512D01*
X135999141Y-99726691D01*
X136070758Y-99837986D01*
X136180032Y-99912650D01*
X136309746Y-99938918D01*
X136919346Y-99938918D01*
X137040525Y-99916117D01*
X137151820Y-99844500D01*
X137226484Y-99735226D01*
X137247296Y-99632452D01*
X137401886Y-99601703D01*
X137556636Y-99498302D01*
X139193836Y-97861102D01*
X139297237Y-97706353D01*
X139333546Y-97523812D01*
X139333546Y-95601271D01*
X139439020Y-95533400D01*
X139513684Y-95424126D01*
X139539952Y-95294412D01*
X139539952Y-93994412D01*
X139517151Y-93873233D01*
X139445534Y-93761938D01*
X139336260Y-93687274D01*
X139333546Y-93686724D01*
X139333546Y-93315271D01*
X139439020Y-93247400D01*
X139513684Y-93138126D01*
X139539952Y-93008412D01*
X139539952Y-91708412D01*
X139517151Y-91587233D01*
X139445534Y-91475938D01*
X139336260Y-91401274D01*
X139206546Y-91375006D01*
X138523977Y-91375006D01*
X138666873Y-91232111D01*
X138763546Y-90998722D01*
X138763546Y-90358162D01*
X138604796Y-90199412D01*
X137755546Y-90199412D01*
X137755546Y-91348662D01*
X137914296Y-91507412D01*
X138248116Y-91507412D01*
X138199408Y-91578698D01*
X138173140Y-91708412D01*
X138173140Y-93008412D01*
X138195941Y-93129591D01*
X138267558Y-93240886D01*
X138376832Y-93315550D01*
X138379546Y-93316100D01*
X138379546Y-93687553D01*
X138274072Y-93755424D01*
X138199408Y-93864698D01*
X138173140Y-93994412D01*
X138173140Y-95294412D01*
X138195941Y-95415591D01*
X138267558Y-95526886D01*
X138376832Y-95601550D01*
X138379546Y-95602100D01*
X138379546Y-97326232D01*
X137183160Y-98522618D01*
X137158334Y-98484038D01*
X137049060Y-98409374D01*
X136919346Y-98383106D01*
X136766832Y-98383106D01*
X136951836Y-98198102D01*
X137055237Y-98043353D01*
X137091546Y-97860812D01*
X137091546Y-97343286D01*
X137151820Y-97304500D01*
X137226484Y-97195226D01*
X137252752Y-97065512D01*
X137252752Y-96176512D01*
X137229951Y-96055333D01*
X137158334Y-95944038D01*
X137083548Y-95892939D01*
X137083548Y-95770664D01*
X137242296Y-95929412D01*
X137432855Y-95929412D01*
X137666244Y-95832739D01*
X137844873Y-95654111D01*
X137941546Y-95420722D01*
X137941546Y-94930162D01*
X137782796Y-94771412D01*
X137083546Y-94771412D01*
X137083546Y-94791412D01*
X136829546Y-94791412D01*
X136829546Y-94771412D01*
X136809546Y-94771412D01*
X136809546Y-94517412D01*
X136829546Y-94517412D01*
X136829546Y-94497412D01*
X137083546Y-94497412D01*
X137083546Y-94517412D01*
X137782796Y-94517412D01*
X137941546Y-94358662D01*
X137941546Y-93868102D01*
X137844873Y-93634713D01*
X137666244Y-93456085D01*
X137432855Y-93359412D01*
X137242296Y-93359412D01*
X137083548Y-93518160D01*
X137083548Y-93359412D01*
X136987457Y-93359412D01*
X137005051Y-93341818D01*
X137306546Y-93341818D01*
X137427725Y-93319017D01*
X137539020Y-93247400D01*
X137613684Y-93138126D01*
X137639952Y-93008412D01*
X137639952Y-91708412D01*
X137617151Y-91587233D01*
X137545534Y-91475938D01*
X137443789Y-91406419D01*
X137501546Y-91348662D01*
X137501546Y-90199412D01*
X137481546Y-90199412D01*
X137481546Y-89945412D01*
X137501546Y-89945412D01*
X137501546Y-88796162D01*
X137755546Y-88796162D01*
X137755546Y-89945412D01*
X138604796Y-89945412D01*
X138763546Y-89786662D01*
X138763546Y-89146102D01*
X138666873Y-88912713D01*
X138488244Y-88734085D01*
X138254855Y-88637412D01*
X137914296Y-88637412D01*
X137755546Y-88796162D01*
X137501546Y-88796162D01*
X137342796Y-88637412D01*
X137002237Y-88637412D01*
X136768848Y-88734085D01*
X136590219Y-88912713D01*
X136493546Y-89146102D01*
X136493546Y-89734802D01*
X136421855Y-89561297D01*
X136245631Y-89384765D01*
X136015265Y-89289109D01*
X135765829Y-89288891D01*
X135535297Y-89384145D01*
X135461952Y-89457362D01*
X135461952Y-89272412D01*
X135439151Y-89151233D01*
X135367534Y-89039938D01*
X135258260Y-88965274D01*
X135128546Y-88939006D01*
X134128546Y-88939006D01*
X134007367Y-88961807D01*
X133896072Y-89033424D01*
X133821408Y-89142698D01*
X133795140Y-89272412D01*
X133795140Y-90872412D01*
X133817941Y-90993591D01*
X133889558Y-91104886D01*
X133998832Y-91179550D01*
X134128546Y-91205818D01*
X134151546Y-91205818D01*
X134151546Y-91418006D01*
X132346546Y-91418006D01*
X132225367Y-91440807D01*
X132114072Y-91512424D01*
X132039408Y-91621698D01*
X132013140Y-91751412D01*
X132013140Y-93051412D01*
X132035941Y-93172591D01*
X132107558Y-93283886D01*
X132216832Y-93358550D01*
X132346546Y-93384818D01*
X135644076Y-93384818D01*
X135643891Y-93596171D01*
X135652913Y-93618006D01*
X132346546Y-93618006D01*
X132225367Y-93640807D01*
X132114072Y-93712424D01*
X132039408Y-93821698D01*
X132013140Y-93951412D01*
X132013140Y-95251412D01*
X132035941Y-95372591D01*
X132107558Y-95483886D01*
X132216832Y-95558550D01*
X132346546Y-95584818D01*
X134232546Y-95584818D01*
X134232546Y-95898738D01*
X134172272Y-95937524D01*
X134097608Y-96046798D01*
X134071340Y-96176512D01*
X134071340Y-97065512D01*
X134094141Y-97186691D01*
X134165758Y-97297986D01*
X134275032Y-97372650D01*
X134404746Y-97398918D01*
X134808028Y-97398918D01*
X134818919Y-97425211D01*
X134997548Y-97603839D01*
X135230937Y-97700512D01*
X135376296Y-97700512D01*
X135535046Y-97541762D01*
X135535046Y-96748012D01*
X135515046Y-96748012D01*
X135515046Y-96494012D01*
X135535046Y-96494012D01*
X135535046Y-96474012D01*
X135789046Y-96474012D01*
X135789046Y-96494012D01*
X135809046Y-96494012D01*
X135809046Y-96748012D01*
X135789046Y-96748012D01*
X135789046Y-97541762D01*
X135947796Y-97700512D01*
X136093155Y-97700512D01*
X136105294Y-97695484D01*
X135278160Y-98522618D01*
X135253334Y-98484038D01*
X135144060Y-98409374D01*
X135014346Y-98383106D01*
X134404746Y-98383106D01*
X134283567Y-98405907D01*
X134172272Y-98477524D01*
X134097608Y-98586798D01*
X134071340Y-98716512D01*
X134071340Y-98756395D01*
X134052750Y-98737772D01*
X133748902Y-98611604D01*
X133419901Y-98611317D01*
X133115834Y-98736955D01*
X132882992Y-98969390D01*
X132756824Y-99273238D01*
X132756537Y-99602239D01*
X132882175Y-99906306D01*
X133114610Y-100139148D01*
X133418458Y-100265316D01*
X133674938Y-100265540D01*
X133456378Y-100484100D01*
X130073362Y-100484100D01*
X130029254Y-100453962D01*
X129899540Y-100427694D01*
X128622103Y-100427694D01*
X128638891Y-100387265D01*
X128639085Y-100165613D01*
X128796698Y-100100327D01*
X128975327Y-99921699D01*
X129072000Y-99688310D01*
X129072000Y-99347750D01*
X128913250Y-99189000D01*
X128064000Y-99189000D01*
X128064000Y-99209000D01*
X127810000Y-99209000D01*
X127810000Y-99189000D01*
X127790000Y-99189000D01*
X127790000Y-98935000D01*
X127810000Y-98935000D01*
X127810000Y-98085750D01*
X128064000Y-98085750D01*
X128064000Y-98935000D01*
X128913250Y-98935000D01*
X129072000Y-98776250D01*
X129072000Y-98435690D01*
X128975327Y-98202301D01*
X128796698Y-98023673D01*
X128563309Y-97927000D01*
X128222750Y-97927000D01*
X128064000Y-98085750D01*
X127810000Y-98085750D01*
X127651250Y-97927000D01*
X127310691Y-97927000D01*
X127077302Y-98023673D01*
X126898673Y-98202301D01*
X126802000Y-98435690D01*
X126802000Y-98532541D01*
X126688678Y-98436998D01*
X126264000Y-98302000D01*
X125989000Y-98302000D01*
X125989000Y-99310000D01*
X126009000Y-99310000D01*
X126009000Y-99564000D01*
X125989000Y-99564000D01*
X125989000Y-101060000D01*
X127288250Y-101060000D01*
X127447000Y-100901250D01*
X127447000Y-100536486D01*
X127480145Y-100616703D01*
X127493377Y-100629958D01*
X127492402Y-100631386D01*
X127466134Y-100761100D01*
X127466134Y-101161100D01*
X127488935Y-101282279D01*
X127491435Y-101286163D01*
X127466134Y-101411100D01*
X127466134Y-101811100D01*
X127488935Y-101932279D01*
X127491435Y-101936163D01*
X127466134Y-102061100D01*
X127466134Y-102161882D01*
X127447000Y-102169808D01*
X127447000Y-101472750D01*
X127288250Y-101314000D01*
X125989000Y-101314000D01*
X125989000Y-103210000D01*
X126009000Y-103210000D01*
X126009000Y-103464000D01*
X125989000Y-103464000D01*
X125989000Y-104935000D01*
X126009000Y-104935000D01*
X126009000Y-105189000D01*
X125989000Y-105189000D01*
X125989000Y-106197000D01*
X126264000Y-106197000D01*
X126688678Y-106062002D01*
X126802000Y-105966459D01*
X126802000Y-106088310D01*
X126898673Y-106321699D01*
X127077302Y-106500327D01*
X127310691Y-106597000D01*
X127651250Y-106597000D01*
X127810000Y-106438250D01*
X127810000Y-105589000D01*
X128064000Y-105589000D01*
X128064000Y-106438250D01*
X128222750Y-106597000D01*
X128563309Y-106597000D01*
X128796698Y-106500327D01*
X128975327Y-106321699D01*
X129072000Y-106088310D01*
X129072000Y-105747750D01*
X128913250Y-105589000D01*
X128064000Y-105589000D01*
X127810000Y-105589000D01*
X127790000Y-105589000D01*
X127790000Y-105335000D01*
X127810000Y-105335000D01*
X127810000Y-105315000D01*
X128064000Y-105315000D01*
X128064000Y-105335000D01*
X128913250Y-105335000D01*
X129072000Y-105176250D01*
X129072000Y-104835690D01*
X128975327Y-104602301D01*
X128796698Y-104423673D01*
X128638916Y-104358318D01*
X128638949Y-104320941D01*
X128722540Y-104237350D01*
X128722540Y-103661100D01*
X128702540Y-103661100D01*
X128702540Y-103607350D01*
X128722540Y-103587350D01*
X128722540Y-103414100D01*
X128976540Y-103414100D01*
X128976540Y-103587350D01*
X129050290Y-103661100D01*
X128976540Y-103661100D01*
X128976540Y-104237350D01*
X129135290Y-104396100D01*
X130025849Y-104396100D01*
X130259238Y-104299427D01*
X130437867Y-104120799D01*
X130534540Y-103887410D01*
X130534540Y-103819850D01*
X130375790Y-103661100D01*
X130231057Y-103661100D01*
X130259238Y-103649427D01*
X130437867Y-103470799D01*
X130488620Y-103348270D01*
X130534540Y-103302350D01*
X130534540Y-103169850D01*
X130488620Y-103123930D01*
X130437867Y-103001401D01*
X130259238Y-102822773D01*
X130231057Y-102811100D01*
X130375790Y-102811100D01*
X130534540Y-102652350D01*
X130534540Y-102584790D01*
X130437867Y-102351401D01*
X130259238Y-102172773D01*
X130232946Y-102161882D01*
X130232946Y-102061100D01*
X130210145Y-101939921D01*
X130207645Y-101936037D01*
X130232946Y-101811100D01*
X130232946Y-101438100D01*
X131222000Y-101438100D01*
X131222000Y-104727420D01*
X128619710Y-107329710D01*
X128516309Y-107484460D01*
X128486645Y-107633594D01*
X128057000Y-107633594D01*
X127935821Y-107656395D01*
X127825159Y-107727605D01*
X127775327Y-107607301D01*
X127596698Y-107428673D01*
X127363309Y-107332000D01*
X126622750Y-107332000D01*
X126464000Y-107490750D01*
X126464000Y-108455000D01*
X126484000Y-108455000D01*
X126484000Y-108709000D01*
X126464000Y-108709000D01*
X126464000Y-109673250D01*
X126622750Y-109832000D01*
X127363309Y-109832000D01*
X127596698Y-109735327D01*
X127775327Y-109556699D01*
X127825817Y-109434807D01*
X127927286Y-109504138D01*
X128057000Y-109530406D01*
X129857000Y-109530406D01*
X129978179Y-109507605D01*
X130089474Y-109435988D01*
X130164138Y-109326714D01*
X130190406Y-109197000D01*
X130190406Y-107967000D01*
X130167605Y-107845821D01*
X130095988Y-107734526D01*
X129986714Y-107659862D01*
X129857000Y-107633594D01*
X129664986Y-107633594D01*
X129695341Y-107603239D01*
X132756537Y-107603239D01*
X132882175Y-107907306D01*
X133114610Y-108140148D01*
X133418458Y-108266316D01*
X133747459Y-108266603D01*
X134051526Y-108140965D01*
X134284368Y-107908530D01*
X134410536Y-107604682D01*
X134410823Y-107275681D01*
X134285185Y-106971614D01*
X134052750Y-106738772D01*
X133748902Y-106612604D01*
X133419901Y-106612317D01*
X133115834Y-106737955D01*
X132882992Y-106970390D01*
X132756824Y-107274238D01*
X132756537Y-107603239D01*
X129695341Y-107603239D01*
X132036290Y-105262290D01*
X132139691Y-105107540D01*
X132176000Y-104925000D01*
X132176000Y-101438100D01*
X139256966Y-101438100D01*
X139256966Y-104935966D01*
X139293275Y-105118506D01*
X139396676Y-105273256D01*
X145059761Y-110936341D01*
X144947598Y-110936243D01*
X144551403Y-111099948D01*
X144248013Y-111402809D01*
X144083617Y-111798718D01*
X144083243Y-112227402D01*
X144246948Y-112623597D01*
X144549809Y-112926987D01*
X144641706Y-112965146D01*
X144315801Y-112982852D01*
X143960071Y-113130200D01*
X143898417Y-113365812D01*
X144653000Y-114120395D01*
X145407583Y-113365812D01*
X145345929Y-113130200D01*
X145236363Y-113091637D01*
X145374402Y-113091757D01*
X145770597Y-112928052D01*
X146073987Y-112625191D01*
X146238383Y-112229282D01*
X146238483Y-112115063D01*
X147398253Y-113274833D01*
X147397880Y-113274678D01*
X146989910Y-113274322D01*
X146612860Y-113430116D01*
X146324130Y-113718342D01*
X146167678Y-114095120D01*
X146167322Y-114503090D01*
X146323116Y-114880140D01*
X146611342Y-115168870D01*
X146988120Y-115325322D01*
X147396090Y-115325678D01*
X147550859Y-115261729D01*
X147589562Y-115300431D01*
X147589564Y-115300434D01*
X149419462Y-117130331D01*
X149419464Y-117130334D01*
X149519523Y-117197191D01*
X149557993Y-117222896D01*
X149721399Y-117255399D01*
X149838039Y-117255399D01*
X149683704Y-117486377D01*
X149593075Y-117942000D01*
X149683704Y-118397623D01*
X149941794Y-118783881D01*
X150328052Y-119041971D01*
X150783675Y-119132600D01*
X150830325Y-119132600D01*
X151285948Y-119041971D01*
X151672206Y-118783881D01*
X151930296Y-118397623D01*
X152020925Y-117942000D01*
X151930296Y-117486377D01*
X151775961Y-117255399D01*
X152378039Y-117255399D01*
X152223704Y-117486377D01*
X152133075Y-117942000D01*
X152223704Y-118397623D01*
X152481794Y-118783881D01*
X152868052Y-119041971D01*
X153323675Y-119132600D01*
X153370325Y-119132600D01*
X153825948Y-119041971D01*
X154212206Y-118783881D01*
X154470296Y-118397623D01*
X154560925Y-117942000D01*
X154470296Y-117486377D01*
X154315961Y-117255399D01*
X154918039Y-117255399D01*
X154763704Y-117486377D01*
X154673075Y-117942000D01*
X154763704Y-118397623D01*
X155021794Y-118783881D01*
X155408052Y-119041971D01*
X155863675Y-119132600D01*
X155910325Y-119132600D01*
X156365948Y-119041971D01*
X156752206Y-118783881D01*
X157010296Y-118397623D01*
X157100925Y-117942000D01*
X157010296Y-117486377D01*
X156855961Y-117255399D01*
X157458039Y-117255399D01*
X157303704Y-117486377D01*
X157213075Y-117942000D01*
X157303704Y-118397623D01*
X157561794Y-118783881D01*
X157948052Y-119041971D01*
X158403675Y-119132600D01*
X158450325Y-119132600D01*
X158905948Y-119041971D01*
X159292206Y-118783881D01*
X159550296Y-118397623D01*
X159640925Y-117942000D01*
X159550296Y-117486377D01*
X159395961Y-117255399D01*
X160793596Y-117255399D01*
X160793601Y-117255400D01*
X160957007Y-117222896D01*
X161095536Y-117130334D01*
X161869628Y-116356241D01*
X161863617Y-116370718D01*
X161863243Y-116799402D01*
X162026948Y-117195597D01*
X162329809Y-117498987D01*
X162725718Y-117663383D01*
X163154402Y-117663757D01*
X163550597Y-117500052D01*
X163853987Y-117197191D01*
X164018383Y-116801282D01*
X164018757Y-116372598D01*
X163855052Y-115976403D01*
X163552191Y-115673013D01*
X163156282Y-115508617D01*
X162727598Y-115508243D01*
X162710605Y-115515265D01*
X163032931Y-115192938D01*
X163032934Y-115192936D01*
X163125496Y-115054407D01*
X163137725Y-114992929D01*
X163158000Y-114891001D01*
X163157999Y-114890996D01*
X163157999Y-112210406D01*
X163981000Y-112210406D01*
X164102179Y-112187605D01*
X164213474Y-112115988D01*
X164288138Y-112006714D01*
X164314406Y-111877000D01*
X164314406Y-110627000D01*
X164291605Y-110505821D01*
X164219988Y-110394526D01*
X164110714Y-110319862D01*
X163981000Y-110293594D01*
X163908000Y-110293594D01*
X163908000Y-110226000D01*
X164163250Y-110226000D01*
X164322000Y-110067250D01*
X164322000Y-109093000D01*
X164302000Y-109093000D01*
X164302000Y-108839000D01*
X164322000Y-108839000D01*
X164322000Y-108819000D01*
X164576000Y-108819000D01*
X164576000Y-108839000D01*
X164596000Y-108839000D01*
X164596000Y-109093000D01*
X164576000Y-109093000D01*
X164576000Y-110067250D01*
X164609362Y-110100612D01*
X164442673Y-110267301D01*
X164346000Y-110500690D01*
X164346000Y-110966250D01*
X164504750Y-111125000D01*
X165354000Y-111125000D01*
X165354000Y-111105000D01*
X165608000Y-111105000D01*
X165608000Y-111125000D01*
X165628000Y-111125000D01*
X165628000Y-111379000D01*
X165608000Y-111379000D01*
X165608000Y-111399000D01*
X165354000Y-111399000D01*
X165354000Y-111379000D01*
X164504750Y-111379000D01*
X164346000Y-111537750D01*
X164346000Y-112003310D01*
X164442673Y-112236699D01*
X164621302Y-112415327D01*
X164800555Y-112489576D01*
X164710537Y-112579594D01*
X163981000Y-112579594D01*
X163859821Y-112602395D01*
X163748526Y-112674012D01*
X163673862Y-112783286D01*
X163647594Y-112913000D01*
X163647594Y-114163000D01*
X163670395Y-114284179D01*
X163742012Y-114395474D01*
X163851286Y-114470138D01*
X163981000Y-114496406D01*
X164981000Y-114496406D01*
X165102179Y-114473605D01*
X165213474Y-114401988D01*
X165288138Y-114292714D01*
X165314406Y-114163000D01*
X165314406Y-113823750D01*
X165346000Y-113823750D01*
X165346000Y-114289310D01*
X165442673Y-114522699D01*
X165621302Y-114701327D01*
X165854691Y-114798000D01*
X166195250Y-114798000D01*
X166354000Y-114639250D01*
X166354000Y-113665000D01*
X166608000Y-113665000D01*
X166608000Y-114639250D01*
X166766750Y-114798000D01*
X167107309Y-114798000D01*
X167340698Y-114701327D01*
X167519327Y-114522699D01*
X167616000Y-114289310D01*
X167616000Y-113823750D01*
X167457250Y-113665000D01*
X166608000Y-113665000D01*
X166354000Y-113665000D01*
X165504750Y-113665000D01*
X165346000Y-113823750D01*
X165314406Y-113823750D01*
X165314406Y-113183463D01*
X165346000Y-113151869D01*
X165346000Y-113252250D01*
X165504750Y-113411000D01*
X166354000Y-113411000D01*
X166354000Y-113391000D01*
X166608000Y-113391000D01*
X166608000Y-113411000D01*
X167457250Y-113411000D01*
X167616000Y-113252250D01*
X167616000Y-112786690D01*
X167519327Y-112553301D01*
X167340698Y-112374673D01*
X167107309Y-112278000D01*
X166766750Y-112278000D01*
X166608002Y-112436748D01*
X166608002Y-112303870D01*
X167179932Y-111731939D01*
X167179935Y-111731937D01*
X167272497Y-111593408D01*
X167305000Y-111430002D01*
X167305000Y-111022734D01*
X167272497Y-110859328D01*
X167179935Y-110720799D01*
X167179932Y-110720797D01*
X166637542Y-110178406D01*
X167013000Y-110178406D01*
X167134179Y-110155605D01*
X167245474Y-110083988D01*
X167320138Y-109974714D01*
X167346406Y-109845000D01*
X167346406Y-109505750D01*
X167378000Y-109505750D01*
X167378000Y-109971310D01*
X167474673Y-110204699D01*
X167653302Y-110383327D01*
X167886691Y-110480000D01*
X168227250Y-110480000D01*
X168386000Y-110321250D01*
X168386000Y-109347000D01*
X167536750Y-109347000D01*
X167378000Y-109505750D01*
X167346406Y-109505750D01*
X167346406Y-108595000D01*
X167323605Y-108473821D01*
X167251988Y-108362526D01*
X167226339Y-108345001D01*
X167429234Y-108345001D01*
X167378000Y-108468690D01*
X167378000Y-108934250D01*
X167536750Y-109093000D01*
X168386000Y-109093000D01*
X168386000Y-109073000D01*
X168640000Y-109073000D01*
X168640000Y-109093000D01*
X168660000Y-109093000D01*
X168660000Y-109347000D01*
X168640000Y-109347000D01*
X168640000Y-110321250D01*
X168798750Y-110480000D01*
X169139309Y-110480000D01*
X169270000Y-110425866D01*
X169270000Y-119340405D01*
X168906632Y-121167180D01*
X167894276Y-122682277D01*
X166379180Y-123694632D01*
X164979729Y-123973000D01*
X129152271Y-123973000D01*
X127752820Y-123694632D01*
X126237723Y-122682276D01*
X125225368Y-121167180D01*
X125027000Y-120169916D01*
X125027000Y-120067176D01*
X126840591Y-120067176D01*
X127198971Y-120934521D01*
X127861989Y-121598697D01*
X128728707Y-121958590D01*
X129667176Y-121959409D01*
X130534521Y-121601029D01*
X131198697Y-120938011D01*
X131238968Y-120841026D01*
X134112042Y-120841026D01*
X134284312Y-121256947D01*
X134678510Y-121688821D01*
X135207973Y-121936968D01*
X135440000Y-121816469D01*
X135440000Y-120609000D01*
X134233183Y-120609000D01*
X134112042Y-120841026D01*
X131238968Y-120841026D01*
X131537130Y-120122974D01*
X134112042Y-120122974D01*
X134233183Y-120355000D01*
X135440000Y-120355000D01*
X135440000Y-120335000D01*
X135694000Y-120335000D01*
X135694000Y-120355000D01*
X135714000Y-120355000D01*
X135714000Y-120609000D01*
X135694000Y-120609000D01*
X135694000Y-121816469D01*
X135926027Y-121936968D01*
X136455490Y-121688821D01*
X136849688Y-121256947D01*
X136983134Y-120934760D01*
X136983704Y-120937623D01*
X137241794Y-121323881D01*
X137628052Y-121581971D01*
X138083675Y-121672600D01*
X138130325Y-121672600D01*
X138585948Y-121581971D01*
X138972206Y-121323881D01*
X139230296Y-120937623D01*
X139320925Y-120482000D01*
X139433075Y-120482000D01*
X139523704Y-120937623D01*
X139781794Y-121323881D01*
X140168052Y-121581971D01*
X140623675Y-121672600D01*
X140670325Y-121672600D01*
X141125948Y-121581971D01*
X141512206Y-121323881D01*
X141770296Y-120937623D01*
X141860925Y-120482000D01*
X141973075Y-120482000D01*
X142063704Y-120937623D01*
X142321794Y-121323881D01*
X142708052Y-121581971D01*
X143163675Y-121672600D01*
X143210325Y-121672600D01*
X143665948Y-121581971D01*
X144052206Y-121323881D01*
X144310296Y-120937623D01*
X144400925Y-120482000D01*
X144513075Y-120482000D01*
X144603704Y-120937623D01*
X144861794Y-121323881D01*
X145248052Y-121581971D01*
X145703675Y-121672600D01*
X145750325Y-121672600D01*
X146205948Y-121581971D01*
X146592206Y-121323881D01*
X146850296Y-120937623D01*
X146940925Y-120482000D01*
X147053075Y-120482000D01*
X147143704Y-120937623D01*
X147401794Y-121323881D01*
X147788052Y-121581971D01*
X148243675Y-121672600D01*
X148290325Y-121672600D01*
X148745948Y-121581971D01*
X149132206Y-121323881D01*
X149390296Y-120937623D01*
X149480925Y-120482000D01*
X149593075Y-120482000D01*
X149683704Y-120937623D01*
X149941794Y-121323881D01*
X150328052Y-121581971D01*
X150783675Y-121672600D01*
X150830325Y-121672600D01*
X151285948Y-121581971D01*
X151672206Y-121323881D01*
X151930296Y-120937623D01*
X152020925Y-120482000D01*
X152133075Y-120482000D01*
X152223704Y-120937623D01*
X152481794Y-121323881D01*
X152868052Y-121581971D01*
X153323675Y-121672600D01*
X153370325Y-121672600D01*
X153825948Y-121581971D01*
X154212206Y-121323881D01*
X154470296Y-120937623D01*
X154560925Y-120482000D01*
X154673075Y-120482000D01*
X154763704Y-120937623D01*
X155021794Y-121323881D01*
X155408052Y-121581971D01*
X155863675Y-121672600D01*
X155910325Y-121672600D01*
X156365948Y-121581971D01*
X156752206Y-121323881D01*
X157010296Y-120937623D01*
X157100925Y-120482000D01*
X157213075Y-120482000D01*
X157303704Y-120937623D01*
X157561794Y-121323881D01*
X157948052Y-121581971D01*
X158403675Y-121672600D01*
X158450325Y-121672600D01*
X158905948Y-121581971D01*
X159292206Y-121323881D01*
X159550296Y-120937623D01*
X159640925Y-120482000D01*
X159558412Y-120067176D01*
X162340591Y-120067176D01*
X162698971Y-120934521D01*
X163361989Y-121598697D01*
X164228707Y-121958590D01*
X165167176Y-121959409D01*
X166034521Y-121601029D01*
X166698697Y-120938011D01*
X167058590Y-120071293D01*
X167059409Y-119132824D01*
X166701029Y-118265479D01*
X166038011Y-117601303D01*
X165171293Y-117241410D01*
X164232824Y-117240591D01*
X163365479Y-117598971D01*
X162701303Y-118261989D01*
X162341410Y-119128707D01*
X162340591Y-120067176D01*
X159558412Y-120067176D01*
X159550296Y-120026377D01*
X159292206Y-119640119D01*
X158905948Y-119382029D01*
X158450325Y-119291400D01*
X158403675Y-119291400D01*
X157948052Y-119382029D01*
X157561794Y-119640119D01*
X157303704Y-120026377D01*
X157213075Y-120482000D01*
X157100925Y-120482000D01*
X157010296Y-120026377D01*
X156752206Y-119640119D01*
X156365948Y-119382029D01*
X155910325Y-119291400D01*
X155863675Y-119291400D01*
X155408052Y-119382029D01*
X155021794Y-119640119D01*
X154763704Y-120026377D01*
X154673075Y-120482000D01*
X154560925Y-120482000D01*
X154470296Y-120026377D01*
X154212206Y-119640119D01*
X153825948Y-119382029D01*
X153370325Y-119291400D01*
X153323675Y-119291400D01*
X152868052Y-119382029D01*
X152481794Y-119640119D01*
X152223704Y-120026377D01*
X152133075Y-120482000D01*
X152020925Y-120482000D01*
X151930296Y-120026377D01*
X151672206Y-119640119D01*
X151285948Y-119382029D01*
X150830325Y-119291400D01*
X150783675Y-119291400D01*
X150328052Y-119382029D01*
X149941794Y-119640119D01*
X149683704Y-120026377D01*
X149593075Y-120482000D01*
X149480925Y-120482000D01*
X149390296Y-120026377D01*
X149132206Y-119640119D01*
X148745948Y-119382029D01*
X148290325Y-119291400D01*
X148243675Y-119291400D01*
X147788052Y-119382029D01*
X147401794Y-119640119D01*
X147143704Y-120026377D01*
X147053075Y-120482000D01*
X146940925Y-120482000D01*
X146850296Y-120026377D01*
X146592206Y-119640119D01*
X146205948Y-119382029D01*
X145750325Y-119291400D01*
X145703675Y-119291400D01*
X145248052Y-119382029D01*
X144861794Y-119640119D01*
X144603704Y-120026377D01*
X144513075Y-120482000D01*
X144400925Y-120482000D01*
X144310296Y-120026377D01*
X144052206Y-119640119D01*
X143665948Y-119382029D01*
X143210325Y-119291400D01*
X143163675Y-119291400D01*
X142708052Y-119382029D01*
X142321794Y-119640119D01*
X142063704Y-120026377D01*
X141973075Y-120482000D01*
X141860925Y-120482000D01*
X141770296Y-120026377D01*
X141512206Y-119640119D01*
X141125948Y-119382029D01*
X140670325Y-119291400D01*
X140623675Y-119291400D01*
X140168052Y-119382029D01*
X139781794Y-119640119D01*
X139523704Y-120026377D01*
X139433075Y-120482000D01*
X139320925Y-120482000D01*
X139230296Y-120026377D01*
X138972206Y-119640119D01*
X138585948Y-119382029D01*
X138130325Y-119291400D01*
X138083675Y-119291400D01*
X137628052Y-119382029D01*
X137241794Y-119640119D01*
X136983704Y-120026377D01*
X136983134Y-120029240D01*
X136849688Y-119707053D01*
X136455490Y-119275179D01*
X136164942Y-119139006D01*
X136430600Y-119139006D01*
X136551779Y-119116205D01*
X136663074Y-119044588D01*
X136737738Y-118935314D01*
X136764006Y-118805600D01*
X136764006Y-117942000D01*
X136893075Y-117942000D01*
X136983704Y-118397623D01*
X137241794Y-118783881D01*
X137628052Y-119041971D01*
X138083675Y-119132600D01*
X138130325Y-119132600D01*
X138585948Y-119041971D01*
X138972206Y-118783881D01*
X139230296Y-118397623D01*
X139320925Y-117942000D01*
X139433075Y-117942000D01*
X139523704Y-118397623D01*
X139781794Y-118783881D01*
X140168052Y-119041971D01*
X140623675Y-119132600D01*
X140670325Y-119132600D01*
X141125948Y-119041971D01*
X141512206Y-118783881D01*
X141770296Y-118397623D01*
X141860925Y-117942000D01*
X141973075Y-117942000D01*
X142063704Y-118397623D01*
X142321794Y-118783881D01*
X142708052Y-119041971D01*
X143163675Y-119132600D01*
X143210325Y-119132600D01*
X143665948Y-119041971D01*
X144052206Y-118783881D01*
X144310296Y-118397623D01*
X144400925Y-117942000D01*
X144513075Y-117942000D01*
X144603704Y-118397623D01*
X144861794Y-118783881D01*
X145248052Y-119041971D01*
X145703675Y-119132600D01*
X145750325Y-119132600D01*
X146205948Y-119041971D01*
X146592206Y-118783881D01*
X146850296Y-118397623D01*
X146940925Y-117942000D01*
X147053075Y-117942000D01*
X147143704Y-118397623D01*
X147401794Y-118783881D01*
X147788052Y-119041971D01*
X148243675Y-119132600D01*
X148290325Y-119132600D01*
X148745948Y-119041971D01*
X149132206Y-118783881D01*
X149390296Y-118397623D01*
X149480925Y-117942000D01*
X149390296Y-117486377D01*
X149132206Y-117100119D01*
X148745948Y-116842029D01*
X148290325Y-116751400D01*
X148243675Y-116751400D01*
X147788052Y-116842029D01*
X147401794Y-117100119D01*
X147143704Y-117486377D01*
X147053075Y-117942000D01*
X146940925Y-117942000D01*
X146850296Y-117486377D01*
X146592206Y-117100119D01*
X146205948Y-116842029D01*
X145750325Y-116751400D01*
X145703675Y-116751400D01*
X145248052Y-116842029D01*
X144861794Y-117100119D01*
X144603704Y-117486377D01*
X144513075Y-117942000D01*
X144400925Y-117942000D01*
X144310296Y-117486377D01*
X144052206Y-117100119D01*
X143665948Y-116842029D01*
X143210325Y-116751400D01*
X143163675Y-116751400D01*
X142708052Y-116842029D01*
X142321794Y-117100119D01*
X142063704Y-117486377D01*
X141973075Y-117942000D01*
X141860925Y-117942000D01*
X141770296Y-117486377D01*
X141512206Y-117100119D01*
X141125948Y-116842029D01*
X140670325Y-116751400D01*
X140623675Y-116751400D01*
X140168052Y-116842029D01*
X139781794Y-117100119D01*
X139523704Y-117486377D01*
X139433075Y-117942000D01*
X139320925Y-117942000D01*
X139230296Y-117486377D01*
X138972206Y-117100119D01*
X138585948Y-116842029D01*
X138130325Y-116751400D01*
X138083675Y-116751400D01*
X137628052Y-116842029D01*
X137241794Y-117100119D01*
X136983704Y-117486377D01*
X136893075Y-117942000D01*
X136764006Y-117942000D01*
X136764006Y-117078400D01*
X136741205Y-116957221D01*
X136669588Y-116845926D01*
X136560314Y-116771262D01*
X136430600Y-116744994D01*
X134703400Y-116744994D01*
X134582221Y-116767795D01*
X134470926Y-116839412D01*
X134396262Y-116948686D01*
X134369994Y-117078400D01*
X134369994Y-118805600D01*
X134392795Y-118926779D01*
X134464412Y-119038074D01*
X134573686Y-119112738D01*
X134703400Y-119139006D01*
X134969058Y-119139006D01*
X134678510Y-119275179D01*
X134284312Y-119707053D01*
X134112042Y-120122974D01*
X131537130Y-120122974D01*
X131558590Y-120071293D01*
X131559409Y-119132824D01*
X131201029Y-118265479D01*
X130538011Y-117601303D01*
X129671293Y-117241410D01*
X128732824Y-117240591D01*
X127865479Y-117598971D01*
X127201303Y-118261989D01*
X126841410Y-119128707D01*
X126840591Y-120067176D01*
X125027000Y-120067176D01*
X125027000Y-115234188D01*
X143898417Y-115234188D01*
X143960071Y-115469800D01*
X144460480Y-115645927D01*
X144990199Y-115617148D01*
X145345929Y-115469800D01*
X145407583Y-115234188D01*
X144653000Y-114479605D01*
X143898417Y-115234188D01*
X125027000Y-115234188D01*
X125027000Y-114727275D01*
X133511331Y-114727275D01*
X133573169Y-114963042D01*
X134074122Y-115139419D01*
X134604440Y-115110664D01*
X134960831Y-114963042D01*
X135022669Y-114727275D01*
X134267000Y-113971605D01*
X133511331Y-114727275D01*
X125027000Y-114727275D01*
X125027000Y-113599122D01*
X132919581Y-113599122D01*
X132948336Y-114129440D01*
X133095958Y-114485831D01*
X133331725Y-114547669D01*
X134087395Y-113792000D01*
X134446605Y-113792000D01*
X135202275Y-114547669D01*
X135438042Y-114485831D01*
X135610718Y-113995387D01*
X136739822Y-113995387D01*
X136895844Y-114372989D01*
X137184492Y-114662140D01*
X137561821Y-114818821D01*
X137970387Y-114819178D01*
X138347989Y-114663156D01*
X138637140Y-114374508D01*
X138748019Y-114107480D01*
X143307073Y-114107480D01*
X143335852Y-114637199D01*
X143483200Y-114992929D01*
X143718812Y-115054583D01*
X144473395Y-114300000D01*
X144832605Y-114300000D01*
X145587188Y-115054583D01*
X145822800Y-114992929D01*
X145998927Y-114492520D01*
X145970148Y-113962801D01*
X145822800Y-113607071D01*
X145587188Y-113545417D01*
X144832605Y-114300000D01*
X144473395Y-114300000D01*
X143718812Y-113545417D01*
X143483200Y-113607071D01*
X143307073Y-114107480D01*
X138748019Y-114107480D01*
X138793821Y-113997179D01*
X138794178Y-113588613D01*
X138638156Y-113211011D01*
X138349508Y-112921860D01*
X137972179Y-112765179D01*
X137563613Y-112764822D01*
X137186011Y-112920844D01*
X136896860Y-113209492D01*
X136740179Y-113586821D01*
X136739822Y-113995387D01*
X135610718Y-113995387D01*
X135614419Y-113984878D01*
X135585664Y-113454560D01*
X135438042Y-113098169D01*
X135202275Y-113036331D01*
X134446605Y-113792000D01*
X134087395Y-113792000D01*
X133331725Y-113036331D01*
X133095958Y-113098169D01*
X132919581Y-113599122D01*
X125027000Y-113599122D01*
X125027000Y-112856725D01*
X133511331Y-112856725D01*
X134267000Y-113612395D01*
X135022669Y-112856725D01*
X134960831Y-112620958D01*
X134459878Y-112444581D01*
X133929560Y-112473336D01*
X133573169Y-112620958D01*
X133511331Y-112856725D01*
X125027000Y-112856725D01*
X125027000Y-109685025D01*
X125077302Y-109735327D01*
X125310691Y-109832000D01*
X126051250Y-109832000D01*
X126210000Y-109673250D01*
X126210000Y-108709000D01*
X126190000Y-108709000D01*
X126190000Y-108455000D01*
X126210000Y-108455000D01*
X126210000Y-107490750D01*
X126051250Y-107332000D01*
X125310691Y-107332000D01*
X125077302Y-107428673D01*
X125027000Y-107478975D01*
X125027000Y-106054986D01*
X125035322Y-106062002D01*
X125460000Y-106197000D01*
X125735000Y-106197000D01*
X125735000Y-105189000D01*
X125715000Y-105189000D01*
X125715000Y-104935000D01*
X125735000Y-104935000D01*
X125735000Y-103464000D01*
X125715000Y-103464000D01*
X125715000Y-103210000D01*
X125735000Y-103210000D01*
X125735000Y-101314000D01*
X125715000Y-101314000D01*
X125715000Y-101060000D01*
X125735000Y-101060000D01*
X125735000Y-99564000D01*
X125715000Y-99564000D01*
X125715000Y-99310000D01*
X125735000Y-99310000D01*
X125735000Y-98302000D01*
X125460000Y-98302000D01*
X125035322Y-98436998D01*
X125027000Y-98444014D01*
X125027000Y-84467176D01*
X126940591Y-84467176D01*
X127298971Y-85334521D01*
X127961989Y-85998697D01*
X128828707Y-86358590D01*
X129767176Y-86359409D01*
X130634521Y-86001029D01*
X131298697Y-85338011D01*
X131658590Y-84471293D01*
X131659409Y-83532824D01*
X131301029Y-82665479D01*
X130638011Y-82001303D01*
X129771293Y-81641410D01*
X128832824Y-81640591D01*
X127965479Y-81998971D01*
X127301303Y-82661989D01*
X126941410Y-83528707D01*
X126940591Y-84467176D01*
X125027000Y-84467176D01*
X125027000Y-83538084D01*
X125225368Y-82540820D01*
X126237723Y-81025724D01*
X126950068Y-80549750D01*
X142518000Y-80549750D01*
X142518000Y-81015310D01*
X142614673Y-81248699D01*
X142793302Y-81427327D01*
X143026691Y-81524000D01*
X143367250Y-81524000D01*
X143526000Y-81365250D01*
X143526000Y-80391000D01*
X143780000Y-80391000D01*
X143780000Y-81365250D01*
X143938750Y-81524000D01*
X144279309Y-81524000D01*
X144512698Y-81427327D01*
X144691327Y-81248699D01*
X144788000Y-81015310D01*
X144788000Y-80549750D01*
X144629250Y-80391000D01*
X143780000Y-80391000D01*
X143526000Y-80391000D01*
X142676750Y-80391000D01*
X142518000Y-80549750D01*
X126950068Y-80549750D01*
X127752820Y-80013368D01*
X129579595Y-79650000D01*
X142518000Y-79650000D01*
X142518000Y-79978250D01*
G36*
X156394594Y-112530000D02*
X156417395Y-112651179D01*
X156489012Y-112762474D01*
X156598286Y-112837138D01*
X156728000Y-112863406D01*
X157978000Y-112863406D01*
X158099179Y-112840605D01*
X158210474Y-112768988D01*
X158285138Y-112659714D01*
X158311406Y-112530000D01*
X158311406Y-112457000D01*
X158426594Y-112457000D01*
X158426594Y-112530000D01*
X158449395Y-112651179D01*
X158521012Y-112762474D01*
X158630286Y-112837138D01*
X158760000Y-112863406D01*
X160010000Y-112863406D01*
X160131179Y-112840605D01*
X160242474Y-112768988D01*
X160317138Y-112659714D01*
X160343406Y-112530000D01*
X160343406Y-112457000D01*
X160458594Y-112457000D01*
X160458594Y-112530000D01*
X160481395Y-112651179D01*
X160553012Y-112762474D01*
X160662286Y-112837138D01*
X160792000Y-112863406D01*
X162042000Y-112863406D01*
X162163179Y-112840605D01*
X162274474Y-112768988D01*
X162303999Y-112725777D01*
X162303999Y-112951204D01*
X162168310Y-112895000D01*
X161702750Y-112895000D01*
X161544000Y-113053750D01*
X161544000Y-113903000D01*
X161564000Y-113903000D01*
X161564000Y-114157000D01*
X161544000Y-114157000D01*
X161544000Y-115006250D01*
X161702750Y-115165000D01*
X161853131Y-115165000D01*
X160616731Y-116401399D01*
X158553394Y-116401399D01*
X158773987Y-116181191D01*
X158938383Y-115785282D01*
X158938757Y-115356598D01*
X158859590Y-115165000D01*
X159099250Y-115165000D01*
X159258000Y-115006250D01*
X159258000Y-114157000D01*
X159512000Y-114157000D01*
X159512000Y-115006250D01*
X159670750Y-115165000D01*
X160136310Y-115165000D01*
X160369699Y-115068327D01*
X160401000Y-115037026D01*
X160432301Y-115068327D01*
X160665690Y-115165000D01*
X161131250Y-115165000D01*
X161290000Y-115006250D01*
X161290000Y-114157000D01*
X159512000Y-114157000D01*
X159258000Y-114157000D01*
X157480000Y-114157000D01*
X157480000Y-114177000D01*
X157226000Y-114177000D01*
X157226000Y-114157000D01*
X157206000Y-114157000D01*
X157206000Y-113903000D01*
X157226000Y-113903000D01*
X157226000Y-113053750D01*
X157480000Y-113053750D01*
X157480000Y-113903000D01*
X159258000Y-113903000D01*
X159258000Y-113053750D01*
X159512000Y-113053750D01*
X159512000Y-113903000D01*
X161290000Y-113903000D01*
X161290000Y-113053750D01*
X161131250Y-112895000D01*
X160665690Y-112895000D01*
X160432301Y-112991673D01*
X160401000Y-113022974D01*
X160369699Y-112991673D01*
X160136310Y-112895000D01*
X159670750Y-112895000D01*
X159512000Y-113053750D01*
X159258000Y-113053750D01*
X159099250Y-112895000D01*
X158633690Y-112895000D01*
X158400301Y-112991673D01*
X158369000Y-113022974D01*
X158337699Y-112991673D01*
X158104310Y-112895000D01*
X157638750Y-112895000D01*
X157480000Y-113053750D01*
X157226000Y-113053750D01*
X157067250Y-112895000D01*
X156601690Y-112895000D01*
X156368301Y-112991673D01*
X156304338Y-113055637D01*
X156281605Y-112934821D01*
X156209988Y-112823526D01*
X156100714Y-112748862D01*
X155971000Y-112722594D01*
X155535612Y-112722594D01*
X155566891Y-112647265D01*
X155567109Y-112397829D01*
X155480990Y-112189406D01*
X155971000Y-112189406D01*
X156092179Y-112166605D01*
X156203474Y-112094988D01*
X156278138Y-111985714D01*
X156288813Y-111933000D01*
X156304019Y-111933000D01*
X156304024Y-111933001D01*
X156394594Y-111914985D01*
X156394594Y-112530000D01*
X156394594Y-112530000D01*
G37*
X156394594Y-112530000D02*
X156417395Y-112651179D01*
X156489012Y-112762474D01*
X156598286Y-112837138D01*
X156728000Y-112863406D01*
X157978000Y-112863406D01*
X158099179Y-112840605D01*
X158210474Y-112768988D01*
X158285138Y-112659714D01*
X158311406Y-112530000D01*
X158311406Y-112457000D01*
X158426594Y-112457000D01*
X158426594Y-112530000D01*
X158449395Y-112651179D01*
X158521012Y-112762474D01*
X158630286Y-112837138D01*
X158760000Y-112863406D01*
X160010000Y-112863406D01*
X160131179Y-112840605D01*
X160242474Y-112768988D01*
X160317138Y-112659714D01*
X160343406Y-112530000D01*
X160343406Y-112457000D01*
X160458594Y-112457000D01*
X160458594Y-112530000D01*
X160481395Y-112651179D01*
X160553012Y-112762474D01*
X160662286Y-112837138D01*
X160792000Y-112863406D01*
X162042000Y-112863406D01*
X162163179Y-112840605D01*
X162274474Y-112768988D01*
X162303999Y-112725777D01*
X162303999Y-112951204D01*
X162168310Y-112895000D01*
X161702750Y-112895000D01*
X161544000Y-113053750D01*
X161544000Y-113903000D01*
X161564000Y-113903000D01*
X161564000Y-114157000D01*
X161544000Y-114157000D01*
X161544000Y-115006250D01*
X161702750Y-115165000D01*
X161853131Y-115165000D01*
X160616731Y-116401399D01*
X158553394Y-116401399D01*
X158773987Y-116181191D01*
X158938383Y-115785282D01*
X158938757Y-115356598D01*
X158859590Y-115165000D01*
X159099250Y-115165000D01*
X159258000Y-115006250D01*
X159258000Y-114157000D01*
X159512000Y-114157000D01*
X159512000Y-115006250D01*
X159670750Y-115165000D01*
X160136310Y-115165000D01*
X160369699Y-115068327D01*
X160401000Y-115037026D01*
X160432301Y-115068327D01*
X160665690Y-115165000D01*
X161131250Y-115165000D01*
X161290000Y-115006250D01*
X161290000Y-114157000D01*
X159512000Y-114157000D01*
X159258000Y-114157000D01*
X157480000Y-114157000D01*
X157480000Y-114177000D01*
X157226000Y-114177000D01*
X157226000Y-114157000D01*
X157206000Y-114157000D01*
X157206000Y-113903000D01*
X157226000Y-113903000D01*
X157226000Y-113053750D01*
X157480000Y-113053750D01*
X157480000Y-113903000D01*
X159258000Y-113903000D01*
X159258000Y-113053750D01*
X159512000Y-113053750D01*
X159512000Y-113903000D01*
X161290000Y-113903000D01*
X161290000Y-113053750D01*
X161131250Y-112895000D01*
X160665690Y-112895000D01*
X160432301Y-112991673D01*
X160401000Y-113022974D01*
X160369699Y-112991673D01*
X160136310Y-112895000D01*
X159670750Y-112895000D01*
X159512000Y-113053750D01*
X159258000Y-113053750D01*
X159099250Y-112895000D01*
X158633690Y-112895000D01*
X158400301Y-112991673D01*
X158369000Y-113022974D01*
X158337699Y-112991673D01*
X158104310Y-112895000D01*
X157638750Y-112895000D01*
X157480000Y-113053750D01*
X157226000Y-113053750D01*
X157067250Y-112895000D01*
X156601690Y-112895000D01*
X156368301Y-112991673D01*
X156304338Y-113055637D01*
X156281605Y-112934821D01*
X156209988Y-112823526D01*
X156100714Y-112748862D01*
X155971000Y-112722594D01*
X155535612Y-112722594D01*
X155566891Y-112647265D01*
X155567109Y-112397829D01*
X155480990Y-112189406D01*
X155971000Y-112189406D01*
X156092179Y-112166605D01*
X156203474Y-112094988D01*
X156278138Y-111985714D01*
X156288813Y-111933000D01*
X156304019Y-111933000D01*
X156304024Y-111933001D01*
X156394594Y-111914985D01*
X156394594Y-112530000D01*
G36*
X153416000Y-113125000D02*
X153436000Y-113125000D01*
X153436000Y-113379000D01*
X153416000Y-113379000D01*
X153416000Y-114228250D01*
X153432000Y-114244250D01*
X153432000Y-114935000D01*
X153452000Y-114935000D01*
X153452000Y-115189000D01*
X153432000Y-115189000D01*
X153432000Y-115209000D01*
X153178000Y-115209000D01*
X153178000Y-115189000D01*
X152328750Y-115189000D01*
X152170000Y-115347750D01*
X152170000Y-115813310D01*
X152213600Y-115918569D01*
X152025037Y-115918569D01*
X152080383Y-115785282D01*
X152080757Y-115356598D01*
X151917052Y-114960403D01*
X151614191Y-114657013D01*
X151218282Y-114492617D01*
X150789598Y-114492243D01*
X150393403Y-114655948D01*
X150090013Y-114958809D01*
X149925617Y-115354718D01*
X149925243Y-115783402D01*
X150088948Y-116179597D01*
X150310363Y-116401399D01*
X149898268Y-116401399D01*
X148193434Y-114696564D01*
X148193431Y-114696562D01*
X148154779Y-114657910D01*
X148218322Y-114504880D01*
X148218678Y-114096910D01*
X148062884Y-113719860D01*
X147774658Y-113431130D01*
X147738223Y-113416001D01*
X152150749Y-113416001D01*
X152029000Y-113537750D01*
X152029000Y-113878309D01*
X152125673Y-114111698D01*
X152215300Y-114201326D01*
X152170000Y-114310690D01*
X152170000Y-114776250D01*
X152328750Y-114935000D01*
X153178000Y-114935000D01*
X153178000Y-113960750D01*
X153162000Y-113944750D01*
X153162000Y-113379000D01*
X153142000Y-113379000D01*
X153142000Y-113125000D01*
X153162000Y-113125000D01*
X153162000Y-113105000D01*
X153416000Y-113105000D01*
X153416000Y-113125000D01*
X153416000Y-113125000D01*
G37*
X153416000Y-113125000D02*
X153436000Y-113125000D01*
X153436000Y-113379000D01*
X153416000Y-113379000D01*
X153416000Y-114228250D01*
X153432000Y-114244250D01*
X153432000Y-114935000D01*
X153452000Y-114935000D01*
X153452000Y-115189000D01*
X153432000Y-115189000D01*
X153432000Y-115209000D01*
X153178000Y-115209000D01*
X153178000Y-115189000D01*
X152328750Y-115189000D01*
X152170000Y-115347750D01*
X152170000Y-115813310D01*
X152213600Y-115918569D01*
X152025037Y-115918569D01*
X152080383Y-115785282D01*
X152080757Y-115356598D01*
X151917052Y-114960403D01*
X151614191Y-114657013D01*
X151218282Y-114492617D01*
X150789598Y-114492243D01*
X150393403Y-114655948D01*
X150090013Y-114958809D01*
X149925617Y-115354718D01*
X149925243Y-115783402D01*
X150088948Y-116179597D01*
X150310363Y-116401399D01*
X149898268Y-116401399D01*
X148193434Y-114696564D01*
X148193431Y-114696562D01*
X148154779Y-114657910D01*
X148218322Y-114504880D01*
X148218678Y-114096910D01*
X148062884Y-113719860D01*
X147774658Y-113431130D01*
X147738223Y-113416001D01*
X152150749Y-113416001D01*
X152029000Y-113537750D01*
X152029000Y-113878309D01*
X152125673Y-114111698D01*
X152215300Y-114201326D01*
X152170000Y-114310690D01*
X152170000Y-114776250D01*
X152328750Y-114935000D01*
X153178000Y-114935000D01*
X153178000Y-113960750D01*
X153162000Y-113944750D01*
X153162000Y-113379000D01*
X153142000Y-113379000D01*
X153142000Y-113125000D01*
X153162000Y-113125000D01*
X153162000Y-113105000D01*
X153416000Y-113105000D01*
X153416000Y-113125000D01*
G36*
X146335000Y-100640420D02*
X144354709Y-102620711D01*
X144251308Y-102775461D01*
X144214999Y-102958001D01*
X144215000Y-105112000D01*
X144251309Y-105294540D01*
X144354710Y-105449290D01*
X144658594Y-105753174D01*
X144658594Y-106412000D01*
X144681395Y-106533179D01*
X144753012Y-106644474D01*
X144862286Y-106719138D01*
X144992000Y-106745406D01*
X146242000Y-106745406D01*
X146363179Y-106722605D01*
X146474474Y-106650988D01*
X146549138Y-106541714D01*
X146575406Y-106412000D01*
X146575406Y-106319000D01*
X146888594Y-106319000D01*
X146888594Y-106342000D01*
X146911395Y-106463179D01*
X146983012Y-106574474D01*
X147092286Y-106649138D01*
X147222000Y-106675406D01*
X148472000Y-106675406D01*
X148507474Y-106668731D01*
X148189951Y-106986254D01*
X147916282Y-106872617D01*
X147487598Y-106872243D01*
X147091403Y-107035948D01*
X146788013Y-107338809D01*
X146623617Y-107734718D01*
X146623243Y-108163402D01*
X146786948Y-108559597D01*
X146907269Y-108680129D01*
X146583403Y-108813948D01*
X146280013Y-109116809D01*
X146115617Y-109512718D01*
X146115243Y-109941402D01*
X146278948Y-110337597D01*
X146581809Y-110640987D01*
X146977718Y-110805383D01*
X147406402Y-110805757D01*
X147802597Y-110642052D01*
X148105987Y-110339191D01*
X148270383Y-109943282D01*
X148270757Y-109514598D01*
X148207503Y-109361512D01*
X148271254Y-109348831D01*
X148401672Y-109261688D01*
X148519689Y-109143671D01*
X148494000Y-109205690D01*
X148494000Y-109696250D01*
X148652750Y-109855000D01*
X149352000Y-109855000D01*
X149352000Y-109835000D01*
X149606000Y-109835000D01*
X149606000Y-109855000D01*
X150305250Y-109855000D01*
X150464000Y-109696250D01*
X150464000Y-109427263D01*
X150608698Y-109367327D01*
X150708689Y-109267337D01*
X150695594Y-109332000D01*
X150695594Y-110632000D01*
X150718395Y-110753179D01*
X150790012Y-110864474D01*
X150899286Y-110939138D01*
X151029000Y-110965406D01*
X151729000Y-110965406D01*
X151752000Y-110961078D01*
X151752000Y-111012131D01*
X151708537Y-111055594D01*
X150979000Y-111055594D01*
X150857821Y-111078395D01*
X150746526Y-111150012D01*
X150671862Y-111259286D01*
X150645594Y-111389000D01*
X150645594Y-112462001D01*
X150614000Y-112462001D01*
X150614000Y-112299750D01*
X150455250Y-112141000D01*
X149606000Y-112141000D01*
X149606000Y-112161000D01*
X149352000Y-112161000D01*
X149352000Y-112141000D01*
X148502750Y-112141000D01*
X148344000Y-112299750D01*
X148344000Y-112462001D01*
X147934581Y-112462001D01*
X146735270Y-111262690D01*
X148344000Y-111262690D01*
X148344000Y-111728250D01*
X148502750Y-111887000D01*
X149352000Y-111887000D01*
X149352000Y-110109000D01*
X149606000Y-110109000D01*
X149606000Y-111887000D01*
X150455250Y-111887000D01*
X150614000Y-111728250D01*
X150614000Y-111262690D01*
X150517327Y-111029301D01*
X150400247Y-110912222D01*
X150464000Y-110758310D01*
X150464000Y-110267750D01*
X150305250Y-110109000D01*
X149606000Y-110109000D01*
X149352000Y-110109000D01*
X148652750Y-110109000D01*
X148494000Y-110267750D01*
X148494000Y-110758310D01*
X148557753Y-110912222D01*
X148440673Y-111029301D01*
X148344000Y-111262690D01*
X146735270Y-111262690D01*
X140210966Y-104738386D01*
X140210966Y-101158680D01*
X141848837Y-99520809D01*
X141873663Y-99559389D01*
X141982937Y-99634053D01*
X142112651Y-99660321D01*
X142722251Y-99660321D01*
X142843430Y-99637520D01*
X142954725Y-99565903D01*
X143029389Y-99456629D01*
X143050201Y-99353855D01*
X143204791Y-99323106D01*
X143359541Y-99219705D01*
X143684245Y-98895001D01*
X143684245Y-99326915D01*
X143707046Y-99448094D01*
X143778663Y-99559389D01*
X143887937Y-99634053D01*
X144017651Y-99660321D01*
X144627251Y-99660321D01*
X144748430Y-99637520D01*
X144859725Y-99565903D01*
X144934389Y-99456629D01*
X144960657Y-99326915D01*
X144960657Y-98779089D01*
X146335000Y-97404746D01*
X146335000Y-100640420D01*
X146335000Y-100640420D01*
G37*
X146335000Y-100640420D02*
X144354709Y-102620711D01*
X144251308Y-102775461D01*
X144214999Y-102958001D01*
X144215000Y-105112000D01*
X144251309Y-105294540D01*
X144354710Y-105449290D01*
X144658594Y-105753174D01*
X144658594Y-106412000D01*
X144681395Y-106533179D01*
X144753012Y-106644474D01*
X144862286Y-106719138D01*
X144992000Y-106745406D01*
X146242000Y-106745406D01*
X146363179Y-106722605D01*
X146474474Y-106650988D01*
X146549138Y-106541714D01*
X146575406Y-106412000D01*
X146575406Y-106319000D01*
X146888594Y-106319000D01*
X146888594Y-106342000D01*
X146911395Y-106463179D01*
X146983012Y-106574474D01*
X147092286Y-106649138D01*
X147222000Y-106675406D01*
X148472000Y-106675406D01*
X148507474Y-106668731D01*
X148189951Y-106986254D01*
X147916282Y-106872617D01*
X147487598Y-106872243D01*
X147091403Y-107035948D01*
X146788013Y-107338809D01*
X146623617Y-107734718D01*
X146623243Y-108163402D01*
X146786948Y-108559597D01*
X146907269Y-108680129D01*
X146583403Y-108813948D01*
X146280013Y-109116809D01*
X146115617Y-109512718D01*
X146115243Y-109941402D01*
X146278948Y-110337597D01*
X146581809Y-110640987D01*
X146977718Y-110805383D01*
X147406402Y-110805757D01*
X147802597Y-110642052D01*
X148105987Y-110339191D01*
X148270383Y-109943282D01*
X148270757Y-109514598D01*
X148207503Y-109361512D01*
X148271254Y-109348831D01*
X148401672Y-109261688D01*
X148519689Y-109143671D01*
X148494000Y-109205690D01*
X148494000Y-109696250D01*
X148652750Y-109855000D01*
X149352000Y-109855000D01*
X149352000Y-109835000D01*
X149606000Y-109835000D01*
X149606000Y-109855000D01*
X150305250Y-109855000D01*
X150464000Y-109696250D01*
X150464000Y-109427263D01*
X150608698Y-109367327D01*
X150708689Y-109267337D01*
X150695594Y-109332000D01*
X150695594Y-110632000D01*
X150718395Y-110753179D01*
X150790012Y-110864474D01*
X150899286Y-110939138D01*
X151029000Y-110965406D01*
X151729000Y-110965406D01*
X151752000Y-110961078D01*
X151752000Y-111012131D01*
X151708537Y-111055594D01*
X150979000Y-111055594D01*
X150857821Y-111078395D01*
X150746526Y-111150012D01*
X150671862Y-111259286D01*
X150645594Y-111389000D01*
X150645594Y-112462001D01*
X150614000Y-112462001D01*
X150614000Y-112299750D01*
X150455250Y-112141000D01*
X149606000Y-112141000D01*
X149606000Y-112161000D01*
X149352000Y-112161000D01*
X149352000Y-112141000D01*
X148502750Y-112141000D01*
X148344000Y-112299750D01*
X148344000Y-112462001D01*
X147934581Y-112462001D01*
X146735270Y-111262690D01*
X148344000Y-111262690D01*
X148344000Y-111728250D01*
X148502750Y-111887000D01*
X149352000Y-111887000D01*
X149352000Y-110109000D01*
X149606000Y-110109000D01*
X149606000Y-111887000D01*
X150455250Y-111887000D01*
X150614000Y-111728250D01*
X150614000Y-111262690D01*
X150517327Y-111029301D01*
X150400247Y-110912222D01*
X150464000Y-110758310D01*
X150464000Y-110267750D01*
X150305250Y-110109000D01*
X149606000Y-110109000D01*
X149352000Y-110109000D01*
X148652750Y-110109000D01*
X148494000Y-110267750D01*
X148494000Y-110758310D01*
X148557753Y-110912222D01*
X148440673Y-111029301D01*
X148344000Y-111262690D01*
X146735270Y-111262690D01*
X140210966Y-104738386D01*
X140210966Y-101158680D01*
X141848837Y-99520809D01*
X141873663Y-99559389D01*
X141982937Y-99634053D01*
X142112651Y-99660321D01*
X142722251Y-99660321D01*
X142843430Y-99637520D01*
X142954725Y-99565903D01*
X143029389Y-99456629D01*
X143050201Y-99353855D01*
X143204791Y-99323106D01*
X143359541Y-99219705D01*
X143684245Y-98895001D01*
X143684245Y-99326915D01*
X143707046Y-99448094D01*
X143778663Y-99559389D01*
X143887937Y-99634053D01*
X144017651Y-99660321D01*
X144627251Y-99660321D01*
X144748430Y-99637520D01*
X144859725Y-99565903D01*
X144934389Y-99456629D01*
X144960657Y-99326915D01*
X144960657Y-98779089D01*
X146335000Y-97404746D01*
X146335000Y-100640420D01*
G36*
X150915594Y-107579000D02*
X150915594Y-108829000D01*
X150938395Y-108950179D01*
X150975970Y-109008572D01*
X150907821Y-109021395D01*
X150838022Y-109066310D01*
X150884000Y-108955310D01*
X150884000Y-108489750D01*
X150725250Y-108331000D01*
X149876000Y-108331000D01*
X149876000Y-108351000D01*
X149622000Y-108351000D01*
X149622000Y-108331000D01*
X149602000Y-108331000D01*
X149602000Y-108077000D01*
X149622000Y-108077000D01*
X149622000Y-108057000D01*
X149876000Y-108057000D01*
X149876000Y-108077000D01*
X150725250Y-108077000D01*
X150884000Y-107918250D01*
X150884000Y-107501999D01*
X150931187Y-107501999D01*
X150915594Y-107579000D01*
X150915594Y-107579000D01*
G37*
X150915594Y-107579000D02*
X150915594Y-108829000D01*
X150938395Y-108950179D01*
X150975970Y-109008572D01*
X150907821Y-109021395D01*
X150838022Y-109066310D01*
X150884000Y-108955310D01*
X150884000Y-108489750D01*
X150725250Y-108331000D01*
X149876000Y-108331000D01*
X149876000Y-108351000D01*
X149622000Y-108351000D01*
X149622000Y-108331000D01*
X149602000Y-108331000D01*
X149602000Y-108077000D01*
X149622000Y-108077000D01*
X149622000Y-108057000D01*
X149876000Y-108057000D01*
X149876000Y-108077000D01*
X150725250Y-108077000D01*
X150884000Y-107918250D01*
X150884000Y-107501999D01*
X150931187Y-107501999D01*
X150915594Y-107579000D01*
G36*
X152908520Y-108219195D02*
X152876016Y-108382601D01*
X152876017Y-108382606D01*
X152876017Y-108431114D01*
X152582406Y-108724725D01*
X152582406Y-108123000D01*
X152972795Y-108123000D01*
X152908520Y-108219195D01*
X152908520Y-108219195D01*
G37*
X152908520Y-108219195D02*
X152876016Y-108382601D01*
X152876017Y-108382606D01*
X152876017Y-108431114D01*
X152582406Y-108724725D01*
X152582406Y-108123000D01*
X152972795Y-108123000D01*
X152908520Y-108219195D01*
G36*
X157515272Y-106047387D02*
X157540170Y-106057700D01*
X157515272Y-106068013D01*
X157426660Y-106156625D01*
X157338048Y-106068013D01*
X157313150Y-106057700D01*
X157338048Y-106047387D01*
X157426660Y-105958775D01*
X157515272Y-106047387D01*
X157515272Y-106047387D01*
G37*
X157515272Y-106047387D02*
X157540170Y-106057700D01*
X157515272Y-106068013D01*
X157426660Y-106156625D01*
X157338048Y-106068013D01*
X157313150Y-106057700D01*
X157338048Y-106047387D01*
X157426660Y-105958775D01*
X157515272Y-106047387D01*
G36*
X155469710Y-94063290D02*
X155624460Y-94166691D01*
X155773594Y-94196355D01*
X155773594Y-94351000D01*
X155796395Y-94472179D01*
X155868012Y-94583474D01*
X155977286Y-94658138D01*
X156107000Y-94684406D01*
X156180000Y-94684406D01*
X156180000Y-94799594D01*
X156107000Y-94799594D01*
X155985821Y-94822395D01*
X155874526Y-94894012D01*
X155799862Y-95003286D01*
X155773594Y-95133000D01*
X155773594Y-96383000D01*
X155796395Y-96504179D01*
X155868012Y-96615474D01*
X155977286Y-96690138D01*
X155996000Y-96693928D01*
X155996000Y-96722594D01*
X155773000Y-96722594D01*
X155651821Y-96745395D01*
X155540526Y-96817012D01*
X155465862Y-96926286D01*
X155465601Y-96927576D01*
X155289699Y-96751673D01*
X155056310Y-96655000D01*
X154590750Y-96655000D01*
X154432000Y-96813750D01*
X154432000Y-97663000D01*
X154452000Y-97663000D01*
X154452000Y-97917000D01*
X154432000Y-97917000D01*
X154432000Y-98766250D01*
X154590750Y-98925000D01*
X155056310Y-98925000D01*
X155289699Y-98828327D01*
X155439594Y-98678431D01*
X155439594Y-100556000D01*
X155462395Y-100677179D01*
X155534012Y-100788474D01*
X155643286Y-100863138D01*
X155700422Y-100874708D01*
X155497000Y-101078130D01*
X155024495Y-100605626D01*
X155051179Y-100600605D01*
X155162474Y-100528988D01*
X155237138Y-100419714D01*
X155263406Y-100290000D01*
X155263406Y-99290000D01*
X155240605Y-99168821D01*
X155168988Y-99057526D01*
X155059714Y-98982862D01*
X154930000Y-98956594D01*
X153680000Y-98956594D01*
X153558821Y-98979395D01*
X153447526Y-99051012D01*
X153372862Y-99160286D01*
X153346594Y-99290000D01*
X153346594Y-99803725D01*
X153256406Y-99713537D01*
X153256406Y-99284000D01*
X153233605Y-99162821D01*
X153161988Y-99051526D01*
X153052714Y-98976862D01*
X152923000Y-98950594D01*
X151623000Y-98950594D01*
X151501821Y-98973395D01*
X151390526Y-99045012D01*
X151315862Y-99154286D01*
X151305187Y-99207000D01*
X151296406Y-99207000D01*
X151296406Y-98943000D01*
X151273605Y-98821821D01*
X151201988Y-98710526D01*
X151092714Y-98635862D01*
X150963000Y-98609594D01*
X149963000Y-98609594D01*
X149841821Y-98632395D01*
X149730526Y-98704012D01*
X149655862Y-98813286D01*
X149629594Y-98943000D01*
X149629594Y-100193000D01*
X149652395Y-100314179D01*
X149724012Y-100425474D01*
X149833286Y-100500138D01*
X149963000Y-100526406D01*
X150963000Y-100526406D01*
X151084179Y-100503605D01*
X151195474Y-100431988D01*
X151270138Y-100322714D01*
X151296406Y-100193000D01*
X151296406Y-100061000D01*
X151304082Y-100061000D01*
X151312395Y-100105179D01*
X151384012Y-100216474D01*
X151493286Y-100291138D01*
X151623000Y-100317406D01*
X152652537Y-100317406D01*
X152696000Y-100360869D01*
X152696000Y-100850594D01*
X151623000Y-100850594D01*
X151501821Y-100873395D01*
X151390526Y-100945012D01*
X151315862Y-101054286D01*
X151312406Y-101071352D01*
X151312406Y-101017000D01*
X151289605Y-100895821D01*
X151217988Y-100784526D01*
X151108714Y-100709862D01*
X150979000Y-100683594D01*
X149979000Y-100683594D01*
X149857821Y-100706395D01*
X149746526Y-100778012D01*
X149671862Y-100887286D01*
X149645594Y-101017000D01*
X149645594Y-102267000D01*
X149653797Y-102310594D01*
X149614000Y-102310594D01*
X149614000Y-101927750D01*
X149455250Y-101769000D01*
X148606000Y-101769000D01*
X148606000Y-101789000D01*
X148352000Y-101789000D01*
X148352000Y-101769000D01*
X147502750Y-101769000D01*
X147344000Y-101927750D01*
X147344000Y-102393310D01*
X147440673Y-102626699D01*
X147520974Y-102707000D01*
X147095690Y-102707000D01*
X146862301Y-102803673D01*
X146697000Y-102968975D01*
X146601699Y-102873673D01*
X146368310Y-102777000D01*
X145902750Y-102777000D01*
X145744000Y-102935750D01*
X145744000Y-103785000D01*
X146718250Y-103785000D01*
X146788250Y-103715000D01*
X147720000Y-103715000D01*
X147720000Y-103695000D01*
X147974000Y-103695000D01*
X147974000Y-103715000D01*
X147994000Y-103715000D01*
X147994000Y-103969000D01*
X147974000Y-103969000D01*
X147974000Y-104818250D01*
X148132750Y-104977000D01*
X148411594Y-104977000D01*
X148411594Y-105008594D01*
X147222000Y-105008594D01*
X147100821Y-105031395D01*
X146989526Y-105103012D01*
X146914862Y-105212286D01*
X146888594Y-105342000D01*
X146888594Y-105365000D01*
X146566562Y-105365000D01*
X146552605Y-105290821D01*
X146480988Y-105179526D01*
X146371714Y-105104862D01*
X146242000Y-105078594D01*
X145333174Y-105078594D01*
X145301580Y-105047000D01*
X145331250Y-105047000D01*
X145490000Y-104888250D01*
X145490000Y-104039000D01*
X145744000Y-104039000D01*
X145744000Y-104888250D01*
X145902750Y-105047000D01*
X146368310Y-105047000D01*
X146601699Y-104950327D01*
X146767000Y-104785025D01*
X146862301Y-104880327D01*
X147095690Y-104977000D01*
X147561250Y-104977000D01*
X147720000Y-104818250D01*
X147720000Y-103969000D01*
X146745750Y-103969000D01*
X146675750Y-104039000D01*
X145744000Y-104039000D01*
X145490000Y-104039000D01*
X145470000Y-104039000D01*
X145470000Y-103785000D01*
X145490000Y-103785000D01*
X145490000Y-102935750D01*
X145439415Y-102885165D01*
X147149290Y-101175290D01*
X147252691Y-101020540D01*
X147289000Y-100838000D01*
X147289000Y-99853750D01*
X147328000Y-99853750D01*
X147328000Y-100319310D01*
X147424673Y-100552699D01*
X147484974Y-100613000D01*
X147440673Y-100657301D01*
X147344000Y-100890690D01*
X147344000Y-101356250D01*
X147502750Y-101515000D01*
X148352000Y-101515000D01*
X148352000Y-100540750D01*
X148336000Y-100524750D01*
X148336000Y-99695000D01*
X148590000Y-99695000D01*
X148590000Y-100669250D01*
X148606000Y-100685250D01*
X148606000Y-101515000D01*
X149455250Y-101515000D01*
X149614000Y-101356250D01*
X149614000Y-100890690D01*
X149517327Y-100657301D01*
X149457026Y-100597000D01*
X149501327Y-100552699D01*
X149598000Y-100319310D01*
X149598000Y-99853750D01*
X149439250Y-99695000D01*
X148590000Y-99695000D01*
X148336000Y-99695000D01*
X147486750Y-99695000D01*
X147328000Y-99853750D01*
X147289000Y-99853750D01*
X147289000Y-98816690D01*
X147328000Y-98816690D01*
X147328000Y-99282250D01*
X147486750Y-99441000D01*
X148336000Y-99441000D01*
X148336000Y-98466750D01*
X148590000Y-98466750D01*
X148590000Y-99441000D01*
X149439250Y-99441000D01*
X149598000Y-99282250D01*
X149598000Y-98816690D01*
X149501327Y-98583301D01*
X149322698Y-98404673D01*
X149089309Y-98308000D01*
X148748750Y-98308000D01*
X148590000Y-98466750D01*
X148336000Y-98466750D01*
X148177250Y-98308000D01*
X147836691Y-98308000D01*
X147603302Y-98404673D01*
X147424673Y-98583301D01*
X147328000Y-98816690D01*
X147289000Y-98816690D01*
X147289000Y-98075750D01*
X153045000Y-98075750D01*
X153045000Y-98416309D01*
X153141673Y-98649698D01*
X153320301Y-98828327D01*
X153553690Y-98925000D01*
X154019250Y-98925000D01*
X154178000Y-98766250D01*
X154178000Y-97917000D01*
X153203750Y-97917000D01*
X153045000Y-98075750D01*
X147289000Y-98075750D01*
X147289000Y-97163691D01*
X153045000Y-97163691D01*
X153045000Y-97504250D01*
X153203750Y-97663000D01*
X154178000Y-97663000D01*
X154178000Y-96813750D01*
X154019250Y-96655000D01*
X153553690Y-96655000D01*
X153320301Y-96751673D01*
X153141673Y-96930302D01*
X153045000Y-97163691D01*
X147289000Y-97163691D01*
X147289000Y-96286148D01*
X148673290Y-94901858D01*
X148776691Y-94747109D01*
X148813000Y-94564568D01*
X148813000Y-89916000D01*
X148776691Y-89733460D01*
X148673290Y-89578710D01*
X146243569Y-87148989D01*
X148555409Y-87148989D01*
X155469710Y-94063290D01*
X155469710Y-94063290D01*
G37*
X155469710Y-94063290D02*
X155624460Y-94166691D01*
X155773594Y-94196355D01*
X155773594Y-94351000D01*
X155796395Y-94472179D01*
X155868012Y-94583474D01*
X155977286Y-94658138D01*
X156107000Y-94684406D01*
X156180000Y-94684406D01*
X156180000Y-94799594D01*
X156107000Y-94799594D01*
X155985821Y-94822395D01*
X155874526Y-94894012D01*
X155799862Y-95003286D01*
X155773594Y-95133000D01*
X155773594Y-96383000D01*
X155796395Y-96504179D01*
X155868012Y-96615474D01*
X155977286Y-96690138D01*
X155996000Y-96693928D01*
X155996000Y-96722594D01*
X155773000Y-96722594D01*
X155651821Y-96745395D01*
X155540526Y-96817012D01*
X155465862Y-96926286D01*
X155465601Y-96927576D01*
X155289699Y-96751673D01*
X155056310Y-96655000D01*
X154590750Y-96655000D01*
X154432000Y-96813750D01*
X154432000Y-97663000D01*
X154452000Y-97663000D01*
X154452000Y-97917000D01*
X154432000Y-97917000D01*
X154432000Y-98766250D01*
X154590750Y-98925000D01*
X155056310Y-98925000D01*
X155289699Y-98828327D01*
X155439594Y-98678431D01*
X155439594Y-100556000D01*
X155462395Y-100677179D01*
X155534012Y-100788474D01*
X155643286Y-100863138D01*
X155700422Y-100874708D01*
X155497000Y-101078130D01*
X155024495Y-100605626D01*
X155051179Y-100600605D01*
X155162474Y-100528988D01*
X155237138Y-100419714D01*
X155263406Y-100290000D01*
X155263406Y-99290000D01*
X155240605Y-99168821D01*
X155168988Y-99057526D01*
X155059714Y-98982862D01*
X154930000Y-98956594D01*
X153680000Y-98956594D01*
X153558821Y-98979395D01*
X153447526Y-99051012D01*
X153372862Y-99160286D01*
X153346594Y-99290000D01*
X153346594Y-99803725D01*
X153256406Y-99713537D01*
X153256406Y-99284000D01*
X153233605Y-99162821D01*
X153161988Y-99051526D01*
X153052714Y-98976862D01*
X152923000Y-98950594D01*
X151623000Y-98950594D01*
X151501821Y-98973395D01*
X151390526Y-99045012D01*
X151315862Y-99154286D01*
X151305187Y-99207000D01*
X151296406Y-99207000D01*
X151296406Y-98943000D01*
X151273605Y-98821821D01*
X151201988Y-98710526D01*
X151092714Y-98635862D01*
X150963000Y-98609594D01*
X149963000Y-98609594D01*
X149841821Y-98632395D01*
X149730526Y-98704012D01*
X149655862Y-98813286D01*
X149629594Y-98943000D01*
X149629594Y-100193000D01*
X149652395Y-100314179D01*
X149724012Y-100425474D01*
X149833286Y-100500138D01*
X149963000Y-100526406D01*
X150963000Y-100526406D01*
X151084179Y-100503605D01*
X151195474Y-100431988D01*
X151270138Y-100322714D01*
X151296406Y-100193000D01*
X151296406Y-100061000D01*
X151304082Y-100061000D01*
X151312395Y-100105179D01*
X151384012Y-100216474D01*
X151493286Y-100291138D01*
X151623000Y-100317406D01*
X152652537Y-100317406D01*
X152696000Y-100360869D01*
X152696000Y-100850594D01*
X151623000Y-100850594D01*
X151501821Y-100873395D01*
X151390526Y-100945012D01*
X151315862Y-101054286D01*
X151312406Y-101071352D01*
X151312406Y-101017000D01*
X151289605Y-100895821D01*
X151217988Y-100784526D01*
X151108714Y-100709862D01*
X150979000Y-100683594D01*
X149979000Y-100683594D01*
X149857821Y-100706395D01*
X149746526Y-100778012D01*
X149671862Y-100887286D01*
X149645594Y-101017000D01*
X149645594Y-102267000D01*
X149653797Y-102310594D01*
X149614000Y-102310594D01*
X149614000Y-101927750D01*
X149455250Y-101769000D01*
X148606000Y-101769000D01*
X148606000Y-101789000D01*
X148352000Y-101789000D01*
X148352000Y-101769000D01*
X147502750Y-101769000D01*
X147344000Y-101927750D01*
X147344000Y-102393310D01*
X147440673Y-102626699D01*
X147520974Y-102707000D01*
X147095690Y-102707000D01*
X146862301Y-102803673D01*
X146697000Y-102968975D01*
X146601699Y-102873673D01*
X146368310Y-102777000D01*
X145902750Y-102777000D01*
X145744000Y-102935750D01*
X145744000Y-103785000D01*
X146718250Y-103785000D01*
X146788250Y-103715000D01*
X147720000Y-103715000D01*
X147720000Y-103695000D01*
X147974000Y-103695000D01*
X147974000Y-103715000D01*
X147994000Y-103715000D01*
X147994000Y-103969000D01*
X147974000Y-103969000D01*
X147974000Y-104818250D01*
X148132750Y-104977000D01*
X148411594Y-104977000D01*
X148411594Y-105008594D01*
X147222000Y-105008594D01*
X147100821Y-105031395D01*
X146989526Y-105103012D01*
X146914862Y-105212286D01*
X146888594Y-105342000D01*
X146888594Y-105365000D01*
X146566562Y-105365000D01*
X146552605Y-105290821D01*
X146480988Y-105179526D01*
X146371714Y-105104862D01*
X146242000Y-105078594D01*
X145333174Y-105078594D01*
X145301580Y-105047000D01*
X145331250Y-105047000D01*
X145490000Y-104888250D01*
X145490000Y-104039000D01*
X145744000Y-104039000D01*
X145744000Y-104888250D01*
X145902750Y-105047000D01*
X146368310Y-105047000D01*
X146601699Y-104950327D01*
X146767000Y-104785025D01*
X146862301Y-104880327D01*
X147095690Y-104977000D01*
X147561250Y-104977000D01*
X147720000Y-104818250D01*
X147720000Y-103969000D01*
X146745750Y-103969000D01*
X146675750Y-104039000D01*
X145744000Y-104039000D01*
X145490000Y-104039000D01*
X145470000Y-104039000D01*
X145470000Y-103785000D01*
X145490000Y-103785000D01*
X145490000Y-102935750D01*
X145439415Y-102885165D01*
X147149290Y-101175290D01*
X147252691Y-101020540D01*
X147289000Y-100838000D01*
X147289000Y-99853750D01*
X147328000Y-99853750D01*
X147328000Y-100319310D01*
X147424673Y-100552699D01*
X147484974Y-100613000D01*
X147440673Y-100657301D01*
X147344000Y-100890690D01*
X147344000Y-101356250D01*
X147502750Y-101515000D01*
X148352000Y-101515000D01*
X148352000Y-100540750D01*
X148336000Y-100524750D01*
X148336000Y-99695000D01*
X148590000Y-99695000D01*
X148590000Y-100669250D01*
X148606000Y-100685250D01*
X148606000Y-101515000D01*
X149455250Y-101515000D01*
X149614000Y-101356250D01*
X149614000Y-100890690D01*
X149517327Y-100657301D01*
X149457026Y-100597000D01*
X149501327Y-100552699D01*
X149598000Y-100319310D01*
X149598000Y-99853750D01*
X149439250Y-99695000D01*
X148590000Y-99695000D01*
X148336000Y-99695000D01*
X147486750Y-99695000D01*
X147328000Y-99853750D01*
X147289000Y-99853750D01*
X147289000Y-98816690D01*
X147328000Y-98816690D01*
X147328000Y-99282250D01*
X147486750Y-99441000D01*
X148336000Y-99441000D01*
X148336000Y-98466750D01*
X148590000Y-98466750D01*
X148590000Y-99441000D01*
X149439250Y-99441000D01*
X149598000Y-99282250D01*
X149598000Y-98816690D01*
X149501327Y-98583301D01*
X149322698Y-98404673D01*
X149089309Y-98308000D01*
X148748750Y-98308000D01*
X148590000Y-98466750D01*
X148336000Y-98466750D01*
X148177250Y-98308000D01*
X147836691Y-98308000D01*
X147603302Y-98404673D01*
X147424673Y-98583301D01*
X147328000Y-98816690D01*
X147289000Y-98816690D01*
X147289000Y-98075750D01*
X153045000Y-98075750D01*
X153045000Y-98416309D01*
X153141673Y-98649698D01*
X153320301Y-98828327D01*
X153553690Y-98925000D01*
X154019250Y-98925000D01*
X154178000Y-98766250D01*
X154178000Y-97917000D01*
X153203750Y-97917000D01*
X153045000Y-98075750D01*
X147289000Y-98075750D01*
X147289000Y-97163691D01*
X153045000Y-97163691D01*
X153045000Y-97504250D01*
X153203750Y-97663000D01*
X154178000Y-97663000D01*
X154178000Y-96813750D01*
X154019250Y-96655000D01*
X153553690Y-96655000D01*
X153320301Y-96751673D01*
X153141673Y-96930302D01*
X153045000Y-97163691D01*
X147289000Y-97163691D01*
X147289000Y-96286148D01*
X148673290Y-94901858D01*
X148776691Y-94747109D01*
X148813000Y-94564568D01*
X148813000Y-89916000D01*
X148776691Y-89733460D01*
X148673290Y-89578710D01*
X146243569Y-87148989D01*
X148555409Y-87148989D01*
X155469710Y-94063290D01*
G36*
X153344414Y-104829104D02*
X153342340Y-104834111D01*
X153342340Y-104851200D01*
X153501090Y-105009950D01*
X153550018Y-105009950D01*
X153595061Y-105040047D01*
X153475829Y-105063763D01*
X153429747Y-105094554D01*
X152578406Y-105094554D01*
X152578406Y-104844000D01*
X152555605Y-104722821D01*
X152483988Y-104611526D01*
X152374714Y-104536862D01*
X152245000Y-104510594D01*
X149089485Y-104510594D01*
X149107000Y-104468309D01*
X149107000Y-104277406D01*
X152245000Y-104277406D01*
X152366179Y-104254605D01*
X152390430Y-104239000D01*
X152754310Y-104239000D01*
X153344414Y-104829104D01*
X153344414Y-104829104D01*
G37*
X153344414Y-104829104D02*
X153342340Y-104834111D01*
X153342340Y-104851200D01*
X153501090Y-105009950D01*
X153550018Y-105009950D01*
X153595061Y-105040047D01*
X153475829Y-105063763D01*
X153429747Y-105094554D01*
X152578406Y-105094554D01*
X152578406Y-104844000D01*
X152555605Y-104722821D01*
X152483988Y-104611526D01*
X152374714Y-104536862D01*
X152245000Y-104510594D01*
X149089485Y-104510594D01*
X149107000Y-104468309D01*
X149107000Y-104277406D01*
X152245000Y-104277406D01*
X152366179Y-104254605D01*
X152390430Y-104239000D01*
X152754310Y-104239000D01*
X153344414Y-104829104D01*
G36*
X161869594Y-103495000D02*
X161892395Y-103616179D01*
X161964012Y-103727474D01*
X162073286Y-103802138D01*
X162203000Y-103828406D01*
X162276000Y-103828406D01*
X162276000Y-104350594D01*
X162037000Y-104350594D01*
X161915821Y-104373395D01*
X161804526Y-104445012D01*
X161760946Y-104508793D01*
X161571360Y-104430070D01*
X161509831Y-104430016D01*
X161463142Y-104317299D01*
X161520478Y-104231489D01*
X161525449Y-104206497D01*
X161552982Y-104068083D01*
X161552981Y-104068078D01*
X161552981Y-103048887D01*
X161869594Y-102732273D01*
X161869594Y-103495000D01*
X161869594Y-103495000D01*
G37*
X161869594Y-103495000D02*
X161892395Y-103616179D01*
X161964012Y-103727474D01*
X162073286Y-103802138D01*
X162203000Y-103828406D01*
X162276000Y-103828406D01*
X162276000Y-104350594D01*
X162037000Y-104350594D01*
X161915821Y-104373395D01*
X161804526Y-104445012D01*
X161760946Y-104508793D01*
X161571360Y-104430070D01*
X161509831Y-104430016D01*
X161463142Y-104317299D01*
X161520478Y-104231489D01*
X161525449Y-104206497D01*
X161552982Y-104068083D01*
X161552981Y-104068078D01*
X161552981Y-103048887D01*
X161869594Y-102732273D01*
X161869594Y-103495000D01*
G36*
X168240001Y-100034992D02*
X168240000Y-100034997D01*
X168272504Y-100198403D01*
X168365066Y-100336932D01*
X168525002Y-100496867D01*
X168525002Y-100671133D01*
X168365066Y-100831068D01*
X168272504Y-100969597D01*
X168240000Y-101133003D01*
X168240001Y-101133008D01*
X168240001Y-103947978D01*
X168231988Y-103935526D01*
X168122714Y-103860862D01*
X167993000Y-103834594D01*
X165749655Y-103834594D01*
X165838000Y-103621310D01*
X165838000Y-103155750D01*
X165679250Y-102997000D01*
X164830000Y-102997000D01*
X164830000Y-103017000D01*
X164576000Y-103017000D01*
X164576000Y-102997000D01*
X163726750Y-102997000D01*
X163568000Y-103155750D01*
X163568000Y-103621310D01*
X163664673Y-103854699D01*
X163843302Y-104033327D01*
X164076691Y-104130000D01*
X164167289Y-104130000D01*
X164159594Y-104168000D01*
X164159594Y-104391000D01*
X163487406Y-104391000D01*
X163466714Y-104376862D01*
X163337000Y-104350594D01*
X163130000Y-104350594D01*
X163130000Y-103828406D01*
X163203000Y-103828406D01*
X163324179Y-103805605D01*
X163435474Y-103733988D01*
X163510138Y-103624714D01*
X163536406Y-103495000D01*
X163536406Y-102245000D01*
X163513605Y-102123821D01*
X163510304Y-102118690D01*
X163568000Y-102118690D01*
X163568000Y-102584250D01*
X163726750Y-102743000D01*
X164576000Y-102743000D01*
X164576000Y-101768750D01*
X164830000Y-101768750D01*
X164830000Y-102743000D01*
X165679250Y-102743000D01*
X165838000Y-102584250D01*
X165838000Y-102118690D01*
X165741327Y-101885301D01*
X165562698Y-101706673D01*
X165329309Y-101610000D01*
X164988750Y-101610000D01*
X164830000Y-101768750D01*
X164576000Y-101768750D01*
X164417250Y-101610000D01*
X164076691Y-101610000D01*
X163843302Y-101706673D01*
X163664673Y-101885301D01*
X163568000Y-102118690D01*
X163510304Y-102118690D01*
X163441988Y-102012526D01*
X163423189Y-101999681D01*
X164115415Y-101307455D01*
X164124395Y-101355179D01*
X164196012Y-101466474D01*
X164305286Y-101541138D01*
X164435000Y-101567406D01*
X165135000Y-101567406D01*
X165256179Y-101544605D01*
X165367474Y-101472988D01*
X165442138Y-101363714D01*
X165468406Y-101234000D01*
X165468406Y-100869750D01*
X165700000Y-100869750D01*
X165700000Y-101360310D01*
X165796673Y-101593699D01*
X165975302Y-101772327D01*
X166208691Y-101869000D01*
X166399250Y-101869000D01*
X166558000Y-101710250D01*
X166558000Y-100711000D01*
X166812000Y-100711000D01*
X166812000Y-101710250D01*
X166970750Y-101869000D01*
X167161309Y-101869000D01*
X167394698Y-101772327D01*
X167573327Y-101593699D01*
X167670000Y-101360310D01*
X167670000Y-100869750D01*
X167511250Y-100711000D01*
X166812000Y-100711000D01*
X166558000Y-100711000D01*
X165858750Y-100711000D01*
X165700000Y-100869750D01*
X165468406Y-100869750D01*
X165468406Y-99934000D01*
X165445605Y-99812821D01*
X165442304Y-99807690D01*
X165700000Y-99807690D01*
X165700000Y-100298250D01*
X165858750Y-100457000D01*
X166558000Y-100457000D01*
X166558000Y-99457750D01*
X166812000Y-99457750D01*
X166812000Y-100457000D01*
X167511250Y-100457000D01*
X167670000Y-100298250D01*
X167670000Y-99807690D01*
X167573327Y-99574301D01*
X167394698Y-99395673D01*
X167161309Y-99299000D01*
X166970750Y-99299000D01*
X166812000Y-99457750D01*
X166558000Y-99457750D01*
X166399250Y-99299000D01*
X166208691Y-99299000D01*
X165975302Y-99395673D01*
X165796673Y-99574301D01*
X165700000Y-99807690D01*
X165442304Y-99807690D01*
X165373988Y-99701526D01*
X165264714Y-99626862D01*
X165135000Y-99600594D01*
X164988675Y-99600594D01*
X165838268Y-98751001D01*
X166866994Y-98751001D01*
X166866999Y-98751002D01*
X167030405Y-98718498D01*
X167168934Y-98625936D01*
X167387464Y-98407406D01*
X168240001Y-98407406D01*
X168240001Y-100034992D01*
X168240001Y-100034992D01*
G37*
X168240001Y-100034992D02*
X168240000Y-100034997D01*
X168272504Y-100198403D01*
X168365066Y-100336932D01*
X168525002Y-100496867D01*
X168525002Y-100671133D01*
X168365066Y-100831068D01*
X168272504Y-100969597D01*
X168240000Y-101133003D01*
X168240001Y-101133008D01*
X168240001Y-103947978D01*
X168231988Y-103935526D01*
X168122714Y-103860862D01*
X167993000Y-103834594D01*
X165749655Y-103834594D01*
X165838000Y-103621310D01*
X165838000Y-103155750D01*
X165679250Y-102997000D01*
X164830000Y-102997000D01*
X164830000Y-103017000D01*
X164576000Y-103017000D01*
X164576000Y-102997000D01*
X163726750Y-102997000D01*
X163568000Y-103155750D01*
X163568000Y-103621310D01*
X163664673Y-103854699D01*
X163843302Y-104033327D01*
X164076691Y-104130000D01*
X164167289Y-104130000D01*
X164159594Y-104168000D01*
X164159594Y-104391000D01*
X163487406Y-104391000D01*
X163466714Y-104376862D01*
X163337000Y-104350594D01*
X163130000Y-104350594D01*
X163130000Y-103828406D01*
X163203000Y-103828406D01*
X163324179Y-103805605D01*
X163435474Y-103733988D01*
X163510138Y-103624714D01*
X163536406Y-103495000D01*
X163536406Y-102245000D01*
X163513605Y-102123821D01*
X163510304Y-102118690D01*
X163568000Y-102118690D01*
X163568000Y-102584250D01*
X163726750Y-102743000D01*
X164576000Y-102743000D01*
X164576000Y-101768750D01*
X164830000Y-101768750D01*
X164830000Y-102743000D01*
X165679250Y-102743000D01*
X165838000Y-102584250D01*
X165838000Y-102118690D01*
X165741327Y-101885301D01*
X165562698Y-101706673D01*
X165329309Y-101610000D01*
X164988750Y-101610000D01*
X164830000Y-101768750D01*
X164576000Y-101768750D01*
X164417250Y-101610000D01*
X164076691Y-101610000D01*
X163843302Y-101706673D01*
X163664673Y-101885301D01*
X163568000Y-102118690D01*
X163510304Y-102118690D01*
X163441988Y-102012526D01*
X163423189Y-101999681D01*
X164115415Y-101307455D01*
X164124395Y-101355179D01*
X164196012Y-101466474D01*
X164305286Y-101541138D01*
X164435000Y-101567406D01*
X165135000Y-101567406D01*
X165256179Y-101544605D01*
X165367474Y-101472988D01*
X165442138Y-101363714D01*
X165468406Y-101234000D01*
X165468406Y-100869750D01*
X165700000Y-100869750D01*
X165700000Y-101360310D01*
X165796673Y-101593699D01*
X165975302Y-101772327D01*
X166208691Y-101869000D01*
X166399250Y-101869000D01*
X166558000Y-101710250D01*
X166558000Y-100711000D01*
X166812000Y-100711000D01*
X166812000Y-101710250D01*
X166970750Y-101869000D01*
X167161309Y-101869000D01*
X167394698Y-101772327D01*
X167573327Y-101593699D01*
X167670000Y-101360310D01*
X167670000Y-100869750D01*
X167511250Y-100711000D01*
X166812000Y-100711000D01*
X166558000Y-100711000D01*
X165858750Y-100711000D01*
X165700000Y-100869750D01*
X165468406Y-100869750D01*
X165468406Y-99934000D01*
X165445605Y-99812821D01*
X165442304Y-99807690D01*
X165700000Y-99807690D01*
X165700000Y-100298250D01*
X165858750Y-100457000D01*
X166558000Y-100457000D01*
X166558000Y-99457750D01*
X166812000Y-99457750D01*
X166812000Y-100457000D01*
X167511250Y-100457000D01*
X167670000Y-100298250D01*
X167670000Y-99807690D01*
X167573327Y-99574301D01*
X167394698Y-99395673D01*
X167161309Y-99299000D01*
X166970750Y-99299000D01*
X166812000Y-99457750D01*
X166558000Y-99457750D01*
X166399250Y-99299000D01*
X166208691Y-99299000D01*
X165975302Y-99395673D01*
X165796673Y-99574301D01*
X165700000Y-99807690D01*
X165442304Y-99807690D01*
X165373988Y-99701526D01*
X165264714Y-99626862D01*
X165135000Y-99600594D01*
X164988675Y-99600594D01*
X165838268Y-98751001D01*
X166866994Y-98751001D01*
X166866999Y-98751002D01*
X167030405Y-98718498D01*
X167168934Y-98625936D01*
X167387464Y-98407406D01*
X168240001Y-98407406D01*
X168240001Y-100034992D01*
G36*
X156406988Y-101973380D02*
X156339023Y-101973380D01*
X156329055Y-101958462D01*
X156329052Y-101958460D01*
X156160966Y-101790373D01*
X156160966Y-101621904D01*
X156406988Y-101375881D01*
X156406988Y-101973380D01*
X156406988Y-101973380D01*
G37*
X156406988Y-101973380D02*
X156339023Y-101973380D01*
X156329055Y-101958462D01*
X156329052Y-101958460D01*
X156160966Y-101790373D01*
X156160966Y-101621904D01*
X156406988Y-101375881D01*
X156406988Y-101973380D01*
G36*
X157923643Y-101480192D02*
X157954092Y-101553884D01*
X157724165Y-101783811D01*
X157655540Y-101886516D01*
X157655540Y-101468326D01*
X157890865Y-101233001D01*
X157923859Y-101233001D01*
X157923643Y-101480192D01*
X157923643Y-101480192D01*
G37*
X157923643Y-101480192D02*
X157954092Y-101553884D01*
X157724165Y-101783811D01*
X157655540Y-101886516D01*
X157655540Y-101468326D01*
X157890865Y-101233001D01*
X157923859Y-101233001D01*
X157923643Y-101480192D01*
G36*
X159740766Y-101581368D02*
X159182265Y-101581368D01*
X159182260Y-101581367D01*
X159131929Y-101591379D01*
X159177643Y-101481286D01*
X159177860Y-101233001D01*
X159472996Y-101233001D01*
X159473001Y-101233002D01*
X159636407Y-101200498D01*
X159774936Y-101107936D01*
X159949871Y-100933000D01*
X160337995Y-100933000D01*
X160338000Y-100933001D01*
X160401830Y-100920304D01*
X159740766Y-101581368D01*
X159740766Y-101581368D01*
G37*
X159740766Y-101581368D02*
X159182265Y-101581368D01*
X159182260Y-101581367D01*
X159131929Y-101591379D01*
X159177643Y-101481286D01*
X159177860Y-101233001D01*
X159472996Y-101233001D01*
X159473001Y-101233002D01*
X159636407Y-101200498D01*
X159774936Y-101107936D01*
X159949871Y-100933000D01*
X160337995Y-100933000D01*
X160338000Y-100933001D01*
X160401830Y-100920304D01*
X159740766Y-101581368D01*
G36*
X149931794Y-84590119D02*
X149673704Y-84976377D01*
X149583075Y-85432000D01*
X149673704Y-85887623D01*
X149931794Y-86273881D01*
X150318052Y-86531971D01*
X150773675Y-86622600D01*
X150820325Y-86622600D01*
X151275948Y-86531971D01*
X151662206Y-86273881D01*
X151920296Y-85887623D01*
X152010925Y-85432000D01*
X151920296Y-84976377D01*
X151662206Y-84590119D01*
X151426464Y-84432601D01*
X152707536Y-84432601D01*
X152471794Y-84590119D01*
X152213704Y-84976377D01*
X152123075Y-85432000D01*
X152213704Y-85887623D01*
X152471794Y-86273881D01*
X152858052Y-86531971D01*
X153313675Y-86622600D01*
X153360325Y-86622600D01*
X153815948Y-86531971D01*
X154202206Y-86273881D01*
X154460296Y-85887623D01*
X154550925Y-85432000D01*
X154460296Y-84976377D01*
X154202206Y-84590119D01*
X153966464Y-84432601D01*
X155247536Y-84432601D01*
X155011794Y-84590119D01*
X154753704Y-84976377D01*
X154663075Y-85432000D01*
X154753704Y-85887623D01*
X155011794Y-86273881D01*
X155398052Y-86531971D01*
X155853675Y-86622600D01*
X155900325Y-86622600D01*
X156355948Y-86531971D01*
X156742206Y-86273881D01*
X157000296Y-85887623D01*
X157090925Y-85432000D01*
X157000296Y-84976377D01*
X156742206Y-84590119D01*
X156506464Y-84432601D01*
X157787536Y-84432601D01*
X157551794Y-84590119D01*
X157293704Y-84976377D01*
X157203075Y-85432000D01*
X157293704Y-85887623D01*
X157551794Y-86273881D01*
X157938052Y-86531971D01*
X158393675Y-86622600D01*
X158440325Y-86622600D01*
X158895948Y-86531971D01*
X159282206Y-86273881D01*
X159540296Y-85887623D01*
X159630925Y-85432000D01*
X159580718Y-85179592D01*
X163310000Y-88908873D01*
X163310000Y-92824843D01*
X163298191Y-92813013D01*
X162902282Y-92648617D01*
X162473598Y-92648243D01*
X162077403Y-92811948D01*
X161774013Y-93114809D01*
X161609617Y-93510718D01*
X161609243Y-93939402D01*
X161772948Y-94335597D01*
X162075809Y-94638987D01*
X162185897Y-94684700D01*
X161736066Y-95134530D01*
X161643504Y-95273059D01*
X161611000Y-95436465D01*
X161611001Y-95436470D01*
X161611001Y-96671000D01*
X161448750Y-96671000D01*
X161290000Y-96829750D01*
X161290000Y-97679000D01*
X161310000Y-97679000D01*
X161310000Y-97933000D01*
X161290000Y-97933000D01*
X161290000Y-98782250D01*
X161448750Y-98941000D01*
X161611001Y-98941000D01*
X161611001Y-98972594D01*
X160538000Y-98972594D01*
X160416821Y-98995395D01*
X160305526Y-99067012D01*
X160230862Y-99176286D01*
X160204594Y-99306000D01*
X160204594Y-100035536D01*
X160161130Y-100079000D01*
X159773002Y-100079000D01*
X159609596Y-100111503D01*
X159606406Y-100113634D01*
X159606406Y-98091750D01*
X159903000Y-98091750D01*
X159903000Y-98432309D01*
X159999673Y-98665698D01*
X160178301Y-98844327D01*
X160411690Y-98941000D01*
X160877250Y-98941000D01*
X161036000Y-98782250D01*
X161036000Y-97933000D01*
X160061750Y-97933000D01*
X159903000Y-98091750D01*
X159606406Y-98091750D01*
X159606406Y-97179691D01*
X159903000Y-97179691D01*
X159903000Y-97520250D01*
X160061750Y-97679000D01*
X161036000Y-97679000D01*
X161036000Y-96829750D01*
X160877250Y-96671000D01*
X160411690Y-96671000D01*
X160178301Y-96767673D01*
X159999673Y-96946302D01*
X159903000Y-97179691D01*
X159606406Y-97179691D01*
X159606406Y-97056000D01*
X159583605Y-96934821D01*
X159532548Y-96855477D01*
X159645327Y-96742699D01*
X159742000Y-96509310D01*
X159742000Y-96043750D01*
X159583250Y-95885000D01*
X158734000Y-95885000D01*
X158734000Y-95905000D01*
X158480000Y-95905000D01*
X158480000Y-95885000D01*
X157630750Y-95885000D01*
X157472000Y-96043750D01*
X157472000Y-96509310D01*
X157568673Y-96742699D01*
X157700933Y-96874958D01*
X157665862Y-96926286D01*
X157639594Y-97056000D01*
X157639594Y-99781542D01*
X157406406Y-100014730D01*
X157406406Y-97056000D01*
X157383605Y-96934821D01*
X157311988Y-96823526D01*
X157202714Y-96748862D01*
X157073000Y-96722594D01*
X156850000Y-96722594D01*
X156850000Y-96716406D01*
X157107000Y-96716406D01*
X157228179Y-96693605D01*
X157339474Y-96621988D01*
X157414138Y-96512714D01*
X157440406Y-96383000D01*
X157440406Y-95133000D01*
X157417605Y-95011821D01*
X157345988Y-94900526D01*
X157236714Y-94825862D01*
X157107000Y-94799594D01*
X157034000Y-94799594D01*
X157034000Y-94684406D01*
X157107000Y-94684406D01*
X157228179Y-94661605D01*
X157339474Y-94589988D01*
X157414138Y-94480714D01*
X157440406Y-94351000D01*
X157440406Y-94011750D01*
X157472000Y-94011750D01*
X157472000Y-94477310D01*
X157568673Y-94710699D01*
X157599974Y-94742000D01*
X157568673Y-94773301D01*
X157472000Y-95006690D01*
X157472000Y-95472250D01*
X157630750Y-95631000D01*
X158480000Y-95631000D01*
X158480000Y-93853000D01*
X158734000Y-93853000D01*
X158734000Y-95631000D01*
X159583250Y-95631000D01*
X159742000Y-95472250D01*
X159742000Y-95006690D01*
X159645327Y-94773301D01*
X159614026Y-94742000D01*
X159645327Y-94710699D01*
X159742000Y-94477310D01*
X159742000Y-94011750D01*
X159583250Y-93853000D01*
X158734000Y-93853000D01*
X158480000Y-93853000D01*
X157630750Y-93853000D01*
X157472000Y-94011750D01*
X157440406Y-94011750D01*
X157440406Y-93101000D01*
X157417605Y-92979821D01*
X157345988Y-92868526D01*
X157236714Y-92793862D01*
X157107000Y-92767594D01*
X156107000Y-92767594D01*
X155985821Y-92790395D01*
X155874526Y-92862012D01*
X155799862Y-92971286D01*
X155787569Y-93031989D01*
X154065751Y-91310171D01*
X156090891Y-91310171D01*
X156186145Y-91540703D01*
X156362369Y-91717235D01*
X156592735Y-91812891D01*
X156842171Y-91813109D01*
X157072703Y-91717855D01*
X157177741Y-91613000D01*
X157282722Y-91613000D01*
X158026996Y-92357273D01*
X158026901Y-92466000D01*
X157980691Y-92466000D01*
X157747302Y-92562673D01*
X157568673Y-92741301D01*
X157472000Y-92974690D01*
X157472000Y-93440250D01*
X157630750Y-93599000D01*
X158480000Y-93599000D01*
X158480000Y-93579000D01*
X158734000Y-93579000D01*
X158734000Y-93599000D01*
X159583250Y-93599000D01*
X159742000Y-93440250D01*
X159742000Y-92974690D01*
X159657872Y-92771587D01*
X159852402Y-92771757D01*
X160248597Y-92608052D01*
X160551987Y-92305191D01*
X160716383Y-91909282D01*
X160716757Y-91480598D01*
X160553052Y-91084403D01*
X160250191Y-90781013D01*
X159854282Y-90616617D01*
X159425598Y-90616243D01*
X159029403Y-90779948D01*
X158726013Y-91082809D01*
X158561617Y-91478718D01*
X158561438Y-91683977D01*
X157761527Y-90884065D01*
X157622998Y-90791503D01*
X157459592Y-90758999D01*
X157459587Y-90759000D01*
X157177684Y-90759000D01*
X157073631Y-90654765D01*
X156843265Y-90559109D01*
X156593829Y-90558891D01*
X156363297Y-90654145D01*
X156186765Y-90830369D01*
X156091109Y-91060735D01*
X156090891Y-91310171D01*
X154065751Y-91310171D01*
X149090279Y-86334699D01*
X149060732Y-86314956D01*
X149122206Y-86273881D01*
X149380296Y-85887623D01*
X149470925Y-85432000D01*
X149380296Y-84976377D01*
X149122206Y-84590119D01*
X148886464Y-84432601D01*
X150167536Y-84432601D01*
X149931794Y-84590119D01*
X149931794Y-84590119D01*
G37*
X149931794Y-84590119D02*
X149673704Y-84976377D01*
X149583075Y-85432000D01*
X149673704Y-85887623D01*
X149931794Y-86273881D01*
X150318052Y-86531971D01*
X150773675Y-86622600D01*
X150820325Y-86622600D01*
X151275948Y-86531971D01*
X151662206Y-86273881D01*
X151920296Y-85887623D01*
X152010925Y-85432000D01*
X151920296Y-84976377D01*
X151662206Y-84590119D01*
X151426464Y-84432601D01*
X152707536Y-84432601D01*
X152471794Y-84590119D01*
X152213704Y-84976377D01*
X152123075Y-85432000D01*
X152213704Y-85887623D01*
X152471794Y-86273881D01*
X152858052Y-86531971D01*
X153313675Y-86622600D01*
X153360325Y-86622600D01*
X153815948Y-86531971D01*
X154202206Y-86273881D01*
X154460296Y-85887623D01*
X154550925Y-85432000D01*
X154460296Y-84976377D01*
X154202206Y-84590119D01*
X153966464Y-84432601D01*
X155247536Y-84432601D01*
X155011794Y-84590119D01*
X154753704Y-84976377D01*
X154663075Y-85432000D01*
X154753704Y-85887623D01*
X155011794Y-86273881D01*
X155398052Y-86531971D01*
X155853675Y-86622600D01*
X155900325Y-86622600D01*
X156355948Y-86531971D01*
X156742206Y-86273881D01*
X157000296Y-85887623D01*
X157090925Y-85432000D01*
X157000296Y-84976377D01*
X156742206Y-84590119D01*
X156506464Y-84432601D01*
X157787536Y-84432601D01*
X157551794Y-84590119D01*
X157293704Y-84976377D01*
X157203075Y-85432000D01*
X157293704Y-85887623D01*
X157551794Y-86273881D01*
X157938052Y-86531971D01*
X158393675Y-86622600D01*
X158440325Y-86622600D01*
X158895948Y-86531971D01*
X159282206Y-86273881D01*
X159540296Y-85887623D01*
X159630925Y-85432000D01*
X159580718Y-85179592D01*
X163310000Y-88908873D01*
X163310000Y-92824843D01*
X163298191Y-92813013D01*
X162902282Y-92648617D01*
X162473598Y-92648243D01*
X162077403Y-92811948D01*
X161774013Y-93114809D01*
X161609617Y-93510718D01*
X161609243Y-93939402D01*
X161772948Y-94335597D01*
X162075809Y-94638987D01*
X162185897Y-94684700D01*
X161736066Y-95134530D01*
X161643504Y-95273059D01*
X161611000Y-95436465D01*
X161611001Y-95436470D01*
X161611001Y-96671000D01*
X161448750Y-96671000D01*
X161290000Y-96829750D01*
X161290000Y-97679000D01*
X161310000Y-97679000D01*
X161310000Y-97933000D01*
X161290000Y-97933000D01*
X161290000Y-98782250D01*
X161448750Y-98941000D01*
X161611001Y-98941000D01*
X161611001Y-98972594D01*
X160538000Y-98972594D01*
X160416821Y-98995395D01*
X160305526Y-99067012D01*
X160230862Y-99176286D01*
X160204594Y-99306000D01*
X160204594Y-100035536D01*
X160161130Y-100079000D01*
X159773002Y-100079000D01*
X159609596Y-100111503D01*
X159606406Y-100113634D01*
X159606406Y-98091750D01*
X159903000Y-98091750D01*
X159903000Y-98432309D01*
X159999673Y-98665698D01*
X160178301Y-98844327D01*
X160411690Y-98941000D01*
X160877250Y-98941000D01*
X161036000Y-98782250D01*
X161036000Y-97933000D01*
X160061750Y-97933000D01*
X159903000Y-98091750D01*
X159606406Y-98091750D01*
X159606406Y-97179691D01*
X159903000Y-97179691D01*
X159903000Y-97520250D01*
X160061750Y-97679000D01*
X161036000Y-97679000D01*
X161036000Y-96829750D01*
X160877250Y-96671000D01*
X160411690Y-96671000D01*
X160178301Y-96767673D01*
X159999673Y-96946302D01*
X159903000Y-97179691D01*
X159606406Y-97179691D01*
X159606406Y-97056000D01*
X159583605Y-96934821D01*
X159532548Y-96855477D01*
X159645327Y-96742699D01*
X159742000Y-96509310D01*
X159742000Y-96043750D01*
X159583250Y-95885000D01*
X158734000Y-95885000D01*
X158734000Y-95905000D01*
X158480000Y-95905000D01*
X158480000Y-95885000D01*
X157630750Y-95885000D01*
X157472000Y-96043750D01*
X157472000Y-96509310D01*
X157568673Y-96742699D01*
X157700933Y-96874958D01*
X157665862Y-96926286D01*
X157639594Y-97056000D01*
X157639594Y-99781542D01*
X157406406Y-100014730D01*
X157406406Y-97056000D01*
X157383605Y-96934821D01*
X157311988Y-96823526D01*
X157202714Y-96748862D01*
X157073000Y-96722594D01*
X156850000Y-96722594D01*
X156850000Y-96716406D01*
X157107000Y-96716406D01*
X157228179Y-96693605D01*
X157339474Y-96621988D01*
X157414138Y-96512714D01*
X157440406Y-96383000D01*
X157440406Y-95133000D01*
X157417605Y-95011821D01*
X157345988Y-94900526D01*
X157236714Y-94825862D01*
X157107000Y-94799594D01*
X157034000Y-94799594D01*
X157034000Y-94684406D01*
X157107000Y-94684406D01*
X157228179Y-94661605D01*
X157339474Y-94589988D01*
X157414138Y-94480714D01*
X157440406Y-94351000D01*
X157440406Y-94011750D01*
X157472000Y-94011750D01*
X157472000Y-94477310D01*
X157568673Y-94710699D01*
X157599974Y-94742000D01*
X157568673Y-94773301D01*
X157472000Y-95006690D01*
X157472000Y-95472250D01*
X157630750Y-95631000D01*
X158480000Y-95631000D01*
X158480000Y-93853000D01*
X158734000Y-93853000D01*
X158734000Y-95631000D01*
X159583250Y-95631000D01*
X159742000Y-95472250D01*
X159742000Y-95006690D01*
X159645327Y-94773301D01*
X159614026Y-94742000D01*
X159645327Y-94710699D01*
X159742000Y-94477310D01*
X159742000Y-94011750D01*
X159583250Y-93853000D01*
X158734000Y-93853000D01*
X158480000Y-93853000D01*
X157630750Y-93853000D01*
X157472000Y-94011750D01*
X157440406Y-94011750D01*
X157440406Y-93101000D01*
X157417605Y-92979821D01*
X157345988Y-92868526D01*
X157236714Y-92793862D01*
X157107000Y-92767594D01*
X156107000Y-92767594D01*
X155985821Y-92790395D01*
X155874526Y-92862012D01*
X155799862Y-92971286D01*
X155787569Y-93031989D01*
X154065751Y-91310171D01*
X156090891Y-91310171D01*
X156186145Y-91540703D01*
X156362369Y-91717235D01*
X156592735Y-91812891D01*
X156842171Y-91813109D01*
X157072703Y-91717855D01*
X157177741Y-91613000D01*
X157282722Y-91613000D01*
X158026996Y-92357273D01*
X158026901Y-92466000D01*
X157980691Y-92466000D01*
X157747302Y-92562673D01*
X157568673Y-92741301D01*
X157472000Y-92974690D01*
X157472000Y-93440250D01*
X157630750Y-93599000D01*
X158480000Y-93599000D01*
X158480000Y-93579000D01*
X158734000Y-93579000D01*
X158734000Y-93599000D01*
X159583250Y-93599000D01*
X159742000Y-93440250D01*
X159742000Y-92974690D01*
X159657872Y-92771587D01*
X159852402Y-92771757D01*
X160248597Y-92608052D01*
X160551987Y-92305191D01*
X160716383Y-91909282D01*
X160716757Y-91480598D01*
X160553052Y-91084403D01*
X160250191Y-90781013D01*
X159854282Y-90616617D01*
X159425598Y-90616243D01*
X159029403Y-90779948D01*
X158726013Y-91082809D01*
X158561617Y-91478718D01*
X158561438Y-91683977D01*
X157761527Y-90884065D01*
X157622998Y-90791503D01*
X157459592Y-90758999D01*
X157459587Y-90759000D01*
X157177684Y-90759000D01*
X157073631Y-90654765D01*
X156843265Y-90559109D01*
X156593829Y-90558891D01*
X156363297Y-90654145D01*
X156186765Y-90830369D01*
X156091109Y-91060735D01*
X156090891Y-91310171D01*
X154065751Y-91310171D01*
X149090279Y-86334699D01*
X149060732Y-86314956D01*
X149122206Y-86273881D01*
X149380296Y-85887623D01*
X149470925Y-85432000D01*
X149380296Y-84976377D01*
X149122206Y-84590119D01*
X148886464Y-84432601D01*
X150167536Y-84432601D01*
X149931794Y-84590119D01*
G36*
X149090000Y-79978250D02*
X149248750Y-80137000D01*
X150098000Y-80137000D01*
X150098000Y-80117000D01*
X150352000Y-80117000D01*
X150352000Y-80137000D01*
X151201250Y-80137000D01*
X151360000Y-79978250D01*
X151360000Y-79650000D01*
X164552405Y-79650000D01*
X166379180Y-80013368D01*
X167894276Y-81025723D01*
X168906632Y-82540820D01*
X169270000Y-84367595D01*
X169270000Y-100042103D01*
X169253937Y-100018063D01*
X169253934Y-100018061D01*
X169094001Y-99858127D01*
X169094001Y-91451001D01*
X169061498Y-91287595D01*
X168968936Y-91149066D01*
X168968933Y-91149064D01*
X164000761Y-86180891D01*
X164428707Y-86358590D01*
X165367176Y-86359409D01*
X166234521Y-86001029D01*
X166898697Y-85338011D01*
X167258590Y-84471293D01*
X167259409Y-83532824D01*
X166901029Y-82665479D01*
X166238011Y-82001303D01*
X165371293Y-81641410D01*
X164432824Y-81640591D01*
X163565479Y-81998971D01*
X162901303Y-82661989D01*
X162541410Y-83528707D01*
X162540591Y-84467176D01*
X162719121Y-84899251D01*
X160307612Y-82487742D01*
X160307612Y-82212497D01*
X160307613Y-82212492D01*
X160275109Y-82049086D01*
X160182547Y-81910557D01*
X159398444Y-81126454D01*
X159259915Y-81033892D01*
X159096509Y-81001388D01*
X159096504Y-81001389D01*
X154800617Y-81001388D01*
X154800612Y-81001387D01*
X154637206Y-81033891D01*
X154498677Y-81126453D01*
X153826230Y-81798900D01*
X153815948Y-81792029D01*
X153360325Y-81701400D01*
X153313675Y-81701400D01*
X152858052Y-81792029D01*
X152471794Y-82050119D01*
X152213704Y-82436377D01*
X152123075Y-82892000D01*
X152213704Y-83347623D01*
X152368039Y-83578601D01*
X151765961Y-83578601D01*
X151920296Y-83347623D01*
X152010925Y-82892000D01*
X151920296Y-82436377D01*
X151662206Y-82050119D01*
X151275948Y-81792029D01*
X150820325Y-81701400D01*
X150773675Y-81701400D01*
X150318052Y-81792029D01*
X149931794Y-82050119D01*
X149673704Y-82436377D01*
X149583075Y-82892000D01*
X149673704Y-83347623D01*
X149828039Y-83578601D01*
X149225961Y-83578601D01*
X149380296Y-83347623D01*
X149470925Y-82892000D01*
X149380296Y-82436377D01*
X149122206Y-82050119D01*
X148735948Y-81792029D01*
X148702000Y-81785276D01*
X148702000Y-81222406D01*
X148725000Y-81222406D01*
X148846179Y-81199605D01*
X148957474Y-81127988D01*
X149032138Y-81018714D01*
X149058406Y-80889000D01*
X149058406Y-80549750D01*
X149090000Y-80549750D01*
X149090000Y-81015310D01*
X149186673Y-81248699D01*
X149365302Y-81427327D01*
X149598691Y-81524000D01*
X149939250Y-81524000D01*
X150098000Y-81365250D01*
X150098000Y-80391000D01*
X150352000Y-80391000D01*
X150352000Y-81365250D01*
X150510750Y-81524000D01*
X150851309Y-81524000D01*
X151084698Y-81427327D01*
X151263327Y-81248699D01*
X151360000Y-81015310D01*
X151360000Y-80549750D01*
X151201250Y-80391000D01*
X150352000Y-80391000D01*
X150098000Y-80391000D01*
X149248750Y-80391000D01*
X149090000Y-80549750D01*
X149058406Y-80549750D01*
X149058406Y-79650000D01*
X149090000Y-79650000D01*
X149090000Y-79978250D01*
X149090000Y-79978250D01*
G37*
X149090000Y-79978250D02*
X149248750Y-80137000D01*
X150098000Y-80137000D01*
X150098000Y-80117000D01*
X150352000Y-80117000D01*
X150352000Y-80137000D01*
X151201250Y-80137000D01*
X151360000Y-79978250D01*
X151360000Y-79650000D01*
X164552405Y-79650000D01*
X166379180Y-80013368D01*
X167894276Y-81025723D01*
X168906632Y-82540820D01*
X169270000Y-84367595D01*
X169270000Y-100042103D01*
X169253937Y-100018063D01*
X169253934Y-100018061D01*
X169094001Y-99858127D01*
X169094001Y-91451001D01*
X169061498Y-91287595D01*
X168968936Y-91149066D01*
X168968933Y-91149064D01*
X164000761Y-86180891D01*
X164428707Y-86358590D01*
X165367176Y-86359409D01*
X166234521Y-86001029D01*
X166898697Y-85338011D01*
X167258590Y-84471293D01*
X167259409Y-83532824D01*
X166901029Y-82665479D01*
X166238011Y-82001303D01*
X165371293Y-81641410D01*
X164432824Y-81640591D01*
X163565479Y-81998971D01*
X162901303Y-82661989D01*
X162541410Y-83528707D01*
X162540591Y-84467176D01*
X162719121Y-84899251D01*
X160307612Y-82487742D01*
X160307612Y-82212497D01*
X160307613Y-82212492D01*
X160275109Y-82049086D01*
X160182547Y-81910557D01*
X159398444Y-81126454D01*
X159259915Y-81033892D01*
X159096509Y-81001388D01*
X159096504Y-81001389D01*
X154800617Y-81001388D01*
X154800612Y-81001387D01*
X154637206Y-81033891D01*
X154498677Y-81126453D01*
X153826230Y-81798900D01*
X153815948Y-81792029D01*
X153360325Y-81701400D01*
X153313675Y-81701400D01*
X152858052Y-81792029D01*
X152471794Y-82050119D01*
X152213704Y-82436377D01*
X152123075Y-82892000D01*
X152213704Y-83347623D01*
X152368039Y-83578601D01*
X151765961Y-83578601D01*
X151920296Y-83347623D01*
X152010925Y-82892000D01*
X151920296Y-82436377D01*
X151662206Y-82050119D01*
X151275948Y-81792029D01*
X150820325Y-81701400D01*
X150773675Y-81701400D01*
X150318052Y-81792029D01*
X149931794Y-82050119D01*
X149673704Y-82436377D01*
X149583075Y-82892000D01*
X149673704Y-83347623D01*
X149828039Y-83578601D01*
X149225961Y-83578601D01*
X149380296Y-83347623D01*
X149470925Y-82892000D01*
X149380296Y-82436377D01*
X149122206Y-82050119D01*
X148735948Y-81792029D01*
X148702000Y-81785276D01*
X148702000Y-81222406D01*
X148725000Y-81222406D01*
X148846179Y-81199605D01*
X148957474Y-81127988D01*
X149032138Y-81018714D01*
X149058406Y-80889000D01*
X149058406Y-80549750D01*
X149090000Y-80549750D01*
X149090000Y-81015310D01*
X149186673Y-81248699D01*
X149365302Y-81427327D01*
X149598691Y-81524000D01*
X149939250Y-81524000D01*
X150098000Y-81365250D01*
X150098000Y-80391000D01*
X150352000Y-80391000D01*
X150352000Y-81365250D01*
X150510750Y-81524000D01*
X150851309Y-81524000D01*
X151084698Y-81427327D01*
X151263327Y-81248699D01*
X151360000Y-81015310D01*
X151360000Y-80549750D01*
X151201250Y-80391000D01*
X150352000Y-80391000D01*
X150098000Y-80391000D01*
X149248750Y-80391000D01*
X149090000Y-80549750D01*
X149058406Y-80549750D01*
X149058406Y-79650000D01*
X149090000Y-79650000D01*
X149090000Y-79978250D01*
G36*
X167467000Y-91349859D02*
X167467000Y-93774316D01*
X167362765Y-93878369D01*
X167267109Y-94108735D01*
X167266891Y-94358171D01*
X167362145Y-94588703D01*
X167538369Y-94765235D01*
X167768735Y-94860891D01*
X168018171Y-94861109D01*
X168240001Y-94769451D01*
X168240001Y-95140594D01*
X167117000Y-95140594D01*
X166995821Y-95163395D01*
X166884526Y-95235012D01*
X166809862Y-95344286D01*
X166799187Y-95397000D01*
X166703918Y-95397000D01*
X166695605Y-95352821D01*
X166623988Y-95241526D01*
X166514714Y-95166862D01*
X166385000Y-95140594D01*
X165085000Y-95140594D01*
X164963821Y-95163395D01*
X164852526Y-95235012D01*
X164777862Y-95344286D01*
X164767187Y-95397000D01*
X164705918Y-95397000D01*
X164697605Y-95352821D01*
X164625988Y-95241526D01*
X164516714Y-95166862D01*
X164387000Y-95140594D01*
X164164000Y-95140594D01*
X164164000Y-88732004D01*
X164131497Y-88568598D01*
X164038935Y-88430069D01*
X164038932Y-88430067D01*
X159497417Y-83888551D01*
X159699688Y-83666947D01*
X159724407Y-83607267D01*
X167467000Y-91349859D01*
X167467000Y-91349859D01*
G37*
X167467000Y-91349859D02*
X167467000Y-93774316D01*
X167362765Y-93878369D01*
X167267109Y-94108735D01*
X167266891Y-94358171D01*
X167362145Y-94588703D01*
X167538369Y-94765235D01*
X167768735Y-94860891D01*
X168018171Y-94861109D01*
X168240001Y-94769451D01*
X168240001Y-95140594D01*
X167117000Y-95140594D01*
X166995821Y-95163395D01*
X166884526Y-95235012D01*
X166809862Y-95344286D01*
X166799187Y-95397000D01*
X166703918Y-95397000D01*
X166695605Y-95352821D01*
X166623988Y-95241526D01*
X166514714Y-95166862D01*
X166385000Y-95140594D01*
X165085000Y-95140594D01*
X164963821Y-95163395D01*
X164852526Y-95235012D01*
X164777862Y-95344286D01*
X164767187Y-95397000D01*
X164705918Y-95397000D01*
X164697605Y-95352821D01*
X164625988Y-95241526D01*
X164516714Y-95166862D01*
X164387000Y-95140594D01*
X164164000Y-95140594D01*
X164164000Y-88732004D01*
X164131497Y-88568598D01*
X164038935Y-88430069D01*
X164038932Y-88430067D01*
X159497417Y-83888551D01*
X159699688Y-83666947D01*
X159724407Y-83607267D01*
X167467000Y-91349859D01*
G36*
X158544000Y-82765000D02*
X158564000Y-82765000D01*
X158564000Y-83019000D01*
X158544000Y-83019000D01*
X158544000Y-83039000D01*
X158290000Y-83039000D01*
X158290000Y-83019000D01*
X158270000Y-83019000D01*
X158270000Y-82765000D01*
X158290000Y-82765000D01*
X158290000Y-82745000D01*
X158544000Y-82745000D01*
X158544000Y-82765000D01*
X158544000Y-82765000D01*
G37*
X158544000Y-82765000D02*
X158564000Y-82765000D01*
X158564000Y-83019000D01*
X158544000Y-83019000D01*
X158544000Y-83039000D01*
X158290000Y-83039000D01*
X158290000Y-83019000D01*
X158270000Y-83019000D01*
X158270000Y-82765000D01*
X158290000Y-82765000D01*
X158290000Y-82745000D01*
X158544000Y-82745000D01*
X158544000Y-82765000D01*
M02*
