G04 #@! TF.FileFunction,Copper,L1,Top,Signal*
%FSLAX46Y46*%
G04 Gerber Fmt 4.6, Leading zero omitted, Abs format (unit mm)*
G04 Created by KiCad (PCBNEW 4.0.0-rc1-stable) date Sun 01 Nov 2015 11:45:38 AM ICT*
%MOMM*%
G01*
G04 APERTURE LIST*
%ADD10C,0.100000*%
%ADD11C,1.501140*%
%ADD12R,1.049020X0.599440*%
%ADD13R,1.501140X1.049020*%
%ADD14C,4.064000*%
%ADD15R,2.880360X1.120140*%
%ADD16C,3.048000*%
%ADD17R,1.727200X1.727200*%
%ADD18O,1.727200X1.727200*%
%ADD19R,1.350000X0.400000*%
%ADD20O,0.950000X1.250000*%
%ADD21O,1.550000X1.000000*%
%ADD22R,0.889000X0.609600*%
%ADD23R,1.250000X1.000000*%
%ADD24R,1.300000X0.700000*%
%ADD25R,1.300000X3.500000*%
%ADD26R,2.499360X1.800860*%
%ADD27R,1.000000X1.250000*%
%ADD28C,0.600000*%
%ADD29C,0.250000*%
%ADD30C,0.254000*%
G04 APERTURE END LIST*
D10*
D11*
X167259000Y-112268000D03*
X164719000Y-112268000D03*
D12*
X133985000Y-104099360D03*
X133985000Y-105199180D03*
X133985000Y-106299000D03*
X133985000Y-107398820D03*
X133985000Y-108498640D03*
X133985000Y-109598460D03*
X133985000Y-110698280D03*
X133985000Y-111798100D03*
D13*
X136514840Y-100543360D03*
X136514840Y-113995200D03*
X128115060Y-100543360D03*
X128115060Y-113995200D03*
D14*
X129286000Y-119570500D03*
D15*
X155676600Y-105895140D03*
X155676600Y-103395780D03*
X155676600Y-101394260D03*
X155676600Y-98894900D03*
D16*
X159258000Y-108966000D03*
X159258000Y-95824040D03*
D14*
X164846000Y-84010500D03*
X129286000Y-84010500D03*
X164782500Y-119570500D03*
D17*
X137922000Y-117983000D03*
D18*
X137922000Y-120523000D03*
X140462000Y-117983000D03*
X140462000Y-120523000D03*
X143002000Y-117983000D03*
X143002000Y-120523000D03*
X145542000Y-117983000D03*
X145542000Y-120523000D03*
X148082000Y-117983000D03*
X148082000Y-120523000D03*
X150622000Y-117983000D03*
X150622000Y-120523000D03*
X153162000Y-117983000D03*
X153162000Y-120523000D03*
X155702000Y-117983000D03*
X155702000Y-120523000D03*
D17*
X155756000Y-85540000D03*
D18*
X155756000Y-83000000D03*
X153216000Y-85540000D03*
X153216000Y-83000000D03*
X150676000Y-85540000D03*
X150676000Y-83000000D03*
X148136000Y-85540000D03*
X148136000Y-83000000D03*
X145596000Y-85540000D03*
X145596000Y-83000000D03*
X143056000Y-85540000D03*
X143056000Y-83000000D03*
X140516000Y-85540000D03*
X140516000Y-83000000D03*
X137976000Y-85540000D03*
X137976000Y-83000000D03*
D19*
X129954000Y-91862000D03*
X129954000Y-92512000D03*
X129954000Y-93162000D03*
X129954000Y-93812000D03*
X129954000Y-94462000D03*
D20*
X129954000Y-90662000D03*
X129954000Y-95662000D03*
D21*
X127254000Y-89662000D03*
X127254000Y-96662000D03*
D22*
X142494000Y-102616000D03*
X142494000Y-100711000D03*
X145034000Y-100711000D03*
X145034000Y-101663500D03*
X145034000Y-102616000D03*
X143002000Y-111569500D03*
X143002000Y-109664500D03*
X145542000Y-109664500D03*
X145542000Y-110617000D03*
X145542000Y-111569500D03*
X142621000Y-92773500D03*
X142621000Y-90868500D03*
X145161000Y-90868500D03*
X145161000Y-91821000D03*
X145161000Y-92773500D03*
D23*
X140462000Y-90948000D03*
X140462000Y-92948000D03*
X151765000Y-92821000D03*
X151765000Y-90821000D03*
D24*
X149479000Y-92649000D03*
X149479000Y-94549000D03*
X147193000Y-94549000D03*
X147193000Y-92649000D03*
D23*
X140335000Y-100727000D03*
X140335000Y-102727000D03*
X140970000Y-109744000D03*
X140970000Y-111744000D03*
X151384000Y-111744000D03*
X151384000Y-109744000D03*
X150876000Y-102727000D03*
X150876000Y-100727000D03*
D24*
X149352000Y-111760000D03*
X149352000Y-113660000D03*
X147320000Y-113660000D03*
X147320000Y-111760000D03*
X148844000Y-102428000D03*
X148844000Y-104328000D03*
X146812000Y-104328000D03*
X146812000Y-102428000D03*
D25*
X147236000Y-89789000D03*
X149436000Y-89789000D03*
X146728000Y-99568000D03*
X148928000Y-99568000D03*
X147236000Y-108839000D03*
X149436000Y-108839000D03*
D23*
X163576000Y-91043000D03*
X163576000Y-89043000D03*
D26*
X158589980Y-89408000D03*
X154592020Y-89408000D03*
D24*
X161417000Y-89093000D03*
X161417000Y-90993000D03*
D27*
X140938000Y-107442000D03*
X138938000Y-107442000D03*
D23*
X155702000Y-110220000D03*
X155702000Y-108220000D03*
D27*
X134604000Y-90170000D03*
X132604000Y-90170000D03*
D11*
X135001000Y-96012000D03*
X135001000Y-93472000D03*
D27*
X134858000Y-115443000D03*
X132858000Y-115443000D03*
D28*
X157734000Y-111379000D03*
X160274000Y-114046000D03*
X139827000Y-111125000D03*
X138938000Y-102616000D03*
X152146000Y-102743000D03*
X135763000Y-90170000D03*
X155702000Y-109220002D03*
X144089498Y-100965000D03*
X161544000Y-91821000D03*
X140462000Y-93980000D03*
X147193000Y-93472000D03*
X152273000Y-93980000D03*
X157988000Y-98806000D03*
X135128000Y-109601000D03*
X136525000Y-112903000D03*
X136652000Y-101600000D03*
X128143000Y-112776000D03*
X128143000Y-101854000D03*
X131318000Y-94488000D03*
X132715000Y-102616000D03*
X135509000Y-104013000D03*
X132461000Y-104521000D03*
X135509000Y-105156000D03*
X132461000Y-106426000D03*
X135636000Y-106299000D03*
X135763000Y-108458000D03*
X132588000Y-109728000D03*
X135636000Y-110871000D03*
X132461000Y-111633000D03*
X135636000Y-111887000D03*
X130302000Y-108077000D03*
X159766000Y-101981000D03*
X159639000Y-103759000D03*
X131445000Y-93218000D03*
X131826000Y-92487010D03*
D29*
X140970000Y-109744000D02*
X140845000Y-109744000D01*
X140845000Y-109744000D02*
X139779001Y-108678001D01*
X139779001Y-108678001D02*
X139779001Y-104382003D01*
X139779001Y-104382003D02*
X138312999Y-102916001D01*
X138312999Y-102916001D02*
X138312999Y-101874001D01*
X138312999Y-101874001D02*
X139460000Y-100727000D01*
X139460000Y-100727000D02*
X140335000Y-100727000D01*
X160274000Y-114046000D02*
X162052000Y-112268000D01*
X162052000Y-112268000D02*
X164719000Y-112268000D01*
X129954000Y-91862000D02*
X134393440Y-91862000D01*
X134393440Y-91862000D02*
X137913490Y-91862000D01*
X135001000Y-93472000D02*
X135001000Y-92410534D01*
X135001000Y-92410534D02*
X134452466Y-91862000D01*
X134452466Y-91862000D02*
X134393440Y-91862000D01*
X157734000Y-111379000D02*
X157408999Y-111053999D01*
X157408999Y-111053999D02*
X157408999Y-109801999D01*
X157408999Y-109801999D02*
X155827000Y-108220000D01*
X155827000Y-108220000D02*
X155702000Y-108220000D01*
X129954000Y-91862000D02*
X131037000Y-91862000D01*
X131037000Y-91862000D02*
X132604000Y-90295000D01*
X132604000Y-90295000D02*
X132604000Y-90170000D01*
X155702000Y-108220000D02*
X155702000Y-105920540D01*
X155702000Y-105920540D02*
X155676600Y-105895140D01*
X145034000Y-102616000D02*
X145173700Y-102616000D01*
X145173700Y-102616000D02*
X146210699Y-103652999D01*
X146210699Y-103652999D02*
X152554349Y-103652999D01*
X152554349Y-103652999D02*
X154796490Y-105895140D01*
X154796490Y-105895140D02*
X155676600Y-105895140D01*
X143002000Y-109664500D02*
X143141700Y-109664500D01*
X143141700Y-109664500D02*
X145046700Y-111569500D01*
X145046700Y-111569500D02*
X145542000Y-111569500D01*
X140970000Y-109744000D02*
X142922500Y-109744000D01*
X142922500Y-109744000D02*
X143002000Y-109664500D01*
X142494000Y-100711000D02*
X142633700Y-100711000D01*
X142633700Y-100711000D02*
X144538700Y-102616000D01*
X144538700Y-102616000D02*
X145034000Y-102616000D01*
X137913490Y-98430490D02*
X137913490Y-98038508D01*
X137913490Y-98038508D02*
X137913490Y-91862000D01*
X137913490Y-91862000D02*
X140298000Y-91862000D01*
X140335000Y-100727000D02*
X140210000Y-100727000D01*
X140210000Y-100727000D02*
X137913490Y-98430490D01*
X140335000Y-100727000D02*
X142478000Y-100727000D01*
X142478000Y-100727000D02*
X142494000Y-100711000D01*
X140298000Y-91862000D02*
X140462000Y-91698000D01*
X140462000Y-91698000D02*
X140462000Y-90948000D01*
X142621000Y-90868500D02*
X142621000Y-91423300D01*
X144466500Y-92773500D02*
X145161000Y-92773500D01*
X142621000Y-91423300D02*
X143971200Y-92773500D01*
X143971200Y-92773500D02*
X144466500Y-92773500D01*
X140462000Y-90948000D02*
X142541500Y-90948000D01*
X142541500Y-90948000D02*
X142621000Y-90868500D01*
X134858000Y-115443000D02*
X135067040Y-115443000D01*
X135067040Y-115443000D02*
X136514840Y-113995200D01*
X140970000Y-111744000D02*
X140446000Y-111744000D01*
X140446000Y-111744000D02*
X139827000Y-111125000D01*
X147320000Y-111760000D02*
X147320000Y-112360000D01*
X147320000Y-112360000D02*
X147454000Y-112494000D01*
X151259000Y-111744000D02*
X151384000Y-111744000D01*
X147454000Y-112494000D02*
X150509000Y-112494000D01*
X150509000Y-112494000D02*
X151259000Y-111744000D01*
X140335000Y-102727000D02*
X139049000Y-102727000D01*
X139049000Y-102727000D02*
X138938000Y-102616000D01*
X150876000Y-102727000D02*
X152130000Y-102727000D01*
X152130000Y-102727000D02*
X152146000Y-102743000D01*
X134604000Y-90170000D02*
X135763000Y-90170000D01*
X142240000Y-107442000D02*
X142240000Y-104507000D01*
X142240000Y-104507000D02*
X140460000Y-102727000D01*
X140460000Y-102727000D02*
X140335000Y-102727000D01*
X144500546Y-109790179D02*
X142240000Y-107529633D01*
X142240000Y-107529633D02*
X142240000Y-107442000D01*
X155702000Y-110220000D02*
X155702000Y-109220002D01*
X140938000Y-107442000D02*
X142240000Y-107442000D01*
X145542000Y-110617000D02*
X144847500Y-110617000D01*
X144847500Y-110617000D02*
X144500546Y-110270046D01*
X144500546Y-110270046D02*
X144500546Y-109790179D01*
X145542000Y-110617000D02*
X145839001Y-110914001D01*
X145839001Y-110914001D02*
X146174001Y-110914001D01*
X146174001Y-110914001D02*
X147020000Y-111760000D01*
X147020000Y-111760000D02*
X147320000Y-111760000D01*
X145034000Y-101663500D02*
X144339500Y-101663500D01*
X144339500Y-101663500D02*
X144089498Y-101413498D01*
X144089498Y-101413498D02*
X144089498Y-100965000D01*
X161417000Y-90993000D02*
X161417000Y-91694000D01*
X161417000Y-91694000D02*
X161544000Y-91821000D01*
X161417000Y-90993000D02*
X163526000Y-90993000D01*
X163526000Y-90993000D02*
X163576000Y-91043000D01*
X140462000Y-92948000D02*
X140462000Y-93980000D01*
X147193000Y-92649000D02*
X147193000Y-93472000D01*
X151765000Y-92821000D02*
X151765000Y-93472000D01*
X151765000Y-93472000D02*
X152273000Y-93980000D01*
X155676600Y-98894900D02*
X157899100Y-98894900D01*
X157899100Y-98894900D02*
X157988000Y-98806000D01*
X133985000Y-109598460D02*
X135125460Y-109598460D01*
X135125460Y-109598460D02*
X135128000Y-109601000D01*
X136514840Y-113995200D02*
X136514840Y-112913160D01*
X136514840Y-112913160D02*
X136525000Y-112903000D01*
X136514840Y-100543360D02*
X136514840Y-101462840D01*
X136514840Y-101462840D02*
X136652000Y-101600000D01*
X128115060Y-113995200D02*
X128115060Y-112803940D01*
X128115060Y-112803940D02*
X128143000Y-112776000D01*
X128115060Y-100543360D02*
X128115060Y-101826060D01*
X128115060Y-101826060D02*
X128143000Y-101854000D01*
X129954000Y-94462000D02*
X131292000Y-94462000D01*
X131292000Y-94462000D02*
X131318000Y-94488000D01*
X129954000Y-93812000D02*
X129954000Y-94462000D01*
X146812000Y-102428000D02*
X146047500Y-101663500D01*
X146047500Y-101663500D02*
X145034000Y-101663500D01*
X147193000Y-92649000D02*
X146365000Y-91821000D01*
X146365000Y-91821000D02*
X145161000Y-91821000D01*
X133985000Y-104099360D02*
X133985000Y-103886000D01*
X133985000Y-103886000D02*
X132715000Y-102616000D01*
X135509000Y-104013000D02*
X134071360Y-104013000D01*
X134071360Y-104013000D02*
X133985000Y-104099360D01*
X133985000Y-105199180D02*
X133139180Y-105199180D01*
X133139180Y-105199180D02*
X132461000Y-104521000D01*
X135509000Y-105156000D02*
X134028180Y-105156000D01*
X134028180Y-105156000D02*
X133985000Y-105199180D01*
X133985000Y-106299000D02*
X132588000Y-106299000D01*
X132588000Y-106299000D02*
X132461000Y-106426000D01*
X135636000Y-106299000D02*
X133985000Y-106299000D01*
X135763000Y-108458000D02*
X134025640Y-108458000D01*
X134025640Y-108458000D02*
X133985000Y-108498640D01*
X133985000Y-110698280D02*
X133558280Y-110698280D01*
X133558280Y-110698280D02*
X132588000Y-109728000D01*
X135636000Y-110871000D02*
X134157720Y-110871000D01*
X134157720Y-110871000D02*
X133985000Y-110698280D01*
X133985000Y-111798100D02*
X132626100Y-111798100D01*
X132626100Y-111798100D02*
X132461000Y-111633000D01*
X135636000Y-111887000D02*
X134073900Y-111887000D01*
X134073900Y-111887000D02*
X133985000Y-111798100D01*
X151983999Y-114335001D02*
X152334001Y-113984999D01*
X152334001Y-110569001D02*
X151509000Y-109744000D01*
X152334001Y-113984999D02*
X152334001Y-110569001D01*
X151509000Y-109744000D02*
X151384000Y-109744000D01*
X140462000Y-120523000D02*
X141813399Y-119171601D01*
X141813399Y-119171601D02*
X141813399Y-117412471D01*
X144890869Y-114335001D02*
X151983999Y-114335001D01*
X141813399Y-117412471D02*
X144890869Y-114335001D01*
X149352000Y-111760000D02*
X149352000Y-108923000D01*
X149352000Y-108923000D02*
X149436000Y-108839000D01*
X149436000Y-108839000D02*
X151229000Y-108839000D01*
X151229000Y-108839000D02*
X151384000Y-108994000D01*
X151384000Y-108994000D02*
X151384000Y-109744000D01*
X151751000Y-99977000D02*
X151001000Y-100727000D01*
X144353399Y-117412471D02*
X146703870Y-115062000D01*
X144353399Y-119171601D02*
X144353399Y-117412471D01*
X156843590Y-115062000D02*
X161107001Y-110798589D01*
X143002000Y-120523000D02*
X144353399Y-119171601D01*
X146703870Y-115062000D02*
X156843590Y-115062000D01*
X161107001Y-110798589D02*
X161107001Y-101740049D01*
X151001000Y-100727000D02*
X150876000Y-100727000D01*
X161107001Y-101740049D02*
X159343952Y-99977000D01*
X159343952Y-99977000D02*
X151751000Y-99977000D01*
X150876000Y-100727000D02*
X150751000Y-100727000D01*
X150751000Y-100727000D02*
X149050000Y-102428000D01*
X149050000Y-102428000D02*
X148844000Y-102428000D01*
X148928000Y-99568000D02*
X149717000Y-99568000D01*
X149717000Y-99568000D02*
X150876000Y-100727000D01*
X131835999Y-108773311D02*
X131835999Y-114807136D01*
X131835999Y-114807136D02*
X131835999Y-116196129D01*
X132858000Y-115443000D02*
X132108000Y-115443000D01*
X132108000Y-115443000D02*
X131835999Y-115170999D01*
X131835999Y-115170999D02*
X131835999Y-114807136D01*
X148793859Y-115512011D02*
X156935470Y-115512011D01*
X152640000Y-90821000D02*
X156991482Y-90821000D01*
X156991482Y-90821000D02*
X161671000Y-95500518D01*
X161671000Y-95500518D02*
X161671000Y-110871000D01*
X157029991Y-115512009D02*
X156935472Y-115512009D01*
X161671000Y-110871000D02*
X157029991Y-115512009D01*
X156935472Y-115512009D02*
X156935470Y-115512011D01*
X131835999Y-108773311D02*
X130998311Y-108773311D01*
X130998311Y-108773311D02*
X130302000Y-108077000D01*
X137351471Y-121711601D02*
X133662371Y-118022501D01*
X133662371Y-118022501D02*
X133135489Y-117495619D01*
X133985000Y-107398820D02*
X133210490Y-107398820D01*
X133210490Y-107398820D02*
X131835999Y-108773311D01*
X131835999Y-116196129D02*
X133662371Y-118022501D01*
X138938000Y-107442000D02*
X134028180Y-107442000D01*
X134028180Y-107442000D02*
X133985000Y-107398820D01*
X133814820Y-107569000D02*
X133985000Y-107398820D01*
X145542000Y-120523000D02*
X144353399Y-121711601D01*
X144353399Y-121711601D02*
X137351471Y-121711601D01*
X133760210Y-107398820D02*
X133985000Y-107398820D01*
X154592020Y-89408000D02*
X154242770Y-89408000D01*
X154242770Y-89408000D02*
X152829770Y-90821000D01*
X152829770Y-90821000D02*
X152640000Y-90821000D01*
X152640000Y-90821000D02*
X151765000Y-90821000D01*
X146893399Y-119171601D02*
X146893399Y-117412471D01*
X146893399Y-117412471D02*
X148793859Y-115512011D01*
X145542000Y-120523000D02*
X146893399Y-119171601D01*
X149479000Y-92649000D02*
X149479000Y-89832000D01*
X149479000Y-89832000D02*
X149436000Y-89789000D01*
X149436000Y-89789000D02*
X151483000Y-89789000D01*
X151483000Y-89789000D02*
X151765000Y-90071000D01*
X151765000Y-90071000D02*
X151765000Y-90821000D01*
X155676600Y-101394260D02*
X159179260Y-101394260D01*
X159179260Y-101394260D02*
X159766000Y-101981000D01*
X155676600Y-103395780D02*
X159275780Y-103395780D01*
X159275780Y-103395780D02*
X159639000Y-103759000D01*
X131445000Y-93218000D02*
X130010000Y-93218000D01*
X130010000Y-93218000D02*
X129954000Y-93162000D01*
X131826000Y-92487010D02*
X129978990Y-92487010D01*
X129978990Y-92487010D02*
X129954000Y-92512000D01*
X153216000Y-83000000D02*
X154544000Y-84328000D01*
X154544000Y-84328000D02*
X157356375Y-84328000D01*
X157356375Y-84328000D02*
X161417000Y-88388625D01*
X161417000Y-88388625D02*
X161417000Y-89093000D01*
X161417000Y-89093000D02*
X163526000Y-89093000D01*
X163526000Y-89093000D02*
X163576000Y-89043000D01*
X158589980Y-89408000D02*
X161102000Y-89408000D01*
X161102000Y-89408000D02*
X161417000Y-89093000D01*
X142621000Y-92773500D02*
X142621000Y-93328300D01*
X142621000Y-93328300D02*
X143841700Y-94549000D01*
X143841700Y-94549000D02*
X148579000Y-94549000D01*
X148579000Y-94549000D02*
X149479000Y-94549000D01*
X142621000Y-92773500D02*
X142760700Y-92773500D01*
X145161000Y-90868500D02*
X146156500Y-90868500D01*
X146156500Y-90868500D02*
X147236000Y-89789000D01*
X145034000Y-100711000D02*
X145585000Y-100711000D01*
X145585000Y-100711000D02*
X146728000Y-99568000D01*
X145542000Y-109664500D02*
X146410500Y-109664500D01*
X146410500Y-109664500D02*
X147236000Y-108839000D01*
X147320000Y-113660000D02*
X144537700Y-113660000D01*
X144537700Y-113660000D02*
X143002000Y-112124300D01*
X143002000Y-112124300D02*
X143002000Y-111569500D01*
X147320000Y-113660000D02*
X149352000Y-113660000D01*
X142494000Y-102616000D02*
X143188500Y-102616000D01*
X143188500Y-102616000D02*
X144900500Y-104328000D01*
X144900500Y-104328000D02*
X145912000Y-104328000D01*
X145912000Y-104328000D02*
X146812000Y-104328000D01*
X148844000Y-104328000D02*
X146812000Y-104328000D01*
D30*
G36*
X166259005Y-80303498D02*
X167672221Y-81247779D01*
X168616502Y-82660997D01*
X168962000Y-84397931D01*
X168962000Y-119310069D01*
X168616502Y-121047003D01*
X167672221Y-122460221D01*
X166259005Y-123404502D01*
X164522069Y-123750000D01*
X162658545Y-123750000D01*
X127788496Y-123348040D01*
X126459779Y-122460221D01*
X125515498Y-121047005D01*
X125326863Y-120098672D01*
X126618538Y-120098672D01*
X127023709Y-121079261D01*
X127773293Y-121830155D01*
X128753173Y-122237036D01*
X129814172Y-122237962D01*
X130794761Y-121832791D01*
X131545655Y-121083207D01*
X131952536Y-120103327D01*
X131953462Y-119042328D01*
X131548291Y-118061739D01*
X130798707Y-117310845D01*
X129818827Y-116903964D01*
X128757828Y-116903038D01*
X127777239Y-117308209D01*
X127026345Y-118057793D01*
X126619464Y-119037673D01*
X126618538Y-120098672D01*
X125326863Y-120098672D01*
X125186898Y-119395020D01*
X125170000Y-117446133D01*
X125170000Y-114280950D01*
X126729490Y-114280950D01*
X126729490Y-114646019D01*
X126826163Y-114879408D01*
X127004791Y-115058037D01*
X127238180Y-115154710D01*
X127829310Y-115154710D01*
X127988060Y-114995960D01*
X127988060Y-114122200D01*
X128242060Y-114122200D01*
X128242060Y-114995960D01*
X128400810Y-115154710D01*
X128991940Y-115154710D01*
X129225329Y-115058037D01*
X129403957Y-114879408D01*
X129500630Y-114646019D01*
X129500630Y-114280950D01*
X129341880Y-114122200D01*
X128242060Y-114122200D01*
X127988060Y-114122200D01*
X126888240Y-114122200D01*
X126729490Y-114280950D01*
X125170000Y-114280950D01*
X125170000Y-113344381D01*
X126729490Y-113344381D01*
X126729490Y-113709450D01*
X126888240Y-113868200D01*
X127988060Y-113868200D01*
X127988060Y-112994440D01*
X128242060Y-112994440D01*
X128242060Y-113868200D01*
X129341880Y-113868200D01*
X129500630Y-113709450D01*
X129500630Y-113344381D01*
X129403957Y-113110992D01*
X129225329Y-112932363D01*
X128991940Y-112835690D01*
X128400810Y-112835690D01*
X128242060Y-112994440D01*
X127988060Y-112994440D01*
X127829310Y-112835690D01*
X127238180Y-112835690D01*
X127004791Y-112932363D01*
X126826163Y-113110992D01*
X126729490Y-113344381D01*
X125170000Y-113344381D01*
X125170000Y-100829110D01*
X126729490Y-100829110D01*
X126729490Y-101194179D01*
X126826163Y-101427568D01*
X127004791Y-101606197D01*
X127238180Y-101702870D01*
X127829310Y-101702870D01*
X127988060Y-101544120D01*
X127988060Y-100670360D01*
X128242060Y-100670360D01*
X128242060Y-101544120D01*
X128400810Y-101702870D01*
X128991940Y-101702870D01*
X129225329Y-101606197D01*
X129403957Y-101427568D01*
X129500630Y-101194179D01*
X129500630Y-100829110D01*
X135129270Y-100829110D01*
X135129270Y-101194179D01*
X135225943Y-101427568D01*
X135404571Y-101606197D01*
X135637960Y-101702870D01*
X136229090Y-101702870D01*
X136387840Y-101544120D01*
X136387840Y-100670360D01*
X135288020Y-100670360D01*
X135129270Y-100829110D01*
X129500630Y-100829110D01*
X129341880Y-100670360D01*
X128242060Y-100670360D01*
X127988060Y-100670360D01*
X126888240Y-100670360D01*
X126729490Y-100829110D01*
X125170000Y-100829110D01*
X125170000Y-99892541D01*
X126729490Y-99892541D01*
X126729490Y-100257610D01*
X126888240Y-100416360D01*
X127988060Y-100416360D01*
X127988060Y-99542600D01*
X128242060Y-99542600D01*
X128242060Y-100416360D01*
X129341880Y-100416360D01*
X129500630Y-100257610D01*
X129500630Y-99892541D01*
X135129270Y-99892541D01*
X135129270Y-100257610D01*
X135288020Y-100416360D01*
X136387840Y-100416360D01*
X136387840Y-99542600D01*
X136641840Y-99542600D01*
X136641840Y-100416360D01*
X137741660Y-100416360D01*
X137900410Y-100257610D01*
X137900410Y-99892541D01*
X137803737Y-99659152D01*
X137625109Y-99480523D01*
X137391720Y-99383850D01*
X136800590Y-99383850D01*
X136641840Y-99542600D01*
X136387840Y-99542600D01*
X136229090Y-99383850D01*
X135637960Y-99383850D01*
X135404571Y-99480523D01*
X135225943Y-99659152D01*
X135129270Y-99892541D01*
X129500630Y-99892541D01*
X129403957Y-99659152D01*
X129225329Y-99480523D01*
X128991940Y-99383850D01*
X128400810Y-99383850D01*
X128242060Y-99542600D01*
X127988060Y-99542600D01*
X127829310Y-99383850D01*
X127238180Y-99383850D01*
X127004791Y-99480523D01*
X126826163Y-99659152D01*
X126729490Y-99892541D01*
X125170000Y-99892541D01*
X125170000Y-96662000D01*
X125816376Y-96662000D01*
X125902773Y-97096346D01*
X126148810Y-97464566D01*
X126517030Y-97710603D01*
X126951376Y-97797000D01*
X127556624Y-97797000D01*
X127990970Y-97710603D01*
X128359190Y-97464566D01*
X128605227Y-97096346D01*
X128627587Y-96983930D01*
X134208675Y-96983930D01*
X134276735Y-97224931D01*
X134796034Y-97409767D01*
X135346538Y-97381805D01*
X135725265Y-97224931D01*
X135793325Y-96983930D01*
X135001000Y-96191605D01*
X134208675Y-96983930D01*
X128627587Y-96983930D01*
X128691624Y-96662000D01*
X128605227Y-96227654D01*
X128359190Y-95859434D01*
X127990970Y-95613397D01*
X127556624Y-95527000D01*
X126951376Y-95527000D01*
X126517030Y-95613397D01*
X126148810Y-95859434D01*
X125902773Y-96227654D01*
X125816376Y-96662000D01*
X125170000Y-96662000D01*
X125170000Y-91662000D01*
X128631560Y-91662000D01*
X128631560Y-92062000D01*
X128655944Y-92191589D01*
X128631560Y-92312000D01*
X128631560Y-92712000D01*
X128655944Y-92841589D01*
X128631560Y-92962000D01*
X128631560Y-93362000D01*
X128651450Y-93467705D01*
X128644000Y-93485690D01*
X128644000Y-93553250D01*
X128673004Y-93582254D01*
X128675838Y-93597317D01*
X128814910Y-93813441D01*
X128823598Y-93819377D01*
X128740673Y-93902301D01*
X128689920Y-94024830D01*
X128644000Y-94070750D01*
X128644000Y-94203250D01*
X128689920Y-94249170D01*
X128740673Y-94371699D01*
X128919302Y-94550327D01*
X128947483Y-94562000D01*
X128802750Y-94562000D01*
X128644000Y-94720750D01*
X128644000Y-94788310D01*
X128740673Y-95021699D01*
X128904108Y-95185133D01*
X128844000Y-95487315D01*
X128844000Y-95836685D01*
X128928494Y-96261464D01*
X129169111Y-96621574D01*
X129529221Y-96862191D01*
X129954000Y-96946685D01*
X130378779Y-96862191D01*
X130738889Y-96621574D01*
X130979506Y-96261464D01*
X131064000Y-95836685D01*
X131064000Y-95807034D01*
X133603233Y-95807034D01*
X133631195Y-96357538D01*
X133788069Y-96736265D01*
X134029070Y-96804325D01*
X134821395Y-96012000D01*
X135180605Y-96012000D01*
X135972930Y-96804325D01*
X136213931Y-96736265D01*
X136398767Y-96216966D01*
X136370805Y-95666462D01*
X136213931Y-95287735D01*
X135972930Y-95219675D01*
X135180605Y-96012000D01*
X134821395Y-96012000D01*
X134029070Y-95219675D01*
X133788069Y-95287735D01*
X133603233Y-95807034D01*
X131064000Y-95807034D01*
X131064000Y-95487315D01*
X131003892Y-95185133D01*
X131167327Y-95021699D01*
X131264000Y-94788310D01*
X131264000Y-94720750D01*
X131105250Y-94562000D01*
X130960517Y-94562000D01*
X130988698Y-94550327D01*
X131167327Y-94371699D01*
X131218080Y-94249170D01*
X131264000Y-94203250D01*
X131264000Y-94152843D01*
X131630167Y-94153162D01*
X131973943Y-94011117D01*
X132237192Y-93748327D01*
X132379838Y-93404799D01*
X132379968Y-93255145D01*
X132618192Y-93017337D01*
X132760838Y-92673809D01*
X132760883Y-92622000D01*
X133891281Y-92622000D01*
X133827056Y-92686113D01*
X133615671Y-93195184D01*
X133615190Y-93746398D01*
X133825686Y-94255837D01*
X134215113Y-94645944D01*
X134430496Y-94735379D01*
X134276735Y-94799069D01*
X134208675Y-95040070D01*
X135001000Y-95832395D01*
X135793325Y-95040070D01*
X135725265Y-94799069D01*
X135559960Y-94740231D01*
X135784837Y-94647314D01*
X136174944Y-94257887D01*
X136386329Y-93748816D01*
X136386810Y-93197602D01*
X136176314Y-92688163D01*
X136110266Y-92622000D01*
X137153490Y-92622000D01*
X137153490Y-98430490D01*
X137211342Y-98721329D01*
X137376089Y-98967891D01*
X138760198Y-100352000D01*
X137887959Y-101224239D01*
X137900410Y-101194179D01*
X137900410Y-100829110D01*
X137741660Y-100670360D01*
X136641840Y-100670360D01*
X136641840Y-101544120D01*
X136800590Y-101702870D01*
X137391720Y-101702870D01*
X137604577Y-101614701D01*
X137552999Y-101874001D01*
X137552999Y-102916001D01*
X137610851Y-103206840D01*
X137775598Y-103453402D01*
X139019001Y-104696805D01*
X139019001Y-106169560D01*
X138438000Y-106169560D01*
X138202683Y-106213838D01*
X137986559Y-106352910D01*
X137841569Y-106565110D01*
X137817898Y-106682000D01*
X136489368Y-106682000D01*
X136570838Y-106485799D01*
X136571162Y-106113833D01*
X136429117Y-105770057D01*
X136314218Y-105654957D01*
X136443838Y-105342799D01*
X136444162Y-104970833D01*
X136302117Y-104627057D01*
X136259790Y-104584656D01*
X136301192Y-104543327D01*
X136443838Y-104199799D01*
X136444162Y-103827833D01*
X136302117Y-103484057D01*
X136039327Y-103220808D01*
X135695799Y-103078162D01*
X135323833Y-103077838D01*
X134980057Y-103219883D01*
X134946882Y-103253000D01*
X134834272Y-103253000D01*
X134761400Y-103203209D01*
X134509510Y-103152200D01*
X134326002Y-103152200D01*
X133650122Y-102476320D01*
X133650162Y-102430833D01*
X133508117Y-102087057D01*
X133245327Y-101823808D01*
X132901799Y-101681162D01*
X132529833Y-101680838D01*
X132186057Y-101822883D01*
X131922808Y-102085673D01*
X131780162Y-102429201D01*
X131779838Y-102801167D01*
X131921883Y-103144943D01*
X132184673Y-103408192D01*
X132528201Y-103550838D01*
X132575077Y-103550879D01*
X132610327Y-103586129D01*
X132275833Y-103585838D01*
X131932057Y-103727883D01*
X131668808Y-103990673D01*
X131526162Y-104334201D01*
X131525838Y-104706167D01*
X131667883Y-105049943D01*
X131930673Y-105313192D01*
X132274201Y-105455838D01*
X132321077Y-105455879D01*
X132356106Y-105490908D01*
X132275833Y-105490838D01*
X131932057Y-105632883D01*
X131668808Y-105895673D01*
X131526162Y-106239201D01*
X131525838Y-106611167D01*
X131667883Y-106954943D01*
X131930673Y-107218192D01*
X132203166Y-107331342D01*
X131521197Y-108013311D01*
X131313113Y-108013311D01*
X131237122Y-107937320D01*
X131237162Y-107891833D01*
X131095117Y-107548057D01*
X130832327Y-107284808D01*
X130488799Y-107142162D01*
X130116833Y-107141838D01*
X129773057Y-107283883D01*
X129509808Y-107546673D01*
X129367162Y-107890201D01*
X129366838Y-108262167D01*
X129508883Y-108605943D01*
X129771673Y-108869192D01*
X130115201Y-109011838D01*
X130162077Y-109011879D01*
X130460910Y-109310712D01*
X130707471Y-109475459D01*
X130755725Y-109485057D01*
X130998311Y-109533311D01*
X131075999Y-109533311D01*
X131075999Y-116196129D01*
X131133851Y-116486968D01*
X131298598Y-116733530D01*
X136814070Y-122249002D01*
X137060631Y-122413749D01*
X137351471Y-122471601D01*
X144353399Y-122471601D01*
X144644238Y-122413749D01*
X144890800Y-122249002D01*
X145183644Y-121956158D01*
X145512641Y-122021600D01*
X145571359Y-122021600D01*
X146144848Y-121907526D01*
X146631029Y-121582670D01*
X146812000Y-121311828D01*
X146992971Y-121582670D01*
X147479152Y-121907526D01*
X148052641Y-122021600D01*
X148111359Y-122021600D01*
X148684848Y-121907526D01*
X149171029Y-121582670D01*
X149352000Y-121311828D01*
X149532971Y-121582670D01*
X150019152Y-121907526D01*
X150592641Y-122021600D01*
X150651359Y-122021600D01*
X151224848Y-121907526D01*
X151711029Y-121582670D01*
X151892000Y-121311828D01*
X152072971Y-121582670D01*
X152559152Y-121907526D01*
X153132641Y-122021600D01*
X153191359Y-122021600D01*
X153764848Y-121907526D01*
X154251029Y-121582670D01*
X154432000Y-121311828D01*
X154612971Y-121582670D01*
X155099152Y-121907526D01*
X155672641Y-122021600D01*
X155731359Y-122021600D01*
X156304848Y-121907526D01*
X156791029Y-121582670D01*
X157115885Y-121096489D01*
X157229959Y-120523000D01*
X157145555Y-120098672D01*
X162115038Y-120098672D01*
X162520209Y-121079261D01*
X163269793Y-121830155D01*
X164249673Y-122237036D01*
X165310672Y-122237962D01*
X166291261Y-121832791D01*
X167042155Y-121083207D01*
X167449036Y-120103327D01*
X167449962Y-119042328D01*
X167044791Y-118061739D01*
X166295207Y-117310845D01*
X165315327Y-116903964D01*
X164254328Y-116903038D01*
X163273739Y-117308209D01*
X162522845Y-118057793D01*
X162115964Y-119037673D01*
X162115038Y-120098672D01*
X157145555Y-120098672D01*
X157115885Y-119949511D01*
X156791029Y-119463330D01*
X156476248Y-119253000D01*
X156791029Y-119042670D01*
X157115885Y-118556489D01*
X157229959Y-117983000D01*
X157115885Y-117409511D01*
X156791029Y-116923330D01*
X156304848Y-116598474D01*
X155731359Y-116484400D01*
X155672641Y-116484400D01*
X155099152Y-116598474D01*
X154612971Y-116923330D01*
X154432000Y-117194172D01*
X154251029Y-116923330D01*
X153764848Y-116598474D01*
X153191359Y-116484400D01*
X153132641Y-116484400D01*
X152559152Y-116598474D01*
X152072971Y-116923330D01*
X151892000Y-117194172D01*
X151711029Y-116923330D01*
X151224848Y-116598474D01*
X150651359Y-116484400D01*
X150592641Y-116484400D01*
X150019152Y-116598474D01*
X149532971Y-116923330D01*
X149352000Y-117194172D01*
X149171029Y-116923330D01*
X148743205Y-116637467D01*
X149108661Y-116272011D01*
X156935470Y-116272011D01*
X156935480Y-116272009D01*
X157029991Y-116272009D01*
X157320830Y-116214157D01*
X157567392Y-116049410D01*
X159352521Y-114264281D01*
X159480883Y-114574943D01*
X159743673Y-114838192D01*
X160087201Y-114980838D01*
X160459167Y-114981162D01*
X160802943Y-114839117D01*
X161066192Y-114576327D01*
X161208838Y-114232799D01*
X161208879Y-114185923D01*
X162366802Y-113028000D01*
X163533837Y-113028000D01*
X163543686Y-113051837D01*
X163933113Y-113441944D01*
X164442184Y-113653329D01*
X164993398Y-113653810D01*
X165502837Y-113443314D01*
X165706576Y-113239930D01*
X166466675Y-113239930D01*
X166534735Y-113480931D01*
X167054034Y-113665767D01*
X167604538Y-113637805D01*
X167983265Y-113480931D01*
X168051325Y-113239930D01*
X167259000Y-112447605D01*
X166466675Y-113239930D01*
X165706576Y-113239930D01*
X165892944Y-113053887D01*
X165982379Y-112838504D01*
X166046069Y-112992265D01*
X166287070Y-113060325D01*
X167079395Y-112268000D01*
X167438605Y-112268000D01*
X168230930Y-113060325D01*
X168471931Y-112992265D01*
X168656767Y-112472966D01*
X168628805Y-111922462D01*
X168471931Y-111543735D01*
X168230930Y-111475675D01*
X167438605Y-112268000D01*
X167079395Y-112268000D01*
X166287070Y-111475675D01*
X166046069Y-111543735D01*
X165987231Y-111709040D01*
X165894314Y-111484163D01*
X165706549Y-111296070D01*
X166466675Y-111296070D01*
X167259000Y-112088395D01*
X168051325Y-111296070D01*
X167983265Y-111055069D01*
X167463966Y-110870233D01*
X166913462Y-110898195D01*
X166534735Y-111055069D01*
X166466675Y-111296070D01*
X165706549Y-111296070D01*
X165504887Y-111094056D01*
X164995816Y-110882671D01*
X164444602Y-110882190D01*
X163935163Y-111092686D01*
X163545056Y-111482113D01*
X163534307Y-111508000D01*
X162108802Y-111508000D01*
X162208401Y-111408401D01*
X162373148Y-111161839D01*
X162431000Y-110871000D01*
X162431000Y-95500518D01*
X162373148Y-95209679D01*
X162208401Y-94963117D01*
X158524034Y-91278750D01*
X160132000Y-91278750D01*
X160132000Y-91469309D01*
X160228673Y-91702698D01*
X160407301Y-91881327D01*
X160640690Y-91978000D01*
X161131250Y-91978000D01*
X161290000Y-91819250D01*
X161290000Y-91120000D01*
X161544000Y-91120000D01*
X161544000Y-91819250D01*
X161702750Y-91978000D01*
X162193310Y-91978000D01*
X162407171Y-91889416D01*
X162412673Y-91902698D01*
X162591301Y-92081327D01*
X162824690Y-92178000D01*
X163290250Y-92178000D01*
X163449000Y-92019250D01*
X163449000Y-91170000D01*
X163703000Y-91170000D01*
X163703000Y-92019250D01*
X163861750Y-92178000D01*
X164327310Y-92178000D01*
X164560699Y-92081327D01*
X164739327Y-91902698D01*
X164836000Y-91669309D01*
X164836000Y-91328750D01*
X164677250Y-91170000D01*
X163703000Y-91170000D01*
X163449000Y-91170000D01*
X162593250Y-91170000D01*
X162543250Y-91120000D01*
X161544000Y-91120000D01*
X161290000Y-91120000D01*
X160290750Y-91120000D01*
X160132000Y-91278750D01*
X158524034Y-91278750D01*
X158201154Y-90955870D01*
X159839660Y-90955870D01*
X160074977Y-90911592D01*
X160234008Y-90809258D01*
X160290750Y-90866000D01*
X161290000Y-90866000D01*
X161290000Y-90846000D01*
X161544000Y-90846000D01*
X161544000Y-90866000D01*
X162424750Y-90866000D01*
X162474750Y-90916000D01*
X163449000Y-90916000D01*
X163449000Y-90896000D01*
X163703000Y-90896000D01*
X163703000Y-90916000D01*
X164677250Y-90916000D01*
X164836000Y-90757250D01*
X164836000Y-90416691D01*
X164739327Y-90183302D01*
X164598090Y-90042064D01*
X164652441Y-90007090D01*
X164797431Y-89794890D01*
X164848440Y-89543000D01*
X164848440Y-88543000D01*
X164804162Y-88307683D01*
X164665090Y-88091559D01*
X164452890Y-87946569D01*
X164201000Y-87895560D01*
X162951000Y-87895560D01*
X162715683Y-87939838D01*
X162499559Y-88078910D01*
X162410541Y-88209192D01*
X162318890Y-88146569D01*
X162120875Y-88106470D01*
X162119148Y-88097786D01*
X161954401Y-87851224D01*
X158641849Y-84538672D01*
X162178538Y-84538672D01*
X162583709Y-85519261D01*
X163333293Y-86270155D01*
X164313173Y-86677036D01*
X165374172Y-86677962D01*
X166354761Y-86272791D01*
X167105655Y-85523207D01*
X167512536Y-84543327D01*
X167513462Y-83482328D01*
X167108291Y-82501739D01*
X166358707Y-81750845D01*
X165378827Y-81343964D01*
X164317828Y-81343038D01*
X163337239Y-81748209D01*
X162586345Y-82497793D01*
X162179464Y-83477673D01*
X162178538Y-84538672D01*
X158641849Y-84538672D01*
X157893776Y-83790599D01*
X157647214Y-83625852D01*
X157356375Y-83568000D01*
X157124403Y-83568000D01*
X157210958Y-83359026D01*
X157089817Y-83127000D01*
X155883000Y-83127000D01*
X155883000Y-83147000D01*
X155629000Y-83147000D01*
X155629000Y-83127000D01*
X155609000Y-83127000D01*
X155609000Y-82873000D01*
X155629000Y-82873000D01*
X155629000Y-81665531D01*
X155883000Y-81665531D01*
X155883000Y-82873000D01*
X157089817Y-82873000D01*
X157210958Y-82640974D01*
X157038688Y-82225053D01*
X156644490Y-81793179D01*
X156115027Y-81545032D01*
X155883000Y-81665531D01*
X155629000Y-81665531D01*
X155396973Y-81545032D01*
X154867510Y-81793179D01*
X154485992Y-82211161D01*
X154305029Y-81940330D01*
X153818848Y-81615474D01*
X153245359Y-81501400D01*
X153186641Y-81501400D01*
X152613152Y-81615474D01*
X152126971Y-81940330D01*
X151946000Y-82211172D01*
X151765029Y-81940330D01*
X151278848Y-81615474D01*
X150705359Y-81501400D01*
X150646641Y-81501400D01*
X150073152Y-81615474D01*
X149586971Y-81940330D01*
X149406000Y-82211172D01*
X149225029Y-81940330D01*
X148738848Y-81615474D01*
X148165359Y-81501400D01*
X148106641Y-81501400D01*
X147533152Y-81615474D01*
X147046971Y-81940330D01*
X146866000Y-82211172D01*
X146685029Y-81940330D01*
X146198848Y-81615474D01*
X145625359Y-81501400D01*
X145566641Y-81501400D01*
X144993152Y-81615474D01*
X144506971Y-81940330D01*
X144326000Y-82211172D01*
X144145029Y-81940330D01*
X143658848Y-81615474D01*
X143085359Y-81501400D01*
X143026641Y-81501400D01*
X142453152Y-81615474D01*
X141966971Y-81940330D01*
X141786000Y-82211172D01*
X141605029Y-81940330D01*
X141118848Y-81615474D01*
X140545359Y-81501400D01*
X140486641Y-81501400D01*
X139913152Y-81615474D01*
X139426971Y-81940330D01*
X139246000Y-82211172D01*
X139065029Y-81940330D01*
X138578848Y-81615474D01*
X138005359Y-81501400D01*
X137946641Y-81501400D01*
X137373152Y-81615474D01*
X136886971Y-81940330D01*
X136562115Y-82426511D01*
X136448041Y-83000000D01*
X136562115Y-83573489D01*
X136886971Y-84059670D01*
X137201752Y-84270000D01*
X136886971Y-84480330D01*
X136562115Y-84966511D01*
X136448041Y-85540000D01*
X136562115Y-86113489D01*
X136886971Y-86599670D01*
X137373152Y-86924526D01*
X137946641Y-87038600D01*
X138005359Y-87038600D01*
X138578848Y-86924526D01*
X139065029Y-86599670D01*
X139246000Y-86328828D01*
X139426971Y-86599670D01*
X139913152Y-86924526D01*
X140486641Y-87038600D01*
X140545359Y-87038600D01*
X141118848Y-86924526D01*
X141605029Y-86599670D01*
X141786000Y-86328828D01*
X141966971Y-86599670D01*
X142453152Y-86924526D01*
X143026641Y-87038600D01*
X143085359Y-87038600D01*
X143658848Y-86924526D01*
X144145029Y-86599670D01*
X144326000Y-86328828D01*
X144506971Y-86599670D01*
X144993152Y-86924526D01*
X145566641Y-87038600D01*
X145625359Y-87038600D01*
X146198848Y-86924526D01*
X146685029Y-86599670D01*
X146866000Y-86328828D01*
X147046971Y-86599670D01*
X147533152Y-86924526D01*
X148106641Y-87038600D01*
X148165359Y-87038600D01*
X148738848Y-86924526D01*
X149225029Y-86599670D01*
X149406000Y-86328828D01*
X149586971Y-86599670D01*
X150073152Y-86924526D01*
X150646641Y-87038600D01*
X150705359Y-87038600D01*
X151278848Y-86924526D01*
X151765029Y-86599670D01*
X151946000Y-86328828D01*
X152126971Y-86599670D01*
X152613152Y-86924526D01*
X153186641Y-87038600D01*
X153245359Y-87038600D01*
X153818848Y-86924526D01*
X154284442Y-86613426D01*
X154289238Y-86638917D01*
X154428310Y-86855041D01*
X154640510Y-87000031D01*
X154892400Y-87051040D01*
X156619600Y-87051040D01*
X156854917Y-87006762D01*
X157071041Y-86867690D01*
X157216031Y-86655490D01*
X157267040Y-86403600D01*
X157267040Y-85313467D01*
X159813703Y-87860130D01*
X157340300Y-87860130D01*
X157104983Y-87904408D01*
X156888859Y-88043480D01*
X156743869Y-88255680D01*
X156692860Y-88507570D01*
X156692860Y-90061000D01*
X156489140Y-90061000D01*
X156489140Y-88507570D01*
X156444862Y-88272253D01*
X156305790Y-88056129D01*
X156093590Y-87911139D01*
X155841700Y-87860130D01*
X153342340Y-87860130D01*
X153107023Y-87904408D01*
X152890899Y-88043480D01*
X152745909Y-88255680D01*
X152694900Y-88507570D01*
X152694900Y-89760789D01*
X152641890Y-89724569D01*
X152396846Y-89674946D01*
X152302401Y-89533599D01*
X152020401Y-89251599D01*
X151773839Y-89086852D01*
X151483000Y-89029000D01*
X150733440Y-89029000D01*
X150733440Y-88039000D01*
X150689162Y-87803683D01*
X150550090Y-87587559D01*
X150337890Y-87442569D01*
X150086000Y-87391560D01*
X148786000Y-87391560D01*
X148550683Y-87435838D01*
X148334559Y-87574910D01*
X148333610Y-87576299D01*
X148137890Y-87442569D01*
X147886000Y-87391560D01*
X146586000Y-87391560D01*
X146350683Y-87435838D01*
X146134559Y-87574910D01*
X145989569Y-87787110D01*
X145938560Y-88039000D01*
X145938560Y-90011638D01*
X145931970Y-90018228D01*
X145857390Y-89967269D01*
X145605500Y-89916260D01*
X144716500Y-89916260D01*
X144481183Y-89960538D01*
X144265059Y-90099610D01*
X144120069Y-90311810D01*
X144069060Y-90563700D01*
X144069060Y-91173300D01*
X144100970Y-91342886D01*
X144081500Y-91389891D01*
X144081500Y-91535250D01*
X144240248Y-91693998D01*
X144081500Y-91693998D01*
X144081500Y-91808998D01*
X143667953Y-91395451D01*
X143712940Y-91173300D01*
X143712940Y-90563700D01*
X143668662Y-90328383D01*
X143529590Y-90112259D01*
X143317390Y-89967269D01*
X143065500Y-89916260D01*
X142176500Y-89916260D01*
X141941183Y-89960538D01*
X141725059Y-90099610D01*
X141669616Y-90180754D01*
X141551090Y-89996559D01*
X141338890Y-89851569D01*
X141087000Y-89800560D01*
X139837000Y-89800560D01*
X139601683Y-89844838D01*
X139385559Y-89983910D01*
X139240569Y-90196110D01*
X139189560Y-90448000D01*
X139189560Y-91102000D01*
X135664156Y-91102000D01*
X135739000Y-90921310D01*
X135739000Y-90455750D01*
X135580250Y-90297000D01*
X134731000Y-90297000D01*
X134731000Y-90317000D01*
X134477000Y-90317000D01*
X134477000Y-90297000D01*
X134457000Y-90297000D01*
X134457000Y-90043000D01*
X134477000Y-90043000D01*
X134477000Y-89068750D01*
X134731000Y-89068750D01*
X134731000Y-90043000D01*
X135580250Y-90043000D01*
X135739000Y-89884250D01*
X135739000Y-89418690D01*
X135642327Y-89185301D01*
X135463698Y-89006673D01*
X135230309Y-88910000D01*
X134889750Y-88910000D01*
X134731000Y-89068750D01*
X134477000Y-89068750D01*
X134318250Y-88910000D01*
X133977691Y-88910000D01*
X133744302Y-89006673D01*
X133603064Y-89147910D01*
X133568090Y-89093559D01*
X133355890Y-88948569D01*
X133104000Y-88897560D01*
X132104000Y-88897560D01*
X131868683Y-88941838D01*
X131652559Y-89080910D01*
X131507569Y-89293110D01*
X131456560Y-89545000D01*
X131456560Y-90367638D01*
X131064000Y-90760198D01*
X131064000Y-90487315D01*
X130979506Y-90062536D01*
X130738889Y-89702426D01*
X130378779Y-89461809D01*
X129954000Y-89377315D01*
X129529221Y-89461809D01*
X129169111Y-89702426D01*
X128928494Y-90062536D01*
X128844000Y-90487315D01*
X128844000Y-90836685D01*
X128905833Y-91147542D01*
X128827559Y-91197910D01*
X128682569Y-91410110D01*
X128631560Y-91662000D01*
X125170000Y-91662000D01*
X125170000Y-89662000D01*
X125816376Y-89662000D01*
X125902773Y-90096346D01*
X126148810Y-90464566D01*
X126517030Y-90710603D01*
X126951376Y-90797000D01*
X127556624Y-90797000D01*
X127990970Y-90710603D01*
X128359190Y-90464566D01*
X128605227Y-90096346D01*
X128691624Y-89662000D01*
X128605227Y-89227654D01*
X128359190Y-88859434D01*
X127990970Y-88613397D01*
X127556624Y-88527000D01*
X126951376Y-88527000D01*
X126517030Y-88613397D01*
X126148810Y-88859434D01*
X125902773Y-89227654D01*
X125816376Y-89662000D01*
X125170000Y-89662000D01*
X125170000Y-84538672D01*
X126618538Y-84538672D01*
X127023709Y-85519261D01*
X127773293Y-86270155D01*
X128753173Y-86677036D01*
X129814172Y-86677962D01*
X130794761Y-86272791D01*
X131545655Y-85523207D01*
X131952536Y-84543327D01*
X131953462Y-83482328D01*
X131548291Y-82501739D01*
X130798707Y-81750845D01*
X129818827Y-81343964D01*
X128757828Y-81343038D01*
X127777239Y-81748209D01*
X127026345Y-82497793D01*
X126619464Y-83477673D01*
X126618538Y-84538672D01*
X125170000Y-84538672D01*
X125170000Y-84397931D01*
X125515498Y-82660995D01*
X126459779Y-81247779D01*
X127872997Y-80303498D01*
X129609931Y-79958000D01*
X164522069Y-79958000D01*
X166259005Y-80303498D01*
X166259005Y-80303498D01*
G37*
X166259005Y-80303498D02*
X167672221Y-81247779D01*
X168616502Y-82660997D01*
X168962000Y-84397931D01*
X168962000Y-119310069D01*
X168616502Y-121047003D01*
X167672221Y-122460221D01*
X166259005Y-123404502D01*
X164522069Y-123750000D01*
X162658545Y-123750000D01*
X127788496Y-123348040D01*
X126459779Y-122460221D01*
X125515498Y-121047005D01*
X125326863Y-120098672D01*
X126618538Y-120098672D01*
X127023709Y-121079261D01*
X127773293Y-121830155D01*
X128753173Y-122237036D01*
X129814172Y-122237962D01*
X130794761Y-121832791D01*
X131545655Y-121083207D01*
X131952536Y-120103327D01*
X131953462Y-119042328D01*
X131548291Y-118061739D01*
X130798707Y-117310845D01*
X129818827Y-116903964D01*
X128757828Y-116903038D01*
X127777239Y-117308209D01*
X127026345Y-118057793D01*
X126619464Y-119037673D01*
X126618538Y-120098672D01*
X125326863Y-120098672D01*
X125186898Y-119395020D01*
X125170000Y-117446133D01*
X125170000Y-114280950D01*
X126729490Y-114280950D01*
X126729490Y-114646019D01*
X126826163Y-114879408D01*
X127004791Y-115058037D01*
X127238180Y-115154710D01*
X127829310Y-115154710D01*
X127988060Y-114995960D01*
X127988060Y-114122200D01*
X128242060Y-114122200D01*
X128242060Y-114995960D01*
X128400810Y-115154710D01*
X128991940Y-115154710D01*
X129225329Y-115058037D01*
X129403957Y-114879408D01*
X129500630Y-114646019D01*
X129500630Y-114280950D01*
X129341880Y-114122200D01*
X128242060Y-114122200D01*
X127988060Y-114122200D01*
X126888240Y-114122200D01*
X126729490Y-114280950D01*
X125170000Y-114280950D01*
X125170000Y-113344381D01*
X126729490Y-113344381D01*
X126729490Y-113709450D01*
X126888240Y-113868200D01*
X127988060Y-113868200D01*
X127988060Y-112994440D01*
X128242060Y-112994440D01*
X128242060Y-113868200D01*
X129341880Y-113868200D01*
X129500630Y-113709450D01*
X129500630Y-113344381D01*
X129403957Y-113110992D01*
X129225329Y-112932363D01*
X128991940Y-112835690D01*
X128400810Y-112835690D01*
X128242060Y-112994440D01*
X127988060Y-112994440D01*
X127829310Y-112835690D01*
X127238180Y-112835690D01*
X127004791Y-112932363D01*
X126826163Y-113110992D01*
X126729490Y-113344381D01*
X125170000Y-113344381D01*
X125170000Y-100829110D01*
X126729490Y-100829110D01*
X126729490Y-101194179D01*
X126826163Y-101427568D01*
X127004791Y-101606197D01*
X127238180Y-101702870D01*
X127829310Y-101702870D01*
X127988060Y-101544120D01*
X127988060Y-100670360D01*
X128242060Y-100670360D01*
X128242060Y-101544120D01*
X128400810Y-101702870D01*
X128991940Y-101702870D01*
X129225329Y-101606197D01*
X129403957Y-101427568D01*
X129500630Y-101194179D01*
X129500630Y-100829110D01*
X135129270Y-100829110D01*
X135129270Y-101194179D01*
X135225943Y-101427568D01*
X135404571Y-101606197D01*
X135637960Y-101702870D01*
X136229090Y-101702870D01*
X136387840Y-101544120D01*
X136387840Y-100670360D01*
X135288020Y-100670360D01*
X135129270Y-100829110D01*
X129500630Y-100829110D01*
X129341880Y-100670360D01*
X128242060Y-100670360D01*
X127988060Y-100670360D01*
X126888240Y-100670360D01*
X126729490Y-100829110D01*
X125170000Y-100829110D01*
X125170000Y-99892541D01*
X126729490Y-99892541D01*
X126729490Y-100257610D01*
X126888240Y-100416360D01*
X127988060Y-100416360D01*
X127988060Y-99542600D01*
X128242060Y-99542600D01*
X128242060Y-100416360D01*
X129341880Y-100416360D01*
X129500630Y-100257610D01*
X129500630Y-99892541D01*
X135129270Y-99892541D01*
X135129270Y-100257610D01*
X135288020Y-100416360D01*
X136387840Y-100416360D01*
X136387840Y-99542600D01*
X136641840Y-99542600D01*
X136641840Y-100416360D01*
X137741660Y-100416360D01*
X137900410Y-100257610D01*
X137900410Y-99892541D01*
X137803737Y-99659152D01*
X137625109Y-99480523D01*
X137391720Y-99383850D01*
X136800590Y-99383850D01*
X136641840Y-99542600D01*
X136387840Y-99542600D01*
X136229090Y-99383850D01*
X135637960Y-99383850D01*
X135404571Y-99480523D01*
X135225943Y-99659152D01*
X135129270Y-99892541D01*
X129500630Y-99892541D01*
X129403957Y-99659152D01*
X129225329Y-99480523D01*
X128991940Y-99383850D01*
X128400810Y-99383850D01*
X128242060Y-99542600D01*
X127988060Y-99542600D01*
X127829310Y-99383850D01*
X127238180Y-99383850D01*
X127004791Y-99480523D01*
X126826163Y-99659152D01*
X126729490Y-99892541D01*
X125170000Y-99892541D01*
X125170000Y-96662000D01*
X125816376Y-96662000D01*
X125902773Y-97096346D01*
X126148810Y-97464566D01*
X126517030Y-97710603D01*
X126951376Y-97797000D01*
X127556624Y-97797000D01*
X127990970Y-97710603D01*
X128359190Y-97464566D01*
X128605227Y-97096346D01*
X128627587Y-96983930D01*
X134208675Y-96983930D01*
X134276735Y-97224931D01*
X134796034Y-97409767D01*
X135346538Y-97381805D01*
X135725265Y-97224931D01*
X135793325Y-96983930D01*
X135001000Y-96191605D01*
X134208675Y-96983930D01*
X128627587Y-96983930D01*
X128691624Y-96662000D01*
X128605227Y-96227654D01*
X128359190Y-95859434D01*
X127990970Y-95613397D01*
X127556624Y-95527000D01*
X126951376Y-95527000D01*
X126517030Y-95613397D01*
X126148810Y-95859434D01*
X125902773Y-96227654D01*
X125816376Y-96662000D01*
X125170000Y-96662000D01*
X125170000Y-91662000D01*
X128631560Y-91662000D01*
X128631560Y-92062000D01*
X128655944Y-92191589D01*
X128631560Y-92312000D01*
X128631560Y-92712000D01*
X128655944Y-92841589D01*
X128631560Y-92962000D01*
X128631560Y-93362000D01*
X128651450Y-93467705D01*
X128644000Y-93485690D01*
X128644000Y-93553250D01*
X128673004Y-93582254D01*
X128675838Y-93597317D01*
X128814910Y-93813441D01*
X128823598Y-93819377D01*
X128740673Y-93902301D01*
X128689920Y-94024830D01*
X128644000Y-94070750D01*
X128644000Y-94203250D01*
X128689920Y-94249170D01*
X128740673Y-94371699D01*
X128919302Y-94550327D01*
X128947483Y-94562000D01*
X128802750Y-94562000D01*
X128644000Y-94720750D01*
X128644000Y-94788310D01*
X128740673Y-95021699D01*
X128904108Y-95185133D01*
X128844000Y-95487315D01*
X128844000Y-95836685D01*
X128928494Y-96261464D01*
X129169111Y-96621574D01*
X129529221Y-96862191D01*
X129954000Y-96946685D01*
X130378779Y-96862191D01*
X130738889Y-96621574D01*
X130979506Y-96261464D01*
X131064000Y-95836685D01*
X131064000Y-95807034D01*
X133603233Y-95807034D01*
X133631195Y-96357538D01*
X133788069Y-96736265D01*
X134029070Y-96804325D01*
X134821395Y-96012000D01*
X135180605Y-96012000D01*
X135972930Y-96804325D01*
X136213931Y-96736265D01*
X136398767Y-96216966D01*
X136370805Y-95666462D01*
X136213931Y-95287735D01*
X135972930Y-95219675D01*
X135180605Y-96012000D01*
X134821395Y-96012000D01*
X134029070Y-95219675D01*
X133788069Y-95287735D01*
X133603233Y-95807034D01*
X131064000Y-95807034D01*
X131064000Y-95487315D01*
X131003892Y-95185133D01*
X131167327Y-95021699D01*
X131264000Y-94788310D01*
X131264000Y-94720750D01*
X131105250Y-94562000D01*
X130960517Y-94562000D01*
X130988698Y-94550327D01*
X131167327Y-94371699D01*
X131218080Y-94249170D01*
X131264000Y-94203250D01*
X131264000Y-94152843D01*
X131630167Y-94153162D01*
X131973943Y-94011117D01*
X132237192Y-93748327D01*
X132379838Y-93404799D01*
X132379968Y-93255145D01*
X132618192Y-93017337D01*
X132760838Y-92673809D01*
X132760883Y-92622000D01*
X133891281Y-92622000D01*
X133827056Y-92686113D01*
X133615671Y-93195184D01*
X133615190Y-93746398D01*
X133825686Y-94255837D01*
X134215113Y-94645944D01*
X134430496Y-94735379D01*
X134276735Y-94799069D01*
X134208675Y-95040070D01*
X135001000Y-95832395D01*
X135793325Y-95040070D01*
X135725265Y-94799069D01*
X135559960Y-94740231D01*
X135784837Y-94647314D01*
X136174944Y-94257887D01*
X136386329Y-93748816D01*
X136386810Y-93197602D01*
X136176314Y-92688163D01*
X136110266Y-92622000D01*
X137153490Y-92622000D01*
X137153490Y-98430490D01*
X137211342Y-98721329D01*
X137376089Y-98967891D01*
X138760198Y-100352000D01*
X137887959Y-101224239D01*
X137900410Y-101194179D01*
X137900410Y-100829110D01*
X137741660Y-100670360D01*
X136641840Y-100670360D01*
X136641840Y-101544120D01*
X136800590Y-101702870D01*
X137391720Y-101702870D01*
X137604577Y-101614701D01*
X137552999Y-101874001D01*
X137552999Y-102916001D01*
X137610851Y-103206840D01*
X137775598Y-103453402D01*
X139019001Y-104696805D01*
X139019001Y-106169560D01*
X138438000Y-106169560D01*
X138202683Y-106213838D01*
X137986559Y-106352910D01*
X137841569Y-106565110D01*
X137817898Y-106682000D01*
X136489368Y-106682000D01*
X136570838Y-106485799D01*
X136571162Y-106113833D01*
X136429117Y-105770057D01*
X136314218Y-105654957D01*
X136443838Y-105342799D01*
X136444162Y-104970833D01*
X136302117Y-104627057D01*
X136259790Y-104584656D01*
X136301192Y-104543327D01*
X136443838Y-104199799D01*
X136444162Y-103827833D01*
X136302117Y-103484057D01*
X136039327Y-103220808D01*
X135695799Y-103078162D01*
X135323833Y-103077838D01*
X134980057Y-103219883D01*
X134946882Y-103253000D01*
X134834272Y-103253000D01*
X134761400Y-103203209D01*
X134509510Y-103152200D01*
X134326002Y-103152200D01*
X133650122Y-102476320D01*
X133650162Y-102430833D01*
X133508117Y-102087057D01*
X133245327Y-101823808D01*
X132901799Y-101681162D01*
X132529833Y-101680838D01*
X132186057Y-101822883D01*
X131922808Y-102085673D01*
X131780162Y-102429201D01*
X131779838Y-102801167D01*
X131921883Y-103144943D01*
X132184673Y-103408192D01*
X132528201Y-103550838D01*
X132575077Y-103550879D01*
X132610327Y-103586129D01*
X132275833Y-103585838D01*
X131932057Y-103727883D01*
X131668808Y-103990673D01*
X131526162Y-104334201D01*
X131525838Y-104706167D01*
X131667883Y-105049943D01*
X131930673Y-105313192D01*
X132274201Y-105455838D01*
X132321077Y-105455879D01*
X132356106Y-105490908D01*
X132275833Y-105490838D01*
X131932057Y-105632883D01*
X131668808Y-105895673D01*
X131526162Y-106239201D01*
X131525838Y-106611167D01*
X131667883Y-106954943D01*
X131930673Y-107218192D01*
X132203166Y-107331342D01*
X131521197Y-108013311D01*
X131313113Y-108013311D01*
X131237122Y-107937320D01*
X131237162Y-107891833D01*
X131095117Y-107548057D01*
X130832327Y-107284808D01*
X130488799Y-107142162D01*
X130116833Y-107141838D01*
X129773057Y-107283883D01*
X129509808Y-107546673D01*
X129367162Y-107890201D01*
X129366838Y-108262167D01*
X129508883Y-108605943D01*
X129771673Y-108869192D01*
X130115201Y-109011838D01*
X130162077Y-109011879D01*
X130460910Y-109310712D01*
X130707471Y-109475459D01*
X130755725Y-109485057D01*
X130998311Y-109533311D01*
X131075999Y-109533311D01*
X131075999Y-116196129D01*
X131133851Y-116486968D01*
X131298598Y-116733530D01*
X136814070Y-122249002D01*
X137060631Y-122413749D01*
X137351471Y-122471601D01*
X144353399Y-122471601D01*
X144644238Y-122413749D01*
X144890800Y-122249002D01*
X145183644Y-121956158D01*
X145512641Y-122021600D01*
X145571359Y-122021600D01*
X146144848Y-121907526D01*
X146631029Y-121582670D01*
X146812000Y-121311828D01*
X146992971Y-121582670D01*
X147479152Y-121907526D01*
X148052641Y-122021600D01*
X148111359Y-122021600D01*
X148684848Y-121907526D01*
X149171029Y-121582670D01*
X149352000Y-121311828D01*
X149532971Y-121582670D01*
X150019152Y-121907526D01*
X150592641Y-122021600D01*
X150651359Y-122021600D01*
X151224848Y-121907526D01*
X151711029Y-121582670D01*
X151892000Y-121311828D01*
X152072971Y-121582670D01*
X152559152Y-121907526D01*
X153132641Y-122021600D01*
X153191359Y-122021600D01*
X153764848Y-121907526D01*
X154251029Y-121582670D01*
X154432000Y-121311828D01*
X154612971Y-121582670D01*
X155099152Y-121907526D01*
X155672641Y-122021600D01*
X155731359Y-122021600D01*
X156304848Y-121907526D01*
X156791029Y-121582670D01*
X157115885Y-121096489D01*
X157229959Y-120523000D01*
X157145555Y-120098672D01*
X162115038Y-120098672D01*
X162520209Y-121079261D01*
X163269793Y-121830155D01*
X164249673Y-122237036D01*
X165310672Y-122237962D01*
X166291261Y-121832791D01*
X167042155Y-121083207D01*
X167449036Y-120103327D01*
X167449962Y-119042328D01*
X167044791Y-118061739D01*
X166295207Y-117310845D01*
X165315327Y-116903964D01*
X164254328Y-116903038D01*
X163273739Y-117308209D01*
X162522845Y-118057793D01*
X162115964Y-119037673D01*
X162115038Y-120098672D01*
X157145555Y-120098672D01*
X157115885Y-119949511D01*
X156791029Y-119463330D01*
X156476248Y-119253000D01*
X156791029Y-119042670D01*
X157115885Y-118556489D01*
X157229959Y-117983000D01*
X157115885Y-117409511D01*
X156791029Y-116923330D01*
X156304848Y-116598474D01*
X155731359Y-116484400D01*
X155672641Y-116484400D01*
X155099152Y-116598474D01*
X154612971Y-116923330D01*
X154432000Y-117194172D01*
X154251029Y-116923330D01*
X153764848Y-116598474D01*
X153191359Y-116484400D01*
X153132641Y-116484400D01*
X152559152Y-116598474D01*
X152072971Y-116923330D01*
X151892000Y-117194172D01*
X151711029Y-116923330D01*
X151224848Y-116598474D01*
X150651359Y-116484400D01*
X150592641Y-116484400D01*
X150019152Y-116598474D01*
X149532971Y-116923330D01*
X149352000Y-117194172D01*
X149171029Y-116923330D01*
X148743205Y-116637467D01*
X149108661Y-116272011D01*
X156935470Y-116272011D01*
X156935480Y-116272009D01*
X157029991Y-116272009D01*
X157320830Y-116214157D01*
X157567392Y-116049410D01*
X159352521Y-114264281D01*
X159480883Y-114574943D01*
X159743673Y-114838192D01*
X160087201Y-114980838D01*
X160459167Y-114981162D01*
X160802943Y-114839117D01*
X161066192Y-114576327D01*
X161208838Y-114232799D01*
X161208879Y-114185923D01*
X162366802Y-113028000D01*
X163533837Y-113028000D01*
X163543686Y-113051837D01*
X163933113Y-113441944D01*
X164442184Y-113653329D01*
X164993398Y-113653810D01*
X165502837Y-113443314D01*
X165706576Y-113239930D01*
X166466675Y-113239930D01*
X166534735Y-113480931D01*
X167054034Y-113665767D01*
X167604538Y-113637805D01*
X167983265Y-113480931D01*
X168051325Y-113239930D01*
X167259000Y-112447605D01*
X166466675Y-113239930D01*
X165706576Y-113239930D01*
X165892944Y-113053887D01*
X165982379Y-112838504D01*
X166046069Y-112992265D01*
X166287070Y-113060325D01*
X167079395Y-112268000D01*
X167438605Y-112268000D01*
X168230930Y-113060325D01*
X168471931Y-112992265D01*
X168656767Y-112472966D01*
X168628805Y-111922462D01*
X168471931Y-111543735D01*
X168230930Y-111475675D01*
X167438605Y-112268000D01*
X167079395Y-112268000D01*
X166287070Y-111475675D01*
X166046069Y-111543735D01*
X165987231Y-111709040D01*
X165894314Y-111484163D01*
X165706549Y-111296070D01*
X166466675Y-111296070D01*
X167259000Y-112088395D01*
X168051325Y-111296070D01*
X167983265Y-111055069D01*
X167463966Y-110870233D01*
X166913462Y-110898195D01*
X166534735Y-111055069D01*
X166466675Y-111296070D01*
X165706549Y-111296070D01*
X165504887Y-111094056D01*
X164995816Y-110882671D01*
X164444602Y-110882190D01*
X163935163Y-111092686D01*
X163545056Y-111482113D01*
X163534307Y-111508000D01*
X162108802Y-111508000D01*
X162208401Y-111408401D01*
X162373148Y-111161839D01*
X162431000Y-110871000D01*
X162431000Y-95500518D01*
X162373148Y-95209679D01*
X162208401Y-94963117D01*
X158524034Y-91278750D01*
X160132000Y-91278750D01*
X160132000Y-91469309D01*
X160228673Y-91702698D01*
X160407301Y-91881327D01*
X160640690Y-91978000D01*
X161131250Y-91978000D01*
X161290000Y-91819250D01*
X161290000Y-91120000D01*
X161544000Y-91120000D01*
X161544000Y-91819250D01*
X161702750Y-91978000D01*
X162193310Y-91978000D01*
X162407171Y-91889416D01*
X162412673Y-91902698D01*
X162591301Y-92081327D01*
X162824690Y-92178000D01*
X163290250Y-92178000D01*
X163449000Y-92019250D01*
X163449000Y-91170000D01*
X163703000Y-91170000D01*
X163703000Y-92019250D01*
X163861750Y-92178000D01*
X164327310Y-92178000D01*
X164560699Y-92081327D01*
X164739327Y-91902698D01*
X164836000Y-91669309D01*
X164836000Y-91328750D01*
X164677250Y-91170000D01*
X163703000Y-91170000D01*
X163449000Y-91170000D01*
X162593250Y-91170000D01*
X162543250Y-91120000D01*
X161544000Y-91120000D01*
X161290000Y-91120000D01*
X160290750Y-91120000D01*
X160132000Y-91278750D01*
X158524034Y-91278750D01*
X158201154Y-90955870D01*
X159839660Y-90955870D01*
X160074977Y-90911592D01*
X160234008Y-90809258D01*
X160290750Y-90866000D01*
X161290000Y-90866000D01*
X161290000Y-90846000D01*
X161544000Y-90846000D01*
X161544000Y-90866000D01*
X162424750Y-90866000D01*
X162474750Y-90916000D01*
X163449000Y-90916000D01*
X163449000Y-90896000D01*
X163703000Y-90896000D01*
X163703000Y-90916000D01*
X164677250Y-90916000D01*
X164836000Y-90757250D01*
X164836000Y-90416691D01*
X164739327Y-90183302D01*
X164598090Y-90042064D01*
X164652441Y-90007090D01*
X164797431Y-89794890D01*
X164848440Y-89543000D01*
X164848440Y-88543000D01*
X164804162Y-88307683D01*
X164665090Y-88091559D01*
X164452890Y-87946569D01*
X164201000Y-87895560D01*
X162951000Y-87895560D01*
X162715683Y-87939838D01*
X162499559Y-88078910D01*
X162410541Y-88209192D01*
X162318890Y-88146569D01*
X162120875Y-88106470D01*
X162119148Y-88097786D01*
X161954401Y-87851224D01*
X158641849Y-84538672D01*
X162178538Y-84538672D01*
X162583709Y-85519261D01*
X163333293Y-86270155D01*
X164313173Y-86677036D01*
X165374172Y-86677962D01*
X166354761Y-86272791D01*
X167105655Y-85523207D01*
X167512536Y-84543327D01*
X167513462Y-83482328D01*
X167108291Y-82501739D01*
X166358707Y-81750845D01*
X165378827Y-81343964D01*
X164317828Y-81343038D01*
X163337239Y-81748209D01*
X162586345Y-82497793D01*
X162179464Y-83477673D01*
X162178538Y-84538672D01*
X158641849Y-84538672D01*
X157893776Y-83790599D01*
X157647214Y-83625852D01*
X157356375Y-83568000D01*
X157124403Y-83568000D01*
X157210958Y-83359026D01*
X157089817Y-83127000D01*
X155883000Y-83127000D01*
X155883000Y-83147000D01*
X155629000Y-83147000D01*
X155629000Y-83127000D01*
X155609000Y-83127000D01*
X155609000Y-82873000D01*
X155629000Y-82873000D01*
X155629000Y-81665531D01*
X155883000Y-81665531D01*
X155883000Y-82873000D01*
X157089817Y-82873000D01*
X157210958Y-82640974D01*
X157038688Y-82225053D01*
X156644490Y-81793179D01*
X156115027Y-81545032D01*
X155883000Y-81665531D01*
X155629000Y-81665531D01*
X155396973Y-81545032D01*
X154867510Y-81793179D01*
X154485992Y-82211161D01*
X154305029Y-81940330D01*
X153818848Y-81615474D01*
X153245359Y-81501400D01*
X153186641Y-81501400D01*
X152613152Y-81615474D01*
X152126971Y-81940330D01*
X151946000Y-82211172D01*
X151765029Y-81940330D01*
X151278848Y-81615474D01*
X150705359Y-81501400D01*
X150646641Y-81501400D01*
X150073152Y-81615474D01*
X149586971Y-81940330D01*
X149406000Y-82211172D01*
X149225029Y-81940330D01*
X148738848Y-81615474D01*
X148165359Y-81501400D01*
X148106641Y-81501400D01*
X147533152Y-81615474D01*
X147046971Y-81940330D01*
X146866000Y-82211172D01*
X146685029Y-81940330D01*
X146198848Y-81615474D01*
X145625359Y-81501400D01*
X145566641Y-81501400D01*
X144993152Y-81615474D01*
X144506971Y-81940330D01*
X144326000Y-82211172D01*
X144145029Y-81940330D01*
X143658848Y-81615474D01*
X143085359Y-81501400D01*
X143026641Y-81501400D01*
X142453152Y-81615474D01*
X141966971Y-81940330D01*
X141786000Y-82211172D01*
X141605029Y-81940330D01*
X141118848Y-81615474D01*
X140545359Y-81501400D01*
X140486641Y-81501400D01*
X139913152Y-81615474D01*
X139426971Y-81940330D01*
X139246000Y-82211172D01*
X139065029Y-81940330D01*
X138578848Y-81615474D01*
X138005359Y-81501400D01*
X137946641Y-81501400D01*
X137373152Y-81615474D01*
X136886971Y-81940330D01*
X136562115Y-82426511D01*
X136448041Y-83000000D01*
X136562115Y-83573489D01*
X136886971Y-84059670D01*
X137201752Y-84270000D01*
X136886971Y-84480330D01*
X136562115Y-84966511D01*
X136448041Y-85540000D01*
X136562115Y-86113489D01*
X136886971Y-86599670D01*
X137373152Y-86924526D01*
X137946641Y-87038600D01*
X138005359Y-87038600D01*
X138578848Y-86924526D01*
X139065029Y-86599670D01*
X139246000Y-86328828D01*
X139426971Y-86599670D01*
X139913152Y-86924526D01*
X140486641Y-87038600D01*
X140545359Y-87038600D01*
X141118848Y-86924526D01*
X141605029Y-86599670D01*
X141786000Y-86328828D01*
X141966971Y-86599670D01*
X142453152Y-86924526D01*
X143026641Y-87038600D01*
X143085359Y-87038600D01*
X143658848Y-86924526D01*
X144145029Y-86599670D01*
X144326000Y-86328828D01*
X144506971Y-86599670D01*
X144993152Y-86924526D01*
X145566641Y-87038600D01*
X145625359Y-87038600D01*
X146198848Y-86924526D01*
X146685029Y-86599670D01*
X146866000Y-86328828D01*
X147046971Y-86599670D01*
X147533152Y-86924526D01*
X148106641Y-87038600D01*
X148165359Y-87038600D01*
X148738848Y-86924526D01*
X149225029Y-86599670D01*
X149406000Y-86328828D01*
X149586971Y-86599670D01*
X150073152Y-86924526D01*
X150646641Y-87038600D01*
X150705359Y-87038600D01*
X151278848Y-86924526D01*
X151765029Y-86599670D01*
X151946000Y-86328828D01*
X152126971Y-86599670D01*
X152613152Y-86924526D01*
X153186641Y-87038600D01*
X153245359Y-87038600D01*
X153818848Y-86924526D01*
X154284442Y-86613426D01*
X154289238Y-86638917D01*
X154428310Y-86855041D01*
X154640510Y-87000031D01*
X154892400Y-87051040D01*
X156619600Y-87051040D01*
X156854917Y-87006762D01*
X157071041Y-86867690D01*
X157216031Y-86655490D01*
X157267040Y-86403600D01*
X157267040Y-85313467D01*
X159813703Y-87860130D01*
X157340300Y-87860130D01*
X157104983Y-87904408D01*
X156888859Y-88043480D01*
X156743869Y-88255680D01*
X156692860Y-88507570D01*
X156692860Y-90061000D01*
X156489140Y-90061000D01*
X156489140Y-88507570D01*
X156444862Y-88272253D01*
X156305790Y-88056129D01*
X156093590Y-87911139D01*
X155841700Y-87860130D01*
X153342340Y-87860130D01*
X153107023Y-87904408D01*
X152890899Y-88043480D01*
X152745909Y-88255680D01*
X152694900Y-88507570D01*
X152694900Y-89760789D01*
X152641890Y-89724569D01*
X152396846Y-89674946D01*
X152302401Y-89533599D01*
X152020401Y-89251599D01*
X151773839Y-89086852D01*
X151483000Y-89029000D01*
X150733440Y-89029000D01*
X150733440Y-88039000D01*
X150689162Y-87803683D01*
X150550090Y-87587559D01*
X150337890Y-87442569D01*
X150086000Y-87391560D01*
X148786000Y-87391560D01*
X148550683Y-87435838D01*
X148334559Y-87574910D01*
X148333610Y-87576299D01*
X148137890Y-87442569D01*
X147886000Y-87391560D01*
X146586000Y-87391560D01*
X146350683Y-87435838D01*
X146134559Y-87574910D01*
X145989569Y-87787110D01*
X145938560Y-88039000D01*
X145938560Y-90011638D01*
X145931970Y-90018228D01*
X145857390Y-89967269D01*
X145605500Y-89916260D01*
X144716500Y-89916260D01*
X144481183Y-89960538D01*
X144265059Y-90099610D01*
X144120069Y-90311810D01*
X144069060Y-90563700D01*
X144069060Y-91173300D01*
X144100970Y-91342886D01*
X144081500Y-91389891D01*
X144081500Y-91535250D01*
X144240248Y-91693998D01*
X144081500Y-91693998D01*
X144081500Y-91808998D01*
X143667953Y-91395451D01*
X143712940Y-91173300D01*
X143712940Y-90563700D01*
X143668662Y-90328383D01*
X143529590Y-90112259D01*
X143317390Y-89967269D01*
X143065500Y-89916260D01*
X142176500Y-89916260D01*
X141941183Y-89960538D01*
X141725059Y-90099610D01*
X141669616Y-90180754D01*
X141551090Y-89996559D01*
X141338890Y-89851569D01*
X141087000Y-89800560D01*
X139837000Y-89800560D01*
X139601683Y-89844838D01*
X139385559Y-89983910D01*
X139240569Y-90196110D01*
X139189560Y-90448000D01*
X139189560Y-91102000D01*
X135664156Y-91102000D01*
X135739000Y-90921310D01*
X135739000Y-90455750D01*
X135580250Y-90297000D01*
X134731000Y-90297000D01*
X134731000Y-90317000D01*
X134477000Y-90317000D01*
X134477000Y-90297000D01*
X134457000Y-90297000D01*
X134457000Y-90043000D01*
X134477000Y-90043000D01*
X134477000Y-89068750D01*
X134731000Y-89068750D01*
X134731000Y-90043000D01*
X135580250Y-90043000D01*
X135739000Y-89884250D01*
X135739000Y-89418690D01*
X135642327Y-89185301D01*
X135463698Y-89006673D01*
X135230309Y-88910000D01*
X134889750Y-88910000D01*
X134731000Y-89068750D01*
X134477000Y-89068750D01*
X134318250Y-88910000D01*
X133977691Y-88910000D01*
X133744302Y-89006673D01*
X133603064Y-89147910D01*
X133568090Y-89093559D01*
X133355890Y-88948569D01*
X133104000Y-88897560D01*
X132104000Y-88897560D01*
X131868683Y-88941838D01*
X131652559Y-89080910D01*
X131507569Y-89293110D01*
X131456560Y-89545000D01*
X131456560Y-90367638D01*
X131064000Y-90760198D01*
X131064000Y-90487315D01*
X130979506Y-90062536D01*
X130738889Y-89702426D01*
X130378779Y-89461809D01*
X129954000Y-89377315D01*
X129529221Y-89461809D01*
X129169111Y-89702426D01*
X128928494Y-90062536D01*
X128844000Y-90487315D01*
X128844000Y-90836685D01*
X128905833Y-91147542D01*
X128827559Y-91197910D01*
X128682569Y-91410110D01*
X128631560Y-91662000D01*
X125170000Y-91662000D01*
X125170000Y-89662000D01*
X125816376Y-89662000D01*
X125902773Y-90096346D01*
X126148810Y-90464566D01*
X126517030Y-90710603D01*
X126951376Y-90797000D01*
X127556624Y-90797000D01*
X127990970Y-90710603D01*
X128359190Y-90464566D01*
X128605227Y-90096346D01*
X128691624Y-89662000D01*
X128605227Y-89227654D01*
X128359190Y-88859434D01*
X127990970Y-88613397D01*
X127556624Y-88527000D01*
X126951376Y-88527000D01*
X126517030Y-88613397D01*
X126148810Y-88859434D01*
X125902773Y-89227654D01*
X125816376Y-89662000D01*
X125170000Y-89662000D01*
X125170000Y-84538672D01*
X126618538Y-84538672D01*
X127023709Y-85519261D01*
X127773293Y-86270155D01*
X128753173Y-86677036D01*
X129814172Y-86677962D01*
X130794761Y-86272791D01*
X131545655Y-85523207D01*
X131952536Y-84543327D01*
X131953462Y-83482328D01*
X131548291Y-82501739D01*
X130798707Y-81750845D01*
X129818827Y-81343964D01*
X128757828Y-81343038D01*
X127777239Y-81748209D01*
X127026345Y-82497793D01*
X126619464Y-83477673D01*
X126618538Y-84538672D01*
X125170000Y-84538672D01*
X125170000Y-84397931D01*
X125515498Y-82660995D01*
X126459779Y-81247779D01*
X127872997Y-80303498D01*
X129609931Y-79958000D01*
X164522069Y-79958000D01*
X166259005Y-80303498D01*
G36*
X138049000Y-120396000D02*
X138069000Y-120396000D01*
X138069000Y-120650000D01*
X138049000Y-120650000D01*
X138049000Y-120670000D01*
X137795000Y-120670000D01*
X137795000Y-120650000D01*
X137775000Y-120650000D01*
X137775000Y-120396000D01*
X137795000Y-120396000D01*
X137795000Y-120376000D01*
X138049000Y-120376000D01*
X138049000Y-120396000D01*
X138049000Y-120396000D01*
G37*
X138049000Y-120396000D02*
X138069000Y-120396000D01*
X138069000Y-120650000D01*
X138049000Y-120650000D01*
X138049000Y-120670000D01*
X137795000Y-120670000D01*
X137795000Y-120650000D01*
X137775000Y-120650000D01*
X137775000Y-120396000D01*
X137795000Y-120396000D01*
X137795000Y-120376000D01*
X138049000Y-120376000D01*
X138049000Y-120396000D01*
G36*
X137834838Y-108302317D02*
X137973910Y-108518441D01*
X138186110Y-108663431D01*
X138438000Y-108714440D01*
X139026249Y-108714440D01*
X139076853Y-108968840D01*
X139241600Y-109215402D01*
X139697560Y-109671362D01*
X139697560Y-110244000D01*
X139741838Y-110479317D01*
X139880910Y-110695441D01*
X139949006Y-110741969D01*
X139806673Y-110884302D01*
X139710000Y-111117691D01*
X139710000Y-111458250D01*
X139868750Y-111617000D01*
X140843000Y-111617000D01*
X140843000Y-111597000D01*
X141097000Y-111597000D01*
X141097000Y-111617000D01*
X141117000Y-111617000D01*
X141117000Y-111871000D01*
X141097000Y-111871000D01*
X141097000Y-112720250D01*
X141255750Y-112879000D01*
X141721310Y-112879000D01*
X141954699Y-112782327D01*
X142133327Y-112603698D01*
X142214258Y-112408313D01*
X142305610Y-112470731D01*
X142341909Y-112478082D01*
X142464599Y-112661701D01*
X143976983Y-114174085D01*
X141357230Y-116793838D01*
X141064848Y-116598474D01*
X140491359Y-116484400D01*
X140432641Y-116484400D01*
X139859152Y-116598474D01*
X139393558Y-116909574D01*
X139388762Y-116884083D01*
X139249690Y-116667959D01*
X139037490Y-116522969D01*
X138785600Y-116471960D01*
X137058400Y-116471960D01*
X136823083Y-116516238D01*
X136606959Y-116655310D01*
X136461969Y-116867510D01*
X136410960Y-117119400D01*
X136410960Y-118846600D01*
X136455238Y-119081917D01*
X136594310Y-119298041D01*
X136806510Y-119443031D01*
X136900375Y-119462039D01*
X136639312Y-119748053D01*
X136587593Y-119872921D01*
X133418692Y-116704020D01*
X133593317Y-116671162D01*
X133809441Y-116532090D01*
X133855969Y-116463994D01*
X133998302Y-116606327D01*
X134231691Y-116703000D01*
X134572250Y-116703000D01*
X134731000Y-116544250D01*
X134731000Y-115570000D01*
X134985000Y-115570000D01*
X134985000Y-116544250D01*
X135143750Y-116703000D01*
X135484309Y-116703000D01*
X135717698Y-116606327D01*
X135896327Y-116427699D01*
X135993000Y-116194310D01*
X135993000Y-115728750D01*
X135834250Y-115570000D01*
X134985000Y-115570000D01*
X134731000Y-115570000D01*
X134711000Y-115570000D01*
X134711000Y-115316000D01*
X134731000Y-115316000D01*
X134731000Y-114341750D01*
X134985000Y-114341750D01*
X134985000Y-115316000D01*
X135834250Y-115316000D01*
X135993000Y-115157250D01*
X135993000Y-115154710D01*
X136229090Y-115154710D01*
X136387840Y-114995960D01*
X136387840Y-114122200D01*
X136641840Y-114122200D01*
X136641840Y-114995960D01*
X136800590Y-115154710D01*
X137391720Y-115154710D01*
X137625109Y-115058037D01*
X137803737Y-114879408D01*
X137900410Y-114646019D01*
X137900410Y-114280950D01*
X137741660Y-114122200D01*
X136641840Y-114122200D01*
X136387840Y-114122200D01*
X135288020Y-114122200D01*
X135227220Y-114183000D01*
X135143750Y-114183000D01*
X134985000Y-114341750D01*
X134731000Y-114341750D01*
X134572250Y-114183000D01*
X134231691Y-114183000D01*
X133998302Y-114279673D01*
X133857064Y-114420910D01*
X133822090Y-114366559D01*
X133609890Y-114221569D01*
X133358000Y-114170560D01*
X132595999Y-114170560D01*
X132595999Y-113344381D01*
X135129270Y-113344381D01*
X135129270Y-113709450D01*
X135288020Y-113868200D01*
X136387840Y-113868200D01*
X136387840Y-112994440D01*
X136641840Y-112994440D01*
X136641840Y-113868200D01*
X137741660Y-113868200D01*
X137900410Y-113709450D01*
X137900410Y-113344381D01*
X137803737Y-113110992D01*
X137625109Y-112932363D01*
X137391720Y-112835690D01*
X136800590Y-112835690D01*
X136641840Y-112994440D01*
X136387840Y-112994440D01*
X136229090Y-112835690D01*
X135637960Y-112835690D01*
X135404571Y-112932363D01*
X135225943Y-113110992D01*
X135129270Y-113344381D01*
X132595999Y-113344381D01*
X132595999Y-112568118D01*
X132646167Y-112568162D01*
X132670519Y-112558100D01*
X133009336Y-112558100D01*
X133208600Y-112694251D01*
X133460490Y-112745260D01*
X134509510Y-112745260D01*
X134744827Y-112700982D01*
X134828717Y-112647000D01*
X135073537Y-112647000D01*
X135105673Y-112679192D01*
X135449201Y-112821838D01*
X135821167Y-112822162D01*
X136164943Y-112680117D01*
X136428192Y-112417327D01*
X136570838Y-112073799D01*
X136570876Y-112029750D01*
X139710000Y-112029750D01*
X139710000Y-112370309D01*
X139806673Y-112603698D01*
X139985301Y-112782327D01*
X140218690Y-112879000D01*
X140684250Y-112879000D01*
X140843000Y-112720250D01*
X140843000Y-111871000D01*
X139868750Y-111871000D01*
X139710000Y-112029750D01*
X136570876Y-112029750D01*
X136571162Y-111701833D01*
X136437617Y-111378629D01*
X136570838Y-111057799D01*
X136571162Y-110685833D01*
X136429117Y-110342057D01*
X136166327Y-110078808D01*
X135822799Y-109936162D01*
X135450833Y-109935838D01*
X135125560Y-110070238D01*
X135144510Y-110024489D01*
X135144510Y-109884210D01*
X134985760Y-109725460D01*
X134112000Y-109725460D01*
X134112000Y-109745460D01*
X133858000Y-109745460D01*
X133858000Y-109725460D01*
X133838000Y-109725460D01*
X133838000Y-109471460D01*
X133858000Y-109471460D01*
X133858000Y-109451460D01*
X134112000Y-109451460D01*
X134112000Y-109471460D01*
X134985760Y-109471460D01*
X135144510Y-109312710D01*
X135144510Y-109218000D01*
X135200537Y-109218000D01*
X135232673Y-109250192D01*
X135576201Y-109392838D01*
X135948167Y-109393162D01*
X136291943Y-109251117D01*
X136555192Y-108988327D01*
X136697838Y-108644799D01*
X136698162Y-108272833D01*
X136668894Y-108202000D01*
X137815962Y-108202000D01*
X137834838Y-108302317D01*
X137834838Y-108302317D01*
G37*
X137834838Y-108302317D02*
X137973910Y-108518441D01*
X138186110Y-108663431D01*
X138438000Y-108714440D01*
X139026249Y-108714440D01*
X139076853Y-108968840D01*
X139241600Y-109215402D01*
X139697560Y-109671362D01*
X139697560Y-110244000D01*
X139741838Y-110479317D01*
X139880910Y-110695441D01*
X139949006Y-110741969D01*
X139806673Y-110884302D01*
X139710000Y-111117691D01*
X139710000Y-111458250D01*
X139868750Y-111617000D01*
X140843000Y-111617000D01*
X140843000Y-111597000D01*
X141097000Y-111597000D01*
X141097000Y-111617000D01*
X141117000Y-111617000D01*
X141117000Y-111871000D01*
X141097000Y-111871000D01*
X141097000Y-112720250D01*
X141255750Y-112879000D01*
X141721310Y-112879000D01*
X141954699Y-112782327D01*
X142133327Y-112603698D01*
X142214258Y-112408313D01*
X142305610Y-112470731D01*
X142341909Y-112478082D01*
X142464599Y-112661701D01*
X143976983Y-114174085D01*
X141357230Y-116793838D01*
X141064848Y-116598474D01*
X140491359Y-116484400D01*
X140432641Y-116484400D01*
X139859152Y-116598474D01*
X139393558Y-116909574D01*
X139388762Y-116884083D01*
X139249690Y-116667959D01*
X139037490Y-116522969D01*
X138785600Y-116471960D01*
X137058400Y-116471960D01*
X136823083Y-116516238D01*
X136606959Y-116655310D01*
X136461969Y-116867510D01*
X136410960Y-117119400D01*
X136410960Y-118846600D01*
X136455238Y-119081917D01*
X136594310Y-119298041D01*
X136806510Y-119443031D01*
X136900375Y-119462039D01*
X136639312Y-119748053D01*
X136587593Y-119872921D01*
X133418692Y-116704020D01*
X133593317Y-116671162D01*
X133809441Y-116532090D01*
X133855969Y-116463994D01*
X133998302Y-116606327D01*
X134231691Y-116703000D01*
X134572250Y-116703000D01*
X134731000Y-116544250D01*
X134731000Y-115570000D01*
X134985000Y-115570000D01*
X134985000Y-116544250D01*
X135143750Y-116703000D01*
X135484309Y-116703000D01*
X135717698Y-116606327D01*
X135896327Y-116427699D01*
X135993000Y-116194310D01*
X135993000Y-115728750D01*
X135834250Y-115570000D01*
X134985000Y-115570000D01*
X134731000Y-115570000D01*
X134711000Y-115570000D01*
X134711000Y-115316000D01*
X134731000Y-115316000D01*
X134731000Y-114341750D01*
X134985000Y-114341750D01*
X134985000Y-115316000D01*
X135834250Y-115316000D01*
X135993000Y-115157250D01*
X135993000Y-115154710D01*
X136229090Y-115154710D01*
X136387840Y-114995960D01*
X136387840Y-114122200D01*
X136641840Y-114122200D01*
X136641840Y-114995960D01*
X136800590Y-115154710D01*
X137391720Y-115154710D01*
X137625109Y-115058037D01*
X137803737Y-114879408D01*
X137900410Y-114646019D01*
X137900410Y-114280950D01*
X137741660Y-114122200D01*
X136641840Y-114122200D01*
X136387840Y-114122200D01*
X135288020Y-114122200D01*
X135227220Y-114183000D01*
X135143750Y-114183000D01*
X134985000Y-114341750D01*
X134731000Y-114341750D01*
X134572250Y-114183000D01*
X134231691Y-114183000D01*
X133998302Y-114279673D01*
X133857064Y-114420910D01*
X133822090Y-114366559D01*
X133609890Y-114221569D01*
X133358000Y-114170560D01*
X132595999Y-114170560D01*
X132595999Y-113344381D01*
X135129270Y-113344381D01*
X135129270Y-113709450D01*
X135288020Y-113868200D01*
X136387840Y-113868200D01*
X136387840Y-112994440D01*
X136641840Y-112994440D01*
X136641840Y-113868200D01*
X137741660Y-113868200D01*
X137900410Y-113709450D01*
X137900410Y-113344381D01*
X137803737Y-113110992D01*
X137625109Y-112932363D01*
X137391720Y-112835690D01*
X136800590Y-112835690D01*
X136641840Y-112994440D01*
X136387840Y-112994440D01*
X136229090Y-112835690D01*
X135637960Y-112835690D01*
X135404571Y-112932363D01*
X135225943Y-113110992D01*
X135129270Y-113344381D01*
X132595999Y-113344381D01*
X132595999Y-112568118D01*
X132646167Y-112568162D01*
X132670519Y-112558100D01*
X133009336Y-112558100D01*
X133208600Y-112694251D01*
X133460490Y-112745260D01*
X134509510Y-112745260D01*
X134744827Y-112700982D01*
X134828717Y-112647000D01*
X135073537Y-112647000D01*
X135105673Y-112679192D01*
X135449201Y-112821838D01*
X135821167Y-112822162D01*
X136164943Y-112680117D01*
X136428192Y-112417327D01*
X136570838Y-112073799D01*
X136570876Y-112029750D01*
X139710000Y-112029750D01*
X139710000Y-112370309D01*
X139806673Y-112603698D01*
X139985301Y-112782327D01*
X140218690Y-112879000D01*
X140684250Y-112879000D01*
X140843000Y-112720250D01*
X140843000Y-111871000D01*
X139868750Y-111871000D01*
X139710000Y-112029750D01*
X136570876Y-112029750D01*
X136571162Y-111701833D01*
X136437617Y-111378629D01*
X136570838Y-111057799D01*
X136571162Y-110685833D01*
X136429117Y-110342057D01*
X136166327Y-110078808D01*
X135822799Y-109936162D01*
X135450833Y-109935838D01*
X135125560Y-110070238D01*
X135144510Y-110024489D01*
X135144510Y-109884210D01*
X134985760Y-109725460D01*
X134112000Y-109725460D01*
X134112000Y-109745460D01*
X133858000Y-109745460D01*
X133858000Y-109725460D01*
X133838000Y-109725460D01*
X133838000Y-109471460D01*
X133858000Y-109471460D01*
X133858000Y-109451460D01*
X134112000Y-109451460D01*
X134112000Y-109471460D01*
X134985760Y-109471460D01*
X135144510Y-109312710D01*
X135144510Y-109218000D01*
X135200537Y-109218000D01*
X135232673Y-109250192D01*
X135576201Y-109392838D01*
X135948167Y-109393162D01*
X136291943Y-109251117D01*
X136555192Y-108988327D01*
X136697838Y-108644799D01*
X136698162Y-108272833D01*
X136668894Y-108202000D01*
X137815962Y-108202000D01*
X137834838Y-108302317D01*
G36*
X140462000Y-102600000D02*
X140482000Y-102600000D01*
X140482000Y-102854000D01*
X140462000Y-102854000D01*
X140462000Y-103703250D01*
X140620750Y-103862000D01*
X141086310Y-103862000D01*
X141319699Y-103765327D01*
X141498327Y-103586698D01*
X141586772Y-103373172D01*
X141797610Y-103517231D01*
X142049500Y-103568240D01*
X142938500Y-103568240D01*
X143045756Y-103548058D01*
X144363099Y-104865401D01*
X144609661Y-105030148D01*
X144900500Y-105088000D01*
X145671243Y-105088000D01*
X145697910Y-105129441D01*
X145910110Y-105274431D01*
X146162000Y-105325440D01*
X147462000Y-105325440D01*
X147697317Y-105281162D01*
X147828457Y-105196775D01*
X147942110Y-105274431D01*
X148194000Y-105325440D01*
X149494000Y-105325440D01*
X149729317Y-105281162D01*
X149945441Y-105142090D01*
X150090431Y-104929890D01*
X150141440Y-104678000D01*
X150141440Y-104412999D01*
X152239547Y-104412999D01*
X153588980Y-105762432D01*
X153588980Y-106455210D01*
X153633258Y-106690527D01*
X153772330Y-106906651D01*
X153984530Y-107051641D01*
X154236420Y-107102650D01*
X154917086Y-107102650D01*
X154841683Y-107116838D01*
X154625559Y-107255910D01*
X154480569Y-107468110D01*
X154429560Y-107720000D01*
X154429560Y-108720000D01*
X154473838Y-108955317D01*
X154612910Y-109171441D01*
X154681006Y-109217969D01*
X154538673Y-109360302D01*
X154442000Y-109593691D01*
X154442000Y-109934250D01*
X154600750Y-110093000D01*
X155575000Y-110093000D01*
X155575000Y-110073000D01*
X155829000Y-110073000D01*
X155829000Y-110093000D01*
X155849000Y-110093000D01*
X155849000Y-110347000D01*
X155829000Y-110347000D01*
X155829000Y-111196250D01*
X155987750Y-111355000D01*
X156453310Y-111355000D01*
X156686699Y-111258327D01*
X156689154Y-111255872D01*
X156706851Y-111344838D01*
X156798909Y-111482613D01*
X156798838Y-111564167D01*
X156940883Y-111907943D01*
X157203673Y-112171192D01*
X157547201Y-112313838D01*
X157919167Y-112314162D01*
X158262943Y-112172117D01*
X158526192Y-111909327D01*
X158668838Y-111565799D01*
X158669162Y-111193833D01*
X158602024Y-111031345D01*
X158826664Y-111124624D01*
X159685567Y-111125374D01*
X159719389Y-111111399D01*
X156528788Y-114302000D01*
X153018668Y-114302000D01*
X153036149Y-114275838D01*
X153094001Y-113984999D01*
X153094001Y-110569001D01*
X153081420Y-110505750D01*
X154442000Y-110505750D01*
X154442000Y-110846309D01*
X154538673Y-111079698D01*
X154717301Y-111258327D01*
X154950690Y-111355000D01*
X155416250Y-111355000D01*
X155575000Y-111196250D01*
X155575000Y-110347000D01*
X154600750Y-110347000D01*
X154442000Y-110505750D01*
X153081420Y-110505750D01*
X153036149Y-110278162D01*
X152871402Y-110031600D01*
X152656440Y-109816638D01*
X152656440Y-109244000D01*
X152612162Y-109008683D01*
X152473090Y-108792559D01*
X152260890Y-108647569D01*
X152015846Y-108597946D01*
X151921401Y-108456599D01*
X151766401Y-108301599D01*
X151519839Y-108136852D01*
X151229000Y-108079000D01*
X150733440Y-108079000D01*
X150733440Y-107089000D01*
X150689162Y-106853683D01*
X150550090Y-106637559D01*
X150337890Y-106492569D01*
X150086000Y-106441560D01*
X148786000Y-106441560D01*
X148550683Y-106485838D01*
X148334559Y-106624910D01*
X148333610Y-106626299D01*
X148137890Y-106492569D01*
X147886000Y-106441560D01*
X146586000Y-106441560D01*
X146350683Y-106485838D01*
X146134559Y-106624910D01*
X145989569Y-106837110D01*
X145938560Y-107089000D01*
X145938560Y-108712260D01*
X145097500Y-108712260D01*
X144862183Y-108756538D01*
X144646059Y-108895610D01*
X144501069Y-109107810D01*
X144450060Y-109359700D01*
X144450060Y-109898058D01*
X144093940Y-109541938D01*
X144093940Y-109359700D01*
X144049662Y-109124383D01*
X143910590Y-108908259D01*
X143698390Y-108763269D01*
X143446500Y-108712260D01*
X142557500Y-108712260D01*
X142322183Y-108756538D01*
X142119738Y-108886808D01*
X142059090Y-108792559D01*
X141846890Y-108647569D01*
X141745356Y-108627008D01*
X141797698Y-108605327D01*
X141976327Y-108426699D01*
X142073000Y-108193310D01*
X142073000Y-107727750D01*
X141914250Y-107569000D01*
X141065000Y-107569000D01*
X141065000Y-107589000D01*
X140811000Y-107589000D01*
X140811000Y-107569000D01*
X140791000Y-107569000D01*
X140791000Y-107315000D01*
X140811000Y-107315000D01*
X140811000Y-106340750D01*
X141065000Y-106340750D01*
X141065000Y-107315000D01*
X141914250Y-107315000D01*
X142073000Y-107156250D01*
X142073000Y-106690690D01*
X141976327Y-106457301D01*
X141797698Y-106278673D01*
X141564309Y-106182000D01*
X141223750Y-106182000D01*
X141065000Y-106340750D01*
X140811000Y-106340750D01*
X140652250Y-106182000D01*
X140539001Y-106182000D01*
X140539001Y-104382003D01*
X140481149Y-104091164D01*
X140316402Y-103844602D01*
X140191525Y-103719725D01*
X140208000Y-103703250D01*
X140208000Y-102854000D01*
X140188000Y-102854000D01*
X140188000Y-102600000D01*
X140208000Y-102600000D01*
X140208000Y-102580000D01*
X140462000Y-102580000D01*
X140462000Y-102600000D01*
X140462000Y-102600000D01*
G37*
X140462000Y-102600000D02*
X140482000Y-102600000D01*
X140482000Y-102854000D01*
X140462000Y-102854000D01*
X140462000Y-103703250D01*
X140620750Y-103862000D01*
X141086310Y-103862000D01*
X141319699Y-103765327D01*
X141498327Y-103586698D01*
X141586772Y-103373172D01*
X141797610Y-103517231D01*
X142049500Y-103568240D01*
X142938500Y-103568240D01*
X143045756Y-103548058D01*
X144363099Y-104865401D01*
X144609661Y-105030148D01*
X144900500Y-105088000D01*
X145671243Y-105088000D01*
X145697910Y-105129441D01*
X145910110Y-105274431D01*
X146162000Y-105325440D01*
X147462000Y-105325440D01*
X147697317Y-105281162D01*
X147828457Y-105196775D01*
X147942110Y-105274431D01*
X148194000Y-105325440D01*
X149494000Y-105325440D01*
X149729317Y-105281162D01*
X149945441Y-105142090D01*
X150090431Y-104929890D01*
X150141440Y-104678000D01*
X150141440Y-104412999D01*
X152239547Y-104412999D01*
X153588980Y-105762432D01*
X153588980Y-106455210D01*
X153633258Y-106690527D01*
X153772330Y-106906651D01*
X153984530Y-107051641D01*
X154236420Y-107102650D01*
X154917086Y-107102650D01*
X154841683Y-107116838D01*
X154625559Y-107255910D01*
X154480569Y-107468110D01*
X154429560Y-107720000D01*
X154429560Y-108720000D01*
X154473838Y-108955317D01*
X154612910Y-109171441D01*
X154681006Y-109217969D01*
X154538673Y-109360302D01*
X154442000Y-109593691D01*
X154442000Y-109934250D01*
X154600750Y-110093000D01*
X155575000Y-110093000D01*
X155575000Y-110073000D01*
X155829000Y-110073000D01*
X155829000Y-110093000D01*
X155849000Y-110093000D01*
X155849000Y-110347000D01*
X155829000Y-110347000D01*
X155829000Y-111196250D01*
X155987750Y-111355000D01*
X156453310Y-111355000D01*
X156686699Y-111258327D01*
X156689154Y-111255872D01*
X156706851Y-111344838D01*
X156798909Y-111482613D01*
X156798838Y-111564167D01*
X156940883Y-111907943D01*
X157203673Y-112171192D01*
X157547201Y-112313838D01*
X157919167Y-112314162D01*
X158262943Y-112172117D01*
X158526192Y-111909327D01*
X158668838Y-111565799D01*
X158669162Y-111193833D01*
X158602024Y-111031345D01*
X158826664Y-111124624D01*
X159685567Y-111125374D01*
X159719389Y-111111399D01*
X156528788Y-114302000D01*
X153018668Y-114302000D01*
X153036149Y-114275838D01*
X153094001Y-113984999D01*
X153094001Y-110569001D01*
X153081420Y-110505750D01*
X154442000Y-110505750D01*
X154442000Y-110846309D01*
X154538673Y-111079698D01*
X154717301Y-111258327D01*
X154950690Y-111355000D01*
X155416250Y-111355000D01*
X155575000Y-111196250D01*
X155575000Y-110347000D01*
X154600750Y-110347000D01*
X154442000Y-110505750D01*
X153081420Y-110505750D01*
X153036149Y-110278162D01*
X152871402Y-110031600D01*
X152656440Y-109816638D01*
X152656440Y-109244000D01*
X152612162Y-109008683D01*
X152473090Y-108792559D01*
X152260890Y-108647569D01*
X152015846Y-108597946D01*
X151921401Y-108456599D01*
X151766401Y-108301599D01*
X151519839Y-108136852D01*
X151229000Y-108079000D01*
X150733440Y-108079000D01*
X150733440Y-107089000D01*
X150689162Y-106853683D01*
X150550090Y-106637559D01*
X150337890Y-106492569D01*
X150086000Y-106441560D01*
X148786000Y-106441560D01*
X148550683Y-106485838D01*
X148334559Y-106624910D01*
X148333610Y-106626299D01*
X148137890Y-106492569D01*
X147886000Y-106441560D01*
X146586000Y-106441560D01*
X146350683Y-106485838D01*
X146134559Y-106624910D01*
X145989569Y-106837110D01*
X145938560Y-107089000D01*
X145938560Y-108712260D01*
X145097500Y-108712260D01*
X144862183Y-108756538D01*
X144646059Y-108895610D01*
X144501069Y-109107810D01*
X144450060Y-109359700D01*
X144450060Y-109898058D01*
X144093940Y-109541938D01*
X144093940Y-109359700D01*
X144049662Y-109124383D01*
X143910590Y-108908259D01*
X143698390Y-108763269D01*
X143446500Y-108712260D01*
X142557500Y-108712260D01*
X142322183Y-108756538D01*
X142119738Y-108886808D01*
X142059090Y-108792559D01*
X141846890Y-108647569D01*
X141745356Y-108627008D01*
X141797698Y-108605327D01*
X141976327Y-108426699D01*
X142073000Y-108193310D01*
X142073000Y-107727750D01*
X141914250Y-107569000D01*
X141065000Y-107569000D01*
X141065000Y-107589000D01*
X140811000Y-107589000D01*
X140811000Y-107569000D01*
X140791000Y-107569000D01*
X140791000Y-107315000D01*
X140811000Y-107315000D01*
X140811000Y-106340750D01*
X141065000Y-106340750D01*
X141065000Y-107315000D01*
X141914250Y-107315000D01*
X142073000Y-107156250D01*
X142073000Y-106690690D01*
X141976327Y-106457301D01*
X141797698Y-106278673D01*
X141564309Y-106182000D01*
X141223750Y-106182000D01*
X141065000Y-106340750D01*
X140811000Y-106340750D01*
X140652250Y-106182000D01*
X140539001Y-106182000D01*
X140539001Y-104382003D01*
X140481149Y-104091164D01*
X140316402Y-103844602D01*
X140191525Y-103719725D01*
X140208000Y-103703250D01*
X140208000Y-102854000D01*
X140188000Y-102854000D01*
X140188000Y-102600000D01*
X140208000Y-102600000D01*
X140208000Y-102580000D01*
X140462000Y-102580000D01*
X140462000Y-102600000D01*
G36*
X151511000Y-111617000D02*
X151531000Y-111617000D01*
X151531000Y-111871000D01*
X151511000Y-111871000D01*
X151511000Y-112720250D01*
X151574001Y-112783251D01*
X151574001Y-113575001D01*
X150649440Y-113575001D01*
X150649440Y-113310000D01*
X150605162Y-113074683D01*
X150466090Y-112858559D01*
X150253890Y-112713569D01*
X150240803Y-112710919D01*
X150293794Y-112676820D01*
X150399301Y-112782327D01*
X150632690Y-112879000D01*
X151098250Y-112879000D01*
X151257000Y-112720250D01*
X151257000Y-111871000D01*
X151237000Y-111871000D01*
X151237000Y-111617000D01*
X151257000Y-111617000D01*
X151257000Y-111597000D01*
X151511000Y-111597000D01*
X151511000Y-111617000D01*
X151511000Y-111617000D01*
G37*
X151511000Y-111617000D02*
X151531000Y-111617000D01*
X151531000Y-111871000D01*
X151511000Y-111871000D01*
X151511000Y-112720250D01*
X151574001Y-112783251D01*
X151574001Y-113575001D01*
X150649440Y-113575001D01*
X150649440Y-113310000D01*
X150605162Y-113074683D01*
X150466090Y-112858559D01*
X150253890Y-112713569D01*
X150240803Y-112710919D01*
X150293794Y-112676820D01*
X150399301Y-112782327D01*
X150632690Y-112879000D01*
X151098250Y-112879000D01*
X151257000Y-112720250D01*
X151257000Y-111871000D01*
X151237000Y-111871000D01*
X151237000Y-111617000D01*
X151257000Y-111617000D01*
X151257000Y-111597000D01*
X151511000Y-111597000D01*
X151511000Y-111617000D01*
G36*
X147447000Y-111633000D02*
X147467000Y-111633000D01*
X147467000Y-111887000D01*
X147447000Y-111887000D01*
X147447000Y-111907000D01*
X147193000Y-111907000D01*
X147193000Y-111887000D01*
X147173000Y-111887000D01*
X147173000Y-111633000D01*
X147193000Y-111633000D01*
X147193000Y-111613000D01*
X147447000Y-111613000D01*
X147447000Y-111633000D01*
X147447000Y-111633000D01*
G37*
X147447000Y-111633000D02*
X147467000Y-111633000D01*
X147467000Y-111887000D01*
X147447000Y-111887000D01*
X147447000Y-111907000D01*
X147193000Y-111907000D01*
X147193000Y-111887000D01*
X147173000Y-111887000D01*
X147173000Y-111633000D01*
X147193000Y-111633000D01*
X147193000Y-111613000D01*
X147447000Y-111613000D01*
X147447000Y-111633000D01*
G36*
X145689000Y-110617260D02*
X145395000Y-110617260D01*
X145395000Y-110616740D01*
X145689000Y-110616740D01*
X145689000Y-110617260D01*
X145689000Y-110617260D01*
G37*
X145689000Y-110617260D02*
X145395000Y-110617260D01*
X145395000Y-110616740D01*
X145689000Y-110616740D01*
X145689000Y-110617260D01*
G36*
X153588980Y-100834190D02*
X153588980Y-101954330D01*
X153633258Y-102189647D01*
X153767148Y-102397717D01*
X153639989Y-102583820D01*
X153588980Y-102835710D01*
X153588980Y-103612828D01*
X153091750Y-103115598D01*
X152845188Y-102950851D01*
X152554349Y-102892999D01*
X152016249Y-102892999D01*
X151977250Y-102854000D01*
X151003000Y-102854000D01*
X151003000Y-102874000D01*
X150749000Y-102874000D01*
X150749000Y-102854000D01*
X150729000Y-102854000D01*
X150729000Y-102600000D01*
X150749000Y-102600000D01*
X150749000Y-102580000D01*
X151003000Y-102580000D01*
X151003000Y-102600000D01*
X151977250Y-102600000D01*
X152136000Y-102441250D01*
X152136000Y-102100691D01*
X152039327Y-101867302D01*
X151898090Y-101726064D01*
X151952441Y-101691090D01*
X152097431Y-101478890D01*
X152148440Y-101227000D01*
X152148440Y-100737000D01*
X153608661Y-100737000D01*
X153588980Y-100834190D01*
X153588980Y-100834190D01*
G37*
X153588980Y-100834190D02*
X153588980Y-101954330D01*
X153633258Y-102189647D01*
X153767148Y-102397717D01*
X153639989Y-102583820D01*
X153588980Y-102835710D01*
X153588980Y-103612828D01*
X153091750Y-103115598D01*
X152845188Y-102950851D01*
X152554349Y-102892999D01*
X152016249Y-102892999D01*
X151977250Y-102854000D01*
X151003000Y-102854000D01*
X151003000Y-102874000D01*
X150749000Y-102874000D01*
X150749000Y-102854000D01*
X150729000Y-102854000D01*
X150729000Y-102600000D01*
X150749000Y-102600000D01*
X150749000Y-102580000D01*
X151003000Y-102580000D01*
X151003000Y-102600000D01*
X151977250Y-102600000D01*
X152136000Y-102441250D01*
X152136000Y-102100691D01*
X152039327Y-101867302D01*
X151898090Y-101726064D01*
X151952441Y-101691090D01*
X152097431Y-101478890D01*
X152148440Y-101227000D01*
X152148440Y-100737000D01*
X153608661Y-100737000D01*
X153588980Y-100834190D01*
G36*
X146939000Y-102301000D02*
X146959000Y-102301000D01*
X146959000Y-102555000D01*
X146939000Y-102555000D01*
X146939000Y-102575000D01*
X146685000Y-102575000D01*
X146685000Y-102555000D01*
X146665000Y-102555000D01*
X146665000Y-102301000D01*
X146685000Y-102301000D01*
X146685000Y-102281000D01*
X146939000Y-102281000D01*
X146939000Y-102301000D01*
X146939000Y-102301000D01*
G37*
X146939000Y-102301000D02*
X146959000Y-102301000D01*
X146959000Y-102555000D01*
X146939000Y-102555000D01*
X146939000Y-102575000D01*
X146685000Y-102575000D01*
X146685000Y-102555000D01*
X146665000Y-102555000D01*
X146665000Y-102301000D01*
X146685000Y-102301000D01*
X146685000Y-102281000D01*
X146939000Y-102281000D01*
X146939000Y-102301000D01*
G36*
X145181000Y-101663760D02*
X144887000Y-101663760D01*
X144887000Y-101663240D01*
X145181000Y-101663240D01*
X145181000Y-101663760D01*
X145181000Y-101663760D01*
G37*
X145181000Y-101663760D02*
X144887000Y-101663760D01*
X144887000Y-101663240D01*
X145181000Y-101663240D01*
X145181000Y-101663760D01*
G36*
X158780838Y-93685158D02*
X158036623Y-93992662D01*
X157428756Y-94599468D01*
X157099376Y-95392704D01*
X157098626Y-96251607D01*
X157426622Y-97045417D01*
X158033428Y-97653284D01*
X158826664Y-97982664D01*
X159685567Y-97983414D01*
X160479377Y-97655418D01*
X160911000Y-97224548D01*
X160911000Y-100469246D01*
X159881353Y-99439599D01*
X159634791Y-99274852D01*
X159343952Y-99217000D01*
X157751780Y-99217000D01*
X157751780Y-99180650D01*
X157593030Y-99021900D01*
X155803600Y-99021900D01*
X155803600Y-99041900D01*
X155549600Y-99041900D01*
X155549600Y-99021900D01*
X153760170Y-99021900D01*
X153601420Y-99180650D01*
X153601420Y-99217000D01*
X151751000Y-99217000D01*
X151460160Y-99274852D01*
X151213599Y-99439599D01*
X151073638Y-99579560D01*
X150803362Y-99579560D01*
X150254401Y-99030599D01*
X150225440Y-99011248D01*
X150225440Y-98208521D01*
X153601420Y-98208521D01*
X153601420Y-98609150D01*
X153760170Y-98767900D01*
X155549600Y-98767900D01*
X155549600Y-97858580D01*
X155803600Y-97858580D01*
X155803600Y-98767900D01*
X157593030Y-98767900D01*
X157751780Y-98609150D01*
X157751780Y-98208521D01*
X157655107Y-97975132D01*
X157476479Y-97796503D01*
X157243090Y-97699830D01*
X155962350Y-97699830D01*
X155803600Y-97858580D01*
X155549600Y-97858580D01*
X155390850Y-97699830D01*
X154110110Y-97699830D01*
X153876721Y-97796503D01*
X153698093Y-97975132D01*
X153601420Y-98208521D01*
X150225440Y-98208521D01*
X150225440Y-97818000D01*
X150181162Y-97582683D01*
X150042090Y-97366559D01*
X149829890Y-97221569D01*
X149578000Y-97170560D01*
X148278000Y-97170560D01*
X148042683Y-97214838D01*
X147826559Y-97353910D01*
X147825610Y-97355299D01*
X147629890Y-97221569D01*
X147378000Y-97170560D01*
X146078000Y-97170560D01*
X145842683Y-97214838D01*
X145626559Y-97353910D01*
X145481569Y-97566110D01*
X145430560Y-97818000D01*
X145430560Y-99758760D01*
X144589500Y-99758760D01*
X144354183Y-99803038D01*
X144138059Y-99942110D01*
X143993069Y-100154310D01*
X143942060Y-100406200D01*
X143942060Y-100944558D01*
X143585940Y-100588438D01*
X143585940Y-100406200D01*
X143541662Y-100170883D01*
X143402590Y-99954759D01*
X143190390Y-99809769D01*
X142938500Y-99758760D01*
X142049500Y-99758760D01*
X141814183Y-99803038D01*
X141598059Y-99942110D01*
X141581052Y-99967000D01*
X141547279Y-99967000D01*
X141424090Y-99775559D01*
X141211890Y-99630569D01*
X140960000Y-99579560D01*
X140137362Y-99579560D01*
X138673490Y-98115688D01*
X138673490Y-93233750D01*
X139202000Y-93233750D01*
X139202000Y-93574309D01*
X139298673Y-93807698D01*
X139477301Y-93986327D01*
X139710690Y-94083000D01*
X140176250Y-94083000D01*
X140335000Y-93924250D01*
X140335000Y-93075000D01*
X139360750Y-93075000D01*
X139202000Y-93233750D01*
X138673490Y-93233750D01*
X138673490Y-92622000D01*
X139202000Y-92622000D01*
X139202000Y-92662250D01*
X139360750Y-92821000D01*
X140335000Y-92821000D01*
X140335000Y-92801000D01*
X140589000Y-92801000D01*
X140589000Y-92821000D01*
X140609000Y-92821000D01*
X140609000Y-93075000D01*
X140589000Y-93075000D01*
X140589000Y-93924250D01*
X140747750Y-94083000D01*
X141213310Y-94083000D01*
X141446699Y-93986327D01*
X141625327Y-93807698D01*
X141722000Y-93574309D01*
X141722000Y-93536294D01*
X141924610Y-93674731D01*
X141960909Y-93682082D01*
X142083599Y-93865701D01*
X143304298Y-95086401D01*
X143469045Y-95196480D01*
X143550861Y-95251148D01*
X143841700Y-95309000D01*
X146052243Y-95309000D01*
X146078910Y-95350441D01*
X146291110Y-95495431D01*
X146543000Y-95546440D01*
X147843000Y-95546440D01*
X148078317Y-95502162D01*
X148294441Y-95363090D01*
X148331399Y-95309000D01*
X148338243Y-95309000D01*
X148364910Y-95350441D01*
X148577110Y-95495431D01*
X148829000Y-95546440D01*
X150129000Y-95546440D01*
X150364317Y-95502162D01*
X150580441Y-95363090D01*
X150725431Y-95150890D01*
X150776440Y-94899000D01*
X150776440Y-94199000D01*
X150732162Y-93963683D01*
X150593090Y-93747559D01*
X150380890Y-93602569D01*
X150367803Y-93599919D01*
X150526037Y-93498098D01*
X150601673Y-93680698D01*
X150780301Y-93859327D01*
X151013690Y-93956000D01*
X151479250Y-93956000D01*
X151638000Y-93797250D01*
X151638000Y-92948000D01*
X151892000Y-92948000D01*
X151892000Y-93797250D01*
X152050750Y-93956000D01*
X152516310Y-93956000D01*
X152749699Y-93859327D01*
X152928327Y-93680698D01*
X153025000Y-93447309D01*
X153025000Y-93106750D01*
X152866250Y-92948000D01*
X151892000Y-92948000D01*
X151638000Y-92948000D01*
X151618000Y-92948000D01*
X151618000Y-92694000D01*
X151638000Y-92694000D01*
X151638000Y-92674000D01*
X151892000Y-92674000D01*
X151892000Y-92694000D01*
X152866250Y-92694000D01*
X153025000Y-92535250D01*
X153025000Y-92194691D01*
X152928327Y-91961302D01*
X152787090Y-91820064D01*
X152841441Y-91785090D01*
X152980890Y-91581000D01*
X156676680Y-91581000D01*
X158780838Y-93685158D01*
X158780838Y-93685158D01*
G37*
X158780838Y-93685158D02*
X158036623Y-93992662D01*
X157428756Y-94599468D01*
X157099376Y-95392704D01*
X157098626Y-96251607D01*
X157426622Y-97045417D01*
X158033428Y-97653284D01*
X158826664Y-97982664D01*
X159685567Y-97983414D01*
X160479377Y-97655418D01*
X160911000Y-97224548D01*
X160911000Y-100469246D01*
X159881353Y-99439599D01*
X159634791Y-99274852D01*
X159343952Y-99217000D01*
X157751780Y-99217000D01*
X157751780Y-99180650D01*
X157593030Y-99021900D01*
X155803600Y-99021900D01*
X155803600Y-99041900D01*
X155549600Y-99041900D01*
X155549600Y-99021900D01*
X153760170Y-99021900D01*
X153601420Y-99180650D01*
X153601420Y-99217000D01*
X151751000Y-99217000D01*
X151460160Y-99274852D01*
X151213599Y-99439599D01*
X151073638Y-99579560D01*
X150803362Y-99579560D01*
X150254401Y-99030599D01*
X150225440Y-99011248D01*
X150225440Y-98208521D01*
X153601420Y-98208521D01*
X153601420Y-98609150D01*
X153760170Y-98767900D01*
X155549600Y-98767900D01*
X155549600Y-97858580D01*
X155803600Y-97858580D01*
X155803600Y-98767900D01*
X157593030Y-98767900D01*
X157751780Y-98609150D01*
X157751780Y-98208521D01*
X157655107Y-97975132D01*
X157476479Y-97796503D01*
X157243090Y-97699830D01*
X155962350Y-97699830D01*
X155803600Y-97858580D01*
X155549600Y-97858580D01*
X155390850Y-97699830D01*
X154110110Y-97699830D01*
X153876721Y-97796503D01*
X153698093Y-97975132D01*
X153601420Y-98208521D01*
X150225440Y-98208521D01*
X150225440Y-97818000D01*
X150181162Y-97582683D01*
X150042090Y-97366559D01*
X149829890Y-97221569D01*
X149578000Y-97170560D01*
X148278000Y-97170560D01*
X148042683Y-97214838D01*
X147826559Y-97353910D01*
X147825610Y-97355299D01*
X147629890Y-97221569D01*
X147378000Y-97170560D01*
X146078000Y-97170560D01*
X145842683Y-97214838D01*
X145626559Y-97353910D01*
X145481569Y-97566110D01*
X145430560Y-97818000D01*
X145430560Y-99758760D01*
X144589500Y-99758760D01*
X144354183Y-99803038D01*
X144138059Y-99942110D01*
X143993069Y-100154310D01*
X143942060Y-100406200D01*
X143942060Y-100944558D01*
X143585940Y-100588438D01*
X143585940Y-100406200D01*
X143541662Y-100170883D01*
X143402590Y-99954759D01*
X143190390Y-99809769D01*
X142938500Y-99758760D01*
X142049500Y-99758760D01*
X141814183Y-99803038D01*
X141598059Y-99942110D01*
X141581052Y-99967000D01*
X141547279Y-99967000D01*
X141424090Y-99775559D01*
X141211890Y-99630569D01*
X140960000Y-99579560D01*
X140137362Y-99579560D01*
X138673490Y-98115688D01*
X138673490Y-93233750D01*
X139202000Y-93233750D01*
X139202000Y-93574309D01*
X139298673Y-93807698D01*
X139477301Y-93986327D01*
X139710690Y-94083000D01*
X140176250Y-94083000D01*
X140335000Y-93924250D01*
X140335000Y-93075000D01*
X139360750Y-93075000D01*
X139202000Y-93233750D01*
X138673490Y-93233750D01*
X138673490Y-92622000D01*
X139202000Y-92622000D01*
X139202000Y-92662250D01*
X139360750Y-92821000D01*
X140335000Y-92821000D01*
X140335000Y-92801000D01*
X140589000Y-92801000D01*
X140589000Y-92821000D01*
X140609000Y-92821000D01*
X140609000Y-93075000D01*
X140589000Y-93075000D01*
X140589000Y-93924250D01*
X140747750Y-94083000D01*
X141213310Y-94083000D01*
X141446699Y-93986327D01*
X141625327Y-93807698D01*
X141722000Y-93574309D01*
X141722000Y-93536294D01*
X141924610Y-93674731D01*
X141960909Y-93682082D01*
X142083599Y-93865701D01*
X143304298Y-95086401D01*
X143469045Y-95196480D01*
X143550861Y-95251148D01*
X143841700Y-95309000D01*
X146052243Y-95309000D01*
X146078910Y-95350441D01*
X146291110Y-95495431D01*
X146543000Y-95546440D01*
X147843000Y-95546440D01*
X148078317Y-95502162D01*
X148294441Y-95363090D01*
X148331399Y-95309000D01*
X148338243Y-95309000D01*
X148364910Y-95350441D01*
X148577110Y-95495431D01*
X148829000Y-95546440D01*
X150129000Y-95546440D01*
X150364317Y-95502162D01*
X150580441Y-95363090D01*
X150725431Y-95150890D01*
X150776440Y-94899000D01*
X150776440Y-94199000D01*
X150732162Y-93963683D01*
X150593090Y-93747559D01*
X150380890Y-93602569D01*
X150367803Y-93599919D01*
X150526037Y-93498098D01*
X150601673Y-93680698D01*
X150780301Y-93859327D01*
X151013690Y-93956000D01*
X151479250Y-93956000D01*
X151638000Y-93797250D01*
X151638000Y-92948000D01*
X151892000Y-92948000D01*
X151892000Y-93797250D01*
X152050750Y-93956000D01*
X152516310Y-93956000D01*
X152749699Y-93859327D01*
X152928327Y-93680698D01*
X153025000Y-93447309D01*
X153025000Y-93106750D01*
X152866250Y-92948000D01*
X151892000Y-92948000D01*
X151638000Y-92948000D01*
X151618000Y-92948000D01*
X151618000Y-92694000D01*
X151638000Y-92694000D01*
X151638000Y-92674000D01*
X151892000Y-92674000D01*
X151892000Y-92694000D01*
X152866250Y-92694000D01*
X153025000Y-92535250D01*
X153025000Y-92194691D01*
X152928327Y-91961302D01*
X152787090Y-91820064D01*
X152841441Y-91785090D01*
X152980890Y-91581000D01*
X156676680Y-91581000D01*
X158780838Y-93685158D01*
G36*
X147320000Y-92522000D02*
X147340000Y-92522000D01*
X147340000Y-92776000D01*
X147320000Y-92776000D01*
X147320000Y-92796000D01*
X147066000Y-92796000D01*
X147066000Y-92776000D01*
X147046000Y-92776000D01*
X147046000Y-92522000D01*
X147066000Y-92522000D01*
X147066000Y-92502000D01*
X147320000Y-92502000D01*
X147320000Y-92522000D01*
X147320000Y-92522000D01*
G37*
X147320000Y-92522000D02*
X147340000Y-92522000D01*
X147340000Y-92776000D01*
X147320000Y-92776000D01*
X147320000Y-92796000D01*
X147066000Y-92796000D01*
X147066000Y-92776000D01*
X147046000Y-92776000D01*
X147046000Y-92522000D01*
X147066000Y-92522000D01*
X147066000Y-92502000D01*
X147320000Y-92502000D01*
X147320000Y-92522000D01*
G36*
X145308000Y-91821260D02*
X145014000Y-91821260D01*
X145014000Y-91820740D01*
X145308000Y-91820740D01*
X145308000Y-91821260D01*
X145308000Y-91821260D01*
G37*
X145308000Y-91821260D02*
X145014000Y-91821260D01*
X145014000Y-91820740D01*
X145308000Y-91820740D01*
X145308000Y-91821260D01*
M02*
