M48
;DRILL file {KiCad 4.0.0-rc1-stable} date Sun 22 Nov 2015 09:59:05 PM ICT
;FORMAT={-:-/ absolute / metric / decimal}
FMAT,2
METRIC,TZ
T1C0.300
T2C0.500
T3C0.914
T4C1.016
T5C2.311
T6C3.180
%
G90
G05
M71
T1
X132.105Y-92.456
X132.105Y-93.243
X135.255Y-103.251
X136.457Y-103.175
X137.135Y-101.981
X137.135Y-107.62
X137.16Y-100.94
X137.185Y-106.477
X137.218Y-104.248
X137.427Y-108.8
X140.589Y-95.098
X140.776Y-99.602
X143.48Y-105.486
X144.63Y-105.512
X147.218Y-93.548
X149.327Y-113.03
X153.568Y-103.679
X157.023Y-111.506
T3
X156.565Y-97.269
X156.565Y-99.759
X156.565Y-101.765
X156.565Y-104.254
T4
X137.922Y-117.983
X137.922Y-120.523
X137.976Y-83.
X137.976Y-85.54
X140.462Y-117.983
X140.462Y-120.523
X140.516Y-83.
X140.516Y-85.54
X143.002Y-117.983
X143.002Y-120.523
X143.056Y-83.
X143.056Y-85.54
X145.542Y-117.983
X145.542Y-120.523
X145.596Y-83.
X145.596Y-85.54
X148.082Y-117.983
X148.082Y-120.523
X148.136Y-83.
X148.136Y-85.54
X150.622Y-117.983
X150.622Y-120.523
X150.676Y-83.
X150.676Y-85.54
X153.162Y-117.983
X153.162Y-120.523
X153.216Y-83.
X153.216Y-85.54
X155.702Y-117.983
X155.702Y-120.523
X155.756Y-83.
X155.756Y-85.54
T5
X159.283Y-94.196
X159.283Y-107.328
T6
X129.286Y-84.01
X129.286Y-119.57
X164.782Y-119.57
X164.846Y-84.01
T2
X126.891Y-90.338G85X127.541Y-90.338
G05
X126.891Y-95.963G85X127.541Y-95.963
G05
T0
M30
