G04 #@! TF.FileFunction,Legend,Bot*
%FSLAX46Y46*%
G04 Gerber Fmt 4.6, Leading zero omitted, Abs format (unit mm)*
G04 Created by KiCad (PCBNEW 4.0.0-rc1-stable) date Sun 01 Nov 2015 11:45:38 AM ICT*
%MOMM*%
G01*
G04 APERTURE LIST*
%ADD10C,0.100000*%
%ADD11C,0.150000*%
%ADD12C,0.700000*%
G04 APERTURE END LIST*
D10*
D11*
X154343762Y-105100381D02*
X154343762Y-104100381D01*
X153915190Y-105100381D02*
X153915190Y-104576571D01*
X153962809Y-104481333D01*
X154058047Y-104433714D01*
X154200905Y-104433714D01*
X154296143Y-104481333D01*
X154343762Y-104528952D01*
X153581857Y-104433714D02*
X153200905Y-104433714D01*
X153439000Y-104100381D02*
X153439000Y-104957524D01*
X153391381Y-105052762D01*
X153296143Y-105100381D01*
X153200905Y-105100381D01*
X153010428Y-104433714D02*
X152629476Y-104433714D01*
X152867571Y-104100381D02*
X152867571Y-104957524D01*
X152819952Y-105052762D01*
X152724714Y-105100381D01*
X152629476Y-105100381D01*
X152296142Y-104433714D02*
X152296142Y-105433714D01*
X152296142Y-104481333D02*
X152200904Y-104433714D01*
X152010427Y-104433714D01*
X151915189Y-104481333D01*
X151867570Y-104528952D01*
X151819951Y-104624190D01*
X151819951Y-104909905D01*
X151867570Y-105005143D01*
X151915189Y-105052762D01*
X152010427Y-105100381D01*
X152200904Y-105100381D01*
X152296142Y-105052762D01*
X151391380Y-105005143D02*
X151343761Y-105052762D01*
X151391380Y-105100381D01*
X151438999Y-105052762D01*
X151391380Y-105005143D01*
X151391380Y-105100381D01*
X151391380Y-104481333D02*
X151343761Y-104528952D01*
X151391380Y-104576571D01*
X151438999Y-104528952D01*
X151391380Y-104481333D01*
X151391380Y-104576571D01*
X150200904Y-104052762D02*
X151058047Y-105338476D01*
X149153285Y-104052762D02*
X150010428Y-105338476D01*
X148962809Y-104433714D02*
X148581857Y-104433714D01*
X148819952Y-104100381D02*
X148819952Y-104957524D01*
X148772333Y-105052762D01*
X148677095Y-105100381D01*
X148581857Y-105100381D01*
X148248523Y-105100381D02*
X148248523Y-104433714D01*
X148248523Y-104100381D02*
X148296142Y-104148000D01*
X148248523Y-104195619D01*
X148200904Y-104148000D01*
X148248523Y-104100381D01*
X148248523Y-104195619D01*
X147772333Y-104433714D02*
X147772333Y-105100381D01*
X147772333Y-104528952D02*
X147724714Y-104481333D01*
X147629476Y-104433714D01*
X147486618Y-104433714D01*
X147391380Y-104481333D01*
X147343761Y-104576571D01*
X147343761Y-105100381D01*
X146962809Y-104433714D02*
X146724714Y-105100381D01*
X146486618Y-104433714D02*
X146724714Y-105100381D01*
X146819952Y-105338476D01*
X146867571Y-105386095D01*
X146962809Y-105433714D01*
X145677094Y-105052762D02*
X145772332Y-105100381D01*
X145962809Y-105100381D01*
X146058047Y-105052762D01*
X146105666Y-105005143D01*
X146153285Y-104909905D01*
X146153285Y-104624190D01*
X146105666Y-104528952D01*
X146058047Y-104481333D01*
X145962809Y-104433714D01*
X145772332Y-104433714D01*
X145677094Y-104481333D01*
X145105666Y-105100381D02*
X145200904Y-105052762D01*
X145248523Y-105005143D01*
X145296142Y-104909905D01*
X145296142Y-104624190D01*
X145248523Y-104528952D01*
X145200904Y-104481333D01*
X145105666Y-104433714D01*
X144962808Y-104433714D01*
X144867570Y-104481333D01*
X144819951Y-104528952D01*
X144772332Y-104624190D01*
X144772332Y-104909905D01*
X144819951Y-105005143D01*
X144867570Y-105052762D01*
X144962808Y-105100381D01*
X145105666Y-105100381D01*
X144343761Y-105100381D02*
X144343761Y-104433714D01*
X144343761Y-104528952D02*
X144296142Y-104481333D01*
X144200904Y-104433714D01*
X144058046Y-104433714D01*
X143962808Y-104481333D01*
X143915189Y-104576571D01*
X143915189Y-105100381D01*
X143915189Y-104576571D02*
X143867570Y-104481333D01*
X143772332Y-104433714D01*
X143629475Y-104433714D01*
X143534237Y-104481333D01*
X143486618Y-104576571D01*
X143486618Y-105100381D01*
X143010428Y-105005143D02*
X142962809Y-105052762D01*
X143010428Y-105100381D01*
X143058047Y-105052762D01*
X143010428Y-105005143D01*
X143010428Y-105100381D01*
X142391381Y-105100381D02*
X142486619Y-105052762D01*
X142534238Y-105005143D01*
X142581857Y-104909905D01*
X142581857Y-104624190D01*
X142534238Y-104528952D01*
X142486619Y-104481333D01*
X142391381Y-104433714D01*
X142248523Y-104433714D01*
X142153285Y-104481333D01*
X142105666Y-104528952D01*
X142058047Y-104624190D01*
X142058047Y-104909905D01*
X142105666Y-105005143D01*
X142153285Y-105052762D01*
X142248523Y-105100381D01*
X142391381Y-105100381D01*
X141629476Y-105100381D02*
X141629476Y-104433714D01*
X141629476Y-104624190D02*
X141581857Y-104528952D01*
X141534238Y-104481333D01*
X141439000Y-104433714D01*
X141343761Y-104433714D01*
X140581856Y-104433714D02*
X140581856Y-105243238D01*
X140629475Y-105338476D01*
X140677094Y-105386095D01*
X140772333Y-105433714D01*
X140915190Y-105433714D01*
X141010428Y-105386095D01*
X140581856Y-105052762D02*
X140677094Y-105100381D01*
X140867571Y-105100381D01*
X140962809Y-105052762D01*
X141010428Y-105005143D01*
X141058047Y-104909905D01*
X141058047Y-104624190D01*
X141010428Y-104528952D01*
X140962809Y-104481333D01*
X140867571Y-104433714D01*
X140677094Y-104433714D01*
X140581856Y-104481333D01*
X139391380Y-104052762D02*
X140248523Y-105338476D01*
D12*
X155867571Y-99576143D02*
X154153285Y-99576143D01*
X155010428Y-102576143D02*
X155010428Y-99576143D01*
X153153285Y-102576143D02*
X153153285Y-100576143D01*
X153153285Y-99576143D02*
X153296142Y-99719000D01*
X153153285Y-99861857D01*
X153010428Y-99719000D01*
X153153285Y-99576143D01*
X153153285Y-99861857D01*
X151724714Y-100576143D02*
X151724714Y-102576143D01*
X151724714Y-100861857D02*
X151581857Y-100719000D01*
X151296143Y-100576143D01*
X150867571Y-100576143D01*
X150581857Y-100719000D01*
X150439000Y-101004714D01*
X150439000Y-102576143D01*
X149296143Y-100576143D02*
X148581857Y-102576143D01*
X147867571Y-100576143D02*
X148581857Y-102576143D01*
X148867571Y-103290429D01*
X149010428Y-103433286D01*
X149296143Y-103576143D01*
X145010429Y-102290429D02*
X145153286Y-102433286D01*
X145581857Y-102576143D01*
X145867571Y-102576143D01*
X146296143Y-102433286D01*
X146581857Y-102147571D01*
X146724714Y-101861857D01*
X146867571Y-101290429D01*
X146867571Y-100861857D01*
X146724714Y-100290429D01*
X146581857Y-100004714D01*
X146296143Y-99719000D01*
X145867571Y-99576143D01*
X145581857Y-99576143D01*
X145153286Y-99719000D01*
X145010429Y-99861857D01*
X143296143Y-102576143D02*
X143581857Y-102433286D01*
X143724714Y-102290429D01*
X143867571Y-102004714D01*
X143867571Y-101147571D01*
X143724714Y-100861857D01*
X143581857Y-100719000D01*
X143296143Y-100576143D01*
X142867571Y-100576143D01*
X142581857Y-100719000D01*
X142439000Y-100861857D01*
X142296143Y-101147571D01*
X142296143Y-102004714D01*
X142439000Y-102290429D01*
X142581857Y-102433286D01*
X142867571Y-102576143D01*
X143296143Y-102576143D01*
X141010428Y-102576143D02*
X141010428Y-100576143D01*
X141010428Y-100861857D02*
X140867571Y-100719000D01*
X140581857Y-100576143D01*
X140153285Y-100576143D01*
X139867571Y-100719000D01*
X139724714Y-101004714D01*
X139724714Y-102576143D01*
X139724714Y-101004714D02*
X139581857Y-100719000D01*
X139296143Y-100576143D01*
X138867571Y-100576143D01*
X138581857Y-100719000D01*
X138439000Y-101004714D01*
X138439000Y-102576143D01*
D11*
X130968000Y-110758000D02*
X129768000Y-110758000D01*
X129768000Y-112508000D02*
X130968000Y-112508000D01*
X131029000Y-108726000D02*
X129829000Y-108726000D01*
X129829000Y-110476000D02*
X131029000Y-110476000D01*
X130963000Y-105805000D02*
X129763000Y-105805000D01*
X129763000Y-107555000D02*
X130963000Y-107555000D01*
X131029000Y-103773000D02*
X129829000Y-103773000D01*
X129829000Y-105523000D02*
X131029000Y-105523000D01*
X131029000Y-101741000D02*
X129829000Y-101741000D01*
X129829000Y-103491000D02*
X131029000Y-103491000D01*
X130534666Y-114185381D02*
X130868000Y-113709190D01*
X131106095Y-114185381D02*
X131106095Y-113185381D01*
X130725142Y-113185381D01*
X130629904Y-113233000D01*
X130582285Y-113280619D01*
X130534666Y-113375857D01*
X130534666Y-113518714D01*
X130582285Y-113613952D01*
X130629904Y-113661571D01*
X130725142Y-113709190D01*
X131106095Y-113709190D01*
X129963238Y-113613952D02*
X130058476Y-113566333D01*
X130106095Y-113518714D01*
X130153714Y-113423476D01*
X130153714Y-113375857D01*
X130106095Y-113280619D01*
X130058476Y-113233000D01*
X129963238Y-113185381D01*
X129772761Y-113185381D01*
X129677523Y-113233000D01*
X129629904Y-113280619D01*
X129582285Y-113375857D01*
X129582285Y-113423476D01*
X129629904Y-113518714D01*
X129677523Y-113566333D01*
X129772761Y-113613952D01*
X129963238Y-113613952D01*
X130058476Y-113661571D01*
X130106095Y-113709190D01*
X130153714Y-113804429D01*
X130153714Y-113994905D01*
X130106095Y-114090143D01*
X130058476Y-114137762D01*
X129963238Y-114185381D01*
X129772761Y-114185381D01*
X129677523Y-114137762D01*
X129629904Y-114090143D01*
X129582285Y-113994905D01*
X129582285Y-113804429D01*
X129629904Y-113709190D01*
X129677523Y-113661571D01*
X129772761Y-113613952D01*
X130595666Y-112153381D02*
X130929000Y-111677190D01*
X131167095Y-112153381D02*
X131167095Y-111153381D01*
X130786142Y-111153381D01*
X130690904Y-111201000D01*
X130643285Y-111248619D01*
X130595666Y-111343857D01*
X130595666Y-111486714D01*
X130643285Y-111581952D01*
X130690904Y-111629571D01*
X130786142Y-111677190D01*
X131167095Y-111677190D01*
X130119476Y-112153381D02*
X129929000Y-112153381D01*
X129833761Y-112105762D01*
X129786142Y-112058143D01*
X129690904Y-111915286D01*
X129643285Y-111724810D01*
X129643285Y-111343857D01*
X129690904Y-111248619D01*
X129738523Y-111201000D01*
X129833761Y-111153381D01*
X130024238Y-111153381D01*
X130119476Y-111201000D01*
X130167095Y-111248619D01*
X130214714Y-111343857D01*
X130214714Y-111581952D01*
X130167095Y-111677190D01*
X130119476Y-111724810D01*
X130024238Y-111772429D01*
X129833761Y-111772429D01*
X129738523Y-111724810D01*
X129690904Y-111677190D01*
X129643285Y-111581952D01*
X131005857Y-109232381D02*
X131339191Y-108756190D01*
X131577286Y-109232381D02*
X131577286Y-108232381D01*
X131196333Y-108232381D01*
X131101095Y-108280000D01*
X131053476Y-108327619D01*
X131005857Y-108422857D01*
X131005857Y-108565714D01*
X131053476Y-108660952D01*
X131101095Y-108708571D01*
X131196333Y-108756190D01*
X131577286Y-108756190D01*
X130053476Y-109232381D02*
X130624905Y-109232381D01*
X130339191Y-109232381D02*
X130339191Y-108232381D01*
X130434429Y-108375238D01*
X130529667Y-108470476D01*
X130624905Y-108518095D01*
X129434429Y-108232381D02*
X129339190Y-108232381D01*
X129243952Y-108280000D01*
X129196333Y-108327619D01*
X129148714Y-108422857D01*
X129101095Y-108613333D01*
X129101095Y-108851429D01*
X129148714Y-109041905D01*
X129196333Y-109137143D01*
X129243952Y-109184762D01*
X129339190Y-109232381D01*
X129434429Y-109232381D01*
X129529667Y-109184762D01*
X129577286Y-109137143D01*
X129624905Y-109041905D01*
X129672524Y-108851429D01*
X129672524Y-108613333D01*
X129624905Y-108422857D01*
X129577286Y-108327619D01*
X129529667Y-108280000D01*
X129434429Y-108232381D01*
X131071857Y-107200381D02*
X131405191Y-106724190D01*
X131643286Y-107200381D02*
X131643286Y-106200381D01*
X131262333Y-106200381D01*
X131167095Y-106248000D01*
X131119476Y-106295619D01*
X131071857Y-106390857D01*
X131071857Y-106533714D01*
X131119476Y-106628952D01*
X131167095Y-106676571D01*
X131262333Y-106724190D01*
X131643286Y-106724190D01*
X130119476Y-107200381D02*
X130690905Y-107200381D01*
X130405191Y-107200381D02*
X130405191Y-106200381D01*
X130500429Y-106343238D01*
X130595667Y-106438476D01*
X130690905Y-106486095D01*
X129167095Y-107200381D02*
X129738524Y-107200381D01*
X129452810Y-107200381D02*
X129452810Y-106200381D01*
X129548048Y-106343238D01*
X129643286Y-106438476D01*
X129738524Y-106486095D01*
X131071857Y-105168381D02*
X131405191Y-104692190D01*
X131643286Y-105168381D02*
X131643286Y-104168381D01*
X131262333Y-104168381D01*
X131167095Y-104216000D01*
X131119476Y-104263619D01*
X131071857Y-104358857D01*
X131071857Y-104501714D01*
X131119476Y-104596952D01*
X131167095Y-104644571D01*
X131262333Y-104692190D01*
X131643286Y-104692190D01*
X130119476Y-105168381D02*
X130690905Y-105168381D01*
X130405191Y-105168381D02*
X130405191Y-104168381D01*
X130500429Y-104311238D01*
X130595667Y-104406476D01*
X130690905Y-104454095D01*
X129738524Y-104263619D02*
X129690905Y-104216000D01*
X129595667Y-104168381D01*
X129357571Y-104168381D01*
X129262333Y-104216000D01*
X129214714Y-104263619D01*
X129167095Y-104358857D01*
X129167095Y-104454095D01*
X129214714Y-104596952D01*
X129786143Y-105168381D01*
X129167095Y-105168381D01*
M02*
