G04 #@! TF.FileFunction,Copper,L2,Bot,Signal*
%FSLAX46Y46*%
G04 Gerber Fmt 4.6, Leading zero omitted, Abs format (unit mm)*
G04 Created by KiCad (PCBNEW 4.0.0-2.201511301920+6191~38~ubuntu14.04.1-stable) date Sat 16 Jan 2016 08:35:56 PM ICT*
%MOMM*%
G01*
G04 APERTURE LIST*
%ADD10C,0.100000*%
%ADD11R,1.422400X0.899160*%
%ADD12R,0.398780X0.899160*%
%ADD13R,1.597660X0.698500*%
%ADD14R,1.399540X1.198880*%
%ADD15R,1.399540X1.597660*%
%ADD16R,2.199640X1.198880*%
%ADD17C,1.000000*%
%ADD18C,1.422400*%
%ADD19C,3.327400*%
%ADD20O,1.550000X1.000000*%
%ADD21R,1.727200X1.727200*%
%ADD22O,1.727200X1.727200*%
%ADD23C,4.064000*%
%ADD24C,1.397000*%
%ADD25R,1.000000X1.250000*%
%ADD26C,0.950000*%
%ADD27C,0.600000*%
%ADD28C,0.300000*%
%ADD29C,0.200000*%
%ADD30C,0.150000*%
%ADD31C,0.254000*%
G04 APERTURE END LIST*
D10*
D11*
X138442700Y-92529660D03*
D12*
X140040360Y-93177360D03*
X139440920Y-93177360D03*
X140040360Y-91881960D03*
X139440920Y-91881960D03*
X139090400Y-90932000D03*
X139090400Y-91531440D03*
X137795000Y-90932000D03*
X137795000Y-91531440D03*
X136845040Y-91881960D03*
X137444480Y-91881960D03*
X136845040Y-93177360D03*
X137444480Y-93177360D03*
X137795000Y-94127320D03*
X137795000Y-93527880D03*
X139090400Y-94127320D03*
X139090400Y-93527880D03*
D13*
X144208500Y-100238560D03*
X144208500Y-101338380D03*
X144208500Y-102438200D03*
X144208500Y-103535480D03*
X144208500Y-104635300D03*
X144208500Y-105735120D03*
X144208500Y-106834940D03*
X144208500Y-107934760D03*
X144208500Y-109034580D03*
D14*
X143583660Y-110236000D03*
D15*
X143583660Y-95638620D03*
D16*
X133985000Y-110236000D03*
X133985000Y-94736920D03*
D17*
X133583680Y-99438460D03*
X133583680Y-107439460D03*
D18*
X158179200Y-101048700D03*
X158179200Y-103055300D03*
X158179200Y-98559500D03*
D19*
X160897000Y-95486100D03*
X160897000Y-108617900D03*
D18*
X158179200Y-105544500D03*
D20*
X125862000Y-99437000D03*
X125862000Y-105062000D03*
D21*
X135567000Y-117942000D03*
D22*
X135567000Y-120482000D03*
X138107000Y-117942000D03*
X138107000Y-120482000D03*
X140647000Y-117942000D03*
X140647000Y-120482000D03*
X143187000Y-117942000D03*
X143187000Y-120482000D03*
X145727000Y-117942000D03*
X145727000Y-120482000D03*
X148267000Y-117942000D03*
X148267000Y-120482000D03*
X150807000Y-117942000D03*
X150807000Y-120482000D03*
X153347000Y-117942000D03*
X153347000Y-120482000D03*
X155887000Y-117942000D03*
X155887000Y-120482000D03*
X158427000Y-117942000D03*
X158427000Y-120482000D03*
D21*
X135557000Y-82892000D03*
D22*
X135557000Y-85432000D03*
X138097000Y-82892000D03*
X138097000Y-85432000D03*
X140637000Y-82892000D03*
X140637000Y-85432000D03*
X143177000Y-82892000D03*
X143177000Y-85432000D03*
X145717000Y-82892000D03*
X145717000Y-85432000D03*
X148257000Y-82892000D03*
X148257000Y-85432000D03*
X150797000Y-82892000D03*
X150797000Y-85432000D03*
X153337000Y-82892000D03*
X153337000Y-85432000D03*
X155877000Y-82892000D03*
X155877000Y-85432000D03*
X158417000Y-82892000D03*
X158417000Y-85432000D03*
D23*
X164900000Y-84000000D03*
X129300000Y-84000000D03*
X129200000Y-119600000D03*
X164700000Y-119600000D03*
D24*
X137117000Y-111732000D03*
X137117000Y-114272000D03*
D25*
X129347000Y-93442000D03*
X131347000Y-93442000D03*
X129367000Y-91112000D03*
X131367000Y-91112000D03*
D26*
X128227000Y-113372000D03*
X130227000Y-113372000D03*
D27*
X139057002Y-88452000D03*
X136327000Y-96932000D03*
X133753463Y-93697468D03*
X133712281Y-91758768D03*
X142560000Y-91011978D03*
X143583660Y-95638620D03*
X136540000Y-88280317D03*
X126050000Y-91850000D03*
X144750000Y-91981400D03*
X139700000Y-102616000D03*
X145457332Y-102362000D03*
X141900000Y-88500000D03*
X144000000Y-88100000D03*
X135382000Y-89408000D03*
X141920000Y-95940000D03*
X134382294Y-92658001D03*
X166186578Y-92040000D03*
X137987000Y-96482000D03*
X135110000Y-96260000D03*
X136332552Y-94359087D03*
X137072496Y-94349013D03*
D28*
X138442700Y-92529660D02*
X138793220Y-92529660D01*
X138793220Y-92529660D02*
X139440920Y-93177360D01*
X138442700Y-92529660D02*
X138442700Y-92880180D01*
X138442700Y-92880180D02*
X137795000Y-93527880D01*
X137795000Y-91531440D02*
X137795000Y-91881960D01*
X137795000Y-91881960D02*
X138442700Y-92529660D01*
X139440920Y-91881960D02*
X139090400Y-91881960D01*
X139090400Y-91881960D02*
X138442700Y-92529660D01*
X137444480Y-93177360D02*
X136845040Y-93177360D01*
X137795000Y-94127320D02*
X137795000Y-93527880D01*
X137795000Y-93527880D02*
X137444480Y-93177360D01*
X139090400Y-93527880D02*
X139090400Y-94127320D01*
X140040360Y-93177360D02*
X139440920Y-93177360D01*
X139440920Y-93177360D02*
X139090400Y-93527880D01*
X139440920Y-91881960D02*
X140040360Y-91881960D01*
X139090400Y-90932000D02*
X139090400Y-91531440D01*
X139090400Y-91531440D02*
X139440920Y-91881960D01*
X137795000Y-91531440D02*
X137795000Y-90932000D01*
X137444480Y-91881960D02*
X137795000Y-91531440D01*
X136845040Y-91881960D02*
X137444480Y-91881960D01*
D29*
X144208500Y-109034580D02*
X144208500Y-109611160D01*
X144208500Y-109611160D02*
X143583660Y-110236000D01*
X139700000Y-102616000D02*
X140030001Y-102285999D01*
X140030001Y-102285999D02*
X140030001Y-95715108D01*
X140030001Y-95715108D02*
X143763709Y-91981400D01*
X143763709Y-91981400D02*
X144325736Y-91981400D01*
X144325736Y-91981400D02*
X144750000Y-91981400D01*
X145457332Y-102786264D02*
X144708116Y-103535480D01*
X145457332Y-102362000D02*
X145457332Y-102786264D01*
X144708116Y-103535480D02*
X144208500Y-103535480D01*
D30*
X141224000Y-105399840D02*
X141224000Y-99972862D01*
X141224000Y-99972862D02*
X145717000Y-95479862D01*
X145717000Y-95479862D02*
X145717000Y-86653314D01*
X145717000Y-86653314D02*
X145717000Y-85432000D01*
X144208500Y-107934760D02*
X143758920Y-107934760D01*
X143758920Y-107934760D02*
X141224000Y-105399840D01*
X144208500Y-106834940D02*
X143758920Y-106834940D01*
X143758920Y-106834940D02*
X141732000Y-104808020D01*
X141732000Y-104808020D02*
X141732000Y-99889142D01*
X141732000Y-99889142D02*
X148257000Y-93364142D01*
X148257000Y-93364142D02*
X148257000Y-85432000D01*
X150797000Y-91248421D02*
X150797000Y-86653314D01*
X142240000Y-99805420D02*
X150797000Y-91248421D01*
X142240000Y-103116380D02*
X142240000Y-99805420D01*
X143758920Y-104635300D02*
X142240000Y-103116380D01*
X144208500Y-104635300D02*
X143758920Y-104635300D01*
X150797000Y-86653314D02*
X150797000Y-85432000D01*
X153337000Y-86653314D02*
X153337000Y-85432000D01*
X153337000Y-89132699D02*
X153337000Y-86653314D01*
X142540011Y-99929688D02*
X153337000Y-89132699D01*
X142540011Y-101219291D02*
X142540011Y-99929688D01*
X143758920Y-102438200D02*
X142540011Y-101219291D01*
X144208500Y-102438200D02*
X143758920Y-102438200D01*
X155877000Y-87016978D02*
X155877000Y-86653314D01*
X143184669Y-99709308D02*
X155877000Y-87016978D01*
X143758920Y-101338380D02*
X143184669Y-100764129D01*
X144208500Y-101338380D02*
X143758920Y-101338380D01*
X155877000Y-86653314D02*
X155877000Y-85432000D01*
X143184669Y-100764129D02*
X143184669Y-99709308D01*
X144208500Y-100238560D02*
X144208500Y-99123500D01*
X144208500Y-99123500D02*
X157900000Y-85432000D01*
X157900000Y-85432000D02*
X158417000Y-85432000D01*
D29*
X139964202Y-88500000D02*
X141475736Y-88500000D01*
X135557000Y-85432000D02*
X138016999Y-87891999D01*
X141475736Y-88500000D02*
X141900000Y-88500000D01*
X138016999Y-87891999D02*
X139356201Y-87891999D01*
X139356201Y-87891999D02*
X139964202Y-88500000D01*
X143700001Y-87800001D02*
X140465001Y-87800001D01*
X138960599Y-86295599D02*
X138097000Y-85432000D01*
X140465001Y-87800001D02*
X138960599Y-86295599D01*
X144000000Y-88100000D02*
X143700001Y-87800001D01*
X148257000Y-82892000D02*
X147143399Y-81778399D01*
X147143399Y-81778399D02*
X145182471Y-81778399D01*
X145182471Y-81778399D02*
X144603399Y-82357471D01*
X144603399Y-82357471D02*
X144603399Y-83113731D01*
X144603399Y-83113731D02*
X143533260Y-84183870D01*
X144800000Y-88700000D02*
X143300000Y-90200000D01*
X143533260Y-84183870D02*
X142616130Y-84183870D01*
X142616130Y-84183870D02*
X141920000Y-84880000D01*
X141920000Y-84880000D02*
X141920000Y-85960000D01*
X141920000Y-85960000D02*
X143160000Y-87200000D01*
X144300000Y-87200000D02*
X144800000Y-87700000D01*
X143160000Y-87200000D02*
X144300000Y-87200000D01*
X144800000Y-87700000D02*
X144800000Y-88700000D01*
X143300000Y-90200000D02*
X136174000Y-90200000D01*
X136174000Y-90200000D02*
X135382000Y-89408000D01*
D30*
X140430000Y-97430000D02*
X140430000Y-108419000D01*
X140430000Y-108419000D02*
X137117000Y-111732000D01*
X141920000Y-95940000D02*
X140430000Y-97430000D01*
X160530000Y-86383422D02*
X160530000Y-81180000D01*
X134382294Y-92233737D02*
X134382294Y-92658001D01*
X160530000Y-81180000D02*
X160090000Y-80740000D01*
X134382294Y-91691336D02*
X134382294Y-92233737D01*
X134900000Y-80740000D02*
X134120000Y-81520000D01*
X160090000Y-80740000D02*
X134900000Y-80740000D01*
X166186578Y-92040000D02*
X160530000Y-86383422D01*
X134120000Y-81520000D02*
X134120000Y-91429042D01*
X134120000Y-91429042D02*
X134382294Y-91691336D01*
X137687001Y-96781999D02*
X137987000Y-96482000D01*
X128227000Y-113372000D02*
X128227000Y-106242000D01*
X128227000Y-106242000D02*
X137687001Y-96781999D01*
X131347000Y-93442000D02*
X131347000Y-94217000D01*
X131347000Y-94217000D02*
X133072000Y-95942000D01*
X133072000Y-95942000D02*
X134792000Y-95942000D01*
X134792000Y-95942000D02*
X135110000Y-96260000D01*
X132017000Y-91112000D02*
X132027000Y-91122000D01*
X135146486Y-93173021D02*
X136032553Y-94059088D01*
X133608021Y-93173021D02*
X135146486Y-93173021D01*
X132027000Y-91592000D02*
X133608021Y-93173021D01*
X132027000Y-91122000D02*
X132027000Y-91592000D01*
X131367000Y-91112000D02*
X132017000Y-91112000D01*
X136032553Y-94059088D02*
X136332552Y-94359087D01*
D29*
X145717000Y-82892000D02*
X144490000Y-84119000D01*
X145150010Y-87555020D02*
X145150010Y-89188316D01*
X144490000Y-84119000D02*
X144490000Y-86895010D01*
X144490000Y-86895010D02*
X145150010Y-87555020D01*
X139521425Y-94816901D02*
X137381901Y-94816901D01*
X145150010Y-89188316D02*
X139521425Y-94816901D01*
X137381901Y-94816901D02*
X137072496Y-94507496D01*
X137072496Y-94507496D02*
X137072496Y-94349013D01*
D31*
G36*
X166379180Y-80013368D02*
X167894276Y-81025723D01*
X168906632Y-82540820D01*
X169173000Y-83879943D01*
X169173000Y-119828057D01*
X168906632Y-121167180D01*
X167894276Y-122682277D01*
X166379180Y-123694632D01*
X164552405Y-124058000D01*
X129579595Y-124058000D01*
X127752820Y-123694632D01*
X126237723Y-122682276D01*
X125225368Y-121167180D01*
X125006564Y-120067176D01*
X126840591Y-120067176D01*
X127198971Y-120934521D01*
X127861989Y-121598697D01*
X128728707Y-121958590D01*
X129667176Y-121959409D01*
X130534521Y-121601029D01*
X131198697Y-120938011D01*
X131238968Y-120841026D01*
X134112042Y-120841026D01*
X134284312Y-121256947D01*
X134678510Y-121688821D01*
X135207973Y-121936968D01*
X135440000Y-121816469D01*
X135440000Y-120609000D01*
X134233183Y-120609000D01*
X134112042Y-120841026D01*
X131238968Y-120841026D01*
X131537130Y-120122974D01*
X134112042Y-120122974D01*
X134233183Y-120355000D01*
X135440000Y-120355000D01*
X135440000Y-120335000D01*
X135694000Y-120335000D01*
X135694000Y-120355000D01*
X135714000Y-120355000D01*
X135714000Y-120609000D01*
X135694000Y-120609000D01*
X135694000Y-121816469D01*
X135926027Y-121936968D01*
X136455490Y-121688821D01*
X136849688Y-121256947D01*
X136983134Y-120934760D01*
X136983704Y-120937623D01*
X137241794Y-121323881D01*
X137628052Y-121581971D01*
X138083675Y-121672600D01*
X138130325Y-121672600D01*
X138585948Y-121581971D01*
X138972206Y-121323881D01*
X139230296Y-120937623D01*
X139320925Y-120482000D01*
X139433075Y-120482000D01*
X139523704Y-120937623D01*
X139781794Y-121323881D01*
X140168052Y-121581971D01*
X140623675Y-121672600D01*
X140670325Y-121672600D01*
X141125948Y-121581971D01*
X141512206Y-121323881D01*
X141770296Y-120937623D01*
X141860925Y-120482000D01*
X141973075Y-120482000D01*
X142063704Y-120937623D01*
X142321794Y-121323881D01*
X142708052Y-121581971D01*
X143163675Y-121672600D01*
X143210325Y-121672600D01*
X143665948Y-121581971D01*
X144052206Y-121323881D01*
X144310296Y-120937623D01*
X144400925Y-120482000D01*
X144513075Y-120482000D01*
X144603704Y-120937623D01*
X144861794Y-121323881D01*
X145248052Y-121581971D01*
X145703675Y-121672600D01*
X145750325Y-121672600D01*
X146205948Y-121581971D01*
X146592206Y-121323881D01*
X146850296Y-120937623D01*
X146940925Y-120482000D01*
X147053075Y-120482000D01*
X147143704Y-120937623D01*
X147401794Y-121323881D01*
X147788052Y-121581971D01*
X148243675Y-121672600D01*
X148290325Y-121672600D01*
X148745948Y-121581971D01*
X149132206Y-121323881D01*
X149390296Y-120937623D01*
X149480925Y-120482000D01*
X149593075Y-120482000D01*
X149683704Y-120937623D01*
X149941794Y-121323881D01*
X150328052Y-121581971D01*
X150783675Y-121672600D01*
X150830325Y-121672600D01*
X151285948Y-121581971D01*
X151672206Y-121323881D01*
X151930296Y-120937623D01*
X152020925Y-120482000D01*
X152133075Y-120482000D01*
X152223704Y-120937623D01*
X152481794Y-121323881D01*
X152868052Y-121581971D01*
X153323675Y-121672600D01*
X153370325Y-121672600D01*
X153825948Y-121581971D01*
X154212206Y-121323881D01*
X154470296Y-120937623D01*
X154560925Y-120482000D01*
X154673075Y-120482000D01*
X154763704Y-120937623D01*
X155021794Y-121323881D01*
X155408052Y-121581971D01*
X155863675Y-121672600D01*
X155910325Y-121672600D01*
X156365948Y-121581971D01*
X156752206Y-121323881D01*
X157010296Y-120937623D01*
X157100925Y-120482000D01*
X157213075Y-120482000D01*
X157303704Y-120937623D01*
X157561794Y-121323881D01*
X157948052Y-121581971D01*
X158403675Y-121672600D01*
X158450325Y-121672600D01*
X158905948Y-121581971D01*
X159292206Y-121323881D01*
X159550296Y-120937623D01*
X159640925Y-120482000D01*
X159558412Y-120067176D01*
X162340591Y-120067176D01*
X162698971Y-120934521D01*
X163361989Y-121598697D01*
X164228707Y-121958590D01*
X165167176Y-121959409D01*
X166034521Y-121601029D01*
X166698697Y-120938011D01*
X167058590Y-120071293D01*
X167059409Y-119132824D01*
X166701029Y-118265479D01*
X166038011Y-117601303D01*
X165171293Y-117241410D01*
X164232824Y-117240591D01*
X163365479Y-117598971D01*
X162701303Y-118261989D01*
X162341410Y-119128707D01*
X162340591Y-120067176D01*
X159558412Y-120067176D01*
X159550296Y-120026377D01*
X159292206Y-119640119D01*
X158905948Y-119382029D01*
X158450325Y-119291400D01*
X158403675Y-119291400D01*
X157948052Y-119382029D01*
X157561794Y-119640119D01*
X157303704Y-120026377D01*
X157213075Y-120482000D01*
X157100925Y-120482000D01*
X157010296Y-120026377D01*
X156752206Y-119640119D01*
X156365948Y-119382029D01*
X155910325Y-119291400D01*
X155863675Y-119291400D01*
X155408052Y-119382029D01*
X155021794Y-119640119D01*
X154763704Y-120026377D01*
X154673075Y-120482000D01*
X154560925Y-120482000D01*
X154470296Y-120026377D01*
X154212206Y-119640119D01*
X153825948Y-119382029D01*
X153370325Y-119291400D01*
X153323675Y-119291400D01*
X152868052Y-119382029D01*
X152481794Y-119640119D01*
X152223704Y-120026377D01*
X152133075Y-120482000D01*
X152020925Y-120482000D01*
X151930296Y-120026377D01*
X151672206Y-119640119D01*
X151285948Y-119382029D01*
X150830325Y-119291400D01*
X150783675Y-119291400D01*
X150328052Y-119382029D01*
X149941794Y-119640119D01*
X149683704Y-120026377D01*
X149593075Y-120482000D01*
X149480925Y-120482000D01*
X149390296Y-120026377D01*
X149132206Y-119640119D01*
X148745948Y-119382029D01*
X148290325Y-119291400D01*
X148243675Y-119291400D01*
X147788052Y-119382029D01*
X147401794Y-119640119D01*
X147143704Y-120026377D01*
X147053075Y-120482000D01*
X146940925Y-120482000D01*
X146850296Y-120026377D01*
X146592206Y-119640119D01*
X146205948Y-119382029D01*
X145750325Y-119291400D01*
X145703675Y-119291400D01*
X145248052Y-119382029D01*
X144861794Y-119640119D01*
X144603704Y-120026377D01*
X144513075Y-120482000D01*
X144400925Y-120482000D01*
X144310296Y-120026377D01*
X144052206Y-119640119D01*
X143665948Y-119382029D01*
X143210325Y-119291400D01*
X143163675Y-119291400D01*
X142708052Y-119382029D01*
X142321794Y-119640119D01*
X142063704Y-120026377D01*
X141973075Y-120482000D01*
X141860925Y-120482000D01*
X141770296Y-120026377D01*
X141512206Y-119640119D01*
X141125948Y-119382029D01*
X140670325Y-119291400D01*
X140623675Y-119291400D01*
X140168052Y-119382029D01*
X139781794Y-119640119D01*
X139523704Y-120026377D01*
X139433075Y-120482000D01*
X139320925Y-120482000D01*
X139230296Y-120026377D01*
X138972206Y-119640119D01*
X138585948Y-119382029D01*
X138130325Y-119291400D01*
X138083675Y-119291400D01*
X137628052Y-119382029D01*
X137241794Y-119640119D01*
X136983704Y-120026377D01*
X136983134Y-120029240D01*
X136849688Y-119707053D01*
X136455490Y-119275179D01*
X136164942Y-119139006D01*
X136430600Y-119139006D01*
X136551779Y-119116205D01*
X136663074Y-119044588D01*
X136737738Y-118935314D01*
X136764006Y-118805600D01*
X136764006Y-117942000D01*
X136893075Y-117942000D01*
X136983704Y-118397623D01*
X137241794Y-118783881D01*
X137628052Y-119041971D01*
X138083675Y-119132600D01*
X138130325Y-119132600D01*
X138585948Y-119041971D01*
X138972206Y-118783881D01*
X139230296Y-118397623D01*
X139320925Y-117942000D01*
X139433075Y-117942000D01*
X139523704Y-118397623D01*
X139781794Y-118783881D01*
X140168052Y-119041971D01*
X140623675Y-119132600D01*
X140670325Y-119132600D01*
X141125948Y-119041971D01*
X141512206Y-118783881D01*
X141770296Y-118397623D01*
X141860925Y-117942000D01*
X141973075Y-117942000D01*
X142063704Y-118397623D01*
X142321794Y-118783881D01*
X142708052Y-119041971D01*
X143163675Y-119132600D01*
X143210325Y-119132600D01*
X143665948Y-119041971D01*
X144052206Y-118783881D01*
X144310296Y-118397623D01*
X144400925Y-117942000D01*
X144513075Y-117942000D01*
X144603704Y-118397623D01*
X144861794Y-118783881D01*
X145248052Y-119041971D01*
X145703675Y-119132600D01*
X145750325Y-119132600D01*
X146205948Y-119041971D01*
X146592206Y-118783881D01*
X146850296Y-118397623D01*
X146940925Y-117942000D01*
X147053075Y-117942000D01*
X147143704Y-118397623D01*
X147401794Y-118783881D01*
X147788052Y-119041971D01*
X148243675Y-119132600D01*
X148290325Y-119132600D01*
X148745948Y-119041971D01*
X149132206Y-118783881D01*
X149390296Y-118397623D01*
X149480925Y-117942000D01*
X149593075Y-117942000D01*
X149683704Y-118397623D01*
X149941794Y-118783881D01*
X150328052Y-119041971D01*
X150783675Y-119132600D01*
X150830325Y-119132600D01*
X151285948Y-119041971D01*
X151672206Y-118783881D01*
X151930296Y-118397623D01*
X152020925Y-117942000D01*
X152133075Y-117942000D01*
X152223704Y-118397623D01*
X152481794Y-118783881D01*
X152868052Y-119041971D01*
X153323675Y-119132600D01*
X153370325Y-119132600D01*
X153825948Y-119041971D01*
X154212206Y-118783881D01*
X154470296Y-118397623D01*
X154560925Y-117942000D01*
X154673075Y-117942000D01*
X154763704Y-118397623D01*
X155021794Y-118783881D01*
X155408052Y-119041971D01*
X155863675Y-119132600D01*
X155910325Y-119132600D01*
X156365948Y-119041971D01*
X156752206Y-118783881D01*
X157010296Y-118397623D01*
X157100925Y-117942000D01*
X157213075Y-117942000D01*
X157303704Y-118397623D01*
X157561794Y-118783881D01*
X157948052Y-119041971D01*
X158403675Y-119132600D01*
X158450325Y-119132600D01*
X158905948Y-119041971D01*
X159292206Y-118783881D01*
X159550296Y-118397623D01*
X159640925Y-117942000D01*
X159550296Y-117486377D01*
X159292206Y-117100119D01*
X158905948Y-116842029D01*
X158450325Y-116751400D01*
X158403675Y-116751400D01*
X157948052Y-116842029D01*
X157561794Y-117100119D01*
X157303704Y-117486377D01*
X157213075Y-117942000D01*
X157100925Y-117942000D01*
X157010296Y-117486377D01*
X156752206Y-117100119D01*
X156365948Y-116842029D01*
X155910325Y-116751400D01*
X155863675Y-116751400D01*
X155408052Y-116842029D01*
X155021794Y-117100119D01*
X154763704Y-117486377D01*
X154673075Y-117942000D01*
X154560925Y-117942000D01*
X154470296Y-117486377D01*
X154212206Y-117100119D01*
X153825948Y-116842029D01*
X153370325Y-116751400D01*
X153323675Y-116751400D01*
X152868052Y-116842029D01*
X152481794Y-117100119D01*
X152223704Y-117486377D01*
X152133075Y-117942000D01*
X152020925Y-117942000D01*
X151930296Y-117486377D01*
X151672206Y-117100119D01*
X151285948Y-116842029D01*
X150830325Y-116751400D01*
X150783675Y-116751400D01*
X150328052Y-116842029D01*
X149941794Y-117100119D01*
X149683704Y-117486377D01*
X149593075Y-117942000D01*
X149480925Y-117942000D01*
X149390296Y-117486377D01*
X149132206Y-117100119D01*
X148745948Y-116842029D01*
X148290325Y-116751400D01*
X148243675Y-116751400D01*
X147788052Y-116842029D01*
X147401794Y-117100119D01*
X147143704Y-117486377D01*
X147053075Y-117942000D01*
X146940925Y-117942000D01*
X146850296Y-117486377D01*
X146592206Y-117100119D01*
X146205948Y-116842029D01*
X145750325Y-116751400D01*
X145703675Y-116751400D01*
X145248052Y-116842029D01*
X144861794Y-117100119D01*
X144603704Y-117486377D01*
X144513075Y-117942000D01*
X144400925Y-117942000D01*
X144310296Y-117486377D01*
X144052206Y-117100119D01*
X143665948Y-116842029D01*
X143210325Y-116751400D01*
X143163675Y-116751400D01*
X142708052Y-116842029D01*
X142321794Y-117100119D01*
X142063704Y-117486377D01*
X141973075Y-117942000D01*
X141860925Y-117942000D01*
X141770296Y-117486377D01*
X141512206Y-117100119D01*
X141125948Y-116842029D01*
X140670325Y-116751400D01*
X140623675Y-116751400D01*
X140168052Y-116842029D01*
X139781794Y-117100119D01*
X139523704Y-117486377D01*
X139433075Y-117942000D01*
X139320925Y-117942000D01*
X139230296Y-117486377D01*
X138972206Y-117100119D01*
X138585948Y-116842029D01*
X138130325Y-116751400D01*
X138083675Y-116751400D01*
X137628052Y-116842029D01*
X137241794Y-117100119D01*
X136983704Y-117486377D01*
X136893075Y-117942000D01*
X136764006Y-117942000D01*
X136764006Y-117078400D01*
X136741205Y-116957221D01*
X136669588Y-116845926D01*
X136560314Y-116771262D01*
X136430600Y-116744994D01*
X134703400Y-116744994D01*
X134582221Y-116767795D01*
X134470926Y-116839412D01*
X134396262Y-116948686D01*
X134369994Y-117078400D01*
X134369994Y-118805600D01*
X134392795Y-118926779D01*
X134464412Y-119038074D01*
X134573686Y-119112738D01*
X134703400Y-119139006D01*
X134969058Y-119139006D01*
X134678510Y-119275179D01*
X134284312Y-119707053D01*
X134112042Y-120122974D01*
X131537130Y-120122974D01*
X131558590Y-120071293D01*
X131559409Y-119132824D01*
X131201029Y-118265479D01*
X130538011Y-117601303D01*
X129671293Y-117241410D01*
X128732824Y-117240591D01*
X127865479Y-117598971D01*
X127201303Y-118261989D01*
X126841410Y-119128707D01*
X126840591Y-120067176D01*
X125006564Y-120067176D01*
X124862000Y-119340405D01*
X124862000Y-115206188D01*
X136362417Y-115206188D01*
X136424071Y-115441800D01*
X136924480Y-115617927D01*
X137454199Y-115589148D01*
X137809929Y-115441800D01*
X137871583Y-115206188D01*
X137117000Y-114451605D01*
X136362417Y-115206188D01*
X124862000Y-115206188D01*
X124862000Y-113530828D01*
X127424861Y-113530828D01*
X127546701Y-113825703D01*
X127772110Y-114051506D01*
X128066772Y-114173860D01*
X128385828Y-114174139D01*
X128458941Y-114143929D01*
X129634676Y-114143929D01*
X129668723Y-114356467D01*
X130087959Y-114495173D01*
X130528362Y-114462885D01*
X130785277Y-114356467D01*
X130819324Y-114143929D01*
X130754875Y-114079480D01*
X135771073Y-114079480D01*
X135799852Y-114609199D01*
X135947200Y-114964929D01*
X136182812Y-115026583D01*
X136937395Y-114272000D01*
X137296605Y-114272000D01*
X138051188Y-115026583D01*
X138286800Y-114964929D01*
X138462927Y-114464520D01*
X138434148Y-113934801D01*
X138286800Y-113579071D01*
X138051188Y-113517417D01*
X137296605Y-114272000D01*
X136937395Y-114272000D01*
X136182812Y-113517417D01*
X135947200Y-113579071D01*
X135771073Y-114079480D01*
X130754875Y-114079480D01*
X130227000Y-113551605D01*
X129634676Y-114143929D01*
X128458941Y-114143929D01*
X128680703Y-114052299D01*
X128906506Y-113826890D01*
X129028860Y-113532228D01*
X129029121Y-113232959D01*
X129103827Y-113232959D01*
X129136115Y-113673362D01*
X129242533Y-113930277D01*
X129455071Y-113964324D01*
X130047395Y-113372000D01*
X130406605Y-113372000D01*
X130998929Y-113964324D01*
X131211467Y-113930277D01*
X131350173Y-113511041D01*
X131337473Y-113337812D01*
X136362417Y-113337812D01*
X137117000Y-114092395D01*
X137871583Y-113337812D01*
X137809929Y-113102200D01*
X137309520Y-112926073D01*
X136779801Y-112954852D01*
X136424071Y-113102200D01*
X136362417Y-113337812D01*
X131337473Y-113337812D01*
X131317885Y-113070638D01*
X131211467Y-112813723D01*
X130998929Y-112779676D01*
X130406605Y-113372000D01*
X130047395Y-113372000D01*
X129455071Y-112779676D01*
X129242533Y-112813723D01*
X129103827Y-113232959D01*
X129029121Y-113232959D01*
X129029139Y-113213172D01*
X128907299Y-112918297D01*
X128681890Y-112692494D01*
X128629000Y-112670532D01*
X128629000Y-112600071D01*
X129634676Y-112600071D01*
X130227000Y-113192395D01*
X130819324Y-112600071D01*
X130785277Y-112387533D01*
X130366041Y-112248827D01*
X129925638Y-112281115D01*
X129668723Y-112387533D01*
X129634676Y-112600071D01*
X128629000Y-112600071D01*
X128629000Y-110521750D01*
X132250180Y-110521750D01*
X132250180Y-110961749D01*
X132346853Y-111195138D01*
X132525481Y-111373767D01*
X132758870Y-111470440D01*
X133699250Y-111470440D01*
X133858000Y-111311690D01*
X133858000Y-110363000D01*
X134112000Y-110363000D01*
X134112000Y-111311690D01*
X134270750Y-111470440D01*
X135211130Y-111470440D01*
X135444519Y-111373767D01*
X135623147Y-111195138D01*
X135719820Y-110961749D01*
X135719820Y-110521750D01*
X135561070Y-110363000D01*
X134112000Y-110363000D01*
X133858000Y-110363000D01*
X132408930Y-110363000D01*
X132250180Y-110521750D01*
X128629000Y-110521750D01*
X128629000Y-109510251D01*
X132250180Y-109510251D01*
X132250180Y-109950250D01*
X132408930Y-110109000D01*
X133858000Y-110109000D01*
X133858000Y-109160310D01*
X134112000Y-109160310D01*
X134112000Y-110109000D01*
X135561070Y-110109000D01*
X135719820Y-109950250D01*
X135719820Y-109510251D01*
X135623147Y-109276862D01*
X135444519Y-109098233D01*
X135211130Y-109001560D01*
X134270750Y-109001560D01*
X134112000Y-109160310D01*
X133858000Y-109160310D01*
X133699250Y-109001560D01*
X132758870Y-109001560D01*
X132525481Y-109098233D01*
X132346853Y-109276862D01*
X132250180Y-109510251D01*
X128629000Y-109510251D01*
X128629000Y-107603239D01*
X132756537Y-107603239D01*
X132882175Y-107907306D01*
X133114610Y-108140148D01*
X133418458Y-108266316D01*
X133747459Y-108266603D01*
X134051526Y-108140965D01*
X134284368Y-107908530D01*
X134410536Y-107604682D01*
X134410823Y-107275681D01*
X134285185Y-106971614D01*
X134052750Y-106738772D01*
X133748902Y-106612604D01*
X133419901Y-106612317D01*
X133115834Y-106737955D01*
X132882992Y-106970390D01*
X132756824Y-107274238D01*
X132756537Y-107603239D01*
X128629000Y-107603239D01*
X128629000Y-106408514D01*
X137928565Y-97108949D01*
X138111171Y-97109109D01*
X138341703Y-97013855D01*
X138518235Y-96837631D01*
X138613891Y-96607265D01*
X138614109Y-96357829D01*
X138518855Y-96127297D01*
X138342631Y-95950765D01*
X138112265Y-95855109D01*
X137862829Y-95854891D01*
X137632297Y-95950145D01*
X137455765Y-96126369D01*
X137360109Y-96356735D01*
X137359948Y-96540538D01*
X134410635Y-99489851D01*
X134410823Y-99274681D01*
X134285185Y-98970614D01*
X134052750Y-98737772D01*
X133748902Y-98611604D01*
X133419901Y-98611317D01*
X133115834Y-98736955D01*
X132882992Y-98969390D01*
X132756824Y-99273238D01*
X132756537Y-99602239D01*
X132882175Y-99906306D01*
X133114610Y-100139148D01*
X133418458Y-100265316D01*
X133634981Y-100265505D01*
X127942743Y-105957743D01*
X127855600Y-106088161D01*
X127825000Y-106242000D01*
X127825000Y-112670338D01*
X127773297Y-112691701D01*
X127547494Y-112917110D01*
X127425140Y-113211772D01*
X127424861Y-113530828D01*
X124862000Y-113530828D01*
X124862000Y-105915873D01*
X125035322Y-106062002D01*
X125460000Y-106197000D01*
X125735000Y-106197000D01*
X125735000Y-105189000D01*
X125989000Y-105189000D01*
X125989000Y-106197000D01*
X126264000Y-106197000D01*
X126688678Y-106062002D01*
X127029368Y-105774763D01*
X127231119Y-105363874D01*
X127104954Y-105189000D01*
X125989000Y-105189000D01*
X125735000Y-105189000D01*
X125715000Y-105189000D01*
X125715000Y-104935000D01*
X125735000Y-104935000D01*
X125735000Y-103927000D01*
X125989000Y-103927000D01*
X125989000Y-104935000D01*
X127104954Y-104935000D01*
X127231119Y-104760126D01*
X127047503Y-104386171D01*
X127384891Y-104386171D01*
X127480145Y-104616703D01*
X127656369Y-104793235D01*
X127886735Y-104888891D01*
X128136171Y-104889109D01*
X128366703Y-104793855D01*
X128543235Y-104617631D01*
X128638891Y-104387265D01*
X128639109Y-104137829D01*
X128543855Y-103907297D01*
X128367631Y-103730765D01*
X128137265Y-103635109D01*
X127887829Y-103634891D01*
X127657297Y-103730145D01*
X127480765Y-103906369D01*
X127385109Y-104136735D01*
X127384891Y-104386171D01*
X127047503Y-104386171D01*
X127029368Y-104349237D01*
X126688678Y-104061998D01*
X126264000Y-103927000D01*
X125989000Y-103927000D01*
X125735000Y-103927000D01*
X125460000Y-103927000D01*
X125035322Y-104061998D01*
X124862000Y-104208127D01*
X124862000Y-100290873D01*
X125035322Y-100437002D01*
X125460000Y-100572000D01*
X125735000Y-100572000D01*
X125735000Y-99564000D01*
X125989000Y-99564000D01*
X125989000Y-100572000D01*
X126264000Y-100572000D01*
X126688678Y-100437002D01*
X126748967Y-100386171D01*
X127384891Y-100386171D01*
X127480145Y-100616703D01*
X127656369Y-100793235D01*
X127886735Y-100888891D01*
X128136171Y-100889109D01*
X128366703Y-100793855D01*
X128543235Y-100617631D01*
X128638891Y-100387265D01*
X128639109Y-100137829D01*
X128543855Y-99907297D01*
X128367631Y-99730765D01*
X128137265Y-99635109D01*
X127887829Y-99634891D01*
X127657297Y-99730145D01*
X127480765Y-99906369D01*
X127385109Y-100136735D01*
X127384891Y-100386171D01*
X126748967Y-100386171D01*
X127029368Y-100149763D01*
X127231119Y-99738874D01*
X127104954Y-99564000D01*
X125989000Y-99564000D01*
X125735000Y-99564000D01*
X125715000Y-99564000D01*
X125715000Y-99310000D01*
X125735000Y-99310000D01*
X125735000Y-98302000D01*
X125989000Y-98302000D01*
X125989000Y-99310000D01*
X127104954Y-99310000D01*
X127231119Y-99135126D01*
X127029368Y-98724237D01*
X126688678Y-98436998D01*
X126264000Y-98302000D01*
X125989000Y-98302000D01*
X125735000Y-98302000D01*
X125460000Y-98302000D01*
X125035322Y-98436998D01*
X124862000Y-98583127D01*
X124862000Y-93727750D01*
X128212000Y-93727750D01*
X128212000Y-94193310D01*
X128308673Y-94426699D01*
X128487302Y-94605327D01*
X128720691Y-94702000D01*
X129061250Y-94702000D01*
X129220000Y-94543250D01*
X129220000Y-93569000D01*
X129474000Y-93569000D01*
X129474000Y-94543250D01*
X129632750Y-94702000D01*
X129973309Y-94702000D01*
X130206698Y-94605327D01*
X130385327Y-94426699D01*
X130482000Y-94193310D01*
X130482000Y-93727750D01*
X130323250Y-93569000D01*
X129474000Y-93569000D01*
X129220000Y-93569000D01*
X128370750Y-93569000D01*
X128212000Y-93727750D01*
X124862000Y-93727750D01*
X124862000Y-92690690D01*
X128212000Y-92690690D01*
X128212000Y-93156250D01*
X128370750Y-93315000D01*
X129220000Y-93315000D01*
X129220000Y-92340750D01*
X129474000Y-92340750D01*
X129474000Y-93315000D01*
X130323250Y-93315000D01*
X130482000Y-93156250D01*
X130482000Y-92817000D01*
X130513594Y-92817000D01*
X130513594Y-94067000D01*
X130536395Y-94188179D01*
X130608012Y-94299474D01*
X130717286Y-94374138D01*
X130847000Y-94400406D01*
X130995356Y-94400406D01*
X131062743Y-94501257D01*
X132787743Y-96226257D01*
X132918161Y-96313400D01*
X133072000Y-96344000D01*
X134482926Y-96344000D01*
X134482891Y-96384171D01*
X134578145Y-96614703D01*
X134754369Y-96791235D01*
X134984735Y-96886891D01*
X135234171Y-96887109D01*
X135464703Y-96791855D01*
X135641235Y-96615631D01*
X135736891Y-96385265D01*
X135737109Y-96135829D01*
X135641855Y-95905297D01*
X135465631Y-95728765D01*
X135235265Y-95633109D01*
X135227542Y-95633102D01*
X135317294Y-95575348D01*
X135391958Y-95466074D01*
X135418226Y-95336360D01*
X135418226Y-94137480D01*
X135395425Y-94016301D01*
X135348808Y-93943857D01*
X135705603Y-94300652D01*
X135705443Y-94483258D01*
X135800697Y-94713790D01*
X135976921Y-94890322D01*
X136207287Y-94985978D01*
X136456723Y-94986196D01*
X136687255Y-94890942D01*
X136707433Y-94870799D01*
X136716865Y-94880248D01*
X136929794Y-94968664D01*
X137079964Y-95118833D01*
X137079966Y-95118836D01*
X137194859Y-95195605D01*
X137218495Y-95211398D01*
X137381901Y-95243902D01*
X137381906Y-95243901D01*
X139521420Y-95243901D01*
X139521425Y-95243902D01*
X139684831Y-95211398D01*
X139823360Y-95118836D01*
X145315000Y-89627195D01*
X145315000Y-91706914D01*
X145281855Y-91626697D01*
X145105631Y-91450165D01*
X144875265Y-91354509D01*
X144625829Y-91354291D01*
X144395297Y-91449545D01*
X144290259Y-91554400D01*
X143763709Y-91554400D01*
X143600303Y-91586903D01*
X143461774Y-91679465D01*
X143461772Y-91679468D01*
X139728066Y-95413173D01*
X139635504Y-95551702D01*
X139603000Y-95715108D01*
X139603001Y-95715113D01*
X139603001Y-101988915D01*
X139575829Y-101988891D01*
X139345297Y-102084145D01*
X139168765Y-102260369D01*
X139073109Y-102490735D01*
X139072891Y-102740171D01*
X139168145Y-102970703D01*
X139344369Y-103147235D01*
X139574735Y-103242891D01*
X139824171Y-103243109D01*
X140028000Y-103158888D01*
X140028000Y-108252486D01*
X137499891Y-110780595D01*
X137321880Y-110706678D01*
X136913910Y-110706322D01*
X136536860Y-110862116D01*
X136248130Y-111150342D01*
X136091678Y-111527120D01*
X136091322Y-111935090D01*
X136247116Y-112312140D01*
X136535342Y-112600870D01*
X136912120Y-112757322D01*
X137320090Y-112757678D01*
X137697140Y-112601884D01*
X137985870Y-112313658D01*
X138142322Y-111936880D01*
X138142678Y-111528910D01*
X138068391Y-111349123D01*
X138895764Y-110521750D01*
X142248890Y-110521750D01*
X142248890Y-110961749D01*
X142345563Y-111195138D01*
X142524191Y-111373767D01*
X142757580Y-111470440D01*
X143297910Y-111470440D01*
X143456660Y-111311690D01*
X143456660Y-110363000D01*
X143710660Y-110363000D01*
X143710660Y-111311690D01*
X143869410Y-111470440D01*
X144409740Y-111470440D01*
X144643129Y-111373767D01*
X144821757Y-111195138D01*
X144918430Y-110961749D01*
X144918430Y-110521750D01*
X144759680Y-110363000D01*
X143710660Y-110363000D01*
X143456660Y-110363000D01*
X142407640Y-110363000D01*
X142248890Y-110521750D01*
X138895764Y-110521750D01*
X139167406Y-110250108D01*
X159444398Y-110250108D01*
X159624157Y-110585884D01*
X160474161Y-110923176D01*
X161388538Y-110909511D01*
X162169843Y-110585884D01*
X162349602Y-110250108D01*
X160897000Y-108797505D01*
X159444398Y-110250108D01*
X139167406Y-110250108D01*
X140714257Y-108703257D01*
X140801400Y-108572839D01*
X140832000Y-108419000D01*
X140832000Y-105450114D01*
X140852600Y-105553679D01*
X140939743Y-105684097D01*
X143076264Y-107820618D01*
X143076264Y-108136112D01*
X143049971Y-108147003D01*
X142871343Y-108325632D01*
X142774670Y-108559021D01*
X142774670Y-108748830D01*
X142933418Y-108907578D01*
X142774670Y-108907578D01*
X142774670Y-109001560D01*
X142757580Y-109001560D01*
X142524191Y-109098233D01*
X142345563Y-109276862D01*
X142248890Y-109510251D01*
X142248890Y-109950250D01*
X142407640Y-110109000D01*
X143456660Y-110109000D01*
X143456660Y-110018830D01*
X143710660Y-110018830D01*
X143710660Y-110109000D01*
X144759680Y-110109000D01*
X144849850Y-110018830D01*
X145133640Y-110018830D01*
X145367029Y-109922157D01*
X145545657Y-109743528D01*
X145642330Y-109510139D01*
X145642330Y-109320330D01*
X145483580Y-109161580D01*
X144706476Y-109161580D01*
X144643129Y-109098233D01*
X144409740Y-109001560D01*
X144061500Y-109001560D01*
X144061500Y-108907580D01*
X144081500Y-108907580D01*
X144081500Y-108887580D01*
X144335500Y-108887580D01*
X144335500Y-108907580D01*
X145483580Y-108907580D01*
X145642330Y-108748830D01*
X145642330Y-108559021D01*
X145545657Y-108325632D01*
X145415087Y-108195061D01*
X158591724Y-108195061D01*
X158605389Y-109109438D01*
X158929016Y-109890743D01*
X159264792Y-110070502D01*
X160717395Y-108617900D01*
X161076605Y-108617900D01*
X162529208Y-110070502D01*
X162864984Y-109890743D01*
X163202276Y-109040739D01*
X163188611Y-108126362D01*
X162864984Y-107345057D01*
X162529208Y-107165298D01*
X161076605Y-108617900D01*
X160717395Y-108617900D01*
X159264792Y-107165298D01*
X158929016Y-107345057D01*
X158591724Y-108195061D01*
X145415087Y-108195061D01*
X145367029Y-108147003D01*
X145340736Y-108136112D01*
X145340736Y-107585510D01*
X145317935Y-107464331D01*
X145266403Y-107384249D01*
X145314468Y-107313904D01*
X145340736Y-107184190D01*
X145340736Y-106985692D01*
X159444398Y-106985692D01*
X160897000Y-108438295D01*
X162349602Y-106985692D01*
X162169843Y-106649916D01*
X161319839Y-106312624D01*
X160405462Y-106326289D01*
X159624157Y-106649916D01*
X159444398Y-106985692D01*
X145340736Y-106985692D01*
X145340736Y-106633588D01*
X145367029Y-106622697D01*
X145545657Y-106444068D01*
X145642330Y-106210679D01*
X145642330Y-106020870D01*
X145483580Y-105862120D01*
X144335500Y-105862120D01*
X144335500Y-105882120D01*
X144081500Y-105882120D01*
X144081500Y-105862120D01*
X144061500Y-105862120D01*
X144061500Y-105750105D01*
X157140820Y-105750105D01*
X157298543Y-106131825D01*
X157590339Y-106424130D01*
X157971783Y-106582520D01*
X158384805Y-106582880D01*
X158766525Y-106425157D01*
X159058830Y-106133361D01*
X159217220Y-105751917D01*
X159217580Y-105338895D01*
X159059857Y-104957175D01*
X158768061Y-104664870D01*
X158386617Y-104506480D01*
X157973595Y-104506120D01*
X157591875Y-104663843D01*
X157299570Y-104955639D01*
X157141180Y-105337083D01*
X157140820Y-105750105D01*
X144061500Y-105750105D01*
X144061500Y-105608120D01*
X144081500Y-105608120D01*
X144081500Y-105588120D01*
X144335500Y-105588120D01*
X144335500Y-105608120D01*
X145483580Y-105608120D01*
X145642330Y-105449370D01*
X145642330Y-105259561D01*
X145545657Y-105026172D01*
X145367029Y-104847543D01*
X145340736Y-104836652D01*
X145340736Y-104286050D01*
X145317935Y-104164871D01*
X145266403Y-104084789D01*
X145314468Y-104014444D01*
X145340736Y-103884730D01*
X145340736Y-103506730D01*
X145759264Y-103088201D01*
X145759267Y-103088199D01*
X145851829Y-102949670D01*
X145875541Y-102830460D01*
X145988567Y-102717631D01*
X146084223Y-102487265D01*
X146084441Y-102237829D01*
X145989187Y-102007297D01*
X145812963Y-101830765D01*
X145582597Y-101735109D01*
X145333161Y-101734891D01*
X145330983Y-101735791D01*
X145340736Y-101687630D01*
X145340736Y-101254305D01*
X157140820Y-101254305D01*
X157298543Y-101636025D01*
X157590339Y-101928330D01*
X157888431Y-102052109D01*
X157591875Y-102174643D01*
X157299570Y-102466439D01*
X157141180Y-102847883D01*
X157140820Y-103260905D01*
X157298543Y-103642625D01*
X157590339Y-103934930D01*
X157971783Y-104093320D01*
X158384805Y-104093680D01*
X158766525Y-103935957D01*
X159058830Y-103644161D01*
X159217220Y-103262717D01*
X159217580Y-102849695D01*
X159059857Y-102467975D01*
X158768061Y-102175670D01*
X158469969Y-102051891D01*
X158766525Y-101929357D01*
X159058830Y-101637561D01*
X159217220Y-101256117D01*
X159217580Y-100843095D01*
X159059857Y-100461375D01*
X158768061Y-100169070D01*
X158386617Y-100010680D01*
X157973595Y-100010320D01*
X157591875Y-100168043D01*
X157299570Y-100459839D01*
X157141180Y-100841283D01*
X157140820Y-101254305D01*
X145340736Y-101254305D01*
X145340736Y-100989130D01*
X145317935Y-100867951D01*
X145266403Y-100787869D01*
X145314468Y-100717524D01*
X145340736Y-100587810D01*
X145340736Y-99889310D01*
X145317935Y-99768131D01*
X145246318Y-99656836D01*
X145137044Y-99582172D01*
X145007330Y-99555904D01*
X144610500Y-99555904D01*
X144610500Y-99502895D01*
X157415410Y-99502895D01*
X157478627Y-99739821D01*
X157983645Y-99918072D01*
X158518433Y-99889493D01*
X158879773Y-99739821D01*
X158942990Y-99502895D01*
X158179200Y-98739105D01*
X157415410Y-99502895D01*
X144610500Y-99502895D01*
X144610500Y-99290014D01*
X145536569Y-98363945D01*
X156820628Y-98363945D01*
X156849207Y-98898733D01*
X156998879Y-99260073D01*
X157235805Y-99323290D01*
X157999595Y-98559500D01*
X158358805Y-98559500D01*
X159122595Y-99323290D01*
X159359521Y-99260073D01*
X159537772Y-98755055D01*
X159509193Y-98220267D01*
X159359521Y-97858927D01*
X159122595Y-97795710D01*
X158358805Y-98559500D01*
X157999595Y-98559500D01*
X157235805Y-97795710D01*
X156998879Y-97858927D01*
X156820628Y-98363945D01*
X145536569Y-98363945D01*
X146284409Y-97616105D01*
X157415410Y-97616105D01*
X158179200Y-98379895D01*
X158942990Y-97616105D01*
X158879773Y-97379179D01*
X158374755Y-97200928D01*
X157839967Y-97229507D01*
X157478627Y-97379179D01*
X157415410Y-97616105D01*
X146284409Y-97616105D01*
X146782206Y-97118308D01*
X159444398Y-97118308D01*
X159624157Y-97454084D01*
X160474161Y-97791376D01*
X161388538Y-97777711D01*
X162169843Y-97454084D01*
X162349602Y-97118308D01*
X160897000Y-95665705D01*
X159444398Y-97118308D01*
X146782206Y-97118308D01*
X148837253Y-95063261D01*
X158591724Y-95063261D01*
X158605389Y-95977638D01*
X158929016Y-96758943D01*
X159264792Y-96938702D01*
X160717395Y-95486100D01*
X161076605Y-95486100D01*
X162529208Y-96938702D01*
X162864984Y-96758943D01*
X163202276Y-95908939D01*
X163188611Y-94994562D01*
X162864984Y-94213257D01*
X162529208Y-94033498D01*
X161076605Y-95486100D01*
X160717395Y-95486100D01*
X159264792Y-94033498D01*
X158929016Y-94213257D01*
X158591724Y-95063261D01*
X148837253Y-95063261D01*
X150046622Y-93853892D01*
X159444398Y-93853892D01*
X160897000Y-95306495D01*
X162349602Y-93853892D01*
X162169843Y-93518116D01*
X161319839Y-93180824D01*
X160405462Y-93194489D01*
X159624157Y-93518116D01*
X159444398Y-93853892D01*
X150046622Y-93853892D01*
X157596657Y-86303857D01*
X157938052Y-86531971D01*
X158393675Y-86622600D01*
X158440325Y-86622600D01*
X158895948Y-86531971D01*
X159282206Y-86273881D01*
X159540296Y-85887623D01*
X159630925Y-85432000D01*
X159540296Y-84976377D01*
X159282206Y-84590119D01*
X158895948Y-84332029D01*
X158834136Y-84319734D01*
X159305490Y-84098821D01*
X159699688Y-83666947D01*
X159871958Y-83251026D01*
X159750817Y-83019000D01*
X158544000Y-83019000D01*
X158544000Y-83039000D01*
X158290000Y-83039000D01*
X158290000Y-83019000D01*
X158270000Y-83019000D01*
X158270000Y-82765000D01*
X158290000Y-82765000D01*
X158290000Y-81557531D01*
X158544000Y-81557531D01*
X158544000Y-82765000D01*
X159750817Y-82765000D01*
X159871958Y-82532974D01*
X159699688Y-82117053D01*
X159305490Y-81685179D01*
X158776027Y-81437032D01*
X158544000Y-81557531D01*
X158290000Y-81557531D01*
X158057973Y-81437032D01*
X157528510Y-81685179D01*
X157134312Y-82117053D01*
X157000866Y-82439240D01*
X157000296Y-82436377D01*
X156742206Y-82050119D01*
X156355948Y-81792029D01*
X155900325Y-81701400D01*
X155853675Y-81701400D01*
X155398052Y-81792029D01*
X155011794Y-82050119D01*
X154753704Y-82436377D01*
X154663075Y-82892000D01*
X154753704Y-83347623D01*
X155011794Y-83733881D01*
X155398052Y-83991971D01*
X155853675Y-84082600D01*
X155900325Y-84082600D01*
X156355948Y-83991971D01*
X156742206Y-83733881D01*
X157000296Y-83347623D01*
X157000866Y-83344760D01*
X157134312Y-83666947D01*
X157528510Y-84098821D01*
X157999864Y-84319734D01*
X157938052Y-84332029D01*
X157551794Y-84590119D01*
X157293704Y-84976377D01*
X157203075Y-85432000D01*
X157224380Y-85539106D01*
X157031193Y-85732293D01*
X157090925Y-85432000D01*
X157000296Y-84976377D01*
X156742206Y-84590119D01*
X156355948Y-84332029D01*
X155900325Y-84241400D01*
X155853675Y-84241400D01*
X155398052Y-84332029D01*
X155011794Y-84590119D01*
X154753704Y-84976377D01*
X154663075Y-85432000D01*
X154753704Y-85887623D01*
X155011794Y-86273881D01*
X155398052Y-86531971D01*
X155475000Y-86547277D01*
X155475000Y-86850464D01*
X153739000Y-88586464D01*
X153739000Y-86547277D01*
X153815948Y-86531971D01*
X154202206Y-86273881D01*
X154460296Y-85887623D01*
X154550925Y-85432000D01*
X154460296Y-84976377D01*
X154202206Y-84590119D01*
X153815948Y-84332029D01*
X153360325Y-84241400D01*
X153313675Y-84241400D01*
X152858052Y-84332029D01*
X152471794Y-84590119D01*
X152213704Y-84976377D01*
X152123075Y-85432000D01*
X152213704Y-85887623D01*
X152471794Y-86273881D01*
X152858052Y-86531971D01*
X152935000Y-86547277D01*
X152935000Y-88966185D01*
X151199000Y-90702185D01*
X151199000Y-86547277D01*
X151275948Y-86531971D01*
X151662206Y-86273881D01*
X151920296Y-85887623D01*
X152010925Y-85432000D01*
X151920296Y-84976377D01*
X151662206Y-84590119D01*
X151275948Y-84332029D01*
X150820325Y-84241400D01*
X150773675Y-84241400D01*
X150318052Y-84332029D01*
X149931794Y-84590119D01*
X149673704Y-84976377D01*
X149583075Y-85432000D01*
X149673704Y-85887623D01*
X149931794Y-86273881D01*
X150318052Y-86531971D01*
X150395000Y-86547277D01*
X150395000Y-91081907D01*
X148659000Y-92817907D01*
X148659000Y-86547277D01*
X148735948Y-86531971D01*
X149122206Y-86273881D01*
X149380296Y-85887623D01*
X149470925Y-85432000D01*
X149380296Y-84976377D01*
X149122206Y-84590119D01*
X148735948Y-84332029D01*
X148280325Y-84241400D01*
X148233675Y-84241400D01*
X147778052Y-84332029D01*
X147391794Y-84590119D01*
X147133704Y-84976377D01*
X147043075Y-85432000D01*
X147133704Y-85887623D01*
X147391794Y-86273881D01*
X147778052Y-86531971D01*
X147855000Y-86547277D01*
X147855000Y-93197628D01*
X146119000Y-94933628D01*
X146119000Y-86547277D01*
X146195948Y-86531971D01*
X146582206Y-86273881D01*
X146840296Y-85887623D01*
X146930925Y-85432000D01*
X146840296Y-84976377D01*
X146582206Y-84590119D01*
X146195948Y-84332029D01*
X145740325Y-84241400D01*
X145693675Y-84241400D01*
X145238052Y-84332029D01*
X144917000Y-84546550D01*
X144917000Y-84295870D01*
X145227770Y-83985100D01*
X145238052Y-83991971D01*
X145693675Y-84082600D01*
X145740325Y-84082600D01*
X146195948Y-83991971D01*
X146582206Y-83733881D01*
X146840296Y-83347623D01*
X146930925Y-82892000D01*
X146840296Y-82436377D01*
X146685961Y-82205399D01*
X146966529Y-82205399D01*
X147159260Y-82398130D01*
X147133704Y-82436377D01*
X147043075Y-82892000D01*
X147133704Y-83347623D01*
X147391794Y-83733881D01*
X147778052Y-83991971D01*
X148233675Y-84082600D01*
X148280325Y-84082600D01*
X148735948Y-83991971D01*
X149122206Y-83733881D01*
X149380296Y-83347623D01*
X149470925Y-82892000D01*
X149583075Y-82892000D01*
X149673704Y-83347623D01*
X149931794Y-83733881D01*
X150318052Y-83991971D01*
X150773675Y-84082600D01*
X150820325Y-84082600D01*
X151275948Y-83991971D01*
X151662206Y-83733881D01*
X151920296Y-83347623D01*
X152010925Y-82892000D01*
X152123075Y-82892000D01*
X152213704Y-83347623D01*
X152471794Y-83733881D01*
X152858052Y-83991971D01*
X153313675Y-84082600D01*
X153360325Y-84082600D01*
X153815948Y-83991971D01*
X154202206Y-83733881D01*
X154460296Y-83347623D01*
X154550925Y-82892000D01*
X154460296Y-82436377D01*
X154202206Y-82050119D01*
X153815948Y-81792029D01*
X153360325Y-81701400D01*
X153313675Y-81701400D01*
X152858052Y-81792029D01*
X152471794Y-82050119D01*
X152213704Y-82436377D01*
X152123075Y-82892000D01*
X152010925Y-82892000D01*
X151920296Y-82436377D01*
X151662206Y-82050119D01*
X151275948Y-81792029D01*
X150820325Y-81701400D01*
X150773675Y-81701400D01*
X150318052Y-81792029D01*
X149931794Y-82050119D01*
X149673704Y-82436377D01*
X149583075Y-82892000D01*
X149470925Y-82892000D01*
X149380296Y-82436377D01*
X149122206Y-82050119D01*
X148735948Y-81792029D01*
X148280325Y-81701400D01*
X148233675Y-81701400D01*
X147778052Y-81792029D01*
X147767769Y-81798900D01*
X147445334Y-81476464D01*
X147306805Y-81383902D01*
X147143399Y-81351398D01*
X147143394Y-81351399D01*
X145182471Y-81351399D01*
X145019065Y-81383902D01*
X144880536Y-81476464D01*
X144880534Y-81476467D01*
X144301464Y-82055536D01*
X144208902Y-82194065D01*
X144192726Y-82275387D01*
X144042206Y-82050119D01*
X143655948Y-81792029D01*
X143200325Y-81701400D01*
X143153675Y-81701400D01*
X142698052Y-81792029D01*
X142311794Y-82050119D01*
X142053704Y-82436377D01*
X141963075Y-82892000D01*
X142053704Y-83347623D01*
X142311794Y-83733881D01*
X142423784Y-83808710D01*
X142314195Y-83881935D01*
X142314193Y-83881938D01*
X141618065Y-84578065D01*
X141556108Y-84670790D01*
X141502206Y-84590119D01*
X141115948Y-84332029D01*
X140660325Y-84241400D01*
X140613675Y-84241400D01*
X140158052Y-84332029D01*
X139771794Y-84590119D01*
X139513704Y-84976377D01*
X139423075Y-85432000D01*
X139513704Y-85887623D01*
X139771794Y-86273881D01*
X140158052Y-86531971D01*
X140613675Y-86622600D01*
X140660325Y-86622600D01*
X141115948Y-86531971D01*
X141502206Y-86273881D01*
X141564127Y-86181210D01*
X141618065Y-86261935D01*
X142729132Y-87373001D01*
X140641870Y-87373001D01*
X139262534Y-85993664D01*
X139262531Y-85993662D01*
X139194740Y-85925871D01*
X139220296Y-85887623D01*
X139310925Y-85432000D01*
X139220296Y-84976377D01*
X138962206Y-84590119D01*
X138575948Y-84332029D01*
X138120325Y-84241400D01*
X138073675Y-84241400D01*
X137618052Y-84332029D01*
X137231794Y-84590119D01*
X136973704Y-84976377D01*
X136883075Y-85432000D01*
X136973704Y-85887623D01*
X137231794Y-86273881D01*
X137618052Y-86531971D01*
X138073675Y-86622600D01*
X138120325Y-86622600D01*
X138575948Y-86531971D01*
X138586231Y-86525100D01*
X138658662Y-86597531D01*
X138658664Y-86597534D01*
X139637217Y-87576086D01*
X139519607Y-87497502D01*
X139356201Y-87464998D01*
X139356196Y-87464999D01*
X138193869Y-87464999D01*
X136654740Y-85925870D01*
X136680296Y-85887623D01*
X136770925Y-85432000D01*
X136680296Y-84976377D01*
X136422206Y-84590119D01*
X136035948Y-84332029D01*
X135580325Y-84241400D01*
X135533675Y-84241400D01*
X135078052Y-84332029D01*
X134691794Y-84590119D01*
X134522000Y-84844233D01*
X134522000Y-84034255D01*
X134563686Y-84062738D01*
X134693400Y-84089006D01*
X136420600Y-84089006D01*
X136541779Y-84066205D01*
X136653074Y-83994588D01*
X136727738Y-83885314D01*
X136754006Y-83755600D01*
X136754006Y-82892000D01*
X136883075Y-82892000D01*
X136973704Y-83347623D01*
X137231794Y-83733881D01*
X137618052Y-83991971D01*
X138073675Y-84082600D01*
X138120325Y-84082600D01*
X138575948Y-83991971D01*
X138962206Y-83733881D01*
X139220296Y-83347623D01*
X139310925Y-82892000D01*
X139423075Y-82892000D01*
X139513704Y-83347623D01*
X139771794Y-83733881D01*
X140158052Y-83991971D01*
X140613675Y-84082600D01*
X140660325Y-84082600D01*
X141115948Y-83991971D01*
X141502206Y-83733881D01*
X141760296Y-83347623D01*
X141850925Y-82892000D01*
X141760296Y-82436377D01*
X141502206Y-82050119D01*
X141115948Y-81792029D01*
X140660325Y-81701400D01*
X140613675Y-81701400D01*
X140158052Y-81792029D01*
X139771794Y-82050119D01*
X139513704Y-82436377D01*
X139423075Y-82892000D01*
X139310925Y-82892000D01*
X139220296Y-82436377D01*
X138962206Y-82050119D01*
X138575948Y-81792029D01*
X138120325Y-81701400D01*
X138073675Y-81701400D01*
X137618052Y-81792029D01*
X137231794Y-82050119D01*
X136973704Y-82436377D01*
X136883075Y-82892000D01*
X136754006Y-82892000D01*
X136754006Y-82028400D01*
X136731205Y-81907221D01*
X136659588Y-81795926D01*
X136550314Y-81721262D01*
X136420600Y-81694994D01*
X134693400Y-81694994D01*
X134572221Y-81717795D01*
X134522000Y-81750112D01*
X134522000Y-81686514D01*
X135066514Y-81142000D01*
X159923486Y-81142000D01*
X160128000Y-81346514D01*
X160128000Y-86383422D01*
X160158600Y-86537261D01*
X160245743Y-86667679D01*
X165559629Y-91981565D01*
X165559469Y-92164171D01*
X165654723Y-92394703D01*
X165830947Y-92571235D01*
X166061313Y-92666891D01*
X166310749Y-92667109D01*
X166541281Y-92571855D01*
X166717813Y-92395631D01*
X166813469Y-92165265D01*
X166813687Y-91915829D01*
X166718433Y-91685297D01*
X166542209Y-91508765D01*
X166311843Y-91413109D01*
X166128040Y-91412948D01*
X160932000Y-86216908D01*
X160932000Y-84467176D01*
X162540591Y-84467176D01*
X162898971Y-85334521D01*
X163561989Y-85998697D01*
X164428707Y-86358590D01*
X165367176Y-86359409D01*
X166234521Y-86001029D01*
X166898697Y-85338011D01*
X167258590Y-84471293D01*
X167259409Y-83532824D01*
X166901029Y-82665479D01*
X166238011Y-82001303D01*
X165371293Y-81641410D01*
X164432824Y-81640591D01*
X163565479Y-81998971D01*
X162901303Y-82661989D01*
X162541410Y-83528707D01*
X162540591Y-84467176D01*
X160932000Y-84467176D01*
X160932000Y-81180000D01*
X160901400Y-81026161D01*
X160814257Y-80895743D01*
X160374257Y-80455743D01*
X160243839Y-80368600D01*
X160090000Y-80338000D01*
X134900000Y-80338000D01*
X134746161Y-80368600D01*
X134615743Y-80455743D01*
X133835743Y-81235743D01*
X133748600Y-81366161D01*
X133718000Y-81520000D01*
X133718000Y-91429042D01*
X133748600Y-91582881D01*
X133835743Y-91713299D01*
X133980294Y-91857850D01*
X133980294Y-92173360D01*
X133851059Y-92302370D01*
X133755403Y-92532736D01*
X133755212Y-92751698D01*
X132429000Y-91425486D01*
X132429000Y-91122000D01*
X132398400Y-90968161D01*
X132311257Y-90837743D01*
X132301257Y-90827743D01*
X132200406Y-90760356D01*
X132200406Y-90487000D01*
X132177605Y-90365821D01*
X132105988Y-90254526D01*
X131996714Y-90179862D01*
X131867000Y-90153594D01*
X130867000Y-90153594D01*
X130745821Y-90176395D01*
X130634526Y-90248012D01*
X130559862Y-90357286D01*
X130533594Y-90487000D01*
X130533594Y-91737000D01*
X130556395Y-91858179D01*
X130628012Y-91969474D01*
X130737286Y-92044138D01*
X130867000Y-92070406D01*
X131867000Y-92070406D01*
X131925824Y-92059338D01*
X133323764Y-93457278D01*
X133454182Y-93544421D01*
X133608021Y-93575021D01*
X134979972Y-93575021D01*
X135280076Y-93875125D01*
X135214534Y-93830342D01*
X135084820Y-93804074D01*
X132885180Y-93804074D01*
X132764001Y-93826875D01*
X132652706Y-93898492D01*
X132578042Y-94007766D01*
X132551774Y-94137480D01*
X132551774Y-94853260D01*
X132033856Y-94335342D01*
X132079474Y-94305988D01*
X132154138Y-94196714D01*
X132180406Y-94067000D01*
X132180406Y-92817000D01*
X132157605Y-92695821D01*
X132085988Y-92584526D01*
X131976714Y-92509862D01*
X131847000Y-92483594D01*
X130847000Y-92483594D01*
X130725821Y-92506395D01*
X130614526Y-92578012D01*
X130539862Y-92687286D01*
X130513594Y-92817000D01*
X130482000Y-92817000D01*
X130482000Y-92690690D01*
X130385327Y-92457301D01*
X130210190Y-92282165D01*
X130226698Y-92275327D01*
X130405327Y-92096699D01*
X130502000Y-91863310D01*
X130502000Y-91397750D01*
X130343250Y-91239000D01*
X129494000Y-91239000D01*
X129494000Y-92213250D01*
X129547750Y-92267000D01*
X129474000Y-92340750D01*
X129220000Y-92340750D01*
X129166250Y-92287000D01*
X129240000Y-92213250D01*
X129240000Y-91239000D01*
X128390750Y-91239000D01*
X128232000Y-91397750D01*
X128232000Y-91863310D01*
X128328673Y-92096699D01*
X128503810Y-92271835D01*
X128487302Y-92278673D01*
X128308673Y-92457301D01*
X128212000Y-92690690D01*
X124862000Y-92690690D01*
X124862000Y-90360690D01*
X128232000Y-90360690D01*
X128232000Y-90826250D01*
X128390750Y-90985000D01*
X129240000Y-90985000D01*
X129240000Y-90010750D01*
X129494000Y-90010750D01*
X129494000Y-90985000D01*
X130343250Y-90985000D01*
X130502000Y-90826250D01*
X130502000Y-90360690D01*
X130405327Y-90127301D01*
X130226698Y-89948673D01*
X129993309Y-89852000D01*
X129652750Y-89852000D01*
X129494000Y-90010750D01*
X129240000Y-90010750D01*
X129081250Y-89852000D01*
X128740691Y-89852000D01*
X128507302Y-89948673D01*
X128328673Y-90127301D01*
X128232000Y-90360690D01*
X124862000Y-90360690D01*
X124862000Y-84467176D01*
X126940591Y-84467176D01*
X127298971Y-85334521D01*
X127961989Y-85998697D01*
X128828707Y-86358590D01*
X129767176Y-86359409D01*
X130634521Y-86001029D01*
X131298697Y-85338011D01*
X131658590Y-84471293D01*
X131659409Y-83532824D01*
X131301029Y-82665479D01*
X130638011Y-82001303D01*
X129771293Y-81641410D01*
X128832824Y-81640591D01*
X127965479Y-81998971D01*
X127301303Y-82661989D01*
X126941410Y-83528707D01*
X126940591Y-84467176D01*
X124862000Y-84467176D01*
X124862000Y-84367595D01*
X125225368Y-82540820D01*
X126237723Y-81025724D01*
X127752820Y-80013368D01*
X129579595Y-79650000D01*
X164552405Y-79650000D01*
X166379180Y-80013368D01*
X166379180Y-80013368D01*
G37*
X166379180Y-80013368D02*
X167894276Y-81025723D01*
X168906632Y-82540820D01*
X169173000Y-83879943D01*
X169173000Y-119828057D01*
X168906632Y-121167180D01*
X167894276Y-122682277D01*
X166379180Y-123694632D01*
X164552405Y-124058000D01*
X129579595Y-124058000D01*
X127752820Y-123694632D01*
X126237723Y-122682276D01*
X125225368Y-121167180D01*
X125006564Y-120067176D01*
X126840591Y-120067176D01*
X127198971Y-120934521D01*
X127861989Y-121598697D01*
X128728707Y-121958590D01*
X129667176Y-121959409D01*
X130534521Y-121601029D01*
X131198697Y-120938011D01*
X131238968Y-120841026D01*
X134112042Y-120841026D01*
X134284312Y-121256947D01*
X134678510Y-121688821D01*
X135207973Y-121936968D01*
X135440000Y-121816469D01*
X135440000Y-120609000D01*
X134233183Y-120609000D01*
X134112042Y-120841026D01*
X131238968Y-120841026D01*
X131537130Y-120122974D01*
X134112042Y-120122974D01*
X134233183Y-120355000D01*
X135440000Y-120355000D01*
X135440000Y-120335000D01*
X135694000Y-120335000D01*
X135694000Y-120355000D01*
X135714000Y-120355000D01*
X135714000Y-120609000D01*
X135694000Y-120609000D01*
X135694000Y-121816469D01*
X135926027Y-121936968D01*
X136455490Y-121688821D01*
X136849688Y-121256947D01*
X136983134Y-120934760D01*
X136983704Y-120937623D01*
X137241794Y-121323881D01*
X137628052Y-121581971D01*
X138083675Y-121672600D01*
X138130325Y-121672600D01*
X138585948Y-121581971D01*
X138972206Y-121323881D01*
X139230296Y-120937623D01*
X139320925Y-120482000D01*
X139433075Y-120482000D01*
X139523704Y-120937623D01*
X139781794Y-121323881D01*
X140168052Y-121581971D01*
X140623675Y-121672600D01*
X140670325Y-121672600D01*
X141125948Y-121581971D01*
X141512206Y-121323881D01*
X141770296Y-120937623D01*
X141860925Y-120482000D01*
X141973075Y-120482000D01*
X142063704Y-120937623D01*
X142321794Y-121323881D01*
X142708052Y-121581971D01*
X143163675Y-121672600D01*
X143210325Y-121672600D01*
X143665948Y-121581971D01*
X144052206Y-121323881D01*
X144310296Y-120937623D01*
X144400925Y-120482000D01*
X144513075Y-120482000D01*
X144603704Y-120937623D01*
X144861794Y-121323881D01*
X145248052Y-121581971D01*
X145703675Y-121672600D01*
X145750325Y-121672600D01*
X146205948Y-121581971D01*
X146592206Y-121323881D01*
X146850296Y-120937623D01*
X146940925Y-120482000D01*
X147053075Y-120482000D01*
X147143704Y-120937623D01*
X147401794Y-121323881D01*
X147788052Y-121581971D01*
X148243675Y-121672600D01*
X148290325Y-121672600D01*
X148745948Y-121581971D01*
X149132206Y-121323881D01*
X149390296Y-120937623D01*
X149480925Y-120482000D01*
X149593075Y-120482000D01*
X149683704Y-120937623D01*
X149941794Y-121323881D01*
X150328052Y-121581971D01*
X150783675Y-121672600D01*
X150830325Y-121672600D01*
X151285948Y-121581971D01*
X151672206Y-121323881D01*
X151930296Y-120937623D01*
X152020925Y-120482000D01*
X152133075Y-120482000D01*
X152223704Y-120937623D01*
X152481794Y-121323881D01*
X152868052Y-121581971D01*
X153323675Y-121672600D01*
X153370325Y-121672600D01*
X153825948Y-121581971D01*
X154212206Y-121323881D01*
X154470296Y-120937623D01*
X154560925Y-120482000D01*
X154673075Y-120482000D01*
X154763704Y-120937623D01*
X155021794Y-121323881D01*
X155408052Y-121581971D01*
X155863675Y-121672600D01*
X155910325Y-121672600D01*
X156365948Y-121581971D01*
X156752206Y-121323881D01*
X157010296Y-120937623D01*
X157100925Y-120482000D01*
X157213075Y-120482000D01*
X157303704Y-120937623D01*
X157561794Y-121323881D01*
X157948052Y-121581971D01*
X158403675Y-121672600D01*
X158450325Y-121672600D01*
X158905948Y-121581971D01*
X159292206Y-121323881D01*
X159550296Y-120937623D01*
X159640925Y-120482000D01*
X159558412Y-120067176D01*
X162340591Y-120067176D01*
X162698971Y-120934521D01*
X163361989Y-121598697D01*
X164228707Y-121958590D01*
X165167176Y-121959409D01*
X166034521Y-121601029D01*
X166698697Y-120938011D01*
X167058590Y-120071293D01*
X167059409Y-119132824D01*
X166701029Y-118265479D01*
X166038011Y-117601303D01*
X165171293Y-117241410D01*
X164232824Y-117240591D01*
X163365479Y-117598971D01*
X162701303Y-118261989D01*
X162341410Y-119128707D01*
X162340591Y-120067176D01*
X159558412Y-120067176D01*
X159550296Y-120026377D01*
X159292206Y-119640119D01*
X158905948Y-119382029D01*
X158450325Y-119291400D01*
X158403675Y-119291400D01*
X157948052Y-119382029D01*
X157561794Y-119640119D01*
X157303704Y-120026377D01*
X157213075Y-120482000D01*
X157100925Y-120482000D01*
X157010296Y-120026377D01*
X156752206Y-119640119D01*
X156365948Y-119382029D01*
X155910325Y-119291400D01*
X155863675Y-119291400D01*
X155408052Y-119382029D01*
X155021794Y-119640119D01*
X154763704Y-120026377D01*
X154673075Y-120482000D01*
X154560925Y-120482000D01*
X154470296Y-120026377D01*
X154212206Y-119640119D01*
X153825948Y-119382029D01*
X153370325Y-119291400D01*
X153323675Y-119291400D01*
X152868052Y-119382029D01*
X152481794Y-119640119D01*
X152223704Y-120026377D01*
X152133075Y-120482000D01*
X152020925Y-120482000D01*
X151930296Y-120026377D01*
X151672206Y-119640119D01*
X151285948Y-119382029D01*
X150830325Y-119291400D01*
X150783675Y-119291400D01*
X150328052Y-119382029D01*
X149941794Y-119640119D01*
X149683704Y-120026377D01*
X149593075Y-120482000D01*
X149480925Y-120482000D01*
X149390296Y-120026377D01*
X149132206Y-119640119D01*
X148745948Y-119382029D01*
X148290325Y-119291400D01*
X148243675Y-119291400D01*
X147788052Y-119382029D01*
X147401794Y-119640119D01*
X147143704Y-120026377D01*
X147053075Y-120482000D01*
X146940925Y-120482000D01*
X146850296Y-120026377D01*
X146592206Y-119640119D01*
X146205948Y-119382029D01*
X145750325Y-119291400D01*
X145703675Y-119291400D01*
X145248052Y-119382029D01*
X144861794Y-119640119D01*
X144603704Y-120026377D01*
X144513075Y-120482000D01*
X144400925Y-120482000D01*
X144310296Y-120026377D01*
X144052206Y-119640119D01*
X143665948Y-119382029D01*
X143210325Y-119291400D01*
X143163675Y-119291400D01*
X142708052Y-119382029D01*
X142321794Y-119640119D01*
X142063704Y-120026377D01*
X141973075Y-120482000D01*
X141860925Y-120482000D01*
X141770296Y-120026377D01*
X141512206Y-119640119D01*
X141125948Y-119382029D01*
X140670325Y-119291400D01*
X140623675Y-119291400D01*
X140168052Y-119382029D01*
X139781794Y-119640119D01*
X139523704Y-120026377D01*
X139433075Y-120482000D01*
X139320925Y-120482000D01*
X139230296Y-120026377D01*
X138972206Y-119640119D01*
X138585948Y-119382029D01*
X138130325Y-119291400D01*
X138083675Y-119291400D01*
X137628052Y-119382029D01*
X137241794Y-119640119D01*
X136983704Y-120026377D01*
X136983134Y-120029240D01*
X136849688Y-119707053D01*
X136455490Y-119275179D01*
X136164942Y-119139006D01*
X136430600Y-119139006D01*
X136551779Y-119116205D01*
X136663074Y-119044588D01*
X136737738Y-118935314D01*
X136764006Y-118805600D01*
X136764006Y-117942000D01*
X136893075Y-117942000D01*
X136983704Y-118397623D01*
X137241794Y-118783881D01*
X137628052Y-119041971D01*
X138083675Y-119132600D01*
X138130325Y-119132600D01*
X138585948Y-119041971D01*
X138972206Y-118783881D01*
X139230296Y-118397623D01*
X139320925Y-117942000D01*
X139433075Y-117942000D01*
X139523704Y-118397623D01*
X139781794Y-118783881D01*
X140168052Y-119041971D01*
X140623675Y-119132600D01*
X140670325Y-119132600D01*
X141125948Y-119041971D01*
X141512206Y-118783881D01*
X141770296Y-118397623D01*
X141860925Y-117942000D01*
X141973075Y-117942000D01*
X142063704Y-118397623D01*
X142321794Y-118783881D01*
X142708052Y-119041971D01*
X143163675Y-119132600D01*
X143210325Y-119132600D01*
X143665948Y-119041971D01*
X144052206Y-118783881D01*
X144310296Y-118397623D01*
X144400925Y-117942000D01*
X144513075Y-117942000D01*
X144603704Y-118397623D01*
X144861794Y-118783881D01*
X145248052Y-119041971D01*
X145703675Y-119132600D01*
X145750325Y-119132600D01*
X146205948Y-119041971D01*
X146592206Y-118783881D01*
X146850296Y-118397623D01*
X146940925Y-117942000D01*
X147053075Y-117942000D01*
X147143704Y-118397623D01*
X147401794Y-118783881D01*
X147788052Y-119041971D01*
X148243675Y-119132600D01*
X148290325Y-119132600D01*
X148745948Y-119041971D01*
X149132206Y-118783881D01*
X149390296Y-118397623D01*
X149480925Y-117942000D01*
X149593075Y-117942000D01*
X149683704Y-118397623D01*
X149941794Y-118783881D01*
X150328052Y-119041971D01*
X150783675Y-119132600D01*
X150830325Y-119132600D01*
X151285948Y-119041971D01*
X151672206Y-118783881D01*
X151930296Y-118397623D01*
X152020925Y-117942000D01*
X152133075Y-117942000D01*
X152223704Y-118397623D01*
X152481794Y-118783881D01*
X152868052Y-119041971D01*
X153323675Y-119132600D01*
X153370325Y-119132600D01*
X153825948Y-119041971D01*
X154212206Y-118783881D01*
X154470296Y-118397623D01*
X154560925Y-117942000D01*
X154673075Y-117942000D01*
X154763704Y-118397623D01*
X155021794Y-118783881D01*
X155408052Y-119041971D01*
X155863675Y-119132600D01*
X155910325Y-119132600D01*
X156365948Y-119041971D01*
X156752206Y-118783881D01*
X157010296Y-118397623D01*
X157100925Y-117942000D01*
X157213075Y-117942000D01*
X157303704Y-118397623D01*
X157561794Y-118783881D01*
X157948052Y-119041971D01*
X158403675Y-119132600D01*
X158450325Y-119132600D01*
X158905948Y-119041971D01*
X159292206Y-118783881D01*
X159550296Y-118397623D01*
X159640925Y-117942000D01*
X159550296Y-117486377D01*
X159292206Y-117100119D01*
X158905948Y-116842029D01*
X158450325Y-116751400D01*
X158403675Y-116751400D01*
X157948052Y-116842029D01*
X157561794Y-117100119D01*
X157303704Y-117486377D01*
X157213075Y-117942000D01*
X157100925Y-117942000D01*
X157010296Y-117486377D01*
X156752206Y-117100119D01*
X156365948Y-116842029D01*
X155910325Y-116751400D01*
X155863675Y-116751400D01*
X155408052Y-116842029D01*
X155021794Y-117100119D01*
X154763704Y-117486377D01*
X154673075Y-117942000D01*
X154560925Y-117942000D01*
X154470296Y-117486377D01*
X154212206Y-117100119D01*
X153825948Y-116842029D01*
X153370325Y-116751400D01*
X153323675Y-116751400D01*
X152868052Y-116842029D01*
X152481794Y-117100119D01*
X152223704Y-117486377D01*
X152133075Y-117942000D01*
X152020925Y-117942000D01*
X151930296Y-117486377D01*
X151672206Y-117100119D01*
X151285948Y-116842029D01*
X150830325Y-116751400D01*
X150783675Y-116751400D01*
X150328052Y-116842029D01*
X149941794Y-117100119D01*
X149683704Y-117486377D01*
X149593075Y-117942000D01*
X149480925Y-117942000D01*
X149390296Y-117486377D01*
X149132206Y-117100119D01*
X148745948Y-116842029D01*
X148290325Y-116751400D01*
X148243675Y-116751400D01*
X147788052Y-116842029D01*
X147401794Y-117100119D01*
X147143704Y-117486377D01*
X147053075Y-117942000D01*
X146940925Y-117942000D01*
X146850296Y-117486377D01*
X146592206Y-117100119D01*
X146205948Y-116842029D01*
X145750325Y-116751400D01*
X145703675Y-116751400D01*
X145248052Y-116842029D01*
X144861794Y-117100119D01*
X144603704Y-117486377D01*
X144513075Y-117942000D01*
X144400925Y-117942000D01*
X144310296Y-117486377D01*
X144052206Y-117100119D01*
X143665948Y-116842029D01*
X143210325Y-116751400D01*
X143163675Y-116751400D01*
X142708052Y-116842029D01*
X142321794Y-117100119D01*
X142063704Y-117486377D01*
X141973075Y-117942000D01*
X141860925Y-117942000D01*
X141770296Y-117486377D01*
X141512206Y-117100119D01*
X141125948Y-116842029D01*
X140670325Y-116751400D01*
X140623675Y-116751400D01*
X140168052Y-116842029D01*
X139781794Y-117100119D01*
X139523704Y-117486377D01*
X139433075Y-117942000D01*
X139320925Y-117942000D01*
X139230296Y-117486377D01*
X138972206Y-117100119D01*
X138585948Y-116842029D01*
X138130325Y-116751400D01*
X138083675Y-116751400D01*
X137628052Y-116842029D01*
X137241794Y-117100119D01*
X136983704Y-117486377D01*
X136893075Y-117942000D01*
X136764006Y-117942000D01*
X136764006Y-117078400D01*
X136741205Y-116957221D01*
X136669588Y-116845926D01*
X136560314Y-116771262D01*
X136430600Y-116744994D01*
X134703400Y-116744994D01*
X134582221Y-116767795D01*
X134470926Y-116839412D01*
X134396262Y-116948686D01*
X134369994Y-117078400D01*
X134369994Y-118805600D01*
X134392795Y-118926779D01*
X134464412Y-119038074D01*
X134573686Y-119112738D01*
X134703400Y-119139006D01*
X134969058Y-119139006D01*
X134678510Y-119275179D01*
X134284312Y-119707053D01*
X134112042Y-120122974D01*
X131537130Y-120122974D01*
X131558590Y-120071293D01*
X131559409Y-119132824D01*
X131201029Y-118265479D01*
X130538011Y-117601303D01*
X129671293Y-117241410D01*
X128732824Y-117240591D01*
X127865479Y-117598971D01*
X127201303Y-118261989D01*
X126841410Y-119128707D01*
X126840591Y-120067176D01*
X125006564Y-120067176D01*
X124862000Y-119340405D01*
X124862000Y-115206188D01*
X136362417Y-115206188D01*
X136424071Y-115441800D01*
X136924480Y-115617927D01*
X137454199Y-115589148D01*
X137809929Y-115441800D01*
X137871583Y-115206188D01*
X137117000Y-114451605D01*
X136362417Y-115206188D01*
X124862000Y-115206188D01*
X124862000Y-113530828D01*
X127424861Y-113530828D01*
X127546701Y-113825703D01*
X127772110Y-114051506D01*
X128066772Y-114173860D01*
X128385828Y-114174139D01*
X128458941Y-114143929D01*
X129634676Y-114143929D01*
X129668723Y-114356467D01*
X130087959Y-114495173D01*
X130528362Y-114462885D01*
X130785277Y-114356467D01*
X130819324Y-114143929D01*
X130754875Y-114079480D01*
X135771073Y-114079480D01*
X135799852Y-114609199D01*
X135947200Y-114964929D01*
X136182812Y-115026583D01*
X136937395Y-114272000D01*
X137296605Y-114272000D01*
X138051188Y-115026583D01*
X138286800Y-114964929D01*
X138462927Y-114464520D01*
X138434148Y-113934801D01*
X138286800Y-113579071D01*
X138051188Y-113517417D01*
X137296605Y-114272000D01*
X136937395Y-114272000D01*
X136182812Y-113517417D01*
X135947200Y-113579071D01*
X135771073Y-114079480D01*
X130754875Y-114079480D01*
X130227000Y-113551605D01*
X129634676Y-114143929D01*
X128458941Y-114143929D01*
X128680703Y-114052299D01*
X128906506Y-113826890D01*
X129028860Y-113532228D01*
X129029121Y-113232959D01*
X129103827Y-113232959D01*
X129136115Y-113673362D01*
X129242533Y-113930277D01*
X129455071Y-113964324D01*
X130047395Y-113372000D01*
X130406605Y-113372000D01*
X130998929Y-113964324D01*
X131211467Y-113930277D01*
X131350173Y-113511041D01*
X131337473Y-113337812D01*
X136362417Y-113337812D01*
X137117000Y-114092395D01*
X137871583Y-113337812D01*
X137809929Y-113102200D01*
X137309520Y-112926073D01*
X136779801Y-112954852D01*
X136424071Y-113102200D01*
X136362417Y-113337812D01*
X131337473Y-113337812D01*
X131317885Y-113070638D01*
X131211467Y-112813723D01*
X130998929Y-112779676D01*
X130406605Y-113372000D01*
X130047395Y-113372000D01*
X129455071Y-112779676D01*
X129242533Y-112813723D01*
X129103827Y-113232959D01*
X129029121Y-113232959D01*
X129029139Y-113213172D01*
X128907299Y-112918297D01*
X128681890Y-112692494D01*
X128629000Y-112670532D01*
X128629000Y-112600071D01*
X129634676Y-112600071D01*
X130227000Y-113192395D01*
X130819324Y-112600071D01*
X130785277Y-112387533D01*
X130366041Y-112248827D01*
X129925638Y-112281115D01*
X129668723Y-112387533D01*
X129634676Y-112600071D01*
X128629000Y-112600071D01*
X128629000Y-110521750D01*
X132250180Y-110521750D01*
X132250180Y-110961749D01*
X132346853Y-111195138D01*
X132525481Y-111373767D01*
X132758870Y-111470440D01*
X133699250Y-111470440D01*
X133858000Y-111311690D01*
X133858000Y-110363000D01*
X134112000Y-110363000D01*
X134112000Y-111311690D01*
X134270750Y-111470440D01*
X135211130Y-111470440D01*
X135444519Y-111373767D01*
X135623147Y-111195138D01*
X135719820Y-110961749D01*
X135719820Y-110521750D01*
X135561070Y-110363000D01*
X134112000Y-110363000D01*
X133858000Y-110363000D01*
X132408930Y-110363000D01*
X132250180Y-110521750D01*
X128629000Y-110521750D01*
X128629000Y-109510251D01*
X132250180Y-109510251D01*
X132250180Y-109950250D01*
X132408930Y-110109000D01*
X133858000Y-110109000D01*
X133858000Y-109160310D01*
X134112000Y-109160310D01*
X134112000Y-110109000D01*
X135561070Y-110109000D01*
X135719820Y-109950250D01*
X135719820Y-109510251D01*
X135623147Y-109276862D01*
X135444519Y-109098233D01*
X135211130Y-109001560D01*
X134270750Y-109001560D01*
X134112000Y-109160310D01*
X133858000Y-109160310D01*
X133699250Y-109001560D01*
X132758870Y-109001560D01*
X132525481Y-109098233D01*
X132346853Y-109276862D01*
X132250180Y-109510251D01*
X128629000Y-109510251D01*
X128629000Y-107603239D01*
X132756537Y-107603239D01*
X132882175Y-107907306D01*
X133114610Y-108140148D01*
X133418458Y-108266316D01*
X133747459Y-108266603D01*
X134051526Y-108140965D01*
X134284368Y-107908530D01*
X134410536Y-107604682D01*
X134410823Y-107275681D01*
X134285185Y-106971614D01*
X134052750Y-106738772D01*
X133748902Y-106612604D01*
X133419901Y-106612317D01*
X133115834Y-106737955D01*
X132882992Y-106970390D01*
X132756824Y-107274238D01*
X132756537Y-107603239D01*
X128629000Y-107603239D01*
X128629000Y-106408514D01*
X137928565Y-97108949D01*
X138111171Y-97109109D01*
X138341703Y-97013855D01*
X138518235Y-96837631D01*
X138613891Y-96607265D01*
X138614109Y-96357829D01*
X138518855Y-96127297D01*
X138342631Y-95950765D01*
X138112265Y-95855109D01*
X137862829Y-95854891D01*
X137632297Y-95950145D01*
X137455765Y-96126369D01*
X137360109Y-96356735D01*
X137359948Y-96540538D01*
X134410635Y-99489851D01*
X134410823Y-99274681D01*
X134285185Y-98970614D01*
X134052750Y-98737772D01*
X133748902Y-98611604D01*
X133419901Y-98611317D01*
X133115834Y-98736955D01*
X132882992Y-98969390D01*
X132756824Y-99273238D01*
X132756537Y-99602239D01*
X132882175Y-99906306D01*
X133114610Y-100139148D01*
X133418458Y-100265316D01*
X133634981Y-100265505D01*
X127942743Y-105957743D01*
X127855600Y-106088161D01*
X127825000Y-106242000D01*
X127825000Y-112670338D01*
X127773297Y-112691701D01*
X127547494Y-112917110D01*
X127425140Y-113211772D01*
X127424861Y-113530828D01*
X124862000Y-113530828D01*
X124862000Y-105915873D01*
X125035322Y-106062002D01*
X125460000Y-106197000D01*
X125735000Y-106197000D01*
X125735000Y-105189000D01*
X125989000Y-105189000D01*
X125989000Y-106197000D01*
X126264000Y-106197000D01*
X126688678Y-106062002D01*
X127029368Y-105774763D01*
X127231119Y-105363874D01*
X127104954Y-105189000D01*
X125989000Y-105189000D01*
X125735000Y-105189000D01*
X125715000Y-105189000D01*
X125715000Y-104935000D01*
X125735000Y-104935000D01*
X125735000Y-103927000D01*
X125989000Y-103927000D01*
X125989000Y-104935000D01*
X127104954Y-104935000D01*
X127231119Y-104760126D01*
X127047503Y-104386171D01*
X127384891Y-104386171D01*
X127480145Y-104616703D01*
X127656369Y-104793235D01*
X127886735Y-104888891D01*
X128136171Y-104889109D01*
X128366703Y-104793855D01*
X128543235Y-104617631D01*
X128638891Y-104387265D01*
X128639109Y-104137829D01*
X128543855Y-103907297D01*
X128367631Y-103730765D01*
X128137265Y-103635109D01*
X127887829Y-103634891D01*
X127657297Y-103730145D01*
X127480765Y-103906369D01*
X127385109Y-104136735D01*
X127384891Y-104386171D01*
X127047503Y-104386171D01*
X127029368Y-104349237D01*
X126688678Y-104061998D01*
X126264000Y-103927000D01*
X125989000Y-103927000D01*
X125735000Y-103927000D01*
X125460000Y-103927000D01*
X125035322Y-104061998D01*
X124862000Y-104208127D01*
X124862000Y-100290873D01*
X125035322Y-100437002D01*
X125460000Y-100572000D01*
X125735000Y-100572000D01*
X125735000Y-99564000D01*
X125989000Y-99564000D01*
X125989000Y-100572000D01*
X126264000Y-100572000D01*
X126688678Y-100437002D01*
X126748967Y-100386171D01*
X127384891Y-100386171D01*
X127480145Y-100616703D01*
X127656369Y-100793235D01*
X127886735Y-100888891D01*
X128136171Y-100889109D01*
X128366703Y-100793855D01*
X128543235Y-100617631D01*
X128638891Y-100387265D01*
X128639109Y-100137829D01*
X128543855Y-99907297D01*
X128367631Y-99730765D01*
X128137265Y-99635109D01*
X127887829Y-99634891D01*
X127657297Y-99730145D01*
X127480765Y-99906369D01*
X127385109Y-100136735D01*
X127384891Y-100386171D01*
X126748967Y-100386171D01*
X127029368Y-100149763D01*
X127231119Y-99738874D01*
X127104954Y-99564000D01*
X125989000Y-99564000D01*
X125735000Y-99564000D01*
X125715000Y-99564000D01*
X125715000Y-99310000D01*
X125735000Y-99310000D01*
X125735000Y-98302000D01*
X125989000Y-98302000D01*
X125989000Y-99310000D01*
X127104954Y-99310000D01*
X127231119Y-99135126D01*
X127029368Y-98724237D01*
X126688678Y-98436998D01*
X126264000Y-98302000D01*
X125989000Y-98302000D01*
X125735000Y-98302000D01*
X125460000Y-98302000D01*
X125035322Y-98436998D01*
X124862000Y-98583127D01*
X124862000Y-93727750D01*
X128212000Y-93727750D01*
X128212000Y-94193310D01*
X128308673Y-94426699D01*
X128487302Y-94605327D01*
X128720691Y-94702000D01*
X129061250Y-94702000D01*
X129220000Y-94543250D01*
X129220000Y-93569000D01*
X129474000Y-93569000D01*
X129474000Y-94543250D01*
X129632750Y-94702000D01*
X129973309Y-94702000D01*
X130206698Y-94605327D01*
X130385327Y-94426699D01*
X130482000Y-94193310D01*
X130482000Y-93727750D01*
X130323250Y-93569000D01*
X129474000Y-93569000D01*
X129220000Y-93569000D01*
X128370750Y-93569000D01*
X128212000Y-93727750D01*
X124862000Y-93727750D01*
X124862000Y-92690690D01*
X128212000Y-92690690D01*
X128212000Y-93156250D01*
X128370750Y-93315000D01*
X129220000Y-93315000D01*
X129220000Y-92340750D01*
X129474000Y-92340750D01*
X129474000Y-93315000D01*
X130323250Y-93315000D01*
X130482000Y-93156250D01*
X130482000Y-92817000D01*
X130513594Y-92817000D01*
X130513594Y-94067000D01*
X130536395Y-94188179D01*
X130608012Y-94299474D01*
X130717286Y-94374138D01*
X130847000Y-94400406D01*
X130995356Y-94400406D01*
X131062743Y-94501257D01*
X132787743Y-96226257D01*
X132918161Y-96313400D01*
X133072000Y-96344000D01*
X134482926Y-96344000D01*
X134482891Y-96384171D01*
X134578145Y-96614703D01*
X134754369Y-96791235D01*
X134984735Y-96886891D01*
X135234171Y-96887109D01*
X135464703Y-96791855D01*
X135641235Y-96615631D01*
X135736891Y-96385265D01*
X135737109Y-96135829D01*
X135641855Y-95905297D01*
X135465631Y-95728765D01*
X135235265Y-95633109D01*
X135227542Y-95633102D01*
X135317294Y-95575348D01*
X135391958Y-95466074D01*
X135418226Y-95336360D01*
X135418226Y-94137480D01*
X135395425Y-94016301D01*
X135348808Y-93943857D01*
X135705603Y-94300652D01*
X135705443Y-94483258D01*
X135800697Y-94713790D01*
X135976921Y-94890322D01*
X136207287Y-94985978D01*
X136456723Y-94986196D01*
X136687255Y-94890942D01*
X136707433Y-94870799D01*
X136716865Y-94880248D01*
X136929794Y-94968664D01*
X137079964Y-95118833D01*
X137079966Y-95118836D01*
X137194859Y-95195605D01*
X137218495Y-95211398D01*
X137381901Y-95243902D01*
X137381906Y-95243901D01*
X139521420Y-95243901D01*
X139521425Y-95243902D01*
X139684831Y-95211398D01*
X139823360Y-95118836D01*
X145315000Y-89627195D01*
X145315000Y-91706914D01*
X145281855Y-91626697D01*
X145105631Y-91450165D01*
X144875265Y-91354509D01*
X144625829Y-91354291D01*
X144395297Y-91449545D01*
X144290259Y-91554400D01*
X143763709Y-91554400D01*
X143600303Y-91586903D01*
X143461774Y-91679465D01*
X143461772Y-91679468D01*
X139728066Y-95413173D01*
X139635504Y-95551702D01*
X139603000Y-95715108D01*
X139603001Y-95715113D01*
X139603001Y-101988915D01*
X139575829Y-101988891D01*
X139345297Y-102084145D01*
X139168765Y-102260369D01*
X139073109Y-102490735D01*
X139072891Y-102740171D01*
X139168145Y-102970703D01*
X139344369Y-103147235D01*
X139574735Y-103242891D01*
X139824171Y-103243109D01*
X140028000Y-103158888D01*
X140028000Y-108252486D01*
X137499891Y-110780595D01*
X137321880Y-110706678D01*
X136913910Y-110706322D01*
X136536860Y-110862116D01*
X136248130Y-111150342D01*
X136091678Y-111527120D01*
X136091322Y-111935090D01*
X136247116Y-112312140D01*
X136535342Y-112600870D01*
X136912120Y-112757322D01*
X137320090Y-112757678D01*
X137697140Y-112601884D01*
X137985870Y-112313658D01*
X138142322Y-111936880D01*
X138142678Y-111528910D01*
X138068391Y-111349123D01*
X138895764Y-110521750D01*
X142248890Y-110521750D01*
X142248890Y-110961749D01*
X142345563Y-111195138D01*
X142524191Y-111373767D01*
X142757580Y-111470440D01*
X143297910Y-111470440D01*
X143456660Y-111311690D01*
X143456660Y-110363000D01*
X143710660Y-110363000D01*
X143710660Y-111311690D01*
X143869410Y-111470440D01*
X144409740Y-111470440D01*
X144643129Y-111373767D01*
X144821757Y-111195138D01*
X144918430Y-110961749D01*
X144918430Y-110521750D01*
X144759680Y-110363000D01*
X143710660Y-110363000D01*
X143456660Y-110363000D01*
X142407640Y-110363000D01*
X142248890Y-110521750D01*
X138895764Y-110521750D01*
X139167406Y-110250108D01*
X159444398Y-110250108D01*
X159624157Y-110585884D01*
X160474161Y-110923176D01*
X161388538Y-110909511D01*
X162169843Y-110585884D01*
X162349602Y-110250108D01*
X160897000Y-108797505D01*
X159444398Y-110250108D01*
X139167406Y-110250108D01*
X140714257Y-108703257D01*
X140801400Y-108572839D01*
X140832000Y-108419000D01*
X140832000Y-105450114D01*
X140852600Y-105553679D01*
X140939743Y-105684097D01*
X143076264Y-107820618D01*
X143076264Y-108136112D01*
X143049971Y-108147003D01*
X142871343Y-108325632D01*
X142774670Y-108559021D01*
X142774670Y-108748830D01*
X142933418Y-108907578D01*
X142774670Y-108907578D01*
X142774670Y-109001560D01*
X142757580Y-109001560D01*
X142524191Y-109098233D01*
X142345563Y-109276862D01*
X142248890Y-109510251D01*
X142248890Y-109950250D01*
X142407640Y-110109000D01*
X143456660Y-110109000D01*
X143456660Y-110018830D01*
X143710660Y-110018830D01*
X143710660Y-110109000D01*
X144759680Y-110109000D01*
X144849850Y-110018830D01*
X145133640Y-110018830D01*
X145367029Y-109922157D01*
X145545657Y-109743528D01*
X145642330Y-109510139D01*
X145642330Y-109320330D01*
X145483580Y-109161580D01*
X144706476Y-109161580D01*
X144643129Y-109098233D01*
X144409740Y-109001560D01*
X144061500Y-109001560D01*
X144061500Y-108907580D01*
X144081500Y-108907580D01*
X144081500Y-108887580D01*
X144335500Y-108887580D01*
X144335500Y-108907580D01*
X145483580Y-108907580D01*
X145642330Y-108748830D01*
X145642330Y-108559021D01*
X145545657Y-108325632D01*
X145415087Y-108195061D01*
X158591724Y-108195061D01*
X158605389Y-109109438D01*
X158929016Y-109890743D01*
X159264792Y-110070502D01*
X160717395Y-108617900D01*
X161076605Y-108617900D01*
X162529208Y-110070502D01*
X162864984Y-109890743D01*
X163202276Y-109040739D01*
X163188611Y-108126362D01*
X162864984Y-107345057D01*
X162529208Y-107165298D01*
X161076605Y-108617900D01*
X160717395Y-108617900D01*
X159264792Y-107165298D01*
X158929016Y-107345057D01*
X158591724Y-108195061D01*
X145415087Y-108195061D01*
X145367029Y-108147003D01*
X145340736Y-108136112D01*
X145340736Y-107585510D01*
X145317935Y-107464331D01*
X145266403Y-107384249D01*
X145314468Y-107313904D01*
X145340736Y-107184190D01*
X145340736Y-106985692D01*
X159444398Y-106985692D01*
X160897000Y-108438295D01*
X162349602Y-106985692D01*
X162169843Y-106649916D01*
X161319839Y-106312624D01*
X160405462Y-106326289D01*
X159624157Y-106649916D01*
X159444398Y-106985692D01*
X145340736Y-106985692D01*
X145340736Y-106633588D01*
X145367029Y-106622697D01*
X145545657Y-106444068D01*
X145642330Y-106210679D01*
X145642330Y-106020870D01*
X145483580Y-105862120D01*
X144335500Y-105862120D01*
X144335500Y-105882120D01*
X144081500Y-105882120D01*
X144081500Y-105862120D01*
X144061500Y-105862120D01*
X144061500Y-105750105D01*
X157140820Y-105750105D01*
X157298543Y-106131825D01*
X157590339Y-106424130D01*
X157971783Y-106582520D01*
X158384805Y-106582880D01*
X158766525Y-106425157D01*
X159058830Y-106133361D01*
X159217220Y-105751917D01*
X159217580Y-105338895D01*
X159059857Y-104957175D01*
X158768061Y-104664870D01*
X158386617Y-104506480D01*
X157973595Y-104506120D01*
X157591875Y-104663843D01*
X157299570Y-104955639D01*
X157141180Y-105337083D01*
X157140820Y-105750105D01*
X144061500Y-105750105D01*
X144061500Y-105608120D01*
X144081500Y-105608120D01*
X144081500Y-105588120D01*
X144335500Y-105588120D01*
X144335500Y-105608120D01*
X145483580Y-105608120D01*
X145642330Y-105449370D01*
X145642330Y-105259561D01*
X145545657Y-105026172D01*
X145367029Y-104847543D01*
X145340736Y-104836652D01*
X145340736Y-104286050D01*
X145317935Y-104164871D01*
X145266403Y-104084789D01*
X145314468Y-104014444D01*
X145340736Y-103884730D01*
X145340736Y-103506730D01*
X145759264Y-103088201D01*
X145759267Y-103088199D01*
X145851829Y-102949670D01*
X145875541Y-102830460D01*
X145988567Y-102717631D01*
X146084223Y-102487265D01*
X146084441Y-102237829D01*
X145989187Y-102007297D01*
X145812963Y-101830765D01*
X145582597Y-101735109D01*
X145333161Y-101734891D01*
X145330983Y-101735791D01*
X145340736Y-101687630D01*
X145340736Y-101254305D01*
X157140820Y-101254305D01*
X157298543Y-101636025D01*
X157590339Y-101928330D01*
X157888431Y-102052109D01*
X157591875Y-102174643D01*
X157299570Y-102466439D01*
X157141180Y-102847883D01*
X157140820Y-103260905D01*
X157298543Y-103642625D01*
X157590339Y-103934930D01*
X157971783Y-104093320D01*
X158384805Y-104093680D01*
X158766525Y-103935957D01*
X159058830Y-103644161D01*
X159217220Y-103262717D01*
X159217580Y-102849695D01*
X159059857Y-102467975D01*
X158768061Y-102175670D01*
X158469969Y-102051891D01*
X158766525Y-101929357D01*
X159058830Y-101637561D01*
X159217220Y-101256117D01*
X159217580Y-100843095D01*
X159059857Y-100461375D01*
X158768061Y-100169070D01*
X158386617Y-100010680D01*
X157973595Y-100010320D01*
X157591875Y-100168043D01*
X157299570Y-100459839D01*
X157141180Y-100841283D01*
X157140820Y-101254305D01*
X145340736Y-101254305D01*
X145340736Y-100989130D01*
X145317935Y-100867951D01*
X145266403Y-100787869D01*
X145314468Y-100717524D01*
X145340736Y-100587810D01*
X145340736Y-99889310D01*
X145317935Y-99768131D01*
X145246318Y-99656836D01*
X145137044Y-99582172D01*
X145007330Y-99555904D01*
X144610500Y-99555904D01*
X144610500Y-99502895D01*
X157415410Y-99502895D01*
X157478627Y-99739821D01*
X157983645Y-99918072D01*
X158518433Y-99889493D01*
X158879773Y-99739821D01*
X158942990Y-99502895D01*
X158179200Y-98739105D01*
X157415410Y-99502895D01*
X144610500Y-99502895D01*
X144610500Y-99290014D01*
X145536569Y-98363945D01*
X156820628Y-98363945D01*
X156849207Y-98898733D01*
X156998879Y-99260073D01*
X157235805Y-99323290D01*
X157999595Y-98559500D01*
X158358805Y-98559500D01*
X159122595Y-99323290D01*
X159359521Y-99260073D01*
X159537772Y-98755055D01*
X159509193Y-98220267D01*
X159359521Y-97858927D01*
X159122595Y-97795710D01*
X158358805Y-98559500D01*
X157999595Y-98559500D01*
X157235805Y-97795710D01*
X156998879Y-97858927D01*
X156820628Y-98363945D01*
X145536569Y-98363945D01*
X146284409Y-97616105D01*
X157415410Y-97616105D01*
X158179200Y-98379895D01*
X158942990Y-97616105D01*
X158879773Y-97379179D01*
X158374755Y-97200928D01*
X157839967Y-97229507D01*
X157478627Y-97379179D01*
X157415410Y-97616105D01*
X146284409Y-97616105D01*
X146782206Y-97118308D01*
X159444398Y-97118308D01*
X159624157Y-97454084D01*
X160474161Y-97791376D01*
X161388538Y-97777711D01*
X162169843Y-97454084D01*
X162349602Y-97118308D01*
X160897000Y-95665705D01*
X159444398Y-97118308D01*
X146782206Y-97118308D01*
X148837253Y-95063261D01*
X158591724Y-95063261D01*
X158605389Y-95977638D01*
X158929016Y-96758943D01*
X159264792Y-96938702D01*
X160717395Y-95486100D01*
X161076605Y-95486100D01*
X162529208Y-96938702D01*
X162864984Y-96758943D01*
X163202276Y-95908939D01*
X163188611Y-94994562D01*
X162864984Y-94213257D01*
X162529208Y-94033498D01*
X161076605Y-95486100D01*
X160717395Y-95486100D01*
X159264792Y-94033498D01*
X158929016Y-94213257D01*
X158591724Y-95063261D01*
X148837253Y-95063261D01*
X150046622Y-93853892D01*
X159444398Y-93853892D01*
X160897000Y-95306495D01*
X162349602Y-93853892D01*
X162169843Y-93518116D01*
X161319839Y-93180824D01*
X160405462Y-93194489D01*
X159624157Y-93518116D01*
X159444398Y-93853892D01*
X150046622Y-93853892D01*
X157596657Y-86303857D01*
X157938052Y-86531971D01*
X158393675Y-86622600D01*
X158440325Y-86622600D01*
X158895948Y-86531971D01*
X159282206Y-86273881D01*
X159540296Y-85887623D01*
X159630925Y-85432000D01*
X159540296Y-84976377D01*
X159282206Y-84590119D01*
X158895948Y-84332029D01*
X158834136Y-84319734D01*
X159305490Y-84098821D01*
X159699688Y-83666947D01*
X159871958Y-83251026D01*
X159750817Y-83019000D01*
X158544000Y-83019000D01*
X158544000Y-83039000D01*
X158290000Y-83039000D01*
X158290000Y-83019000D01*
X158270000Y-83019000D01*
X158270000Y-82765000D01*
X158290000Y-82765000D01*
X158290000Y-81557531D01*
X158544000Y-81557531D01*
X158544000Y-82765000D01*
X159750817Y-82765000D01*
X159871958Y-82532974D01*
X159699688Y-82117053D01*
X159305490Y-81685179D01*
X158776027Y-81437032D01*
X158544000Y-81557531D01*
X158290000Y-81557531D01*
X158057973Y-81437032D01*
X157528510Y-81685179D01*
X157134312Y-82117053D01*
X157000866Y-82439240D01*
X157000296Y-82436377D01*
X156742206Y-82050119D01*
X156355948Y-81792029D01*
X155900325Y-81701400D01*
X155853675Y-81701400D01*
X155398052Y-81792029D01*
X155011794Y-82050119D01*
X154753704Y-82436377D01*
X154663075Y-82892000D01*
X154753704Y-83347623D01*
X155011794Y-83733881D01*
X155398052Y-83991971D01*
X155853675Y-84082600D01*
X155900325Y-84082600D01*
X156355948Y-83991971D01*
X156742206Y-83733881D01*
X157000296Y-83347623D01*
X157000866Y-83344760D01*
X157134312Y-83666947D01*
X157528510Y-84098821D01*
X157999864Y-84319734D01*
X157938052Y-84332029D01*
X157551794Y-84590119D01*
X157293704Y-84976377D01*
X157203075Y-85432000D01*
X157224380Y-85539106D01*
X157031193Y-85732293D01*
X157090925Y-85432000D01*
X157000296Y-84976377D01*
X156742206Y-84590119D01*
X156355948Y-84332029D01*
X155900325Y-84241400D01*
X155853675Y-84241400D01*
X155398052Y-84332029D01*
X155011794Y-84590119D01*
X154753704Y-84976377D01*
X154663075Y-85432000D01*
X154753704Y-85887623D01*
X155011794Y-86273881D01*
X155398052Y-86531971D01*
X155475000Y-86547277D01*
X155475000Y-86850464D01*
X153739000Y-88586464D01*
X153739000Y-86547277D01*
X153815948Y-86531971D01*
X154202206Y-86273881D01*
X154460296Y-85887623D01*
X154550925Y-85432000D01*
X154460296Y-84976377D01*
X154202206Y-84590119D01*
X153815948Y-84332029D01*
X153360325Y-84241400D01*
X153313675Y-84241400D01*
X152858052Y-84332029D01*
X152471794Y-84590119D01*
X152213704Y-84976377D01*
X152123075Y-85432000D01*
X152213704Y-85887623D01*
X152471794Y-86273881D01*
X152858052Y-86531971D01*
X152935000Y-86547277D01*
X152935000Y-88966185D01*
X151199000Y-90702185D01*
X151199000Y-86547277D01*
X151275948Y-86531971D01*
X151662206Y-86273881D01*
X151920296Y-85887623D01*
X152010925Y-85432000D01*
X151920296Y-84976377D01*
X151662206Y-84590119D01*
X151275948Y-84332029D01*
X150820325Y-84241400D01*
X150773675Y-84241400D01*
X150318052Y-84332029D01*
X149931794Y-84590119D01*
X149673704Y-84976377D01*
X149583075Y-85432000D01*
X149673704Y-85887623D01*
X149931794Y-86273881D01*
X150318052Y-86531971D01*
X150395000Y-86547277D01*
X150395000Y-91081907D01*
X148659000Y-92817907D01*
X148659000Y-86547277D01*
X148735948Y-86531971D01*
X149122206Y-86273881D01*
X149380296Y-85887623D01*
X149470925Y-85432000D01*
X149380296Y-84976377D01*
X149122206Y-84590119D01*
X148735948Y-84332029D01*
X148280325Y-84241400D01*
X148233675Y-84241400D01*
X147778052Y-84332029D01*
X147391794Y-84590119D01*
X147133704Y-84976377D01*
X147043075Y-85432000D01*
X147133704Y-85887623D01*
X147391794Y-86273881D01*
X147778052Y-86531971D01*
X147855000Y-86547277D01*
X147855000Y-93197628D01*
X146119000Y-94933628D01*
X146119000Y-86547277D01*
X146195948Y-86531971D01*
X146582206Y-86273881D01*
X146840296Y-85887623D01*
X146930925Y-85432000D01*
X146840296Y-84976377D01*
X146582206Y-84590119D01*
X146195948Y-84332029D01*
X145740325Y-84241400D01*
X145693675Y-84241400D01*
X145238052Y-84332029D01*
X144917000Y-84546550D01*
X144917000Y-84295870D01*
X145227770Y-83985100D01*
X145238052Y-83991971D01*
X145693675Y-84082600D01*
X145740325Y-84082600D01*
X146195948Y-83991971D01*
X146582206Y-83733881D01*
X146840296Y-83347623D01*
X146930925Y-82892000D01*
X146840296Y-82436377D01*
X146685961Y-82205399D01*
X146966529Y-82205399D01*
X147159260Y-82398130D01*
X147133704Y-82436377D01*
X147043075Y-82892000D01*
X147133704Y-83347623D01*
X147391794Y-83733881D01*
X147778052Y-83991971D01*
X148233675Y-84082600D01*
X148280325Y-84082600D01*
X148735948Y-83991971D01*
X149122206Y-83733881D01*
X149380296Y-83347623D01*
X149470925Y-82892000D01*
X149583075Y-82892000D01*
X149673704Y-83347623D01*
X149931794Y-83733881D01*
X150318052Y-83991971D01*
X150773675Y-84082600D01*
X150820325Y-84082600D01*
X151275948Y-83991971D01*
X151662206Y-83733881D01*
X151920296Y-83347623D01*
X152010925Y-82892000D01*
X152123075Y-82892000D01*
X152213704Y-83347623D01*
X152471794Y-83733881D01*
X152858052Y-83991971D01*
X153313675Y-84082600D01*
X153360325Y-84082600D01*
X153815948Y-83991971D01*
X154202206Y-83733881D01*
X154460296Y-83347623D01*
X154550925Y-82892000D01*
X154460296Y-82436377D01*
X154202206Y-82050119D01*
X153815948Y-81792029D01*
X153360325Y-81701400D01*
X153313675Y-81701400D01*
X152858052Y-81792029D01*
X152471794Y-82050119D01*
X152213704Y-82436377D01*
X152123075Y-82892000D01*
X152010925Y-82892000D01*
X151920296Y-82436377D01*
X151662206Y-82050119D01*
X151275948Y-81792029D01*
X150820325Y-81701400D01*
X150773675Y-81701400D01*
X150318052Y-81792029D01*
X149931794Y-82050119D01*
X149673704Y-82436377D01*
X149583075Y-82892000D01*
X149470925Y-82892000D01*
X149380296Y-82436377D01*
X149122206Y-82050119D01*
X148735948Y-81792029D01*
X148280325Y-81701400D01*
X148233675Y-81701400D01*
X147778052Y-81792029D01*
X147767769Y-81798900D01*
X147445334Y-81476464D01*
X147306805Y-81383902D01*
X147143399Y-81351398D01*
X147143394Y-81351399D01*
X145182471Y-81351399D01*
X145019065Y-81383902D01*
X144880536Y-81476464D01*
X144880534Y-81476467D01*
X144301464Y-82055536D01*
X144208902Y-82194065D01*
X144192726Y-82275387D01*
X144042206Y-82050119D01*
X143655948Y-81792029D01*
X143200325Y-81701400D01*
X143153675Y-81701400D01*
X142698052Y-81792029D01*
X142311794Y-82050119D01*
X142053704Y-82436377D01*
X141963075Y-82892000D01*
X142053704Y-83347623D01*
X142311794Y-83733881D01*
X142423784Y-83808710D01*
X142314195Y-83881935D01*
X142314193Y-83881938D01*
X141618065Y-84578065D01*
X141556108Y-84670790D01*
X141502206Y-84590119D01*
X141115948Y-84332029D01*
X140660325Y-84241400D01*
X140613675Y-84241400D01*
X140158052Y-84332029D01*
X139771794Y-84590119D01*
X139513704Y-84976377D01*
X139423075Y-85432000D01*
X139513704Y-85887623D01*
X139771794Y-86273881D01*
X140158052Y-86531971D01*
X140613675Y-86622600D01*
X140660325Y-86622600D01*
X141115948Y-86531971D01*
X141502206Y-86273881D01*
X141564127Y-86181210D01*
X141618065Y-86261935D01*
X142729132Y-87373001D01*
X140641870Y-87373001D01*
X139262534Y-85993664D01*
X139262531Y-85993662D01*
X139194740Y-85925871D01*
X139220296Y-85887623D01*
X139310925Y-85432000D01*
X139220296Y-84976377D01*
X138962206Y-84590119D01*
X138575948Y-84332029D01*
X138120325Y-84241400D01*
X138073675Y-84241400D01*
X137618052Y-84332029D01*
X137231794Y-84590119D01*
X136973704Y-84976377D01*
X136883075Y-85432000D01*
X136973704Y-85887623D01*
X137231794Y-86273881D01*
X137618052Y-86531971D01*
X138073675Y-86622600D01*
X138120325Y-86622600D01*
X138575948Y-86531971D01*
X138586231Y-86525100D01*
X138658662Y-86597531D01*
X138658664Y-86597534D01*
X139637217Y-87576086D01*
X139519607Y-87497502D01*
X139356201Y-87464998D01*
X139356196Y-87464999D01*
X138193869Y-87464999D01*
X136654740Y-85925870D01*
X136680296Y-85887623D01*
X136770925Y-85432000D01*
X136680296Y-84976377D01*
X136422206Y-84590119D01*
X136035948Y-84332029D01*
X135580325Y-84241400D01*
X135533675Y-84241400D01*
X135078052Y-84332029D01*
X134691794Y-84590119D01*
X134522000Y-84844233D01*
X134522000Y-84034255D01*
X134563686Y-84062738D01*
X134693400Y-84089006D01*
X136420600Y-84089006D01*
X136541779Y-84066205D01*
X136653074Y-83994588D01*
X136727738Y-83885314D01*
X136754006Y-83755600D01*
X136754006Y-82892000D01*
X136883075Y-82892000D01*
X136973704Y-83347623D01*
X137231794Y-83733881D01*
X137618052Y-83991971D01*
X138073675Y-84082600D01*
X138120325Y-84082600D01*
X138575948Y-83991971D01*
X138962206Y-83733881D01*
X139220296Y-83347623D01*
X139310925Y-82892000D01*
X139423075Y-82892000D01*
X139513704Y-83347623D01*
X139771794Y-83733881D01*
X140158052Y-83991971D01*
X140613675Y-84082600D01*
X140660325Y-84082600D01*
X141115948Y-83991971D01*
X141502206Y-83733881D01*
X141760296Y-83347623D01*
X141850925Y-82892000D01*
X141760296Y-82436377D01*
X141502206Y-82050119D01*
X141115948Y-81792029D01*
X140660325Y-81701400D01*
X140613675Y-81701400D01*
X140158052Y-81792029D01*
X139771794Y-82050119D01*
X139513704Y-82436377D01*
X139423075Y-82892000D01*
X139310925Y-82892000D01*
X139220296Y-82436377D01*
X138962206Y-82050119D01*
X138575948Y-81792029D01*
X138120325Y-81701400D01*
X138073675Y-81701400D01*
X137618052Y-81792029D01*
X137231794Y-82050119D01*
X136973704Y-82436377D01*
X136883075Y-82892000D01*
X136754006Y-82892000D01*
X136754006Y-82028400D01*
X136731205Y-81907221D01*
X136659588Y-81795926D01*
X136550314Y-81721262D01*
X136420600Y-81694994D01*
X134693400Y-81694994D01*
X134572221Y-81717795D01*
X134522000Y-81750112D01*
X134522000Y-81686514D01*
X135066514Y-81142000D01*
X159923486Y-81142000D01*
X160128000Y-81346514D01*
X160128000Y-86383422D01*
X160158600Y-86537261D01*
X160245743Y-86667679D01*
X165559629Y-91981565D01*
X165559469Y-92164171D01*
X165654723Y-92394703D01*
X165830947Y-92571235D01*
X166061313Y-92666891D01*
X166310749Y-92667109D01*
X166541281Y-92571855D01*
X166717813Y-92395631D01*
X166813469Y-92165265D01*
X166813687Y-91915829D01*
X166718433Y-91685297D01*
X166542209Y-91508765D01*
X166311843Y-91413109D01*
X166128040Y-91412948D01*
X160932000Y-86216908D01*
X160932000Y-84467176D01*
X162540591Y-84467176D01*
X162898971Y-85334521D01*
X163561989Y-85998697D01*
X164428707Y-86358590D01*
X165367176Y-86359409D01*
X166234521Y-86001029D01*
X166898697Y-85338011D01*
X167258590Y-84471293D01*
X167259409Y-83532824D01*
X166901029Y-82665479D01*
X166238011Y-82001303D01*
X165371293Y-81641410D01*
X164432824Y-81640591D01*
X163565479Y-81998971D01*
X162901303Y-82661989D01*
X162541410Y-83528707D01*
X162540591Y-84467176D01*
X160932000Y-84467176D01*
X160932000Y-81180000D01*
X160901400Y-81026161D01*
X160814257Y-80895743D01*
X160374257Y-80455743D01*
X160243839Y-80368600D01*
X160090000Y-80338000D01*
X134900000Y-80338000D01*
X134746161Y-80368600D01*
X134615743Y-80455743D01*
X133835743Y-81235743D01*
X133748600Y-81366161D01*
X133718000Y-81520000D01*
X133718000Y-91429042D01*
X133748600Y-91582881D01*
X133835743Y-91713299D01*
X133980294Y-91857850D01*
X133980294Y-92173360D01*
X133851059Y-92302370D01*
X133755403Y-92532736D01*
X133755212Y-92751698D01*
X132429000Y-91425486D01*
X132429000Y-91122000D01*
X132398400Y-90968161D01*
X132311257Y-90837743D01*
X132301257Y-90827743D01*
X132200406Y-90760356D01*
X132200406Y-90487000D01*
X132177605Y-90365821D01*
X132105988Y-90254526D01*
X131996714Y-90179862D01*
X131867000Y-90153594D01*
X130867000Y-90153594D01*
X130745821Y-90176395D01*
X130634526Y-90248012D01*
X130559862Y-90357286D01*
X130533594Y-90487000D01*
X130533594Y-91737000D01*
X130556395Y-91858179D01*
X130628012Y-91969474D01*
X130737286Y-92044138D01*
X130867000Y-92070406D01*
X131867000Y-92070406D01*
X131925824Y-92059338D01*
X133323764Y-93457278D01*
X133454182Y-93544421D01*
X133608021Y-93575021D01*
X134979972Y-93575021D01*
X135280076Y-93875125D01*
X135214534Y-93830342D01*
X135084820Y-93804074D01*
X132885180Y-93804074D01*
X132764001Y-93826875D01*
X132652706Y-93898492D01*
X132578042Y-94007766D01*
X132551774Y-94137480D01*
X132551774Y-94853260D01*
X132033856Y-94335342D01*
X132079474Y-94305988D01*
X132154138Y-94196714D01*
X132180406Y-94067000D01*
X132180406Y-92817000D01*
X132157605Y-92695821D01*
X132085988Y-92584526D01*
X131976714Y-92509862D01*
X131847000Y-92483594D01*
X130847000Y-92483594D01*
X130725821Y-92506395D01*
X130614526Y-92578012D01*
X130539862Y-92687286D01*
X130513594Y-92817000D01*
X130482000Y-92817000D01*
X130482000Y-92690690D01*
X130385327Y-92457301D01*
X130210190Y-92282165D01*
X130226698Y-92275327D01*
X130405327Y-92096699D01*
X130502000Y-91863310D01*
X130502000Y-91397750D01*
X130343250Y-91239000D01*
X129494000Y-91239000D01*
X129494000Y-92213250D01*
X129547750Y-92267000D01*
X129474000Y-92340750D01*
X129220000Y-92340750D01*
X129166250Y-92287000D01*
X129240000Y-92213250D01*
X129240000Y-91239000D01*
X128390750Y-91239000D01*
X128232000Y-91397750D01*
X128232000Y-91863310D01*
X128328673Y-92096699D01*
X128503810Y-92271835D01*
X128487302Y-92278673D01*
X128308673Y-92457301D01*
X128212000Y-92690690D01*
X124862000Y-92690690D01*
X124862000Y-90360690D01*
X128232000Y-90360690D01*
X128232000Y-90826250D01*
X128390750Y-90985000D01*
X129240000Y-90985000D01*
X129240000Y-90010750D01*
X129494000Y-90010750D01*
X129494000Y-90985000D01*
X130343250Y-90985000D01*
X130502000Y-90826250D01*
X130502000Y-90360690D01*
X130405327Y-90127301D01*
X130226698Y-89948673D01*
X129993309Y-89852000D01*
X129652750Y-89852000D01*
X129494000Y-90010750D01*
X129240000Y-90010750D01*
X129081250Y-89852000D01*
X128740691Y-89852000D01*
X128507302Y-89948673D01*
X128328673Y-90127301D01*
X128232000Y-90360690D01*
X124862000Y-90360690D01*
X124862000Y-84467176D01*
X126940591Y-84467176D01*
X127298971Y-85334521D01*
X127961989Y-85998697D01*
X128828707Y-86358590D01*
X129767176Y-86359409D01*
X130634521Y-86001029D01*
X131298697Y-85338011D01*
X131658590Y-84471293D01*
X131659409Y-83532824D01*
X131301029Y-82665479D01*
X130638011Y-82001303D01*
X129771293Y-81641410D01*
X128832824Y-81640591D01*
X127965479Y-81998971D01*
X127301303Y-82661989D01*
X126941410Y-83528707D01*
X126940591Y-84467176D01*
X124862000Y-84467176D01*
X124862000Y-84367595D01*
X125225368Y-82540820D01*
X126237723Y-81025724D01*
X127752820Y-80013368D01*
X129579595Y-79650000D01*
X164552405Y-79650000D01*
X166379180Y-80013368D01*
G36*
X145315000Y-95313348D02*
X144811204Y-95817144D01*
X144759680Y-95765620D01*
X143710660Y-95765620D01*
X143710660Y-95785620D01*
X143456660Y-95785620D01*
X143456660Y-95765620D01*
X143436660Y-95765620D01*
X143436660Y-95511620D01*
X143456660Y-95511620D01*
X143456660Y-94363540D01*
X143710660Y-94363540D01*
X143710660Y-95511620D01*
X144759680Y-95511620D01*
X144918430Y-95352870D01*
X144918430Y-94713481D01*
X144821757Y-94480092D01*
X144643129Y-94301463D01*
X144409740Y-94204790D01*
X143869410Y-94204790D01*
X143710660Y-94363540D01*
X143456660Y-94363540D01*
X143297910Y-94204790D01*
X142757580Y-94204790D01*
X142524191Y-94301463D01*
X142345563Y-94480092D01*
X142248890Y-94713481D01*
X142248890Y-95352870D01*
X142407638Y-95511618D01*
X142378305Y-95511618D01*
X142275631Y-95408765D01*
X142045265Y-95313109D01*
X141795829Y-95312891D01*
X141565297Y-95408145D01*
X141388765Y-95584369D01*
X141293109Y-95814735D01*
X141292948Y-95998538D01*
X140457001Y-96834485D01*
X140457001Y-95891978D01*
X143940578Y-92408400D01*
X144290316Y-92408400D01*
X144394369Y-92512635D01*
X144624735Y-92608291D01*
X144874171Y-92608509D01*
X145104703Y-92513255D01*
X145281235Y-92337031D01*
X145315000Y-92255716D01*
X145315000Y-95313348D01*
X145315000Y-95313348D01*
G37*
X145315000Y-95313348D02*
X144811204Y-95817144D01*
X144759680Y-95765620D01*
X143710660Y-95765620D01*
X143710660Y-95785620D01*
X143456660Y-95785620D01*
X143456660Y-95765620D01*
X143436660Y-95765620D01*
X143436660Y-95511620D01*
X143456660Y-95511620D01*
X143456660Y-94363540D01*
X143710660Y-94363540D01*
X143710660Y-95511620D01*
X144759680Y-95511620D01*
X144918430Y-95352870D01*
X144918430Y-94713481D01*
X144821757Y-94480092D01*
X144643129Y-94301463D01*
X144409740Y-94204790D01*
X143869410Y-94204790D01*
X143710660Y-94363540D01*
X143456660Y-94363540D01*
X143297910Y-94204790D01*
X142757580Y-94204790D01*
X142524191Y-94301463D01*
X142345563Y-94480092D01*
X142248890Y-94713481D01*
X142248890Y-95352870D01*
X142407638Y-95511618D01*
X142378305Y-95511618D01*
X142275631Y-95408765D01*
X142045265Y-95313109D01*
X141795829Y-95312891D01*
X141565297Y-95408145D01*
X141388765Y-95584369D01*
X141293109Y-95814735D01*
X141292948Y-95998538D01*
X140457001Y-96834485D01*
X140457001Y-95891978D01*
X143940578Y-92408400D01*
X144290316Y-92408400D01*
X144394369Y-92512635D01*
X144624735Y-92608291D01*
X144874171Y-92608509D01*
X145104703Y-92513255D01*
X145281235Y-92337031D01*
X145315000Y-92255716D01*
X145315000Y-95313348D01*
G36*
X134691794Y-86273881D02*
X135078052Y-86531971D01*
X135533675Y-86622600D01*
X135580325Y-86622600D01*
X136035948Y-86531971D01*
X136046230Y-86525100D01*
X137715064Y-88193934D01*
X137853593Y-88286496D01*
X138016999Y-88319000D01*
X138017004Y-88318999D01*
X139179331Y-88318999D01*
X139662265Y-88801932D01*
X139662267Y-88801935D01*
X139800796Y-88894497D01*
X139964202Y-88927000D01*
X141440316Y-88927000D01*
X141544369Y-89031235D01*
X141774735Y-89126891D01*
X142024171Y-89127109D01*
X142254703Y-89031855D01*
X142431235Y-88855631D01*
X142526891Y-88625265D01*
X142527109Y-88375829D01*
X142465614Y-88227001D01*
X143374060Y-88227001D01*
X143468145Y-88454703D01*
X143644369Y-88631235D01*
X143874735Y-88726891D01*
X144124171Y-88727109D01*
X144200603Y-88695528D01*
X143123130Y-89773000D01*
X136350869Y-89773000D01*
X136008980Y-89431111D01*
X136009109Y-89283829D01*
X135913855Y-89053297D01*
X135737631Y-88876765D01*
X135507265Y-88781109D01*
X135257829Y-88780891D01*
X135027297Y-88876145D01*
X134850765Y-89052369D01*
X134755109Y-89282735D01*
X134754891Y-89532171D01*
X134850145Y-89762703D01*
X135026369Y-89939235D01*
X135256735Y-90034891D01*
X135405151Y-90035021D01*
X135872063Y-90501932D01*
X135872065Y-90501935D01*
X136010594Y-90594497D01*
X136174000Y-90627000D01*
X136960610Y-90627000D01*
X136960610Y-90646250D01*
X137051202Y-90736842D01*
X137022971Y-90804998D01*
X136960610Y-90804998D01*
X136960610Y-90862896D01*
X136885392Y-90894053D01*
X136745345Y-91034099D01*
X136745345Y-90956130D01*
X136586595Y-90797380D01*
X136519341Y-90797380D01*
X136285952Y-90894053D01*
X136107323Y-91072681D01*
X136010650Y-91306070D01*
X136010650Y-91596210D01*
X136169400Y-91754960D01*
X136745345Y-91754960D01*
X136745345Y-91731465D01*
X136768840Y-91754960D01*
X136992040Y-91754960D01*
X136992040Y-91785760D01*
X136960610Y-91817190D01*
X136960610Y-92008960D01*
X136768840Y-92008960D01*
X136748840Y-92028960D01*
X136745345Y-92028960D01*
X136745345Y-92008960D01*
X136169400Y-92008960D01*
X136010650Y-92167710D01*
X136010650Y-92457850D01*
X136040395Y-92529660D01*
X136010650Y-92601470D01*
X136010650Y-92891610D01*
X136169400Y-93050360D01*
X136745345Y-93050360D01*
X136745345Y-93030360D01*
X136748840Y-93030360D01*
X136768840Y-93050360D01*
X136960610Y-93050360D01*
X136960610Y-93242130D01*
X136992040Y-93273560D01*
X136992040Y-93304360D01*
X136768840Y-93304360D01*
X136748840Y-93324360D01*
X136745345Y-93324360D01*
X136745345Y-93304360D01*
X136169400Y-93304360D01*
X136010650Y-93463110D01*
X136010650Y-93468671D01*
X135430743Y-92888764D01*
X135300325Y-92801621D01*
X135146486Y-92771021D01*
X135009196Y-92771021D01*
X135009403Y-92533830D01*
X134914149Y-92303298D01*
X134784294Y-92173216D01*
X134784294Y-91691336D01*
X134753694Y-91537497D01*
X134666551Y-91407079D01*
X134522000Y-91262528D01*
X134522000Y-86019767D01*
X134691794Y-86273881D01*
X134691794Y-86273881D01*
G37*
X134691794Y-86273881D02*
X135078052Y-86531971D01*
X135533675Y-86622600D01*
X135580325Y-86622600D01*
X136035948Y-86531971D01*
X136046230Y-86525100D01*
X137715064Y-88193934D01*
X137853593Y-88286496D01*
X138016999Y-88319000D01*
X138017004Y-88318999D01*
X139179331Y-88318999D01*
X139662265Y-88801932D01*
X139662267Y-88801935D01*
X139800796Y-88894497D01*
X139964202Y-88927000D01*
X141440316Y-88927000D01*
X141544369Y-89031235D01*
X141774735Y-89126891D01*
X142024171Y-89127109D01*
X142254703Y-89031855D01*
X142431235Y-88855631D01*
X142526891Y-88625265D01*
X142527109Y-88375829D01*
X142465614Y-88227001D01*
X143374060Y-88227001D01*
X143468145Y-88454703D01*
X143644369Y-88631235D01*
X143874735Y-88726891D01*
X144124171Y-88727109D01*
X144200603Y-88695528D01*
X143123130Y-89773000D01*
X136350869Y-89773000D01*
X136008980Y-89431111D01*
X136009109Y-89283829D01*
X135913855Y-89053297D01*
X135737631Y-88876765D01*
X135507265Y-88781109D01*
X135257829Y-88780891D01*
X135027297Y-88876145D01*
X134850765Y-89052369D01*
X134755109Y-89282735D01*
X134754891Y-89532171D01*
X134850145Y-89762703D01*
X135026369Y-89939235D01*
X135256735Y-90034891D01*
X135405151Y-90035021D01*
X135872063Y-90501932D01*
X135872065Y-90501935D01*
X136010594Y-90594497D01*
X136174000Y-90627000D01*
X136960610Y-90627000D01*
X136960610Y-90646250D01*
X137051202Y-90736842D01*
X137022971Y-90804998D01*
X136960610Y-90804998D01*
X136960610Y-90862896D01*
X136885392Y-90894053D01*
X136745345Y-91034099D01*
X136745345Y-90956130D01*
X136586595Y-90797380D01*
X136519341Y-90797380D01*
X136285952Y-90894053D01*
X136107323Y-91072681D01*
X136010650Y-91306070D01*
X136010650Y-91596210D01*
X136169400Y-91754960D01*
X136745345Y-91754960D01*
X136745345Y-91731465D01*
X136768840Y-91754960D01*
X136992040Y-91754960D01*
X136992040Y-91785760D01*
X136960610Y-91817190D01*
X136960610Y-92008960D01*
X136768840Y-92008960D01*
X136748840Y-92028960D01*
X136745345Y-92028960D01*
X136745345Y-92008960D01*
X136169400Y-92008960D01*
X136010650Y-92167710D01*
X136010650Y-92457850D01*
X136040395Y-92529660D01*
X136010650Y-92601470D01*
X136010650Y-92891610D01*
X136169400Y-93050360D01*
X136745345Y-93050360D01*
X136745345Y-93030360D01*
X136748840Y-93030360D01*
X136768840Y-93050360D01*
X136960610Y-93050360D01*
X136960610Y-93242130D01*
X136992040Y-93273560D01*
X136992040Y-93304360D01*
X136768840Y-93304360D01*
X136748840Y-93324360D01*
X136745345Y-93324360D01*
X136745345Y-93304360D01*
X136169400Y-93304360D01*
X136010650Y-93463110D01*
X136010650Y-93468671D01*
X135430743Y-92888764D01*
X135300325Y-92801621D01*
X135146486Y-92771021D01*
X135009196Y-92771021D01*
X135009403Y-92533830D01*
X134914149Y-92303298D01*
X134784294Y-92173216D01*
X134784294Y-91691336D01*
X134753694Y-91537497D01*
X134666551Y-91407079D01*
X134522000Y-91262528D01*
X134522000Y-86019767D01*
X134691794Y-86273881D01*
G36*
X140140055Y-93050360D02*
X140187360Y-93050360D01*
X140187360Y-93304360D01*
X140140055Y-93304360D01*
X140140055Y-93324360D01*
X140136560Y-93324360D01*
X140116560Y-93304360D01*
X139893360Y-93304360D01*
X139893360Y-93273560D01*
X139924790Y-93242130D01*
X139924790Y-93050360D01*
X140116560Y-93050360D01*
X140136560Y-93030360D01*
X140140055Y-93030360D01*
X140140055Y-93050360D01*
X140140055Y-93050360D01*
G37*
X140140055Y-93050360D02*
X140187360Y-93050360D01*
X140187360Y-93304360D01*
X140140055Y-93304360D01*
X140140055Y-93324360D01*
X140136560Y-93324360D01*
X140116560Y-93304360D01*
X139893360Y-93304360D01*
X139893360Y-93273560D01*
X139924790Y-93242130D01*
X139924790Y-93050360D01*
X140116560Y-93050360D01*
X140136560Y-93030360D01*
X140140055Y-93030360D01*
X140140055Y-93050360D01*
G36*
X140874750Y-92859706D02*
X140874750Y-92601470D01*
X140845005Y-92529660D01*
X140874750Y-92457850D01*
X140874750Y-92167710D01*
X140716000Y-92008960D01*
X140140055Y-92008960D01*
X140140055Y-92028960D01*
X140136560Y-92028960D01*
X140116560Y-92008960D01*
X139924790Y-92008960D01*
X139924790Y-91817190D01*
X139893360Y-91785760D01*
X139893360Y-91754960D01*
X140116560Y-91754960D01*
X140140055Y-91731465D01*
X140140055Y-91754960D01*
X140716000Y-91754960D01*
X140874750Y-91596210D01*
X140874750Y-91306070D01*
X140778077Y-91072681D01*
X140599448Y-90894053D01*
X140366059Y-90797380D01*
X140298805Y-90797380D01*
X140140055Y-90956130D01*
X140140055Y-91034099D01*
X140000008Y-90894053D01*
X139924790Y-90862896D01*
X139924790Y-90804998D01*
X139862429Y-90804998D01*
X139834198Y-90736842D01*
X139924790Y-90646250D01*
X139924790Y-90627000D01*
X143107457Y-90627000D01*
X140874750Y-92859706D01*
X140874750Y-92859706D01*
G37*
X140874750Y-92859706D02*
X140874750Y-92601470D01*
X140845005Y-92529660D01*
X140874750Y-92457850D01*
X140874750Y-92167710D01*
X140716000Y-92008960D01*
X140140055Y-92008960D01*
X140140055Y-92028960D01*
X140136560Y-92028960D01*
X140116560Y-92008960D01*
X139924790Y-92008960D01*
X139924790Y-91817190D01*
X139893360Y-91785760D01*
X139893360Y-91754960D01*
X140116560Y-91754960D01*
X140140055Y-91731465D01*
X140140055Y-91754960D01*
X140716000Y-91754960D01*
X140874750Y-91596210D01*
X140874750Y-91306070D01*
X140778077Y-91072681D01*
X140599448Y-90894053D01*
X140366059Y-90797380D01*
X140298805Y-90797380D01*
X140140055Y-90956130D01*
X140140055Y-91034099D01*
X140000008Y-90894053D01*
X139924790Y-90862896D01*
X139924790Y-90804998D01*
X139862429Y-90804998D01*
X139834198Y-90736842D01*
X139924790Y-90646250D01*
X139924790Y-90627000D01*
X143107457Y-90627000D01*
X140874750Y-92859706D01*
G36*
X138531312Y-92519347D02*
X138556210Y-92529660D01*
X138531312Y-92539973D01*
X138442700Y-92628585D01*
X138354088Y-92539973D01*
X138329190Y-92529660D01*
X138354088Y-92519347D01*
X138442700Y-92430735D01*
X138531312Y-92519347D01*
X138531312Y-92519347D01*
G37*
X138531312Y-92519347D02*
X138556210Y-92529660D01*
X138531312Y-92539973D01*
X138442700Y-92628585D01*
X138354088Y-92539973D01*
X138329190Y-92529660D01*
X138354088Y-92519347D01*
X138442700Y-92430735D01*
X138531312Y-92519347D01*
M02*
