M48
;DRILL file {KiCad 4.0.0-2.201511301920+6191~38~ubuntu14.04.1-stable} date Thu 21 Jan 2016 01:29:11 PM ICT
;FORMAT={-:-/ absolute / metric / decimal}
FMAT,2
METRIC,TZ
T1C0.300
T2C0.300
T3C0.500
T4C0.700
T5C0.800
T6C0.813
T7C1.000
T8C1.016
T9C1.199
T10C3.048
%
G90
G05
M71
T1
X155.829Y-105.41
X155.829Y-106.705
X156.428Y-105.41
X156.428Y-106.705
X156.779Y-104.46
X156.779Y-105.059
X156.779Y-107.056
X156.779Y-107.655
X158.074Y-104.46
X158.074Y-105.059
X158.074Y-107.056
X158.074Y-107.655
X158.425Y-105.41
X158.425Y-106.705
X159.024Y-105.41
X159.024Y-106.705
T2
X135.89Y-89.916
X136.271Y-93.472
X140.97Y-88.392
X142.367Y-109.982
X143.584Y-95.639
X145.669Y-104.902
X147.847Y-103.842
X148.463Y-109.474
X151.765Y-79.838
X151.765Y-114.3
X152.753Y-108.246
X153.293Y-104.972
X153.314Y-106.686
X154.1Y-109.722
X154.576Y-101.539
X154.94Y-112.522
X155.194Y-96.774
X155.309Y-110.307
X156.284Y-101.703
X156.464Y-110.49
X156.718Y-91.186
X157.123Y-110.094
X157.373Y-96.734
X157.48Y-104.902
X157.812Y-101.486
X158.496Y-110.998
X158.551Y-101.356
X158.654Y-92.38
X159.225Y-107.696
X159.385Y-115.316
X159.473Y-94.618
X159.513Y-101.355
X160.32Y-111.204
X161.281Y-107.7
X161.446Y-105.057
X161.756Y-103.886
X162.086Y-106.008
X162.382Y-86.438
X162.56Y-107.696
X162.814Y-109.982
X163.371Y-108.186
X163.696Y-96.624
X164.846Y-112.014
X165.608Y-96.774
X165.608Y-109.22
X165.608Y-110.177
X166.116Y-102.87
X166.582Y-96.774
X166.624Y-114.808
X167.894Y-94.234
X168.402Y-100.584
X168.529Y-110.998
T4
X134.267Y-113.792
X137.767Y-113.792
T5
X145.161Y-112.014
X147.193Y-109.728
X147.701Y-107.95
X151.003Y-115.57
X157.861Y-115.57
X159.639Y-91.694
X162.687Y-93.726
X162.941Y-116.586
T6
X144.653Y-114.3
X147.193Y-114.3
T7
X133.584Y-99.438
X133.584Y-107.439
T8
X135.557Y-82.892
X135.557Y-85.432
X135.567Y-117.942
X135.567Y-120.482
X138.097Y-82.892
X138.097Y-85.432
X138.107Y-117.942
X138.107Y-120.482
X140.637Y-82.892
X140.637Y-85.432
X140.647Y-117.942
X140.647Y-120.482
X143.177Y-82.892
X143.177Y-85.432
X143.187Y-117.942
X143.187Y-120.482
X145.717Y-82.892
X145.717Y-85.432
X145.727Y-117.942
X145.727Y-120.482
X148.257Y-82.892
X148.257Y-85.432
X148.267Y-117.942
X148.267Y-120.482
X150.797Y-82.892
X150.797Y-85.432
X150.807Y-117.942
X150.807Y-120.482
X153.337Y-82.892
X153.337Y-85.432
X153.347Y-117.942
X153.347Y-120.482
X155.877Y-82.892
X155.877Y-85.432
X155.887Y-117.942
X155.887Y-120.482
X158.417Y-82.892
X158.417Y-85.432
X158.427Y-117.942
X158.427Y-120.482
T9
X157.427Y-106.058
T10
X129.2Y-119.6
X129.3Y-84.
X164.7Y-119.6
X164.9Y-84.
T3
X125.537Y-99.437G85X126.187Y-99.437
G05
X125.537Y-105.062G85X126.187Y-105.062
G05
T0
M30
