G04 #@! TF.FileFunction,Soldermask,Top*
%FSLAX46Y46*%
G04 Gerber Fmt 4.6, Leading zero omitted, Abs format (unit mm)*
G04 Created by KiCad (PCBNEW 4.0.0-2.201511301920+6191~38~ubuntu14.04.1-stable) date Tue 29 Mar 2016 01:13:56 PM ICT*
%MOMM*%
G01*
G04 APERTURE LIST*
%ADD10C,0.100000*%
%ADD11C,1.140000*%
%ADD12R,1.440000X0.840000*%
%ADD13R,1.390000X1.140000*%
%ADD14R,1.140000X1.390000*%
%ADD15R,0.749600X1.029000*%
%ADD16R,0.840000X1.440000*%
%ADD17R,3.640000X1.440000*%
%ADD18C,1.562400*%
%ADD19C,3.467400*%
%ADD20R,2.240000X0.540000*%
%ADD21O,1.690000X1.140000*%
%ADD22C,0.740000*%
%ADD23R,2.040000X2.040000*%
%ADD24R,1.140000X1.140000*%
%ADD25R,1.940000X2.370000*%
%ADD26R,1.867200X1.867200*%
%ADD27O,1.867200X1.867200*%
%ADD28R,1.640000X1.340000*%
%ADD29R,2.140000X4.140000*%
%ADD30R,1.440000X3.640000*%
%ADD31C,4.204000*%
%ADD32C,1.537000*%
%ADD33R,1.338880X1.338880*%
%ADD34R,0.390000X1.039160*%
%ADD35R,1.039160X0.390000*%
%ADD36R,1.562400X1.039160*%
%ADD37R,0.538780X1.039160*%
%ADD38C,1.940000*%
%ADD39R,2.140000X1.840000*%
G04 APERTURE END LIST*
D10*
D11*
X133583680Y-99438460D03*
X133583680Y-107439460D03*
D12*
X139867000Y-89872000D03*
X139867000Y-87972000D03*
D13*
X137707000Y-88022000D03*
X137707000Y-90022000D03*
X131047000Y-90412000D03*
X131047000Y-88412000D03*
X126437000Y-88302000D03*
X126437000Y-90302000D03*
D14*
X148447000Y-101600000D03*
X146447000Y-101600000D03*
D15*
X156192451Y-97362415D03*
X154287451Y-97362415D03*
X154287451Y-94822415D03*
X155239951Y-94822415D03*
X156192451Y-94822415D03*
X150149500Y-97322000D03*
X148244500Y-97322000D03*
X148244500Y-94782000D03*
X149197000Y-94782000D03*
X150149500Y-94782000D03*
D16*
X151677000Y-90712000D03*
X153577000Y-90712000D03*
X153567000Y-92742000D03*
X151667000Y-92742000D03*
X159757000Y-90052000D03*
X161657000Y-90052000D03*
X161627000Y-92292000D03*
X159727000Y-92292000D03*
D17*
X148777000Y-92662000D03*
X148777000Y-90462000D03*
X156547000Y-92752000D03*
X156547000Y-90552000D03*
D18*
X158179200Y-101048700D03*
X158179200Y-103055300D03*
X158179200Y-98559500D03*
D19*
X160897000Y-95486100D03*
X160897000Y-108617900D03*
D18*
X158179200Y-105544500D03*
D20*
X128849540Y-100961100D03*
X128849540Y-101611100D03*
X128849540Y-102261100D03*
X128849540Y-102911100D03*
X128849540Y-103561100D03*
D21*
X125862000Y-99437000D03*
X125862000Y-105062000D03*
D22*
X128012000Y-100262000D03*
X128012000Y-104262000D03*
D23*
X125862000Y-101187000D03*
X125862000Y-103337000D03*
D24*
X127937000Y-99062000D03*
X127937000Y-105462000D03*
D25*
X152727000Y-100632000D03*
X155647000Y-100632000D03*
D26*
X135567000Y-117942000D03*
D27*
X135567000Y-120482000D03*
X138107000Y-117942000D03*
X138107000Y-120482000D03*
X140647000Y-117942000D03*
X140647000Y-120482000D03*
X143187000Y-117942000D03*
X143187000Y-120482000D03*
X145727000Y-117942000D03*
X145727000Y-120482000D03*
X148267000Y-117942000D03*
X148267000Y-120482000D03*
X150807000Y-117942000D03*
X150807000Y-120482000D03*
X153347000Y-117942000D03*
X153347000Y-120482000D03*
X155887000Y-117942000D03*
X155887000Y-120482000D03*
X158427000Y-117942000D03*
X158427000Y-120482000D03*
D26*
X135557000Y-82892000D03*
D27*
X135557000Y-85432000D03*
X138097000Y-82892000D03*
X138097000Y-85432000D03*
X140637000Y-82892000D03*
X140637000Y-85432000D03*
X143177000Y-82892000D03*
X143177000Y-85432000D03*
X145717000Y-82892000D03*
X145717000Y-85432000D03*
X148257000Y-82892000D03*
X148257000Y-85432000D03*
X150797000Y-82892000D03*
X150797000Y-85432000D03*
X153337000Y-82892000D03*
X153337000Y-85432000D03*
X155877000Y-82892000D03*
X155877000Y-85432000D03*
X158417000Y-82892000D03*
X158417000Y-85432000D03*
D28*
X144667000Y-112992000D03*
X144667000Y-110492000D03*
X144667000Y-106992000D03*
X144667000Y-104492000D03*
X156917000Y-113492000D03*
X156917000Y-111492000D03*
D29*
X167097000Y-112892000D03*
X159097000Y-112892000D03*
D25*
X126117000Y-108762000D03*
X129037000Y-108762000D03*
D30*
X135417000Y-89042000D03*
X133217000Y-89042000D03*
D17*
X130667000Y-93972000D03*
X130667000Y-96172000D03*
D13*
X129047000Y-90392000D03*
X129047000Y-88392000D03*
X125847000Y-96092000D03*
X125847000Y-94092000D03*
D14*
X142567000Y-80252000D03*
X144567000Y-80252000D03*
X148617000Y-80292000D03*
X146617000Y-80292000D03*
D13*
X142297000Y-107812000D03*
X142297000Y-105812000D03*
D16*
X132257000Y-99752000D03*
X130357000Y-99752000D03*
D31*
X164900000Y-84000000D03*
X129300000Y-84000000D03*
X129200000Y-119600000D03*
X164700000Y-119600000D03*
D12*
X141967000Y-89882000D03*
X141967000Y-87982000D03*
D14*
X130487000Y-92202000D03*
X132487000Y-92202000D03*
D13*
X139297000Y-103352000D03*
X139297000Y-101352000D03*
D32*
X139667000Y-111612000D03*
X139667000Y-114152000D03*
D16*
X167097000Y-89622000D03*
X165197000Y-89622000D03*
D33*
X165127980Y-92042000D03*
X167226020Y-92042000D03*
D16*
X142457000Y-93502000D03*
X144357000Y-93502000D03*
D13*
X133657000Y-103572000D03*
X133657000Y-101572000D03*
X131737000Y-101442000D03*
X131737000Y-103442000D03*
X127847000Y-96102000D03*
X127847000Y-94102000D03*
D14*
X157657000Y-88452000D03*
X155657000Y-88452000D03*
X152737000Y-80322000D03*
X150737000Y-80322000D03*
X156507000Y-80312000D03*
X154507000Y-80312000D03*
D12*
X143967000Y-89872000D03*
X143967000Y-87972000D03*
X145947000Y-87962000D03*
X145947000Y-89862000D03*
D34*
X139638940Y-92359920D03*
X139237620Y-92359920D03*
X138838840Y-92359920D03*
X138437520Y-92359920D03*
X138038740Y-92359920D03*
X137637420Y-92359920D03*
X137241180Y-92359920D03*
X136839860Y-92359920D03*
X136441080Y-92359920D03*
X136039760Y-92359920D03*
X135640980Y-92359920D03*
X135239660Y-92359920D03*
D35*
X134439560Y-93160020D03*
X134439560Y-93561340D03*
X134439560Y-93960120D03*
X134439560Y-94361440D03*
X134439560Y-94760220D03*
X134439560Y-95161540D03*
X134439560Y-95557780D03*
X134439560Y-95959100D03*
X134439560Y-96357880D03*
X134439560Y-96759200D03*
X134439560Y-97157980D03*
X134439560Y-97559300D03*
D34*
X135239660Y-98359400D03*
X135640980Y-98359400D03*
X136039760Y-98359400D03*
X136441080Y-98359400D03*
X136839860Y-98359400D03*
X137241180Y-98359400D03*
X137637420Y-98359400D03*
X138038740Y-98359400D03*
X138437520Y-98359400D03*
X138838840Y-98359400D03*
X139237620Y-98359400D03*
X139638940Y-98359400D03*
D35*
X140439040Y-97559300D03*
X140439040Y-97157980D03*
X140439040Y-96759200D03*
X140439040Y-96357880D03*
X140439040Y-95959100D03*
X140439040Y-95557780D03*
X140439040Y-95161540D03*
X140439040Y-94760220D03*
X140439040Y-94361440D03*
X140439040Y-93960120D03*
X140439040Y-93561340D03*
X140439040Y-93160020D03*
D36*
X137439300Y-95359660D03*
D37*
X139036960Y-96007360D03*
X138437520Y-96007360D03*
X139036960Y-94711960D03*
X138437520Y-94711960D03*
X138087000Y-93762000D03*
X138087000Y-94361440D03*
X136791600Y-93762000D03*
X136791600Y-94361440D03*
X135841640Y-94711960D03*
X136441080Y-94711960D03*
X135841640Y-96007360D03*
X136441080Y-96007360D03*
X136791600Y-96957320D03*
X136791600Y-96357880D03*
X138087000Y-96957320D03*
X138087000Y-96357880D03*
D14*
X144627000Y-96012000D03*
X142627000Y-96012000D03*
D38*
X133695000Y-113284000D03*
X129195000Y-113284000D03*
D13*
X140927000Y-101362000D03*
X140927000Y-103362000D03*
X135477000Y-103512000D03*
X135477000Y-101512000D03*
D14*
X132327000Y-97842000D03*
X130327000Y-97842000D03*
D12*
X137207000Y-103472000D03*
X137207000Y-101572000D03*
D16*
X127107000Y-92192000D03*
X129007000Y-92192000D03*
D14*
X142407000Y-91982000D03*
X144407000Y-91982000D03*
X149727000Y-88252000D03*
X147727000Y-88252000D03*
D13*
X146627000Y-95132000D03*
X146627000Y-97132000D03*
X152737000Y-95202000D03*
X152737000Y-97202000D03*
D14*
X153507000Y-88392000D03*
X151507000Y-88392000D03*
X161707000Y-88212000D03*
X159707000Y-88212000D03*
D39*
X131547000Y-106842000D03*
X136547000Y-106842000D03*
M02*
