M48
;DRILL file {KiCad 4.0.0-2.201511301920+6191~38~ubuntu14.04.1-stable} date Tue 29 Mar 2016 01:13:50 PM ICT
;FORMAT={-:-/ absolute / metric / decimal}
FMAT,2
METRIC,TZ
T1C0.300
T2C0.300
T3C0.500
T4C0.813
T5C0.914
T6C1.000
T7C1.016
T8C1.199
T9C2.311
T10C3.048
%
G90
G05
M71
T1
X135.842Y-94.712
X135.842Y-96.007
X136.441Y-94.712
X136.441Y-96.007
X136.792Y-93.762
X136.792Y-94.361
X136.792Y-96.358
X136.792Y-96.957
X138.087Y-93.762
X138.087Y-94.361
X138.087Y-96.358
X138.087Y-96.957
X138.438Y-94.712
X138.438Y-96.007
X139.037Y-94.712
X139.037Y-96.007
T2
X125.817Y-96.122
X125.862Y-101.187
X125.862Y-103.337
X126.117Y-108.762
X126.397Y-88.282
X127.68Y-90.18
X127.807Y-96.132
X127.937Y-99.062
X127.937Y-105.462
X129.007Y-92.192
X130.327Y-97.842
X130.357Y-99.752
X130.497Y-92.192
X131.027Y-90.422
X131.877Y-103.462
X132.327Y-97.842
X132.487Y-92.202
X133.Y-95.776
X133.647Y-103.592
X133.758Y-91.285
X133.952Y-91.999
X133.985Y-110.236
X134.94Y-99.385
X135.477Y-103.492
X136.51Y-99.607
X136.547Y-106.842
X137.04Y-100.67
X137.707Y-88.022
X137.707Y-90.022
X139.307Y-101.272
X139.337Y-103.332
X139.867Y-87.972
X140.917Y-103.342
X141.453Y-95.453
X141.473Y-94.714
X141.94Y-97.85
X141.967Y-87.982
X142.307Y-107.812
X142.444Y-96.012
X142.547Y-79.782
X143.584Y-95.639
X143.967Y-87.972
X144.208Y-109.035
X144.357Y-93.502
X144.567Y-80.252
X144.667Y-112.992
X145.947Y-87.962
X145.947Y-89.862
X146.447Y-101.6
X148.447Y-101.6
X148.617Y-80.292
X149.197Y-94.782
X149.737Y-88.262
X151.677Y-93.792
X152.697Y-91.692
X152.727Y-100.632
X152.737Y-80.322
X152.737Y-95.202
X155.24Y-94.822
X156.507Y-80.312
X157.657Y-88.452
X159.727Y-92.292
X165.128Y-92.042
X165.197Y-89.622
T4
X139.667Y-111.612
X139.667Y-114.152
T5
X158.179Y-98.559
X158.179Y-101.049
X158.179Y-103.055
X158.179Y-105.544
T6
X129.195Y-113.284
X133.584Y-99.438
X133.584Y-107.439
X133.695Y-113.284
T7
X135.557Y-82.892
X135.557Y-85.432
X135.567Y-117.942
X135.567Y-120.482
X138.097Y-82.892
X138.097Y-85.432
X138.107Y-117.942
X138.107Y-120.482
X140.637Y-82.892
X140.637Y-85.432
X140.647Y-117.942
X140.647Y-120.482
X143.177Y-82.892
X143.177Y-85.432
X143.187Y-117.942
X143.187Y-120.482
X145.717Y-82.892
X145.717Y-85.432
X145.727Y-117.942
X145.727Y-120.482
X148.257Y-82.892
X148.257Y-85.432
X148.267Y-117.942
X148.267Y-120.482
X150.797Y-82.892
X150.797Y-85.432
X150.807Y-117.942
X150.807Y-120.482
X153.337Y-82.892
X153.337Y-85.432
X153.347Y-117.942
X153.347Y-120.482
X155.877Y-82.892
X155.877Y-85.432
X155.887Y-117.942
X155.887Y-120.482
X158.417Y-82.892
X158.417Y-85.432
X158.427Y-117.942
X158.427Y-120.482
T8
X137.439Y-95.36
T9
X160.897Y-95.486
X160.897Y-108.618
T10
X129.2Y-119.6
X129.3Y-84.
X164.7Y-119.6
X164.9Y-84.
T3
X125.537Y-99.437G85X126.187Y-99.437
G05
X125.537Y-105.062G85X126.187Y-105.062
G05
T0
M30
