G04 #@! TF.FileFunction,Legend,Bot*
%FSLAX46Y46*%
G04 Gerber Fmt 4.6, Leading zero omitted, Abs format (unit mm)*
G04 Created by KiCad (PCBNEW 4.0.0-2.201511301920+6191~38~ubuntu14.04.1-stable) date Tue 29 Mar 2016 01:13:56 PM ICT*
%MOMM*%
G01*
G04 APERTURE LIST*
%ADD10C,0.100000*%
%ADD11C,0.700000*%
%ADD12C,0.150000*%
%ADD13C,0.254000*%
%ADD14C,0.002540*%
G04 APERTURE END LIST*
D10*
D11*
X148944143Y-93083429D02*
X148944143Y-94797715D01*
X151944143Y-93940572D02*
X148944143Y-93940572D01*
X151944143Y-95797715D02*
X149944143Y-95797715D01*
X148944143Y-95797715D02*
X149087000Y-95654858D01*
X149229857Y-95797715D01*
X149087000Y-95940572D01*
X148944143Y-95797715D01*
X149229857Y-95797715D01*
X149944143Y-97226286D02*
X151944143Y-97226286D01*
X150229857Y-97226286D02*
X150087000Y-97369143D01*
X149944143Y-97654857D01*
X149944143Y-98083429D01*
X150087000Y-98369143D01*
X150372714Y-98512000D01*
X151944143Y-98512000D01*
X149944143Y-99654857D02*
X151944143Y-100369143D01*
X149944143Y-101083429D02*
X151944143Y-100369143D01*
X152658429Y-100083429D01*
X152801286Y-99940572D01*
X152944143Y-99654857D01*
X151658429Y-103940571D02*
X151801286Y-103797714D01*
X151944143Y-103369143D01*
X151944143Y-103083429D01*
X151801286Y-102654857D01*
X151515571Y-102369143D01*
X151229857Y-102226286D01*
X150658429Y-102083429D01*
X150229857Y-102083429D01*
X149658429Y-102226286D01*
X149372714Y-102369143D01*
X149087000Y-102654857D01*
X148944143Y-103083429D01*
X148944143Y-103369143D01*
X149087000Y-103797714D01*
X149229857Y-103940571D01*
X151944143Y-105654857D02*
X151801286Y-105369143D01*
X151658429Y-105226286D01*
X151372714Y-105083429D01*
X150515571Y-105083429D01*
X150229857Y-105226286D01*
X150087000Y-105369143D01*
X149944143Y-105654857D01*
X149944143Y-106083429D01*
X150087000Y-106369143D01*
X150229857Y-106512000D01*
X150515571Y-106654857D01*
X151372714Y-106654857D01*
X151658429Y-106512000D01*
X151801286Y-106369143D01*
X151944143Y-106083429D01*
X151944143Y-105654857D01*
X151944143Y-107940572D02*
X149944143Y-107940572D01*
X150229857Y-107940572D02*
X150087000Y-108083429D01*
X149944143Y-108369143D01*
X149944143Y-108797715D01*
X150087000Y-109083429D01*
X150372714Y-109226286D01*
X151944143Y-109226286D01*
X150372714Y-109226286D02*
X150087000Y-109369143D01*
X149944143Y-109654857D01*
X149944143Y-110083429D01*
X150087000Y-110369143D01*
X150372714Y-110512000D01*
X151944143Y-110512000D01*
D12*
X155459381Y-96147238D02*
X154459381Y-96147238D01*
X155459381Y-96575810D02*
X154935571Y-96575810D01*
X154840333Y-96528191D01*
X154792714Y-96432953D01*
X154792714Y-96290095D01*
X154840333Y-96194857D01*
X154887952Y-96147238D01*
X154792714Y-96909143D02*
X154792714Y-97290095D01*
X154459381Y-97052000D02*
X155316524Y-97052000D01*
X155411762Y-97099619D01*
X155459381Y-97194857D01*
X155459381Y-97290095D01*
X154792714Y-97480572D02*
X154792714Y-97861524D01*
X154459381Y-97623429D02*
X155316524Y-97623429D01*
X155411762Y-97671048D01*
X155459381Y-97766286D01*
X155459381Y-97861524D01*
X154792714Y-98194858D02*
X155792714Y-98194858D01*
X154840333Y-98194858D02*
X154792714Y-98290096D01*
X154792714Y-98480573D01*
X154840333Y-98575811D01*
X154887952Y-98623430D01*
X154983190Y-98671049D01*
X155268905Y-98671049D01*
X155364143Y-98623430D01*
X155411762Y-98575811D01*
X155459381Y-98480573D01*
X155459381Y-98290096D01*
X155411762Y-98194858D01*
X155364143Y-99099620D02*
X155411762Y-99147239D01*
X155459381Y-99099620D01*
X155411762Y-99052001D01*
X155364143Y-99099620D01*
X155459381Y-99099620D01*
X154840333Y-99099620D02*
X154887952Y-99147239D01*
X154935571Y-99099620D01*
X154887952Y-99052001D01*
X154840333Y-99099620D01*
X154935571Y-99099620D01*
X154411762Y-100290096D02*
X155697476Y-99432953D01*
X154411762Y-101337715D02*
X155697476Y-100480572D01*
X154792714Y-101528191D02*
X154792714Y-101909143D01*
X154459381Y-101671048D02*
X155316524Y-101671048D01*
X155411762Y-101718667D01*
X155459381Y-101813905D01*
X155459381Y-101909143D01*
X155459381Y-102242477D02*
X154792714Y-102242477D01*
X154459381Y-102242477D02*
X154507000Y-102194858D01*
X154554619Y-102242477D01*
X154507000Y-102290096D01*
X154459381Y-102242477D01*
X154554619Y-102242477D01*
X154792714Y-102718667D02*
X155459381Y-102718667D01*
X154887952Y-102718667D02*
X154840333Y-102766286D01*
X154792714Y-102861524D01*
X154792714Y-103004382D01*
X154840333Y-103099620D01*
X154935571Y-103147239D01*
X155459381Y-103147239D01*
X154792714Y-103528191D02*
X155459381Y-103766286D01*
X154792714Y-104004382D02*
X155459381Y-103766286D01*
X155697476Y-103671048D01*
X155745095Y-103623429D01*
X155792714Y-103528191D01*
X155411762Y-104813906D02*
X155459381Y-104718668D01*
X155459381Y-104528191D01*
X155411762Y-104432953D01*
X155364143Y-104385334D01*
X155268905Y-104337715D01*
X154983190Y-104337715D01*
X154887952Y-104385334D01*
X154840333Y-104432953D01*
X154792714Y-104528191D01*
X154792714Y-104718668D01*
X154840333Y-104813906D01*
X155459381Y-105385334D02*
X155411762Y-105290096D01*
X155364143Y-105242477D01*
X155268905Y-105194858D01*
X154983190Y-105194858D01*
X154887952Y-105242477D01*
X154840333Y-105290096D01*
X154792714Y-105385334D01*
X154792714Y-105528192D01*
X154840333Y-105623430D01*
X154887952Y-105671049D01*
X154983190Y-105718668D01*
X155268905Y-105718668D01*
X155364143Y-105671049D01*
X155411762Y-105623430D01*
X155459381Y-105528192D01*
X155459381Y-105385334D01*
X155459381Y-106147239D02*
X154792714Y-106147239D01*
X154887952Y-106147239D02*
X154840333Y-106194858D01*
X154792714Y-106290096D01*
X154792714Y-106432954D01*
X154840333Y-106528192D01*
X154935571Y-106575811D01*
X155459381Y-106575811D01*
X154935571Y-106575811D02*
X154840333Y-106623430D01*
X154792714Y-106718668D01*
X154792714Y-106861525D01*
X154840333Y-106956763D01*
X154935571Y-107004382D01*
X155459381Y-107004382D01*
X155364143Y-107480572D02*
X155411762Y-107528191D01*
X155459381Y-107480572D01*
X155411762Y-107432953D01*
X155364143Y-107480572D01*
X155459381Y-107480572D01*
X155459381Y-108099619D02*
X155411762Y-108004381D01*
X155364143Y-107956762D01*
X155268905Y-107909143D01*
X154983190Y-107909143D01*
X154887952Y-107956762D01*
X154840333Y-108004381D01*
X154792714Y-108099619D01*
X154792714Y-108242477D01*
X154840333Y-108337715D01*
X154887952Y-108385334D01*
X154983190Y-108432953D01*
X155268905Y-108432953D01*
X155364143Y-108385334D01*
X155411762Y-108337715D01*
X155459381Y-108242477D01*
X155459381Y-108099619D01*
X155459381Y-108861524D02*
X154792714Y-108861524D01*
X154983190Y-108861524D02*
X154887952Y-108909143D01*
X154840333Y-108956762D01*
X154792714Y-109052000D01*
X154792714Y-109147239D01*
X154792714Y-109909144D02*
X155602238Y-109909144D01*
X155697476Y-109861525D01*
X155745095Y-109813906D01*
X155792714Y-109718667D01*
X155792714Y-109575810D01*
X155745095Y-109480572D01*
X155411762Y-109909144D02*
X155459381Y-109813906D01*
X155459381Y-109623429D01*
X155411762Y-109528191D01*
X155364143Y-109480572D01*
X155268905Y-109432953D01*
X154983190Y-109432953D01*
X154887952Y-109480572D01*
X154840333Y-109528191D01*
X154792714Y-109623429D01*
X154792714Y-109813906D01*
X154840333Y-109909144D01*
X154411762Y-111099620D02*
X155697476Y-110242477D01*
D13*
X142582900Y-109834680D02*
X135387080Y-109834680D01*
X144084040Y-99636580D02*
X144084040Y-96738440D01*
X142582900Y-95138240D02*
X135387080Y-95138240D01*
X129585720Y-95138240D02*
X129585720Y-98437700D01*
X130286760Y-100838000D02*
X130286760Y-109834680D01*
X132585460Y-95138240D02*
X129585720Y-95138240D01*
X132585460Y-109834680D02*
X130286760Y-109834680D01*
X129585720Y-98437700D02*
X130286760Y-100838000D01*
D14*
G36*
X155893620Y-93197480D02*
X155888540Y-93207640D01*
X155873300Y-93230500D01*
X155852980Y-93263520D01*
X155825040Y-93304160D01*
X155799640Y-93342260D01*
X155776780Y-93375280D01*
X155761540Y-93398140D01*
X155756460Y-93408300D01*
X155759000Y-93413380D01*
X155769160Y-93431160D01*
X155781860Y-93459100D01*
X155789480Y-93474340D01*
X155802180Y-93499740D01*
X155804720Y-93512440D01*
X155799640Y-93514980D01*
X155781860Y-93525140D01*
X155748840Y-93537840D01*
X155705660Y-93558160D01*
X155654860Y-93578480D01*
X155598980Y-93601340D01*
X155543100Y-93624200D01*
X155489760Y-93647060D01*
X155441500Y-93667380D01*
X155403400Y-93682620D01*
X155375460Y-93692780D01*
X155365300Y-93697860D01*
X155362760Y-93695320D01*
X155350060Y-93682620D01*
X155334820Y-93662300D01*
X155294180Y-93614040D01*
X155235760Y-93568320D01*
X155169720Y-93537840D01*
X155096060Y-93530220D01*
X155030020Y-93537840D01*
X154966520Y-93563240D01*
X154905560Y-93608960D01*
X154862380Y-93664840D01*
X154834440Y-93730880D01*
X154826820Y-93802000D01*
X154834440Y-93870580D01*
X154859840Y-93936620D01*
X154905560Y-93997580D01*
X154933500Y-94020440D01*
X154994460Y-94056000D01*
X155055420Y-94076320D01*
X155070660Y-94076320D01*
X155141780Y-94073780D01*
X155210360Y-94053460D01*
X155268780Y-94017900D01*
X155319580Y-93964560D01*
X155324660Y-93959480D01*
X155342440Y-93934080D01*
X155352600Y-93918840D01*
X155362760Y-93906140D01*
X155578660Y-93995040D01*
X155614220Y-94010280D01*
X155672640Y-94035680D01*
X155723440Y-94056000D01*
X155764080Y-94073780D01*
X155789480Y-94086480D01*
X155802180Y-94091560D01*
X155802180Y-94091560D01*
X155802180Y-94099180D01*
X155797100Y-94114420D01*
X155781860Y-94144900D01*
X155771700Y-94165220D01*
X155761540Y-94188080D01*
X155756460Y-94198240D01*
X155761540Y-94208400D01*
X155776780Y-94228720D01*
X155797100Y-94261740D01*
X155822500Y-94299840D01*
X155847900Y-94335400D01*
X155870760Y-94370960D01*
X155886000Y-94393820D01*
X155893620Y-94406520D01*
X155893620Y-94409060D01*
X155886000Y-94419220D01*
X155870760Y-94439540D01*
X155842820Y-94467480D01*
X155802180Y-94508120D01*
X155797100Y-94515740D01*
X155761540Y-94548760D01*
X155731060Y-94576700D01*
X155710740Y-94597020D01*
X155703120Y-94602100D01*
X155703120Y-94602100D01*
X155690420Y-94597020D01*
X155665020Y-94581780D01*
X155632000Y-94558920D01*
X155591360Y-94530980D01*
X155487220Y-94459860D01*
X155390700Y-94500500D01*
X155360220Y-94510660D01*
X155324660Y-94525900D01*
X155299260Y-94538600D01*
X155286560Y-94543680D01*
X155284020Y-94553840D01*
X155276400Y-94581780D01*
X155268780Y-94619880D01*
X155261160Y-94665600D01*
X155251000Y-94711320D01*
X155243380Y-94749420D01*
X155238300Y-94779900D01*
X155235760Y-94792600D01*
X155233220Y-94795140D01*
X155228140Y-94797680D01*
X155215440Y-94800220D01*
X155190040Y-94800220D01*
X155151940Y-94800220D01*
X155096060Y-94800220D01*
X155090980Y-94800220D01*
X155037640Y-94800220D01*
X154997000Y-94800220D01*
X154971600Y-94797680D01*
X154961440Y-94795140D01*
X154961440Y-94795140D01*
X154956360Y-94782440D01*
X154951280Y-94754500D01*
X154943660Y-94716400D01*
X154933500Y-94668140D01*
X154933500Y-94665600D01*
X154925880Y-94617340D01*
X154915720Y-94579240D01*
X154910640Y-94551300D01*
X154905560Y-94538600D01*
X154903020Y-94536060D01*
X154885240Y-94525900D01*
X154854760Y-94513200D01*
X154819200Y-94497960D01*
X154783640Y-94482720D01*
X154748080Y-94467480D01*
X154725220Y-94459860D01*
X154712520Y-94457320D01*
X154712520Y-94457320D01*
X154702360Y-94464940D01*
X154676960Y-94480180D01*
X154643940Y-94503040D01*
X154603300Y-94530980D01*
X154598220Y-94533520D01*
X154560120Y-94561460D01*
X154524560Y-94581780D01*
X154501700Y-94597020D01*
X154491540Y-94602100D01*
X154489000Y-94602100D01*
X154478840Y-94594480D01*
X154455980Y-94574160D01*
X154425500Y-94543680D01*
X154389940Y-94508120D01*
X154379780Y-94497960D01*
X154341680Y-94459860D01*
X154316280Y-94431920D01*
X154303580Y-94414140D01*
X154298500Y-94406520D01*
X154301040Y-94406520D01*
X154306120Y-94393820D01*
X154323900Y-94368420D01*
X154346760Y-94335400D01*
X154374700Y-94294760D01*
X154377240Y-94292220D01*
X154402640Y-94251580D01*
X154425500Y-94218560D01*
X154440740Y-94195700D01*
X154448360Y-94185540D01*
X154448360Y-94183000D01*
X154443280Y-94167760D01*
X154433120Y-94137280D01*
X154420420Y-94104260D01*
X154405180Y-94066160D01*
X154389940Y-94033140D01*
X154379780Y-94007740D01*
X154372160Y-93995040D01*
X154372160Y-93995040D01*
X154356920Y-93989960D01*
X154326440Y-93984880D01*
X154285800Y-93974720D01*
X154237540Y-93967100D01*
X154229920Y-93964560D01*
X154181660Y-93956940D01*
X154143560Y-93949320D01*
X154115620Y-93941700D01*
X154102920Y-93939160D01*
X154102920Y-93934080D01*
X154100380Y-93908680D01*
X154100380Y-93873120D01*
X154100380Y-93829940D01*
X154100380Y-93786760D01*
X154100380Y-93743580D01*
X154102920Y-93705480D01*
X154102920Y-93680080D01*
X154105460Y-93667380D01*
X154108000Y-93667380D01*
X154120700Y-93662300D01*
X154151180Y-93657220D01*
X154191820Y-93647060D01*
X154242620Y-93639440D01*
X154250240Y-93636900D01*
X154298500Y-93629280D01*
X154336600Y-93619120D01*
X154364540Y-93614040D01*
X154374700Y-93611500D01*
X154377240Y-93606420D01*
X154384860Y-93588640D01*
X154397560Y-93555620D01*
X154415340Y-93514980D01*
X154450900Y-93423540D01*
X154374700Y-93311780D01*
X154367080Y-93301620D01*
X154339140Y-93260980D01*
X154318820Y-93227960D01*
X154303580Y-93205100D01*
X154298500Y-93194940D01*
X154298500Y-93194940D01*
X154308660Y-93184780D01*
X154328980Y-93161920D01*
X154359460Y-93131440D01*
X154392480Y-93095880D01*
X154420420Y-93070480D01*
X154450900Y-93040000D01*
X154471220Y-93019680D01*
X154486460Y-93009520D01*
X154494080Y-93004440D01*
X154499160Y-93006980D01*
X154511860Y-93012060D01*
X154534720Y-93029840D01*
X154570280Y-93052700D01*
X154608380Y-93080640D01*
X154643940Y-93103500D01*
X154679500Y-93126360D01*
X154707440Y-93141600D01*
X154720140Y-93149220D01*
X154725220Y-93146680D01*
X154748080Y-93139060D01*
X154781100Y-93126360D01*
X154821740Y-93108580D01*
X154910640Y-93070480D01*
X154920800Y-93012060D01*
X154928420Y-92976500D01*
X154936040Y-92925700D01*
X154946200Y-92879980D01*
X154961440Y-92806320D01*
X155228140Y-92803780D01*
X155233220Y-92813940D01*
X155238300Y-92826640D01*
X155243380Y-92852040D01*
X155251000Y-92892680D01*
X155258620Y-92938400D01*
X155266240Y-92976500D01*
X155273860Y-93017140D01*
X155278940Y-93045080D01*
X155281480Y-93057780D01*
X155286560Y-93060320D01*
X155306880Y-93070480D01*
X155337360Y-93085720D01*
X155372920Y-93100960D01*
X155411020Y-93116200D01*
X155446580Y-93128900D01*
X155471980Y-93139060D01*
X155487220Y-93144140D01*
X155497380Y-93139060D01*
X155520240Y-93123820D01*
X155553260Y-93100960D01*
X155591360Y-93075560D01*
X155632000Y-93047620D01*
X155665020Y-93024760D01*
X155690420Y-93009520D01*
X155700580Y-93001900D01*
X155708200Y-93006980D01*
X155725980Y-93022220D01*
X155756460Y-93050160D01*
X155802180Y-93095880D01*
X155807260Y-93103500D01*
X155842820Y-93136520D01*
X155868220Y-93167000D01*
X155888540Y-93187320D01*
X155893620Y-93197480D01*
X155893620Y-93197480D01*
G37*
X155893620Y-93197480D02*
X155888540Y-93207640D01*
X155873300Y-93230500D01*
X155852980Y-93263520D01*
X155825040Y-93304160D01*
X155799640Y-93342260D01*
X155776780Y-93375280D01*
X155761540Y-93398140D01*
X155756460Y-93408300D01*
X155759000Y-93413380D01*
X155769160Y-93431160D01*
X155781860Y-93459100D01*
X155789480Y-93474340D01*
X155802180Y-93499740D01*
X155804720Y-93512440D01*
X155799640Y-93514980D01*
X155781860Y-93525140D01*
X155748840Y-93537840D01*
X155705660Y-93558160D01*
X155654860Y-93578480D01*
X155598980Y-93601340D01*
X155543100Y-93624200D01*
X155489760Y-93647060D01*
X155441500Y-93667380D01*
X155403400Y-93682620D01*
X155375460Y-93692780D01*
X155365300Y-93697860D01*
X155362760Y-93695320D01*
X155350060Y-93682620D01*
X155334820Y-93662300D01*
X155294180Y-93614040D01*
X155235760Y-93568320D01*
X155169720Y-93537840D01*
X155096060Y-93530220D01*
X155030020Y-93537840D01*
X154966520Y-93563240D01*
X154905560Y-93608960D01*
X154862380Y-93664840D01*
X154834440Y-93730880D01*
X154826820Y-93802000D01*
X154834440Y-93870580D01*
X154859840Y-93936620D01*
X154905560Y-93997580D01*
X154933500Y-94020440D01*
X154994460Y-94056000D01*
X155055420Y-94076320D01*
X155070660Y-94076320D01*
X155141780Y-94073780D01*
X155210360Y-94053460D01*
X155268780Y-94017900D01*
X155319580Y-93964560D01*
X155324660Y-93959480D01*
X155342440Y-93934080D01*
X155352600Y-93918840D01*
X155362760Y-93906140D01*
X155578660Y-93995040D01*
X155614220Y-94010280D01*
X155672640Y-94035680D01*
X155723440Y-94056000D01*
X155764080Y-94073780D01*
X155789480Y-94086480D01*
X155802180Y-94091560D01*
X155802180Y-94091560D01*
X155802180Y-94099180D01*
X155797100Y-94114420D01*
X155781860Y-94144900D01*
X155771700Y-94165220D01*
X155761540Y-94188080D01*
X155756460Y-94198240D01*
X155761540Y-94208400D01*
X155776780Y-94228720D01*
X155797100Y-94261740D01*
X155822500Y-94299840D01*
X155847900Y-94335400D01*
X155870760Y-94370960D01*
X155886000Y-94393820D01*
X155893620Y-94406520D01*
X155893620Y-94409060D01*
X155886000Y-94419220D01*
X155870760Y-94439540D01*
X155842820Y-94467480D01*
X155802180Y-94508120D01*
X155797100Y-94515740D01*
X155761540Y-94548760D01*
X155731060Y-94576700D01*
X155710740Y-94597020D01*
X155703120Y-94602100D01*
X155703120Y-94602100D01*
X155690420Y-94597020D01*
X155665020Y-94581780D01*
X155632000Y-94558920D01*
X155591360Y-94530980D01*
X155487220Y-94459860D01*
X155390700Y-94500500D01*
X155360220Y-94510660D01*
X155324660Y-94525900D01*
X155299260Y-94538600D01*
X155286560Y-94543680D01*
X155284020Y-94553840D01*
X155276400Y-94581780D01*
X155268780Y-94619880D01*
X155261160Y-94665600D01*
X155251000Y-94711320D01*
X155243380Y-94749420D01*
X155238300Y-94779900D01*
X155235760Y-94792600D01*
X155233220Y-94795140D01*
X155228140Y-94797680D01*
X155215440Y-94800220D01*
X155190040Y-94800220D01*
X155151940Y-94800220D01*
X155096060Y-94800220D01*
X155090980Y-94800220D01*
X155037640Y-94800220D01*
X154997000Y-94800220D01*
X154971600Y-94797680D01*
X154961440Y-94795140D01*
X154961440Y-94795140D01*
X154956360Y-94782440D01*
X154951280Y-94754500D01*
X154943660Y-94716400D01*
X154933500Y-94668140D01*
X154933500Y-94665600D01*
X154925880Y-94617340D01*
X154915720Y-94579240D01*
X154910640Y-94551300D01*
X154905560Y-94538600D01*
X154903020Y-94536060D01*
X154885240Y-94525900D01*
X154854760Y-94513200D01*
X154819200Y-94497960D01*
X154783640Y-94482720D01*
X154748080Y-94467480D01*
X154725220Y-94459860D01*
X154712520Y-94457320D01*
X154712520Y-94457320D01*
X154702360Y-94464940D01*
X154676960Y-94480180D01*
X154643940Y-94503040D01*
X154603300Y-94530980D01*
X154598220Y-94533520D01*
X154560120Y-94561460D01*
X154524560Y-94581780D01*
X154501700Y-94597020D01*
X154491540Y-94602100D01*
X154489000Y-94602100D01*
X154478840Y-94594480D01*
X154455980Y-94574160D01*
X154425500Y-94543680D01*
X154389940Y-94508120D01*
X154379780Y-94497960D01*
X154341680Y-94459860D01*
X154316280Y-94431920D01*
X154303580Y-94414140D01*
X154298500Y-94406520D01*
X154301040Y-94406520D01*
X154306120Y-94393820D01*
X154323900Y-94368420D01*
X154346760Y-94335400D01*
X154374700Y-94294760D01*
X154377240Y-94292220D01*
X154402640Y-94251580D01*
X154425500Y-94218560D01*
X154440740Y-94195700D01*
X154448360Y-94185540D01*
X154448360Y-94183000D01*
X154443280Y-94167760D01*
X154433120Y-94137280D01*
X154420420Y-94104260D01*
X154405180Y-94066160D01*
X154389940Y-94033140D01*
X154379780Y-94007740D01*
X154372160Y-93995040D01*
X154372160Y-93995040D01*
X154356920Y-93989960D01*
X154326440Y-93984880D01*
X154285800Y-93974720D01*
X154237540Y-93967100D01*
X154229920Y-93964560D01*
X154181660Y-93956940D01*
X154143560Y-93949320D01*
X154115620Y-93941700D01*
X154102920Y-93939160D01*
X154102920Y-93934080D01*
X154100380Y-93908680D01*
X154100380Y-93873120D01*
X154100380Y-93829940D01*
X154100380Y-93786760D01*
X154100380Y-93743580D01*
X154102920Y-93705480D01*
X154102920Y-93680080D01*
X154105460Y-93667380D01*
X154108000Y-93667380D01*
X154120700Y-93662300D01*
X154151180Y-93657220D01*
X154191820Y-93647060D01*
X154242620Y-93639440D01*
X154250240Y-93636900D01*
X154298500Y-93629280D01*
X154336600Y-93619120D01*
X154364540Y-93614040D01*
X154374700Y-93611500D01*
X154377240Y-93606420D01*
X154384860Y-93588640D01*
X154397560Y-93555620D01*
X154415340Y-93514980D01*
X154450900Y-93423540D01*
X154374700Y-93311780D01*
X154367080Y-93301620D01*
X154339140Y-93260980D01*
X154318820Y-93227960D01*
X154303580Y-93205100D01*
X154298500Y-93194940D01*
X154298500Y-93194940D01*
X154308660Y-93184780D01*
X154328980Y-93161920D01*
X154359460Y-93131440D01*
X154392480Y-93095880D01*
X154420420Y-93070480D01*
X154450900Y-93040000D01*
X154471220Y-93019680D01*
X154486460Y-93009520D01*
X154494080Y-93004440D01*
X154499160Y-93006980D01*
X154511860Y-93012060D01*
X154534720Y-93029840D01*
X154570280Y-93052700D01*
X154608380Y-93080640D01*
X154643940Y-93103500D01*
X154679500Y-93126360D01*
X154707440Y-93141600D01*
X154720140Y-93149220D01*
X154725220Y-93146680D01*
X154748080Y-93139060D01*
X154781100Y-93126360D01*
X154821740Y-93108580D01*
X154910640Y-93070480D01*
X154920800Y-93012060D01*
X154928420Y-92976500D01*
X154936040Y-92925700D01*
X154946200Y-92879980D01*
X154961440Y-92806320D01*
X155228140Y-92803780D01*
X155233220Y-92813940D01*
X155238300Y-92826640D01*
X155243380Y-92852040D01*
X155251000Y-92892680D01*
X155258620Y-92938400D01*
X155266240Y-92976500D01*
X155273860Y-93017140D01*
X155278940Y-93045080D01*
X155281480Y-93057780D01*
X155286560Y-93060320D01*
X155306880Y-93070480D01*
X155337360Y-93085720D01*
X155372920Y-93100960D01*
X155411020Y-93116200D01*
X155446580Y-93128900D01*
X155471980Y-93139060D01*
X155487220Y-93144140D01*
X155497380Y-93139060D01*
X155520240Y-93123820D01*
X155553260Y-93100960D01*
X155591360Y-93075560D01*
X155632000Y-93047620D01*
X155665020Y-93024760D01*
X155690420Y-93009520D01*
X155700580Y-93001900D01*
X155708200Y-93006980D01*
X155725980Y-93022220D01*
X155756460Y-93050160D01*
X155802180Y-93095880D01*
X155807260Y-93103500D01*
X155842820Y-93136520D01*
X155868220Y-93167000D01*
X155888540Y-93187320D01*
X155893620Y-93197480D01*
D13*
X145386659Y-97992293D02*
X146172373Y-97992293D01*
X146329516Y-97939913D01*
X146434278Y-97835151D01*
X146486659Y-97678008D01*
X146486659Y-97573246D01*
X146486659Y-99092293D02*
X146486659Y-98463722D01*
X146486659Y-98778008D02*
X145386659Y-98778008D01*
X145543802Y-98673246D01*
X145648564Y-98568484D01*
X145700945Y-98463722D01*
M02*
