G04 #@! TF.FileFunction,Legend,Top*
%FSLAX46Y46*%
G04 Gerber Fmt 4.6, Leading zero omitted, Abs format (unit mm)*
G04 Created by KiCad (PCBNEW 4.0.0-2.201511301920+6191~38~ubuntu14.04.1-stable) date Thu 21 Jan 2016 01:29:08 PM ICT*
%MOMM*%
G01*
G04 APERTURE LIST*
%ADD10C,0.100000*%
%ADD11C,0.200000*%
%ADD12C,0.066040*%
%ADD13C,0.203200*%
%ADD14C,0.152400*%
%ADD15C,0.150000*%
%ADD16C,0.088900*%
G04 APERTURE END LIST*
D10*
D11*
X169044690Y-84074000D02*
G75*
G03X169044690Y-84074000I-4198690J0D01*
G01*
X133478924Y-84074000D02*
G75*
G03X133478924Y-84074000I-4192924J0D01*
G01*
X168917690Y-119634000D02*
G75*
G03X168917690Y-119634000I-4198690J0D01*
G01*
X133484690Y-119634000D02*
G75*
G03X133484690Y-119634000I-4198690J0D01*
G01*
D12*
X159224980Y-105559860D02*
X158224220Y-105559860D01*
X158224220Y-105559860D02*
X158224220Y-106555540D01*
X159224980Y-106555540D02*
X158224220Y-106555540D01*
X159224980Y-105559860D02*
X159224980Y-106555540D01*
X157924500Y-104259380D02*
X156928820Y-104259380D01*
X156928820Y-104259380D02*
X156928820Y-105260140D01*
X157924500Y-105260140D02*
X156928820Y-105260140D01*
X157924500Y-104259380D02*
X157924500Y-105260140D01*
X159224980Y-104259380D02*
X158224220Y-104259380D01*
X158224220Y-104259380D02*
X158224220Y-105260140D01*
X159224980Y-105260140D02*
X158224220Y-105260140D01*
X159224980Y-104259380D02*
X159224980Y-105260140D01*
X156629100Y-104259380D02*
X155628340Y-104259380D01*
X155628340Y-104259380D02*
X155628340Y-105260140D01*
X156629100Y-105260140D02*
X155628340Y-105260140D01*
X156629100Y-104259380D02*
X156629100Y-105260140D01*
X156629100Y-105559860D02*
X155628340Y-105559860D01*
X155628340Y-105559860D02*
X155628340Y-106555540D01*
X156629100Y-106555540D02*
X155628340Y-106555540D01*
X156629100Y-105559860D02*
X156629100Y-106555540D01*
X159224980Y-106855260D02*
X158224220Y-106855260D01*
X158224220Y-106855260D02*
X158224220Y-107856020D01*
X159224980Y-107856020D02*
X158224220Y-107856020D01*
X159224980Y-106855260D02*
X159224980Y-107856020D01*
X157924500Y-106855260D02*
X156928820Y-106855260D01*
X156928820Y-106855260D02*
X156928820Y-107856020D01*
X157924500Y-107856020D02*
X156928820Y-107856020D01*
X157924500Y-106855260D02*
X157924500Y-107856020D01*
X156629100Y-106855260D02*
X155628340Y-106855260D01*
X155628340Y-106855260D02*
X155628340Y-107856020D01*
X156629100Y-107856020D02*
X155628340Y-107856020D01*
X156629100Y-106855260D02*
X156629100Y-107856020D01*
D13*
X160426400Y-109057440D02*
X159951420Y-109057440D01*
X159951420Y-109057440D02*
X154901900Y-109057440D01*
X154901900Y-109057440D02*
X154426920Y-109057440D01*
X154426920Y-109057440D02*
X154426920Y-108582460D01*
X154426920Y-108582460D02*
X154426920Y-103532940D01*
X154426920Y-103532940D02*
X154426920Y-103057960D01*
X154426920Y-103057960D02*
X154901900Y-103057960D01*
X154901900Y-103057960D02*
X159951420Y-103057960D01*
X159951420Y-103057960D02*
X160225740Y-103057960D01*
X160225740Y-103057960D02*
X160426400Y-103258620D01*
X160426400Y-103258620D02*
X160426400Y-103532940D01*
X160426400Y-103532940D02*
X160426400Y-108582460D01*
X160426400Y-108582460D02*
X160426400Y-109057440D01*
D14*
X144871091Y-98511575D02*
X144670431Y-98511575D01*
X144871091Y-98511575D02*
X144871091Y-96713255D01*
X144871091Y-96713255D02*
X144670431Y-96713255D01*
X141868811Y-96713255D02*
X142069471Y-96713255D01*
X141868811Y-98511575D02*
X142069471Y-98511575D01*
X141868811Y-96713255D02*
X141868811Y-98511575D01*
X137163186Y-98790172D02*
X136962526Y-98790172D01*
X137163186Y-98790172D02*
X137163186Y-96991852D01*
X137163186Y-96991852D02*
X136962526Y-96991852D01*
X134160906Y-96991852D02*
X134361566Y-96991852D01*
X134160906Y-98790172D02*
X134361566Y-98790172D01*
X134160906Y-96991852D02*
X134160906Y-98790172D01*
D15*
X138506546Y-93233412D02*
X137306546Y-93233412D01*
X137306546Y-91483412D02*
X138506546Y-91483412D01*
X137306546Y-93769412D02*
X138506546Y-93769412D01*
X138506546Y-95519412D02*
X137306546Y-95519412D01*
X146574451Y-93279115D02*
X145374451Y-93279115D01*
X145374451Y-91529115D02*
X146574451Y-91529115D01*
X145374451Y-93561115D02*
X146574451Y-93561115D01*
X146574451Y-95311115D02*
X145374451Y-95311115D01*
X134096546Y-91701412D02*
G75*
G03X132596546Y-93201412I0J-1500000D01*
G01*
X135596546Y-93201412D02*
G75*
G03X134096546Y-91701412I-1500000J0D01*
G01*
X132596546Y-93801412D02*
G75*
G03X134096546Y-95301412I1500000J0D01*
G01*
X134096546Y-95301412D02*
G75*
G03X135596546Y-93801412I0J1500000D01*
G01*
X135596546Y-94001412D02*
X135596546Y-93001412D01*
X132596546Y-94001412D02*
X132596546Y-93001412D01*
X142103451Y-91620115D02*
G75*
G03X140603451Y-93120115I0J-1500000D01*
G01*
X143603451Y-93120115D02*
G75*
G03X142103451Y-91620115I-1500000J0D01*
G01*
X140603451Y-93720115D02*
G75*
G03X142103451Y-95220115I1500000J0D01*
G01*
X142103451Y-95220115D02*
G75*
G03X143603451Y-93720115I0J1500000D01*
G01*
X143603451Y-93920115D02*
X143603451Y-92920115D01*
X140603451Y-93920115D02*
X140603451Y-92920115D01*
X135128546Y-91097412D02*
X137128546Y-91097412D01*
X137128546Y-89047412D02*
X135128546Y-89047412D01*
X141256451Y-91016115D02*
X143256451Y-91016115D01*
X143256451Y-88966115D02*
X141256451Y-88966115D01*
X123219540Y-97911100D02*
X123219540Y-106611100D01*
X129624540Y-97911100D02*
X129624540Y-106611100D01*
X129624540Y-106611100D02*
X123219540Y-106611100D01*
X124449540Y-106611100D02*
X124449540Y-97911100D01*
X123219540Y-97911100D02*
X129624540Y-97911100D01*
X159697000Y-121752000D02*
X134297000Y-121752000D01*
X136837000Y-116672000D02*
X159697000Y-116672000D01*
X159697000Y-121752000D02*
X159697000Y-116672000D01*
X134297000Y-121752000D02*
X134297000Y-119212000D01*
X135567000Y-116392000D02*
X134017000Y-116392000D01*
X134297000Y-119212000D02*
X136837000Y-119212000D01*
X136837000Y-119212000D02*
X136837000Y-116672000D01*
X134017000Y-116392000D02*
X134017000Y-117942000D01*
X159687000Y-86702000D02*
X134287000Y-86702000D01*
X136827000Y-81622000D02*
X159687000Y-81622000D01*
X159687000Y-86702000D02*
X159687000Y-81622000D01*
X134287000Y-86702000D02*
X134287000Y-84162000D01*
X135557000Y-81342000D02*
X134007000Y-81342000D01*
X134287000Y-84162000D02*
X136827000Y-84162000D01*
X136827000Y-84162000D02*
X136827000Y-81622000D01*
X134007000Y-81342000D02*
X134007000Y-82892000D01*
X155723000Y-98806000D02*
G75*
G03X157223000Y-100306000I1500000J0D01*
G01*
X157223000Y-97306000D02*
G75*
G03X155723000Y-98806000I0J-1500000D01*
G01*
X157823000Y-100306000D02*
G75*
G03X159323000Y-98806000I0J1500000D01*
G01*
X159323000Y-98806000D02*
G75*
G03X157823000Y-97306000I-1500000J0D01*
G01*
X158023000Y-97306000D02*
X157023000Y-97306000D01*
X158023000Y-100306000D02*
X157023000Y-100306000D01*
X149829000Y-109107000D02*
X151029000Y-109107000D01*
X151029000Y-110857000D02*
X149829000Y-110857000D01*
X167186000Y-84000000D02*
G75*
G03X167186000Y-84000000I-2286000J0D01*
G01*
X131586000Y-84000000D02*
G75*
G03X131586000Y-84000000I-2286000J0D01*
G01*
X131486000Y-119600000D02*
G75*
G03X131486000Y-119600000I-2286000J0D01*
G01*
X166986000Y-119600000D02*
G75*
G03X166986000Y-119600000I-2286000J0D01*
G01*
X166610000Y-96174000D02*
X166610000Y-97374000D01*
X164860000Y-97374000D02*
X164860000Y-96174000D01*
X164612000Y-96174000D02*
X164612000Y-97374000D01*
X162862000Y-97374000D02*
X162862000Y-96174000D01*
X147193000Y-114300000D02*
X144653000Y-114300000D01*
X148612903Y-114300000D02*
G75*
G03X148612903Y-114300000I-1419903J0D01*
G01*
X166335000Y-101459000D02*
X165135000Y-101459000D01*
X165135000Y-99709000D02*
X166335000Y-99709000D01*
X150495000Y-106194000D02*
G75*
G03X151995000Y-104694000I0J1500000D01*
G01*
X148995000Y-104694000D02*
G75*
G03X150495000Y-106194000I1500000J0D01*
G01*
X151995000Y-104094000D02*
G75*
G03X150495000Y-102594000I-1500000J0D01*
G01*
X150495000Y-102594000D02*
G75*
G03X148995000Y-104094000I0J-1500000D01*
G01*
X148995000Y-103894000D02*
X148995000Y-104894000D01*
X151995000Y-103894000D02*
X151995000Y-104894000D01*
X157107000Y-96608000D02*
X158107000Y-96608000D01*
X158107000Y-94908000D02*
X157107000Y-94908000D01*
X148697000Y-105342000D02*
X148697000Y-104342000D01*
X146997000Y-104342000D02*
X146997000Y-105342000D01*
X157107000Y-94576000D02*
X158107000Y-94576000D01*
X158107000Y-92876000D02*
X157107000Y-92876000D01*
X146467000Y-105412000D02*
X146467000Y-104412000D01*
X144767000Y-104412000D02*
X144767000Y-105412000D01*
X158535000Y-112530000D02*
X158535000Y-113530000D01*
X160235000Y-113530000D02*
X160235000Y-112530000D01*
X156503000Y-112530000D02*
X156503000Y-113530000D01*
X158203000Y-113530000D02*
X158203000Y-112530000D01*
X152439000Y-111752000D02*
X152439000Y-112752000D01*
X154139000Y-112752000D02*
X154139000Y-111752000D01*
X150979000Y-111164000D02*
X149979000Y-111164000D01*
X149979000Y-112864000D02*
X150979000Y-112864000D01*
X126047000Y-107682000D02*
X129747000Y-107682000D01*
X126047000Y-109482000D02*
X129747000Y-109482000D01*
X149979000Y-100792000D02*
X148979000Y-100792000D01*
X148979000Y-102492000D02*
X149979000Y-102492000D01*
X162013000Y-99306000D02*
X162013000Y-98306000D01*
X160313000Y-98306000D02*
X160313000Y-99306000D01*
X162949000Y-109816000D02*
X163949000Y-109816000D01*
X163949000Y-108116000D02*
X162949000Y-108116000D01*
X163203000Y-103720000D02*
X164203000Y-103720000D01*
X164203000Y-102020000D02*
X163203000Y-102020000D01*
X166243000Y-104118000D02*
G75*
G03X164743000Y-105618000I0J-1500000D01*
G01*
X167743000Y-105618000D02*
G75*
G03X166243000Y-104118000I-1500000J0D01*
G01*
X164743000Y-106218000D02*
G75*
G03X166243000Y-107718000I1500000J0D01*
G01*
X166243000Y-107718000D02*
G75*
G03X167743000Y-106218000I0J1500000D01*
G01*
X167743000Y-106418000D02*
X167743000Y-105418000D01*
X164743000Y-106418000D02*
X164743000Y-105418000D01*
X161812000Y-106584000D02*
X161812000Y-105384000D01*
X163562000Y-105384000D02*
X163562000Y-106584000D01*
X167013000Y-110070000D02*
X168013000Y-110070000D01*
X168013000Y-108370000D02*
X167013000Y-108370000D01*
X149963000Y-98718000D02*
X148963000Y-98718000D01*
X148963000Y-100418000D02*
X149963000Y-100418000D01*
X151398000Y-101184000D02*
X151398000Y-99984000D01*
X153148000Y-99984000D02*
X153148000Y-101184000D01*
X163981000Y-112102000D02*
X164981000Y-112102000D01*
X164981000Y-110402000D02*
X163981000Y-110402000D01*
X155155000Y-99290000D02*
X155155000Y-98290000D01*
X153455000Y-98290000D02*
X153455000Y-99290000D01*
X160567000Y-112530000D02*
X160567000Y-113530000D01*
X162267000Y-113530000D02*
X162267000Y-112530000D01*
X168642000Y-96174000D02*
X168642000Y-97374000D01*
X166892000Y-97374000D02*
X166892000Y-96174000D01*
X151249000Y-107354000D02*
X150249000Y-107354000D01*
X150249000Y-109054000D02*
X151249000Y-109054000D01*
X154805000Y-114212000D02*
X153805000Y-114212000D01*
X153805000Y-115912000D02*
X154805000Y-115912000D01*
X156196000Y-111856000D02*
X156196000Y-113056000D01*
X154446000Y-113056000D02*
X154446000Y-111856000D01*
X145153000Y-79414000D02*
X144153000Y-79414000D01*
X144153000Y-81114000D02*
X145153000Y-81114000D01*
X148725000Y-81114000D02*
X149725000Y-81114000D01*
X149725000Y-79414000D02*
X148725000Y-79414000D01*
X164981000Y-114388000D02*
X165981000Y-114388000D01*
X165981000Y-112688000D02*
X164981000Y-112688000D01*
D16*
X156159321Y-101082324D02*
X156159321Y-102110419D01*
X156219797Y-102231371D01*
X156280273Y-102291848D01*
X156401226Y-102352324D01*
X156643130Y-102352324D01*
X156764083Y-102291848D01*
X156824559Y-102231371D01*
X156885035Y-102110419D01*
X156885035Y-101082324D01*
X157429321Y-101203276D02*
X157489797Y-101142800D01*
X157610749Y-101082324D01*
X157913130Y-101082324D01*
X158034083Y-101142800D01*
X158094559Y-101203276D01*
X158155035Y-101324229D01*
X158155035Y-101445181D01*
X158094559Y-101626610D01*
X157368845Y-102352324D01*
X158155035Y-102352324D01*
X154070232Y-101019367D02*
X154674994Y-101019367D01*
X153949279Y-101382224D02*
X154372613Y-100112224D01*
X154795946Y-101382224D01*
X155098327Y-100112224D02*
X155944993Y-101382224D01*
X155944993Y-100112224D02*
X155098327Y-101382224D01*
X156428803Y-101382224D02*
X156428803Y-100112224D01*
X156912612Y-100112224D01*
X157033565Y-100172700D01*
X157094041Y-100233176D01*
X157154517Y-100354129D01*
X157154517Y-100535557D01*
X157094041Y-100656510D01*
X157033565Y-100716986D01*
X156912612Y-100777462D01*
X156428803Y-100777462D01*
X157638327Y-100233176D02*
X157698803Y-100172700D01*
X157819755Y-100112224D01*
X158122136Y-100112224D01*
X158243089Y-100172700D01*
X158303565Y-100233176D01*
X158364041Y-100354129D01*
X158364041Y-100475081D01*
X158303565Y-100656510D01*
X157577851Y-101382224D01*
X158364041Y-101382224D01*
X159150232Y-100112224D02*
X159271184Y-100112224D01*
X159392136Y-100172700D01*
X159452613Y-100233176D01*
X159513089Y-100354129D01*
X159573565Y-100596033D01*
X159573565Y-100898414D01*
X159513089Y-101140319D01*
X159452613Y-101261271D01*
X159392136Y-101321748D01*
X159271184Y-101382224D01*
X159150232Y-101382224D01*
X159029279Y-101321748D01*
X158968803Y-101261271D01*
X158908327Y-101140319D01*
X158847851Y-100898414D01*
X158847851Y-100596033D01*
X158908327Y-100354129D01*
X158968803Y-100233176D01*
X159029279Y-100172700D01*
X159150232Y-100112224D01*
X160178327Y-101382224D02*
X160420232Y-101382224D01*
X160541184Y-101321748D01*
X160601660Y-101261271D01*
X160722613Y-101079843D01*
X160783089Y-100837938D01*
X160783089Y-100354129D01*
X160722613Y-100233176D01*
X160662137Y-100172700D01*
X160541184Y-100112224D01*
X160299280Y-100112224D01*
X160178327Y-100172700D01*
X160117851Y-100233176D01*
X160057375Y-100354129D01*
X160057375Y-100656510D01*
X160117851Y-100777462D01*
X160178327Y-100837938D01*
X160299280Y-100898414D01*
X160541184Y-100898414D01*
X160662137Y-100837938D01*
X160722613Y-100777462D01*
X160783089Y-100656510D01*
D14*
X142905494Y-97278586D02*
X142905494Y-97772072D01*
X142934522Y-97830129D01*
X142963551Y-97859158D01*
X143021608Y-97888186D01*
X143137722Y-97888186D01*
X143195780Y-97859158D01*
X143224808Y-97830129D01*
X143253837Y-97772072D01*
X143253837Y-97278586D01*
X143486066Y-97278586D02*
X143863437Y-97278586D01*
X143660237Y-97510815D01*
X143747323Y-97510815D01*
X143805380Y-97539844D01*
X143834409Y-97568872D01*
X143863437Y-97626929D01*
X143863437Y-97772072D01*
X143834409Y-97830129D01*
X143805380Y-97859158D01*
X143747323Y-97888186D01*
X143573151Y-97888186D01*
X143515094Y-97859158D01*
X143486066Y-97830129D01*
X135197589Y-97557183D02*
X135197589Y-98050669D01*
X135226617Y-98108726D01*
X135255646Y-98137755D01*
X135313703Y-98166783D01*
X135429817Y-98166783D01*
X135487875Y-98137755D01*
X135516903Y-98108726D01*
X135545932Y-98050669D01*
X135545932Y-97557183D01*
X136155532Y-98166783D02*
X135807189Y-98166783D01*
X135981361Y-98166783D02*
X135981361Y-97557183D01*
X135923304Y-97644269D01*
X135865246Y-97702326D01*
X135807189Y-97731355D01*
D15*
X137739880Y-90710793D02*
X137406546Y-90234602D01*
X137168451Y-90710793D02*
X137168451Y-89710793D01*
X137549404Y-89710793D01*
X137644642Y-89758412D01*
X137692261Y-89806031D01*
X137739880Y-89901269D01*
X137739880Y-90044126D01*
X137692261Y-90139364D01*
X137644642Y-90186983D01*
X137549404Y-90234602D01*
X137168451Y-90234602D01*
X138692261Y-90710793D02*
X138120832Y-90710793D01*
X138406546Y-90710793D02*
X138406546Y-89710793D01*
X138311308Y-89853650D01*
X138216070Y-89948888D01*
X138120832Y-89996507D01*
X137739880Y-97196793D02*
X137406546Y-96720602D01*
X137168451Y-97196793D02*
X137168451Y-96196793D01*
X137549404Y-96196793D01*
X137644642Y-96244412D01*
X137692261Y-96292031D01*
X137739880Y-96387269D01*
X137739880Y-96530126D01*
X137692261Y-96625364D01*
X137644642Y-96672983D01*
X137549404Y-96720602D01*
X137168451Y-96720602D01*
X138120832Y-96292031D02*
X138168451Y-96244412D01*
X138263689Y-96196793D01*
X138501785Y-96196793D01*
X138597023Y-96244412D01*
X138644642Y-96292031D01*
X138692261Y-96387269D01*
X138692261Y-96482507D01*
X138644642Y-96625364D01*
X138073213Y-97196793D01*
X138692261Y-97196793D01*
X145807785Y-90756496D02*
X145474451Y-90280305D01*
X145236356Y-90756496D02*
X145236356Y-89756496D01*
X145617309Y-89756496D01*
X145712547Y-89804115D01*
X145760166Y-89851734D01*
X145807785Y-89946972D01*
X145807785Y-90089829D01*
X145760166Y-90185067D01*
X145712547Y-90232686D01*
X145617309Y-90280305D01*
X145236356Y-90280305D01*
X146141118Y-89756496D02*
X146760166Y-89756496D01*
X146426832Y-90137448D01*
X146569690Y-90137448D01*
X146664928Y-90185067D01*
X146712547Y-90232686D01*
X146760166Y-90327925D01*
X146760166Y-90566020D01*
X146712547Y-90661258D01*
X146664928Y-90708877D01*
X146569690Y-90756496D01*
X146283975Y-90756496D01*
X146188737Y-90708877D01*
X146141118Y-90661258D01*
X145807785Y-96988496D02*
X145474451Y-96512305D01*
X145236356Y-96988496D02*
X145236356Y-95988496D01*
X145617309Y-95988496D01*
X145712547Y-96036115D01*
X145760166Y-96083734D01*
X145807785Y-96178972D01*
X145807785Y-96321829D01*
X145760166Y-96417067D01*
X145712547Y-96464686D01*
X145617309Y-96512305D01*
X145236356Y-96512305D01*
X146664928Y-96321829D02*
X146664928Y-96988496D01*
X146426832Y-95940877D02*
X146188737Y-96655163D01*
X146807785Y-96655163D01*
X133829880Y-96553793D02*
X133353689Y-96553793D01*
X133353689Y-95553793D01*
X134687023Y-96553793D02*
X134115594Y-96553793D01*
X134401308Y-96553793D02*
X134401308Y-95553793D01*
X134306070Y-95696650D01*
X134210832Y-95791888D01*
X134115594Y-95839507D01*
X141836785Y-96472496D02*
X141360594Y-96472496D01*
X141360594Y-95472496D01*
X142074880Y-95472496D02*
X142693928Y-95472496D01*
X142360594Y-95853448D01*
X142503452Y-95853448D01*
X142598690Y-95901067D01*
X142646309Y-95948686D01*
X142693928Y-96043925D01*
X142693928Y-96282020D01*
X142646309Y-96377258D01*
X142598690Y-96424877D01*
X142503452Y-96472496D01*
X142217737Y-96472496D01*
X142122499Y-96424877D01*
X142074880Y-96377258D01*
X135961880Y-92729555D02*
X135914261Y-92777174D01*
X135771404Y-92824793D01*
X135676166Y-92824793D01*
X135533308Y-92777174D01*
X135438070Y-92681936D01*
X135390451Y-92586698D01*
X135342832Y-92396222D01*
X135342832Y-92253364D01*
X135390451Y-92062888D01*
X135438070Y-91967650D01*
X135533308Y-91872412D01*
X135676166Y-91824793D01*
X135771404Y-91824793D01*
X135914261Y-91872412D01*
X135961880Y-91920031D01*
X136342832Y-91920031D02*
X136390451Y-91872412D01*
X136485689Y-91824793D01*
X136723785Y-91824793D01*
X136819023Y-91872412D01*
X136866642Y-91920031D01*
X136914261Y-92015269D01*
X136914261Y-92110507D01*
X136866642Y-92253364D01*
X136295213Y-92824793D01*
X136914261Y-92824793D01*
X142089785Y-92648258D02*
X142042166Y-92695877D01*
X141899309Y-92743496D01*
X141804071Y-92743496D01*
X141661213Y-92695877D01*
X141565975Y-92600639D01*
X141518356Y-92505401D01*
X141470737Y-92314925D01*
X141470737Y-92172067D01*
X141518356Y-91981591D01*
X141565975Y-91886353D01*
X141661213Y-91791115D01*
X141804071Y-91743496D01*
X141899309Y-91743496D01*
X142042166Y-91791115D01*
X142089785Y-91838734D01*
X142994547Y-91743496D02*
X142518356Y-91743496D01*
X142470737Y-92219686D01*
X142518356Y-92172067D01*
X142613594Y-92124448D01*
X142851690Y-92124448D01*
X142946928Y-92172067D01*
X142994547Y-92219686D01*
X143042166Y-92314925D01*
X143042166Y-92553020D01*
X142994547Y-92648258D01*
X142946928Y-92695877D01*
X142851690Y-92743496D01*
X142613594Y-92743496D01*
X142518356Y-92695877D01*
X142470737Y-92648258D01*
X130939381Y-103000095D02*
X129939381Y-103000095D01*
X129939381Y-102619142D01*
X129987000Y-102523904D01*
X130034619Y-102476285D01*
X130129857Y-102428666D01*
X130272714Y-102428666D01*
X130367952Y-102476285D01*
X130415571Y-102523904D01*
X130463190Y-102619142D01*
X130463190Y-103000095D01*
X130272714Y-101571523D02*
X130939381Y-101571523D01*
X129891762Y-101809619D02*
X130606048Y-102047714D01*
X130606048Y-101428666D01*
X134828905Y-113294381D02*
X134828905Y-112294381D01*
X135209858Y-112294381D01*
X135305096Y-112342000D01*
X135352715Y-112389619D01*
X135400334Y-112484857D01*
X135400334Y-112627714D01*
X135352715Y-112722952D01*
X135305096Y-112770571D01*
X135209858Y-112818190D01*
X134828905Y-112818190D01*
X136352715Y-113294381D02*
X135781286Y-113294381D01*
X136067000Y-113294381D02*
X136067000Y-112294381D01*
X135971762Y-112437238D01*
X135876524Y-112532476D01*
X135781286Y-112580095D01*
X134818905Y-78244381D02*
X134818905Y-77244381D01*
X135199858Y-77244381D01*
X135295096Y-77292000D01*
X135342715Y-77339619D01*
X135390334Y-77434857D01*
X135390334Y-77577714D01*
X135342715Y-77672952D01*
X135295096Y-77720571D01*
X135199858Y-77768190D01*
X134818905Y-77768190D01*
X135771286Y-77339619D02*
X135818905Y-77292000D01*
X135914143Y-77244381D01*
X136152239Y-77244381D01*
X136247477Y-77292000D01*
X136295096Y-77339619D01*
X136342715Y-77434857D01*
X136342715Y-77530095D01*
X136295096Y-77672952D01*
X135723667Y-78244381D01*
X136342715Y-78244381D01*
X160575381Y-99072666D02*
X160575381Y-99548857D01*
X159575381Y-99548857D01*
X159670619Y-98786952D02*
X159623000Y-98739333D01*
X159575381Y-98644095D01*
X159575381Y-98405999D01*
X159623000Y-98310761D01*
X159670619Y-98263142D01*
X159765857Y-98215523D01*
X159861095Y-98215523D01*
X160003952Y-98263142D01*
X160575381Y-98834571D01*
X160575381Y-98215523D01*
X150262334Y-112534381D02*
X149929000Y-112058190D01*
X149690905Y-112534381D02*
X149690905Y-111534381D01*
X150071858Y-111534381D01*
X150167096Y-111582000D01*
X150214715Y-111629619D01*
X150262334Y-111724857D01*
X150262334Y-111867714D01*
X150214715Y-111962952D01*
X150167096Y-112010571D01*
X150071858Y-112058190D01*
X149690905Y-112058190D01*
X151119477Y-111534381D02*
X150929000Y-111534381D01*
X150833762Y-111582000D01*
X150786143Y-111629619D01*
X150690905Y-111772476D01*
X150643286Y-111962952D01*
X150643286Y-112343905D01*
X150690905Y-112439143D01*
X150738524Y-112486762D01*
X150833762Y-112534381D01*
X151024239Y-112534381D01*
X151119477Y-112486762D01*
X151167096Y-112439143D01*
X151214715Y-112343905D01*
X151214715Y-112105810D01*
X151167096Y-112010571D01*
X151119477Y-111962952D01*
X151024239Y-111915333D01*
X150833762Y-111915333D01*
X150738524Y-111962952D01*
X150690905Y-112010571D01*
X150643286Y-112105810D01*
X163566667Y-81404381D02*
X163233333Y-80928190D01*
X162995238Y-81404381D02*
X162995238Y-80404381D01*
X163376191Y-80404381D01*
X163471429Y-80452000D01*
X163519048Y-80499619D01*
X163566667Y-80594857D01*
X163566667Y-80737714D01*
X163519048Y-80832952D01*
X163471429Y-80880571D01*
X163376191Y-80928190D01*
X162995238Y-80928190D01*
X163995238Y-80880571D02*
X164328572Y-80880571D01*
X164471429Y-81404381D02*
X163995238Y-81404381D01*
X163995238Y-80404381D01*
X164471429Y-80404381D01*
X165233334Y-80880571D02*
X164900000Y-80880571D01*
X164900000Y-81404381D02*
X164900000Y-80404381D01*
X165376191Y-80404381D01*
X165900000Y-80404381D02*
X165900000Y-80642476D01*
X165661905Y-80547238D02*
X165900000Y-80642476D01*
X166138096Y-80547238D01*
X165757143Y-80832952D02*
X165900000Y-80642476D01*
X166042858Y-80832952D01*
X166661905Y-80404381D02*
X166661905Y-80642476D01*
X166423810Y-80547238D02*
X166661905Y-80642476D01*
X166900001Y-80547238D01*
X166519048Y-80832952D02*
X166661905Y-80642476D01*
X166804763Y-80832952D01*
X127966667Y-81404381D02*
X127633333Y-80928190D01*
X127395238Y-81404381D02*
X127395238Y-80404381D01*
X127776191Y-80404381D01*
X127871429Y-80452000D01*
X127919048Y-80499619D01*
X127966667Y-80594857D01*
X127966667Y-80737714D01*
X127919048Y-80832952D01*
X127871429Y-80880571D01*
X127776191Y-80928190D01*
X127395238Y-80928190D01*
X128395238Y-80880571D02*
X128728572Y-80880571D01*
X128871429Y-81404381D02*
X128395238Y-81404381D01*
X128395238Y-80404381D01*
X128871429Y-80404381D01*
X129633334Y-80880571D02*
X129300000Y-80880571D01*
X129300000Y-81404381D02*
X129300000Y-80404381D01*
X129776191Y-80404381D01*
X130300000Y-80404381D02*
X130300000Y-80642476D01*
X130061905Y-80547238D02*
X130300000Y-80642476D01*
X130538096Y-80547238D01*
X130157143Y-80832952D02*
X130300000Y-80642476D01*
X130442858Y-80832952D01*
X131061905Y-80404381D02*
X131061905Y-80642476D01*
X130823810Y-80547238D02*
X131061905Y-80642476D01*
X131300001Y-80547238D01*
X130919048Y-80832952D02*
X131061905Y-80642476D01*
X131204763Y-80832952D01*
X127866667Y-117004381D02*
X127533333Y-116528190D01*
X127295238Y-117004381D02*
X127295238Y-116004381D01*
X127676191Y-116004381D01*
X127771429Y-116052000D01*
X127819048Y-116099619D01*
X127866667Y-116194857D01*
X127866667Y-116337714D01*
X127819048Y-116432952D01*
X127771429Y-116480571D01*
X127676191Y-116528190D01*
X127295238Y-116528190D01*
X128295238Y-116480571D02*
X128628572Y-116480571D01*
X128771429Y-117004381D02*
X128295238Y-117004381D01*
X128295238Y-116004381D01*
X128771429Y-116004381D01*
X129533334Y-116480571D02*
X129200000Y-116480571D01*
X129200000Y-117004381D02*
X129200000Y-116004381D01*
X129676191Y-116004381D01*
X130200000Y-116004381D02*
X130200000Y-116242476D01*
X129961905Y-116147238D02*
X130200000Y-116242476D01*
X130438096Y-116147238D01*
X130057143Y-116432952D02*
X130200000Y-116242476D01*
X130342858Y-116432952D01*
X130961905Y-116004381D02*
X130961905Y-116242476D01*
X130723810Y-116147238D02*
X130961905Y-116242476D01*
X131200001Y-116147238D01*
X130819048Y-116432952D02*
X130961905Y-116242476D01*
X131104763Y-116432952D01*
X163366667Y-117004381D02*
X163033333Y-116528190D01*
X162795238Y-117004381D02*
X162795238Y-116004381D01*
X163176191Y-116004381D01*
X163271429Y-116052000D01*
X163319048Y-116099619D01*
X163366667Y-116194857D01*
X163366667Y-116337714D01*
X163319048Y-116432952D01*
X163271429Y-116480571D01*
X163176191Y-116528190D01*
X162795238Y-116528190D01*
X163795238Y-116480571D02*
X164128572Y-116480571D01*
X164271429Y-117004381D02*
X163795238Y-117004381D01*
X163795238Y-116004381D01*
X164271429Y-116004381D01*
X165033334Y-116480571D02*
X164700000Y-116480571D01*
X164700000Y-117004381D02*
X164700000Y-116004381D01*
X165176191Y-116004381D01*
X165700000Y-116004381D02*
X165700000Y-116242476D01*
X165461905Y-116147238D02*
X165700000Y-116242476D01*
X165938096Y-116147238D01*
X165557143Y-116432952D02*
X165700000Y-116242476D01*
X165842858Y-116432952D01*
X166461905Y-116004381D02*
X166461905Y-116242476D01*
X166223810Y-116147238D02*
X166461905Y-116242476D01*
X166700001Y-116147238D01*
X166319048Y-116432952D02*
X166461905Y-116242476D01*
X166604763Y-116432952D01*
X164087381Y-96940666D02*
X163611190Y-97274000D01*
X164087381Y-97512095D02*
X163087381Y-97512095D01*
X163087381Y-97131142D01*
X163135000Y-97035904D01*
X163182619Y-96988285D01*
X163277857Y-96940666D01*
X163420714Y-96940666D01*
X163515952Y-96988285D01*
X163563571Y-97035904D01*
X163611190Y-97131142D01*
X163611190Y-97512095D01*
X163087381Y-96607333D02*
X163087381Y-95940666D01*
X164087381Y-96369238D01*
X162089381Y-96940666D02*
X161613190Y-97274000D01*
X162089381Y-97512095D02*
X161089381Y-97512095D01*
X161089381Y-97131142D01*
X161137000Y-97035904D01*
X161184619Y-96988285D01*
X161279857Y-96940666D01*
X161422714Y-96940666D01*
X161517952Y-96988285D01*
X161565571Y-97035904D01*
X161613190Y-97131142D01*
X161613190Y-97512095D01*
X161517952Y-96369238D02*
X161470333Y-96464476D01*
X161422714Y-96512095D01*
X161327476Y-96559714D01*
X161279857Y-96559714D01*
X161184619Y-96512095D01*
X161137000Y-96464476D01*
X161089381Y-96369238D01*
X161089381Y-96178761D01*
X161137000Y-96083523D01*
X161184619Y-96035904D01*
X161279857Y-95988285D01*
X161327476Y-95988285D01*
X161422714Y-96035904D01*
X161470333Y-96083523D01*
X161517952Y-96178761D01*
X161517952Y-96369238D01*
X161565571Y-96464476D01*
X161613190Y-96512095D01*
X161708429Y-96559714D01*
X161898905Y-96559714D01*
X161994143Y-96512095D01*
X162041762Y-96464476D01*
X162089381Y-96369238D01*
X162089381Y-96178761D01*
X162041762Y-96083523D01*
X161994143Y-96035904D01*
X161898905Y-95988285D01*
X161708429Y-95988285D01*
X161613190Y-96035904D01*
X161565571Y-96083523D01*
X161517952Y-96178761D01*
X145653286Y-111212381D02*
X146224715Y-111212381D01*
X145939000Y-112212381D02*
X145939000Y-111212381D01*
X146558048Y-112212381D02*
X146558048Y-111212381D01*
X146558048Y-111688571D02*
X147129477Y-111688571D01*
X147129477Y-112212381D02*
X147129477Y-111212381D01*
X148129477Y-112212381D02*
X147558048Y-112212381D01*
X147843762Y-112212381D02*
X147843762Y-111212381D01*
X147748524Y-111355238D01*
X147653286Y-111450476D01*
X147558048Y-111498095D01*
X165092143Y-98936381D02*
X164758809Y-98460190D01*
X164520714Y-98936381D02*
X164520714Y-97936381D01*
X164901667Y-97936381D01*
X164996905Y-97984000D01*
X165044524Y-98031619D01*
X165092143Y-98126857D01*
X165092143Y-98269714D01*
X165044524Y-98364952D01*
X164996905Y-98412571D01*
X164901667Y-98460190D01*
X164520714Y-98460190D01*
X166044524Y-98936381D02*
X165473095Y-98936381D01*
X165758809Y-98936381D02*
X165758809Y-97936381D01*
X165663571Y-98079238D01*
X165568333Y-98174476D01*
X165473095Y-98222095D01*
X166663571Y-97936381D02*
X166758810Y-97936381D01*
X166854048Y-97984000D01*
X166901667Y-98031619D01*
X166949286Y-98126857D01*
X166996905Y-98317333D01*
X166996905Y-98555429D01*
X166949286Y-98745905D01*
X166901667Y-98841143D01*
X166854048Y-98888762D01*
X166758810Y-98936381D01*
X166663571Y-98936381D01*
X166568333Y-98888762D01*
X166520714Y-98841143D01*
X166473095Y-98745905D01*
X166425476Y-98555429D01*
X166425476Y-98317333D01*
X166473095Y-98126857D01*
X166520714Y-98031619D01*
X166568333Y-97984000D01*
X166663571Y-97936381D01*
X134481286Y-112220571D02*
X134624143Y-112268190D01*
X134671762Y-112315810D01*
X134719381Y-112411048D01*
X134719381Y-112553905D01*
X134671762Y-112649143D01*
X134624143Y-112696762D01*
X134528905Y-112744381D01*
X134147952Y-112744381D01*
X134147952Y-111744381D01*
X134481286Y-111744381D01*
X134576524Y-111792000D01*
X134624143Y-111839619D01*
X134671762Y-111934857D01*
X134671762Y-112030095D01*
X134624143Y-112125333D01*
X134576524Y-112172952D01*
X134481286Y-112220571D01*
X134147952Y-112220571D01*
X135005095Y-111744381D02*
X135576524Y-111744381D01*
X135290809Y-112744381D02*
X135290809Y-111744381D01*
X136433667Y-112744381D02*
X135862238Y-112744381D01*
X136147952Y-112744381D02*
X136147952Y-111744381D01*
X136052714Y-111887238D01*
X135957476Y-111982476D01*
X135862238Y-112030095D01*
X134636048Y-115113429D02*
X135397953Y-115113429D01*
X136636048Y-115113429D02*
X137397953Y-115113429D01*
X137017001Y-115494381D02*
X137017001Y-114732476D01*
X150428334Y-102246381D02*
X149952143Y-102246381D01*
X149952143Y-101246381D01*
X151190239Y-101579714D02*
X151190239Y-102246381D01*
X150952143Y-101198762D02*
X150714048Y-101913048D01*
X151333096Y-101913048D01*
X157440334Y-98215143D02*
X157392715Y-98262762D01*
X157249858Y-98310381D01*
X157154620Y-98310381D01*
X157011762Y-98262762D01*
X156916524Y-98167524D01*
X156868905Y-98072286D01*
X156821286Y-97881810D01*
X156821286Y-97738952D01*
X156868905Y-97548476D01*
X156916524Y-97453238D01*
X157011762Y-97358000D01*
X157154620Y-97310381D01*
X157249858Y-97310381D01*
X157392715Y-97358000D01*
X157440334Y-97405619D01*
X158392715Y-98310381D02*
X157821286Y-98310381D01*
X158107000Y-98310381D02*
X158107000Y-97310381D01*
X158011762Y-97453238D01*
X157916524Y-97548476D01*
X157821286Y-97596095D01*
X150304143Y-105008666D02*
X150351762Y-105056285D01*
X150399381Y-105199142D01*
X150399381Y-105294380D01*
X150351762Y-105437238D01*
X150256524Y-105532476D01*
X150161286Y-105580095D01*
X149970810Y-105627714D01*
X149827952Y-105627714D01*
X149637476Y-105580095D01*
X149542238Y-105532476D01*
X149447000Y-105437238D01*
X149399381Y-105294380D01*
X149399381Y-105199142D01*
X149447000Y-105056285D01*
X149494619Y-105008666D01*
X149399381Y-104675333D02*
X149399381Y-104056285D01*
X149780333Y-104389619D01*
X149780333Y-104246761D01*
X149827952Y-104151523D01*
X149875571Y-104103904D01*
X149970810Y-104056285D01*
X150208905Y-104056285D01*
X150304143Y-104103904D01*
X150351762Y-104151523D01*
X150399381Y-104246761D01*
X150399381Y-104532476D01*
X150351762Y-104627714D01*
X150304143Y-104675333D01*
X157440334Y-96183143D02*
X157392715Y-96230762D01*
X157249858Y-96278381D01*
X157154620Y-96278381D01*
X157011762Y-96230762D01*
X156916524Y-96135524D01*
X156868905Y-96040286D01*
X156821286Y-95849810D01*
X156821286Y-95706952D01*
X156868905Y-95516476D01*
X156916524Y-95421238D01*
X157011762Y-95326000D01*
X157154620Y-95278381D01*
X157249858Y-95278381D01*
X157392715Y-95326000D01*
X157440334Y-95373619D01*
X158297477Y-95611714D02*
X158297477Y-96278381D01*
X158059381Y-95230762D02*
X157821286Y-95945048D01*
X158440334Y-95945048D01*
X148074143Y-105078666D02*
X148121762Y-105126285D01*
X148169381Y-105269142D01*
X148169381Y-105364380D01*
X148121762Y-105507238D01*
X148026524Y-105602476D01*
X147931286Y-105650095D01*
X147740810Y-105697714D01*
X147597952Y-105697714D01*
X147407476Y-105650095D01*
X147312238Y-105602476D01*
X147217000Y-105507238D01*
X147169381Y-105364380D01*
X147169381Y-105269142D01*
X147217000Y-105126285D01*
X147264619Y-105078666D01*
X147169381Y-104221523D02*
X147169381Y-104412000D01*
X147217000Y-104507238D01*
X147264619Y-104554857D01*
X147407476Y-104650095D01*
X147597952Y-104697714D01*
X147978905Y-104697714D01*
X148074143Y-104650095D01*
X148121762Y-104602476D01*
X148169381Y-104507238D01*
X148169381Y-104316761D01*
X148121762Y-104221523D01*
X148074143Y-104173904D01*
X147978905Y-104126285D01*
X147740810Y-104126285D01*
X147645571Y-104173904D01*
X147597952Y-104221523D01*
X147550333Y-104316761D01*
X147550333Y-104507238D01*
X147597952Y-104602476D01*
X147645571Y-104650095D01*
X147740810Y-104697714D01*
X157642143Y-113672857D02*
X157689762Y-113720476D01*
X157737381Y-113863333D01*
X157737381Y-113958571D01*
X157689762Y-114101429D01*
X157594524Y-114196667D01*
X157499286Y-114244286D01*
X157308810Y-114291905D01*
X157165952Y-114291905D01*
X156975476Y-114244286D01*
X156880238Y-114196667D01*
X156785000Y-114101429D01*
X156737381Y-113958571D01*
X156737381Y-113863333D01*
X156785000Y-113720476D01*
X156832619Y-113672857D01*
X157737381Y-112720476D02*
X157737381Y-113291905D01*
X157737381Y-113006191D02*
X156737381Y-113006191D01*
X156880238Y-113101429D01*
X156975476Y-113196667D01*
X157023095Y-113291905D01*
X156737381Y-112387143D02*
X156737381Y-111768095D01*
X157118333Y-112101429D01*
X157118333Y-111958571D01*
X157165952Y-111863333D01*
X157213571Y-111815714D01*
X157308810Y-111768095D01*
X157546905Y-111768095D01*
X157642143Y-111815714D01*
X157689762Y-111863333D01*
X157737381Y-111958571D01*
X157737381Y-112244286D01*
X157689762Y-112339524D01*
X157642143Y-112387143D01*
X155610143Y-113672857D02*
X155657762Y-113720476D01*
X155705381Y-113863333D01*
X155705381Y-113958571D01*
X155657762Y-114101429D01*
X155562524Y-114196667D01*
X155467286Y-114244286D01*
X155276810Y-114291905D01*
X155133952Y-114291905D01*
X154943476Y-114244286D01*
X154848238Y-114196667D01*
X154753000Y-114101429D01*
X154705381Y-113958571D01*
X154705381Y-113863333D01*
X154753000Y-113720476D01*
X154800619Y-113672857D01*
X155705381Y-112720476D02*
X155705381Y-113291905D01*
X155705381Y-113006191D02*
X154705381Y-113006191D01*
X154848238Y-113101429D01*
X154943476Y-113196667D01*
X154991095Y-113291905D01*
X155038714Y-111863333D02*
X155705381Y-111863333D01*
X154657762Y-112101429D02*
X155372048Y-112339524D01*
X155372048Y-111720476D01*
X151546143Y-112894857D02*
X151593762Y-112942476D01*
X151641381Y-113085333D01*
X151641381Y-113180571D01*
X151593762Y-113323429D01*
X151498524Y-113418667D01*
X151403286Y-113466286D01*
X151212810Y-113513905D01*
X151069952Y-113513905D01*
X150879476Y-113466286D01*
X150784238Y-113418667D01*
X150689000Y-113323429D01*
X150641381Y-113180571D01*
X150641381Y-113085333D01*
X150689000Y-112942476D01*
X150736619Y-112894857D01*
X151641381Y-111942476D02*
X151641381Y-112513905D01*
X151641381Y-112228191D02*
X150641381Y-112228191D01*
X150784238Y-112323429D01*
X150879476Y-112418667D01*
X150927095Y-112513905D01*
X150641381Y-111037714D02*
X150641381Y-111513905D01*
X151117571Y-111561524D01*
X151069952Y-111513905D01*
X151022333Y-111418667D01*
X151022333Y-111180571D01*
X151069952Y-111085333D01*
X151117571Y-111037714D01*
X151212810Y-110990095D01*
X151450905Y-110990095D01*
X151546143Y-111037714D01*
X151593762Y-111085333D01*
X151641381Y-111180571D01*
X151641381Y-111418667D01*
X151593762Y-111513905D01*
X151546143Y-111561524D01*
X149836143Y-110271143D02*
X149788524Y-110318762D01*
X149645667Y-110366381D01*
X149550429Y-110366381D01*
X149407571Y-110318762D01*
X149312333Y-110223524D01*
X149264714Y-110128286D01*
X149217095Y-109937810D01*
X149217095Y-109794952D01*
X149264714Y-109604476D01*
X149312333Y-109509238D01*
X149407571Y-109414000D01*
X149550429Y-109366381D01*
X149645667Y-109366381D01*
X149788524Y-109414000D01*
X149836143Y-109461619D01*
X150788524Y-110366381D02*
X150217095Y-110366381D01*
X150502809Y-110366381D02*
X150502809Y-109366381D01*
X150407571Y-109509238D01*
X150312333Y-109604476D01*
X150217095Y-109652095D01*
X151645667Y-109366381D02*
X151455190Y-109366381D01*
X151359952Y-109414000D01*
X151312333Y-109461619D01*
X151217095Y-109604476D01*
X151169476Y-109794952D01*
X151169476Y-110175905D01*
X151217095Y-110271143D01*
X151264714Y-110318762D01*
X151359952Y-110366381D01*
X151550429Y-110366381D01*
X151645667Y-110318762D01*
X151693286Y-110271143D01*
X151740905Y-110175905D01*
X151740905Y-109937810D01*
X151693286Y-109842571D01*
X151645667Y-109794952D01*
X151550429Y-109747333D01*
X151359952Y-109747333D01*
X151264714Y-109794952D01*
X151217095Y-109842571D01*
X151169476Y-109937810D01*
X127004143Y-110839143D02*
X126956524Y-110886762D01*
X126813667Y-110934381D01*
X126718429Y-110934381D01*
X126575571Y-110886762D01*
X126480333Y-110791524D01*
X126432714Y-110696286D01*
X126385095Y-110505810D01*
X126385095Y-110362952D01*
X126432714Y-110172476D01*
X126480333Y-110077238D01*
X126575571Y-109982000D01*
X126718429Y-109934381D01*
X126813667Y-109934381D01*
X126956524Y-109982000D01*
X127004143Y-110029619D01*
X127956524Y-110934381D02*
X127385095Y-110934381D01*
X127670809Y-110934381D02*
X127670809Y-109934381D01*
X127575571Y-110077238D01*
X127480333Y-110172476D01*
X127385095Y-110220095D01*
X128337476Y-110029619D02*
X128385095Y-109982000D01*
X128480333Y-109934381D01*
X128718429Y-109934381D01*
X128813667Y-109982000D01*
X128861286Y-110029619D01*
X128908905Y-110124857D01*
X128908905Y-110220095D01*
X128861286Y-110362952D01*
X128289857Y-110934381D01*
X128908905Y-110934381D01*
X148836143Y-99899143D02*
X148788524Y-99946762D01*
X148645667Y-99994381D01*
X148550429Y-99994381D01*
X148407571Y-99946762D01*
X148312333Y-99851524D01*
X148264714Y-99756286D01*
X148217095Y-99565810D01*
X148217095Y-99422952D01*
X148264714Y-99232476D01*
X148312333Y-99137238D01*
X148407571Y-99042000D01*
X148550429Y-98994381D01*
X148645667Y-98994381D01*
X148788524Y-99042000D01*
X148836143Y-99089619D01*
X149788524Y-99994381D02*
X149217095Y-99994381D01*
X149502809Y-99994381D02*
X149502809Y-98994381D01*
X149407571Y-99137238D01*
X149312333Y-99232476D01*
X149217095Y-99280095D01*
X150407571Y-98994381D02*
X150502810Y-98994381D01*
X150598048Y-99042000D01*
X150645667Y-99089619D01*
X150693286Y-99184857D01*
X150740905Y-99375333D01*
X150740905Y-99613429D01*
X150693286Y-99803905D01*
X150645667Y-99899143D01*
X150598048Y-99946762D01*
X150502810Y-99994381D01*
X150407571Y-99994381D01*
X150312333Y-99946762D01*
X150264714Y-99899143D01*
X150217095Y-99803905D01*
X150169476Y-99613429D01*
X150169476Y-99375333D01*
X150217095Y-99184857D01*
X150264714Y-99089619D01*
X150312333Y-99042000D01*
X150407571Y-98994381D01*
X163620143Y-99448857D02*
X163667762Y-99496476D01*
X163715381Y-99639333D01*
X163715381Y-99734571D01*
X163667762Y-99877429D01*
X163572524Y-99972667D01*
X163477286Y-100020286D01*
X163286810Y-100067905D01*
X163143952Y-100067905D01*
X162953476Y-100020286D01*
X162858238Y-99972667D01*
X162763000Y-99877429D01*
X162715381Y-99734571D01*
X162715381Y-99639333D01*
X162763000Y-99496476D01*
X162810619Y-99448857D01*
X163715381Y-98496476D02*
X163715381Y-99067905D01*
X163715381Y-98782191D02*
X162715381Y-98782191D01*
X162858238Y-98877429D01*
X162953476Y-98972667D01*
X163001095Y-99067905D01*
X163715381Y-97544095D02*
X163715381Y-98115524D01*
X163715381Y-97829810D02*
X162715381Y-97829810D01*
X162858238Y-97925048D01*
X162953476Y-98020286D01*
X163001095Y-98115524D01*
X162806143Y-111423143D02*
X162758524Y-111470762D01*
X162615667Y-111518381D01*
X162520429Y-111518381D01*
X162377571Y-111470762D01*
X162282333Y-111375524D01*
X162234714Y-111280286D01*
X162187095Y-111089810D01*
X162187095Y-110946952D01*
X162234714Y-110756476D01*
X162282333Y-110661238D01*
X162377571Y-110566000D01*
X162520429Y-110518381D01*
X162615667Y-110518381D01*
X162758524Y-110566000D01*
X162806143Y-110613619D01*
X163758524Y-111518381D02*
X163187095Y-111518381D01*
X163472809Y-111518381D02*
X163472809Y-110518381D01*
X163377571Y-110661238D01*
X163282333Y-110756476D01*
X163187095Y-110804095D01*
X164091857Y-110518381D02*
X164758524Y-110518381D01*
X164329952Y-111518381D01*
X163060143Y-105327143D02*
X163012524Y-105374762D01*
X162869667Y-105422381D01*
X162774429Y-105422381D01*
X162631571Y-105374762D01*
X162536333Y-105279524D01*
X162488714Y-105184286D01*
X162441095Y-104993810D01*
X162441095Y-104850952D01*
X162488714Y-104660476D01*
X162536333Y-104565238D01*
X162631571Y-104470000D01*
X162774429Y-104422381D01*
X162869667Y-104422381D01*
X163012524Y-104470000D01*
X163060143Y-104517619D01*
X164012524Y-105422381D02*
X163441095Y-105422381D01*
X163726809Y-105422381D02*
X163726809Y-104422381D01*
X163631571Y-104565238D01*
X163536333Y-104660476D01*
X163441095Y-104708095D01*
X164583952Y-104850952D02*
X164488714Y-104803333D01*
X164441095Y-104755714D01*
X164393476Y-104660476D01*
X164393476Y-104612857D01*
X164441095Y-104517619D01*
X164488714Y-104470000D01*
X164583952Y-104422381D01*
X164774429Y-104422381D01*
X164869667Y-104470000D01*
X164917286Y-104517619D01*
X164964905Y-104612857D01*
X164964905Y-104660476D01*
X164917286Y-104755714D01*
X164869667Y-104803333D01*
X164774429Y-104850952D01*
X164583952Y-104850952D01*
X164488714Y-104898571D01*
X164441095Y-104946190D01*
X164393476Y-105041429D01*
X164393476Y-105231905D01*
X164441095Y-105327143D01*
X164488714Y-105374762D01*
X164583952Y-105422381D01*
X164774429Y-105422381D01*
X164869667Y-105374762D01*
X164917286Y-105327143D01*
X164964905Y-105231905D01*
X164964905Y-105041429D01*
X164917286Y-104946190D01*
X164869667Y-104898571D01*
X164774429Y-104850952D01*
X165976334Y-108970381D02*
X165500143Y-108970381D01*
X165500143Y-107970381D01*
X166785858Y-107970381D02*
X166309667Y-107970381D01*
X166262048Y-108446571D01*
X166309667Y-108398952D01*
X166404905Y-108351333D01*
X166643001Y-108351333D01*
X166738239Y-108398952D01*
X166785858Y-108446571D01*
X166833477Y-108541810D01*
X166833477Y-108779905D01*
X166785858Y-108875143D01*
X166738239Y-108922762D01*
X166643001Y-108970381D01*
X166404905Y-108970381D01*
X166309667Y-108922762D01*
X166262048Y-108875143D01*
X165239381Y-106150666D02*
X164763190Y-106484000D01*
X165239381Y-106722095D02*
X164239381Y-106722095D01*
X164239381Y-106341142D01*
X164287000Y-106245904D01*
X164334619Y-106198285D01*
X164429857Y-106150666D01*
X164572714Y-106150666D01*
X164667952Y-106198285D01*
X164715571Y-106245904D01*
X164763190Y-106341142D01*
X164763190Y-106722095D01*
X164239381Y-105245904D02*
X164239381Y-105722095D01*
X164715571Y-105769714D01*
X164667952Y-105722095D01*
X164620333Y-105626857D01*
X164620333Y-105388761D01*
X164667952Y-105293523D01*
X164715571Y-105245904D01*
X164810810Y-105198285D01*
X165048905Y-105198285D01*
X165144143Y-105245904D01*
X165191762Y-105293523D01*
X165239381Y-105388761D01*
X165239381Y-105626857D01*
X165191762Y-105722095D01*
X165144143Y-105769714D01*
X166870143Y-111677143D02*
X166822524Y-111724762D01*
X166679667Y-111772381D01*
X166584429Y-111772381D01*
X166441571Y-111724762D01*
X166346333Y-111629524D01*
X166298714Y-111534286D01*
X166251095Y-111343810D01*
X166251095Y-111200952D01*
X166298714Y-111010476D01*
X166346333Y-110915238D01*
X166441571Y-110820000D01*
X166584429Y-110772381D01*
X166679667Y-110772381D01*
X166822524Y-110820000D01*
X166870143Y-110867619D01*
X167822524Y-111772381D02*
X167251095Y-111772381D01*
X167536809Y-111772381D02*
X167536809Y-110772381D01*
X167441571Y-110915238D01*
X167346333Y-111010476D01*
X167251095Y-111058095D01*
X168298714Y-111772381D02*
X168489190Y-111772381D01*
X168584429Y-111724762D01*
X168632048Y-111677143D01*
X168727286Y-111534286D01*
X168774905Y-111343810D01*
X168774905Y-110962857D01*
X168727286Y-110867619D01*
X168679667Y-110820000D01*
X168584429Y-110772381D01*
X168393952Y-110772381D01*
X168298714Y-110820000D01*
X168251095Y-110867619D01*
X168203476Y-110962857D01*
X168203476Y-111200952D01*
X168251095Y-111296190D01*
X168298714Y-111343810D01*
X168393952Y-111391429D01*
X168584429Y-111391429D01*
X168679667Y-111343810D01*
X168727286Y-111296190D01*
X168774905Y-111200952D01*
X148820143Y-97825143D02*
X148772524Y-97872762D01*
X148629667Y-97920381D01*
X148534429Y-97920381D01*
X148391571Y-97872762D01*
X148296333Y-97777524D01*
X148248714Y-97682286D01*
X148201095Y-97491810D01*
X148201095Y-97348952D01*
X148248714Y-97158476D01*
X148296333Y-97063238D01*
X148391571Y-96968000D01*
X148534429Y-96920381D01*
X148629667Y-96920381D01*
X148772524Y-96968000D01*
X148820143Y-97015619D01*
X149201095Y-97015619D02*
X149248714Y-96968000D01*
X149343952Y-96920381D01*
X149582048Y-96920381D01*
X149677286Y-96968000D01*
X149724905Y-97015619D01*
X149772524Y-97110857D01*
X149772524Y-97206095D01*
X149724905Y-97348952D01*
X149153476Y-97920381D01*
X149772524Y-97920381D01*
X150391571Y-96920381D02*
X150486810Y-96920381D01*
X150582048Y-96968000D01*
X150629667Y-97015619D01*
X150677286Y-97110857D01*
X150724905Y-97301333D01*
X150724905Y-97539429D01*
X150677286Y-97729905D01*
X150629667Y-97825143D01*
X150582048Y-97872762D01*
X150486810Y-97920381D01*
X150391571Y-97920381D01*
X150296333Y-97872762D01*
X150248714Y-97825143D01*
X150201095Y-97729905D01*
X150153476Y-97539429D01*
X150153476Y-97301333D01*
X150201095Y-97110857D01*
X150248714Y-97015619D01*
X150296333Y-96968000D01*
X150391571Y-96920381D01*
X154825381Y-100750666D02*
X154349190Y-101084000D01*
X154825381Y-101322095D02*
X153825381Y-101322095D01*
X153825381Y-100941142D01*
X153873000Y-100845904D01*
X153920619Y-100798285D01*
X154015857Y-100750666D01*
X154158714Y-100750666D01*
X154253952Y-100798285D01*
X154301571Y-100845904D01*
X154349190Y-100941142D01*
X154349190Y-101322095D01*
X154825381Y-100274476D02*
X154825381Y-100084000D01*
X154777762Y-99988761D01*
X154730143Y-99941142D01*
X154587286Y-99845904D01*
X154396810Y-99798285D01*
X154015857Y-99798285D01*
X153920619Y-99845904D01*
X153873000Y-99893523D01*
X153825381Y-99988761D01*
X153825381Y-100179238D01*
X153873000Y-100274476D01*
X153920619Y-100322095D01*
X154015857Y-100369714D01*
X154253952Y-100369714D01*
X154349190Y-100322095D01*
X154396810Y-100274476D01*
X154444429Y-100179238D01*
X154444429Y-99988761D01*
X154396810Y-99893523D01*
X154349190Y-99845904D01*
X154253952Y-99798285D01*
X163838143Y-113709143D02*
X163790524Y-113756762D01*
X163647667Y-113804381D01*
X163552429Y-113804381D01*
X163409571Y-113756762D01*
X163314333Y-113661524D01*
X163266714Y-113566286D01*
X163219095Y-113375810D01*
X163219095Y-113232952D01*
X163266714Y-113042476D01*
X163314333Y-112947238D01*
X163409571Y-112852000D01*
X163552429Y-112804381D01*
X163647667Y-112804381D01*
X163790524Y-112852000D01*
X163838143Y-112899619D01*
X164219095Y-112899619D02*
X164266714Y-112852000D01*
X164361952Y-112804381D01*
X164600048Y-112804381D01*
X164695286Y-112852000D01*
X164742905Y-112899619D01*
X164790524Y-112994857D01*
X164790524Y-113090095D01*
X164742905Y-113232952D01*
X164171476Y-113804381D01*
X164790524Y-113804381D01*
X165742905Y-113804381D02*
X165171476Y-113804381D01*
X165457190Y-113804381D02*
X165457190Y-112804381D01*
X165361952Y-112947238D01*
X165266714Y-113042476D01*
X165171476Y-113090095D01*
X156762143Y-99432857D02*
X156809762Y-99480476D01*
X156857381Y-99623333D01*
X156857381Y-99718571D01*
X156809762Y-99861429D01*
X156714524Y-99956667D01*
X156619286Y-100004286D01*
X156428810Y-100051905D01*
X156285952Y-100051905D01*
X156095476Y-100004286D01*
X156000238Y-99956667D01*
X155905000Y-99861429D01*
X155857381Y-99718571D01*
X155857381Y-99623333D01*
X155905000Y-99480476D01*
X155952619Y-99432857D01*
X155952619Y-99051905D02*
X155905000Y-99004286D01*
X155857381Y-98909048D01*
X155857381Y-98670952D01*
X155905000Y-98575714D01*
X155952619Y-98528095D01*
X156047857Y-98480476D01*
X156143095Y-98480476D01*
X156285952Y-98528095D01*
X156857381Y-99099524D01*
X156857381Y-98480476D01*
X155952619Y-98099524D02*
X155905000Y-98051905D01*
X155857381Y-97956667D01*
X155857381Y-97718571D01*
X155905000Y-97623333D01*
X155952619Y-97575714D01*
X156047857Y-97528095D01*
X156143095Y-97528095D01*
X156285952Y-97575714D01*
X156857381Y-98147143D01*
X156857381Y-97528095D01*
X159674143Y-113672857D02*
X159721762Y-113720476D01*
X159769381Y-113863333D01*
X159769381Y-113958571D01*
X159721762Y-114101429D01*
X159626524Y-114196667D01*
X159531286Y-114244286D01*
X159340810Y-114291905D01*
X159197952Y-114291905D01*
X159007476Y-114244286D01*
X158912238Y-114196667D01*
X158817000Y-114101429D01*
X158769381Y-113958571D01*
X158769381Y-113863333D01*
X158817000Y-113720476D01*
X158864619Y-113672857D01*
X158864619Y-113291905D02*
X158817000Y-113244286D01*
X158769381Y-113149048D01*
X158769381Y-112910952D01*
X158817000Y-112815714D01*
X158864619Y-112768095D01*
X158959857Y-112720476D01*
X159055095Y-112720476D01*
X159197952Y-112768095D01*
X159769381Y-113339524D01*
X159769381Y-112720476D01*
X158769381Y-112387143D02*
X158769381Y-111768095D01*
X159150333Y-112101429D01*
X159150333Y-111958571D01*
X159197952Y-111863333D01*
X159245571Y-111815714D01*
X159340810Y-111768095D01*
X159578905Y-111768095D01*
X159674143Y-111815714D01*
X159721762Y-111863333D01*
X159769381Y-111958571D01*
X159769381Y-112244286D01*
X159721762Y-112339524D01*
X159674143Y-112387143D01*
X166119381Y-97416857D02*
X165643190Y-97750191D01*
X166119381Y-97988286D02*
X165119381Y-97988286D01*
X165119381Y-97607333D01*
X165167000Y-97512095D01*
X165214619Y-97464476D01*
X165309857Y-97416857D01*
X165452714Y-97416857D01*
X165547952Y-97464476D01*
X165595571Y-97512095D01*
X165643190Y-97607333D01*
X165643190Y-97988286D01*
X166119381Y-96464476D02*
X166119381Y-97035905D01*
X166119381Y-96750191D02*
X165119381Y-96750191D01*
X165262238Y-96845429D01*
X165357476Y-96940667D01*
X165405095Y-97035905D01*
X166119381Y-95512095D02*
X166119381Y-96083524D01*
X166119381Y-95797810D02*
X165119381Y-95797810D01*
X165262238Y-95893048D01*
X165357476Y-95988286D01*
X165405095Y-96083524D01*
X150106143Y-106461143D02*
X150058524Y-106508762D01*
X149915667Y-106556381D01*
X149820429Y-106556381D01*
X149677571Y-106508762D01*
X149582333Y-106413524D01*
X149534714Y-106318286D01*
X149487095Y-106127810D01*
X149487095Y-105984952D01*
X149534714Y-105794476D01*
X149582333Y-105699238D01*
X149677571Y-105604000D01*
X149820429Y-105556381D01*
X149915667Y-105556381D01*
X150058524Y-105604000D01*
X150106143Y-105651619D01*
X150487095Y-105651619D02*
X150534714Y-105604000D01*
X150629952Y-105556381D01*
X150868048Y-105556381D01*
X150963286Y-105604000D01*
X151010905Y-105651619D01*
X151058524Y-105746857D01*
X151058524Y-105842095D01*
X151010905Y-105984952D01*
X150439476Y-106556381D01*
X151058524Y-106556381D01*
X151915667Y-105889714D02*
X151915667Y-106556381D01*
X151677571Y-105508762D02*
X151439476Y-106223048D01*
X152058524Y-106223048D01*
X153662143Y-113319143D02*
X153614524Y-113366762D01*
X153471667Y-113414381D01*
X153376429Y-113414381D01*
X153233571Y-113366762D01*
X153138333Y-113271524D01*
X153090714Y-113176286D01*
X153043095Y-112985810D01*
X153043095Y-112842952D01*
X153090714Y-112652476D01*
X153138333Y-112557238D01*
X153233571Y-112462000D01*
X153376429Y-112414381D01*
X153471667Y-112414381D01*
X153614524Y-112462000D01*
X153662143Y-112509619D01*
X154043095Y-112509619D02*
X154090714Y-112462000D01*
X154185952Y-112414381D01*
X154424048Y-112414381D01*
X154519286Y-112462000D01*
X154566905Y-112509619D01*
X154614524Y-112604857D01*
X154614524Y-112700095D01*
X154566905Y-112842952D01*
X153995476Y-113414381D01*
X154614524Y-113414381D01*
X155519286Y-112414381D02*
X155043095Y-112414381D01*
X154995476Y-112890571D01*
X155043095Y-112842952D01*
X155138333Y-112795333D01*
X155376429Y-112795333D01*
X155471667Y-112842952D01*
X155519286Y-112890571D01*
X155566905Y-112985810D01*
X155566905Y-113223905D01*
X155519286Y-113319143D01*
X155471667Y-113366762D01*
X155376429Y-113414381D01*
X155138333Y-113414381D01*
X155043095Y-113366762D01*
X154995476Y-113319143D01*
X153673381Y-113098857D02*
X153197190Y-113432191D01*
X153673381Y-113670286D02*
X152673381Y-113670286D01*
X152673381Y-113289333D01*
X152721000Y-113194095D01*
X152768619Y-113146476D01*
X152863857Y-113098857D01*
X153006714Y-113098857D01*
X153101952Y-113146476D01*
X153149571Y-113194095D01*
X153197190Y-113289333D01*
X153197190Y-113670286D01*
X153673381Y-112146476D02*
X153673381Y-112717905D01*
X153673381Y-112432191D02*
X152673381Y-112432191D01*
X152816238Y-112527429D01*
X152911476Y-112622667D01*
X152959095Y-112717905D01*
X152768619Y-111765524D02*
X152721000Y-111717905D01*
X152673381Y-111622667D01*
X152673381Y-111384571D01*
X152721000Y-111289333D01*
X152768619Y-111241714D01*
X152863857Y-111194095D01*
X152959095Y-111194095D01*
X153101952Y-111241714D01*
X153673381Y-111813143D01*
X153673381Y-111194095D01*
X144486334Y-78521143D02*
X144438715Y-78568762D01*
X144295858Y-78616381D01*
X144200620Y-78616381D01*
X144057762Y-78568762D01*
X143962524Y-78473524D01*
X143914905Y-78378286D01*
X143867286Y-78187810D01*
X143867286Y-78044952D01*
X143914905Y-77854476D01*
X143962524Y-77759238D01*
X144057762Y-77664000D01*
X144200620Y-77616381D01*
X144295858Y-77616381D01*
X144438715Y-77664000D01*
X144486334Y-77711619D01*
X144819667Y-77616381D02*
X145486334Y-77616381D01*
X145057762Y-78616381D01*
X149058334Y-82721143D02*
X149010715Y-82768762D01*
X148867858Y-82816381D01*
X148772620Y-82816381D01*
X148629762Y-82768762D01*
X148534524Y-82673524D01*
X148486905Y-82578286D01*
X148439286Y-82387810D01*
X148439286Y-82244952D01*
X148486905Y-82054476D01*
X148534524Y-81959238D01*
X148629762Y-81864000D01*
X148772620Y-81816381D01*
X148867858Y-81816381D01*
X149010715Y-81864000D01*
X149058334Y-81911619D01*
X149534524Y-82816381D02*
X149725000Y-82816381D01*
X149820239Y-82768762D01*
X149867858Y-82721143D01*
X149963096Y-82578286D01*
X150010715Y-82387810D01*
X150010715Y-82006857D01*
X149963096Y-81911619D01*
X149915477Y-81864000D01*
X149820239Y-81816381D01*
X149629762Y-81816381D01*
X149534524Y-81864000D01*
X149486905Y-81911619D01*
X149439286Y-82006857D01*
X149439286Y-82244952D01*
X149486905Y-82340190D01*
X149534524Y-82387810D01*
X149629762Y-82435429D01*
X149820239Y-82435429D01*
X149915477Y-82387810D01*
X149963096Y-82340190D01*
X150010715Y-82244952D01*
X164838143Y-115995143D02*
X164790524Y-116042762D01*
X164647667Y-116090381D01*
X164552429Y-116090381D01*
X164409571Y-116042762D01*
X164314333Y-115947524D01*
X164266714Y-115852286D01*
X164219095Y-115661810D01*
X164219095Y-115518952D01*
X164266714Y-115328476D01*
X164314333Y-115233238D01*
X164409571Y-115138000D01*
X164552429Y-115090381D01*
X164647667Y-115090381D01*
X164790524Y-115138000D01*
X164838143Y-115185619D01*
X165219095Y-115185619D02*
X165266714Y-115138000D01*
X165361952Y-115090381D01*
X165600048Y-115090381D01*
X165695286Y-115138000D01*
X165742905Y-115185619D01*
X165790524Y-115280857D01*
X165790524Y-115376095D01*
X165742905Y-115518952D01*
X165171476Y-116090381D01*
X165790524Y-116090381D01*
X166647667Y-115090381D02*
X166457190Y-115090381D01*
X166361952Y-115138000D01*
X166314333Y-115185619D01*
X166219095Y-115328476D01*
X166171476Y-115518952D01*
X166171476Y-115899905D01*
X166219095Y-115995143D01*
X166266714Y-116042762D01*
X166361952Y-116090381D01*
X166552429Y-116090381D01*
X166647667Y-116042762D01*
X166695286Y-115995143D01*
X166742905Y-115899905D01*
X166742905Y-115661810D01*
X166695286Y-115566571D01*
X166647667Y-115518952D01*
X166552429Y-115471333D01*
X166361952Y-115471333D01*
X166266714Y-115518952D01*
X166219095Y-115566571D01*
X166171476Y-115661810D01*
X161782238Y-90638381D02*
X162020333Y-91638381D01*
X162210810Y-90924095D01*
X162401286Y-91638381D01*
X162639381Y-90638381D01*
X163544143Y-91638381D02*
X162972714Y-91638381D01*
X163258428Y-91638381D02*
X163258428Y-90638381D01*
X163163190Y-90781238D01*
X163067952Y-90876476D01*
X162972714Y-90924095D01*
X158734238Y-88606381D02*
X158972333Y-89606381D01*
X159162810Y-88892095D01*
X159353286Y-89606381D01*
X159591381Y-88606381D01*
X159924714Y-88701619D02*
X159972333Y-88654000D01*
X160067571Y-88606381D01*
X160305667Y-88606381D01*
X160400905Y-88654000D01*
X160448524Y-88701619D01*
X160496143Y-88796857D01*
X160496143Y-88892095D01*
X160448524Y-89034952D01*
X159877095Y-89606381D01*
X160496143Y-89606381D01*
X146796238Y-104862381D02*
X147034333Y-105862381D01*
X147224810Y-105148095D01*
X147415286Y-105862381D01*
X147653381Y-104862381D01*
X147939095Y-104862381D02*
X148558143Y-104862381D01*
X148224809Y-105243333D01*
X148367667Y-105243333D01*
X148462905Y-105290952D01*
X148510524Y-105338571D01*
X148558143Y-105433810D01*
X148558143Y-105671905D01*
X148510524Y-105767143D01*
X148462905Y-105814762D01*
X148367667Y-105862381D01*
X148081952Y-105862381D01*
X147986714Y-105814762D01*
X147939095Y-105767143D01*
X146288238Y-106640381D02*
X146526333Y-107640381D01*
X146716810Y-106926095D01*
X146907286Y-107640381D01*
X147145381Y-106640381D01*
X147954905Y-106973714D02*
X147954905Y-107640381D01*
X147716809Y-106592762D02*
X147478714Y-107307048D01*
X148097762Y-107307048D01*
X162036238Y-113498381D02*
X162274333Y-114498381D01*
X162464810Y-113784095D01*
X162655286Y-114498381D01*
X162893381Y-113498381D01*
X163750524Y-113498381D02*
X163274333Y-113498381D01*
X163226714Y-113974571D01*
X163274333Y-113926952D01*
X163369571Y-113879333D01*
X163607667Y-113879333D01*
X163702905Y-113926952D01*
X163750524Y-113974571D01*
X163798143Y-114069810D01*
X163798143Y-114307905D01*
X163750524Y-114403143D01*
X163702905Y-114450762D01*
X163607667Y-114498381D01*
X163369571Y-114498381D01*
X163274333Y-114450762D01*
X163226714Y-114403143D01*
X144256238Y-108926381D02*
X144494333Y-109926381D01*
X144684810Y-109212095D01*
X144875286Y-109926381D01*
X145113381Y-108926381D01*
X145922905Y-108926381D02*
X145732428Y-108926381D01*
X145637190Y-108974000D01*
X145589571Y-109021619D01*
X145494333Y-109164476D01*
X145446714Y-109354952D01*
X145446714Y-109735905D01*
X145494333Y-109831143D01*
X145541952Y-109878762D01*
X145637190Y-109926381D01*
X145827667Y-109926381D01*
X145922905Y-109878762D01*
X145970524Y-109831143D01*
X146018143Y-109735905D01*
X146018143Y-109497810D01*
X145970524Y-109402571D01*
X145922905Y-109354952D01*
X145827667Y-109307333D01*
X145637190Y-109307333D01*
X145541952Y-109354952D01*
X145494333Y-109402571D01*
X145446714Y-109497810D01*
X156956238Y-112482381D02*
X157194333Y-113482381D01*
X157384810Y-112768095D01*
X157575286Y-113482381D01*
X157813381Y-112482381D01*
X158099095Y-112482381D02*
X158765762Y-112482381D01*
X158337190Y-113482381D01*
X150098238Y-112482381D02*
X150336333Y-113482381D01*
X150526810Y-112768095D01*
X150717286Y-113482381D01*
X150955381Y-112482381D01*
X151479190Y-112910952D02*
X151383952Y-112863333D01*
X151336333Y-112815714D01*
X151288714Y-112720476D01*
X151288714Y-112672857D01*
X151336333Y-112577619D01*
X151383952Y-112530000D01*
X151479190Y-112482381D01*
X151669667Y-112482381D01*
X151764905Y-112530000D01*
X151812524Y-112577619D01*
X151860143Y-112672857D01*
X151860143Y-112720476D01*
X151812524Y-112815714D01*
X151764905Y-112863333D01*
X151669667Y-112910952D01*
X151479190Y-112910952D01*
X151383952Y-112958571D01*
X151336333Y-113006190D01*
X151288714Y-113101429D01*
X151288714Y-113291905D01*
X151336333Y-113387143D01*
X151383952Y-113434762D01*
X151479190Y-113482381D01*
X151669667Y-113482381D01*
X151764905Y-113434762D01*
X151812524Y-113387143D01*
X151860143Y-113291905D01*
X151860143Y-113101429D01*
X151812524Y-113006190D01*
X151764905Y-112958571D01*
X151669667Y-112910952D01*
M02*
