G04 #@! TF.FileFunction,Legend,Top*
%FSLAX46Y46*%
G04 Gerber Fmt 4.6, Leading zero omitted, Abs format (unit mm)*
G04 Created by KiCad (PCBNEW 4.0.0-rc1-stable) date Sun 01 Nov 2015 11:45:38 AM ICT*
%MOMM*%
G01*
G04 APERTURE LIST*
%ADD10C,0.100000*%
%ADD11C,0.200000*%
%ADD12C,0.150000*%
%ADD13C,0.200660*%
%ADD14C,0.203200*%
%ADD15C,0.152400*%
%ADD16C,0.304800*%
G04 APERTURE END LIST*
D10*
D11*
X169044690Y-84074000D02*
G75*
G03X169044690Y-84074000I-4198690J0D01*
G01*
X133478924Y-84074000D02*
G75*
G03X133478924Y-84074000I-4192924J0D01*
G01*
X168917690Y-119634000D02*
G75*
G03X168917690Y-119634000I-4198690J0D01*
G01*
X133484690Y-119634000D02*
G75*
G03X133484690Y-119634000I-4198690J0D01*
G01*
D12*
X164988240Y-110568740D02*
X165488620Y-110568740D01*
X164988240Y-110568740D02*
X164988240Y-110068360D01*
X164487860Y-110568740D02*
X164988240Y-110568740D01*
X164988240Y-110568740D02*
X164988240Y-110967520D01*
X164988240Y-110967520D02*
X164988240Y-111069120D01*
X169138600Y-112268000D02*
G75*
G03X169138600Y-112268000I-3149600J0D01*
G01*
D13*
X124515880Y-100469700D02*
X137815320Y-100469700D01*
X137815320Y-100469700D02*
X137815320Y-114068860D01*
X137815320Y-114068860D02*
X124515880Y-114068860D01*
X124515880Y-114068860D02*
X124515880Y-100469700D01*
D12*
X131572000Y-119570500D02*
G75*
G03X131572000Y-119570500I-2286000J0D01*
G01*
D14*
X169517060Y-95796100D02*
X169517060Y-108993940D01*
X159217360Y-95796100D02*
X169517060Y-95796100D01*
X159217360Y-108993940D02*
X169517060Y-108993940D01*
X153217880Y-108993940D02*
X157617160Y-108993940D01*
X153217880Y-95796100D02*
X157617160Y-95796100D01*
X153217880Y-102395020D02*
X153217880Y-95796100D01*
X153217880Y-102395020D02*
X153217880Y-108993940D01*
D12*
X167132000Y-84010500D02*
G75*
G03X167132000Y-84010500I-2286000J0D01*
G01*
X131572000Y-84010500D02*
G75*
G03X131572000Y-84010500I-2286000J0D01*
G01*
X167068500Y-119570500D02*
G75*
G03X167068500Y-119570500I-2286000J0D01*
G01*
X156972000Y-121793000D02*
X136652000Y-121793000D01*
X139192000Y-116713000D02*
X156972000Y-116713000D01*
X156972000Y-121793000D02*
X156972000Y-116713000D01*
X136652000Y-121793000D02*
X136652000Y-119253000D01*
X137922000Y-116433000D02*
X136372000Y-116433000D01*
X136652000Y-119253000D02*
X139192000Y-119253000D01*
X139192000Y-119253000D02*
X139192000Y-116713000D01*
X136372000Y-116433000D02*
X136372000Y-117983000D01*
X136706000Y-81730000D02*
X157026000Y-81730000D01*
X154486000Y-86810000D02*
X136706000Y-86810000D01*
X136706000Y-81730000D02*
X136706000Y-86810000D01*
X157026000Y-81730000D02*
X157026000Y-84270000D01*
X155756000Y-87090000D02*
X157306000Y-87090000D01*
X157026000Y-84270000D02*
X154486000Y-84270000D01*
X154486000Y-84270000D02*
X154486000Y-86810000D01*
X157306000Y-87090000D02*
X157306000Y-85540000D01*
X124574000Y-88812000D02*
X124574000Y-97512000D01*
X130979000Y-88812000D02*
X130979000Y-97512000D01*
X130979000Y-97512000D02*
X124574000Y-97512000D01*
X125804000Y-97512000D02*
X125804000Y-88812000D01*
X124574000Y-88812000D02*
X130979000Y-88812000D01*
D15*
X142864840Y-103164640D02*
X142864840Y-102963980D01*
X142864840Y-103164640D02*
X144663160Y-103164640D01*
X144663160Y-103164640D02*
X144663160Y-102963980D01*
X144663160Y-100162360D02*
X144663160Y-100363020D01*
X142864840Y-100162360D02*
X142864840Y-100363020D01*
X144663160Y-100162360D02*
X142864840Y-100162360D01*
X143372840Y-112118140D02*
X143372840Y-111917480D01*
X143372840Y-112118140D02*
X145171160Y-112118140D01*
X145171160Y-112118140D02*
X145171160Y-111917480D01*
X145171160Y-109115860D02*
X145171160Y-109316520D01*
X143372840Y-109115860D02*
X143372840Y-109316520D01*
X145171160Y-109115860D02*
X143372840Y-109115860D01*
X142991840Y-93322140D02*
X142991840Y-93121480D01*
X142991840Y-93322140D02*
X144790160Y-93322140D01*
X144790160Y-93322140D02*
X144790160Y-93121480D01*
X144790160Y-90319860D02*
X144790160Y-90520520D01*
X142991840Y-90319860D02*
X142991840Y-90520520D01*
X144790160Y-90319860D02*
X142991840Y-90319860D01*
D12*
X141312000Y-92448000D02*
X141312000Y-91448000D01*
X139612000Y-91448000D02*
X139612000Y-92448000D01*
X150915000Y-91321000D02*
X150915000Y-92321000D01*
X152615000Y-92321000D02*
X152615000Y-91321000D01*
X148604000Y-94199000D02*
X148604000Y-92999000D01*
X150354000Y-92999000D02*
X150354000Y-94199000D01*
X148068000Y-92999000D02*
X148068000Y-94199000D01*
X146318000Y-94199000D02*
X146318000Y-92999000D01*
X141185000Y-102227000D02*
X141185000Y-101227000D01*
X139485000Y-101227000D02*
X139485000Y-102227000D01*
X141820000Y-111244000D02*
X141820000Y-110244000D01*
X140120000Y-110244000D02*
X140120000Y-111244000D01*
X150534000Y-110244000D02*
X150534000Y-111244000D01*
X152234000Y-111244000D02*
X152234000Y-110244000D01*
X150026000Y-101227000D02*
X150026000Y-102227000D01*
X151726000Y-102227000D02*
X151726000Y-101227000D01*
X148477000Y-113310000D02*
X148477000Y-112110000D01*
X150227000Y-112110000D02*
X150227000Y-113310000D01*
X148195000Y-112110000D02*
X148195000Y-113310000D01*
X146445000Y-113310000D02*
X146445000Y-112110000D01*
X147969000Y-103978000D02*
X147969000Y-102778000D01*
X149719000Y-102778000D02*
X149719000Y-103978000D01*
X147687000Y-102778000D02*
X147687000Y-103978000D01*
X145937000Y-103978000D02*
X145937000Y-102778000D01*
X150136000Y-89789000D02*
G75*
G03X148636000Y-88289000I-1500000J0D01*
G01*
X148636000Y-91289000D02*
G75*
G03X150136000Y-89789000I0J1500000D01*
G01*
X148036000Y-88289000D02*
G75*
G03X146536000Y-89789000I0J-1500000D01*
G01*
X146536000Y-89789000D02*
G75*
G03X148036000Y-91289000I1500000J0D01*
G01*
X147836000Y-91289000D02*
X148836000Y-91289000D01*
X147836000Y-88289000D02*
X148836000Y-88289000D01*
X149628000Y-99568000D02*
G75*
G03X148128000Y-98068000I-1500000J0D01*
G01*
X148128000Y-101068000D02*
G75*
G03X149628000Y-99568000I0J1500000D01*
G01*
X147528000Y-98068000D02*
G75*
G03X146028000Y-99568000I0J-1500000D01*
G01*
X146028000Y-99568000D02*
G75*
G03X147528000Y-101068000I1500000J0D01*
G01*
X147328000Y-101068000D02*
X148328000Y-101068000D01*
X147328000Y-98068000D02*
X148328000Y-98068000D01*
X150136000Y-108839000D02*
G75*
G03X148636000Y-107339000I-1500000J0D01*
G01*
X148636000Y-110339000D02*
G75*
G03X150136000Y-108839000I0J1500000D01*
G01*
X148036000Y-107339000D02*
G75*
G03X146536000Y-108839000I0J-1500000D01*
G01*
X146536000Y-108839000D02*
G75*
G03X148036000Y-110339000I1500000J0D01*
G01*
X147836000Y-110339000D02*
X148836000Y-110339000D01*
X147836000Y-107339000D02*
X148836000Y-107339000D01*
X162726000Y-89543000D02*
X162726000Y-90543000D01*
X164426000Y-90543000D02*
X164426000Y-89543000D01*
X158390140Y-87657940D02*
X158390140Y-88008460D01*
X158390140Y-91158060D02*
X158390140Y-90807540D01*
X154340560Y-87657940D02*
X154340560Y-88008460D01*
X158841440Y-87657940D02*
X158841440Y-88008460D01*
X158841440Y-91158060D02*
X158841440Y-90807540D01*
X154340560Y-91158060D02*
X154340560Y-90807540D01*
X158841440Y-87657940D02*
X154340560Y-87657940D01*
X158841440Y-91158060D02*
X154340560Y-91158060D01*
X160542000Y-90643000D02*
X160542000Y-89443000D01*
X162292000Y-89443000D02*
X162292000Y-90643000D01*
X139438000Y-108292000D02*
X140438000Y-108292000D01*
X140438000Y-106592000D02*
X139438000Y-106592000D01*
X154852000Y-108720000D02*
X154852000Y-109720000D01*
X156552000Y-109720000D02*
X156552000Y-108720000D01*
X133104000Y-91020000D02*
X134104000Y-91020000D01*
X134104000Y-89320000D02*
X133104000Y-89320000D01*
X136700260Y-93741240D02*
X136700260Y-94241620D01*
X136700260Y-93741240D02*
X137200640Y-93741240D01*
X136700260Y-93240860D02*
X136700260Y-93741240D01*
X136700260Y-93741240D02*
X136301480Y-93741240D01*
X136301480Y-93741240D02*
X136199880Y-93741240D01*
X138150600Y-94742000D02*
G75*
G03X138150600Y-94742000I-3149600J0D01*
G01*
X133358000Y-116293000D02*
X134358000Y-116293000D01*
X134358000Y-114593000D02*
X133358000Y-114593000D01*
X165346143Y-107545143D02*
X165298524Y-107592762D01*
X165155667Y-107640381D01*
X165060429Y-107640381D01*
X164917571Y-107592762D01*
X164822333Y-107497524D01*
X164774714Y-107402286D01*
X164727095Y-107211810D01*
X164727095Y-107068952D01*
X164774714Y-106878476D01*
X164822333Y-106783238D01*
X164917571Y-106688000D01*
X165060429Y-106640381D01*
X165155667Y-106640381D01*
X165298524Y-106688000D01*
X165346143Y-106735619D01*
X166298524Y-107640381D02*
X165727095Y-107640381D01*
X166012809Y-107640381D02*
X166012809Y-106640381D01*
X165917571Y-106783238D01*
X165822333Y-106878476D01*
X165727095Y-106926095D01*
X167250905Y-107640381D02*
X166679476Y-107640381D01*
X166965190Y-107640381D02*
X166965190Y-106640381D01*
X166869952Y-106783238D01*
X166774714Y-106878476D01*
X166679476Y-106926095D01*
D16*
X129883989Y-107762040D02*
X130972560Y-107762040D01*
X131190274Y-107834612D01*
X131335417Y-107979755D01*
X131407989Y-108197469D01*
X131407989Y-108342612D01*
X131407989Y-106238040D02*
X131407989Y-107108897D01*
X131407989Y-106673469D02*
X129883989Y-106673469D01*
X130101703Y-106818612D01*
X130246846Y-106963754D01*
X130319417Y-107108897D01*
D12*
X127952667Y-116974881D02*
X127619333Y-116498690D01*
X127381238Y-116974881D02*
X127381238Y-115974881D01*
X127762191Y-115974881D01*
X127857429Y-116022500D01*
X127905048Y-116070119D01*
X127952667Y-116165357D01*
X127952667Y-116308214D01*
X127905048Y-116403452D01*
X127857429Y-116451071D01*
X127762191Y-116498690D01*
X127381238Y-116498690D01*
X128381238Y-116451071D02*
X128714572Y-116451071D01*
X128857429Y-116974881D02*
X128381238Y-116974881D01*
X128381238Y-115974881D01*
X128857429Y-115974881D01*
X129619334Y-116451071D02*
X129286000Y-116451071D01*
X129286000Y-116974881D02*
X129286000Y-115974881D01*
X129762191Y-115974881D01*
X130286000Y-115974881D02*
X130286000Y-116212976D01*
X130047905Y-116117738D02*
X130286000Y-116212976D01*
X130524096Y-116117738D01*
X130143143Y-116403452D02*
X130286000Y-116212976D01*
X130428858Y-116403452D01*
X131047905Y-115974881D02*
X131047905Y-116212976D01*
X130809810Y-116117738D02*
X131047905Y-116212976D01*
X131286001Y-116117738D01*
X130905048Y-116403452D02*
X131047905Y-116212976D01*
X131190763Y-116403452D01*
D14*
X162183475Y-102994943D02*
X161370675Y-102994943D01*
X161370675Y-102685305D01*
X161409380Y-102607896D01*
X161448085Y-102569191D01*
X161525494Y-102530486D01*
X161641609Y-102530486D01*
X161719018Y-102569191D01*
X161757723Y-102607896D01*
X161796428Y-102685305D01*
X161796428Y-102994943D01*
X161370675Y-102259553D02*
X161370675Y-101756391D01*
X161680313Y-102027324D01*
X161680313Y-101911210D01*
X161719018Y-101833800D01*
X161757723Y-101795096D01*
X161835132Y-101756391D01*
X162028656Y-101756391D01*
X162106066Y-101795096D01*
X162144770Y-101833800D01*
X162183475Y-101911210D01*
X162183475Y-102143438D01*
X162144770Y-102220848D01*
X162106066Y-102259553D01*
X159272635Y-104078677D02*
X159930616Y-104078677D01*
X160008026Y-104039972D01*
X160046730Y-104001268D01*
X160085435Y-103923858D01*
X160085435Y-103769039D01*
X160046730Y-103691630D01*
X160008026Y-103652925D01*
X159930616Y-103614220D01*
X159272635Y-103614220D01*
X160046730Y-103265877D02*
X160085435Y-103149763D01*
X160085435Y-102956239D01*
X160046730Y-102878829D01*
X160008026Y-102840125D01*
X159930616Y-102801420D01*
X159853207Y-102801420D01*
X159775797Y-102840125D01*
X159737092Y-102878829D01*
X159698388Y-102956239D01*
X159659683Y-103111058D01*
X159620978Y-103188467D01*
X159582273Y-103227172D01*
X159504864Y-103265877D01*
X159427454Y-103265877D01*
X159350045Y-103227172D01*
X159311340Y-103188467D01*
X159272635Y-103111058D01*
X159272635Y-102917534D01*
X159311340Y-102801420D01*
X159659683Y-102182144D02*
X159698388Y-102066030D01*
X159737092Y-102027325D01*
X159814502Y-101988620D01*
X159930616Y-101988620D01*
X160008026Y-102027325D01*
X160046730Y-102066030D01*
X160085435Y-102143439D01*
X160085435Y-102453077D01*
X159272635Y-102453077D01*
X159272635Y-102182144D01*
X159311340Y-102104734D01*
X159350045Y-102066030D01*
X159427454Y-102027325D01*
X159504864Y-102027325D01*
X159582273Y-102066030D01*
X159620978Y-102104734D01*
X159659683Y-102182144D01*
X159659683Y-102453077D01*
X160162845Y-101833801D02*
X160162845Y-101214525D01*
X159853207Y-101059706D02*
X159853207Y-100672658D01*
X160085435Y-101137115D02*
X159272635Y-100866182D01*
X160085435Y-100595249D01*
D12*
X163512667Y-81414881D02*
X163179333Y-80938690D01*
X162941238Y-81414881D02*
X162941238Y-80414881D01*
X163322191Y-80414881D01*
X163417429Y-80462500D01*
X163465048Y-80510119D01*
X163512667Y-80605357D01*
X163512667Y-80748214D01*
X163465048Y-80843452D01*
X163417429Y-80891071D01*
X163322191Y-80938690D01*
X162941238Y-80938690D01*
X163941238Y-80891071D02*
X164274572Y-80891071D01*
X164417429Y-81414881D02*
X163941238Y-81414881D01*
X163941238Y-80414881D01*
X164417429Y-80414881D01*
X165179334Y-80891071D02*
X164846000Y-80891071D01*
X164846000Y-81414881D02*
X164846000Y-80414881D01*
X165322191Y-80414881D01*
X165846000Y-80414881D02*
X165846000Y-80652976D01*
X165607905Y-80557738D02*
X165846000Y-80652976D01*
X166084096Y-80557738D01*
X165703143Y-80843452D02*
X165846000Y-80652976D01*
X165988858Y-80843452D01*
X166607905Y-80414881D02*
X166607905Y-80652976D01*
X166369810Y-80557738D02*
X166607905Y-80652976D01*
X166846001Y-80557738D01*
X166465048Y-80843452D02*
X166607905Y-80652976D01*
X166750763Y-80843452D01*
X127952667Y-81414881D02*
X127619333Y-80938690D01*
X127381238Y-81414881D02*
X127381238Y-80414881D01*
X127762191Y-80414881D01*
X127857429Y-80462500D01*
X127905048Y-80510119D01*
X127952667Y-80605357D01*
X127952667Y-80748214D01*
X127905048Y-80843452D01*
X127857429Y-80891071D01*
X127762191Y-80938690D01*
X127381238Y-80938690D01*
X128381238Y-80891071D02*
X128714572Y-80891071D01*
X128857429Y-81414881D02*
X128381238Y-81414881D01*
X128381238Y-80414881D01*
X128857429Y-80414881D01*
X129619334Y-80891071D02*
X129286000Y-80891071D01*
X129286000Y-81414881D02*
X129286000Y-80414881D01*
X129762191Y-80414881D01*
X130286000Y-80414881D02*
X130286000Y-80652976D01*
X130047905Y-80557738D02*
X130286000Y-80652976D01*
X130524096Y-80557738D01*
X130143143Y-80843452D02*
X130286000Y-80652976D01*
X130428858Y-80843452D01*
X131047905Y-80414881D02*
X131047905Y-80652976D01*
X130809810Y-80557738D02*
X131047905Y-80652976D01*
X131286001Y-80557738D01*
X130905048Y-80843452D02*
X131047905Y-80652976D01*
X131190763Y-80843452D01*
X163449167Y-116974881D02*
X163115833Y-116498690D01*
X162877738Y-116974881D02*
X162877738Y-115974881D01*
X163258691Y-115974881D01*
X163353929Y-116022500D01*
X163401548Y-116070119D01*
X163449167Y-116165357D01*
X163449167Y-116308214D01*
X163401548Y-116403452D01*
X163353929Y-116451071D01*
X163258691Y-116498690D01*
X162877738Y-116498690D01*
X163877738Y-116451071D02*
X164211072Y-116451071D01*
X164353929Y-116974881D02*
X163877738Y-116974881D01*
X163877738Y-115974881D01*
X164353929Y-115974881D01*
X165115834Y-116451071D02*
X164782500Y-116451071D01*
X164782500Y-116974881D02*
X164782500Y-115974881D01*
X165258691Y-115974881D01*
X165782500Y-115974881D02*
X165782500Y-116212976D01*
X165544405Y-116117738D02*
X165782500Y-116212976D01*
X166020596Y-116117738D01*
X165639643Y-116403452D02*
X165782500Y-116212976D01*
X165925358Y-116403452D01*
X166544405Y-115974881D02*
X166544405Y-116212976D01*
X166306310Y-116117738D02*
X166544405Y-116212976D01*
X166782501Y-116117738D01*
X166401548Y-116403452D02*
X166544405Y-116212976D01*
X166687263Y-116403452D01*
X137183905Y-113335381D02*
X137183905Y-112335381D01*
X137564858Y-112335381D01*
X137660096Y-112383000D01*
X137707715Y-112430619D01*
X137755334Y-112525857D01*
X137755334Y-112668714D01*
X137707715Y-112763952D01*
X137660096Y-112811571D01*
X137564858Y-112859190D01*
X137183905Y-112859190D01*
X138707715Y-113335381D02*
X138136286Y-113335381D01*
X138422000Y-113335381D02*
X138422000Y-112335381D01*
X138326762Y-112478238D01*
X138231524Y-112573476D01*
X138136286Y-112621095D01*
X155017905Y-91092381D02*
X155017905Y-90092381D01*
X155398858Y-90092381D01*
X155494096Y-90140000D01*
X155541715Y-90187619D01*
X155589334Y-90282857D01*
X155589334Y-90425714D01*
X155541715Y-90520952D01*
X155494096Y-90568571D01*
X155398858Y-90616190D01*
X155017905Y-90616190D01*
X155970286Y-90187619D02*
X156017905Y-90140000D01*
X156113143Y-90092381D01*
X156351239Y-90092381D01*
X156446477Y-90140000D01*
X156494096Y-90187619D01*
X156541715Y-90282857D01*
X156541715Y-90378095D01*
X156494096Y-90520952D01*
X155922667Y-91092381D01*
X156541715Y-91092381D01*
X132293841Y-93900995D02*
X131293841Y-93900995D01*
X131293841Y-93520042D01*
X131341460Y-93424804D01*
X131389079Y-93377185D01*
X131484317Y-93329566D01*
X131627174Y-93329566D01*
X131722412Y-93377185D01*
X131770031Y-93424804D01*
X131817650Y-93520042D01*
X131817650Y-93900995D01*
X131627174Y-92472423D02*
X132293841Y-92472423D01*
X131246222Y-92710519D02*
X131960508Y-92948614D01*
X131960508Y-92329566D01*
D15*
X143430171Y-102127957D02*
X143923657Y-102127957D01*
X143981714Y-102098929D01*
X144010743Y-102069900D01*
X144039771Y-102011843D01*
X144039771Y-101895729D01*
X144010743Y-101837671D01*
X143981714Y-101808643D01*
X143923657Y-101779614D01*
X143430171Y-101779614D01*
X143488229Y-101518357D02*
X143459200Y-101489328D01*
X143430171Y-101431271D01*
X143430171Y-101286128D01*
X143459200Y-101228071D01*
X143488229Y-101199042D01*
X143546286Y-101170014D01*
X143604343Y-101170014D01*
X143691429Y-101199042D01*
X144039771Y-101547385D01*
X144039771Y-101170014D01*
X143938171Y-111081457D02*
X144431657Y-111081457D01*
X144489714Y-111052429D01*
X144518743Y-111023400D01*
X144547771Y-110965343D01*
X144547771Y-110849229D01*
X144518743Y-110791171D01*
X144489714Y-110762143D01*
X144431657Y-110733114D01*
X143938171Y-110733114D01*
X143938171Y-110500885D02*
X143938171Y-110123514D01*
X144170400Y-110326714D01*
X144170400Y-110239628D01*
X144199429Y-110181571D01*
X144228457Y-110152542D01*
X144286514Y-110123514D01*
X144431657Y-110123514D01*
X144489714Y-110152542D01*
X144518743Y-110181571D01*
X144547771Y-110239628D01*
X144547771Y-110413800D01*
X144518743Y-110471857D01*
X144489714Y-110500885D01*
X143557171Y-92285457D02*
X144050657Y-92285457D01*
X144108714Y-92256429D01*
X144137743Y-92227400D01*
X144166771Y-92169343D01*
X144166771Y-92053229D01*
X144137743Y-91995171D01*
X144108714Y-91966143D01*
X144050657Y-91937114D01*
X143557171Y-91937114D01*
X144166771Y-91327514D02*
X144166771Y-91675857D01*
X144166771Y-91501685D02*
X143557171Y-91501685D01*
X143644257Y-91559742D01*
X143702314Y-91617800D01*
X143731343Y-91675857D01*
D12*
X142919143Y-92114666D02*
X142966762Y-92162285D01*
X143014381Y-92305142D01*
X143014381Y-92400380D01*
X142966762Y-92543238D01*
X142871524Y-92638476D01*
X142776286Y-92686095D01*
X142585810Y-92733714D01*
X142442952Y-92733714D01*
X142252476Y-92686095D01*
X142157238Y-92638476D01*
X142062000Y-92543238D01*
X142014381Y-92400380D01*
X142014381Y-92305142D01*
X142062000Y-92162285D01*
X142109619Y-92114666D01*
X143014381Y-91162285D02*
X143014381Y-91733714D01*
X143014381Y-91448000D02*
X142014381Y-91448000D01*
X142157238Y-91543238D01*
X142252476Y-91638476D01*
X142300095Y-91733714D01*
X150022143Y-91987666D02*
X150069762Y-92035285D01*
X150117381Y-92178142D01*
X150117381Y-92273380D01*
X150069762Y-92416238D01*
X149974524Y-92511476D01*
X149879286Y-92559095D01*
X149688810Y-92606714D01*
X149545952Y-92606714D01*
X149355476Y-92559095D01*
X149260238Y-92511476D01*
X149165000Y-92416238D01*
X149117381Y-92273380D01*
X149117381Y-92178142D01*
X149165000Y-92035285D01*
X149212619Y-91987666D01*
X149212619Y-91606714D02*
X149165000Y-91559095D01*
X149117381Y-91463857D01*
X149117381Y-91225761D01*
X149165000Y-91130523D01*
X149212619Y-91082904D01*
X149307857Y-91035285D01*
X149403095Y-91035285D01*
X149545952Y-91082904D01*
X150117381Y-91654333D01*
X150117381Y-91035285D01*
X152031381Y-93765666D02*
X151555190Y-94099000D01*
X152031381Y-94337095D02*
X151031381Y-94337095D01*
X151031381Y-93956142D01*
X151079000Y-93860904D01*
X151126619Y-93813285D01*
X151221857Y-93765666D01*
X151364714Y-93765666D01*
X151459952Y-93813285D01*
X151507571Y-93860904D01*
X151555190Y-93956142D01*
X151555190Y-94337095D01*
X152031381Y-92813285D02*
X152031381Y-93384714D01*
X152031381Y-93099000D02*
X151031381Y-93099000D01*
X151174238Y-93194238D01*
X151269476Y-93289476D01*
X151317095Y-93384714D01*
X145545381Y-93765666D02*
X145069190Y-94099000D01*
X145545381Y-94337095D02*
X144545381Y-94337095D01*
X144545381Y-93956142D01*
X144593000Y-93860904D01*
X144640619Y-93813285D01*
X144735857Y-93765666D01*
X144878714Y-93765666D01*
X144973952Y-93813285D01*
X145021571Y-93860904D01*
X145069190Y-93956142D01*
X145069190Y-94337095D01*
X144640619Y-93384714D02*
X144593000Y-93337095D01*
X144545381Y-93241857D01*
X144545381Y-93003761D01*
X144593000Y-92908523D01*
X144640619Y-92860904D01*
X144735857Y-92813285D01*
X144831095Y-92813285D01*
X144973952Y-92860904D01*
X145545381Y-93432333D01*
X145545381Y-92813285D01*
X142792143Y-101893666D02*
X142839762Y-101941285D01*
X142887381Y-102084142D01*
X142887381Y-102179380D01*
X142839762Y-102322238D01*
X142744524Y-102417476D01*
X142649286Y-102465095D01*
X142458810Y-102512714D01*
X142315952Y-102512714D01*
X142125476Y-102465095D01*
X142030238Y-102417476D01*
X141935000Y-102322238D01*
X141887381Y-102179380D01*
X141887381Y-102084142D01*
X141935000Y-101941285D01*
X141982619Y-101893666D01*
X141887381Y-101560333D02*
X141887381Y-100941285D01*
X142268333Y-101274619D01*
X142268333Y-101131761D01*
X142315952Y-101036523D01*
X142363571Y-100988904D01*
X142458810Y-100941285D01*
X142696905Y-100941285D01*
X142792143Y-100988904D01*
X142839762Y-101036523D01*
X142887381Y-101131761D01*
X142887381Y-101417476D01*
X142839762Y-101512714D01*
X142792143Y-101560333D01*
X143427143Y-110910666D02*
X143474762Y-110958285D01*
X143522381Y-111101142D01*
X143522381Y-111196380D01*
X143474762Y-111339238D01*
X143379524Y-111434476D01*
X143284286Y-111482095D01*
X143093810Y-111529714D01*
X142950952Y-111529714D01*
X142760476Y-111482095D01*
X142665238Y-111434476D01*
X142570000Y-111339238D01*
X142522381Y-111196380D01*
X142522381Y-111101142D01*
X142570000Y-110958285D01*
X142617619Y-110910666D01*
X142855714Y-110053523D02*
X143522381Y-110053523D01*
X142474762Y-110291619D02*
X143189048Y-110529714D01*
X143189048Y-109910666D01*
X149641143Y-110910666D02*
X149688762Y-110958285D01*
X149736381Y-111101142D01*
X149736381Y-111196380D01*
X149688762Y-111339238D01*
X149593524Y-111434476D01*
X149498286Y-111482095D01*
X149307810Y-111529714D01*
X149164952Y-111529714D01*
X148974476Y-111482095D01*
X148879238Y-111434476D01*
X148784000Y-111339238D01*
X148736381Y-111196380D01*
X148736381Y-111101142D01*
X148784000Y-110958285D01*
X148831619Y-110910666D01*
X148736381Y-110005904D02*
X148736381Y-110482095D01*
X149212571Y-110529714D01*
X149164952Y-110482095D01*
X149117333Y-110386857D01*
X149117333Y-110148761D01*
X149164952Y-110053523D01*
X149212571Y-110005904D01*
X149307810Y-109958285D01*
X149545905Y-109958285D01*
X149641143Y-110005904D01*
X149688762Y-110053523D01*
X149736381Y-110148761D01*
X149736381Y-110386857D01*
X149688762Y-110482095D01*
X149641143Y-110529714D01*
X149133143Y-101893666D02*
X149180762Y-101941285D01*
X149228381Y-102084142D01*
X149228381Y-102179380D01*
X149180762Y-102322238D01*
X149085524Y-102417476D01*
X148990286Y-102465095D01*
X148799810Y-102512714D01*
X148656952Y-102512714D01*
X148466476Y-102465095D01*
X148371238Y-102417476D01*
X148276000Y-102322238D01*
X148228381Y-102179380D01*
X148228381Y-102084142D01*
X148276000Y-101941285D01*
X148323619Y-101893666D01*
X148228381Y-101036523D02*
X148228381Y-101227000D01*
X148276000Y-101322238D01*
X148323619Y-101369857D01*
X148466476Y-101465095D01*
X148656952Y-101512714D01*
X149037905Y-101512714D01*
X149133143Y-101465095D01*
X149180762Y-101417476D01*
X149228381Y-101322238D01*
X149228381Y-101131761D01*
X149180762Y-101036523D01*
X149133143Y-100988904D01*
X149037905Y-100941285D01*
X148799810Y-100941285D01*
X148704571Y-100988904D01*
X148656952Y-101036523D01*
X148609333Y-101131761D01*
X148609333Y-101322238D01*
X148656952Y-101417476D01*
X148704571Y-101465095D01*
X148799810Y-101512714D01*
X151904381Y-112876666D02*
X151428190Y-113210000D01*
X151904381Y-113448095D02*
X150904381Y-113448095D01*
X150904381Y-113067142D01*
X150952000Y-112971904D01*
X150999619Y-112924285D01*
X151094857Y-112876666D01*
X151237714Y-112876666D01*
X151332952Y-112924285D01*
X151380571Y-112971904D01*
X151428190Y-113067142D01*
X151428190Y-113448095D01*
X150904381Y-112543333D02*
X150904381Y-111924285D01*
X151285333Y-112257619D01*
X151285333Y-112114761D01*
X151332952Y-112019523D01*
X151380571Y-111971904D01*
X151475810Y-111924285D01*
X151713905Y-111924285D01*
X151809143Y-111971904D01*
X151856762Y-112019523D01*
X151904381Y-112114761D01*
X151904381Y-112400476D01*
X151856762Y-112495714D01*
X151809143Y-112543333D01*
X145672381Y-112876666D02*
X145196190Y-113210000D01*
X145672381Y-113448095D02*
X144672381Y-113448095D01*
X144672381Y-113067142D01*
X144720000Y-112971904D01*
X144767619Y-112924285D01*
X144862857Y-112876666D01*
X145005714Y-112876666D01*
X145100952Y-112924285D01*
X145148571Y-112971904D01*
X145196190Y-113067142D01*
X145196190Y-113448095D01*
X145005714Y-112019523D02*
X145672381Y-112019523D01*
X144624762Y-112257619D02*
X145339048Y-112495714D01*
X145339048Y-111876666D01*
X151396381Y-103544666D02*
X150920190Y-103878000D01*
X151396381Y-104116095D02*
X150396381Y-104116095D01*
X150396381Y-103735142D01*
X150444000Y-103639904D01*
X150491619Y-103592285D01*
X150586857Y-103544666D01*
X150729714Y-103544666D01*
X150824952Y-103592285D01*
X150872571Y-103639904D01*
X150920190Y-103735142D01*
X150920190Y-104116095D01*
X150396381Y-102639904D02*
X150396381Y-103116095D01*
X150872571Y-103163714D01*
X150824952Y-103116095D01*
X150777333Y-103020857D01*
X150777333Y-102782761D01*
X150824952Y-102687523D01*
X150872571Y-102639904D01*
X150967810Y-102592285D01*
X151205905Y-102592285D01*
X151301143Y-102639904D01*
X151348762Y-102687523D01*
X151396381Y-102782761D01*
X151396381Y-103020857D01*
X151348762Y-103116095D01*
X151301143Y-103163714D01*
X145164381Y-103544666D02*
X144688190Y-103878000D01*
X145164381Y-104116095D02*
X144164381Y-104116095D01*
X144164381Y-103735142D01*
X144212000Y-103639904D01*
X144259619Y-103592285D01*
X144354857Y-103544666D01*
X144497714Y-103544666D01*
X144592952Y-103592285D01*
X144640571Y-103639904D01*
X144688190Y-103735142D01*
X144688190Y-104116095D01*
X144164381Y-102687523D02*
X144164381Y-102878000D01*
X144212000Y-102973238D01*
X144259619Y-103020857D01*
X144402476Y-103116095D01*
X144592952Y-103163714D01*
X144973905Y-103163714D01*
X145069143Y-103116095D01*
X145116762Y-103068476D01*
X145164381Y-102973238D01*
X145164381Y-102782761D01*
X145116762Y-102687523D01*
X145069143Y-102639904D01*
X144973905Y-102592285D01*
X144735810Y-102592285D01*
X144640571Y-102639904D01*
X144592952Y-102687523D01*
X144545333Y-102782761D01*
X144545333Y-102973238D01*
X144592952Y-103068476D01*
X144640571Y-103116095D01*
X144735810Y-103163714D01*
X146188381Y-89855666D02*
X146188381Y-90331857D01*
X145188381Y-90331857D01*
X146188381Y-88998523D02*
X146188381Y-89569952D01*
X146188381Y-89284238D02*
X145188381Y-89284238D01*
X145331238Y-89379476D01*
X145426476Y-89474714D01*
X145474095Y-89569952D01*
X145680381Y-99634666D02*
X145680381Y-100110857D01*
X144680381Y-100110857D01*
X144775619Y-99348952D02*
X144728000Y-99301333D01*
X144680381Y-99206095D01*
X144680381Y-98967999D01*
X144728000Y-98872761D01*
X144775619Y-98825142D01*
X144870857Y-98777523D01*
X144966095Y-98777523D01*
X145108952Y-98825142D01*
X145680381Y-99396571D01*
X145680381Y-98777523D01*
X146188381Y-108905666D02*
X146188381Y-109381857D01*
X145188381Y-109381857D01*
X145188381Y-108667571D02*
X145188381Y-108048523D01*
X145569333Y-108381857D01*
X145569333Y-108238999D01*
X145616952Y-108143761D01*
X145664571Y-108096142D01*
X145759810Y-108048523D01*
X145997905Y-108048523D01*
X146093143Y-108096142D01*
X146140762Y-108143761D01*
X146188381Y-108238999D01*
X146188381Y-108524714D01*
X146140762Y-108619952D01*
X146093143Y-108667571D01*
X161833143Y-90209666D02*
X161880762Y-90257285D01*
X161928381Y-90400142D01*
X161928381Y-90495380D01*
X161880762Y-90638238D01*
X161785524Y-90733476D01*
X161690286Y-90781095D01*
X161499810Y-90828714D01*
X161356952Y-90828714D01*
X161166476Y-90781095D01*
X161071238Y-90733476D01*
X160976000Y-90638238D01*
X160928381Y-90495380D01*
X160928381Y-90400142D01*
X160976000Y-90257285D01*
X161023619Y-90209666D01*
X160928381Y-89876333D02*
X160928381Y-89209666D01*
X161928381Y-89638238D01*
X155852905Y-93670381D02*
X155852905Y-92670381D01*
X156091000Y-92670381D01*
X156233858Y-92718000D01*
X156329096Y-92813238D01*
X156376715Y-92908476D01*
X156424334Y-93098952D01*
X156424334Y-93241810D01*
X156376715Y-93432286D01*
X156329096Y-93527524D01*
X156233858Y-93622762D01*
X156091000Y-93670381D01*
X155852905Y-93670381D01*
X157376715Y-93670381D02*
X156805286Y-93670381D01*
X157091000Y-93670381D02*
X157091000Y-92670381D01*
X156995762Y-92813238D01*
X156900524Y-92908476D01*
X156805286Y-92956095D01*
X159229095Y-86910381D02*
X159229095Y-85910381D01*
X159800524Y-86910381D02*
X159371952Y-86338952D01*
X159800524Y-85910381D02*
X159229095Y-86481810D01*
X153452905Y-86674667D02*
X153929096Y-86674667D01*
X153357667Y-86960381D02*
X153691000Y-85960381D01*
X154024334Y-86960381D01*
X163969381Y-90209666D02*
X163493190Y-90543000D01*
X163969381Y-90781095D02*
X162969381Y-90781095D01*
X162969381Y-90400142D01*
X163017000Y-90304904D01*
X163064619Y-90257285D01*
X163159857Y-90209666D01*
X163302714Y-90209666D01*
X163397952Y-90257285D01*
X163445571Y-90304904D01*
X163493190Y-90400142D01*
X163493190Y-90781095D01*
X162969381Y-89876333D02*
X162969381Y-89209666D01*
X163969381Y-89638238D01*
X139771334Y-109899143D02*
X139723715Y-109946762D01*
X139580858Y-109994381D01*
X139485620Y-109994381D01*
X139342762Y-109946762D01*
X139247524Y-109851524D01*
X139199905Y-109756286D01*
X139152286Y-109565810D01*
X139152286Y-109422952D01*
X139199905Y-109232476D01*
X139247524Y-109137238D01*
X139342762Y-109042000D01*
X139485620Y-108994381D01*
X139580858Y-108994381D01*
X139723715Y-109042000D01*
X139771334Y-109089619D01*
X140342762Y-109422952D02*
X140247524Y-109375333D01*
X140199905Y-109327714D01*
X140152286Y-109232476D01*
X140152286Y-109184857D01*
X140199905Y-109089619D01*
X140247524Y-109042000D01*
X140342762Y-108994381D01*
X140533239Y-108994381D01*
X140628477Y-109042000D01*
X140676096Y-109089619D01*
X140723715Y-109184857D01*
X140723715Y-109232476D01*
X140676096Y-109327714D01*
X140628477Y-109375333D01*
X140533239Y-109422952D01*
X140342762Y-109422952D01*
X140247524Y-109470571D01*
X140199905Y-109518190D01*
X140152286Y-109613429D01*
X140152286Y-109803905D01*
X140199905Y-109899143D01*
X140247524Y-109946762D01*
X140342762Y-109994381D01*
X140533239Y-109994381D01*
X140628477Y-109946762D01*
X140676096Y-109899143D01*
X140723715Y-109803905D01*
X140723715Y-109613429D01*
X140676096Y-109518190D01*
X140628477Y-109470571D01*
X140533239Y-109422952D01*
X153959143Y-109386666D02*
X154006762Y-109434285D01*
X154054381Y-109577142D01*
X154054381Y-109672380D01*
X154006762Y-109815238D01*
X153911524Y-109910476D01*
X153816286Y-109958095D01*
X153625810Y-110005714D01*
X153482952Y-110005714D01*
X153292476Y-109958095D01*
X153197238Y-109910476D01*
X153102000Y-109815238D01*
X153054381Y-109672380D01*
X153054381Y-109577142D01*
X153102000Y-109434285D01*
X153149619Y-109386666D01*
X154054381Y-108910476D02*
X154054381Y-108720000D01*
X154006762Y-108624761D01*
X153959143Y-108577142D01*
X153816286Y-108481904D01*
X153625810Y-108434285D01*
X153244857Y-108434285D01*
X153149619Y-108481904D01*
X153102000Y-108529523D01*
X153054381Y-108624761D01*
X153054381Y-108815238D01*
X153102000Y-108910476D01*
X153149619Y-108958095D01*
X153244857Y-109005714D01*
X153482952Y-109005714D01*
X153578190Y-108958095D01*
X153625810Y-108910476D01*
X153673429Y-108815238D01*
X153673429Y-108624761D01*
X153625810Y-108529523D01*
X153578190Y-108481904D01*
X153482952Y-108434285D01*
X132961143Y-92627143D02*
X132913524Y-92674762D01*
X132770667Y-92722381D01*
X132675429Y-92722381D01*
X132532571Y-92674762D01*
X132437333Y-92579524D01*
X132389714Y-92484286D01*
X132342095Y-92293810D01*
X132342095Y-92150952D01*
X132389714Y-91960476D01*
X132437333Y-91865238D01*
X132532571Y-91770000D01*
X132675429Y-91722381D01*
X132770667Y-91722381D01*
X132913524Y-91770000D01*
X132961143Y-91817619D01*
X133913524Y-92722381D02*
X133342095Y-92722381D01*
X133627809Y-92722381D02*
X133627809Y-91722381D01*
X133532571Y-91865238D01*
X133437333Y-91960476D01*
X133342095Y-92008095D01*
X134532571Y-91722381D02*
X134627810Y-91722381D01*
X134723048Y-91770000D01*
X134770667Y-91817619D01*
X134818286Y-91912857D01*
X134865905Y-92103333D01*
X134865905Y-92341429D01*
X134818286Y-92531905D01*
X134770667Y-92627143D01*
X134723048Y-92674762D01*
X134627810Y-92722381D01*
X134532571Y-92722381D01*
X134437333Y-92674762D01*
X134389714Y-92627143D01*
X134342095Y-92531905D01*
X134294476Y-92341429D01*
X134294476Y-92103333D01*
X134342095Y-91912857D01*
X134389714Y-91817619D01*
X134437333Y-91770000D01*
X134532571Y-91722381D01*
X140438143Y-95384857D02*
X140485762Y-95432476D01*
X140533381Y-95575333D01*
X140533381Y-95670571D01*
X140485762Y-95813429D01*
X140390524Y-95908667D01*
X140295286Y-95956286D01*
X140104810Y-96003905D01*
X139961952Y-96003905D01*
X139771476Y-95956286D01*
X139676238Y-95908667D01*
X139581000Y-95813429D01*
X139533381Y-95670571D01*
X139533381Y-95575333D01*
X139581000Y-95432476D01*
X139628619Y-95384857D01*
X140533381Y-94432476D02*
X140533381Y-95003905D01*
X140533381Y-94718191D02*
X139533381Y-94718191D01*
X139676238Y-94813429D01*
X139771476Y-94908667D01*
X139819095Y-95003905D01*
X139628619Y-94051524D02*
X139581000Y-94003905D01*
X139533381Y-93908667D01*
X139533381Y-93670571D01*
X139581000Y-93575333D01*
X139628619Y-93527714D01*
X139723857Y-93480095D01*
X139819095Y-93480095D01*
X139961952Y-93527714D01*
X140533381Y-94099143D01*
X140533381Y-93480095D01*
X133215143Y-117900143D02*
X133167524Y-117947762D01*
X133024667Y-117995381D01*
X132929429Y-117995381D01*
X132786571Y-117947762D01*
X132691333Y-117852524D01*
X132643714Y-117757286D01*
X132596095Y-117566810D01*
X132596095Y-117423952D01*
X132643714Y-117233476D01*
X132691333Y-117138238D01*
X132786571Y-117043000D01*
X132929429Y-116995381D01*
X133024667Y-116995381D01*
X133167524Y-117043000D01*
X133215143Y-117090619D01*
X134167524Y-117995381D02*
X133596095Y-117995381D01*
X133881809Y-117995381D02*
X133881809Y-116995381D01*
X133786571Y-117138238D01*
X133691333Y-117233476D01*
X133596095Y-117281095D01*
X134500857Y-116995381D02*
X135119905Y-116995381D01*
X134786571Y-117376333D01*
X134929429Y-117376333D01*
X135024667Y-117423952D01*
X135072286Y-117471571D01*
X135119905Y-117566810D01*
X135119905Y-117804905D01*
X135072286Y-117900143D01*
X135024667Y-117947762D01*
X134929429Y-117995381D01*
X134643714Y-117995381D01*
X134548476Y-117947762D01*
X134500857Y-117900143D01*
M02*
