G04 #@! TF.FileFunction,Copper,L2,Bot,Signal*
%FSLAX46Y46*%
G04 Gerber Fmt 4.6, Leading zero omitted, Abs format (unit mm)*
G04 Created by KiCad (PCBNEW 4.0.0-2.201511301920+6191~38~ubuntu14.04.1-stable) date Thu 21 Jan 2016 01:29:08 PM ICT*
%MOMM*%
G01*
G04 APERTURE LIST*
%ADD10C,0.100000*%
%ADD11R,1.422400X0.899160*%
%ADD12R,0.398780X0.899160*%
%ADD13R,1.597660X0.698500*%
%ADD14R,1.399540X1.198880*%
%ADD15R,1.399540X1.597660*%
%ADD16R,2.199640X1.198880*%
%ADD17C,1.000000*%
%ADD18O,1.550000X1.000000*%
%ADD19R,1.727200X1.727200*%
%ADD20O,1.727200X1.727200*%
%ADD21C,4.064000*%
%ADD22C,1.397000*%
%ADD23C,1.400000*%
%ADD24R,1.000000X1.250000*%
%ADD25C,1.501140*%
%ADD26C,0.600000*%
%ADD27C,0.150000*%
%ADD28C,0.200000*%
%ADD29C,0.300000*%
%ADD30C,0.254000*%
G04 APERTURE END LIST*
D10*
D11*
X157426660Y-106057700D03*
D12*
X159024320Y-106705400D03*
X158424880Y-106705400D03*
X159024320Y-105410000D03*
X158424880Y-105410000D03*
X158074360Y-104460040D03*
X158074360Y-105059480D03*
X156778960Y-104460040D03*
X156778960Y-105059480D03*
X155829000Y-105410000D03*
X156428440Y-105410000D03*
X155829000Y-106705400D03*
X156428440Y-106705400D03*
X156778960Y-107655360D03*
X156778960Y-107055920D03*
X158074360Y-107655360D03*
X158074360Y-107055920D03*
D13*
X144208500Y-100238560D03*
X144208500Y-101338380D03*
X144208500Y-102438200D03*
X144208500Y-103535480D03*
X144208500Y-104635300D03*
X144208500Y-105735120D03*
X144208500Y-106834940D03*
X144208500Y-107934760D03*
X144208500Y-109034580D03*
D14*
X143583660Y-110236000D03*
D15*
X143583660Y-95638620D03*
D16*
X133985000Y-110236000D03*
X133985000Y-94736920D03*
D17*
X133583680Y-99438460D03*
X133583680Y-107439460D03*
D18*
X125862000Y-99437000D03*
X125862000Y-105062000D03*
D19*
X135567000Y-117942000D03*
D20*
X135567000Y-120482000D03*
X138107000Y-117942000D03*
X138107000Y-120482000D03*
X140647000Y-117942000D03*
X140647000Y-120482000D03*
X143187000Y-117942000D03*
X143187000Y-120482000D03*
X145727000Y-117942000D03*
X145727000Y-120482000D03*
X148267000Y-117942000D03*
X148267000Y-120482000D03*
X150807000Y-117942000D03*
X150807000Y-120482000D03*
X153347000Y-117942000D03*
X153347000Y-120482000D03*
X155887000Y-117942000D03*
X155887000Y-120482000D03*
X158427000Y-117942000D03*
X158427000Y-120482000D03*
D19*
X135557000Y-82892000D03*
D20*
X135557000Y-85432000D03*
X138097000Y-82892000D03*
X138097000Y-85432000D03*
X140637000Y-82892000D03*
X140637000Y-85432000D03*
X143177000Y-82892000D03*
X143177000Y-85432000D03*
X145717000Y-82892000D03*
X145717000Y-85432000D03*
X148257000Y-82892000D03*
X148257000Y-85432000D03*
X150797000Y-82892000D03*
X150797000Y-85432000D03*
X153337000Y-82892000D03*
X153337000Y-85432000D03*
X155877000Y-82892000D03*
X155877000Y-85432000D03*
X158417000Y-82892000D03*
X158417000Y-85432000D03*
D21*
X164900000Y-84000000D03*
X129300000Y-84000000D03*
X129200000Y-119600000D03*
X164700000Y-119600000D03*
D22*
X147193000Y-114300000D03*
X144653000Y-114300000D03*
D23*
X137767000Y-113792000D03*
X134267000Y-113792000D03*
D24*
X148717000Y-103886000D03*
X146717000Y-103886000D03*
D25*
X162687000Y-93726000D03*
X159639000Y-91694000D03*
X147701000Y-107950000D03*
X147193000Y-109728000D03*
X162941000Y-116586000D03*
X145161000Y-112014000D03*
X157861000Y-115570000D03*
X151003000Y-115570000D03*
D26*
X147847000Y-103842000D03*
X155194000Y-96774000D03*
X157372624Y-96733777D03*
X152753015Y-108246020D03*
X153293287Y-104971534D03*
X157812050Y-101485776D03*
X159512620Y-101354594D03*
X159473189Y-94618083D03*
X156283968Y-101703241D03*
X168402000Y-100584000D03*
X166624000Y-114808000D03*
X164846000Y-112014000D03*
X161755980Y-103886000D03*
X162381643Y-86438479D03*
X151765000Y-79837940D03*
X145669000Y-104902000D03*
X142367000Y-109982000D03*
X148463000Y-109474000D03*
X151765000Y-114300000D03*
X159385000Y-115316000D03*
X168529000Y-110998000D03*
X143583660Y-95638620D03*
X166116000Y-102870000D03*
X157480000Y-104902000D03*
X140970000Y-88392000D03*
X136271000Y-93472000D03*
X135890000Y-89916000D03*
X166581980Y-96774000D03*
X163695835Y-96624012D03*
X165608000Y-96774000D03*
X154576150Y-101538995D03*
X159224980Y-107696000D03*
X165608000Y-109220000D03*
X157122930Y-110094291D03*
X158496000Y-110998000D03*
X155309009Y-110307041D03*
X158550752Y-101356021D03*
X153313721Y-106686373D03*
X154940000Y-112522000D03*
X156464000Y-110490000D03*
X160319877Y-111203690D03*
X165608000Y-110176998D03*
X162814000Y-109982000D03*
X162560000Y-107696000D03*
X161281083Y-107699803D03*
X162086406Y-106008471D03*
X161446095Y-105056961D03*
X158653976Y-92380384D03*
X156718000Y-91186000D03*
X163371411Y-108185852D03*
X154100051Y-109721580D03*
X167894000Y-94234000D03*
D27*
X144208500Y-105735120D02*
X144658080Y-105735120D01*
X144658080Y-105735120D02*
X145222331Y-106299371D01*
X145222331Y-106299371D02*
X145222331Y-108470329D01*
X145222331Y-108470329D02*
X144658080Y-109034580D01*
X144658080Y-109034580D02*
X144208500Y-109034580D01*
X148717000Y-103886000D02*
X147891000Y-103886000D01*
X147891000Y-103886000D02*
X147847000Y-103842000D01*
X157372624Y-96733777D02*
X155234223Y-96733777D01*
X155234223Y-96733777D02*
X155194000Y-96774000D01*
D28*
X145669000Y-104902000D02*
X145369001Y-105201999D01*
X145369001Y-105201999D02*
X145369001Y-105573449D01*
X145207330Y-105735120D02*
X144208500Y-105735120D01*
X145369001Y-105573449D02*
X145207330Y-105735120D01*
D29*
X143583660Y-110236000D02*
X142621000Y-110236000D01*
X142621000Y-110236000D02*
X142367000Y-109982000D01*
D28*
X144208500Y-109034580D02*
X144208500Y-109611160D01*
X144208500Y-109611160D02*
X143583660Y-110236000D01*
D29*
X140970000Y-88392000D02*
X141800601Y-87561399D01*
X141800601Y-84268399D02*
X142313401Y-83755599D01*
X141800601Y-87561399D02*
X141800601Y-84268399D01*
X142313401Y-83755599D02*
X143177000Y-82892000D01*
D28*
X136271000Y-93472000D02*
X136570999Y-93771999D01*
X136570999Y-93771999D02*
X136570999Y-105709999D01*
X142367000Y-111506000D02*
X143510000Y-111506000D01*
X144533431Y-110482569D02*
X146304000Y-108712000D01*
X136570999Y-105709999D02*
X142367000Y-111506000D01*
X143510000Y-111506000D02*
X143930559Y-111085441D01*
X143930559Y-111085441D02*
X144483431Y-111085441D01*
X144483431Y-111085441D02*
X144533431Y-111035441D01*
X144533431Y-111035441D02*
X144533431Y-110482569D01*
X146304000Y-108712000D02*
X146304000Y-104299000D01*
X146304000Y-104299000D02*
X146717000Y-103886000D01*
D29*
X135890000Y-89916000D02*
X139473399Y-86332601D01*
X139473399Y-86332601D02*
X139473399Y-84055601D01*
X139473399Y-84055601D02*
X139773401Y-83755599D01*
X139773401Y-83755599D02*
X140637000Y-82892000D01*
D28*
X146717000Y-103886000D02*
X144559020Y-103886000D01*
X144559020Y-103886000D02*
X144208500Y-103535480D01*
X144208500Y-107934760D02*
X143758920Y-107934760D01*
X143758920Y-107934760D02*
X140716000Y-104891840D01*
X140716000Y-104891840D02*
X140716000Y-90433000D01*
X140716000Y-90433000D02*
X145717000Y-85432000D01*
X141478000Y-104554020D02*
X141478000Y-92211000D01*
X141478000Y-92211000D02*
X148257000Y-85432000D01*
X144208500Y-106834940D02*
X143758920Y-106834940D01*
X143758920Y-106834940D02*
X141478000Y-104554020D01*
X142240000Y-103116380D02*
X142240000Y-93989000D01*
X142240000Y-93989000D02*
X149933401Y-86295599D01*
X149933401Y-86295599D02*
X150797000Y-85432000D01*
X144208500Y-104635300D02*
X143758920Y-104635300D01*
X143758920Y-104635300D02*
X142240000Y-103116380D01*
X153337000Y-86653314D02*
X153337000Y-85432000D01*
X153337000Y-87833882D02*
X153337000Y-86653314D01*
X142651990Y-98518892D02*
X153337000Y-87833882D01*
X143758920Y-102438200D02*
X142651990Y-101331270D01*
X144208500Y-102438200D02*
X143758920Y-102438200D01*
X142651990Y-101331270D02*
X142651990Y-98518892D01*
X144208500Y-101338380D02*
X143502380Y-101338380D01*
X143502380Y-101338380D02*
X143002000Y-100838000D01*
X143002000Y-100838000D02*
X143002000Y-99528314D01*
X143002000Y-99528314D02*
X155877000Y-86653314D01*
X155877000Y-86653314D02*
X155877000Y-85432000D01*
X144208500Y-100238560D02*
X144208500Y-99640500D01*
X144208500Y-99640500D02*
X158417000Y-85432000D01*
X152502911Y-81087979D02*
X152756912Y-80833978D01*
X166281981Y-97073999D02*
X166581980Y-96774000D01*
X151602041Y-81087979D02*
X152502911Y-81087979D01*
X151261632Y-81428388D02*
X151602041Y-81087979D01*
X160974020Y-87919960D02*
X160782000Y-88111980D01*
X141986000Y-83517300D02*
X141986000Y-82434870D01*
X140637000Y-84866300D02*
X141986000Y-83517300D01*
X140637000Y-85432000D02*
X140637000Y-84866300D01*
X165565980Y-97790000D02*
X166281981Y-97073999D01*
X141986000Y-82434870D02*
X142642471Y-81778399D01*
X142642471Y-81778399D02*
X147227481Y-81778399D01*
X147577492Y-81428388D02*
X151261632Y-81428388D01*
X147227481Y-81778399D02*
X147577492Y-81428388D01*
X152756912Y-80833978D02*
X159547960Y-80833980D01*
X159547960Y-80833980D02*
X160974020Y-82260040D01*
X160974020Y-82260040D02*
X160974020Y-87919960D01*
X160782000Y-88111980D02*
X160782000Y-95504000D01*
X160782000Y-95504000D02*
X163068000Y-97790000D01*
X163068000Y-97790000D02*
X165565980Y-97790000D01*
X163395836Y-96324013D02*
X163695835Y-96624012D01*
X161628999Y-94557176D02*
X163395836Y-96324013D01*
X135557000Y-85432000D02*
X136670601Y-84318399D01*
X152756912Y-80133958D02*
X159837918Y-80133960D01*
X161628999Y-88254958D02*
X161628999Y-94557176D01*
X161831642Y-88052315D02*
X161628999Y-88254958D01*
X161831642Y-82127684D02*
X161831642Y-88052315D01*
X151312083Y-80387957D02*
X152212952Y-80387957D01*
X159837918Y-80133960D02*
X161831642Y-82127684D01*
X150971671Y-80728369D02*
X151312083Y-80387957D01*
X136670601Y-82670269D02*
X138612501Y-80728369D01*
X136670601Y-84318399D02*
X136670601Y-82670269D01*
X138612501Y-80728369D02*
X150971671Y-80728369D01*
X152466952Y-80133958D02*
X152756912Y-80133958D01*
X152212952Y-80387957D02*
X152466952Y-80133958D01*
X138960599Y-84568401D02*
X138097000Y-85432000D01*
X138960599Y-84002701D02*
X138960599Y-84568401D01*
X139446000Y-83517300D02*
X138960599Y-84002701D01*
X142741891Y-81183989D02*
X142391880Y-81534000D01*
X152357931Y-80737968D02*
X151457062Y-80737968D01*
X161324031Y-82115061D02*
X159692938Y-80483970D01*
X142391880Y-81534000D02*
X139954000Y-81534000D01*
X152611931Y-80483969D02*
X152357931Y-80737968D01*
X139954000Y-81534000D02*
X139446000Y-82042000D01*
X161324031Y-88064939D02*
X161324031Y-82115061D01*
X161132011Y-94838011D02*
X161132011Y-88256959D01*
X163576000Y-97282000D02*
X161132011Y-94838011D01*
X165100000Y-97282000D02*
X163576000Y-97282000D01*
X165608000Y-96774000D02*
X165100000Y-97282000D01*
X151457062Y-80737968D02*
X151116653Y-81078377D01*
X159692938Y-80483970D02*
X152611931Y-80483969D01*
X147432513Y-81078377D02*
X147326901Y-81183989D01*
X161132011Y-88256959D02*
X161324031Y-88064939D01*
X147326901Y-81183989D02*
X142741891Y-81183989D01*
X139446000Y-82042000D02*
X139446000Y-83517300D01*
X151116653Y-81078377D02*
X147432513Y-81078377D01*
X158763010Y-84074000D02*
X159530601Y-84841591D01*
X149439000Y-84074000D02*
X158763010Y-84074000D01*
X159530601Y-84841591D02*
X159530601Y-85966529D01*
X154576150Y-101114731D02*
X154576150Y-101538995D01*
X159530601Y-85966529D02*
X154576150Y-90920980D01*
X154576150Y-90920980D02*
X154576150Y-101114731D01*
X148257000Y-82892000D02*
X149439000Y-84074000D01*
X165608000Y-109220000D02*
X160748980Y-109220000D01*
X160748980Y-109220000D02*
X159224980Y-107696000D01*
X157122930Y-110518555D02*
X157122930Y-110094291D01*
X155169203Y-113092001D02*
X157122930Y-111138274D01*
X157122930Y-111138274D02*
X157122930Y-110518555D01*
X138466999Y-113092001D02*
X155169203Y-113092001D01*
X137767000Y-113792000D02*
X138466999Y-113092001D01*
D27*
X158496000Y-110998000D02*
X157861000Y-111633000D01*
X157861000Y-111633000D02*
X157861000Y-115570000D01*
D28*
X157734000Y-96295951D02*
X157912625Y-96474576D01*
X157912625Y-98614365D02*
X155309009Y-101217981D01*
X155309009Y-101217981D02*
X155309009Y-109882777D01*
X157734000Y-91199010D02*
X157734000Y-96295951D01*
X155309009Y-109882777D02*
X155309009Y-110307041D01*
X159608011Y-89324999D02*
X157734000Y-91199010D01*
X160624010Y-87774980D02*
X159608011Y-88790979D01*
X152638891Y-81446989D02*
X152901891Y-81183989D01*
X159402980Y-81183990D02*
X160624011Y-82405021D01*
X160624011Y-82405021D02*
X160624010Y-87774980D01*
X152901891Y-81183989D02*
X159402980Y-81183990D01*
X151738021Y-81446989D02*
X152638891Y-81446989D01*
X146608870Y-82892000D02*
X147722471Y-81778399D01*
X147722471Y-81778399D02*
X151406611Y-81778399D01*
X151406611Y-81778399D02*
X151738021Y-81446989D01*
X159608011Y-88790979D02*
X159608011Y-89324999D01*
X157912625Y-96474576D02*
X157912625Y-98614365D01*
X145717000Y-82892000D02*
X146608870Y-82892000D01*
X159639000Y-91694000D02*
X158219940Y-91694000D01*
X158103970Y-94521700D02*
X158891294Y-95309024D01*
X158103970Y-91578030D02*
X158103970Y-94521700D01*
X158850159Y-101056614D02*
X158550752Y-101356021D01*
X158850159Y-95350159D02*
X158850159Y-101056614D01*
X158891294Y-95309024D02*
X158850159Y-95350159D01*
X158219940Y-91694000D02*
X158103970Y-91578030D01*
D27*
X153313721Y-106686373D02*
X153013722Y-106986372D01*
X153013722Y-106986372D02*
X152601628Y-106986372D01*
X152601628Y-106986372D02*
X147828000Y-111760000D01*
X147828000Y-111760000D02*
X145669000Y-111760000D01*
X156464000Y-110998000D02*
X154940000Y-112522000D01*
X156464000Y-110490000D02*
X156464000Y-110998000D01*
X160319877Y-111203690D02*
X162941000Y-113824813D01*
X162941000Y-113824813D02*
X162941000Y-116586000D01*
D28*
X162814000Y-109982000D02*
X165413002Y-109982000D01*
X165413002Y-109982000D02*
X165608000Y-110176998D01*
X161281083Y-107699803D02*
X162556197Y-107699803D01*
X162556197Y-107699803D02*
X162560000Y-107696000D01*
X161446095Y-105056961D02*
X161746094Y-105356960D01*
X161746094Y-105356960D02*
X161746094Y-105668159D01*
X161746094Y-105668159D02*
X162086406Y-106008471D01*
X163371411Y-99294151D02*
X158653976Y-94576716D01*
X163371411Y-108185852D02*
X163371411Y-99294151D01*
X158653976Y-94576716D02*
X158653976Y-92804648D01*
X158653976Y-92804648D02*
X158653976Y-92380384D01*
X160274000Y-87630000D02*
X157017999Y-90886001D01*
X151892000Y-81797000D02*
X152783871Y-81796999D01*
X160274000Y-82550000D02*
X160274000Y-87630000D01*
X159258000Y-81534000D02*
X160274000Y-82550000D01*
X152783871Y-81796999D02*
X153046870Y-81534000D01*
X153046870Y-81534000D02*
X159258000Y-81534000D01*
X150797000Y-82892000D02*
X151892000Y-81797000D01*
X157017999Y-90886001D02*
X156718000Y-91186000D01*
X154811249Y-110857042D02*
X154100051Y-110145844D01*
X154100051Y-110145844D02*
X154100051Y-109721580D01*
X158896189Y-108966000D02*
X156464000Y-108966000D01*
X160674189Y-110744000D02*
X158896189Y-108966000D01*
X166370000Y-110744000D02*
X160674189Y-110744000D01*
X167132000Y-109982000D02*
X166370000Y-110744000D01*
X167132000Y-94996000D02*
X167132000Y-109982000D01*
X167894000Y-94234000D02*
X167132000Y-94996000D01*
X155573010Y-110857042D02*
X154811249Y-110857042D01*
X155859010Y-110571042D02*
X155573010Y-110857042D01*
X155859010Y-109570990D02*
X155859010Y-110571042D01*
X156464000Y-108966000D02*
X155859010Y-109570990D01*
D30*
G36*
X166379180Y-80013368D02*
X167894276Y-81025723D01*
X168906632Y-82540820D01*
X169173000Y-83879943D01*
X169173000Y-119828057D01*
X168906632Y-121167180D01*
X167894276Y-122682277D01*
X166379180Y-123694632D01*
X164552405Y-124058000D01*
X129579595Y-124058000D01*
X127752820Y-123694632D01*
X126237723Y-122682276D01*
X125225368Y-121167180D01*
X125006564Y-120067176D01*
X126840591Y-120067176D01*
X127198971Y-120934521D01*
X127861989Y-121598697D01*
X128728707Y-121958590D01*
X129667176Y-121959409D01*
X130534521Y-121601029D01*
X131198697Y-120938011D01*
X131238968Y-120841026D01*
X134112042Y-120841026D01*
X134284312Y-121256947D01*
X134678510Y-121688821D01*
X135207973Y-121936968D01*
X135440000Y-121816469D01*
X135440000Y-120609000D01*
X134233183Y-120609000D01*
X134112042Y-120841026D01*
X131238968Y-120841026D01*
X131537130Y-120122974D01*
X134112042Y-120122974D01*
X134233183Y-120355000D01*
X135440000Y-120355000D01*
X135440000Y-120335000D01*
X135694000Y-120335000D01*
X135694000Y-120355000D01*
X135714000Y-120355000D01*
X135714000Y-120609000D01*
X135694000Y-120609000D01*
X135694000Y-121816469D01*
X135926027Y-121936968D01*
X136455490Y-121688821D01*
X136849688Y-121256947D01*
X136983134Y-120934760D01*
X136983704Y-120937623D01*
X137241794Y-121323881D01*
X137628052Y-121581971D01*
X138083675Y-121672600D01*
X138130325Y-121672600D01*
X138585948Y-121581971D01*
X138972206Y-121323881D01*
X139230296Y-120937623D01*
X139320925Y-120482000D01*
X139433075Y-120482000D01*
X139523704Y-120937623D01*
X139781794Y-121323881D01*
X140168052Y-121581971D01*
X140623675Y-121672600D01*
X140670325Y-121672600D01*
X141125948Y-121581971D01*
X141512206Y-121323881D01*
X141770296Y-120937623D01*
X141860925Y-120482000D01*
X141973075Y-120482000D01*
X142063704Y-120937623D01*
X142321794Y-121323881D01*
X142708052Y-121581971D01*
X143163675Y-121672600D01*
X143210325Y-121672600D01*
X143665948Y-121581971D01*
X144052206Y-121323881D01*
X144310296Y-120937623D01*
X144400925Y-120482000D01*
X144513075Y-120482000D01*
X144603704Y-120937623D01*
X144861794Y-121323881D01*
X145248052Y-121581971D01*
X145703675Y-121672600D01*
X145750325Y-121672600D01*
X146205948Y-121581971D01*
X146592206Y-121323881D01*
X146850296Y-120937623D01*
X146940925Y-120482000D01*
X147053075Y-120482000D01*
X147143704Y-120937623D01*
X147401794Y-121323881D01*
X147788052Y-121581971D01*
X148243675Y-121672600D01*
X148290325Y-121672600D01*
X148745948Y-121581971D01*
X149132206Y-121323881D01*
X149390296Y-120937623D01*
X149480925Y-120482000D01*
X149593075Y-120482000D01*
X149683704Y-120937623D01*
X149941794Y-121323881D01*
X150328052Y-121581971D01*
X150783675Y-121672600D01*
X150830325Y-121672600D01*
X151285948Y-121581971D01*
X151672206Y-121323881D01*
X151930296Y-120937623D01*
X152020925Y-120482000D01*
X152133075Y-120482000D01*
X152223704Y-120937623D01*
X152481794Y-121323881D01*
X152868052Y-121581971D01*
X153323675Y-121672600D01*
X153370325Y-121672600D01*
X153825948Y-121581971D01*
X154212206Y-121323881D01*
X154470296Y-120937623D01*
X154560925Y-120482000D01*
X154673075Y-120482000D01*
X154763704Y-120937623D01*
X155021794Y-121323881D01*
X155408052Y-121581971D01*
X155863675Y-121672600D01*
X155910325Y-121672600D01*
X156365948Y-121581971D01*
X156752206Y-121323881D01*
X157010296Y-120937623D01*
X157100925Y-120482000D01*
X157213075Y-120482000D01*
X157303704Y-120937623D01*
X157561794Y-121323881D01*
X157948052Y-121581971D01*
X158403675Y-121672600D01*
X158450325Y-121672600D01*
X158905948Y-121581971D01*
X159292206Y-121323881D01*
X159550296Y-120937623D01*
X159640925Y-120482000D01*
X159558412Y-120067176D01*
X162340591Y-120067176D01*
X162698971Y-120934521D01*
X163361989Y-121598697D01*
X164228707Y-121958590D01*
X165167176Y-121959409D01*
X166034521Y-121601029D01*
X166698697Y-120938011D01*
X167058590Y-120071293D01*
X167059409Y-119132824D01*
X166701029Y-118265479D01*
X166038011Y-117601303D01*
X165171293Y-117241410D01*
X164232824Y-117240591D01*
X163365479Y-117598971D01*
X162701303Y-118261989D01*
X162341410Y-119128707D01*
X162340591Y-120067176D01*
X159558412Y-120067176D01*
X159550296Y-120026377D01*
X159292206Y-119640119D01*
X158905948Y-119382029D01*
X158450325Y-119291400D01*
X158403675Y-119291400D01*
X157948052Y-119382029D01*
X157561794Y-119640119D01*
X157303704Y-120026377D01*
X157213075Y-120482000D01*
X157100925Y-120482000D01*
X157010296Y-120026377D01*
X156752206Y-119640119D01*
X156365948Y-119382029D01*
X155910325Y-119291400D01*
X155863675Y-119291400D01*
X155408052Y-119382029D01*
X155021794Y-119640119D01*
X154763704Y-120026377D01*
X154673075Y-120482000D01*
X154560925Y-120482000D01*
X154470296Y-120026377D01*
X154212206Y-119640119D01*
X153825948Y-119382029D01*
X153370325Y-119291400D01*
X153323675Y-119291400D01*
X152868052Y-119382029D01*
X152481794Y-119640119D01*
X152223704Y-120026377D01*
X152133075Y-120482000D01*
X152020925Y-120482000D01*
X151930296Y-120026377D01*
X151672206Y-119640119D01*
X151285948Y-119382029D01*
X150830325Y-119291400D01*
X150783675Y-119291400D01*
X150328052Y-119382029D01*
X149941794Y-119640119D01*
X149683704Y-120026377D01*
X149593075Y-120482000D01*
X149480925Y-120482000D01*
X149390296Y-120026377D01*
X149132206Y-119640119D01*
X148745948Y-119382029D01*
X148290325Y-119291400D01*
X148243675Y-119291400D01*
X147788052Y-119382029D01*
X147401794Y-119640119D01*
X147143704Y-120026377D01*
X147053075Y-120482000D01*
X146940925Y-120482000D01*
X146850296Y-120026377D01*
X146592206Y-119640119D01*
X146205948Y-119382029D01*
X145750325Y-119291400D01*
X145703675Y-119291400D01*
X145248052Y-119382029D01*
X144861794Y-119640119D01*
X144603704Y-120026377D01*
X144513075Y-120482000D01*
X144400925Y-120482000D01*
X144310296Y-120026377D01*
X144052206Y-119640119D01*
X143665948Y-119382029D01*
X143210325Y-119291400D01*
X143163675Y-119291400D01*
X142708052Y-119382029D01*
X142321794Y-119640119D01*
X142063704Y-120026377D01*
X141973075Y-120482000D01*
X141860925Y-120482000D01*
X141770296Y-120026377D01*
X141512206Y-119640119D01*
X141125948Y-119382029D01*
X140670325Y-119291400D01*
X140623675Y-119291400D01*
X140168052Y-119382029D01*
X139781794Y-119640119D01*
X139523704Y-120026377D01*
X139433075Y-120482000D01*
X139320925Y-120482000D01*
X139230296Y-120026377D01*
X138972206Y-119640119D01*
X138585948Y-119382029D01*
X138130325Y-119291400D01*
X138083675Y-119291400D01*
X137628052Y-119382029D01*
X137241794Y-119640119D01*
X136983704Y-120026377D01*
X136983134Y-120029240D01*
X136849688Y-119707053D01*
X136455490Y-119275179D01*
X136164942Y-119139006D01*
X136430600Y-119139006D01*
X136551779Y-119116205D01*
X136663074Y-119044588D01*
X136737738Y-118935314D01*
X136764006Y-118805600D01*
X136764006Y-117942000D01*
X136893075Y-117942000D01*
X136983704Y-118397623D01*
X137241794Y-118783881D01*
X137628052Y-119041971D01*
X138083675Y-119132600D01*
X138130325Y-119132600D01*
X138585948Y-119041971D01*
X138972206Y-118783881D01*
X139230296Y-118397623D01*
X139320925Y-117942000D01*
X139433075Y-117942000D01*
X139523704Y-118397623D01*
X139781794Y-118783881D01*
X140168052Y-119041971D01*
X140623675Y-119132600D01*
X140670325Y-119132600D01*
X141125948Y-119041971D01*
X141512206Y-118783881D01*
X141770296Y-118397623D01*
X141860925Y-117942000D01*
X141973075Y-117942000D01*
X142063704Y-118397623D01*
X142321794Y-118783881D01*
X142708052Y-119041971D01*
X143163675Y-119132600D01*
X143210325Y-119132600D01*
X143665948Y-119041971D01*
X144052206Y-118783881D01*
X144310296Y-118397623D01*
X144400925Y-117942000D01*
X144513075Y-117942000D01*
X144603704Y-118397623D01*
X144861794Y-118783881D01*
X145248052Y-119041971D01*
X145703675Y-119132600D01*
X145750325Y-119132600D01*
X146205948Y-119041971D01*
X146592206Y-118783881D01*
X146850296Y-118397623D01*
X146940925Y-117942000D01*
X147053075Y-117942000D01*
X147143704Y-118397623D01*
X147401794Y-118783881D01*
X147788052Y-119041971D01*
X148243675Y-119132600D01*
X148290325Y-119132600D01*
X148745948Y-119041971D01*
X149132206Y-118783881D01*
X149390296Y-118397623D01*
X149480925Y-117942000D01*
X149593075Y-117942000D01*
X149683704Y-118397623D01*
X149941794Y-118783881D01*
X150328052Y-119041971D01*
X150783675Y-119132600D01*
X150830325Y-119132600D01*
X151285948Y-119041971D01*
X151672206Y-118783881D01*
X151930296Y-118397623D01*
X152020925Y-117942000D01*
X152133075Y-117942000D01*
X152223704Y-118397623D01*
X152481794Y-118783881D01*
X152868052Y-119041971D01*
X153323675Y-119132600D01*
X153370325Y-119132600D01*
X153825948Y-119041971D01*
X154212206Y-118783881D01*
X154470296Y-118397623D01*
X154560925Y-117942000D01*
X154673075Y-117942000D01*
X154763704Y-118397623D01*
X155021794Y-118783881D01*
X155408052Y-119041971D01*
X155863675Y-119132600D01*
X155910325Y-119132600D01*
X156365948Y-119041971D01*
X156752206Y-118783881D01*
X157010296Y-118397623D01*
X157100925Y-117942000D01*
X157213075Y-117942000D01*
X157303704Y-118397623D01*
X157561794Y-118783881D01*
X157948052Y-119041971D01*
X158403675Y-119132600D01*
X158450325Y-119132600D01*
X158905948Y-119041971D01*
X159292206Y-118783881D01*
X159550296Y-118397623D01*
X159640925Y-117942000D01*
X159550296Y-117486377D01*
X159292206Y-117100119D01*
X158905948Y-116842029D01*
X158450325Y-116751400D01*
X158403675Y-116751400D01*
X157948052Y-116842029D01*
X157561794Y-117100119D01*
X157303704Y-117486377D01*
X157213075Y-117942000D01*
X157100925Y-117942000D01*
X157010296Y-117486377D01*
X156752206Y-117100119D01*
X156365948Y-116842029D01*
X155910325Y-116751400D01*
X155863675Y-116751400D01*
X155408052Y-116842029D01*
X155021794Y-117100119D01*
X154763704Y-117486377D01*
X154673075Y-117942000D01*
X154560925Y-117942000D01*
X154470296Y-117486377D01*
X154212206Y-117100119D01*
X153825948Y-116842029D01*
X153370325Y-116751400D01*
X153323675Y-116751400D01*
X152868052Y-116842029D01*
X152481794Y-117100119D01*
X152223704Y-117486377D01*
X152133075Y-117942000D01*
X152020925Y-117942000D01*
X151930296Y-117486377D01*
X151672206Y-117100119D01*
X151285948Y-116842029D01*
X150830325Y-116751400D01*
X150783675Y-116751400D01*
X150328052Y-116842029D01*
X149941794Y-117100119D01*
X149683704Y-117486377D01*
X149593075Y-117942000D01*
X149480925Y-117942000D01*
X149390296Y-117486377D01*
X149132206Y-117100119D01*
X148745948Y-116842029D01*
X148290325Y-116751400D01*
X148243675Y-116751400D01*
X147788052Y-116842029D01*
X147401794Y-117100119D01*
X147143704Y-117486377D01*
X147053075Y-117942000D01*
X146940925Y-117942000D01*
X146850296Y-117486377D01*
X146592206Y-117100119D01*
X146205948Y-116842029D01*
X145750325Y-116751400D01*
X145703675Y-116751400D01*
X145248052Y-116842029D01*
X144861794Y-117100119D01*
X144603704Y-117486377D01*
X144513075Y-117942000D01*
X144400925Y-117942000D01*
X144310296Y-117486377D01*
X144052206Y-117100119D01*
X143665948Y-116842029D01*
X143210325Y-116751400D01*
X143163675Y-116751400D01*
X142708052Y-116842029D01*
X142321794Y-117100119D01*
X142063704Y-117486377D01*
X141973075Y-117942000D01*
X141860925Y-117942000D01*
X141770296Y-117486377D01*
X141512206Y-117100119D01*
X141125948Y-116842029D01*
X140670325Y-116751400D01*
X140623675Y-116751400D01*
X140168052Y-116842029D01*
X139781794Y-117100119D01*
X139523704Y-117486377D01*
X139433075Y-117942000D01*
X139320925Y-117942000D01*
X139230296Y-117486377D01*
X138972206Y-117100119D01*
X138585948Y-116842029D01*
X138130325Y-116751400D01*
X138083675Y-116751400D01*
X137628052Y-116842029D01*
X137241794Y-117100119D01*
X136983704Y-117486377D01*
X136893075Y-117942000D01*
X136764006Y-117942000D01*
X136764006Y-117078400D01*
X136741205Y-116957221D01*
X136669588Y-116845926D01*
X136560314Y-116771262D01*
X136430600Y-116744994D01*
X134703400Y-116744994D01*
X134582221Y-116767795D01*
X134470926Y-116839412D01*
X134396262Y-116948686D01*
X134369994Y-117078400D01*
X134369994Y-118805600D01*
X134392795Y-118926779D01*
X134464412Y-119038074D01*
X134573686Y-119112738D01*
X134703400Y-119139006D01*
X134969058Y-119139006D01*
X134678510Y-119275179D01*
X134284312Y-119707053D01*
X134112042Y-120122974D01*
X131537130Y-120122974D01*
X131558590Y-120071293D01*
X131559409Y-119132824D01*
X131201029Y-118265479D01*
X130538011Y-117601303D01*
X129671293Y-117241410D01*
X128732824Y-117240591D01*
X127865479Y-117598971D01*
X127201303Y-118261989D01*
X126841410Y-119128707D01*
X126840591Y-120067176D01*
X125006564Y-120067176D01*
X124862000Y-119340405D01*
X124862000Y-115783402D01*
X149925243Y-115783402D01*
X150088948Y-116179597D01*
X150391809Y-116482987D01*
X150787718Y-116647383D01*
X151216402Y-116647757D01*
X151612597Y-116484052D01*
X151915987Y-116181191D01*
X152080383Y-115785282D01*
X152080384Y-115783402D01*
X156783243Y-115783402D01*
X156946948Y-116179597D01*
X157249809Y-116482987D01*
X157645718Y-116647383D01*
X158074402Y-116647757D01*
X158470597Y-116484052D01*
X158773987Y-116181191D01*
X158938383Y-115785282D01*
X158938757Y-115356598D01*
X158775052Y-114960403D01*
X158472191Y-114657013D01*
X158263000Y-114570149D01*
X158263000Y-111799514D01*
X158437565Y-111624949D01*
X158620171Y-111625109D01*
X158850703Y-111529855D01*
X159027235Y-111353631D01*
X159122891Y-111123265D01*
X159123109Y-110873829D01*
X159027855Y-110643297D01*
X158851631Y-110466765D01*
X158621265Y-110371109D01*
X158371829Y-110370891D01*
X158141297Y-110466145D01*
X157964765Y-110642369D01*
X157869109Y-110872735D01*
X157868948Y-111056538D01*
X157576743Y-111348743D01*
X157489600Y-111479161D01*
X157459000Y-111633000D01*
X157459000Y-114570170D01*
X157251403Y-114655948D01*
X156948013Y-114958809D01*
X156783617Y-115354718D01*
X156783243Y-115783402D01*
X152080384Y-115783402D01*
X152080757Y-115356598D01*
X151917052Y-114960403D01*
X151614191Y-114657013D01*
X151218282Y-114492617D01*
X150789598Y-114492243D01*
X150393403Y-114655948D01*
X150090013Y-114958809D01*
X149925617Y-115354718D01*
X149925243Y-115783402D01*
X124862000Y-115783402D01*
X124862000Y-115234188D01*
X143898417Y-115234188D01*
X143960071Y-115469800D01*
X144460480Y-115645927D01*
X144990199Y-115617148D01*
X145345929Y-115469800D01*
X145407583Y-115234188D01*
X144653000Y-114479605D01*
X143898417Y-115234188D01*
X124862000Y-115234188D01*
X124862000Y-114727275D01*
X133511331Y-114727275D01*
X133573169Y-114963042D01*
X134074122Y-115139419D01*
X134604440Y-115110664D01*
X134960831Y-114963042D01*
X135022669Y-114727275D01*
X134267000Y-113971605D01*
X133511331Y-114727275D01*
X124862000Y-114727275D01*
X124862000Y-113599122D01*
X132919581Y-113599122D01*
X132948336Y-114129440D01*
X133095958Y-114485831D01*
X133331725Y-114547669D01*
X134087395Y-113792000D01*
X134446605Y-113792000D01*
X135202275Y-114547669D01*
X135438042Y-114485831D01*
X135614419Y-113984878D01*
X135585664Y-113454560D01*
X135438042Y-113098169D01*
X135202275Y-113036331D01*
X134446605Y-113792000D01*
X134087395Y-113792000D01*
X133331725Y-113036331D01*
X133095958Y-113098169D01*
X132919581Y-113599122D01*
X124862000Y-113599122D01*
X124862000Y-112856725D01*
X133511331Y-112856725D01*
X134267000Y-113612395D01*
X135022669Y-112856725D01*
X134960831Y-112620958D01*
X134459878Y-112444581D01*
X133929560Y-112473336D01*
X133573169Y-112620958D01*
X133511331Y-112856725D01*
X124862000Y-112856725D01*
X124862000Y-110521750D01*
X132250180Y-110521750D01*
X132250180Y-110961749D01*
X132346853Y-111195138D01*
X132525481Y-111373767D01*
X132758870Y-111470440D01*
X133699250Y-111470440D01*
X133858000Y-111311690D01*
X133858000Y-110363000D01*
X134112000Y-110363000D01*
X134112000Y-111311690D01*
X134270750Y-111470440D01*
X135211130Y-111470440D01*
X135444519Y-111373767D01*
X135623147Y-111195138D01*
X135719820Y-110961749D01*
X135719820Y-110521750D01*
X135561070Y-110363000D01*
X134112000Y-110363000D01*
X133858000Y-110363000D01*
X132408930Y-110363000D01*
X132250180Y-110521750D01*
X124862000Y-110521750D01*
X124862000Y-109510251D01*
X132250180Y-109510251D01*
X132250180Y-109950250D01*
X132408930Y-110109000D01*
X133858000Y-110109000D01*
X133858000Y-109160310D01*
X134112000Y-109160310D01*
X134112000Y-110109000D01*
X135561070Y-110109000D01*
X135719820Y-109950250D01*
X135719820Y-109510251D01*
X135623147Y-109276862D01*
X135444519Y-109098233D01*
X135211130Y-109001560D01*
X134270750Y-109001560D01*
X134112000Y-109160310D01*
X133858000Y-109160310D01*
X133699250Y-109001560D01*
X132758870Y-109001560D01*
X132525481Y-109098233D01*
X132346853Y-109276862D01*
X132250180Y-109510251D01*
X124862000Y-109510251D01*
X124862000Y-107603239D01*
X132756537Y-107603239D01*
X132882175Y-107907306D01*
X133114610Y-108140148D01*
X133418458Y-108266316D01*
X133747459Y-108266603D01*
X134051526Y-108140965D01*
X134284368Y-107908530D01*
X134410536Y-107604682D01*
X134410823Y-107275681D01*
X134285185Y-106971614D01*
X134052750Y-106738772D01*
X133748902Y-106612604D01*
X133419901Y-106612317D01*
X133115834Y-106737955D01*
X132882992Y-106970390D01*
X132756824Y-107274238D01*
X132756537Y-107603239D01*
X124862000Y-107603239D01*
X124862000Y-105915873D01*
X125035322Y-106062002D01*
X125460000Y-106197000D01*
X125735000Y-106197000D01*
X125735000Y-105189000D01*
X125989000Y-105189000D01*
X125989000Y-106197000D01*
X126264000Y-106197000D01*
X126688678Y-106062002D01*
X127029368Y-105774763D01*
X127231119Y-105363874D01*
X127104954Y-105189000D01*
X125989000Y-105189000D01*
X125735000Y-105189000D01*
X125715000Y-105189000D01*
X125715000Y-104935000D01*
X125735000Y-104935000D01*
X125735000Y-103927000D01*
X125989000Y-103927000D01*
X125989000Y-104935000D01*
X127104954Y-104935000D01*
X127231119Y-104760126D01*
X127047503Y-104386171D01*
X127384891Y-104386171D01*
X127480145Y-104616703D01*
X127656369Y-104793235D01*
X127886735Y-104888891D01*
X128136171Y-104889109D01*
X128366703Y-104793855D01*
X128543235Y-104617631D01*
X128638891Y-104387265D01*
X128639109Y-104137829D01*
X128543855Y-103907297D01*
X128367631Y-103730765D01*
X128137265Y-103635109D01*
X127887829Y-103634891D01*
X127657297Y-103730145D01*
X127480765Y-103906369D01*
X127385109Y-104136735D01*
X127384891Y-104386171D01*
X127047503Y-104386171D01*
X127029368Y-104349237D01*
X126688678Y-104061998D01*
X126264000Y-103927000D01*
X125989000Y-103927000D01*
X125735000Y-103927000D01*
X125460000Y-103927000D01*
X125035322Y-104061998D01*
X124862000Y-104208127D01*
X124862000Y-100290873D01*
X125035322Y-100437002D01*
X125460000Y-100572000D01*
X125735000Y-100572000D01*
X125735000Y-99564000D01*
X125989000Y-99564000D01*
X125989000Y-100572000D01*
X126264000Y-100572000D01*
X126688678Y-100437002D01*
X126748967Y-100386171D01*
X127384891Y-100386171D01*
X127480145Y-100616703D01*
X127656369Y-100793235D01*
X127886735Y-100888891D01*
X128136171Y-100889109D01*
X128366703Y-100793855D01*
X128543235Y-100617631D01*
X128638891Y-100387265D01*
X128639109Y-100137829D01*
X128543855Y-99907297D01*
X128367631Y-99730765D01*
X128137265Y-99635109D01*
X127887829Y-99634891D01*
X127657297Y-99730145D01*
X127480765Y-99906369D01*
X127385109Y-100136735D01*
X127384891Y-100386171D01*
X126748967Y-100386171D01*
X127029368Y-100149763D01*
X127231119Y-99738874D01*
X127132542Y-99602239D01*
X132756537Y-99602239D01*
X132882175Y-99906306D01*
X133114610Y-100139148D01*
X133418458Y-100265316D01*
X133747459Y-100265603D01*
X134051526Y-100139965D01*
X134284368Y-99907530D01*
X134410536Y-99603682D01*
X134410823Y-99274681D01*
X134285185Y-98970614D01*
X134052750Y-98737772D01*
X133748902Y-98611604D01*
X133419901Y-98611317D01*
X133115834Y-98736955D01*
X132882992Y-98969390D01*
X132756824Y-99273238D01*
X132756537Y-99602239D01*
X127132542Y-99602239D01*
X127104954Y-99564000D01*
X125989000Y-99564000D01*
X125735000Y-99564000D01*
X125715000Y-99564000D01*
X125715000Y-99310000D01*
X125735000Y-99310000D01*
X125735000Y-98302000D01*
X125989000Y-98302000D01*
X125989000Y-99310000D01*
X127104954Y-99310000D01*
X127231119Y-99135126D01*
X127029368Y-98724237D01*
X126688678Y-98436998D01*
X126264000Y-98302000D01*
X125989000Y-98302000D01*
X125735000Y-98302000D01*
X125460000Y-98302000D01*
X125035322Y-98436998D01*
X124862000Y-98583127D01*
X124862000Y-94137480D01*
X132551774Y-94137480D01*
X132551774Y-95336360D01*
X132574575Y-95457539D01*
X132646192Y-95568834D01*
X132755466Y-95643498D01*
X132885180Y-95669766D01*
X135084820Y-95669766D01*
X135205999Y-95646965D01*
X135317294Y-95575348D01*
X135391958Y-95466074D01*
X135418226Y-95336360D01*
X135418226Y-94137480D01*
X135395425Y-94016301D01*
X135323808Y-93905006D01*
X135214534Y-93830342D01*
X135084820Y-93804074D01*
X132885180Y-93804074D01*
X132764001Y-93826875D01*
X132652706Y-93898492D01*
X132578042Y-94007766D01*
X132551774Y-94137480D01*
X124862000Y-94137480D01*
X124862000Y-84467176D01*
X126940591Y-84467176D01*
X127298971Y-85334521D01*
X127961989Y-85998697D01*
X128828707Y-86358590D01*
X129767176Y-86359409D01*
X130634521Y-86001029D01*
X131204543Y-85432000D01*
X134343075Y-85432000D01*
X134433704Y-85887623D01*
X134691794Y-86273881D01*
X135078052Y-86531971D01*
X135533675Y-86622600D01*
X135580325Y-86622600D01*
X136035948Y-86531971D01*
X136422206Y-86273881D01*
X136680296Y-85887623D01*
X136770925Y-85432000D01*
X136680296Y-84976377D01*
X136654740Y-84938130D01*
X136972533Y-84620336D01*
X136972536Y-84620334D01*
X137065098Y-84481805D01*
X137097602Y-84318399D01*
X137097601Y-84318394D01*
X137097601Y-83533047D01*
X137231794Y-83733881D01*
X137618052Y-83991971D01*
X138073675Y-84082600D01*
X138120325Y-84082600D01*
X138534076Y-84000300D01*
X138533598Y-84002701D01*
X138533599Y-84002706D01*
X138533599Y-84323605D01*
X138120325Y-84241400D01*
X138073675Y-84241400D01*
X137618052Y-84332029D01*
X137231794Y-84590119D01*
X136973704Y-84976377D01*
X136883075Y-85432000D01*
X136973704Y-85887623D01*
X137231794Y-86273881D01*
X137618052Y-86531971D01*
X138073675Y-86622600D01*
X138120325Y-86622600D01*
X138575948Y-86531971D01*
X138646773Y-86484647D01*
X135842462Y-89288958D01*
X135765829Y-89288891D01*
X135535297Y-89384145D01*
X135358765Y-89560369D01*
X135263109Y-89790735D01*
X135262891Y-90040171D01*
X135358145Y-90270703D01*
X135534369Y-90447235D01*
X135764735Y-90542891D01*
X136014171Y-90543109D01*
X136244703Y-90447855D01*
X136421235Y-90271631D01*
X136516891Y-90041265D01*
X136516959Y-89963621D01*
X139810689Y-86669891D01*
X139914090Y-86515142D01*
X139939756Y-86386110D01*
X140158052Y-86531971D01*
X140613675Y-86622600D01*
X140660325Y-86622600D01*
X141115948Y-86531971D01*
X141323601Y-86393221D01*
X141323601Y-87363819D01*
X140922462Y-87764958D01*
X140845829Y-87764891D01*
X140615297Y-87860145D01*
X140438765Y-88036369D01*
X140343109Y-88266735D01*
X140342891Y-88516171D01*
X140438145Y-88746703D01*
X140614369Y-88923235D01*
X140844735Y-89018891D01*
X141094171Y-89019109D01*
X141324703Y-88923855D01*
X141501235Y-88747631D01*
X141596891Y-88517265D01*
X141596959Y-88439621D01*
X142137891Y-87898689D01*
X142241292Y-87743939D01*
X142277601Y-87561399D01*
X142277601Y-86222708D01*
X142311794Y-86273881D01*
X142698052Y-86531971D01*
X143153675Y-86622600D01*
X143200325Y-86622600D01*
X143655948Y-86531971D01*
X144042206Y-86273881D01*
X144300296Y-85887623D01*
X144390925Y-85432000D01*
X144300296Y-84976377D01*
X144042206Y-84590119D01*
X143655948Y-84332029D01*
X143200325Y-84241400D01*
X143153675Y-84241400D01*
X142698052Y-84332029D01*
X142311794Y-84590119D01*
X142277601Y-84641292D01*
X142277601Y-84465979D01*
X142742723Y-84000857D01*
X143153675Y-84082600D01*
X143200325Y-84082600D01*
X143655948Y-83991971D01*
X144042206Y-83733881D01*
X144300296Y-83347623D01*
X144390925Y-82892000D01*
X144300296Y-82436377D01*
X144145961Y-82205399D01*
X144748039Y-82205399D01*
X144593704Y-82436377D01*
X144503075Y-82892000D01*
X144593704Y-83347623D01*
X144851794Y-83733881D01*
X145238052Y-83991971D01*
X145693675Y-84082600D01*
X145740325Y-84082600D01*
X146195948Y-83991971D01*
X146582206Y-83733881D01*
X146840296Y-83347623D01*
X146864745Y-83224712D01*
X146910805Y-83193935D01*
X147071224Y-83033516D01*
X147133704Y-83347623D01*
X147391794Y-83733881D01*
X147778052Y-83991971D01*
X148233675Y-84082600D01*
X148280325Y-84082600D01*
X148735948Y-83991971D01*
X148746231Y-83985100D01*
X149137063Y-84375932D01*
X149137065Y-84375935D01*
X149275594Y-84468497D01*
X149439000Y-84501000D01*
X150065170Y-84501000D01*
X149931794Y-84590119D01*
X149673704Y-84976377D01*
X149583075Y-85432000D01*
X149673704Y-85887623D01*
X149699260Y-85925870D01*
X141938065Y-93687065D01*
X141905000Y-93736550D01*
X141905000Y-92387870D01*
X147767769Y-86525100D01*
X147778052Y-86531971D01*
X148233675Y-86622600D01*
X148280325Y-86622600D01*
X148735948Y-86531971D01*
X149122206Y-86273881D01*
X149380296Y-85887623D01*
X149470925Y-85432000D01*
X149380296Y-84976377D01*
X149122206Y-84590119D01*
X148735948Y-84332029D01*
X148280325Y-84241400D01*
X148233675Y-84241400D01*
X147778052Y-84332029D01*
X147391794Y-84590119D01*
X147133704Y-84976377D01*
X147043075Y-85432000D01*
X147133704Y-85887623D01*
X147159260Y-85925871D01*
X141176065Y-91909065D01*
X141143000Y-91958550D01*
X141143000Y-90609870D01*
X145227770Y-86525100D01*
X145238052Y-86531971D01*
X145693675Y-86622600D01*
X145740325Y-86622600D01*
X146195948Y-86531971D01*
X146582206Y-86273881D01*
X146840296Y-85887623D01*
X146930925Y-85432000D01*
X146840296Y-84976377D01*
X146582206Y-84590119D01*
X146195948Y-84332029D01*
X145740325Y-84241400D01*
X145693675Y-84241400D01*
X145238052Y-84332029D01*
X144851794Y-84590119D01*
X144593704Y-84976377D01*
X144503075Y-85432000D01*
X144593704Y-85887623D01*
X144619260Y-85925870D01*
X140414065Y-90131065D01*
X140321503Y-90269594D01*
X140288999Y-90433000D01*
X140289000Y-90433005D01*
X140289000Y-104891835D01*
X140288999Y-104891840D01*
X140321503Y-105055246D01*
X140414065Y-105193775D01*
X143076264Y-107855973D01*
X143076264Y-108136112D01*
X143049971Y-108147003D01*
X142871343Y-108325632D01*
X142774670Y-108559021D01*
X142774670Y-108748830D01*
X142933418Y-108907578D01*
X142774670Y-108907578D01*
X142774670Y-109001560D01*
X142757580Y-109001560D01*
X142524191Y-109098233D01*
X142345563Y-109276862D01*
X142248890Y-109510251D01*
X142248890Y-109950250D01*
X142407640Y-110109000D01*
X143456660Y-110109000D01*
X143456660Y-110018830D01*
X143710660Y-110018830D01*
X143710660Y-110109000D01*
X143730660Y-110109000D01*
X143730660Y-110363000D01*
X143710660Y-110363000D01*
X143710660Y-110383000D01*
X143456660Y-110383000D01*
X143456660Y-110363000D01*
X142407640Y-110363000D01*
X142248890Y-110521750D01*
X142248890Y-110784021D01*
X136997999Y-105533129D01*
X136997999Y-93772004D01*
X136998000Y-93771999D01*
X136965496Y-93608593D01*
X136956081Y-93594503D01*
X136897969Y-93507532D01*
X136898109Y-93347829D01*
X136802855Y-93117297D01*
X136626631Y-92940765D01*
X136396265Y-92845109D01*
X136146829Y-92844891D01*
X135916297Y-92940145D01*
X135739765Y-93116369D01*
X135644109Y-93346735D01*
X135643891Y-93596171D01*
X135739145Y-93826703D01*
X135915369Y-94003235D01*
X136143999Y-94098170D01*
X136143999Y-105709994D01*
X136143998Y-105709999D01*
X136176502Y-105873405D01*
X136269064Y-106011934D01*
X142065063Y-111807932D01*
X142065065Y-111807935D01*
X142203594Y-111900497D01*
X142367000Y-111933000D01*
X143509995Y-111933000D01*
X143510000Y-111933001D01*
X143673406Y-111900497D01*
X143811935Y-111807935D01*
X144107428Y-111512441D01*
X144202490Y-111512441D01*
X144083617Y-111798718D01*
X144083243Y-112227402D01*
X144246948Y-112623597D01*
X144288280Y-112665001D01*
X138467004Y-112665001D01*
X138466999Y-112665000D01*
X138303593Y-112697504D01*
X138165064Y-112790066D01*
X138126056Y-112829074D01*
X137972179Y-112765179D01*
X137563613Y-112764822D01*
X137186011Y-112920844D01*
X136896860Y-113209492D01*
X136740179Y-113586821D01*
X136739822Y-113995387D01*
X136895844Y-114372989D01*
X137184492Y-114662140D01*
X137561821Y-114818821D01*
X137970387Y-114819178D01*
X138347989Y-114663156D01*
X138637140Y-114374508D01*
X138793821Y-113997179D01*
X138794178Y-113588613D01*
X138765415Y-113519001D01*
X143692393Y-113519001D01*
X143718810Y-113545418D01*
X143483200Y-113607071D01*
X143307073Y-114107480D01*
X143335852Y-114637199D01*
X143483200Y-114992929D01*
X143718812Y-115054583D01*
X144473395Y-114300000D01*
X144459253Y-114285858D01*
X144638858Y-114106253D01*
X144653000Y-114120395D01*
X144667143Y-114106253D01*
X144846748Y-114285858D01*
X144832605Y-114300000D01*
X145587188Y-115054583D01*
X145822800Y-114992929D01*
X145998927Y-114492520D01*
X145970148Y-113962801D01*
X145822800Y-113607071D01*
X145587190Y-113545418D01*
X145613607Y-113519001D01*
X146523820Y-113519001D01*
X146324130Y-113718342D01*
X146167678Y-114095120D01*
X146167322Y-114503090D01*
X146323116Y-114880140D01*
X146611342Y-115168870D01*
X146988120Y-115325322D01*
X147396090Y-115325678D01*
X147773140Y-115169884D01*
X148061870Y-114881658D01*
X148218322Y-114504880D01*
X148218678Y-114096910D01*
X148062884Y-113719860D01*
X147862376Y-113519001D01*
X155169198Y-113519001D01*
X155169203Y-113519002D01*
X155332609Y-113486498D01*
X155471138Y-113393936D01*
X157424862Y-111440211D01*
X157424865Y-111440209D01*
X157517427Y-111301680D01*
X157549930Y-111138274D01*
X157549930Y-110553975D01*
X157654165Y-110449922D01*
X157749821Y-110219556D01*
X157750039Y-109970120D01*
X157654785Y-109739588D01*
X157478561Y-109563056D01*
X157248195Y-109467400D01*
X156998759Y-109467182D01*
X156768227Y-109562436D01*
X156591695Y-109738660D01*
X156540037Y-109863066D01*
X156339829Y-109862891D01*
X156286010Y-109885129D01*
X156286010Y-109747860D01*
X156640870Y-109393000D01*
X158719319Y-109393000D01*
X159988512Y-110662192D01*
X159965174Y-110671835D01*
X159788642Y-110848059D01*
X159692986Y-111078425D01*
X159692768Y-111327861D01*
X159788022Y-111558393D01*
X159964246Y-111734925D01*
X160194612Y-111830581D01*
X160378415Y-111830742D01*
X162539000Y-113991327D01*
X162539000Y-115586170D01*
X162331403Y-115671948D01*
X162028013Y-115974809D01*
X161863617Y-116370718D01*
X161863243Y-116799402D01*
X162026948Y-117195597D01*
X162329809Y-117498987D01*
X162725718Y-117663383D01*
X163154402Y-117663757D01*
X163550597Y-117500052D01*
X163853987Y-117197191D01*
X164018383Y-116801282D01*
X164018757Y-116372598D01*
X163855052Y-115976403D01*
X163552191Y-115673013D01*
X163343000Y-115586149D01*
X163343000Y-113824813D01*
X163312400Y-113670974D01*
X163225257Y-113540556D01*
X160946826Y-111262125D01*
X160946906Y-111171000D01*
X166369995Y-111171000D01*
X166370000Y-111171001D01*
X166533406Y-111138497D01*
X166671935Y-111045935D01*
X167433932Y-110283937D01*
X167433935Y-110283935D01*
X167526497Y-110145406D01*
X167531829Y-110118600D01*
X167559001Y-109982000D01*
X167559000Y-109981995D01*
X167559000Y-95172870D01*
X167870889Y-94860980D01*
X168018171Y-94861109D01*
X168248703Y-94765855D01*
X168425235Y-94589631D01*
X168520891Y-94359265D01*
X168521109Y-94109829D01*
X168425855Y-93879297D01*
X168249631Y-93702765D01*
X168019265Y-93607109D01*
X167769829Y-93606891D01*
X167539297Y-93702145D01*
X167362765Y-93878369D01*
X167267109Y-94108735D01*
X167266979Y-94257151D01*
X166830065Y-94694065D01*
X166737503Y-94832594D01*
X166704999Y-94996000D01*
X166705000Y-94996005D01*
X166705000Y-96147107D01*
X166457809Y-96146891D01*
X166227277Y-96242145D01*
X166094914Y-96374277D01*
X165963631Y-96242765D01*
X165733265Y-96147109D01*
X165483829Y-96146891D01*
X165253297Y-96242145D01*
X165076765Y-96418369D01*
X164981109Y-96648735D01*
X164980979Y-96797151D01*
X164923130Y-96855000D01*
X164278826Y-96855000D01*
X164322726Y-96749277D01*
X164322944Y-96499841D01*
X164227690Y-96269309D01*
X164051466Y-96092777D01*
X163821100Y-95997121D01*
X163672683Y-95996991D01*
X162479082Y-94803389D01*
X162900402Y-94803757D01*
X163296597Y-94640052D01*
X163599987Y-94337191D01*
X163764383Y-93941282D01*
X163764757Y-93512598D01*
X163601052Y-93116403D01*
X163298191Y-92813013D01*
X162902282Y-92648617D01*
X162473598Y-92648243D01*
X162077403Y-92811948D01*
X162055999Y-92833315D01*
X162055999Y-88431827D01*
X162133574Y-88354252D01*
X162133577Y-88354250D01*
X162226139Y-88215721D01*
X162258642Y-88052315D01*
X162258642Y-84467176D01*
X162540591Y-84467176D01*
X162898971Y-85334521D01*
X163561989Y-85998697D01*
X164428707Y-86358590D01*
X165367176Y-86359409D01*
X166234521Y-86001029D01*
X166898697Y-85338011D01*
X167258590Y-84471293D01*
X167259409Y-83532824D01*
X166901029Y-82665479D01*
X166238011Y-82001303D01*
X165371293Y-81641410D01*
X164432824Y-81640591D01*
X163565479Y-81998971D01*
X162901303Y-82661989D01*
X162541410Y-83528707D01*
X162540591Y-84467176D01*
X162258642Y-84467176D01*
X162258642Y-82127689D01*
X162258643Y-82127684D01*
X162226139Y-81964278D01*
X162182312Y-81898686D01*
X162133577Y-81825749D01*
X162133574Y-81825747D01*
X160139853Y-79832025D01*
X160001324Y-79739463D01*
X159837918Y-79706959D01*
X159837913Y-79706960D01*
X152756912Y-79706958D01*
X152466958Y-79706958D01*
X152466953Y-79706957D01*
X152303547Y-79739460D01*
X152165018Y-79832022D01*
X152036083Y-79960957D01*
X151312083Y-79960957D01*
X151148677Y-79993460D01*
X151010148Y-80086022D01*
X151010146Y-80086025D01*
X150794801Y-80301369D01*
X138612501Y-80301369D01*
X138449095Y-80333872D01*
X138310566Y-80426434D01*
X138310564Y-80426437D01*
X136746815Y-81990185D01*
X136731205Y-81907221D01*
X136659588Y-81795926D01*
X136550314Y-81721262D01*
X136420600Y-81694994D01*
X134693400Y-81694994D01*
X134572221Y-81717795D01*
X134460926Y-81789412D01*
X134386262Y-81898686D01*
X134359994Y-82028400D01*
X134359994Y-83755600D01*
X134382795Y-83876779D01*
X134454412Y-83988074D01*
X134563686Y-84062738D01*
X134693400Y-84089006D01*
X136243601Y-84089006D01*
X136243601Y-84141530D01*
X136046231Y-84338900D01*
X136035948Y-84332029D01*
X135580325Y-84241400D01*
X135533675Y-84241400D01*
X135078052Y-84332029D01*
X134691794Y-84590119D01*
X134433704Y-84976377D01*
X134343075Y-85432000D01*
X131204543Y-85432000D01*
X131298697Y-85338011D01*
X131658590Y-84471293D01*
X131659409Y-83532824D01*
X131301029Y-82665479D01*
X130638011Y-82001303D01*
X129771293Y-81641410D01*
X128832824Y-81640591D01*
X127965479Y-81998971D01*
X127301303Y-82661989D01*
X126941410Y-83528707D01*
X126940591Y-84467176D01*
X124862000Y-84467176D01*
X124862000Y-84367595D01*
X125225368Y-82540820D01*
X126237723Y-81025724D01*
X127752820Y-80013368D01*
X129579595Y-79650000D01*
X164552405Y-79650000D01*
X166379180Y-80013368D01*
X166379180Y-80013368D01*
G37*
X166379180Y-80013368D02*
X167894276Y-81025723D01*
X168906632Y-82540820D01*
X169173000Y-83879943D01*
X169173000Y-119828057D01*
X168906632Y-121167180D01*
X167894276Y-122682277D01*
X166379180Y-123694632D01*
X164552405Y-124058000D01*
X129579595Y-124058000D01*
X127752820Y-123694632D01*
X126237723Y-122682276D01*
X125225368Y-121167180D01*
X125006564Y-120067176D01*
X126840591Y-120067176D01*
X127198971Y-120934521D01*
X127861989Y-121598697D01*
X128728707Y-121958590D01*
X129667176Y-121959409D01*
X130534521Y-121601029D01*
X131198697Y-120938011D01*
X131238968Y-120841026D01*
X134112042Y-120841026D01*
X134284312Y-121256947D01*
X134678510Y-121688821D01*
X135207973Y-121936968D01*
X135440000Y-121816469D01*
X135440000Y-120609000D01*
X134233183Y-120609000D01*
X134112042Y-120841026D01*
X131238968Y-120841026D01*
X131537130Y-120122974D01*
X134112042Y-120122974D01*
X134233183Y-120355000D01*
X135440000Y-120355000D01*
X135440000Y-120335000D01*
X135694000Y-120335000D01*
X135694000Y-120355000D01*
X135714000Y-120355000D01*
X135714000Y-120609000D01*
X135694000Y-120609000D01*
X135694000Y-121816469D01*
X135926027Y-121936968D01*
X136455490Y-121688821D01*
X136849688Y-121256947D01*
X136983134Y-120934760D01*
X136983704Y-120937623D01*
X137241794Y-121323881D01*
X137628052Y-121581971D01*
X138083675Y-121672600D01*
X138130325Y-121672600D01*
X138585948Y-121581971D01*
X138972206Y-121323881D01*
X139230296Y-120937623D01*
X139320925Y-120482000D01*
X139433075Y-120482000D01*
X139523704Y-120937623D01*
X139781794Y-121323881D01*
X140168052Y-121581971D01*
X140623675Y-121672600D01*
X140670325Y-121672600D01*
X141125948Y-121581971D01*
X141512206Y-121323881D01*
X141770296Y-120937623D01*
X141860925Y-120482000D01*
X141973075Y-120482000D01*
X142063704Y-120937623D01*
X142321794Y-121323881D01*
X142708052Y-121581971D01*
X143163675Y-121672600D01*
X143210325Y-121672600D01*
X143665948Y-121581971D01*
X144052206Y-121323881D01*
X144310296Y-120937623D01*
X144400925Y-120482000D01*
X144513075Y-120482000D01*
X144603704Y-120937623D01*
X144861794Y-121323881D01*
X145248052Y-121581971D01*
X145703675Y-121672600D01*
X145750325Y-121672600D01*
X146205948Y-121581971D01*
X146592206Y-121323881D01*
X146850296Y-120937623D01*
X146940925Y-120482000D01*
X147053075Y-120482000D01*
X147143704Y-120937623D01*
X147401794Y-121323881D01*
X147788052Y-121581971D01*
X148243675Y-121672600D01*
X148290325Y-121672600D01*
X148745948Y-121581971D01*
X149132206Y-121323881D01*
X149390296Y-120937623D01*
X149480925Y-120482000D01*
X149593075Y-120482000D01*
X149683704Y-120937623D01*
X149941794Y-121323881D01*
X150328052Y-121581971D01*
X150783675Y-121672600D01*
X150830325Y-121672600D01*
X151285948Y-121581971D01*
X151672206Y-121323881D01*
X151930296Y-120937623D01*
X152020925Y-120482000D01*
X152133075Y-120482000D01*
X152223704Y-120937623D01*
X152481794Y-121323881D01*
X152868052Y-121581971D01*
X153323675Y-121672600D01*
X153370325Y-121672600D01*
X153825948Y-121581971D01*
X154212206Y-121323881D01*
X154470296Y-120937623D01*
X154560925Y-120482000D01*
X154673075Y-120482000D01*
X154763704Y-120937623D01*
X155021794Y-121323881D01*
X155408052Y-121581971D01*
X155863675Y-121672600D01*
X155910325Y-121672600D01*
X156365948Y-121581971D01*
X156752206Y-121323881D01*
X157010296Y-120937623D01*
X157100925Y-120482000D01*
X157213075Y-120482000D01*
X157303704Y-120937623D01*
X157561794Y-121323881D01*
X157948052Y-121581971D01*
X158403675Y-121672600D01*
X158450325Y-121672600D01*
X158905948Y-121581971D01*
X159292206Y-121323881D01*
X159550296Y-120937623D01*
X159640925Y-120482000D01*
X159558412Y-120067176D01*
X162340591Y-120067176D01*
X162698971Y-120934521D01*
X163361989Y-121598697D01*
X164228707Y-121958590D01*
X165167176Y-121959409D01*
X166034521Y-121601029D01*
X166698697Y-120938011D01*
X167058590Y-120071293D01*
X167059409Y-119132824D01*
X166701029Y-118265479D01*
X166038011Y-117601303D01*
X165171293Y-117241410D01*
X164232824Y-117240591D01*
X163365479Y-117598971D01*
X162701303Y-118261989D01*
X162341410Y-119128707D01*
X162340591Y-120067176D01*
X159558412Y-120067176D01*
X159550296Y-120026377D01*
X159292206Y-119640119D01*
X158905948Y-119382029D01*
X158450325Y-119291400D01*
X158403675Y-119291400D01*
X157948052Y-119382029D01*
X157561794Y-119640119D01*
X157303704Y-120026377D01*
X157213075Y-120482000D01*
X157100925Y-120482000D01*
X157010296Y-120026377D01*
X156752206Y-119640119D01*
X156365948Y-119382029D01*
X155910325Y-119291400D01*
X155863675Y-119291400D01*
X155408052Y-119382029D01*
X155021794Y-119640119D01*
X154763704Y-120026377D01*
X154673075Y-120482000D01*
X154560925Y-120482000D01*
X154470296Y-120026377D01*
X154212206Y-119640119D01*
X153825948Y-119382029D01*
X153370325Y-119291400D01*
X153323675Y-119291400D01*
X152868052Y-119382029D01*
X152481794Y-119640119D01*
X152223704Y-120026377D01*
X152133075Y-120482000D01*
X152020925Y-120482000D01*
X151930296Y-120026377D01*
X151672206Y-119640119D01*
X151285948Y-119382029D01*
X150830325Y-119291400D01*
X150783675Y-119291400D01*
X150328052Y-119382029D01*
X149941794Y-119640119D01*
X149683704Y-120026377D01*
X149593075Y-120482000D01*
X149480925Y-120482000D01*
X149390296Y-120026377D01*
X149132206Y-119640119D01*
X148745948Y-119382029D01*
X148290325Y-119291400D01*
X148243675Y-119291400D01*
X147788052Y-119382029D01*
X147401794Y-119640119D01*
X147143704Y-120026377D01*
X147053075Y-120482000D01*
X146940925Y-120482000D01*
X146850296Y-120026377D01*
X146592206Y-119640119D01*
X146205948Y-119382029D01*
X145750325Y-119291400D01*
X145703675Y-119291400D01*
X145248052Y-119382029D01*
X144861794Y-119640119D01*
X144603704Y-120026377D01*
X144513075Y-120482000D01*
X144400925Y-120482000D01*
X144310296Y-120026377D01*
X144052206Y-119640119D01*
X143665948Y-119382029D01*
X143210325Y-119291400D01*
X143163675Y-119291400D01*
X142708052Y-119382029D01*
X142321794Y-119640119D01*
X142063704Y-120026377D01*
X141973075Y-120482000D01*
X141860925Y-120482000D01*
X141770296Y-120026377D01*
X141512206Y-119640119D01*
X141125948Y-119382029D01*
X140670325Y-119291400D01*
X140623675Y-119291400D01*
X140168052Y-119382029D01*
X139781794Y-119640119D01*
X139523704Y-120026377D01*
X139433075Y-120482000D01*
X139320925Y-120482000D01*
X139230296Y-120026377D01*
X138972206Y-119640119D01*
X138585948Y-119382029D01*
X138130325Y-119291400D01*
X138083675Y-119291400D01*
X137628052Y-119382029D01*
X137241794Y-119640119D01*
X136983704Y-120026377D01*
X136983134Y-120029240D01*
X136849688Y-119707053D01*
X136455490Y-119275179D01*
X136164942Y-119139006D01*
X136430600Y-119139006D01*
X136551779Y-119116205D01*
X136663074Y-119044588D01*
X136737738Y-118935314D01*
X136764006Y-118805600D01*
X136764006Y-117942000D01*
X136893075Y-117942000D01*
X136983704Y-118397623D01*
X137241794Y-118783881D01*
X137628052Y-119041971D01*
X138083675Y-119132600D01*
X138130325Y-119132600D01*
X138585948Y-119041971D01*
X138972206Y-118783881D01*
X139230296Y-118397623D01*
X139320925Y-117942000D01*
X139433075Y-117942000D01*
X139523704Y-118397623D01*
X139781794Y-118783881D01*
X140168052Y-119041971D01*
X140623675Y-119132600D01*
X140670325Y-119132600D01*
X141125948Y-119041971D01*
X141512206Y-118783881D01*
X141770296Y-118397623D01*
X141860925Y-117942000D01*
X141973075Y-117942000D01*
X142063704Y-118397623D01*
X142321794Y-118783881D01*
X142708052Y-119041971D01*
X143163675Y-119132600D01*
X143210325Y-119132600D01*
X143665948Y-119041971D01*
X144052206Y-118783881D01*
X144310296Y-118397623D01*
X144400925Y-117942000D01*
X144513075Y-117942000D01*
X144603704Y-118397623D01*
X144861794Y-118783881D01*
X145248052Y-119041971D01*
X145703675Y-119132600D01*
X145750325Y-119132600D01*
X146205948Y-119041971D01*
X146592206Y-118783881D01*
X146850296Y-118397623D01*
X146940925Y-117942000D01*
X147053075Y-117942000D01*
X147143704Y-118397623D01*
X147401794Y-118783881D01*
X147788052Y-119041971D01*
X148243675Y-119132600D01*
X148290325Y-119132600D01*
X148745948Y-119041971D01*
X149132206Y-118783881D01*
X149390296Y-118397623D01*
X149480925Y-117942000D01*
X149593075Y-117942000D01*
X149683704Y-118397623D01*
X149941794Y-118783881D01*
X150328052Y-119041971D01*
X150783675Y-119132600D01*
X150830325Y-119132600D01*
X151285948Y-119041971D01*
X151672206Y-118783881D01*
X151930296Y-118397623D01*
X152020925Y-117942000D01*
X152133075Y-117942000D01*
X152223704Y-118397623D01*
X152481794Y-118783881D01*
X152868052Y-119041971D01*
X153323675Y-119132600D01*
X153370325Y-119132600D01*
X153825948Y-119041971D01*
X154212206Y-118783881D01*
X154470296Y-118397623D01*
X154560925Y-117942000D01*
X154673075Y-117942000D01*
X154763704Y-118397623D01*
X155021794Y-118783881D01*
X155408052Y-119041971D01*
X155863675Y-119132600D01*
X155910325Y-119132600D01*
X156365948Y-119041971D01*
X156752206Y-118783881D01*
X157010296Y-118397623D01*
X157100925Y-117942000D01*
X157213075Y-117942000D01*
X157303704Y-118397623D01*
X157561794Y-118783881D01*
X157948052Y-119041971D01*
X158403675Y-119132600D01*
X158450325Y-119132600D01*
X158905948Y-119041971D01*
X159292206Y-118783881D01*
X159550296Y-118397623D01*
X159640925Y-117942000D01*
X159550296Y-117486377D01*
X159292206Y-117100119D01*
X158905948Y-116842029D01*
X158450325Y-116751400D01*
X158403675Y-116751400D01*
X157948052Y-116842029D01*
X157561794Y-117100119D01*
X157303704Y-117486377D01*
X157213075Y-117942000D01*
X157100925Y-117942000D01*
X157010296Y-117486377D01*
X156752206Y-117100119D01*
X156365948Y-116842029D01*
X155910325Y-116751400D01*
X155863675Y-116751400D01*
X155408052Y-116842029D01*
X155021794Y-117100119D01*
X154763704Y-117486377D01*
X154673075Y-117942000D01*
X154560925Y-117942000D01*
X154470296Y-117486377D01*
X154212206Y-117100119D01*
X153825948Y-116842029D01*
X153370325Y-116751400D01*
X153323675Y-116751400D01*
X152868052Y-116842029D01*
X152481794Y-117100119D01*
X152223704Y-117486377D01*
X152133075Y-117942000D01*
X152020925Y-117942000D01*
X151930296Y-117486377D01*
X151672206Y-117100119D01*
X151285948Y-116842029D01*
X150830325Y-116751400D01*
X150783675Y-116751400D01*
X150328052Y-116842029D01*
X149941794Y-117100119D01*
X149683704Y-117486377D01*
X149593075Y-117942000D01*
X149480925Y-117942000D01*
X149390296Y-117486377D01*
X149132206Y-117100119D01*
X148745948Y-116842029D01*
X148290325Y-116751400D01*
X148243675Y-116751400D01*
X147788052Y-116842029D01*
X147401794Y-117100119D01*
X147143704Y-117486377D01*
X147053075Y-117942000D01*
X146940925Y-117942000D01*
X146850296Y-117486377D01*
X146592206Y-117100119D01*
X146205948Y-116842029D01*
X145750325Y-116751400D01*
X145703675Y-116751400D01*
X145248052Y-116842029D01*
X144861794Y-117100119D01*
X144603704Y-117486377D01*
X144513075Y-117942000D01*
X144400925Y-117942000D01*
X144310296Y-117486377D01*
X144052206Y-117100119D01*
X143665948Y-116842029D01*
X143210325Y-116751400D01*
X143163675Y-116751400D01*
X142708052Y-116842029D01*
X142321794Y-117100119D01*
X142063704Y-117486377D01*
X141973075Y-117942000D01*
X141860925Y-117942000D01*
X141770296Y-117486377D01*
X141512206Y-117100119D01*
X141125948Y-116842029D01*
X140670325Y-116751400D01*
X140623675Y-116751400D01*
X140168052Y-116842029D01*
X139781794Y-117100119D01*
X139523704Y-117486377D01*
X139433075Y-117942000D01*
X139320925Y-117942000D01*
X139230296Y-117486377D01*
X138972206Y-117100119D01*
X138585948Y-116842029D01*
X138130325Y-116751400D01*
X138083675Y-116751400D01*
X137628052Y-116842029D01*
X137241794Y-117100119D01*
X136983704Y-117486377D01*
X136893075Y-117942000D01*
X136764006Y-117942000D01*
X136764006Y-117078400D01*
X136741205Y-116957221D01*
X136669588Y-116845926D01*
X136560314Y-116771262D01*
X136430600Y-116744994D01*
X134703400Y-116744994D01*
X134582221Y-116767795D01*
X134470926Y-116839412D01*
X134396262Y-116948686D01*
X134369994Y-117078400D01*
X134369994Y-118805600D01*
X134392795Y-118926779D01*
X134464412Y-119038074D01*
X134573686Y-119112738D01*
X134703400Y-119139006D01*
X134969058Y-119139006D01*
X134678510Y-119275179D01*
X134284312Y-119707053D01*
X134112042Y-120122974D01*
X131537130Y-120122974D01*
X131558590Y-120071293D01*
X131559409Y-119132824D01*
X131201029Y-118265479D01*
X130538011Y-117601303D01*
X129671293Y-117241410D01*
X128732824Y-117240591D01*
X127865479Y-117598971D01*
X127201303Y-118261989D01*
X126841410Y-119128707D01*
X126840591Y-120067176D01*
X125006564Y-120067176D01*
X124862000Y-119340405D01*
X124862000Y-115783402D01*
X149925243Y-115783402D01*
X150088948Y-116179597D01*
X150391809Y-116482987D01*
X150787718Y-116647383D01*
X151216402Y-116647757D01*
X151612597Y-116484052D01*
X151915987Y-116181191D01*
X152080383Y-115785282D01*
X152080384Y-115783402D01*
X156783243Y-115783402D01*
X156946948Y-116179597D01*
X157249809Y-116482987D01*
X157645718Y-116647383D01*
X158074402Y-116647757D01*
X158470597Y-116484052D01*
X158773987Y-116181191D01*
X158938383Y-115785282D01*
X158938757Y-115356598D01*
X158775052Y-114960403D01*
X158472191Y-114657013D01*
X158263000Y-114570149D01*
X158263000Y-111799514D01*
X158437565Y-111624949D01*
X158620171Y-111625109D01*
X158850703Y-111529855D01*
X159027235Y-111353631D01*
X159122891Y-111123265D01*
X159123109Y-110873829D01*
X159027855Y-110643297D01*
X158851631Y-110466765D01*
X158621265Y-110371109D01*
X158371829Y-110370891D01*
X158141297Y-110466145D01*
X157964765Y-110642369D01*
X157869109Y-110872735D01*
X157868948Y-111056538D01*
X157576743Y-111348743D01*
X157489600Y-111479161D01*
X157459000Y-111633000D01*
X157459000Y-114570170D01*
X157251403Y-114655948D01*
X156948013Y-114958809D01*
X156783617Y-115354718D01*
X156783243Y-115783402D01*
X152080384Y-115783402D01*
X152080757Y-115356598D01*
X151917052Y-114960403D01*
X151614191Y-114657013D01*
X151218282Y-114492617D01*
X150789598Y-114492243D01*
X150393403Y-114655948D01*
X150090013Y-114958809D01*
X149925617Y-115354718D01*
X149925243Y-115783402D01*
X124862000Y-115783402D01*
X124862000Y-115234188D01*
X143898417Y-115234188D01*
X143960071Y-115469800D01*
X144460480Y-115645927D01*
X144990199Y-115617148D01*
X145345929Y-115469800D01*
X145407583Y-115234188D01*
X144653000Y-114479605D01*
X143898417Y-115234188D01*
X124862000Y-115234188D01*
X124862000Y-114727275D01*
X133511331Y-114727275D01*
X133573169Y-114963042D01*
X134074122Y-115139419D01*
X134604440Y-115110664D01*
X134960831Y-114963042D01*
X135022669Y-114727275D01*
X134267000Y-113971605D01*
X133511331Y-114727275D01*
X124862000Y-114727275D01*
X124862000Y-113599122D01*
X132919581Y-113599122D01*
X132948336Y-114129440D01*
X133095958Y-114485831D01*
X133331725Y-114547669D01*
X134087395Y-113792000D01*
X134446605Y-113792000D01*
X135202275Y-114547669D01*
X135438042Y-114485831D01*
X135614419Y-113984878D01*
X135585664Y-113454560D01*
X135438042Y-113098169D01*
X135202275Y-113036331D01*
X134446605Y-113792000D01*
X134087395Y-113792000D01*
X133331725Y-113036331D01*
X133095958Y-113098169D01*
X132919581Y-113599122D01*
X124862000Y-113599122D01*
X124862000Y-112856725D01*
X133511331Y-112856725D01*
X134267000Y-113612395D01*
X135022669Y-112856725D01*
X134960831Y-112620958D01*
X134459878Y-112444581D01*
X133929560Y-112473336D01*
X133573169Y-112620958D01*
X133511331Y-112856725D01*
X124862000Y-112856725D01*
X124862000Y-110521750D01*
X132250180Y-110521750D01*
X132250180Y-110961749D01*
X132346853Y-111195138D01*
X132525481Y-111373767D01*
X132758870Y-111470440D01*
X133699250Y-111470440D01*
X133858000Y-111311690D01*
X133858000Y-110363000D01*
X134112000Y-110363000D01*
X134112000Y-111311690D01*
X134270750Y-111470440D01*
X135211130Y-111470440D01*
X135444519Y-111373767D01*
X135623147Y-111195138D01*
X135719820Y-110961749D01*
X135719820Y-110521750D01*
X135561070Y-110363000D01*
X134112000Y-110363000D01*
X133858000Y-110363000D01*
X132408930Y-110363000D01*
X132250180Y-110521750D01*
X124862000Y-110521750D01*
X124862000Y-109510251D01*
X132250180Y-109510251D01*
X132250180Y-109950250D01*
X132408930Y-110109000D01*
X133858000Y-110109000D01*
X133858000Y-109160310D01*
X134112000Y-109160310D01*
X134112000Y-110109000D01*
X135561070Y-110109000D01*
X135719820Y-109950250D01*
X135719820Y-109510251D01*
X135623147Y-109276862D01*
X135444519Y-109098233D01*
X135211130Y-109001560D01*
X134270750Y-109001560D01*
X134112000Y-109160310D01*
X133858000Y-109160310D01*
X133699250Y-109001560D01*
X132758870Y-109001560D01*
X132525481Y-109098233D01*
X132346853Y-109276862D01*
X132250180Y-109510251D01*
X124862000Y-109510251D01*
X124862000Y-107603239D01*
X132756537Y-107603239D01*
X132882175Y-107907306D01*
X133114610Y-108140148D01*
X133418458Y-108266316D01*
X133747459Y-108266603D01*
X134051526Y-108140965D01*
X134284368Y-107908530D01*
X134410536Y-107604682D01*
X134410823Y-107275681D01*
X134285185Y-106971614D01*
X134052750Y-106738772D01*
X133748902Y-106612604D01*
X133419901Y-106612317D01*
X133115834Y-106737955D01*
X132882992Y-106970390D01*
X132756824Y-107274238D01*
X132756537Y-107603239D01*
X124862000Y-107603239D01*
X124862000Y-105915873D01*
X125035322Y-106062002D01*
X125460000Y-106197000D01*
X125735000Y-106197000D01*
X125735000Y-105189000D01*
X125989000Y-105189000D01*
X125989000Y-106197000D01*
X126264000Y-106197000D01*
X126688678Y-106062002D01*
X127029368Y-105774763D01*
X127231119Y-105363874D01*
X127104954Y-105189000D01*
X125989000Y-105189000D01*
X125735000Y-105189000D01*
X125715000Y-105189000D01*
X125715000Y-104935000D01*
X125735000Y-104935000D01*
X125735000Y-103927000D01*
X125989000Y-103927000D01*
X125989000Y-104935000D01*
X127104954Y-104935000D01*
X127231119Y-104760126D01*
X127047503Y-104386171D01*
X127384891Y-104386171D01*
X127480145Y-104616703D01*
X127656369Y-104793235D01*
X127886735Y-104888891D01*
X128136171Y-104889109D01*
X128366703Y-104793855D01*
X128543235Y-104617631D01*
X128638891Y-104387265D01*
X128639109Y-104137829D01*
X128543855Y-103907297D01*
X128367631Y-103730765D01*
X128137265Y-103635109D01*
X127887829Y-103634891D01*
X127657297Y-103730145D01*
X127480765Y-103906369D01*
X127385109Y-104136735D01*
X127384891Y-104386171D01*
X127047503Y-104386171D01*
X127029368Y-104349237D01*
X126688678Y-104061998D01*
X126264000Y-103927000D01*
X125989000Y-103927000D01*
X125735000Y-103927000D01*
X125460000Y-103927000D01*
X125035322Y-104061998D01*
X124862000Y-104208127D01*
X124862000Y-100290873D01*
X125035322Y-100437002D01*
X125460000Y-100572000D01*
X125735000Y-100572000D01*
X125735000Y-99564000D01*
X125989000Y-99564000D01*
X125989000Y-100572000D01*
X126264000Y-100572000D01*
X126688678Y-100437002D01*
X126748967Y-100386171D01*
X127384891Y-100386171D01*
X127480145Y-100616703D01*
X127656369Y-100793235D01*
X127886735Y-100888891D01*
X128136171Y-100889109D01*
X128366703Y-100793855D01*
X128543235Y-100617631D01*
X128638891Y-100387265D01*
X128639109Y-100137829D01*
X128543855Y-99907297D01*
X128367631Y-99730765D01*
X128137265Y-99635109D01*
X127887829Y-99634891D01*
X127657297Y-99730145D01*
X127480765Y-99906369D01*
X127385109Y-100136735D01*
X127384891Y-100386171D01*
X126748967Y-100386171D01*
X127029368Y-100149763D01*
X127231119Y-99738874D01*
X127132542Y-99602239D01*
X132756537Y-99602239D01*
X132882175Y-99906306D01*
X133114610Y-100139148D01*
X133418458Y-100265316D01*
X133747459Y-100265603D01*
X134051526Y-100139965D01*
X134284368Y-99907530D01*
X134410536Y-99603682D01*
X134410823Y-99274681D01*
X134285185Y-98970614D01*
X134052750Y-98737772D01*
X133748902Y-98611604D01*
X133419901Y-98611317D01*
X133115834Y-98736955D01*
X132882992Y-98969390D01*
X132756824Y-99273238D01*
X132756537Y-99602239D01*
X127132542Y-99602239D01*
X127104954Y-99564000D01*
X125989000Y-99564000D01*
X125735000Y-99564000D01*
X125715000Y-99564000D01*
X125715000Y-99310000D01*
X125735000Y-99310000D01*
X125735000Y-98302000D01*
X125989000Y-98302000D01*
X125989000Y-99310000D01*
X127104954Y-99310000D01*
X127231119Y-99135126D01*
X127029368Y-98724237D01*
X126688678Y-98436998D01*
X126264000Y-98302000D01*
X125989000Y-98302000D01*
X125735000Y-98302000D01*
X125460000Y-98302000D01*
X125035322Y-98436998D01*
X124862000Y-98583127D01*
X124862000Y-94137480D01*
X132551774Y-94137480D01*
X132551774Y-95336360D01*
X132574575Y-95457539D01*
X132646192Y-95568834D01*
X132755466Y-95643498D01*
X132885180Y-95669766D01*
X135084820Y-95669766D01*
X135205999Y-95646965D01*
X135317294Y-95575348D01*
X135391958Y-95466074D01*
X135418226Y-95336360D01*
X135418226Y-94137480D01*
X135395425Y-94016301D01*
X135323808Y-93905006D01*
X135214534Y-93830342D01*
X135084820Y-93804074D01*
X132885180Y-93804074D01*
X132764001Y-93826875D01*
X132652706Y-93898492D01*
X132578042Y-94007766D01*
X132551774Y-94137480D01*
X124862000Y-94137480D01*
X124862000Y-84467176D01*
X126940591Y-84467176D01*
X127298971Y-85334521D01*
X127961989Y-85998697D01*
X128828707Y-86358590D01*
X129767176Y-86359409D01*
X130634521Y-86001029D01*
X131204543Y-85432000D01*
X134343075Y-85432000D01*
X134433704Y-85887623D01*
X134691794Y-86273881D01*
X135078052Y-86531971D01*
X135533675Y-86622600D01*
X135580325Y-86622600D01*
X136035948Y-86531971D01*
X136422206Y-86273881D01*
X136680296Y-85887623D01*
X136770925Y-85432000D01*
X136680296Y-84976377D01*
X136654740Y-84938130D01*
X136972533Y-84620336D01*
X136972536Y-84620334D01*
X137065098Y-84481805D01*
X137097602Y-84318399D01*
X137097601Y-84318394D01*
X137097601Y-83533047D01*
X137231794Y-83733881D01*
X137618052Y-83991971D01*
X138073675Y-84082600D01*
X138120325Y-84082600D01*
X138534076Y-84000300D01*
X138533598Y-84002701D01*
X138533599Y-84002706D01*
X138533599Y-84323605D01*
X138120325Y-84241400D01*
X138073675Y-84241400D01*
X137618052Y-84332029D01*
X137231794Y-84590119D01*
X136973704Y-84976377D01*
X136883075Y-85432000D01*
X136973704Y-85887623D01*
X137231794Y-86273881D01*
X137618052Y-86531971D01*
X138073675Y-86622600D01*
X138120325Y-86622600D01*
X138575948Y-86531971D01*
X138646773Y-86484647D01*
X135842462Y-89288958D01*
X135765829Y-89288891D01*
X135535297Y-89384145D01*
X135358765Y-89560369D01*
X135263109Y-89790735D01*
X135262891Y-90040171D01*
X135358145Y-90270703D01*
X135534369Y-90447235D01*
X135764735Y-90542891D01*
X136014171Y-90543109D01*
X136244703Y-90447855D01*
X136421235Y-90271631D01*
X136516891Y-90041265D01*
X136516959Y-89963621D01*
X139810689Y-86669891D01*
X139914090Y-86515142D01*
X139939756Y-86386110D01*
X140158052Y-86531971D01*
X140613675Y-86622600D01*
X140660325Y-86622600D01*
X141115948Y-86531971D01*
X141323601Y-86393221D01*
X141323601Y-87363819D01*
X140922462Y-87764958D01*
X140845829Y-87764891D01*
X140615297Y-87860145D01*
X140438765Y-88036369D01*
X140343109Y-88266735D01*
X140342891Y-88516171D01*
X140438145Y-88746703D01*
X140614369Y-88923235D01*
X140844735Y-89018891D01*
X141094171Y-89019109D01*
X141324703Y-88923855D01*
X141501235Y-88747631D01*
X141596891Y-88517265D01*
X141596959Y-88439621D01*
X142137891Y-87898689D01*
X142241292Y-87743939D01*
X142277601Y-87561399D01*
X142277601Y-86222708D01*
X142311794Y-86273881D01*
X142698052Y-86531971D01*
X143153675Y-86622600D01*
X143200325Y-86622600D01*
X143655948Y-86531971D01*
X144042206Y-86273881D01*
X144300296Y-85887623D01*
X144390925Y-85432000D01*
X144300296Y-84976377D01*
X144042206Y-84590119D01*
X143655948Y-84332029D01*
X143200325Y-84241400D01*
X143153675Y-84241400D01*
X142698052Y-84332029D01*
X142311794Y-84590119D01*
X142277601Y-84641292D01*
X142277601Y-84465979D01*
X142742723Y-84000857D01*
X143153675Y-84082600D01*
X143200325Y-84082600D01*
X143655948Y-83991971D01*
X144042206Y-83733881D01*
X144300296Y-83347623D01*
X144390925Y-82892000D01*
X144300296Y-82436377D01*
X144145961Y-82205399D01*
X144748039Y-82205399D01*
X144593704Y-82436377D01*
X144503075Y-82892000D01*
X144593704Y-83347623D01*
X144851794Y-83733881D01*
X145238052Y-83991971D01*
X145693675Y-84082600D01*
X145740325Y-84082600D01*
X146195948Y-83991971D01*
X146582206Y-83733881D01*
X146840296Y-83347623D01*
X146864745Y-83224712D01*
X146910805Y-83193935D01*
X147071224Y-83033516D01*
X147133704Y-83347623D01*
X147391794Y-83733881D01*
X147778052Y-83991971D01*
X148233675Y-84082600D01*
X148280325Y-84082600D01*
X148735948Y-83991971D01*
X148746231Y-83985100D01*
X149137063Y-84375932D01*
X149137065Y-84375935D01*
X149275594Y-84468497D01*
X149439000Y-84501000D01*
X150065170Y-84501000D01*
X149931794Y-84590119D01*
X149673704Y-84976377D01*
X149583075Y-85432000D01*
X149673704Y-85887623D01*
X149699260Y-85925870D01*
X141938065Y-93687065D01*
X141905000Y-93736550D01*
X141905000Y-92387870D01*
X147767769Y-86525100D01*
X147778052Y-86531971D01*
X148233675Y-86622600D01*
X148280325Y-86622600D01*
X148735948Y-86531971D01*
X149122206Y-86273881D01*
X149380296Y-85887623D01*
X149470925Y-85432000D01*
X149380296Y-84976377D01*
X149122206Y-84590119D01*
X148735948Y-84332029D01*
X148280325Y-84241400D01*
X148233675Y-84241400D01*
X147778052Y-84332029D01*
X147391794Y-84590119D01*
X147133704Y-84976377D01*
X147043075Y-85432000D01*
X147133704Y-85887623D01*
X147159260Y-85925871D01*
X141176065Y-91909065D01*
X141143000Y-91958550D01*
X141143000Y-90609870D01*
X145227770Y-86525100D01*
X145238052Y-86531971D01*
X145693675Y-86622600D01*
X145740325Y-86622600D01*
X146195948Y-86531971D01*
X146582206Y-86273881D01*
X146840296Y-85887623D01*
X146930925Y-85432000D01*
X146840296Y-84976377D01*
X146582206Y-84590119D01*
X146195948Y-84332029D01*
X145740325Y-84241400D01*
X145693675Y-84241400D01*
X145238052Y-84332029D01*
X144851794Y-84590119D01*
X144593704Y-84976377D01*
X144503075Y-85432000D01*
X144593704Y-85887623D01*
X144619260Y-85925870D01*
X140414065Y-90131065D01*
X140321503Y-90269594D01*
X140288999Y-90433000D01*
X140289000Y-90433005D01*
X140289000Y-104891835D01*
X140288999Y-104891840D01*
X140321503Y-105055246D01*
X140414065Y-105193775D01*
X143076264Y-107855973D01*
X143076264Y-108136112D01*
X143049971Y-108147003D01*
X142871343Y-108325632D01*
X142774670Y-108559021D01*
X142774670Y-108748830D01*
X142933418Y-108907578D01*
X142774670Y-108907578D01*
X142774670Y-109001560D01*
X142757580Y-109001560D01*
X142524191Y-109098233D01*
X142345563Y-109276862D01*
X142248890Y-109510251D01*
X142248890Y-109950250D01*
X142407640Y-110109000D01*
X143456660Y-110109000D01*
X143456660Y-110018830D01*
X143710660Y-110018830D01*
X143710660Y-110109000D01*
X143730660Y-110109000D01*
X143730660Y-110363000D01*
X143710660Y-110363000D01*
X143710660Y-110383000D01*
X143456660Y-110383000D01*
X143456660Y-110363000D01*
X142407640Y-110363000D01*
X142248890Y-110521750D01*
X142248890Y-110784021D01*
X136997999Y-105533129D01*
X136997999Y-93772004D01*
X136998000Y-93771999D01*
X136965496Y-93608593D01*
X136956081Y-93594503D01*
X136897969Y-93507532D01*
X136898109Y-93347829D01*
X136802855Y-93117297D01*
X136626631Y-92940765D01*
X136396265Y-92845109D01*
X136146829Y-92844891D01*
X135916297Y-92940145D01*
X135739765Y-93116369D01*
X135644109Y-93346735D01*
X135643891Y-93596171D01*
X135739145Y-93826703D01*
X135915369Y-94003235D01*
X136143999Y-94098170D01*
X136143999Y-105709994D01*
X136143998Y-105709999D01*
X136176502Y-105873405D01*
X136269064Y-106011934D01*
X142065063Y-111807932D01*
X142065065Y-111807935D01*
X142203594Y-111900497D01*
X142367000Y-111933000D01*
X143509995Y-111933000D01*
X143510000Y-111933001D01*
X143673406Y-111900497D01*
X143811935Y-111807935D01*
X144107428Y-111512441D01*
X144202490Y-111512441D01*
X144083617Y-111798718D01*
X144083243Y-112227402D01*
X144246948Y-112623597D01*
X144288280Y-112665001D01*
X138467004Y-112665001D01*
X138466999Y-112665000D01*
X138303593Y-112697504D01*
X138165064Y-112790066D01*
X138126056Y-112829074D01*
X137972179Y-112765179D01*
X137563613Y-112764822D01*
X137186011Y-112920844D01*
X136896860Y-113209492D01*
X136740179Y-113586821D01*
X136739822Y-113995387D01*
X136895844Y-114372989D01*
X137184492Y-114662140D01*
X137561821Y-114818821D01*
X137970387Y-114819178D01*
X138347989Y-114663156D01*
X138637140Y-114374508D01*
X138793821Y-113997179D01*
X138794178Y-113588613D01*
X138765415Y-113519001D01*
X143692393Y-113519001D01*
X143718810Y-113545418D01*
X143483200Y-113607071D01*
X143307073Y-114107480D01*
X143335852Y-114637199D01*
X143483200Y-114992929D01*
X143718812Y-115054583D01*
X144473395Y-114300000D01*
X144459253Y-114285858D01*
X144638858Y-114106253D01*
X144653000Y-114120395D01*
X144667143Y-114106253D01*
X144846748Y-114285858D01*
X144832605Y-114300000D01*
X145587188Y-115054583D01*
X145822800Y-114992929D01*
X145998927Y-114492520D01*
X145970148Y-113962801D01*
X145822800Y-113607071D01*
X145587190Y-113545418D01*
X145613607Y-113519001D01*
X146523820Y-113519001D01*
X146324130Y-113718342D01*
X146167678Y-114095120D01*
X146167322Y-114503090D01*
X146323116Y-114880140D01*
X146611342Y-115168870D01*
X146988120Y-115325322D01*
X147396090Y-115325678D01*
X147773140Y-115169884D01*
X148061870Y-114881658D01*
X148218322Y-114504880D01*
X148218678Y-114096910D01*
X148062884Y-113719860D01*
X147862376Y-113519001D01*
X155169198Y-113519001D01*
X155169203Y-113519002D01*
X155332609Y-113486498D01*
X155471138Y-113393936D01*
X157424862Y-111440211D01*
X157424865Y-111440209D01*
X157517427Y-111301680D01*
X157549930Y-111138274D01*
X157549930Y-110553975D01*
X157654165Y-110449922D01*
X157749821Y-110219556D01*
X157750039Y-109970120D01*
X157654785Y-109739588D01*
X157478561Y-109563056D01*
X157248195Y-109467400D01*
X156998759Y-109467182D01*
X156768227Y-109562436D01*
X156591695Y-109738660D01*
X156540037Y-109863066D01*
X156339829Y-109862891D01*
X156286010Y-109885129D01*
X156286010Y-109747860D01*
X156640870Y-109393000D01*
X158719319Y-109393000D01*
X159988512Y-110662192D01*
X159965174Y-110671835D01*
X159788642Y-110848059D01*
X159692986Y-111078425D01*
X159692768Y-111327861D01*
X159788022Y-111558393D01*
X159964246Y-111734925D01*
X160194612Y-111830581D01*
X160378415Y-111830742D01*
X162539000Y-113991327D01*
X162539000Y-115586170D01*
X162331403Y-115671948D01*
X162028013Y-115974809D01*
X161863617Y-116370718D01*
X161863243Y-116799402D01*
X162026948Y-117195597D01*
X162329809Y-117498987D01*
X162725718Y-117663383D01*
X163154402Y-117663757D01*
X163550597Y-117500052D01*
X163853987Y-117197191D01*
X164018383Y-116801282D01*
X164018757Y-116372598D01*
X163855052Y-115976403D01*
X163552191Y-115673013D01*
X163343000Y-115586149D01*
X163343000Y-113824813D01*
X163312400Y-113670974D01*
X163225257Y-113540556D01*
X160946826Y-111262125D01*
X160946906Y-111171000D01*
X166369995Y-111171000D01*
X166370000Y-111171001D01*
X166533406Y-111138497D01*
X166671935Y-111045935D01*
X167433932Y-110283937D01*
X167433935Y-110283935D01*
X167526497Y-110145406D01*
X167531829Y-110118600D01*
X167559001Y-109982000D01*
X167559000Y-109981995D01*
X167559000Y-95172870D01*
X167870889Y-94860980D01*
X168018171Y-94861109D01*
X168248703Y-94765855D01*
X168425235Y-94589631D01*
X168520891Y-94359265D01*
X168521109Y-94109829D01*
X168425855Y-93879297D01*
X168249631Y-93702765D01*
X168019265Y-93607109D01*
X167769829Y-93606891D01*
X167539297Y-93702145D01*
X167362765Y-93878369D01*
X167267109Y-94108735D01*
X167266979Y-94257151D01*
X166830065Y-94694065D01*
X166737503Y-94832594D01*
X166704999Y-94996000D01*
X166705000Y-94996005D01*
X166705000Y-96147107D01*
X166457809Y-96146891D01*
X166227277Y-96242145D01*
X166094914Y-96374277D01*
X165963631Y-96242765D01*
X165733265Y-96147109D01*
X165483829Y-96146891D01*
X165253297Y-96242145D01*
X165076765Y-96418369D01*
X164981109Y-96648735D01*
X164980979Y-96797151D01*
X164923130Y-96855000D01*
X164278826Y-96855000D01*
X164322726Y-96749277D01*
X164322944Y-96499841D01*
X164227690Y-96269309D01*
X164051466Y-96092777D01*
X163821100Y-95997121D01*
X163672683Y-95996991D01*
X162479082Y-94803389D01*
X162900402Y-94803757D01*
X163296597Y-94640052D01*
X163599987Y-94337191D01*
X163764383Y-93941282D01*
X163764757Y-93512598D01*
X163601052Y-93116403D01*
X163298191Y-92813013D01*
X162902282Y-92648617D01*
X162473598Y-92648243D01*
X162077403Y-92811948D01*
X162055999Y-92833315D01*
X162055999Y-88431827D01*
X162133574Y-88354252D01*
X162133577Y-88354250D01*
X162226139Y-88215721D01*
X162258642Y-88052315D01*
X162258642Y-84467176D01*
X162540591Y-84467176D01*
X162898971Y-85334521D01*
X163561989Y-85998697D01*
X164428707Y-86358590D01*
X165367176Y-86359409D01*
X166234521Y-86001029D01*
X166898697Y-85338011D01*
X167258590Y-84471293D01*
X167259409Y-83532824D01*
X166901029Y-82665479D01*
X166238011Y-82001303D01*
X165371293Y-81641410D01*
X164432824Y-81640591D01*
X163565479Y-81998971D01*
X162901303Y-82661989D01*
X162541410Y-83528707D01*
X162540591Y-84467176D01*
X162258642Y-84467176D01*
X162258642Y-82127689D01*
X162258643Y-82127684D01*
X162226139Y-81964278D01*
X162182312Y-81898686D01*
X162133577Y-81825749D01*
X162133574Y-81825747D01*
X160139853Y-79832025D01*
X160001324Y-79739463D01*
X159837918Y-79706959D01*
X159837913Y-79706960D01*
X152756912Y-79706958D01*
X152466958Y-79706958D01*
X152466953Y-79706957D01*
X152303547Y-79739460D01*
X152165018Y-79832022D01*
X152036083Y-79960957D01*
X151312083Y-79960957D01*
X151148677Y-79993460D01*
X151010148Y-80086022D01*
X151010146Y-80086025D01*
X150794801Y-80301369D01*
X138612501Y-80301369D01*
X138449095Y-80333872D01*
X138310566Y-80426434D01*
X138310564Y-80426437D01*
X136746815Y-81990185D01*
X136731205Y-81907221D01*
X136659588Y-81795926D01*
X136550314Y-81721262D01*
X136420600Y-81694994D01*
X134693400Y-81694994D01*
X134572221Y-81717795D01*
X134460926Y-81789412D01*
X134386262Y-81898686D01*
X134359994Y-82028400D01*
X134359994Y-83755600D01*
X134382795Y-83876779D01*
X134454412Y-83988074D01*
X134563686Y-84062738D01*
X134693400Y-84089006D01*
X136243601Y-84089006D01*
X136243601Y-84141530D01*
X136046231Y-84338900D01*
X136035948Y-84332029D01*
X135580325Y-84241400D01*
X135533675Y-84241400D01*
X135078052Y-84332029D01*
X134691794Y-84590119D01*
X134433704Y-84976377D01*
X134343075Y-85432000D01*
X131204543Y-85432000D01*
X131298697Y-85338011D01*
X131658590Y-84471293D01*
X131659409Y-83532824D01*
X131301029Y-82665479D01*
X130638011Y-82001303D01*
X129771293Y-81641410D01*
X128832824Y-81640591D01*
X127965479Y-81998971D01*
X127301303Y-82661989D01*
X126941410Y-83528707D01*
X126940591Y-84467176D01*
X124862000Y-84467176D01*
X124862000Y-84367595D01*
X125225368Y-82540820D01*
X126237723Y-81025724D01*
X127752820Y-80013368D01*
X129579595Y-79650000D01*
X164552405Y-79650000D01*
X166379180Y-80013368D01*
G36*
X157938052Y-86531971D02*
X158291070Y-86602191D01*
X154274215Y-90619045D01*
X154181653Y-90757574D01*
X154149149Y-90920980D01*
X154149150Y-90920985D01*
X154149150Y-101079311D01*
X154044915Y-101183364D01*
X153949259Y-101413730D01*
X153949041Y-101663166D01*
X154044295Y-101893698D01*
X154220519Y-102070230D01*
X154450885Y-102165886D01*
X154700321Y-102166104D01*
X154882009Y-102091032D01*
X154882009Y-109847357D01*
X154777774Y-109951410D01*
X154699058Y-110140981D01*
X154632460Y-110074383D01*
X154726942Y-109846845D01*
X154727160Y-109597409D01*
X154631906Y-109366877D01*
X154455682Y-109190345D01*
X154225316Y-109094689D01*
X153975880Y-109094471D01*
X153745348Y-109189725D01*
X153568816Y-109365949D01*
X153473160Y-109596315D01*
X153472942Y-109845751D01*
X153568196Y-110076283D01*
X153681863Y-110190149D01*
X153705554Y-110309250D01*
X153798116Y-110447779D01*
X154509312Y-111158974D01*
X154509314Y-111158977D01*
X154617104Y-111231000D01*
X154647843Y-111251539D01*
X154811249Y-111284043D01*
X154811254Y-111284042D01*
X155573005Y-111284042D01*
X155573010Y-111284043D01*
X155618490Y-111274996D01*
X154998435Y-111895051D01*
X154815829Y-111894891D01*
X154585297Y-111990145D01*
X154408765Y-112166369D01*
X154313109Y-112396735D01*
X154312891Y-112646171D01*
X154320671Y-112665001D01*
X146034107Y-112665001D01*
X146073987Y-112625191D01*
X146238383Y-112229282D01*
X146238442Y-112162000D01*
X147828000Y-112162000D01*
X147981839Y-112131400D01*
X148112257Y-112044257D01*
X152768142Y-107388372D01*
X153013722Y-107388372D01*
X153167561Y-107357772D01*
X153234112Y-107313304D01*
X153437892Y-107313482D01*
X153668424Y-107218228D01*
X153844956Y-107042004D01*
X153940612Y-106811638D01*
X153940830Y-106562202D01*
X153845576Y-106331670D01*
X153669352Y-106155138D01*
X153438986Y-106059482D01*
X153189550Y-106059264D01*
X152959018Y-106154518D01*
X152782486Y-106330742D01*
X152686830Y-106561108D01*
X152686810Y-106584372D01*
X152601628Y-106584372D01*
X152447789Y-106614972D01*
X152317371Y-106702115D01*
X147661486Y-111358000D01*
X146028730Y-111358000D01*
X145772191Y-111101013D01*
X145376282Y-110936617D01*
X144960431Y-110936254D01*
X144960431Y-110659439D01*
X146121628Y-109498241D01*
X146115617Y-109512718D01*
X146115243Y-109941402D01*
X146278948Y-110337597D01*
X146581809Y-110640987D01*
X146977718Y-110805383D01*
X147406402Y-110805757D01*
X147802597Y-110642052D01*
X148105987Y-110339191D01*
X148270383Y-109943282D01*
X148270757Y-109514598D01*
X148107052Y-109118403D01*
X147986731Y-108997871D01*
X148310597Y-108864052D01*
X148613987Y-108561191D01*
X148778383Y-108165282D01*
X148778757Y-107736598D01*
X148615052Y-107340403D01*
X148312191Y-107037013D01*
X147916282Y-106872617D01*
X147487598Y-106872243D01*
X147091403Y-107035948D01*
X146788013Y-107338809D01*
X146731000Y-107476111D01*
X146731000Y-104844406D01*
X147217000Y-104844406D01*
X147338179Y-104821605D01*
X147449474Y-104749988D01*
X147524138Y-104640714D01*
X147550406Y-104511000D01*
X147550406Y-104171750D01*
X147582000Y-104171750D01*
X147582000Y-104637310D01*
X147678673Y-104870699D01*
X147857302Y-105049327D01*
X148090691Y-105146000D01*
X148431250Y-105146000D01*
X148590000Y-104987250D01*
X148590000Y-104013000D01*
X148844000Y-104013000D01*
X148844000Y-104987250D01*
X149002750Y-105146000D01*
X149343309Y-105146000D01*
X149576698Y-105049327D01*
X149755327Y-104870699D01*
X149852000Y-104637310D01*
X149852000Y-104171750D01*
X149693250Y-104013000D01*
X148844000Y-104013000D01*
X148590000Y-104013000D01*
X147740750Y-104013000D01*
X147582000Y-104171750D01*
X147550406Y-104171750D01*
X147550406Y-103261000D01*
X147527605Y-103139821D01*
X147524304Y-103134690D01*
X147582000Y-103134690D01*
X147582000Y-103600250D01*
X147740750Y-103759000D01*
X148590000Y-103759000D01*
X148590000Y-102784750D01*
X148844000Y-102784750D01*
X148844000Y-103759000D01*
X149693250Y-103759000D01*
X149852000Y-103600250D01*
X149852000Y-103134690D01*
X149755327Y-102901301D01*
X149576698Y-102722673D01*
X149343309Y-102626000D01*
X149002750Y-102626000D01*
X148844000Y-102784750D01*
X148590000Y-102784750D01*
X148431250Y-102626000D01*
X148090691Y-102626000D01*
X147857302Y-102722673D01*
X147678673Y-102901301D01*
X147582000Y-103134690D01*
X147524304Y-103134690D01*
X147455988Y-103028526D01*
X147346714Y-102953862D01*
X147217000Y-102927594D01*
X146217000Y-102927594D01*
X146095821Y-102950395D01*
X145984526Y-103022012D01*
X145909862Y-103131286D01*
X145883594Y-103261000D01*
X145883594Y-103459000D01*
X145340736Y-103459000D01*
X145340736Y-103186230D01*
X145317935Y-103065051D01*
X145267245Y-102986277D01*
X145314468Y-102917164D01*
X145340736Y-102787450D01*
X145340736Y-102088950D01*
X145317935Y-101967771D01*
X145266403Y-101887689D01*
X145314468Y-101817344D01*
X145340736Y-101687630D01*
X145340736Y-100989130D01*
X145317935Y-100867951D01*
X145266403Y-100787869D01*
X145314468Y-100717524D01*
X145340736Y-100587810D01*
X145340736Y-99889310D01*
X145317935Y-99768131D01*
X145246318Y-99656836D01*
X145137044Y-99582172D01*
X145007330Y-99555904D01*
X144896966Y-99555904D01*
X157927769Y-86525100D01*
X157938052Y-86531971D01*
X157938052Y-86531971D01*
G37*
X157938052Y-86531971D02*
X158291070Y-86602191D01*
X154274215Y-90619045D01*
X154181653Y-90757574D01*
X154149149Y-90920980D01*
X154149150Y-90920985D01*
X154149150Y-101079311D01*
X154044915Y-101183364D01*
X153949259Y-101413730D01*
X153949041Y-101663166D01*
X154044295Y-101893698D01*
X154220519Y-102070230D01*
X154450885Y-102165886D01*
X154700321Y-102166104D01*
X154882009Y-102091032D01*
X154882009Y-109847357D01*
X154777774Y-109951410D01*
X154699058Y-110140981D01*
X154632460Y-110074383D01*
X154726942Y-109846845D01*
X154727160Y-109597409D01*
X154631906Y-109366877D01*
X154455682Y-109190345D01*
X154225316Y-109094689D01*
X153975880Y-109094471D01*
X153745348Y-109189725D01*
X153568816Y-109365949D01*
X153473160Y-109596315D01*
X153472942Y-109845751D01*
X153568196Y-110076283D01*
X153681863Y-110190149D01*
X153705554Y-110309250D01*
X153798116Y-110447779D01*
X154509312Y-111158974D01*
X154509314Y-111158977D01*
X154617104Y-111231000D01*
X154647843Y-111251539D01*
X154811249Y-111284043D01*
X154811254Y-111284042D01*
X155573005Y-111284042D01*
X155573010Y-111284043D01*
X155618490Y-111274996D01*
X154998435Y-111895051D01*
X154815829Y-111894891D01*
X154585297Y-111990145D01*
X154408765Y-112166369D01*
X154313109Y-112396735D01*
X154312891Y-112646171D01*
X154320671Y-112665001D01*
X146034107Y-112665001D01*
X146073987Y-112625191D01*
X146238383Y-112229282D01*
X146238442Y-112162000D01*
X147828000Y-112162000D01*
X147981839Y-112131400D01*
X148112257Y-112044257D01*
X152768142Y-107388372D01*
X153013722Y-107388372D01*
X153167561Y-107357772D01*
X153234112Y-107313304D01*
X153437892Y-107313482D01*
X153668424Y-107218228D01*
X153844956Y-107042004D01*
X153940612Y-106811638D01*
X153940830Y-106562202D01*
X153845576Y-106331670D01*
X153669352Y-106155138D01*
X153438986Y-106059482D01*
X153189550Y-106059264D01*
X152959018Y-106154518D01*
X152782486Y-106330742D01*
X152686830Y-106561108D01*
X152686810Y-106584372D01*
X152601628Y-106584372D01*
X152447789Y-106614972D01*
X152317371Y-106702115D01*
X147661486Y-111358000D01*
X146028730Y-111358000D01*
X145772191Y-111101013D01*
X145376282Y-110936617D01*
X144960431Y-110936254D01*
X144960431Y-110659439D01*
X146121628Y-109498241D01*
X146115617Y-109512718D01*
X146115243Y-109941402D01*
X146278948Y-110337597D01*
X146581809Y-110640987D01*
X146977718Y-110805383D01*
X147406402Y-110805757D01*
X147802597Y-110642052D01*
X148105987Y-110339191D01*
X148270383Y-109943282D01*
X148270757Y-109514598D01*
X148107052Y-109118403D01*
X147986731Y-108997871D01*
X148310597Y-108864052D01*
X148613987Y-108561191D01*
X148778383Y-108165282D01*
X148778757Y-107736598D01*
X148615052Y-107340403D01*
X148312191Y-107037013D01*
X147916282Y-106872617D01*
X147487598Y-106872243D01*
X147091403Y-107035948D01*
X146788013Y-107338809D01*
X146731000Y-107476111D01*
X146731000Y-104844406D01*
X147217000Y-104844406D01*
X147338179Y-104821605D01*
X147449474Y-104749988D01*
X147524138Y-104640714D01*
X147550406Y-104511000D01*
X147550406Y-104171750D01*
X147582000Y-104171750D01*
X147582000Y-104637310D01*
X147678673Y-104870699D01*
X147857302Y-105049327D01*
X148090691Y-105146000D01*
X148431250Y-105146000D01*
X148590000Y-104987250D01*
X148590000Y-104013000D01*
X148844000Y-104013000D01*
X148844000Y-104987250D01*
X149002750Y-105146000D01*
X149343309Y-105146000D01*
X149576698Y-105049327D01*
X149755327Y-104870699D01*
X149852000Y-104637310D01*
X149852000Y-104171750D01*
X149693250Y-104013000D01*
X148844000Y-104013000D01*
X148590000Y-104013000D01*
X147740750Y-104013000D01*
X147582000Y-104171750D01*
X147550406Y-104171750D01*
X147550406Y-103261000D01*
X147527605Y-103139821D01*
X147524304Y-103134690D01*
X147582000Y-103134690D01*
X147582000Y-103600250D01*
X147740750Y-103759000D01*
X148590000Y-103759000D01*
X148590000Y-102784750D01*
X148844000Y-102784750D01*
X148844000Y-103759000D01*
X149693250Y-103759000D01*
X149852000Y-103600250D01*
X149852000Y-103134690D01*
X149755327Y-102901301D01*
X149576698Y-102722673D01*
X149343309Y-102626000D01*
X149002750Y-102626000D01*
X148844000Y-102784750D01*
X148590000Y-102784750D01*
X148431250Y-102626000D01*
X148090691Y-102626000D01*
X147857302Y-102722673D01*
X147678673Y-102901301D01*
X147582000Y-103134690D01*
X147524304Y-103134690D01*
X147455988Y-103028526D01*
X147346714Y-102953862D01*
X147217000Y-102927594D01*
X146217000Y-102927594D01*
X146095821Y-102950395D01*
X145984526Y-103022012D01*
X145909862Y-103131286D01*
X145883594Y-103261000D01*
X145883594Y-103459000D01*
X145340736Y-103459000D01*
X145340736Y-103186230D01*
X145317935Y-103065051D01*
X145267245Y-102986277D01*
X145314468Y-102917164D01*
X145340736Y-102787450D01*
X145340736Y-102088950D01*
X145317935Y-101967771D01*
X145266403Y-101887689D01*
X145314468Y-101817344D01*
X145340736Y-101687630D01*
X145340736Y-100989130D01*
X145317935Y-100867951D01*
X145266403Y-100787869D01*
X145314468Y-100717524D01*
X145340736Y-100587810D01*
X145340736Y-99889310D01*
X145317935Y-99768131D01*
X145246318Y-99656836D01*
X145137044Y-99582172D01*
X145007330Y-99555904D01*
X144896966Y-99555904D01*
X157927769Y-86525100D01*
X157938052Y-86531971D01*
G36*
X166705000Y-97401108D02*
X166705000Y-109805131D01*
X166234915Y-110275216D01*
X166235109Y-110052827D01*
X166139855Y-109822295D01*
X166016214Y-109698438D01*
X166139235Y-109575631D01*
X166234891Y-109345265D01*
X166235109Y-109095829D01*
X166139855Y-108865297D01*
X165963631Y-108688765D01*
X165733265Y-108593109D01*
X165483829Y-108592891D01*
X165253297Y-108688145D01*
X165148259Y-108793000D01*
X163543891Y-108793000D01*
X163726114Y-108717707D01*
X163902646Y-108541483D01*
X163998302Y-108311117D01*
X163998520Y-108061681D01*
X163903266Y-107831149D01*
X163798411Y-107726111D01*
X163798411Y-99294156D01*
X163798412Y-99294151D01*
X163765908Y-99130745D01*
X163684468Y-99008862D01*
X163673346Y-98992216D01*
X163673343Y-98992214D01*
X162787158Y-98106029D01*
X162904594Y-98184497D01*
X163068000Y-98217000D01*
X165565975Y-98217000D01*
X165565980Y-98217001D01*
X165729386Y-98184497D01*
X165867915Y-98091935D01*
X166558869Y-97400980D01*
X166705000Y-97401108D01*
X166705000Y-97401108D01*
G37*
X166705000Y-97401108D02*
X166705000Y-109805131D01*
X166234915Y-110275216D01*
X166235109Y-110052827D01*
X166139855Y-109822295D01*
X166016214Y-109698438D01*
X166139235Y-109575631D01*
X166234891Y-109345265D01*
X166235109Y-109095829D01*
X166139855Y-108865297D01*
X165963631Y-108688765D01*
X165733265Y-108593109D01*
X165483829Y-108592891D01*
X165253297Y-108688145D01*
X165148259Y-108793000D01*
X163543891Y-108793000D01*
X163726114Y-108717707D01*
X163902646Y-108541483D01*
X163998302Y-108311117D01*
X163998520Y-108061681D01*
X163903266Y-107831149D01*
X163798411Y-107726111D01*
X163798411Y-99294156D01*
X163798412Y-99294151D01*
X163765908Y-99130745D01*
X163684468Y-99008862D01*
X163673346Y-98992216D01*
X163673343Y-98992214D01*
X162787158Y-98106029D01*
X162904594Y-98184497D01*
X163068000Y-98217000D01*
X165565975Y-98217000D01*
X165565980Y-98217001D01*
X165729386Y-98184497D01*
X165867915Y-98091935D01*
X166558869Y-97400980D01*
X166705000Y-97401108D01*
G36*
X145877000Y-108535131D02*
X145504553Y-108907578D01*
X145483582Y-108907578D01*
X145642330Y-108748830D01*
X145642330Y-108559021D01*
X145545657Y-108325632D01*
X145367029Y-108147003D01*
X145340736Y-108136112D01*
X145340736Y-107585510D01*
X145317935Y-107464331D01*
X145266403Y-107384249D01*
X145314468Y-107313904D01*
X145340736Y-107184190D01*
X145340736Y-106633588D01*
X145367029Y-106622697D01*
X145545657Y-106444068D01*
X145642330Y-106210679D01*
X145642330Y-106020870D01*
X145483580Y-105862120D01*
X144335500Y-105862120D01*
X144335500Y-105882120D01*
X144081500Y-105882120D01*
X144081500Y-105862120D01*
X144061500Y-105862120D01*
X144061500Y-105608120D01*
X144081500Y-105608120D01*
X144081500Y-105588120D01*
X144335500Y-105588120D01*
X144335500Y-105608120D01*
X145483580Y-105608120D01*
X145642330Y-105449370D01*
X145642330Y-105259561D01*
X145545657Y-105026172D01*
X145367029Y-104847543D01*
X145340736Y-104836652D01*
X145340736Y-104313000D01*
X145877000Y-104313000D01*
X145877000Y-108535131D01*
X145877000Y-108535131D01*
G37*
X145877000Y-108535131D02*
X145504553Y-108907578D01*
X145483582Y-108907578D01*
X145642330Y-108748830D01*
X145642330Y-108559021D01*
X145545657Y-108325632D01*
X145367029Y-108147003D01*
X145340736Y-108136112D01*
X145340736Y-107585510D01*
X145317935Y-107464331D01*
X145266403Y-107384249D01*
X145314468Y-107313904D01*
X145340736Y-107184190D01*
X145340736Y-106633588D01*
X145367029Y-106622697D01*
X145545657Y-106444068D01*
X145642330Y-106210679D01*
X145642330Y-106020870D01*
X145483580Y-105862120D01*
X144335500Y-105862120D01*
X144335500Y-105882120D01*
X144081500Y-105882120D01*
X144081500Y-105862120D01*
X144061500Y-105862120D01*
X144061500Y-105608120D01*
X144081500Y-105608120D01*
X144081500Y-105588120D01*
X144335500Y-105588120D01*
X144335500Y-105608120D01*
X145483580Y-105608120D01*
X145642330Y-105449370D01*
X145642330Y-105259561D01*
X145545657Y-105026172D01*
X145367029Y-104847543D01*
X145340736Y-104836652D01*
X145340736Y-104313000D01*
X145877000Y-104313000D01*
X145877000Y-108535131D01*
G36*
X158423159Y-95444758D02*
X158423159Y-100730326D01*
X158196049Y-100824166D01*
X158019517Y-101000390D01*
X157923861Y-101230756D01*
X157923643Y-101480192D01*
X158018897Y-101710724D01*
X158195121Y-101887256D01*
X158425487Y-101982912D01*
X158674923Y-101983130D01*
X158905455Y-101887876D01*
X159081987Y-101711652D01*
X159177643Y-101481286D01*
X159177784Y-101320101D01*
X159244656Y-101220020D01*
X159277159Y-101056614D01*
X159277159Y-95803769D01*
X162944411Y-99471020D01*
X162944411Y-107193595D01*
X162915631Y-107164765D01*
X162685265Y-107069109D01*
X162435829Y-107068891D01*
X162205297Y-107164145D01*
X162096449Y-107272803D01*
X161740767Y-107272803D01*
X161636714Y-107168568D01*
X161406348Y-107072912D01*
X161156912Y-107072694D01*
X160926380Y-107167948D01*
X160749848Y-107344172D01*
X160654192Y-107574538D01*
X160653974Y-107823974D01*
X160749228Y-108054506D01*
X160925452Y-108231038D01*
X161155818Y-108326694D01*
X161405254Y-108326912D01*
X161635786Y-108231658D01*
X161740824Y-108126803D01*
X162104112Y-108126803D01*
X162204369Y-108227235D01*
X162434735Y-108322891D01*
X162684171Y-108323109D01*
X162744312Y-108298259D01*
X162744302Y-108310023D01*
X162839556Y-108540555D01*
X163015780Y-108717087D01*
X163198599Y-108793000D01*
X160925849Y-108793000D01*
X159851960Y-107719110D01*
X159852089Y-107571829D01*
X159795297Y-107434382D01*
X159858710Y-107281290D01*
X159858710Y-106991150D01*
X159699960Y-106832400D01*
X159124015Y-106832400D01*
X159124015Y-106852400D01*
X159120520Y-106852400D01*
X159100520Y-106832400D01*
X158877320Y-106832400D01*
X158877320Y-106801600D01*
X158908750Y-106770170D01*
X158908750Y-106578400D01*
X159100520Y-106578400D01*
X159120520Y-106558400D01*
X159124015Y-106558400D01*
X159124015Y-106578400D01*
X159699960Y-106578400D01*
X159858710Y-106419650D01*
X159858710Y-106129510D01*
X159828965Y-106057700D01*
X159858710Y-105985890D01*
X159858710Y-105695750D01*
X159699960Y-105537000D01*
X159124015Y-105537000D01*
X159124015Y-105557000D01*
X159120520Y-105557000D01*
X159100520Y-105537000D01*
X158908750Y-105537000D01*
X158908750Y-105345230D01*
X158877320Y-105313800D01*
X158877320Y-105283000D01*
X159100520Y-105283000D01*
X159124015Y-105259505D01*
X159124015Y-105283000D01*
X159699960Y-105283000D01*
X159801828Y-105181132D01*
X160818986Y-105181132D01*
X160914240Y-105411664D01*
X161090464Y-105588196D01*
X161320830Y-105683852D01*
X161322215Y-105683853D01*
X161351597Y-105831565D01*
X161444159Y-105970094D01*
X161459426Y-105985361D01*
X161459297Y-106132642D01*
X161554551Y-106363174D01*
X161730775Y-106539706D01*
X161961141Y-106635362D01*
X162210577Y-106635580D01*
X162441109Y-106540326D01*
X162617641Y-106364102D01*
X162713297Y-106133736D01*
X162713515Y-105884300D01*
X162618261Y-105653768D01*
X162442037Y-105477236D01*
X162211671Y-105381580D01*
X162173094Y-105381546D01*
X162173094Y-105356965D01*
X162173095Y-105356960D01*
X162140591Y-105193554D01*
X162099375Y-105131870D01*
X162073064Y-105092493D01*
X162073204Y-104932790D01*
X161977950Y-104702258D01*
X161801726Y-104525726D01*
X161571360Y-104430070D01*
X161321924Y-104429852D01*
X161091392Y-104525106D01*
X160914860Y-104701330D01*
X160819204Y-104931696D01*
X160818986Y-105181132D01*
X159801828Y-105181132D01*
X159858710Y-105124250D01*
X159858710Y-104834110D01*
X159762037Y-104600721D01*
X159583408Y-104422093D01*
X159350019Y-104325420D01*
X159282765Y-104325420D01*
X159124015Y-104484170D01*
X159124015Y-104562139D01*
X158983968Y-104422093D01*
X158908750Y-104390936D01*
X158908750Y-104333038D01*
X158846389Y-104333038D01*
X158818158Y-104264882D01*
X158908750Y-104174290D01*
X158908750Y-103884150D01*
X158812077Y-103650761D01*
X158633448Y-103472133D01*
X158400059Y-103375460D01*
X158332805Y-103375460D01*
X158174055Y-103534210D01*
X158174055Y-104333040D01*
X158166435Y-104325420D01*
X158099181Y-104325420D01*
X157974665Y-104376996D01*
X157974665Y-103534210D01*
X157815915Y-103375460D01*
X157748661Y-103375460D01*
X157515272Y-103472133D01*
X157426660Y-103560745D01*
X157338048Y-103472133D01*
X157104659Y-103375460D01*
X157037405Y-103375460D01*
X156878655Y-103534210D01*
X156878655Y-104376996D01*
X156754139Y-104325420D01*
X156686885Y-104325420D01*
X156679265Y-104333040D01*
X156679265Y-103534210D01*
X156520515Y-103375460D01*
X156453261Y-103375460D01*
X156219872Y-103472133D01*
X156041243Y-103650761D01*
X155944570Y-103884150D01*
X155944570Y-104174290D01*
X156035162Y-104264882D01*
X156006931Y-104333038D01*
X155944570Y-104333038D01*
X155944570Y-104390936D01*
X155869352Y-104422093D01*
X155736009Y-104555435D01*
X155736009Y-101394851D01*
X158214560Y-98916300D01*
X158307122Y-98777771D01*
X158339626Y-98614365D01*
X158339625Y-98614360D01*
X158339625Y-96474581D01*
X158339626Y-96474576D01*
X158307122Y-96311170D01*
X158214560Y-96172641D01*
X158161000Y-96119081D01*
X158161000Y-95182600D01*
X158423159Y-95444758D01*
X158423159Y-95444758D01*
G37*
X158423159Y-95444758D02*
X158423159Y-100730326D01*
X158196049Y-100824166D01*
X158019517Y-101000390D01*
X157923861Y-101230756D01*
X157923643Y-101480192D01*
X158018897Y-101710724D01*
X158195121Y-101887256D01*
X158425487Y-101982912D01*
X158674923Y-101983130D01*
X158905455Y-101887876D01*
X159081987Y-101711652D01*
X159177643Y-101481286D01*
X159177784Y-101320101D01*
X159244656Y-101220020D01*
X159277159Y-101056614D01*
X159277159Y-95803769D01*
X162944411Y-99471020D01*
X162944411Y-107193595D01*
X162915631Y-107164765D01*
X162685265Y-107069109D01*
X162435829Y-107068891D01*
X162205297Y-107164145D01*
X162096449Y-107272803D01*
X161740767Y-107272803D01*
X161636714Y-107168568D01*
X161406348Y-107072912D01*
X161156912Y-107072694D01*
X160926380Y-107167948D01*
X160749848Y-107344172D01*
X160654192Y-107574538D01*
X160653974Y-107823974D01*
X160749228Y-108054506D01*
X160925452Y-108231038D01*
X161155818Y-108326694D01*
X161405254Y-108326912D01*
X161635786Y-108231658D01*
X161740824Y-108126803D01*
X162104112Y-108126803D01*
X162204369Y-108227235D01*
X162434735Y-108322891D01*
X162684171Y-108323109D01*
X162744312Y-108298259D01*
X162744302Y-108310023D01*
X162839556Y-108540555D01*
X163015780Y-108717087D01*
X163198599Y-108793000D01*
X160925849Y-108793000D01*
X159851960Y-107719110D01*
X159852089Y-107571829D01*
X159795297Y-107434382D01*
X159858710Y-107281290D01*
X159858710Y-106991150D01*
X159699960Y-106832400D01*
X159124015Y-106832400D01*
X159124015Y-106852400D01*
X159120520Y-106852400D01*
X159100520Y-106832400D01*
X158877320Y-106832400D01*
X158877320Y-106801600D01*
X158908750Y-106770170D01*
X158908750Y-106578400D01*
X159100520Y-106578400D01*
X159120520Y-106558400D01*
X159124015Y-106558400D01*
X159124015Y-106578400D01*
X159699960Y-106578400D01*
X159858710Y-106419650D01*
X159858710Y-106129510D01*
X159828965Y-106057700D01*
X159858710Y-105985890D01*
X159858710Y-105695750D01*
X159699960Y-105537000D01*
X159124015Y-105537000D01*
X159124015Y-105557000D01*
X159120520Y-105557000D01*
X159100520Y-105537000D01*
X158908750Y-105537000D01*
X158908750Y-105345230D01*
X158877320Y-105313800D01*
X158877320Y-105283000D01*
X159100520Y-105283000D01*
X159124015Y-105259505D01*
X159124015Y-105283000D01*
X159699960Y-105283000D01*
X159801828Y-105181132D01*
X160818986Y-105181132D01*
X160914240Y-105411664D01*
X161090464Y-105588196D01*
X161320830Y-105683852D01*
X161322215Y-105683853D01*
X161351597Y-105831565D01*
X161444159Y-105970094D01*
X161459426Y-105985361D01*
X161459297Y-106132642D01*
X161554551Y-106363174D01*
X161730775Y-106539706D01*
X161961141Y-106635362D01*
X162210577Y-106635580D01*
X162441109Y-106540326D01*
X162617641Y-106364102D01*
X162713297Y-106133736D01*
X162713515Y-105884300D01*
X162618261Y-105653768D01*
X162442037Y-105477236D01*
X162211671Y-105381580D01*
X162173094Y-105381546D01*
X162173094Y-105356965D01*
X162173095Y-105356960D01*
X162140591Y-105193554D01*
X162099375Y-105131870D01*
X162073064Y-105092493D01*
X162073204Y-104932790D01*
X161977950Y-104702258D01*
X161801726Y-104525726D01*
X161571360Y-104430070D01*
X161321924Y-104429852D01*
X161091392Y-104525106D01*
X160914860Y-104701330D01*
X160819204Y-104931696D01*
X160818986Y-105181132D01*
X159801828Y-105181132D01*
X159858710Y-105124250D01*
X159858710Y-104834110D01*
X159762037Y-104600721D01*
X159583408Y-104422093D01*
X159350019Y-104325420D01*
X159282765Y-104325420D01*
X159124015Y-104484170D01*
X159124015Y-104562139D01*
X158983968Y-104422093D01*
X158908750Y-104390936D01*
X158908750Y-104333038D01*
X158846389Y-104333038D01*
X158818158Y-104264882D01*
X158908750Y-104174290D01*
X158908750Y-103884150D01*
X158812077Y-103650761D01*
X158633448Y-103472133D01*
X158400059Y-103375460D01*
X158332805Y-103375460D01*
X158174055Y-103534210D01*
X158174055Y-104333040D01*
X158166435Y-104325420D01*
X158099181Y-104325420D01*
X157974665Y-104376996D01*
X157974665Y-103534210D01*
X157815915Y-103375460D01*
X157748661Y-103375460D01*
X157515272Y-103472133D01*
X157426660Y-103560745D01*
X157338048Y-103472133D01*
X157104659Y-103375460D01*
X157037405Y-103375460D01*
X156878655Y-103534210D01*
X156878655Y-104376996D01*
X156754139Y-104325420D01*
X156686885Y-104325420D01*
X156679265Y-104333040D01*
X156679265Y-103534210D01*
X156520515Y-103375460D01*
X156453261Y-103375460D01*
X156219872Y-103472133D01*
X156041243Y-103650761D01*
X155944570Y-103884150D01*
X155944570Y-104174290D01*
X156035162Y-104264882D01*
X156006931Y-104333038D01*
X155944570Y-104333038D01*
X155944570Y-104390936D01*
X155869352Y-104422093D01*
X155736009Y-104555435D01*
X155736009Y-101394851D01*
X158214560Y-98916300D01*
X158307122Y-98777771D01*
X158339626Y-98614365D01*
X158339625Y-98614360D01*
X158339625Y-96474581D01*
X158339626Y-96474576D01*
X158307122Y-96311170D01*
X158214560Y-96172641D01*
X158161000Y-96119081D01*
X158161000Y-95182600D01*
X158423159Y-95444758D01*
G36*
X157515272Y-106047387D02*
X157540170Y-106057700D01*
X157515272Y-106068013D01*
X157426660Y-106156625D01*
X157338048Y-106068013D01*
X157313150Y-106057700D01*
X157338048Y-106047387D01*
X157426660Y-105958775D01*
X157515272Y-106047387D01*
X157515272Y-106047387D01*
G37*
X157515272Y-106047387D02*
X157540170Y-106057700D01*
X157515272Y-106068013D01*
X157426660Y-106156625D01*
X157338048Y-106068013D01*
X157313150Y-106057700D01*
X157338048Y-106047387D01*
X157426660Y-105958775D01*
X157515272Y-106047387D01*
G36*
X159847000Y-87453131D02*
X156741110Y-90559020D01*
X156593829Y-90558891D01*
X156363297Y-90654145D01*
X156186765Y-90830369D01*
X156091109Y-91060735D01*
X156090891Y-91310171D01*
X156186145Y-91540703D01*
X156362369Y-91717235D01*
X156592735Y-91812891D01*
X156842171Y-91813109D01*
X157072703Y-91717855D01*
X157249235Y-91541631D01*
X157307000Y-91402517D01*
X157307000Y-96295946D01*
X157306999Y-96295951D01*
X157339503Y-96459357D01*
X157432065Y-96597886D01*
X157485625Y-96651446D01*
X157485625Y-98437495D01*
X155007074Y-100916046D01*
X155003150Y-100921919D01*
X155003150Y-91097850D01*
X159832533Y-86268466D01*
X159832536Y-86268464D01*
X159847000Y-86246817D01*
X159847000Y-87453131D01*
X159847000Y-87453131D01*
G37*
X159847000Y-87453131D02*
X156741110Y-90559020D01*
X156593829Y-90558891D01*
X156363297Y-90654145D01*
X156186765Y-90830369D01*
X156091109Y-91060735D01*
X156090891Y-91310171D01*
X156186145Y-91540703D01*
X156362369Y-91717235D01*
X156592735Y-91812891D01*
X156842171Y-91813109D01*
X157072703Y-91717855D01*
X157249235Y-91541631D01*
X157307000Y-91402517D01*
X157307000Y-96295946D01*
X157306999Y-96295951D01*
X157339503Y-96459357D01*
X157432065Y-96597886D01*
X157485625Y-96651446D01*
X157485625Y-98437495D01*
X155007074Y-100916046D01*
X155003150Y-100921919D01*
X155003150Y-91097850D01*
X159832533Y-86268466D01*
X159832536Y-86268464D01*
X159847000Y-86246817D01*
X159847000Y-87453131D01*
G36*
X152471794Y-84590119D02*
X152213704Y-84976377D01*
X152123075Y-85432000D01*
X152213704Y-85887623D01*
X152471794Y-86273881D01*
X152858052Y-86531971D01*
X152910000Y-86542304D01*
X152910000Y-87657012D01*
X144780536Y-95786476D01*
X144759680Y-95765620D01*
X143710660Y-95765620D01*
X143710660Y-95785620D01*
X143456660Y-95785620D01*
X143456660Y-95765620D01*
X143436660Y-95765620D01*
X143436660Y-95511620D01*
X143456660Y-95511620D01*
X143456660Y-94363540D01*
X143710660Y-94363540D01*
X143710660Y-95511620D01*
X144759680Y-95511620D01*
X144918430Y-95352870D01*
X144918430Y-94713481D01*
X144821757Y-94480092D01*
X144643129Y-94301463D01*
X144409740Y-94204790D01*
X143869410Y-94204790D01*
X143710660Y-94363540D01*
X143456660Y-94363540D01*
X143297910Y-94204790D01*
X142757580Y-94204790D01*
X142667000Y-94242310D01*
X142667000Y-94165870D01*
X150235336Y-86597534D01*
X150307769Y-86525100D01*
X150318052Y-86531971D01*
X150773675Y-86622600D01*
X150820325Y-86622600D01*
X151275948Y-86531971D01*
X151662206Y-86273881D01*
X151920296Y-85887623D01*
X152010925Y-85432000D01*
X151920296Y-84976377D01*
X151662206Y-84590119D01*
X151528830Y-84501000D01*
X152605170Y-84501000D01*
X152471794Y-84590119D01*
X152471794Y-84590119D01*
G37*
X152471794Y-84590119D02*
X152213704Y-84976377D01*
X152123075Y-85432000D01*
X152213704Y-85887623D01*
X152471794Y-86273881D01*
X152858052Y-86531971D01*
X152910000Y-86542304D01*
X152910000Y-87657012D01*
X144780536Y-95786476D01*
X144759680Y-95765620D01*
X143710660Y-95765620D01*
X143710660Y-95785620D01*
X143456660Y-95785620D01*
X143456660Y-95765620D01*
X143436660Y-95765620D01*
X143436660Y-95511620D01*
X143456660Y-95511620D01*
X143456660Y-94363540D01*
X143710660Y-94363540D01*
X143710660Y-95511620D01*
X144759680Y-95511620D01*
X144918430Y-95352870D01*
X144918430Y-94713481D01*
X144821757Y-94480092D01*
X144643129Y-94301463D01*
X144409740Y-94204790D01*
X143869410Y-94204790D01*
X143710660Y-94363540D01*
X143456660Y-94363540D01*
X143297910Y-94204790D01*
X142757580Y-94204790D01*
X142667000Y-94242310D01*
X142667000Y-94165870D01*
X150235336Y-86597534D01*
X150307769Y-86525100D01*
X150318052Y-86531971D01*
X150773675Y-86622600D01*
X150820325Y-86622600D01*
X151275948Y-86531971D01*
X151662206Y-86273881D01*
X151920296Y-85887623D01*
X152010925Y-85432000D01*
X151920296Y-84976377D01*
X151662206Y-84590119D01*
X151528830Y-84501000D01*
X152605170Y-84501000D01*
X152471794Y-84590119D01*
G36*
X160355000Y-95503995D02*
X160354999Y-95504000D01*
X160387503Y-95667406D01*
X160465970Y-95784840D01*
X159080976Y-94399846D01*
X159080976Y-92840068D01*
X159185211Y-92736015D01*
X159207761Y-92681710D01*
X159423718Y-92771383D01*
X159852402Y-92771757D01*
X160248597Y-92608052D01*
X160355000Y-92501835D01*
X160355000Y-95503995D01*
X160355000Y-95503995D01*
G37*
X160355000Y-95503995D02*
X160354999Y-95504000D01*
X160387503Y-95667406D01*
X160465970Y-95784840D01*
X159080976Y-94399846D01*
X159080976Y-92840068D01*
X159185211Y-92736015D01*
X159207761Y-92681710D01*
X159423718Y-92771383D01*
X159852402Y-92771757D01*
X160248597Y-92608052D01*
X160355000Y-92501835D01*
X160355000Y-95503995D01*
G36*
X158544000Y-82765000D02*
X158564000Y-82765000D01*
X158564000Y-83019000D01*
X158544000Y-83019000D01*
X158544000Y-83039000D01*
X158290000Y-83039000D01*
X158290000Y-83019000D01*
X158270000Y-83019000D01*
X158270000Y-82765000D01*
X158290000Y-82765000D01*
X158290000Y-82745000D01*
X158544000Y-82745000D01*
X158544000Y-82765000D01*
X158544000Y-82765000D01*
G37*
X158544000Y-82765000D02*
X158564000Y-82765000D01*
X158564000Y-83019000D01*
X158544000Y-83019000D01*
X158544000Y-83039000D01*
X158290000Y-83039000D01*
X158290000Y-83019000D01*
X158270000Y-83019000D01*
X158270000Y-82765000D01*
X158290000Y-82765000D01*
X158290000Y-82745000D01*
X158544000Y-82745000D01*
X158544000Y-82765000D01*
M02*
