G04 #@! TF.FileFunction,Soldermask,Bot*
%FSLAX46Y46*%
G04 Gerber Fmt 4.6, Leading zero omitted, Abs format (unit mm)*
G04 Created by KiCad (PCBNEW 4.0.0-rc1-stable) date Fri 20 Nov 2015 08:55:41 PM ICT*
%MOMM*%
G01*
G04 APERTURE LIST*
%ADD10C,0.100000*%
%ADD11C,4.204000*%
%ADD12R,1.867200X1.867200*%
%ADD13O,1.867200X1.867200*%
%ADD14R,0.840000X1.440000*%
%ADD15O,1.690000X1.140000*%
%ADD16C,0.740000*%
G04 APERTURE END LIST*
D10*
D11*
X129286000Y-84010500D03*
X164846000Y-84010500D03*
X164782000Y-119570000D03*
X129286000Y-119570000D03*
D12*
X137922000Y-117983000D03*
D13*
X137922000Y-120523000D03*
X140462000Y-117983000D03*
X140462000Y-120523000D03*
X143002000Y-117983000D03*
X143002000Y-120523000D03*
X145542000Y-117983000D03*
X145542000Y-120523000D03*
X148082000Y-117983000D03*
X148082000Y-120523000D03*
X150622000Y-117983000D03*
X150622000Y-120523000D03*
X153162000Y-117983000D03*
X153162000Y-120523000D03*
X155702000Y-117983000D03*
X155702000Y-120523000D03*
D12*
X155756000Y-85540000D03*
D13*
X155756000Y-83000000D03*
X153216000Y-85540000D03*
X153216000Y-83000000D03*
X150676000Y-85540000D03*
X150676000Y-83000000D03*
X148136000Y-85540000D03*
X148136000Y-83000000D03*
X145596000Y-85540000D03*
X145596000Y-83000000D03*
X143056000Y-85540000D03*
X143056000Y-83000000D03*
X140516000Y-85540000D03*
X140516000Y-83000000D03*
X137976000Y-85540000D03*
X137976000Y-83000000D03*
D14*
X142413000Y-100838000D03*
X140513000Y-100838000D03*
X142418000Y-102845000D03*
X140518000Y-102845000D03*
X142403000Y-104877000D03*
X140503000Y-104877000D03*
X142403000Y-106883000D03*
X140503000Y-106883000D03*
X142392000Y-108864000D03*
X140492000Y-108864000D03*
D15*
X127216000Y-90337900D03*
X127216000Y-95962900D03*
D16*
X129366000Y-91162900D03*
X129366000Y-95162900D03*
M02*
