M48
;DRILL file {KiCad 4.0.0-rc1-stable} date Sun 01 Nov 2015 11:45:44 AM ICT
;FORMAT={-:-/ absolute / metric / decimal}
FMAT,2
METRIC,TZ
T1C0.300
T2C0.500
T3C0.550
T4C0.800
T5C1.016
T6C2.388
T7C3.180
%
G90
G05
M71
T1
X128.143Y-101.854
X128.143Y-112.776
X130.302Y-108.077
X131.318Y-94.488
X131.445Y-93.218
X131.826Y-92.487
X132.461Y-104.521
X132.461Y-106.426
X132.461Y-111.633
X132.588Y-109.728
X132.715Y-102.616
X135.128Y-109.601
X135.509Y-104.013
X135.509Y-105.156
X135.636Y-106.299
X135.636Y-110.871
X135.636Y-111.887
X135.763Y-90.17
X135.763Y-108.458
X136.525Y-112.903
X136.652Y-101.6
X138.938Y-102.616
X139.827Y-111.125
X140.462Y-93.98
X144.089Y-100.965
X147.193Y-93.472
X152.146Y-102.743
X152.273Y-93.98
X155.702Y-109.22
X157.734Y-111.379
X157.988Y-98.806
X159.639Y-103.759
X159.766Y-101.981
X160.274Y-114.046
X161.544Y-91.821
T4
X135.001Y-93.472
X135.001Y-96.012
X164.719Y-112.268
X167.259Y-112.268
T5
X137.922Y-117.983
X137.922Y-120.523
X137.976Y-83.
X137.976Y-85.54
X140.462Y-117.983
X140.462Y-120.523
X140.516Y-83.
X140.516Y-85.54
X143.002Y-117.983
X143.002Y-120.523
X143.056Y-83.
X143.056Y-85.54
X145.542Y-117.983
X145.542Y-120.523
X145.596Y-83.
X145.596Y-85.54
X148.082Y-117.983
X148.082Y-120.523
X148.136Y-83.
X148.136Y-85.54
X150.622Y-117.983
X150.622Y-120.523
X150.676Y-83.
X150.676Y-85.54
X153.162Y-117.983
X153.162Y-120.523
X153.216Y-83.
X153.216Y-85.54
X155.702Y-117.983
X155.702Y-120.523
X155.756Y-83.
X155.756Y-85.54
T6
X159.258Y-95.824
X159.258Y-108.966
T7
X129.286Y-84.01
X129.286Y-119.57
X164.782Y-119.57
X164.846Y-84.01
T2
X126.929Y-89.662G85X127.579Y-89.662
G05
X126.929Y-96.662G85X127.579Y-96.662
G05
T3
X129.954Y-90.512G85X129.954Y-90.812
G05
X129.954Y-95.512G85X129.954Y-95.812
G05
T0
M30
