G04 #@! TF.FileFunction,Soldermask,Bot*
%FSLAX46Y46*%
G04 Gerber Fmt 4.6, Leading zero omitted, Abs format (unit mm)*
G04 Created by KiCad (PCBNEW 4.0.0-rc1-stable) date Sun 01 Nov 2015 11:45:38 AM ICT*
%MOMM*%
G01*
G04 APERTURE LIST*
%ADD10C,0.100000*%
%ADD11C,1.641140*%
%ADD12C,4.204000*%
%ADD13C,3.188000*%
%ADD14R,1.867200X1.867200*%
%ADD15O,1.867200X1.867200*%
%ADD16O,1.090000X1.390000*%
%ADD17O,1.690000X1.140000*%
%ADD18R,0.840000X1.440000*%
G04 APERTURE END LIST*
D10*
D11*
X167259000Y-112268000D03*
X164719000Y-112268000D03*
D12*
X129286000Y-119570500D03*
D13*
X159258000Y-108966000D03*
X159258000Y-95824040D03*
D12*
X164846000Y-84010500D03*
X129286000Y-84010500D03*
X164782500Y-119570500D03*
D14*
X137922000Y-117983000D03*
D15*
X137922000Y-120523000D03*
X140462000Y-117983000D03*
X140462000Y-120523000D03*
X143002000Y-117983000D03*
X143002000Y-120523000D03*
X145542000Y-117983000D03*
X145542000Y-120523000D03*
X148082000Y-117983000D03*
X148082000Y-120523000D03*
X150622000Y-117983000D03*
X150622000Y-120523000D03*
X153162000Y-117983000D03*
X153162000Y-120523000D03*
X155702000Y-117983000D03*
X155702000Y-120523000D03*
D14*
X155756000Y-85540000D03*
D15*
X155756000Y-83000000D03*
X153216000Y-85540000D03*
X153216000Y-83000000D03*
X150676000Y-85540000D03*
X150676000Y-83000000D03*
X148136000Y-85540000D03*
X148136000Y-83000000D03*
X145596000Y-85540000D03*
X145596000Y-83000000D03*
X143056000Y-85540000D03*
X143056000Y-83000000D03*
X140516000Y-85540000D03*
X140516000Y-83000000D03*
X137976000Y-85540000D03*
X137976000Y-83000000D03*
D16*
X129954000Y-90662000D03*
X129954000Y-95662000D03*
D17*
X127254000Y-89662000D03*
X127254000Y-96662000D03*
D18*
X129418000Y-111633000D03*
X131318000Y-111633000D03*
X129479000Y-109601000D03*
X131379000Y-109601000D03*
X129413000Y-106680000D03*
X131313000Y-106680000D03*
X129479000Y-104648000D03*
X131379000Y-104648000D03*
X129479000Y-102616000D03*
X131379000Y-102616000D03*
D11*
X135001000Y-96012000D03*
X135001000Y-93472000D03*
M02*
