M48
;DRILL file {KiCad 4.0.0-2.201511301920+6191~38~ubuntu14.04.1-stable} date Fri 22 Jan 2016 11:42:36 AM ICT
;FORMAT={-:-/ absolute / metric / decimal}
FMAT,2
METRIC,TZ
T1C0.300
T2C0.300
T3C0.500
T4C0.813
T5C0.900
T6C0.914
T7C1.000
T8C1.016
T9C1.199
T10C2.311
T11C3.048
%
G90
G05
M71
T1
X136.845Y-91.882
X136.845Y-93.177
X137.444Y-91.882
X137.444Y-93.177
X137.795Y-90.932
X137.795Y-91.531
X137.795Y-93.528
X137.795Y-94.127
X139.09Y-90.932
X139.09Y-91.531
X139.09Y-93.528
X139.09Y-94.127
X139.441Y-91.882
X139.441Y-93.177
X140.04Y-91.882
X140.04Y-93.177
T2
X126.05Y-91.85
X133.728Y-91.665
X133.741Y-93.538
X134.112Y-96.012
X134.366Y-90.424
X134.475Y-93.441
X134.494Y-92.489
X134.747Y-89.154
X135.014Y-96.505
X136.327Y-96.932
X136.54Y-88.28
X137.46Y-96.539
X138.183Y-88.389
X138.243Y-96.542
X139.057Y-88.452
X139.7Y-102.616
X140.084Y-96.389
X141.9Y-88.5
X142.124Y-96.017
X142.494Y-92.964
X142.748Y-91.193
X143.584Y-95.639
X144.Y-88.1
X144.75Y-91.981
X145.457Y-102.362
X166.187Y-92.04
T4
X137.795Y-111.76
X137.795Y-114.3
T5
X129.695Y-113.284
X133.195Y-113.284
T6
X158.179Y-98.559
X158.179Y-101.049
X158.179Y-103.055
X158.179Y-105.544
T7
X133.584Y-99.438
X133.584Y-107.439
T8
X135.557Y-82.892
X135.557Y-85.432
X135.567Y-117.942
X135.567Y-120.482
X138.097Y-82.892
X138.097Y-85.432
X138.107Y-117.942
X138.107Y-120.482
X140.637Y-82.892
X140.637Y-85.432
X140.647Y-117.942
X140.647Y-120.482
X143.177Y-82.892
X143.177Y-85.432
X143.187Y-117.942
X143.187Y-120.482
X145.717Y-82.892
X145.717Y-85.432
X145.727Y-117.942
X145.727Y-120.482
X148.257Y-82.892
X148.257Y-85.432
X148.267Y-117.942
X148.267Y-120.482
X150.797Y-82.892
X150.797Y-85.432
X150.807Y-117.942
X150.807Y-120.482
X153.337Y-82.892
X153.337Y-85.432
X153.347Y-117.942
X153.347Y-120.482
X155.877Y-82.892
X155.877Y-85.432
X155.887Y-117.942
X155.887Y-120.482
X158.417Y-82.892
X158.417Y-85.432
X158.427Y-117.942
X158.427Y-120.482
T9
X138.443Y-92.53
T10
X160.897Y-95.486
X160.897Y-108.618
T11
X129.2Y-119.6
X129.3Y-84.
X164.7Y-119.6
X164.9Y-84.
T3
X125.537Y-99.437G85X126.187Y-99.437
G05
X125.537Y-105.062G85X126.187Y-105.062
G05
T0
M30
